<svg xmlns="http://www.w3.org/2000/svg" viewBox="0 0 170.08 283.46"><g id="bf2f3b20-df41-40be-a7d4-3c89c7c9afb4" data-name="HATT"><path d="M127.2,64.59c-2.42-.7-3.16.26-6.63,1.64a44.85,44.85,0,0,1-6.68,2.06s-4.56-19.44-10.71-26.49-19.63-9.74-32.46-7.09-24.18,10.58-27,19.39.68,28.55.68,28.55a44.1,44.1,0,0,1-6.95.77c-3.73.1-5.23-.18-6.74,1.12-1.91,1.65-.5,8.27,6.5,10,10.55,2.7,30.32,1,45.43-2.18s34-9.35,42.58-16C130.94,72,129.63,65.3,127.2,64.59Z" style="fill:#0d0909"/><path d="M45,86.4l-.8-4.7s10.27-.07,37.23-5.29a230,230,0,0,0,32.18-9.12l1.26,5.58s-20.5,8.74-31.3,10.78A168.53,168.53,0,0,1,45,86.4Z" style="fill:#353b45"/></g></svg>