<svg xmlns="http://www.w3.org/2000/svg" viewBox="0 0 170.08 283.46"><g id="a6e238d1-e566-4018-aff0-711e9a37ffb4" data-name="KATTGLASÖGON"><path d="M100.72,107.67c-5.27,1-11.2,4.61-16.2,4.61s-11-3.7-16.28-4.76a123.11,123.11,0,0,0-21.16-1.89A80.08,80.08,0,0,0,54.77,121c5.26,8.28,16.7,6.48,20,4.52s4.34-4.49,6.41-7.35c1.8-2.49,4.63-2.27,6.67,0,2.36,2.63,3.09,5.39,6.4,7.35s14.76,3.76,20-4.52A80.08,80.08,0,0,0,122,105.63,132.48,132.48,0,0,0,100.72,107.67ZM73.52,122c-1.83,1.78-7.6,2.29-11.81.11-5.21-2.7-8.84-12.76-8.84-12.76a97,97,0,0,1,12.7,1.33c8.13,1.67,10.94,3.07,11.68,4.54S76,119.53,73.52,122Zm33.82.11c-4.21,2.18-10,1.67-11.81-.11-2.51-2.44-4.46-5.32-3.73-6.78s3.54-2.87,11.68-4.54a97,97,0,0,1,12.7-1.33S112.54,119.38,107.34,122.08Z" style="fill:#fad600"/></g></svg>