<svg xmlns="http://www.w3.org/2000/svg" viewBox="0 0 170.08 283.46"><g id="eb9b5eff-44ad-42a4-b77a-25b66e113591" data-name="LURAR"><polygon points="46.08 89.08 54.6 146 66.56 139.09 55.92 87.49 46.08 89.08" style="fill:none"/><path d="M136.39,105c-.68-2-3.17-3.94-5.85-5.49A50.12,50.12,0,0,0,127,74c-7.83-18.11-25-25.86-42.25-25.72S50.21,55.34,42.4,74.7c-3.3,8.19-3.3,18.18-2.73,25.08-2.51,1.5-4.78,3.32-5.43,5.24-3.22,9.56,1.33,22.45,5,26.39s18.12,3.08,18.12,3.08S47.78,96,47.9,96s-.76.26-2,.76c-.4-5.55-.21-12.76,2.25-19.1,4.43-11.37,17.7-23.41,35.62-23.5,21.3-.39,31,9.72,37.32,22.34a40,40,0,0,1,3.81,20.34c-1.33-.56-2.22-.86-2.18-.84s-9.47,38.53-9.47,38.53,14.43.86,18.12-3.08S139.61,114.58,136.39,105Z" style="fill:#00944b"/></g></svg>