<svg xmlns="http://www.w3.org/2000/svg" viewBox="0 0 170.08 283.46"><g id="a4f6acb8-e68b-4bfa-b556-6bc1c9ab7f98" data-name="GLASÖGON"><path d="M119.73,108.6l-3.91-.07a14,14,0,0,0-13-10.12c-8.41,0-13,5.22-14.13,10.88a28.59,28.59,0,0,0-4.25-.48,15.56,15.56,0,0,0-4.18.67c-.87-5.94-5.48-11.62-14.27-11.62-10.73,0-13,10.11-13,10.11l-3.57.41.07,3.65,3.2.75a15,15,0,0,0,4.23,8.85,12.35,12.35,0,0,0,8.84,3.67H66a15.19,15.19,0,0,0,10.92-4.85,13.25,13.25,0,0,0,3.47-8.76,16.71,16.71,0,0,1,4-.47,19.31,19.31,0,0,1,4,.43A13.14,13.14,0,0,0,91.85,121a15.17,15.17,0,0,0,10.91,4.85h.29a12.33,12.33,0,0,0,8.85-3.68,15.3,15.3,0,0,0,4.26-9s4-1.07,4-1.07Zm-45,9.85a12.19,12.19,0,0,1-8.78,3.87,9.49,9.49,0,0,1-7-2.8A12,12,0,0,1,55.5,111,10.69,10.69,0,0,1,66,100.84c7.88,0,11.07,5.31,11.42,9.87A10.33,10.33,0,0,1,74.71,118.45Zm35.09,1.62a9.51,9.51,0,0,1-7,2.81A12.24,12.24,0,0,1,94.05,119a10.27,10.27,0,0,1-2.67-7.74c.34-4.55,3.54-9.87,11.41-9.87a10.69,10.69,0,0,1,10.47,10.17A12,12,0,0,1,109.8,120.07Z" style="fill:#e6f1e2"/></g></svg>