<svg xmlns="http://www.w3.org/2000/svg" viewBox="0 0 170.08 283.46"><g id="e96d0b78-ec4b-431a-9f2e-3751057b7a88" data-name="HATT"><path d="M27.37,88.16c18.37,14.24,101.51,8.52,116.67-3,1.55-1.18-25.56-11.35-25.56-11.35S101.62,33.64,96.83,20.23s-10.31-20.85-24-19c-12.9,1.77-26.2,9.44-26.2,9.44l.49,3.48s24.64-4.85,22.14,4.07C64.6,34.82,48.47,77,48.47,77S26.42,87.43,27.37,88.16Z" style="fill:#3f2d28"/><path d="M51.22,65.35A351.74,351.74,0,0,0,87,65.93c7.59-.35,28.93-2.54,28.93-2.54L119.48,74s-18.32,2.8-33.22,3.33c-13.93.5-38.76-.47-38.76-.47Z" style="fill:#007f8a"/><path d="M94.2,64,94.44,79l-19,.24L75.51,64ZM78.77,66.71l0,9.27,12.32-.2L91,66.64Z" style="fill:#55b594"/></g></svg>