<svg xmlns="http://www.w3.org/2000/svg" viewBox="0 0 170.08 283.46"><g id="a2ee31fe-e586-4daa-ae9d-908b80d13d0d" data-name="HAND-TEL"><path d="M72.34,169.17c-1.8.55-2.43,1.29-2.06,3.28s7.16,29,7.53,30.3c.49,1.66,1.22,2.4,3,2,1.33-.31,12.15-2.82,13.52-3.23,1.53-.44,2-1.07,1.78-2.81-.12-1.12-7-29.78-7.39-31.15-.51-1.64-1.39-2-2.72-1.78S73.49,168.82,72.34,169.17Z" style="fill:#f9f6ef"/><polygon points="71.83 171.41 74.22 181.05 80.7 179.48 78.4 169.79 71.83 171.41" style="fill:#434f39"/><path d="M75.77,175.5a1.9,1.9,0,0,0,1.81-2.15,2,2,0,0,0-2.26-1.81,1.94,1.94,0,0,0-1.81,2.17A2,2,0,0,0,75.77,175.5Z" style="fill:#002026"/><path d="M77.93,176.48a.69.69,0,0,0,.65-.78.74.74,0,0,0-1.47.13A.74.74,0,0,0,77.93,176.48Z" style="fill:#008231"/><path d="M76.61,179.53a1.35,1.35,0,0,0,1.3-1.54,1.41,1.41,0,0,0-1.62-1.31A1.39,1.39,0,0,0,75,178.24,1.45,1.45,0,0,0,76.61,179.53Z" style="fill:#0a848e"/><path d="M59.5,208.3s3.27-7,4.61-8.78c.93-1.22,5.41-6.66,7-8.21,1.28-1.24,11-10.74,11-10.74s2.8,1.67.94,4.3c-1.36,1.93-6.43,7.68-6.67,7.93s0,1.37.75.72c.52-.47,12.09-9.4,12.09-9.4s1.93,2.3.38,4.17c-2.1,2.5-9.18,8.32-9.68,8.82s.2.89.63.53,12.38-9.22,12.38-9.22,2.19,3.16-.33,5.12c-2,1.58-8.77,7.84-9.08,8.12-.47.42-.14,1.08.6.5.33-.26,3.14-1.9,9.31-6.16,0,0,1.7,2.76-.43,4.79-.91.86-8.8,6-10.87,7.72a33.17,33.17,0,0,1-7.56,4.94A25.65,25.65,0,0,0,69,217.29Z" style="fill:current"/></g></svg>