<?xml version="1.0" encoding="UTF-8"?><svg id="uuid-37cbf7cd-5561-4212-84a6-00de11a9d784" xmlns="http://www.w3.org/2000/svg" xmlns:xlink="http://www.w3.org/1999/xlink" viewBox="0 0 170.08 283.46"><defs><clipPath id="uuid-8a7e8184-351a-4c85-a977-09ba3482f125"><path d="M53.78,76.18s-3.04-17.02,.79-18.37c3.83-1.35,17.33,8.44,17.33,8.44,0,0-6.75,2.82-10.35,5.07-3.6,2.25-7.77,4.86-7.77,4.86Z" style="fill:#f5b310;"/></clipPath><clipPath id="uuid-df36e7ae-80ad-48e2-a938-959952db6fed"><path d="M114.28,75.54s3.38-16.44-.45-17.79-17.78,8.64-17.78,8.64c0,0,6.19,2.18,9.8,4.43,3.6,2.25,8.43,4.73,8.43,4.73Z" style="fill:#f5b310;"/></clipPath></defs><path d="M47.06,93.64s13.69-21.07,39.23-20.53c26.09,.55,37.77,19.07,37.77,19.07l-3.58-12.23s-7.05-16-34.55-16.37c-27.5-.37-36.18,15.97-36.18,15.97l-2.69,14.1Z" style="fill:#f5b310;"/><g><path d="M53.78,76.18s-3.04-17.02,.79-18.37c3.83-1.35,17.33,8.44,17.33,8.44,0,0-6.75,2.82-10.35,5.07-3.6,2.25-7.77,4.86-7.77,4.86Z" style="fill:#f5b310;"/><g style="clip-path:url(#uuid-8a7e8184-351a-4c85-a977-09ba3482f125);"><path d="M59.55,75.38s-2.92-9.32-1.07-10.47c1.84-1.14,9.08,4.81,9.08,4.81l-8.01,5.66Z" style="fill:#233438;"/></g></g><g><path d="M114.28,75.54s3.38-16.44-.45-17.79-17.78,8.64-17.78,8.64c0,0,6.19,2.18,9.8,4.43,3.6,2.25,8.43,4.73,8.43,4.73Z" style="fill:#f5b310;"/><g style="clip-path:url(#uuid-df36e7ae-80ad-48e2-a938-959952db6fed);"><path d="M108.93,74.98s2.2-8.56,.35-9.71c-1.84-1.14-8.46,4.39-8.46,4.39l8.1,5.32Z" style="fill:#233438;"/></g></g></svg>