<svg xmlns="http://www.w3.org/2000/svg" viewBox="0 0 170.08 283.46"><g id="a22f3d5e-6c50-46ba-9418-44d5588657bc" data-name="TRÅDLURAR"><path d="M123.36,117.61a2.78,2.78,0,0,0-3.47,2.68,3,3,0,0,0,1.81,3A42.35,42.35,0,0,1,112,138.2c-2.11,2.18-4,4-5.67,5.56a68.18,68.18,0,0,0-8.74,9.46L96,152.39l-6.38,11.49,1.51.89c-1.08,2.62-2,5.39-2.88,8-1.55,4.87-2.66,9.31-3.19,11.56-.66-2.25-2-6.65-3.89-11.47a81.2,81.2,0,0,0-5.88-12.44C72.11,155.18,68.09,151,64.21,147a78.64,78.64,0,0,1-8.4-9.64,50.45,50.45,0,0,1-7.16-14.18,2.86,2.86,0,0,0,1.94-2.36,3,3,0,0,0-2.32-3.3,2.78,2.78,0,0,0-3.46,2.68,2.87,2.87,0,0,0,2.56,3.18l.48,0a50.8,50.8,0,0,0,7.3,14.46,80.55,80.55,0,0,0,8.48,9.74c3.86,4,7.84,8.08,11,13.26a80.26,80.26,0,0,1,5.7,12c2.57,6.59,4.22,12.47,4.41,13.17a71.17,71.17,0,0,1-2.93,14.06c-2.19,6.91-6.43,16.09-14.17,20.55-6.66,3.84-15.08,5.44-21.91,6,0,.27.05.53.07.8,6.92-.57,15.47-2.2,22.24-6.1,15.22-8.78,17.49-35.06,17.51-35.32,0,0,1.39-6.25,3.62-13.27.81-2.52,1.71-5.13,2.71-7.6l1.52.9,6.15-11.88-1.18-.61a67.51,67.51,0,0,1,8.56-9.25c1.68-1.6,3.58-3.4,5.7-5.59a42.79,42.79,0,0,0,9.88-15.3,3,3,0,0,0,3.17-2.56A2.93,2.93,0,0,0,123.36,117.61Z" style="fill:#3db1dc"/></g></svg>