<svg xmlns="http://www.w3.org/2000/svg" viewBox="0 0 170.08 283.46"><g id="aed688f5-3d23-4d42-891d-413ad470303d" data-name="ROSETT"><path d="M115.59,74.87s-9.47-20.31-16.53-16.82c-4.55,2.25-2.92,11.41-4.87,15.42-2.53,5.19-7.45,15.68,1,17s18.89-9.57,18.89-9.57Z" style="fill:#dc5193"/><path d="M115.24,77.66l.87,3.23s3.66,11.49,9.26,16.78c3,2.84,7,4.28,9-.44s.45-10.23,1.7-13.62c2.51-6.79,8.35-12.23,1.67-15.55s-20.23,7.33-20.23,7.33Z" style="fill:#dc5193"/><polygon points="113.76 75.35 107.21 69.64 106.38 71.16 111.92 76.39 105.38 77.29 105.65 79.21 113.58 77.88 113.76 75.35" style="fill:#d3003b"/><polygon points="117.79 79.43 123.37 85.84 124.58 84.59 119.84 78.91 126.07 78.58 126.04 76.43 118.64 77.03 117.79 79.43" style="fill:#d3003b"/><path d="M115.55,72.38c-2.17-.34-3.23-.26-4.76,4s.87,5.5,4.23,6.42,4.28-.75,5.07-3.63S122,73.38,115.55,72.38Z" style="fill:#d3003b"/></g></svg>