<svg xmlns="http://www.w3.org/2000/svg" xmlns:xlink="http://www.w3.org/1999/xlink" viewBox="0 0 170.08 283.46"><defs><clipPath id="a41f5d84-48f6-4fce-8432-aeca66ae0952"><path d="M123.68,199.65c-.08-.94-.15-1.84-.22-2.74-.09-1.07-.17-2.12-.26-3.13l-.06-.76c-.07-.86-.14-1.69-.21-2.5,0-.32-.06-.62-.09-.93l-.12-1.4L122.6,187c0-.34-.07-.67-.11-1-.08-.77-.16-1.52-.25-2.24,0-.23,0-.46-.08-.68,0-.44-.11-.88-.17-1.31,0-.19-.06-.38-.08-.57-.21-1.42-.44-2.75-.7-4,0-.14,0-.27-.08-.41-.28-1.27-.59-2.47-.94-3.61,0-.12-.07-.23-.11-.34-.12-.36-.24-.72-.37-1.08a1.8,1.8,0,0,1-.08-.21c-.13-.34-.26-.69-.4-1a23.56,23.56,0,0,0-3.71-6.11c-.36-.43-.72-.83-1.08-1.23l-.32-.35c-.25-.27-.5-.54-.75-.79l-.33-.35-.76-.75-.25-.25-.6-.57s.5-6.77-1.62-12.14a12.17,12.17,0,0,0-7.28-7c-.78.47-1.54.92-2.27,1.34h0l-.33.18-4.84,10.55-6.51,14.21L83.75,177.8l-4.14-10.25-6.07-15L69,141.34l-.08,0h0l-1.49-.89c-4.5,1.67-7.91,4.41-8.9,8.58a51,51,0,0,0-.93,11.08l.29-.26c-.1.08-.19.18-.29.27l-.54.51-.28.27c-.25.24-.49.5-.74.75l-.35.35c-.25.26-.51.54-.76.82-.11.11-.22.22-.33.35l-1.11,1.26c-.44.52-.85,1.05-1.25,1.6h0c-.39.55-.76,1.1-1.12,1.67a29,29,0,0,0-2.54,5.28l0,.12a41.5,41.5,0,0,0-1.68,6.35v0c-.1.53-.2,1.08-.28,1.64l-.06.34c-.08.54-.16,1.09-.23,1.66,0,.1,0,.2,0,.31q-.33,2.7-.54,5.82c0,.13,0,.25,0,.39,0,.59-.07,1.21-.11,1.83l0,.77c0,.61-.06,1.24-.08,1.87l0,.8c0,.67,0,1.35-.05,2h0c0,.89,0,1.8-.06,2.74-.26,18.23-.37,32,3.61,45.08s13.83,38.73,13.83,38.73h45.06s10.26-24.06,14.24-37.14S125.16,217.56,123.68,199.65Z" style="fill:current"/></clipPath></defs><g id="a1902ecd-0abb-4ee1-ba38-f57b3c179acf" data-name="KLÄDER"><path d="M87.55,153.43a80,80,0,0,1-14-.9l6.07,15,4.14,10.25,4.83-10.53,6.52-14.21C92.82,153.26,90.31,153.39,87.55,153.43Z" style="fill:#f9f6ef"/><path d="M123.68,199.65c-.08-.94-.15-1.84-.22-2.74-.09-1.07-.17-2.12-.26-3.13l-.06-.76c-.07-.86-.14-1.69-.21-2.5,0-.32-.06-.62-.09-.93l-.12-1.4L122.6,187c0-.34-.07-.67-.11-1-.08-.77-.16-1.52-.25-2.24,0-.23,0-.46-.08-.68,0-.44-.11-.88-.17-1.31,0-.19-.06-.38-.08-.57-.21-1.42-.44-2.75-.7-4,0-.14,0-.27-.08-.41-.28-1.27-.59-2.47-.94-3.61,0-.12-.07-.23-.11-.34-.12-.36-.24-.72-.37-1.08a1.8,1.8,0,0,1-.08-.21c-.13-.34-.26-.69-.4-1a23.56,23.56,0,0,0-3.71-6.11c-.36-.43-.72-.83-1.08-1.23l-.32-.35c-.25-.27-.5-.54-.75-.79l-.33-.35-.76-.75-.25-.25-.6-.57s.5-6.77-1.62-12.14a12.17,12.17,0,0,0-7.28-7c-.78.47-1.54.92-2.27,1.34h0l-.33.18-4.84,10.55-6.51,14.21L83.75,177.8l-4.14-10.25-6.07-15L69,141.34l-.08,0h0l-1.49-.89c-4.5,1.67-7.91,4.41-8.9,8.58a51,51,0,0,0-.93,11.08l.29-.26c-.1.08-.19.18-.29.27l-.54.51-.28.27c-.25.24-.49.5-.74.75l-.35.35c-.25.26-.51.54-.76.82-.11.11-.22.22-.33.35l-1.11,1.26c-.44.52-.85,1.05-1.25,1.6h0c-.39.55-.76,1.1-1.12,1.67a29,29,0,0,0-2.54,5.28l0,.12a41.5,41.5,0,0,0-1.68,6.35v0c-.1.53-.2,1.08-.28,1.64l-.06.34c-.08.54-.16,1.09-.23,1.66,0,.1,0,.2,0,.31q-.33,2.7-.54,5.82c0,.13,0,.25,0,.39,0,.59-.07,1.21-.11,1.83l0,.77c0,.61-.06,1.24-.08,1.87l0,.8c0,.67,0,1.35-.05,2h0c0,.89,0,1.8-.06,2.74-.26,18.23-.37,32,3.61,45.08s13.83,38.73,13.83,38.73h45.06s10.26-24.06,14.24-37.14S125.16,217.56,123.68,199.65Z" style="fill:current"/><g style="clip-path:url(#a41f5d84-48f6-4fce-8432-aeca66ae0952)"><polygon points="82.32 178.46 83.08 298.9 86.12 299.15 85.11 177.95 82.32 178.46" style="fill:#485d15"/><path d="M66.25,174.82s-5.17,9.55-4.49,17.38,4.74,14.46,4.85,19.34a17.49,17.49,0,0,1-2,8.44l2.18.48s2.45-3,2.25-9.45c-.17-5.37-4.92-13-4.86-19.32.08-7.51,3.72-15,3.72-15Z" style="fill:#eb6a27"/><path d="M103.08,175.71s5.18,9.55,4.49,17.38-4.74,14.46-4.85,19.34a17.58,17.58,0,0,0,2,8.44l-2.17.48s-2.46-3-2.26-9.44c.17-5.38,4.92-13,4.86-19.33-.07-7.51-3.72-15-3.72-15Z" style="fill:#eb6a27"/><path d="M86.46,180.53a2.81,2.81,0,0,0-3.49-2.7,3,3,0,0,0-2.33,3.32,2.88,2.88,0,0,0,1.61,2.26l-1,6.89,4.55-.09L85,183.35A3,3,0,0,0,86.46,180.53ZM83.32,179a1.5,1.5,0,0,1,1.87,1.45,1.57,1.57,0,0,1-1.39,1.71,1.6,1.6,0,0,1-.48-3.16Z" style="fill:#e8b000"/></g></g></svg>