<svg xmlns="http://www.w3.org/2000/svg" xmlns:xlink="http://www.w3.org/1999/xlink" viewBox="0 0 170.08 283.46"><defs><clipPath id="b056bfda-da9b-45ff-ae06-f172b3f2a6e0"><path d="M123.68,199.65c-1.5-18.18-1.91-27.87-8.16-35.26-5.9-7-10.79-8.89-13.23-14.35a72,72,0,0,1-17.58,2A59.28,59.28,0,0,1,67,149.42c-2.34,5.94-7.36,7.73-13.48,15-6.26,7.39-7.9,16.81-8.16,35.26-.26,18.23-.37,32,3.61,45.08S62.8,283.46,62.8,283.46h45.05s10.26-24.06,14.24-37.14S125.16,217.56,123.68,199.65Z" style="fill:current"/></clipPath></defs><g id="f60dbca3-1823-4e2e-9c36-c6159011c020" data-name="KLÄDER"><path d="M123.68,199.65c-1.5-18.18-1.91-27.87-8.16-35.26-5.9-7-10.79-8.89-13.23-14.35a72,72,0,0,1-17.58,2A59.28,59.28,0,0,1,67,149.42c-2.34,5.94-7.36,7.73-13.48,15-6.26,7.39-7.9,16.81-8.16,35.26-.26,18.23-.37,32,3.61,45.08S62.8,283.46,62.8,283.46h45.05s10.26-24.06,14.24-37.14S125.16,217.56,123.68,199.65Z" style="fill:current"/><g style="clip-path:url(#b056bfda-da9b-45ff-ae06-f172b3f2a6e0)"><path d="M83.91,178.2a2.91,2.91,0,0,0-2.1,2.75,3.22,3.22,0,0,0,3,3.37,3.17,3.17,0,0,0,3.44-2.73,3.13,3.13,0,0,0-2-3.38c4.7-.59,9.54-5.13,14.38-13.52a94.67,94.67,0,0,0,5.74-12c-.19-.2-.37-.39-.54-.59-1.78,4.59-10.36,25.3-20.48,25.51h-.18c-10.79,0-18.71-20.55-20.44-25.41l-.54.58a84.79,84.79,0,0,0,5.44,12.11C74.18,173.09,79,177.57,83.91,178.2Z" style="fill:#d8ac6b"/></g><path d="M107.37,197.32l-3.93,3.23,4.84,1.1L99,210.72l2.9-7.36-5.07.06,5.7-8.19a15.54,15.54,0,0,0-1.83,0c-7.18.3-7,7.14-6.75,10s1.12,8.44,7.49,8.56c6.91.13,8.22-4.27,8.22-9.73C109.61,201.2,108.91,198.88,107.37,197.32Z" style="fill:#f4eadf"/><polygon points="68.84 204.18 65.11 204.34 64.11 194.97 61.05 195.22 61.13 214.87 65.03 214.87 65.03 207.82 68.18 207.91 68.68 214.79 72.49 214.79 72.99 194.97 69.67 194.97 68.84 204.18" style="fill:#f4eadf"/><path d="M79.62,211.27c-2.41,0-2.32-2.7-2.32-2.7l6.89-.5s.67-5.77-4.72-5.86-5.73,4.2-5.49,7.11a5.16,5.16,0,0,0,4.9,4.89c4,.43,5.55-1.58,5.55-1.58l-.33-2.57A10,10,0,0,1,79.62,211.27Z" style="fill:#f4eadf"/><polygon points="84.68 194.36 85.84 214.63 88.5 214.54 87.5 194.76 84.68 194.36" style="fill:#f4eadf"/><polygon points="89.7 194.88 90.49 214.39 93.81 214.15 92.36 194.64 89.7 194.88" style="fill:#f4eadf"/></g></svg>