<svg xmlns="http://www.w3.org/2000/svg" xmlns:xlink="http://www.w3.org/1999/xlink" viewBox="0 0 170.08 283.46"><defs><clipPath id="aeef34ee-70a4-4d6d-8855-1b1c7609e057"><path d="M69,141.3A44.56,44.56,0,0,1,67.17,149c-2.27,6.26-7.39,8-13.65,15.36s-7.9,16.81-8.16,35.26c-.26,18.23-.37,32,3.61,45.08S62.8,283.46,62.8,283.46h45.05s10.26-24.06,14.24-37.14,3.07-28.76,1.59-46.67c-1.5-18.18-1.91-27.87-8.16-35.26s-11.37-9.1-13.65-15.36a40.44,40.44,0,0,1-1.61-6.7c-6.1,3.53-10.61,5.42-14.71,5.42C80.8,147.75,75.38,145.09,69,141.3Z" style="fill:#f1912c"/></clipPath></defs><g id="a520cd93-0612-43c6-9de1-51cb87bb286f" data-name="KLÄDER"><path d="M69,141.3A44.56,44.56,0,0,1,67.17,149c-2.27,6.26-7.39,8-13.65,15.36s-7.9,16.81-8.16,35.26c-.26,18.23-.37,32,3.61,45.08S62.8,283.46,62.8,283.46h45.05s10.26-24.06,14.24-37.14,3.07-28.76,1.59-46.67c-1.5-18.18-1.91-27.87-8.16-35.26s-11.37-9.1-13.65-15.36a40.44,40.44,0,0,1-1.61-6.7c-6.1,3.53-10.61,5.42-14.71,5.42C80.8,147.75,75.38,145.09,69,141.3Z" style="fill:#f1912c"/><g style="clip-path:url(#aeef34ee-70a4-4d6d-8855-1b1c7609e057)"><path d="M46.87,97.19S41.8,158,69.65,221.24s57.22,90.13,57.22,90.13S217.5,290.1,216,290.1,157.25,78,157.25,78Z" style="fill:#f5cd00"/><path d="M39.74,79.94s8.45,60.39,49.56,116S165,271.23,165,271.23s83.72-40.71,82.24-40.38-104-194-104-194Z" style="fill:current"/></g></g></svg>