<svg xmlns="http://www.w3.org/2000/svg" xmlns:xlink="http://www.w3.org/1999/xlink" viewBox="0 0 170.08 283.46"><defs><clipPath id="afed5567-356a-462d-8dad-16697cd5979d"><path d="M123.68,199.65c-1.5-18.18-1.91-27.87-8.16-35.26-5.9-7-10.79-8.89-13.23-14.35a72,72,0,0,1-17.58,2A59.28,59.28,0,0,1,67,149.42c-2.34,5.94-7.36,7.73-13.48,15-6.26,7.39-7.9,16.81-8.16,35.26-.26,18.23-.37,32,3.61,45.08S62.8,283.46,62.8,283.46h45.05s10.26-24.06,14.24-37.14S125.16,217.56,123.68,199.65Z" style="fill:current"/></clipPath></defs><g id="b7a0926c-f5a6-4f94-9de4-78af7d110363" data-name="KLÄDER"><path d="M123.68,199.65c-1.5-18.18-1.91-27.87-8.16-35.26-5.9-7-10.79-8.89-13.23-14.35a72,72,0,0,1-17.58,2A59.28,59.28,0,0,1,67,149.42c-2.34,5.94-7.36,7.73-13.48,15-6.26,7.39-7.9,16.81-8.16,35.26-.26,18.23-.37,32,3.61,45.08S62.8,283.46,62.8,283.46h45.05s10.26-24.06,14.24-37.14S125.16,217.56,123.68,199.65Z" style="fill:current"/><g style="clip-path:url(#afed5567-356a-462d-8dad-16697cd5979d)"><path d="M216.25,162.33c18.33-35.55,23.86-66.26,23.86-66.26l-45.87,3.47S166.36,167,135.45,201.82-1.1,239.42-1.1,239.42l-9,21.48c-47.29-7.69-90.42-24.12-90.42-24.12l-31.08,26.92S-16.3,312.79,84.14,293.25c118.79-23.11,186.32-113.51,186.32-113.51Z" style="fill:#008533"/><path d="M157.28,160.72S142.23,196.4,88.47,217c-48.66,18.6-113.4.1-113.4.1L-39,252.73s80.07,16.59,138.42-5.08c66.15-24.57,93.48-89.91,93.48-89.91Z" style="fill:#f5e012"/><path d="M170.27,111.45s-8.94,64-59.18,102.45c-54.79,42-123.65,36.15-123.65,36.15L-22.81,222s70.05,5.37,118.58-25.65c45.48-29.06,51.31-77.72,51.31-77.72Z" style="fill:#fa9f00"/><path d="M174.88,86.37s2.87,61.76-51.16,101.13C72.34,225,18.66,219.86,18.66,219.86l.3-18.78s44.08-6.86,85.9-40c36.3-28.73,45.83-73.43,45.83-73.43Z" style="fill:#dcb8d1"/></g></g></svg>