<svg xmlns="http://www.w3.org/2000/svg" xmlns:xlink="http://www.w3.org/1999/xlink" viewBox="0 0 170.08 283.46"><defs><clipPath id="abb1b079-3d30-4218-8cd6-5f37ea392429"><path d="M123.68,199.65c-1.5-18.18-1.91-27.87-8.16-35.26s-11.37-9.1-13.65-15.36a33.81,33.81,0,0,1-1.1-4c-2.82.61-6.11,1.22-9.24,1.59a18,18,0,0,1-6,1.17,18.21,18.21,0,0,1-5.91-1.13,95.5,95.5,0,0,1-11.33-1.8A32.62,32.62,0,0,1,67.17,149c-2.27,6.26-7.39,8-13.65,15.36s-7.9,16.81-8.16,35.26c-.26,18.23-.37,32,3.61,45.08S62.8,283.46,62.8,283.46h45.05s10.26-24.06,14.24-37.14S125.16,217.56,123.68,199.65Z" style="fill:current"/></clipPath></defs><g id="b2eb3e5e-cd03-4244-9622-8990175f7059" data-name="KLÄDER"><path d="M79.64,146.62a18.21,18.21,0,0,0,5.91,1.13,18,18,0,0,0,6-1.17,44.34,44.34,0,0,1-4.83.34A69,69,0,0,1,79.64,146.62Z" style="fill:none"/><path d="M123.68,199.65c-1.5-18.18-1.91-27.87-8.16-35.26s-11.37-9.1-13.65-15.36a33.81,33.81,0,0,1-1.1-4c-2.82.61-6.11,1.22-9.24,1.59a18,18,0,0,1-6,1.17,18.21,18.21,0,0,1-5.91-1.13,95.5,95.5,0,0,1-11.33-1.8A32.62,32.62,0,0,1,67.17,149c-2.27,6.26-7.39,8-13.65,15.36s-7.9,16.81-8.16,35.26c-.26,18.23-.37,32,3.61,45.08S62.8,283.46,62.8,283.46h45.05s10.26-24.06,14.24-37.14S125.16,217.56,123.68,199.65Z" style="fill:current"/><g style="clip-path:url(#abb1b079-3d30-4218-8cd6-5f37ea392429)"><path d="M57.53,158.36S52.91,173.65,52.71,187s-1.27,89.9-1.27,89.9L54,280s.9-81.29,1.22-93,4.95-30.31,4.95-30.31Z" style="fill:#f9f6ef"/><path d="M64.88,145s-5.34,23.49-6.82,42.45c-.36,24.46-2.26,101.53-2.26,101.53L58.48,291s1.88-90.37,2.27-104.46,6.72-42,6.72-42Z" style="fill:#f9f6ef"/><path d="M114.09,149.62s4.62,15.3,4.82,28.63,1.27,89.9,1.27,89.9l-2.52,3.09s-.89-81.29-1.21-93-5-30.31-5-30.31Z" style="fill:#f9f6ef"/><path d="M106.74,136.22s5.34,23.49,6.81,42.44c.37,24.46,2.27,101.53,2.27,101.53l-2.68,2.06s-1.89-90.36-2.27-104.46-6.72-42-6.72-42Z" style="fill:#f9f6ef"/><polygon points="82.75 148.36 83.42 302.05 87.49 303.39 87.48 148.58 82.75 148.36" style="fill:#004f8f"/><path d="M86.23,147.86a4.78,4.78,0,0,1-1.45,9.44,4.87,4.87,0,0,1-4.52-5.09c.09-3.49,3.61-4.9,6-4.35M86,149a3.65,3.65,0,0,0-4.53,3.31,3.69,3.69,0,0,0,3.42,3.86A3.63,3.63,0,0,0,86,149" style="fill:#f9f6ef"/><polygon points="17 239.3 158.97 238.17 150.18 323.85 7.03 318.65 17 239.3" style="fill:current"/></g></g></svg>