<svg id="b1bdde23-9271-46e5-84c0-2a33ba020008" data-name="Layer 1" xmlns="http://www.w3.org/2000/svg" xmlns:xlink="http://www.w3.org/1999/xlink" viewBox="0 0 1920 1080">
	<defs>
		<clipPath id="af384d48-ef7a-4bb5-a7af-e4aa5f7c7691">
			<path d="M1210.76,800.55c-5.28,15.68,2.18,36.82,8.22,43.27s29.71,5.06,29.71,5.06S1233,785.8,1233.16,785.7,1213.45,792.55,1210.76,800.55Z" style="fill:#df5297" />
		</clipPath>
		<clipPath id="b788577b-5dc9-4612-bb8e-382ada56ce95">
			<path d="M1376.41,800.55c5.28,15.68-2.18,36.82-8.22,43.27s-29.71,5.06-29.71,5.06,15.74-63.08,15.53-63.18S1373.72,792.55,1376.41,800.55Z" style="fill:#df5297;clip-path:url(#af384d48-ef7a-4bb5-a7af-e4aa5f7c7691)" />
		</clipPath>
		<clipPath id="f50b4a5b-f0db-438b-b238-43e30e97c14a">
			<path d="M508.86,929.12c-3.07-37.15-3.9-56.94-16.67-72S469,838.49,464.3,825.7s-5.8-37.19-5.8-37.19H399.18s-1.16,24.4-5.8,37.19-15.1,16.26-27.89,31.38-16.14,34.34-16.67,72c-.53,37.24-.75,65.38,7.38,92.1s28.25,79.13,28.25,79.13h92.06s21-49.16,29.1-75.88S511.88,965.71,508.86,929.12Z" style="fill:#1a6036" />
		</clipPath>
		<clipPath id="a12ef05c-220e-4ae6-9a9c-a8a2388a5999">
			<polygon points="390.14 794.9 428.92 879.53 470.25 792.85 465.01 762.23 395.36 758.33 390.14 794.9" style="fill:#d8ac6d" />
		</clipPath>
		<clipPath id="a0347633-dc1d-4dca-9cea-13a094378439">
			<path d="M809,935c-3-35.7-3.75-54.73-16-69.24s-22.32-17.87-26.8-30.16-5.58-35.74-5.58-35.74h-57s-1.12,23.45-5.58,35.74-14.51,15.63-26.8,30.16-15.51,33-16,69.24c-.51,35.79-.73,62.83,7.09,88.52s27.15,76,27.15,76h88.48s20.15-47.25,28-72.93S811.88,970.19,809,935Z" style="fill:#f4e9e0" />
		</clipPath>
		<clipPath id="b57004ef-a86a-4ccd-963a-91646ecac13f">
			<path d="M685.67,839.34,708,884.46l24.59-27.17,25.15,26.15L777.11,841l65.83,15.69s-15.69,271.17-18.08,269.47-208.41-10.24-209.44-12.62,24.9-253.44,24.9-253.44Z" style="fill:#f3df07" />
		</clipPath>
		<clipPath id="ffe8c65f-f905-4b66-ac30-b319bc0f1b47">
			<path d="M662.66,1023.4c-3-37-3.89-56.67-16.6-71.7s-23.12-18.5-27.75-31.23-5.78-37-5.78-37h-59s-1.15,24.28-5.77,37-15,16.18-27.76,31.23-16.06,34.18-16.59,71.7c-.53,37.07-.75,65.07,7.34,91.66s28.12,78.75,28.12,78.75h91.63s20.86-48.92,28.95-75.51S665.67,1059.82,662.66,1023.4Z" style="fill:#0598d6" />
		</clipPath>
		<clipPath id="acda8967-3bf1-4f87-8ed3-d1a19def6c63">
			<path d="M953,1027.24c-2.35-28.51-3-43.7-12.8-55.29s-17.82-14.27-21.4-24.09c-.14-.37-.26-.8-.39-1.2L892.7,963.41,865,946.07c-.19.62-.38,1.23-.58,1.79-3.56,9.82-11.59,12.49-21.41,24.09s-12.39,26.36-12.79,55.29c-.41,28.58-.58,50.17,5.66,70.68s21.68,60.73,21.68,60.73h70.66s16.09-37.72,22.33-58.23S955.35,1055.32,953,1027.24Z" style="fill:#208b4a" />
		</clipPath>
		<clipPath id="a0289e9e-22df-4f5c-b463-ac49420170fe">
			<path d="M93.31,1046.56c8.3,27.25,28.82,80.69,28.82,80.69H216s21.37-50.13,29.67-77.38S252.07,990,249,952.64c-2.76-33.44-3.76-53.08-12.92-67.82H98.59c-9.59,14.64-12.32,33.9-12.8,67.82C85.25,990.62,85,1019.31,93.31,1046.56Z" style="fill:#127fbf" />
		</clipPath>
		<clipPath id="f1f7f3d4-2e46-485c-a7be-50d3ead3ea16">
			<path d="M1577.6,879.63a91.85,91.85,0,0,1-3.8,16.51c-4.84,13.36-15.77,17-29.13,32.78s-16.86,35.87-17.41,75.25c-.56,38.9-.79,68.29,7.7,96.2s29.52,82.66,29.52,82.66h96.16s21.9-51.35,30.39-79.26,6.55-61.38,3.39-99.6c-3.2-38.8-4.07-59.48-17.41-75.25s-24.27-19.42-29.13-32.78a85,85,0,0,1-3.45-14.3c-13,7.52-22.65,11.57-31.4,11.57C1602.9,893.41,1591.34,887.73,1577.6,879.63Z" style="fill:#f19031" />
		</clipPath>
		<clipPath id="ae25a815-1691-4630-b684-932fffb8c2c0">
			<path d="M953.19,810.92c-3.8,44.34,4.86,67,27.67,80.93,22.18,13.55,39.4,24.82,53.76,24.82,13.24,0,28.41-9.09,54.22-25.57,19.71-12.57,26.91-28.2,25.65-70-.74-24.09-30.77-66.82-81.79-66.11C977.39,755.74,955.44,784.56,953.19,810.92Z" style="fill:#f7b316" />
		</clipPath>
		<clipPath id="bc20702f-c1a4-4f7e-aaa3-548f10139c64">
			<path d="M1071.91,840c-7.93,2.75-14.2,5.33-13.4,13.63s7.91,11.66,13.42,10.2c8.47-2.25,18.06-16.18,17.14-21-1.32-7-10.27-5.13-17.16-2.79" style="fill:#faf7f0" />
		</clipPath>
		<clipPath id="e452f193-1fed-4d55-b5b7-cd6c5db2df91">
			<path d="M995.21,839.51c7.94,2.75,14.2,5.32,13.4,13.63s-7.9,11.66-13.41,10.19c-8.47-2.24-18.35-16.24-17.15-21,1.8-7.16,10.28-5.14,17.16-2.79" style="fill:#faf7f0" />
		</clipPath>
		<clipPath id="e9e1a9a2-6b16-4995-9f5b-77522bf8ebb3">
			<path d="M962.71,764.41s-6.51-36.39,1.68-39.28,37.05,18,37.05,18-14.42,6-22.13,10.85Z" style="fill:#f7b316" />
		</clipPath>
		<clipPath id="a94cf20e-d9da-4443-bf9b-206d5eee2a4c">
			<path d="M1092.05,763.05s7.23-35.16-1-38-38,18.47-38,18.47,13.24,4.65,20.94,9.47S1092.05,763.05,1092.05,763.05Z" style="fill:#f7b316" />
		</clipPath>
	</defs>
	<path d="M2474.82,1590.91H-1267.95V-1123H2474.82ZM7453.75-4018.84h-13526V4883.75h13526Z" style="fill:#fff" />
	<path d="M1358.27,957.75c-2.46-29.8-3.13-45.69-13.38-57.8s-18.64-14.92-22.38-25.19-4.65-29.83-4.65-29.83h-47.59s-.94,19.57-4.66,29.83-12.12,13-22.38,25.19-13,27.55-13.38,57.8c-.42,29.89-.6,52.46,5.92,73.91s22.67,63.49,22.67,63.49h73.88s16.82-39.44,23.34-60.89S1360.7,987.11,1358.27,957.75Z" style="fill:#fbd704" />
	<path d="M1356.88,805.42l-.35,1.1c0-2.07,0-4.22-.1-6.48-.55-18.31-23.37-50.77-62.15-50.23-42,.57-58.72,22.47-60.43,42.49-.42,5-.64,9.63-.65,13.93l-.25-.81s-13.78-2.14-10.83,12.93c2.75,14,9.87,15.95,13.42,15.79a4.49,4.49,0,0,0,2-.56,40.61,40.61,0,0,0,17.4,20.22c16.85,10.29,29.93,18.87,40.85,18.87,10.07,0,21.59-6.92,41.2-19.43,7.81-5,13-10.6,16.11-19.34a4.4,4.4,0,0,0,1.24.24c3.55.16,10.66-1.74,13.41-15.79C1370.65,803.28,1356.88,805.42,1356.88,805.42Z" style="fill:#208b4a" />
	<path d="M1294.28,847.76c-3.87,0-11-.8-11.29,2.89s4.33,8.29,10.21,8.79c5.64.47,11.64-3,11.3-8.1-.28-4-6.35-3.56-10.22-3.58" style="fill:#ea5342" />
	<path d="M1326,813.35c-4.48-1-11.61,1.89-11.77,8.49s5.77,9.27,9,9.38c4.57.16,9-2.34,9.83-7.82a9,9,0,0,0-7.08-10" style="fill:#f9f5ef" />
	<path d="M1327.24,814.42a4.58,4.58,0,0,0-5.71,4.41c-.08,3.55,2.48,5.14,4.21,5.21a4.9,4.9,0,0,0,5.3-4.2,4.83,4.83,0,0,0-3.8-5.42" style="fill:#50256a" />
	<path d="M1266,763.33s-3,13.89-5.74,18.17c-7.56,11.69-15.48,12.38-16.51,20.64a37.85,37.85,0,0,0,2.38,19l-5.07.42s-.84-8-3.37-12.24-8-3.76-8-3.76-21.46-77.12,66.07-76.9c74.56.2,65.24,76.86,65.24,76.86s-6.39.55-8.5,5.2-2.75,11.35-2.75,11.35h-5.85s6.76-9.77,0-19.27C1334.53,789.66,1266,763.33,1266,763.33Z" style="fill:#d07ab0" />
	<path d="M1301.89,945.39c-5.29.75-5.73,5.84-4.9,11.34s5.37,8.16,10.06,8c3.32-.12,10.67-2,10.5-8.73S1307.17,944.64,1301.89,945.39Z" style="fill:none" />
	<path d="M1289.65,957.63c.83-5.5.39-10.59-4.9-11.34s-15.49,3.84-15.66,10.61,7.18,8.61,10.5,8.73C1284.28,965.79,1288.8,963.22,1289.65,957.63Z" style="fill:none" />
	<path d="M1334.85,921.12s.88-5.87-4.69-5.58-3.23,10-3.23,10l-4.83,4.29c-5.81-5.48-14.65-8.29-29.28-7.91-14.82.38-23.09,4.05-28.19,10.63l-4.65-4.14s2.34-9.68-3.23-10-4.69,5.58-4.69,5.58-7,1.46-5,5.57,8.51,2.93,8.51,2.93l5.84,5.37c-2.5,5.31-4,11.87-5.35,19.57-2.87,15.8,8.28,19.93,15.59,23.94l-7.09,6.51s-6.45-1.17-8.51,2.94,5,5.57,5,5.57-.88,5.87,4.69,5.57,3.23-10,3.23-10l7.67-6.82a4.81,4.81,0,0,1,.8,1.66c2,8,4.88,23.18,4.88,23.18l26.61-.24s3.47-19,4.39-24.16a5.06,5.06,0,0,1,1.41-2.5l7.56,6.73s-2.34,9.68,3.23,10,4.69-5.57,4.69-5.57,7-1.47,5-5.57-8.51-2.94-8.51-2.94l-7.08-6.51c7.05-4.92,17.06-11.42,13.72-25.1-1.91-7.85-3.95-14.45-7.32-19.61l5.32-4.89s6.45,1.18,8.5-2.93S1334.85,921.12,1334.85,921.12Zm-55.26,44.51c-3.32-.12-10.66-2-10.5-8.73s10.38-11.36,15.66-10.61,5.73,5.84,4.9,11.34S1284.28,965.79,1279.59,965.63Zm3.74,19.36,4.44.09.63,7.74-4.27-.08Zm1.55,16.32-.69-6.6,4.08.08.56,6.58Zm8.95-16.1.25,7.71-4.26-.08-.41-7.72Zm-3.69,16.19-.36-6.59,4.07.07.23,6.58Zm9.19-.06-3.93-.06,0-6.6,4.07.08Zm.42-8.55-4.25-.08,0-7.74,4.41.09Zm5,8.28-3.94-.07.3-6.62,4.07.07Zm.65-7.9-4.23-.08.35-7.68,4.39.09Zm1.62-28.44c-4.69.16-9.21-2.41-10.06-8s-.39-10.59,4.9-11.34,15.49,3.84,15.66,10.61S1310.37,964.61,1307.05,964.73Z" style="fill:#e5f1e2" />
	<path d="M1218.7,808.32s-4-29.44,5-52.57c8.45-21.73,34.13-45.92,68.28-46.08h.5c34.1,0,60.24,16.54,70,44.33,9.38,26.76,5.87,46.36,5.71,47.18L1358,798c0-.16,3.12-17.78-5.18-41.43s-29-36.62-61.18-36.62c-29.38.14-51.14,19.88-58.39,38.52-7.88,20.27-3.69,46.77-3.65,47Z" style="fill:#df5297" />
	<path d="M1210.76,800.55c-5.28,15.68,2.18,36.82,8.22,43.27s29.71,5.06,29.71,5.06S1233,785.8,1233.16,785.7,1213.45,792.55,1210.76,800.55Z" style="fill:#df5297" />
	<path d="M1376.41,800.55c5.28,15.68-2.18,36.82-8.22,43.27s-29.71,5.06-29.71,5.06,15.74-63.08,15.53-63.18S1373.72,792.55,1376.41,800.55Z" style="fill:#df5297" />
	<g style="clip-path:url(#b788577b-5dc9-4612-bb8e-382ada56ce95)">
		<polygon points="1229.12 776.18 1243.07 869.5 1262.7 858.17 1245.25 773.57 1229.12 776.18" style="fill:#df5297" />
	</g>
	<path d="M1269.12,813.35c-4.48-1-11.13,1.64-11.3,8.25a9.2,9.2,0,0,0,8.54,9.62c4.58.15,9-2.34,9.82-7.82a9,9,0,0,0-7.06-10" style="fill:#f9f6f0" />
	<path d="M1270.05,814.12a4.57,4.57,0,0,0-5.7,4.41c-.09,3.56,2.47,5.15,4.23,5.21a4.87,4.87,0,0,0,1.47-9.62" style="fill:#50256a" />
	<path d="M340.65,838.24c14,24.48,39.72,45.49,52.46,56,10,8.25,57.49,7.09,68.19,1.75,24.48-12.24,49.36-31.09,61.2-63,10.27-27.62,2.9-78.72-.38-93.51s-4.77-38.73-16.27-51S476.41,664.32,427.94,675s-88.33,26.15-94.9,63.93S330,819.52,340.65,838.24Z" style="fill:#fac507" />
	<path d="M430.46,802.12c-23.08-1.36-50.64,2.09-55,20.36-3.43,14.43-.68,40.74-.68,40.74L426,861.61l56.76-1.79s4-21.1-2-38S452.6,803.42,430.46,802.12Z" style="fill:#1a6036" />
	<path d="M508.86,929.12c-3.07-37.15-3.9-56.94-16.67-72S469,838.49,464.3,825.7s-5.8-37.19-5.8-37.19H399.18s-1.16,24.4-5.8,37.19-15.1,16.26-27.89,31.38-16.14,34.34-16.67,72c-.53,37.24-.75,65.38,7.38,92.1s28.25,79.13,28.25,79.13h92.06s21-49.16,29.1-75.88S511.88,965.71,508.86,929.12Z" style="fill:#1a6036" />
	<g style="clip-path:url(#f50b4a5b-f0db-438b-b238-43e30e97c14a)">
		<polygon points="425.58 868.66 427.14 1114.73 433.36 1115.25 431.28 867.62 425.58 868.66" style="fill:#4c5f25" />
		<polygon points="390.14 794.9 428.92 879.53 470.25 792.85 465.01 762.23 395.36 758.33 390.14 794.9" style="fill:#d8ac6d" />
		<g style="clip-path:url(#a12ef05c-220e-4ae6-9a9c-a8a2388a5999)">
			<path d="M393,928.22l89.19-14.14,4.35-89.19s-19.58,13.05-54.38,13.05-52.21-12-52.21-12Z" style="fill:#f4e9e0" />
		</g>
	</g>
	<path d="M353.81,722.93c-3.6,42,4.61,63.44,26.21,76.63,21,12.83,37.31,23.52,50.91,23.52,12.55,0,26.91-8.62,51.35-24.21,18.67-11.91,25.47-26.7,24.29-66.3-.7-22.82-29.14-63.27-77.45-62.6C376.71,670.69,355.93,698,353.81,722.93Z" style="fill:#d8ac6d" />
	<path d="M429.12,792.05c-4.83,0-13.73-1-14.08,3.59s5.39,10.34,12.73,11c7,.59,14.5-3.72,14.07-10.09-.34-4.94-7.9-4.43-12.72-4.45" style="fill:#ed6a60" />
	<path d="M355.21,748.67s-19.16-4.16-15.49,14.62c3.43,17.5,12.76,21.31,18.21,19.45a7,7,0,0,0,4.75-5.15Z" style="fill:#d8ac6d" />
	<path d="M453.4,695.54c-9.79-2-8.21,23.82-34.5,27.1s-30.39-2.46-39.42,3.29-15.61,23-26.29,26.29-20.36-10.51-20.36-10.51,2.93-47.1,17.43-68.85c11.33-17,38.1-35.35,71.77-36.24,34.88-.92,54.53,7.19,73.43,29.37s26.38,73,26.38,73-14.22,19-26.54,10S489.55,730,482.16,721s-15.61,3.29-22.18-2.46S465.73,698,453.4,695.54Z" style="fill:#fac507" />
	<polygon points="373.08 754.92 384.58 758.88 392.39 752.02 385.07 741.05 381.25 744.25 386.03 753.57 375.23 750.24 373.08 754.92" style="fill:#473348" />
	<polygon points="486.25 753.41 474.75 757.36 466.94 750.5 474.26 739.53 478.07 742.74 473.3 752.05 484.1 748.72 486.25 753.41" style="fill:#473348" />
	<path d="M397.75,749.16c-5.57-1.29-13.87,2-14.07,10.28a11.46,11.46,0,0,0,10.64,12c5.7.18,11.22-2.92,12.24-9.74a11.19,11.19,0,0,0-8.81-12.53" style="fill:#f9f6f0" />
	<path d="M398.92,750.12a5.7,5.7,0,0,0-7.11,5.5c-.1,4.43,3.08,6.41,5.27,6.49a6.08,6.08,0,0,0,1.84-12" style="fill:#50256a" />
	<path d="M468.63,749.16c-5.58-1.29-14.47,2.35-14.67,10.58s7.19,11.55,11.24,11.69c5.7.21,11.21-2.92,12.26-9.74a11.21,11.21,0,0,0-8.83-12.53" style="fill:#f9f5ef" />
	<path d="M470.18,750.49a5.7,5.7,0,0,0-7.11,5.49c-.1,4.44,3.09,6.42,5.25,6.5,3.07.1,6-1.57,6.6-5.23a6,6,0,0,0-4.74-6.76" style="fill:#50256a" />
	<path d="M393.51,874.48S382.93,894,384.33,910s9.68,29.54,9.91,39.51a35.78,35.78,0,0,1-4,17.25l4.44,1s5-6.07,4.6-19.29c-.34-11-10.05-26.51-9.92-39.5.15-15.34,7.6-30.68,7.6-30.68Z" style="fill:#ec6727" />
	<path d="M468.75,876.3s10.58,19.51,9.18,35.51-9.68,29.54-9.91,39.51a35.92,35.92,0,0,0,4,17.25l-4.44,1s-5-6.07-4.6-19.29c.34-11,10.05-26.51,9.92-39.5-.15-15.34-7.6-30.68-7.6-30.68Z" style="fill:#ec6727" />
	<path d="M435,885.74a5.72,5.72,0,0,0-7.14-5.51,6.06,6.06,0,0,0-4.76,6.77,5.85,5.85,0,0,0,3.31,4.61l-2,14.08,9.29-.19-1.55-14A6.21,6.21,0,0,0,435,885.74Z" style="fill:#e8b00c" />
	<path d="M428.54,882.63a3.06,3.06,0,0,1,3.82,3,3.17,3.17,0,0,1-2.83,3.5,3.27,3.27,0,0,1-1-6.45Z" style="fill:#e8b00c" />
	<path d="M381.67,707.82c-4.92-6.86-9.87-1.13-12-2.2s-.69-4.37-2.62-7-5.92-7.29-12.34-3.57-1.95,9.67-3.71,11.08a1.64,1.64,0,0,1-2.13-.13,3.55,3.55,0,0,0-1.12-3.85,3.16,3.16,0,0,0-3.08-.83l-4.28-5.67-1.22,1.25,3.88,5.37a3.69,3.69,0,0,0-.47.59s0,.06,0,.08l-6-2.21-.68,1.45,6.19,2.54a3.43,3.43,0,0,0,5.37,2.94c.71.55,1.23,1.28.79,2.19-1,2-7.77-1-10,6.09s3.26,9.94,6.23,11.23,5.86-.88,7.39,1-2.94,8,4.85,11.24,11.88-3.85,12.85-7.89a18.57,18.57,0,0,0,.38-5.15l7.88,8.2,4.14-5.15-9.46-5.9a18.06,18.06,0,0,0,4.36-1.43C380.59,720.27,386.6,714.69,381.67,707.82Z" style="fill:#8e4795" />
	<path d="M342.66,715.29a3.3,3.3,0,0,0-.61,5.18,3.41,3.41,0,0,0,4.84.46,3.53,3.53,0,0,0-4.23-5.64" style="fill:#e8368b" />
	<path d="M356.82,699.73a3.32,3.32,0,0,0-.61,5.18,3.42,3.42,0,0,0,4.84.46,3.53,3.53,0,0,0-4.23-5.64" style="fill:#e8368b" />
	<polygon points="234.8 788.44 213.21 864.21 236.41 843.06 239.13 903.77 254.14 879.9 291.66 920.83 320.9 920.02 342.14 887.4 383.56 904.59 363.18 866.89 378.81 871.26 359.19 807.59 318.35 754.82 234.8 788.44" style="fill:#291433" />
	<path d="M367.2,819.74c0-1.62-.05-3.28-.1-5-.56-18.55-23.68-51.42-62.94-50.88-42.59.58-59.48,22.77-61.21,43-.39,4.55-.6,8.8-.64,12.78-3.05-.2-14.71-.11-12.11,13.2,2.78,14.22,10,16.15,13.59,16a4.74,4.74,0,0,0,2.56-.93c3.55,9.37,9.47,16.08,17.91,21.24,4.91,3,9.49,5.85,13.81,8.39a89.53,89.53,0,0,1-2,9.79c4.46,3.69,12.31,7.19,26.14,7.84,14.74.7,24-3,29.78-7.08a76.58,76.58,0,0,1-1.93-8.83c5-2.91,10.7-6.47,17.29-10.67,8-5.09,13.29-10.84,16.39-19.81.18,0,.35.05.54.06,3.6.16,10.8-1.77,13.58-16C380.61,818.89,369.15,819.53,367.2,819.74Z" style="fill:#f1aa98" />
	<path d="M369,974.46c-2.49-30.19-3.17-46.28-13.55-58.55s-18.88-15.11-22.66-25.5c-.26-.73-.51-1.5-.75-2.3-5.73,4.08-15,7.78-29.78,7.08-13.83-.65-21.68-4.15-26.14-7.84-.3,1.08-.62,2.11-1,3.06-3.77,10.39-12.27,13.21-22.67,25.5s-13.12,27.91-13.55,58.55c-.43,30.27-.61,53.13,6,74.85s23,64.3,23,64.3h74.82s17-39.95,23.64-61.66S371.42,1004.19,369,974.46Z" style="fill:#291433" />
	<path d="M304.16,863.06c-3.92,0-11.16-.81-11.44,2.92s4.38,8.41,10.34,8.9c5.71.48,11.79-3,11.44-8.2-.28-4-6.43-3.6-10.34-3.62" style="fill:#291433" />
	<path d="M336.27,828.21c-4.54-1.05-11.76,1.91-11.92,8.6s5.84,9.38,9.13,9.5c4.63.16,9.11-2.38,10-7.92a9.1,9.1,0,0,0-7.17-10.18" style="fill:#f9f5ef" />
	<path d="M337.53,829.29a4.63,4.63,0,0,0-5.78,4.47c-.08,3.6,2.51,5.21,4.27,5.28a5,5,0,0,0,5.36-4.26,4.89,4.89,0,0,0-3.85-5.49" style="fill:#50256a" />
	<path d="M280.41,827.39c-4.54-1-11.76,1.91-11.93,8.6s5.85,9.38,9.14,9.5c4.63.16,9.11-2.38,10-7.92a9.1,9.1,0,0,0-7.17-10.18" style="fill:#f9f5ef" />
	<path d="M281.67,828.47a4.63,4.63,0,0,0-5.78,4.46c-.08,3.61,2.51,5.22,4.27,5.28a4.94,4.94,0,0,0,5.36-4.25,4.89,4.89,0,0,0-3.85-5.49" style="fill:#50256a" />
	<polygon points="241.24 836.59 247.9 809.83 256.33 825.44 279.95 785.42 302.91 846.43 324.42 808.28 348.95 860.27 349.78 809.83 361.7 834.76 371.05 813.55 395.84 813.55 363.93 784.76 369.14 754.81 333.09 748.02 338.57 720.17 306.62 737.78 272.35 721.19 269.88 742.37 220.38 765 235.03 774 214.34 805.1 232.27 800.09 241.24 836.59" style="fill:#291433" />
	<path d="M343,973.59l-6.53,5.35,8,1.84L329,995.84l4.82-12.22-8.41.09,9.45-13.59a24.93,24.93,0,0,0-3-.08c-11.92.49-11.64,11.86-11.21,16.6s1.87,14,12.44,14.21c11.48.22,13.65-7.09,13.65-16.15C346.72,980,345.56,976.18,343,973.59Z" style="fill:#f4e9e0" />
	<polygon points="279.03 984.97 272.84 985.25 271.19 969.69 266.09 970.1 266.23 1002.74 272.7 1002.74 272.7 991.03 277.93 991.17 278.76 1002.6 285.09 1002.6 285.92 969.69 280.41 969.69 279.03 984.97" style="fill:#f4e9e0" />
	<path d="M296.92,996.75c-4,0-3.84-4.48-3.84-4.48l11.44-.83s1.11-9.59-7.84-9.73-9.52,7-9.11,11.8,3.71,7.66,8.13,8.12c6.71.72,9.22-2.61,9.22-2.61l-.55-4.27A16.68,16.68,0,0,1,296.92,996.75Z" style="fill:#f4e9e0" />
	<polygon points="305.33 968.68 307.26 1002.32 311.67 1002.19 310.02 969.34 305.33 968.68" style="fill:#f4e9e0" />
	<polygon points="313.67 969.53 314.97 1001.93 320.48 1001.53 318.08 969.14 313.67 969.53" style="fill:#f4e9e0" />
	<path d="M303.69,940.08H304c16.56-.35,30.6-34.23,33.51-41.74a24.46,24.46,0,0,1-4.74-7.93c-.26-.73-.51-1.5-.75-2.3-5.73,4.08-15,7.78-29.78,7.08-13.83-.65-21.68-4.15-26.14-7.84-.3,1.08-.62,2.11-1,3.06a24.62,24.62,0,0,1-4.87,8.08C273.07,906.45,286,940.08,303.69,940.08Z" style="fill:none" />
	<path d="M301.72,941.1a4.79,4.79,0,0,0-3.44,4.51,5.27,5.27,0,0,0,4.89,5.51,5.19,5.19,0,0,0,5.62-4.47,5.1,5.1,0,0,0-3.34-5.52c7.7-1,15.61-8.4,23.53-22.13a153.23,153.23,0,0,0,9.39-19.7c-.3-.32-.6-.63-.88-1-2.91,7.51-16.95,41.39-33.51,41.74h-.29c-17.65,0-30.62-33.63-33.44-41.59q-.44.5-.9,1a138.17,138.17,0,0,0,8.91,19.82C285.79,932.75,293.67,940.07,301.72,941.1Z" style="fill:#d8ac6d" />
	<path d="M728.86,646.28s-9.26-10.18-30.56-6.48c-28.1,4.89-48.89,41-57.4,91.67-5.79,34.46,13.67,92.08,11.55,122.56-2.23,32-24.6,55.38-24.6,55.38s16,8.08,37.52-10.55,38.43-22.56,65.29-26c21.43-2.7,40.41,8.73,57.72,28.52,18.15,20.75,62.5,14.1,62.5,14.1S811.24,885,798.56,864.64a64.2,64.2,0,0,1-9.33-42.12s9.52,17.54,20.29,29.6c10.35,11.6,28.59,12.85,28.59,12.85s-23-30.27-23.62-51.8,15.52-64.82.59-102c-13.41-33.4-34.08-74.83-58.52-76S728.86,646.28,728.86,646.28Z" style="fill:#f39205" />
	<path d="M809,935c-3-35.7-3.75-54.73-16-69.24s-22.32-17.87-26.8-30.16-5.58-35.74-5.58-35.74h-57s-1.12,23.45-5.58,35.74-14.51,15.63-26.8,30.16-15.51,33-16,69.24c-.51,35.79-.73,62.83,7.09,88.52s27.15,76,27.15,76h88.48s20.15-47.25,28-72.93S811.88,970.19,809,935Z" style="fill:#f4e9e0" />
	<g style="clip-path:url(#a0347633-dc1d-4dca-9cea-13a094378439)">
		<polygon points="695.58 823.95 732.76 855.68 771.31 822.93 765.17 798.37 692.51 800.08 695.58 823.95" style="fill:#4e3c53" />
		<path d="M685.67,839.34,708,884.46l24.59-27.17,25.15,26.15L777.11,841l65.83,15.69s-15.69,271.17-18.08,269.47-208.41-10.24-209.44-12.62,24.9-253.44,24.9-253.44Z" style="fill:#f3df07" />
		<g style="clip-path:url(#b57004ef-a86a-4ccd-963a-91646ecac13f)">
			<polygon points="715.97 863.87 726.57 879.81 716.77 926.67 733.5 954 750.66 927.92 737.55 880.33 751.86 860.53 731.83 853.86 715.97 863.87" style="fill:#167536" />
		</g>
	</g>
	<path d="M660,736.86c-3.46,40.35,4.44,61,25.19,73.65,20.19,12.34,35.86,22.6,48.94,22.6,12,0,25.86-8.28,49.34-23.26,18-11.45,24.49-25.67,23.35-63.72-.67-21.94-28-60.82-74.44-60.17C682,686.65,662,712.88,660,736.86Z" style="fill:#4e3c53" />
	<path d="M732.34,803.29c-4.64,0-13.2-1-13.53,3.45S724,816.68,731,817.27c6.76.57,13.94-3.58,13.53-9.7-.33-4.75-7.6-4.26-12.23-4.28" style="fill:#e8368b" />
	<path d="M698.79,783.24c-6-1.32-13.88,1.72-14,9.67a11.31,11.31,0,0,0,10.57,11.81c6.09.27,12-2.67,13-9.23.91-5.71-3.36-10.88-9.54-12.25" style="fill:#f5c5b9" />
	<path d="M771.17,783.25c-6-1.32-13.87,1.71-14,9.67a11.3,11.3,0,0,0,10.57,11.8c6.1.27,12-2.66,13-9.23.9-5.7-3.37-10.88-9.56-12.24" style="fill:#f5c5b9" />
	<path d="M725.3,697.52s-2.19,12-16.44,39.31c-14.56,28-55.82,45.09-55.82,45.09l-4.82-71.76L717.66,667l67.83,3.82,30.56,68.78-4.51,31.66s-22.94-1-46.82-23S725.3,697.52,725.3,697.52Z" style="fill:#f39205" />
	<path d="M710.6,751.77c-4-1.13-9.38.51-12.46,5.05a5.16,5.16,0,0,1,3.41-.45A5.1,5.1,0,0,1,700,766.43a4.72,4.72,0,0,1-4.13-3.43,16.55,16.55,0,0,0-.16,2c-.22,10.64,7,15.32,11.26,15.5,6,.25,11.88-3.78,13-12.58C720.88,760.33,716.7,753.48,710.6,751.77Z" style="fill:#291433" />
	<path d="M707.92,751.08c-14.79.67-16.5,16.34-16.5,16.34s4.54,13.34,16.35,13.64c12.53.32,17.48-13.2,17.48-13.2S721.89,750.44,707.92,751.08Zm12,16.89c-1.09,8.8-6.93,12.83-13,12.58-4.28-.18-11.48-4.86-11.26-15.5a16.55,16.55,0,0,1,.16-2,4.72,4.72,0,0,0,4.13,3.43,5.1,5.1,0,0,0,1.55-10.06,5.16,5.16,0,0,0-3.41.45c3.08-4.54,8.44-6.18,12.46-5.05C716.7,753.48,720.88,760.33,719.94,768Z" style="fill:#f4e9e0" />
	<path d="M754,751.77c4-1.13,9.38.51,12.46,5.05a5.16,5.16,0,0,0-3.41-.45,5.1,5.1,0,0,0,1.55,10.06,4.72,4.72,0,0,0,4.13-3.43,16.55,16.55,0,0,1,.16,2c.22,10.64-7,15.32-11.26,15.5-6,.25-11.88-3.78-13-12.58C743.71,760.33,747.89,753.48,754,751.77Z" style="fill:#291433" />
	<path d="M739.33,767.86s5,13.52,17.49,13.2c11.81-.3,16.35-13.64,16.35-13.64s-1.71-15.67-16.5-16.34C742.7,750.44,739.33,767.86,739.33,767.86ZM754,751.77c4-1.13,9.38.51,12.46,5.05a5.16,5.16,0,0,0-3.41-.45,5.1,5.1,0,0,0,1.55,10.06,4.72,4.72,0,0,0,4.13-3.43,16.55,16.55,0,0,1,.16,2c.22,10.64-7,15.32-11.26,15.5-6,.25-11.88-3.78-13-12.58C743.71,760.33,747.89,753.48,754,751.77Z" style="fill:#f4e9e0" />
	<path d="M658.41,844.29s19.07-4.14,15.41,14.56c-3.41,17.41-12.23,19.77-16.64,19.57s-6.21-5.34-6.21-5.34Z" style="fill:#ef7907" />
	<path d="M662.66,1023.4c-3-37-3.89-56.67-16.6-71.7s-23.12-18.5-27.75-31.23-5.78-37-5.78-37h-59s-1.15,24.28-5.77,37-15,16.18-27.76,31.23-16.06,34.18-16.59,71.7c-.53,37.07-.75,65.07,7.34,91.66s28.12,78.75,28.12,78.75h91.63s20.86-48.92,28.95-75.51S665.67,1059.82,662.66,1023.4Z" style="fill:#0598d6" />
	<g style="clip-path:url(#ffe8c65f-f905-4b66-ac30-b319bc0f1b47)">
		<path d="M527.54,937.24s-9.39,31.09-9.79,58.2-2.58,182.81-2.58,182.81l5.11,6.29s1.83-165.3,2.47-189,10.07-61.63,10.07-61.63Z" style="fill:#f4e9e0" />
		<path d="M542.49,910s-10.86,47.76-13.85,86.3c-.75,49.74-4.61,206.46-4.61,206.46l5.44,4.18s3.84-183.74,4.62-212.41,13.68-85.41,13.68-85.41Z" style="fill:#f4e9e0" />
		<path d="M642.56,919.47s9.39,31.1,9.8,58.21,2.57,182.8,2.57,182.8l-5.1,6.3s-1.83-165.3-2.47-189-10.08-61.63-10.08-61.63Z" style="fill:#f4e9e0" />
		<path d="M627.61,892.22s10.86,47.76,13.86,86.3c.74,49.73,4.6,206.45,4.6,206.45l-5.44,4.19s-3.84-183.75-4.61-212.41-13.68-85.41-13.68-85.41Z" style="fill:#f4e9e0" />
		<polyline points="578.31 899.01 579.75 1213 586.15 1216.2 588 900.95 578.31 899.01" style="fill:#224e91" />
		<path d="M585.2,916.08a9.66,9.66,0,0,1,7.6,10.81c-.89,5.87-5.64,8.56-10.56,8.39a9.89,9.89,0,0,1-9.18-10.34c.18-7.1,7.33-10,12.14-8.86m-.54,2.29c-3.65-.84-9.07,1.33-9.2,6.72a7.5,7.5,0,0,0,7,7.84c3.73.13,7.33-1.91,8-6.36a7.32,7.32,0,0,0-5.76-8.2" style="fill:#f4e9e0" />
		<path d="M535.11,908.78S567,915.11,591,914.25s61.34-5.47,61.34-5.47-9.43-65.33-12-63.62-102.12,6-102.12,6Z" style="fill:#ef7907" />
	</g>
	<path d="M508.34,818.19c-3.58,41.79,4.6,63.14,26.09,76.27,20.9,12.77,37.13,23.41,50.67,23.41,12.49,0,26.78-8.58,51.1-24.1,18.59-11.85,25.36-26.58,24.18-66-.69-22.71-29-63-77.09-62.3C531.14,766.2,510.46,793.36,508.34,818.19Z" style="fill:#ef7907" />
	<path d="M552.08,844.3c-5.55-1.28-13.81,2-14,10.23a11.41,11.41,0,0,0,10.6,11.93c5.67.19,11.16-2.91,12.18-9.7a11.14,11.14,0,0,0-8.77-12.46" style="fill:#f9f6f0" />
	<path d="M553.24,845.25a5.68,5.68,0,0,0-7.08,5.47c-.1,4.42,3.07,6.39,5.25,6.47a6.05,6.05,0,0,0,1.83-11.94" style="fill:#50256a" />
	<path d="M583.29,887c-4.8,0-13.66-1-14,3.58s5.37,10.29,12.67,10.9c7,.59,14.44-3.7,14-10.05-.34-4.92-7.87-4.41-12.67-4.43" style="fill:#e73d1f" />
	<path d="M622.62,844.3c-5.55-1.28-14.4,2.34-14.6,10.53s7.16,11.49,11.18,11.63c5.68.21,11.17-2.91,12.2-9.7a11.13,11.13,0,0,0-8.78-12.46" style="fill:#f9f5ef" />
	<path d="M624.16,845.62a5.67,5.67,0,0,0-7.07,5.47c-.1,4.41,3.07,6.38,5.22,6.47a6.08,6.08,0,0,0,6.57-5.21,6,6,0,0,0-4.72-6.73" style="fill:#50256a" />
	<path d="M507.84,844.29s-19.07-4.14-15.41,14.55c3.41,17.42,12.24,19.78,16.65,19.58s6.2-5.34,6.2-5.34Z" style="fill:#ef7907" />
	<path d="M505.28,861.51c10.29-3.14,13.7,3.93,13.42,10s-4.88,7.37-4.88,7.37L516.3,896l-6.06,1.38s-5.49-13.51-8.61-20.39S498.94,863.44,505.28,861.51Z" style="fill:#fac507" />
	<path d="M499.44,822.78c-.79,11.06,5.38,28.05,5.38,28.05l6.16-.23s-.08-21.84,4-31.93c5.95-14.71,18-28,18-28s25.94,5.19,44.81,5c21.54-.27,51.26-9.75,51.26-9.75s18.58,19.7,22.42,34.24a127.54,127.54,0,0,1,3.75,29.21l6.55,1.28s6.14-9.05,2-29.34S650.13,783,649.52,773.9c-1.18-17.78,19.56-41.72,3.67-53.93-13.05-10-22,3.25-32,1.17s-8.63-12.46-24.13-14.86S577.36,717.15,570.17,717s-16.45-16.14-32.27-8.15-8.15,18-13.11,20.13-18.52-8.33-27.56,3.75c-7.62,10.19,11.51,29.13,11.34,40.88C508.45,782,500.18,812.41,499.44,822.78Z" style="fill:#6d3a3b" />
	<path d="M657.8,831.23a28.79,28.79,0,0,0-4.69-1.55,158.26,158.26,0,0,0-31.52-3.38c-15.65.11-34.29,5.89-38.53,5.88s-22.7-5.77-38.35-5.88-30.75,3.2-32.58,3.52l-3.88.71.6,10.58a15.34,15.34,0,0,1,2.13,0c1,.11,1.83.87,2.59,3.24s2.66,20.34,7.41,26.47c3.82,4.93,10.45,6.13,19.6,6.73,9.8.65,17.53-.38,25.33-7.19,9.28-8.12,11.73-21.29,12.51-25.79.27-1.53,2-2.14,4.73-2.19s4.47.66,4.73,2.19c.78,4.5,3.23,17.67,12.52,25.79,7.8,6.81,15.52,7.84,25.32,7.19,9.15-.6,15.78-1.8,19.61-6.73,4.74-6.13,6.65-24.1,7.41-26.47s1.32-2.89,2.23-3.26a11.47,11.47,0,0,1,2.73-.53Z" style="fill:#4a4041" />
	<path d="M570.67,840.15c2.15,6.58-1.48,21-7.88,25.9s-11.49,7-23.15,6.3c-10.29-.63-12.6-3.44-14.18-5.81s-3.84-9.94-4.33-16.44-1-10.62,1.57-13.38,10-5.55,24-5C559.35,832.14,569,835,570.67,840.15Z" style="fill:#f3df07" />
	<path d="M595.65,840.15c-2.15,6.57,1.47,21,7.88,25.9s11.47,6.83,23.14,6.3c9.72-.44,12.61-3.45,14.18-5.81s3.84-9.95,4.34-16.45,1.59-10.73-1-13.49-10.88-5.71-24.64-4.92C605.56,832.48,597.32,835,595.65,840.15Z" style="fill:#f3df07" />
	<path d="M661,861.51c-10.29-3.14-13.7,3.93-13.42,10s4.88,7.37,4.88,7.37L650,896l6.06,1.38s5.49-13.51,8.61-20.39S667.31,863.44,661,861.51Z" style="fill:#fac507" />
	<path d="M1260.51,715.61c-2.72-35.48-22.59-64.58-77.89-63-52.69.72-73.59,28.16-75.72,53.25-3.62,42.22,4.64,63.79,26.36,77.06,6.07,3.71,11.75,7.24,17.09,10.39,13.22,7.8,24.36,13.26,34.1,13.26,8.43,0,17.7-3.89,30.23-11.14,6.23-3.6,13.25-8,21.4-13.21C1254.86,770.3,1261.7,755.42,1260.51,715.61Z" style="fill:#8e4c3d" />
	<path d="M1246.05,840.81c-12.87-15.19-23.36-18.7-28-31.56a82.58,82.58,0,0,1-3.32-13.77c-12.53,7.25-21.8,11.14-30.23,11.14-9.74,0-20.88-5.46-34.1-13.26a88.71,88.71,0,0,1-3.66,15.89c-4.66,12.86-15.18,16.35-28,31.56-9.27,10.93-13.59,24.07-15.49,44.71h157.25C1258.29,865.07,1255.26,851.7,1246.05,840.81Z" style="fill:#8e4c3d" />
	<path d="M1151.09,732.29c-5.61-1.3-13.95,2.05-14.16,10.33a11.53,11.53,0,0,0,10.71,12.06c5.73.19,11.28-2.94,12.3-9.8a11.24,11.24,0,0,0-8.85-12.59" style="fill:#f9f6f0" />
	<path d="M1152.26,733.25a5.73,5.73,0,0,0-7.15,5.53c-.1,4.46,3.1,6.45,5.3,6.53a6.11,6.11,0,0,0,1.85-12.06" style="fill:#1c2032" />
	<path d="M1182.62,775.41c-4.84,0-13.8-1-14.15,3.62s5.42,10.39,12.8,11c7.07.59,14.58-3.74,14.15-10.15-.35-5-8-4.46-12.8-4.48" style="fill:#f6cd0b" />
	<path d="M1222.36,732.29c-5.61-1.3-14.55,2.36-14.75,10.64s7.23,11.61,11.3,11.75c5.73.21,11.28-2.94,12.32-9.8a11.24,11.24,0,0,0-8.87-12.59" style="fill:#f9f5ef" />
	<path d="M1223.92,733.62a5.73,5.73,0,0,0-7.15,5.53c-.1,4.46,3.1,6.45,5.28,6.53a6.11,6.11,0,0,0,1.87-12.06" style="fill:#1c2032" />
	<path d="M1262.81,913.25c-.87-10.56-1.57-19.68-2.41-27.73h0c0-.31-.07-.6-.1-.9-.1-1-.21-1.89-.32-2.81-.07-.64-.14-1.28-.22-1.9-.18-1.51-.37-3-.58-4.41,0-.34-.09-.69-.15-1-.12-.86-.26-1.71-.4-2.54-.07-.47-.16-.93-.24-1.4-.2-1.16-.42-2.3-.65-3.41-.13-.66-.27-1.33-.42-2s-.28-1.2-.43-1.8l-.45-1.76c-.15-.55-.3-1.09-.46-1.63-.23-.8-.48-1.59-.74-2.36-.18-.53-.36-1.05-.55-1.57-.27-.74-.54-1.47-.83-2.18l-.51-1.19c-.3-.69-.62-1.37-.95-2-.15-.3-.29-.61-.44-.91-.47-.92-1-1.83-1.51-2.72-.15-.25-.32-.5-.47-.74-.44-.7-.89-1.39-1.37-2.07l-.55-.78c-.64-.87-1.31-1.74-2-2.58-12.87-15.19-23.36-18.7-28-31.56-.34-.94-.65-1.94-1-3,0-.08,0-.16-.07-.25-.29-1-.56-2.08-.82-3.17l0-.11c-.54-2.32-1-4.78-1.44-7.26-12.53,7.25-21.8,11.14-30.23,11.14-9.74,0-20.88-5.46-34.1-13.26v0l-.3,1.87-.09.55c-.09.5-.18,1-.26,1.49l-.09.47-.36,1.88c0,.11,0,.23-.07.35-.11.5-.21,1-.32,1.5,0,.19-.09.37-.13.55-.11.51-.23,1-.35,1.5,0,.1-.05.2-.07.3-.15.59-.3,1.16-.46,1.72l-.12.43c-.12.42-.24.84-.37,1.26l-.15.46c-.17.53-.34,1-.52,1.54-4.66,12.86-15.18,16.35-28,31.56-.72.84-1.39,1.7-2.05,2.57-.2.26-.39.53-.58.79-.48.66-.94,1.33-1.38,2l-.54.81c-.55.87-1.08,1.75-1.59,2.66-.18.33-.36.68-.54,1-.32.61-.64,1.22-.94,1.85-.22.45-.43.89-.64,1.35s-.5,1.14-.74,1.72c-.34.83-.68,1.68-1,2.54-.2.53-.4,1-.58,1.6s-.43,1.31-.63,2c-.13.41-.25.82-.37,1.23-.21.74-.43,1.48-.62,2.24a1.17,1.17,0,0,0,0,.2c-.46,1.79-.88,3.67-1.25,5.61,0,.18-.08.36-.11.55-.19,1-.37,2-.53,3,0,.11,0,.21,0,.32-.25,1.52-.46,3.1-.67,4.71l-.15,1.31q-.23,1.94-.42,4c0,.22,0,.43-.07.65h0c-.74,8-1.13,17.12-1.28,27.73-.53,37.45-.76,65.74,7.42,92.61s28.41,79.57,28.41,79.57h92.58s21.08-49.43,29.25-76.3S1265.85,950,1262.81,913.25Z" style="fill:#e4252a" />
	<path d="M1184.77,867.12c-6.27-.19-19.87-19.87-42.23-5.79s-9.1,47.19,9.11,60.44,30.63,15.73,30.63,15.73,21-4.93,35.93-16.42,31.83-43,10.83-59.73C1210.16,846.3,1191,867.32,1184.77,867.12Z" style="fill:#1c81c4" />
	<path d="M1182.49,880.78c-4.26-.13-13.5-13.5-28.69-3.93s-6.19,32.06,6.19,41.06,20.82,10.69,20.82,10.69,14.26-3.35,24.4-11.15,21.63-29.22,7.36-40.59C1199.75,866.64,1186.76,880.92,1182.49,880.78Z" style="fill:#00b0a6" />
	<path d="M1194.41,708.19c-10.18-3.4-14.56-12.18-22.49-10-13.64,3.71-2.77,10.42-17.49,20.74-7.88,5.53-14.71,1.7-18.85,5.21-5.53,4.67-1.27,12.71-3.1,19.68-2.09,7.9-9.52,11.87-10.92,16.84-2.26,8,4.57,13.89,2.13,21.21-1.52,4.56-4.71,9-14.63,6.34-13.89-3.72-11.48-15.24-18.77-22.73-4.48-4.61-21.4-10.76-21.4-32,0-15.13,9.91-21.43,12.18-36.91.93-6.36-7.31-27.3,7.14-41.17,14.24-13.66,30.9-8.2,36.57-13.87S1137,618,1157,615s29.13,8.87,37.66,9.72,21.23-8.21,38.22-2.17c27.85,9.9,24.66,28.11,28.89,34.45,4,5.94,21.1,14.89,21.69,30.48.66,17.22-6.23,20-6.79,27.56-.61,8.32,16.51,12.84,12.72,31.12s-13.43,22.51-19.28,25.44c-8,4-6,14.83-18.54,16.1-8.82.89-13.8-2.86-12.11-11.81.95-5,3.91-5.14,5.17-15.22s-13.73-15.08-10.51-28.34c2.41-9.89-.49-19.72-10.58-22.24S1205.76,712,1194.41,708.19Z" style="fill:#291433" />
	<path d="M1505,944.29c-10.78-12.72-19.57-15.66-23.5-26.44a68.94,68.94,0,0,1-2.78-11.53h0c5.22-3,11.1-6.71,17.93-11.06,8.2-5.24,13.68-11.13,16.91-20.3a4.84,4.84,0,0,0,1.3.24c3.73.17,11.2-1.83,14.08-16.57,3.1-15.83-11.36-13.57-11.36-13.57s.06-11-1.19-18.32c-3.25-19-17.79-46.52-66-45.12-44.13,1.29-59.91,22.79-61.7,43.81-.45,5.25-1.16,19.63-1.16,19.63s-14.47-2.26-11.37,13.57c2.89,14.74,10.35,16.74,14.09,16.57a4.67,4.67,0,0,0,2-.58c3.71,9.3,9.75,16,18.26,21.22,5.09,3.11,9.84,6.06,14.32,8.7a74.26,74.26,0,0,1-3.07,13.31c-3.9,10.78-12.72,13.7-23.49,26.44-10.23,12.07-13.28,27.31-14,56h134.34C1516.32,972,1515.16,956.35,1505,944.29Z" style="fill:#facfc8" />
	<path d="M1453.78,889.51c-4.07,0-11.57-.85-11.86,3s4.54,8.71,10.72,9.22c5.92.5,12.22-3.13,11.86-8.5-.29-4.17-6.66-3.74-10.72-3.75" style="fill:#ea5137" />
	<path d="M1425.15,854.29c-4.7-1.08-11.69,1.72-11.86,8.66a9.65,9.65,0,0,0,9,10.1c4.8.16,9.45-2.46,10.31-8.21a9.45,9.45,0,0,0-7.42-10.55" style="fill:#f9f6f0" />
	<path d="M1426.13,855.1a4.81,4.81,0,0,0-6,4.63c-.09,3.74,2.6,5.41,4.44,5.47a5.12,5.12,0,0,0,1.55-10.1" style="fill:#50256a" />
	<path d="M1484.85,854.29c-4.7-1.08-12.18,2-12.35,8.92s6,9.72,9.46,9.84c4.8.17,9.45-2.46,10.33-8.21a9.43,9.43,0,0,0-7.44-10.55" style="fill:#f9f5ef" />
	<path d="M1486.16,855.41a4.8,4.8,0,0,0-6,4.63c-.08,3.73,2.6,5.4,4.43,5.47a5.12,5.12,0,0,0,5.55-4.4,5.07,5.07,0,0,0-4-5.7" style="fill:#50256a" />
	<path d="M1420.32,874.56c-5.24-1.16-12.16,1.5-12.29,8.47a9.91,9.91,0,0,0,9.26,10.35c5.35.24,10.49-2.34,11.4-8.09.79-5-3-9.54-8.37-10.73" style="fill:#f4c109" />
	<path d="M1489.21,874.56c-5.23-1.16-12.16,1.5-12.29,8.47a9.91,9.91,0,0,0,9.26,10.35c5.35.23,10.5-2.34,11.41-8.09.78-5-3-9.54-8.38-10.73" style="fill:#f4c109" />
	<path d="M1452.78,816.72c-4.89.76.83,6.75-10.69,21.89-13.94,18.32-35.38,19.67-40,26.16-8.3,11.74.25,25,.25,25s-29.08-14.85-32.59-44.62c-3.08-26.07,25.09-76.26,81.52-75,59.93,1.36,81.87,43.29,82.71,71.43,1,34.58-37.39,53.79-37.39,53.79s15.28-22.13,6.13-36.3c-7.72-11.94-23.56-11.74-33.69-20.95C1457.87,827.92,1457.08,816.05,1452.78,816.72Z" style="fill:#807923" />
	<path d="M1424.79,904.54a74.26,74.26,0,0,1-3.07,13.31c-3.9,10.78-12.72,13.7-23.49,26.44s-13.6,28.93-14,60.69c-.44,31.37-.63,55.07,6.22,77.59s23.8,66.66,23.8,66.66h77.56s17.65-41.41,24.5-63.93,5.29-49.5,2.74-80.32c-2.58-31.29-3.29-48-14-60.69s-19.57-15.66-23.5-26.44a68.94,68.94,0,0,1-2.78-11.53c-10.5,6.07-18.26,9.33-25.32,9.33C1445.19,915.65,1435.87,911.07,1424.79,904.54Z" style="fill:#9c4392" />
	<path d="M1433.72,1026.9c-10-4.76-14.81-2.26-21.21-12.83-8-13.26,2.36-20.61,5.8-28.52,1.86-4.27-.7-15.67,8.32-22.49,9.3-7,16.22-2,23.5-2.9,4.86-.6,16.72-4,26.31,2.43,11.31,7.57,8.17,18.56,9.8,22.19,2.1,4.67,11.84,12.38,8.62,25.42-3.44,14-13.9,14.36-18.29,16.92s-8.43,11.4-19.21,11.48C1444.16,1038.7,1443.74,1031.65,1433.72,1026.9Z" style="fill:#239cd8" />
	<path d="M1468.73,973.67c-6.76-3.64-11.56-.39-16.53,0s-11.1-4.94-16.9-1S1432,985.87,1431,991c-1,5.37-7.4,10-3.87,17,2.59,5.07,10.66,5,15,7.56s6,9,15,8.24c5.91-.48,7.54-6.65,11.38-9.78,3.33-2.72,11.88-2.83,13.22-10.66,1.1-6.43-5.77-11.23-6.93-14.25S1475.79,977.47,1468.73,973.67Z" style="fill:#1b79bf" />
	<path d="M1461.48,991.51c-2.29-3.48-8.11-6.1-12.4-3.85s-7,7.79-5.22,12.32c2.43,6.19,10,8.25,14.13,5.82s7.68-7.9,3.49-14.29" style="fill:#fdc50a" />
	<path d="M1572.81,826.49l-34.12,8.58-.45-.67c5.33-3,15.22-10.3,14-22.95-1.47-15.41-19.82-20.55-19.82-20.55l-.18,43.43-32.82,22.49,3.69,5.29L1536,839.25l.81.88s8.88,15.07,22.81,10.22C1575.38,844.84,1572.81,826.49,1572.81,826.49Z" style="fill:#e83d37" />
	<path d="M940.23,972c-9.81-11.59-17.82-14.27-21.4-24.09a62.72,62.72,0,0,1-2.53-10.5h0c4.75-2.75,10.11-6.11,16.33-10.08,7.47-4.77,12.46-10.14,15.4-18.5a4.12,4.12,0,0,0,1.19.23c3.4.15,10.2-1.67,12.83-15.1,2.82-14.42-10.35-12.37-10.35-12.37a121.27,121.27,0,0,0-1.08-16.68c-3-17.27-16.21-42.38-60.18-41.1-40.21,1.16-54.58,20.76-56.21,39.9-.41,4.78-1.06,17.88-1.06,17.88s-13.18-2-10.35,12.37c2.62,13.43,9.43,15.25,12.83,15.1a4.25,4.25,0,0,0,1.86-.53,38.87,38.87,0,0,0,16.64,19.33c4.64,2.83,9,5.52,13.05,7.93a68.19,68.19,0,0,1-2.79,12.12c-3.56,9.82-11.59,12.49-21.41,24.09-9.31,11-12.1,24.88-12.71,51H952.68C950.59,997.19,949.53,982.94,940.23,972Z" style="fill:#8e4c3d" />
	<path d="M867.76,889.13c-4.28-1-10.65,1.57-10.8,7.89a8.8,8.8,0,0,0,8.17,9.2c4.37.14,8.61-2.24,9.39-7.48a8.59,8.59,0,0,0-6.76-9.61" style="fill:#f9f6f0" />
	<path d="M868.65,889.86a4.38,4.38,0,0,0-5.45,4.22c-.08,3.41,2.37,4.93,4,5a4.67,4.67,0,0,0,1.41-9.21" style="fill:#291433" />
	<path d="M893.61,922c-3.7,0-10.54-.77-10.81,2.76s4.14,7.93,9.77,8.4c5.4.46,11.14-2.85,10.81-7.74-.27-3.8-6.07-3.41-9.77-3.42" style="fill:#ea5342" />
	<path d="M922.38,889.13c-4.28-1-11.1,1.8-11.26,8.12s5.52,8.86,8.62,9c4.38.15,8.61-2.24,9.41-7.48a8.58,8.58,0,0,0-6.77-9.61" style="fill:#f9f5ef" />
	<path d="M923.57,890.15a4.37,4.37,0,0,0-5.46,4.21c-.08,3.41,2.37,4.93,4,5a4.69,4.69,0,0,0,5.07-4,4.63,4.63,0,0,0-3.64-5.19" style="fill:#291433" />
	<polygon points="828.86 903.56 841.57 854.76 844.24 892.2 868.31 851.42 891.7 913.59 893.04 852.76 937.16 906.9 927.13 856.77 957.22 904.23 957.98 879.41 986.39 880.08 961.57 846.48 970.59 803.29 922.46 813.31 934.7 758.83 895.48 802.88 852.26 772.53 858.05 807.56 798.11 817.33 822.53 839.79 801.46 871.47 819.73 866.37 828.86 903.56" style="fill:#f3df07" />
	<path d="M953,1027.24c-2.35-28.51-3-43.7-12.8-55.29s-17.82-14.27-21.4-24.09c-.14-.37-.26-.8-.39-1.2L892.7,963.41,865,946.07c-.19.62-.38,1.23-.58,1.79-3.56,9.82-11.59,12.49-21.41,24.09s-12.39,26.36-12.79,55.29c-.41,28.58-.58,50.17,5.66,70.68s21.68,60.73,21.68,60.73h70.66s16.09-37.72,22.33-58.23S955.35,1055.32,953,1027.24Z" style="fill:#208b4a" />
	<g style="clip-path:url(#acda8967-3bf1-4f87-8ed3-d1a19def6c63)">
		<polygon points="878.16 967.75 888.64 981.19 878 1021.02 893.6 1042.37 909 1021.87 897.09 981.57 905.86 967.98 892.95 956.6 878.16 967.75" style="fill:#291433" />
		<polygon points="892.81 965.11 875.66 987.59 850.75 949.08 861.08 934.04 931.74 933.5 934.79 949.29 912.05 986.88 892.81 965.11" style="fill:#f9f5ef" />
	</g>
	<path d="M826.14,846.38l2.13,18.07s35.48-3.43,62.16-4.21c27.66-.8,65.23,3.74,65.23,3.74l-.12-19.14s-24.1-25.6-64.7-25.15C850.68,820.13,826.14,846.38,826.14,846.38Z" style="fill:#1c81c4" />
	<path d="M889.77,856.59h-.14a14.4,14.4,0,0,1-10.35-4.49c-6.53-6.82-6.33-18,.43-24.89a17.61,17.61,0,0,1,12.8-4.93,19.17,19.17,0,0,1,13.89,5.87,23.34,23.34,0,0,1,6.26,13.07,1.73,1.73,0,0,1-3.42.46,19.9,19.9,0,0,0-5.33-11.14,15.75,15.75,0,0,0-11.42-4.81h-.1a14.14,14.14,0,0,0-10.62,24,11,11,0,0,0,7.89,3.43h.11a11.47,11.47,0,0,0,8.17-3.44,10,10,0,0,0,.28-13.84,7.46,7.46,0,0,0-5.37-2.33h-.07a7.77,7.77,0,0,0-5.56,2.35,6.72,6.72,0,0,0-.2,9.33,4.92,4.92,0,0,0,3.54,1.53,5.36,5.36,0,0,0,3.72-1.55,4.39,4.39,0,0,0,.14-6.08,1.72,1.72,0,0,1,2.49-2.38,7.87,7.87,0,0,1-.18,10.89,8.57,8.57,0,0,1-6.12,2.57h-.09a8.31,8.31,0,0,1-6-2.6,10.2,10.2,0,0,1,.24-14.14,11.08,11.08,0,0,1,15.94,0,13.47,13.47,0,0,1-.33,18.66A14.86,14.86,0,0,1,889.77,856.59Z" style="fill:#56b2e1" />
	<path d="M1807.63,838.62c-13.28-15.68-24.13-19.31-29-32.6a85.31,85.31,0,0,1-3.42-14.22h0c6.43-3.71,13.68-8.27,22.1-13.64,10.11-6.45,16.86-13.72,20.85-25a5.41,5.41,0,0,0,1.6.3c4.6.21,13.81-2.25,17.37-20.43,3.82-19.51-14-16.74-14-16.74s.08-13.62-1.46-22.58c-4-23.37-21.94-57.35-81.44-55.63-54.42,1.58-73.87,28.1-76.08,54-.55,6.47-1.43,24.2-1.43,24.2s-17.84-2.77-14,16.74c3.56,18.18,12.77,20.64,17.37,20.43a5.83,5.83,0,0,0,2.53-.71c4.58,11.46,12,19.75,22.51,26.16,6.28,3.84,12.14,7.47,17.66,10.73A91.79,91.79,0,0,1,1705,806c-4.81,13.29-15.68,16.89-29,32.6-12.61,14.88-16.38,33.67-17.21,69h165.64C1821.64,872.78,1820.21,853.49,1807.63,838.62Z" style="fill:#ef7907" />
	<path d="M1709.54,726.53c-5.79-1.34-14.41,2.12-14.62,10.67A11.92,11.92,0,0,0,1706,749.66c5.92.19,11.65-3,12.71-10.12a11.63,11.63,0,0,0-9.15-13" style="fill:#f9f6f0" />
	<path d="M1710.75,727.53a5.91,5.91,0,0,0-7.38,5.7c-.11,4.61,3.2,6.67,5.47,6.75,3.19.11,6.26-1.63,6.84-5.45a6.26,6.26,0,0,0-4.93-7" style="fill:#50256a" />
	<path d="M1744.53,771.07c-5,0-14.27-1-14.63,3.74s5.61,10.73,13.22,11.37c7.3.62,15.07-3.86,14.63-10.48-.36-5.14-8.22-4.61-13.22-4.63" style="fill:#facfc8" />
	<path d="M1783.46,726.53c-5.79-1.34-15,2.44-15.23,11s7.47,12,11.67,12.14c5.92.21,11.65-3,12.73-10.12a11.62,11.62,0,0,0-9.17-13" style="fill:#f9f5ef" />
	<path d="M1785.08,727.91a5.92,5.92,0,0,0-7.39,5.7c-.11,4.61,3.2,6.67,5.45,6.75,3.19.11,6.26-1.63,6.86-5.43a6.26,6.26,0,0,0-4.92-7" style="fill:#50256a" />
	<path d="M1748.32,660.77s-6.72,15.35-18.61,23.58-27.91,9.87-27.91,9.87l7.76-22.48s-14.75,10.17-20.25,26.19c-4.58,13.31.29,28.49.29,28.49-.52-.17-9.29-2.07-13.9-7.61a84.2,84.2,0,0,0-7.1-7.9l2.22,40.87s-22.27-21.62-18.14-54.52,30.52-47.46,30.52-47.46l-21.71,6s5.45-36,47.31-41.44,61.26-6.49,86.07,13.8c18.92,15.48,21.94,45.28,32.28,50.21A29.11,29.11,0,0,0,1847.4,680l-18.84,22.13s7.09,9.83,3,25.74-14.31,22.51-14.31,22.51l-3.76-49.54s-24.3,1.64-38.25-8.78S1748.32,660.77,1748.32,660.77Z" style="fill:#42513b" />
	<path d="M1825,913.45c-3.19-38.59-4.06-59.15-17.32-74.83-12.54-14.81-22.9-18.88-28.09-30.46a151.73,151.73,0,0,1-37.3,4.33c-16.08-.17-28.5-2.7-37.58-5.63-5,12.59-15.63,16.4-28.62,31.76-13.29,15.68-16.77,35.67-17.32,74.83-.55,38.68-.79,67.9,7.66,95.66s29.35,82.19,29.35,82.19h95.62s21.78-51.06,30.22-78.81S1828.09,951.45,1825,913.45Z" style="fill:#df5297" />
	<path d="M1776.21,718.24c-11.18,2.24-23.76,9.78-34.37,9.78s-23.38-7.85-34.56-10.09c-20.66-4.13-44.91-4-44.91-4a170.74,170.74,0,0,0,16.32,32.59c11.18,17.57,35.45,13.74,42.48,9.58s9.2-9.53,13.59-15.59c3.83-5.29,9.84-4.83,14.17,0,5,5.57,6.56,11.44,13.58,15.59s31.3,8,42.48-9.58a170.74,170.74,0,0,0,16.32-32.59S1796.87,714.11,1776.21,718.24Zm-57.72,30.35c-3.88,3.78-16.13,4.85-25.06.23-11-5.71-18.77-27.07-18.77-27.07s16,.59,26.95,2.82c17.27,3.53,23.23,6.52,24.79,9.63S1723.81,743.4,1718.49,748.59Zm71.77.23c-8.94,4.62-21.19,3.55-25.07-.23-5.31-5.19-9.46-11.28-7.91-14.39s7.52-6.1,24.79-9.63c10.93-2.23,27-2.82,27-2.82S1801.31,743.11,1790.26,748.82Z" style="fill:#fbd704" />
	<path d="M1716,848.76c-3.82,1.16-5.15,2.75-4.37,7s15.19,61.52,16,64.29c1,3.54,2.58,5.11,6.45,4.2,2.81-.66,25.77-6,28.7-6.86,3.22-1,4.16-2.27,3.76-6-.26-2.39-14.76-63.2-15.67-66.12-1.09-3.47-2.95-4.3-5.79-3.77C1742.05,842.05,1718.43,848,1716,848.76Z" style="fill:#f9f5ef" />
	<polygon points="1714.9 853.51 1719.98 873.98 1733.73 870.63 1728.84 850.08 1714.9 853.51" style="fill:#47513b" />
	<path d="M1723.27,862.18a4,4,0,0,0,3.83-4.55,4.17,4.17,0,0,0-4.79-3.84,4.11,4.11,0,0,0-3.84,4.61A4.26,4.26,0,0,0,1723.27,862.18Z" style="fill:#0d2025" />
	<path d="M1727.85,864.26a1.43,1.43,0,0,0,1.38-1.64,1.51,1.51,0,0,0-1.73-1.4,1.48,1.48,0,0,0-1.38,1.67A1.53,1.53,0,0,0,1727.85,864.26Z" style="fill:#108538" />
	<path d="M1725.05,870.76a2.89,2.89,0,0,0,2.76-3.29,3,3,0,0,0-3.45-2.78,3,3,0,0,0-2.77,3.32A3.09,3.09,0,0,0,1725.05,870.76Z" style="fill:#1b8492" />
	<path d="M1688.73,931.81s6.94-14.91,9.79-18.65c2-2.59,11.48-14.12,14.91-17.42,2.73-2.63,23.31-22.79,23.31-22.79s6,3.55,2,9.13c-2.88,4.08-13.64,16.3-14.17,16.82-.81.8.08,2.92,1.61,1.53,1.09-1,25.65-19.94,25.65-19.94s4.1,4.89.8,8.84c-4.45,5.31-19.48,17.67-20.54,18.72-.84.85.42,1.89,1.33,1.12,1.23-1,26.28-19.56,26.28-19.56s4.65,6.71-.69,10.87c-4.3,3.36-18.62,16.65-19.27,17.22-1,.89-.3,2.3,1.27,1.06.69-.54,6.65-4,19.75-13.06,0,0,3.61,5.86-.91,10.16-1.92,1.83-18.67,12.66-23.06,16.39-2.87,2.43-9.43,7.64-16,10.47-5.3,2.28-11.77,8.15-11.77,8.15Z" style="fill:#ef7907" />
	<path d="M232,879.18c-13-15.4-23.69-19-28.44-32a83.37,83.37,0,0,1-3.37-14h0c6.32-3.64,13.44-8.12,21.7-13.39,9.93-6.33,16.56-13.47,20.47-24.57a5.68,5.68,0,0,0,1.58.29c4.51.21,13.55-2.21,17.05-20.06,3.75-19.15-13.76-16.43-13.76-16.43s.07-13.37-1.44-22.16c-3.93-22.95-21.54-56.32-79.95-54.62-53.43,1.55-72.53,27.58-74.69,53-.55,6.35-1.41,23.76-1.41,23.76S72.22,756.33,76,775.48c3.5,17.85,12.54,20.27,17,20.06a5.57,5.57,0,0,0,2.48-.7c4.5,11.26,11.81,19.39,22.11,25.69,6.16,3.76,11.92,7.33,17.33,10.53a88.86,88.86,0,0,1-3.71,16.11c-4.73,13.05-15.39,16.59-28.44,32-12.37,14.61-16.08,33.06-16.88,67.75H248.52C245.75,912.71,244.34,893.78,232,879.18Z" style="fill:#998245" />
	<path d="M136,768c-6.25-1.45-15.56,2.29-15.79,11.53A12.87,12.87,0,0,0,132.1,793c6.4.21,12.59-3.28,13.73-10.93A12.55,12.55,0,0,0,136,768" style="fill:#1c2032" />
	<path d="M138.39,773.19a5.81,5.81,0,0,0-7.25,5.6c-.1,4.52,3.15,6.55,5.38,6.63a6.2,6.2,0,0,0,1.87-12.23" style="fill:#fbd704" />
	<path d="M169.56,810.86c-7.27-.23-15.64-.68-15.95,4.48-.35,5.83,6.63,10.51,15.36,10.61,9.68.12,16.59-4.57,15.89-10.28C184.34,811.36,177.3,811.1,169.56,810.86Z" style="fill:#cb9ec8" />
	<path d="M208.55,768c-6.25-1.45-16.22,2.63-16.45,11.87s8.07,13,12.6,13.11c6.4.23,12.58-3.28,13.75-10.94a12.54,12.54,0,0,0-9.9-14" style="fill:#1c2032" />
	<path d="M202.53,773.68a5.82,5.82,0,0,0-7.25,5.61c-.11,4.52,3.14,6.54,5.35,6.62,3.13.11,6.15-1.6,6.73-5.33a6.15,6.15,0,0,0-4.83-6.9" style="fill:#fbd704" />
	<polygon points="114.45 711.59 87.7 647.54 95.68 643.32 123.22 706.39 114.45 711.59" style="fill:#9ca8b5" />
	<path d="M91.3,623.4c-7.35-1.7-18.11,3-18.41,13.83A14.75,14.75,0,0,0,86.8,652.76c7.5.25,14.76-3.86,16.11-12.86A14.77,14.77,0,0,0,91.3,623.4" style="fill:#9ca8b5" />
	<polygon points="214.19 712.76 240.94 648.71 232.96 644.5 205.42 707.57 214.19 712.76" style="fill:#9ca8b5" />
	<path d="M237.34,624.57c7.35-1.7,18.11,3,18.41,13.83a14.75,14.75,0,0,1-13.91,15.53c-7.51.25-14.76-3.85-16.11-12.85a14.77,14.77,0,0,1,11.61-16.51" style="fill:#9ca8b5" />
	<path d="M164.6,701.89s-15.41,23-30.82,32.73c-15,9.47-30.42,11.86-35.18,21.3-6.12,12.16,1.66,22.58,1.66,22.58l-3.73,1.4s-2.67-3.8-5.89-9.16a57.6,57.6,0,0,1-5-11.67s-27.28-97.83,83.95-97.54c94.74.25,82.91,97.67,82.91,97.67a61.25,61.25,0,0,1-3.31,10.9,59.57,59.57,0,0,1-5.91,10.42l-4.51-.93s9.39-15.47-4.23-30.91c-8-9-28.93-10.67-46.31-21.15C176,720.16,164.6,701.89,164.6,701.89Z" style="fill:#9ca8b5" />
	<path d="M93.31,1046.56c8.3,27.25,28.82,80.69,28.82,80.69H216s21.37-50.13,29.67-77.38S252.07,990,249,952.64c-2.76-33.44-3.76-53.08-12.92-67.82H98.59c-9.59,14.64-12.32,33.9-12.8,67.82C85.25,990.62,85,1019.31,93.31,1046.56Z" style="fill:#127fbf" />
	<g style="clip-path:url(#a0289e9e-22df-4f5c-b463-ac49420170fe)">
		<polygon points="56.38 866.92 54.91 1052.81 284.97 1052.28 279.4 866.92 56.38 866.92" style="fill:#374950" />
		<path d="M137.34,901.81c-5.28-1.23-12.3,1.87-12.51,9.67s5.43,11.29,9.28,11.44c5.39.18,10.61-2.77,11.58-9.25a10.62,10.62,0,0,0-8.35-11.86" style="fill:#ea5342" />
		<path d="M140.68,927.06c-8.1-1.87-18.84,2.87-19.17,14.82s8.32,17.31,14.21,17.53c8.27.27,16.26-4.25,17.74-14.16a16.28,16.28,0,0,0-12.78-18.19" style="fill:#009d3c" />
		<path d="M161.45,908.68a3.27,3.27,0,0,0-4.08,3.16,3.37,3.37,0,0,0,3,3.72,3.49,3.49,0,0,0,1-6.88" style="fill:#fbd704" />
		<path d="M171.67,908.52a3.28,3.28,0,0,0-4.08,3.16,3.39,3.39,0,0,0,3,3.72,3.49,3.49,0,0,0,1-6.88" style="fill:#fbd704" />
		<path d="M182.39,907.93a3.27,3.27,0,0,0-4.08,3.15,3.39,3.39,0,0,0,3,3.73,3.49,3.49,0,0,0,1-6.88" style="fill:#fbd704" />
		<polygon points="192.41 984.81 192.81 1024.34 196.77 1024.34 196.38 984.81 192.41 984.81" style="fill:#a9bdb4" />
		<polygon points="198.77 984.81 199.16 1024.34 203.13 1024.34 202.73 984.81 198.77 984.81" style="fill:#a9bdb4" />
		<polygon points="205.12 984.81 205.52 1024.34 209.49 1024.34 209.09 984.81 205.12 984.81" style="fill:#a9bdb4" />
		<polygon points="173.34 984.81 173.74 1024.34 177.71 1024.34 177.31 984.81 173.34 984.81" style="fill:#a9bdb4" />
		<polygon points="179.7 984.81 180.1 1024.34 184.06 1024.34 183.67 984.81 179.7 984.81" style="fill:#a9bdb4" />
		<polygon points="186.06 984.81 186.45 1024.34 190.42 1024.34 190.02 984.81 186.06 984.81" style="fill:#a9bdb4" />
		<polygon points="167.15 926.4 168.26 976.2 212.32 975.59 211.67 925.97 167.15 926.4" style="fill:#80693c" />
		<path d="M171.89,949l.06,4.62a18,18,0,0,0,18.26,17.78h0A18,18,0,0,0,208,953.12l-.06-4.61a18,18,0,0,0-18.21-17.78h0A18,18,0,0,0,171.89,949Z" style="fill:#1a6036" />
	</g>
	<path d="M168.87,756.33c24.21,0,48.42.13,51.54.41,7.54.66,9.82,2.4,10.06,8.39.44,10.82,0,19.23,0,24.43s-1.91,10.31-12.22,11c-6.18.43-11.44.62-15.7.62a67.78,67.78,0,0,1-9.93-.56c-6.23-1-19.12-20.92-23.75-20.92s-17.51,19.9-23.75,20.92a67.59,67.59,0,0,1-9.93.56c-4.26,0-9.52-.19-15.7-.62-10.3-.72-12.22-5.82-12.22-11s-.43-13.61,0-24.43c.24-6,2.52-7.73,10.06-8.39,3.12-.28,27.33-.41,51.54-.41m0-6.25c-4.82,0-47.27,0-52.09.43-13.42,1.19-15.5,7.93-15.76,14.37-.31,7.91-.18,14.64-.08,19.56,0,2,.08,3.67.08,5.12,0,10.32,6.4,16.45,18,17.26,6.07.43,11.5.64,16.14.64a73.23,73.23,0,0,0,10.94-.64c5-.83,9.63-5.61,16.6-13.38,1.84-2.05,4.37-4.87,6.14-6.52,1.77,1.65,4.3,4.47,6.14,6.52,7,7.77,11.57,12.55,16.6,13.38a73.23,73.23,0,0,0,10.94.64c4.64,0,10.07-.21,16.14-.64,11.63-.81,18-6.94,18-17.26,0-1.45,0-3.16.08-5.12.1-4.92.24-11.65-.08-19.56-.26-6.44-2.33-13.18-15.76-14.37-4.81-.42-47.26-.43-52.09-.43Z" style="fill:#e93892" />
	<path d="M1677,928.92c-13.36-15.77-24.27-19.42-29.13-32.78a85,85,0,0,1-3.45-14.3h0c6.47-3.74,13.76-8.32,22.23-13.72,10.17-6.49,17-13.8,21-25.17a5.61,5.61,0,0,0,1.62.3c4.62.21,13.88-2.27,17.46-20.55,3.84-19.62-14.09-16.83-14.09-16.83s.07-13.7-1.47-22.7c-4-23.51-22.06-57.69-81.9-55.95-54.72,1.59-74.29,28.26-76.51,54.31-.56,6.51-1.44,24.34-1.44,24.34s-17.93-2.79-14.09,16.83c3.58,18.28,12.83,20.76,17.46,20.55a5.71,5.71,0,0,0,2.54-.72c4.61,11.53,12.1,19.86,22.65,26.31,6.31,3.86,12.2,7.52,17.75,10.79a91.85,91.85,0,0,1-3.8,16.51c-4.84,13.36-15.77,17-29.13,32.78-12.68,15-16.47,33.86-17.3,69.4H1694C1691.1,963.27,1689.66,943.87,1677,928.92Z" style="fill:#f1aa98" />
	<path d="M1578.37,816.2c-5.83-1.35-14.49,2.13-14.7,10.73a12,12,0,0,0,11.11,12.53c6,.19,11.72-3.05,12.79-10.18a11.69,11.69,0,0,0-9.2-13.08" style="fill:#f9f6f0" />
	<path d="M1573.2,823.13a5.94,5.94,0,0,0-7.42,5.74c-.11,4.63,3.22,6.7,5.5,6.78,3.2.11,6.3-1.64,6.87-5.48a6.28,6.28,0,0,0-5-7" style="fill:#167536" />
	<path d="M1615.59,861c-5,0-14.34-1-14.7,3.75s5.63,10.8,13.29,11.44c7.34.62,15.15-3.88,14.7-10.54-.36-5.16-8.25-4.63-13.29-4.65" style="fill:#ec663f" />
	<path d="M1652.71,816.19c-5.83-1.34-15.11,2.46-15.33,11.06s7.51,12.06,11.74,12.21c6,.21,11.72-3.06,12.8-10.18a11.7,11.7,0,0,0-9.21-13.09" style="fill:#f9f5ef" />
	<path d="M1647.94,823.51a6,6,0,0,0-7.42,5.74c-.11,4.63,3.22,6.7,5.48,6.78,3.2.11,6.3-1.64,6.9-5.46a6.29,6.29,0,0,0-5-7.06" style="fill:#167536" />
	<path d="M1577.6,879.63a91.85,91.85,0,0,1-3.8,16.51c-4.84,13.36-15.77,17-29.13,32.78s-16.86,35.87-17.41,75.25c-.56,38.9-.79,68.29,7.7,96.2s29.52,82.66,29.52,82.66h96.16s21.9-51.35,30.39-79.26,6.55-61.38,3.39-99.6c-3.2-38.8-4.07-59.48-17.41-75.25s-24.27-19.42-29.13-32.78a85,85,0,0,1-3.45-14.3c-13,7.52-22.65,11.57-31.4,11.57C1602.9,893.41,1591.34,887.73,1577.6,879.63Z" style="fill:#f19031" />
	<g style="clip-path:url(#f1f7f3d4-2e46-485c-a7be-50d3ead3ea16)">
		<path d="M1530.48,785.49s-10.81,129.67,48.63,264.75,122.11,192.35,122.11,192.35,193.42-45.39,190.18-45.39-125.35-452.77-125.35-452.77Z" style="fill:#f6cd0b" />
		<path d="M1515.28,748.69s18,128.87,105.77,247.53,161.49,160.71,161.49,160.71,178.67-86.89,175.51-86.17-222-414-222-414Z" style="fill:#fbe994" />
	</g>
	<path d="M1680.46,796.49c-6.35-23.09-21.75-30.06-71.91-29.36-54.37.75-57.76,8.36-64.59,33.75-11.38,42.25-2,55.62,20.43,69.33,21.8,13.32,36.3,22.06,50.42,22.06,6.21,0,12.24-1.61,19.59-5,3.13-1.53,6.44-3.32,10-5.39a.43.43,0,0,1,0,.11c5.91-3.38,12.7-7.64,20.89-12.86C1684.72,856.72,1691.2,835.55,1680.46,796.49Z" style="fill:none" />
	<path d="M1634.4,887.23c3.08-1.44,6.39-3.18,10-5.28a.43.43,0,0,0,0-.11C1640.84,883.91,1637.53,885.7,1634.4,887.23Z" style="fill:#291433" />
	<path d="M1683.64,939.06l-.07-.06,0,.06Z" style="fill:#291433" />
	<path d="M1538.9,937h0l.06-.1Z" style="fill:#291433" />
	<path d="M1692.72,754.27c-17.12-32-34.28-51-80.92-50.51-51.1.51-71.33,21.25-84.48,56.66-14,37.61-17.35,74.09-7.48,97.13,11.65,27.18,34.61,32.27,38.64,44.69,2.11,6.5.63,10.63-5.16,16.88-3.26,3.51-5.94,6.6-8.65,9.8a57.24,57.24,0,0,0-5.66,8l-.06.1c-.37.62-.73,1.24-1.08,1.88a404.94,404.94,0,0,0,72.37,6.55A524.47,524.47,0,0,0,1684,940c-.14-.3-.27-.61-.42-.9l0-.06a62.53,62.53,0,0,0-5.57-9.75,105,105,0,0,0-11.54-13.06c-4.62-4.67-5.78-11.43-2.74-15.59,12-16.47,35.54-12.7,43.79-46.19C1714.82,824.74,1703.31,774.08,1692.72,754.27Zm-27.38,114.82c-8.19,5.22-15,9.48-20.89,12.86-3.66,2.1-7,3.84-10,5.28-7.35,3.43-13.38,5-19.59,5-14.12,0-28.62-8.74-50.42-22.06-22.43-13.71-31.81-27.08-20.43-69.33,6.83-25.39,14.26-24.61,68.64-25.36,50.15-.7,60.11-4.2,67.47,21.72C1691.13,836.22,1684.72,856.72,1665.34,869.09Z" style="fill:#291433" />
	<path d="M1693.73,829.07a5.94,5.94,0,0,0-7.4,5.72,6.32,6.32,0,0,0,3.85,6.4c-2.2,6.18-7.79,18.58-20.6,31.83-4.5,4.65-8.54,8.49-12.1,11.88-6.81,6.46-12.55,11.92-18.66,20.19l-3.45-1.79-13.63,24.52,3.23,1.9c-2.3,5.6-4.37,11.51-6.16,17.15-3.29,10.39-5.66,19.85-6.79,24.65-1.41-4.79-4.34-14.18-8.32-24.47a173.81,173.81,0,0,0-12.53-26.54c-6.82-11.24-15.39-20.08-23.67-28.63-6.61-6.81-12.85-13.25-17.94-20.57-9.32-13.41-13.49-24.25-15.28-30.25a6.06,6.06,0,0,0,4.14-5,6.27,6.27,0,0,0-4.94-7,5.94,5.94,0,0,0-7.4,5.72c-.11,4.62,3.21,6.68,5.48,6.77a8.44,8.44,0,0,0,1,0c1.79,6.09,6,17.06,15.59,30.86,5.16,7.43,11.45,13.92,18.11,20.78,8.22,8.48,16.72,17.25,23.43,28.32a170.36,170.36,0,0,1,12.18,25.68c5.48,14.07,9,26.61,9.41,28.1a153.53,153.53,0,0,1-6.26,30c-4.67,14.74-13.72,34.32-30.24,43.85-14.2,8.2-32.18,11.61-46.75,12.8l.15,1.7c14.77-1.22,33-4.68,47.46-13,32.47-18.73,37.32-74.8,37.36-75.37,0,0,3-13.33,7.74-28.31,1.71-5.38,3.65-11,5.77-16.22l3.25,1.91,13.12-25.36-2.52-1.3c6-8,11.61-13.4,18.28-19.74,3.58-3.4,7.63-7.25,12.16-11.93,13.3-13.75,18.91-26.38,21.08-32.65,3.17.07,6.2-1.67,6.77-5.46A6.26,6.26,0,0,0,1693.73,829.07Z" style="fill:#41b1e0" />
	<path d="M1116.94,1018.85c-3.23-39.22-4.11-60.13-17.61-76.08s-24.54-19.63-29.45-33.13-6.14-39.27-6.14-39.27h-62.63s-1.22,25.77-6.13,39.27-16,17.18-29.45,33.13-17,36.26-17.61,76.08c-.56,39.34-.81,69.05,7.78,97.27s29.83,83.57,29.83,83.57h97.22s22.13-51.92,30.72-80.14S1120.12,1057.48,1116.94,1018.85Z" style="fill:#291433" />
	<path d="M953.19,810.92c-3.8,44.34,4.86,67,27.67,80.93,22.18,13.55,39.4,24.82,53.76,24.82,13.24,0,28.41-9.09,54.22-25.57,19.71-12.57,26.91-28.2,25.65-70-.74-24.09-30.77-66.82-81.79-66.11C977.39,755.74,955.44,784.56,953.19,810.92Z" style="fill:#f7b316" />
	<g style="clip-path:url(#ae25a815-1691-4630-b684-932fffb8c2c0)">
		<path d="M957.85,837s8.83,26.51,26.51,30.2,26.51.73,26.51.73a52.47,52.47,0,0,1-25.53,9.58c-25,2.06-36.33-14-36.33-14Z" style="fill:#2a363b" />
		<path d="M963.08,875.5s17,12.85,30.82,11.84a30.91,30.91,0,0,0,18.76-7.8A31.29,31.29,0,0,1,999,894.67c-13.35,7.19-31,1.18-31,1.18Z" style="fill:#2a363b" />
		<path d="M1105.17,835.67s-8.84,26.51-26.51,30.2-26.52.73-26.52.73a52.53,52.53,0,0,0,25.54,9.58c25,2.06,36.33-14,36.33-14Z" style="fill:#2a363b" />
		<path d="M1099.94,874.13s-17,12.85-30.82,11.84a30.91,30.91,0,0,1-18.76-7.8A31.31,31.31,0,0,0,1064,893.3c13.36,7.19,31,1.18,31,1.18Z" style="fill:#2a363b" />
	</g>
	<path d="M1071.91,840c-7.93,2.75-14.2,5.33-13.4,13.63s7.91,11.66,13.42,10.2c8.47-2.25,18.06-16.18,17.14-21-1.32-7-10.27-5.13-17.16-2.79" style="fill:#faf7f0" />
	<g style="clip-path:url(#bc20702f-c1a4-4f7e-aaa3-548f10139c64)">
		<path d="M1055,848.32s25.6-7.18,28.51-1-3.11,15.9-3.11,15.9l6.21,5.63,15.13-32.78s-21.53-12.8-22.89-13-26.37,18.23-26.37,18.23Z" style="fill:#2a363b" />
		<path d="M1081.65,843.83c-4.1-.93-9.56,1.46-9.71,7.51s4.21,8.77,7.19,8.88c4.19.14,8.24-2.15,9-7.16a8.24,8.24,0,0,0-6.48-9.23" style="fill:#2a363b" />
	</g>
	<path d="M995.21,839.51c7.94,2.75,14.2,5.32,13.4,13.63s-7.9,11.66-13.41,10.19c-8.47-2.24-18.35-16.24-17.15-21,1.8-7.16,10.28-5.14,17.16-2.79" style="fill:#faf7f0" />
	<g style="clip-path:url(#e452f193-1fed-4d55-b5b7-cd6c5db2df91)">
		<path d="M1012.14,847.86s-25.6-7.17-28.51-1,3.1,15.9,3.1,15.9l-6.2,5.62L965.4,835.65s21.53-12.8,22.88-13,26.38,18.23,26.38,18.23Z" style="fill:#2a363b" />
		<path d="M1000.19,844.46c4.1-.94,9.56,1.45,9.71,7.5s-4.21,8.78-7.19,8.89c-4.19.14-8.24-2.16-9-7.17a8.22,8.22,0,0,1,6.47-9.22" style="fill:#2a363b" />
	</g>
	<path d="M974.06,798.3c-15.26,3.27-12.8,22.84-12.8,42.42s15.39,84.33,15.39,84.33l-9.12-3s-48.63-66.87-26.34-133.73c10.34-31,35.13-60.78,85.1-61.79,51.47-1,80.8,26.39,90.59,53.13,26.92,73.5-20.69,137.32-20.69,137.32L1085,922s13.73-59.6,13.17-83.07c-.41-17.5.57-35.74-13.81-42.15-15.87-7.08-21.81,24.06-51.74,23.76S997.06,793.38,974.06,798.3Z" style="fill:#e85830" />
	<path d="M1033.84,867c-9.15.19-11.39,4.89-10.5,8.37.77,3.07,5.75,2.88,10.69,2.88s8.5.62,9.91-3.43C1044.68,872.69,1042.37,866.82,1033.84,867Z" style="fill:#2a363b" />
	<polygon points="1032.58 875.49 1033.34 891.57 1036.01 891.47 1035.1 875.94 1032.58 875.49" style="fill:#2a363b" />
	<path d="M1034.91,889.28c-5.09,0-15,.19-15.35,5.05s6.15,10.48,13.92,10.33c8.67-.17,15-3.92,14.87-10.66-.1-4.42-8.34-4.7-13.44-4.72" style="fill:#e18bb9" />
	<path d="M948.35,801.72s29.28-45.05,83.88-43.89C1088,759,1113,798.59,1113,798.59l-7.66-26.14s-15.08-34.22-73.87-35-77.34,34.14-77.34,34.14Z" style="fill:#f7b316" />
	<path d="M962.71,764.41s-6.51-36.39,1.68-39.28,37.05,18,37.05,18-14.42,6-22.13,10.85Z" style="fill:#f7b316" />
	<g style="clip-path:url(#e9e1a9a2-6b16-4995-9f5b-77522bf8ebb3)">
		<path d="M975,762.69s-6.23-19.93-2.29-22.38,19.42,10.28,19.42,10.28Z" style="fill:#2a363b" />
	</g>
	<path d="M1092.05,763.05s7.23-35.16-1-38-38,18.47-38,18.47,13.24,4.65,20.94,9.47S1092.05,763.05,1092.05,763.05Z" style="fill:#f7b316" />
	<g style="clip-path:url(#a94cf20e-d9da-4443-bf9b-206d5eee2a4c)">
		<path d="M1080.63,761.83s4.7-18.3.76-20.75-18.08,9.38-18.08,9.38Z" style="fill:#2a363b" />
	</g>
</svg>
