<svg xmlns="http://www.w3.org/2000/svg" viewBox="0 0 170.08 283.46"><g id="f223679f-f917-4efc-93ab-55d25750012f" data-name="HÅR"><path d="M50,123.91a2.71,2.71,0,0,1-1.19.34,6,6,0,0,1-2.31-.38L48,156.12l9-14.38,9,9.78A14.73,14.73,0,0,0,67.17,149,44.56,44.56,0,0,0,69,141.3c-2.6-1.54-5.37-3.25-8.32-5.06A24.65,24.65,0,0,1,50,123.91Z" style="fill:current"/><path d="M132.09,136.54l-4.88-15.84c-2,3.09-4.47,3.62-6,3.55a2.56,2.56,0,0,1-.75-.14c-1.88,5.33-5.06,8.75-9.83,11.79-4,2.53-7.38,4.68-10.41,6.43h0a40.44,40.44,0,0,0,1.61,6.7,15.06,15.06,0,0,0,3.07,5l5.06-7.78L135,156.61l-12.27-22.7Z" style="fill:current"/><path d="M114.61,99.54l7.18,15,2.08-4.72,1.35-3.06,2.2-5h14.93L123.13,84.44l3.14-18-21.71-4.09,3.3-16.77L88.61,56.15,68,46.15,66.48,58.91,36.68,72.54,45.49,78,33,96.69l10.28-2.87-11,38.47,11.4-10.4a15.2,15.2,0,0,1-3.12-7.27c-1.63-8.33,5.12-8,6.4-7.91l2.2,9,4-16.12,5.07,9.4,14.23-24.1,13.83,36.74,13-23,14.78,31.32Z" style="fill:current"/></g></svg>