<svg xmlns="http://www.w3.org/2000/svg" viewBox="0 0 170.08 283.46"><g id="b34720c9-b79d-4334-a8b1-205d8dfbf32c" data-name="HÅR"><path d="M43.37,96.66c-.24,5.45,1.52,14.68,1.52,14.68l4.15-1s0-10.74,2-15.7c2.93-7.23,8.88-13.77,8.88-13.77s12.75,2.55,22,2.44c10.6-.14,25.21-4.8,25.21-4.8s9.14,9.69,11,16.84A62.13,62.13,0,0,1,120,109.71l3.58,1.72a36.87,36.87,0,0,0,.81-18c-2-10-10.38-20.33-13.79-23.26-5.34-4.58-18.25-11.37-18.25-11.37l.07-3.26S68.19,59,55,71.3A37.18,37.18,0,0,0,43.37,96.66Z" style="fill:current"/></g></svg>