<svg xmlns="http://www.w3.org/2000/svg" xmlns:xlink="http://www.w3.org/1999/xlink" viewBox="0 0 170.08 283.46"><defs><clipPath id="a0f71dda-bf7a-4acb-9e01-c2d68f221262"><path d="M-66.4,199.65c-1.5-18.18-1.91-27.87-8.16-35.26-5.9-7-10.79-8.89-13.23-14.35a72,72,0,0,1-17.58,2,59.28,59.28,0,0,1-17.71-2.66c-2.34,5.94-7.36,7.73-13.48,15-6.26,7.39-7.9,16.81-8.16,35.26-.26,18.23-.37,32,3.61,45.08s13.83,38.73,13.83,38.73h45.05S-72,259.4-68,246.32-64.92,217.56-66.4,199.65Z" style="fill:#current"/></clipPath></defs><g id="be1f7d28-e388-43f4-9ab3-ba6b87f2f1e1" data-name="HÅR"><path d="M94.35,84.18A88.8,88.8,0,0,1,71.2,100.7C59,106.7,52,107.22,52,107.22l-2.93,4s-5.37-7.8-2.75-22.16C49.49,71.59,61.09,61,84.07,60.51c23.67-.48,34,11,38.73,23.19,4.17,10.64-1.35,28.41-1.35,28.41s-13.59-9.9-18.49-16a137.48,137.48,0,0,1-8.61-12" style="fill:current"/><path d="M86.34,32.7C66.89,32,65.51,40.48,63.84,49.92s10.17,13.3,23,13.3,20.4-6.07,20.4-15S100.78,33.25,86.34,32.7Z" style="fill:current"/><polygon points="68.53 59.56 68.09 62.93 101.57 63.08 101.57 59.41 68.53 59.56" style="fill:#008533"/></g><g id="b4186e11-0d52-4748-a3e3-82519512ad4a" data-name="CLOTHES"><path d="M-66.4,199.65c-1.5-18.18-1.91-27.87-8.16-35.26-5.9-7-10.79-8.89-13.23-14.35a72,72,0,0,1-17.58,2,59.28,59.28,0,0,1-17.71-2.66c-2.34,5.94-7.36,7.73-13.48,15-6.26,7.39-7.9,16.81-8.16,35.26-.26,18.23-.37,32,3.61,45.08s13.83,38.73,13.83,38.73h45.05S-72,259.4-68,246.32-64.92,217.56-66.4,199.65Z" style="fill:#current"/><g style="clip-path:url(#a0f71dda-bf7a-4acb-9e01-c2d68f221262)"><path d="M26.17,162.33C44.5,126.78,50,96.07,50,96.07L4.16,99.54S-23.72,167-54.63,201.82s-136.55,37.6-136.55,37.6l-9,21.48c-47.29-7.69-90.42-24.12-90.42-24.12l-31.08,26.92s115.28,49.09,215.72,29.55C12.85,270.14,80.38,179.74,80.38,179.74Z" style="fill:#008533"/><path d="M-32.8,160.72S-47.85,196.4-101.61,217c-48.66,18.6-113.4.1-113.4.1l-14.07,35.68s80.07,16.59,138.42-5.08c66.15-24.57,93.48-89.91,93.48-89.91Z" style="fill:#f5e012"/></g></g></svg>