<svg xmlns="http://www.w3.org/2000/svg" viewBox="0 0 170.08 283.46"><g id="f80354cb-05eb-4362-865a-98327192aa90" data-name="HÅR"><path d="M113.34,69.29l5.46-13.08a8.75,8.75,0,0,0,1.45.07,7.08,7.08,0,0,0,6.68-7.45c-.15-5.21-5.31-7.46-8.84-6.64a7.16,7.16,0,0,0-3.29,12.29l-5.19,11.88c-5.75-3.87-13.53-6.4-24.06-6.43C72.39,59.89,63.28,62.72,57,67L51.29,53.91a7,7,0,0,0,2.28-4.36A7.09,7.09,0,0,0,48,41.63c-3.53-.82-8.69,1.43-8.84,6.64a7.09,7.09,0,0,0,6.68,7.45,10,10,0,0,0,1.45-.07l6,14.35c-14.43,13.76-8,36.74-8,36.74a27.37,27.37,0,0,0,2.42,5.6c1.55,2.58,2.83,4.4,2.83,4.4l1.79-.67a10.82,10.82,0,0,1-.8-10.84c2.29-4.53,9.71-5.68,16.89-10.22C75.78,90.33,83.18,79.3,83.18,79.3s5.45,8.77,11.32,12.31c8.34,5,18.4,5.81,22.22,10.15a12.74,12.74,0,0,1,2,14.83l2.16.45a29,29,0,0,0,2.84-5,29.74,29.74,0,0,0,1.58-5.23S128.24,83,113.34,69.29Z" style="fill:current"/></g></svg>