<?xml version="1.0" encoding="UTF-8"?>
<svg xmlns="http://www.w3.org/2000/svg" xmlns:xlink="http://www.w3.org/1999/xlink" viewBox="0 0 1920 1080">
	<defs>
		<style>
			.j{fill:none;}.k{fill:#f6f6f7;}.l{fill:#00487e;}.m{fill:#0095d8;}.n{fill:#f1f1f3;}.o{fill:#f08b27;}.p{fill:#ffd500;}.q{fill:#2f8760;}.r{fill:#b7d3ec;}.s{fill:#d88b46;}.t{fill:#cee0f2;}.u{fill:#dfbe84;}.v{fill:#c4c7c9;}.w{fill:#c6a4c9;}.x{fill:#465256;}.y{fill:#283a50;}.a`{fill:#58b6e3;}.aa{fill:#58a24b;}.ab{fill:#2e425b;}.ac{fill:#3b9bd2;}.ad{fill:#5b3346;}.ae{fill:#4a9986;}.af{fill:#75c6cf;}.ag{clip-path:url(#c);}.ah{clip-path:url(#e);}.ai{clip-path:url(#d);}.aj{clip-path:url(#i);}.ak{clip-path:url(#h);}.al{clip-path:url(#g);}
		</style>
		<clipPath id="c">
			<rect width="1920" height="1080" style="fill:none;" />
		</clipPath>
		<clipPath id="d">
			<path d="M1237.28,715.64c-19.76-7.38-40.45,3.46-46.61,21.97-6.17,18.54,1.38,38.33,21.08,46.07,20.45,8.03,40.42-3.86,47.07-21.96,6.3-17.15-2.39-38.92-21.54-46.08h0Z" style="fill:none;" />
		</clipPath>
		<clipPath id="e">
			<path d="M1262.67,722.98c-15.8,15.25-14.88,39.55-.27,53.64,14.65,14.11,36.63,15.89,52.73,.85,16.71-15.61,14.5-39.7,.48-54.06-13.29-13.61-37.64-15.2-52.95-.43h.01Z" style="fill:none;" />
		</clipPath>
		<clipPath id="g">
			<path d="M466.73,325.36l78.21-5.29,21.13,32.89s45.96,10.39,68.68,23.38c22.72,12.98,12.98,30.29,8.66,48.68-4.33,18.39-21.64,183.92-20.56,229.36,1.08,45.43,32.45,115.76,32.45,115.76,0,0-6.48,24.89-28.12,34.62s-86.6,43.95-139.61,20.16c-53.01-23.81-78.26-83.1-78.26-83.1,0,0-3.92-105.83-6.08-149.11-2.16-43.28-23.18-146.31-29.67-174.43-6.5-28.14,76.39-58.78,76.39-58.78l16.79-34.14h0Z" style="fill:none;" />
		</clipPath>
		<clipPath id="h">
			<path d="M643.6,384.05l-23.93,9.12-5.12,157.84s13.34,51.38,15.05,82.72c1.71,31.34,7.32,122.33,8.46,132.59,1.14,10.26-9.58,53.24-9.58,53.24,0,0,17.01-1.89,33.39,3.31,14.06,4.46,22.16,7.61,22.16,7.61,0,0,8.6-41.84,12.01-87.99,3.43-46.15-7.4-141.3-13.67-182.9-6.26-41.59-16.52-154.41-38.74-175.49l-.03-.03Z" style="fill:none;" />
		</clipPath>
		<clipPath id="i">
			<path d="M426.76,635.78c-32.74,22.76-75.91,33.06-96.62,30.26-28.02-3.79-12.35-66.71-12.35-66.71,0,0,36.52-5.35,57.25-11.31,20.73-5.96,83.5-27.85,83.5-27.85l24.12,40.58s-23.17,12.26-55.9,35.03Z" style="fill:none;" />
		</clipPath>
	</defs>
	<g id="a">
		<g id="b">
			<g style="clip-path:url(#c);">
				<g>
					<polygon points="2282.18 1163.15 -265.66 1182.29 -260.38 -102.86 2287.46 -122 2282.18 1163.15" style="fill:#b7d3ec;" />
					<path d="M1738.24,537.89s-167.53,0-238.82-25.39-110.51-53.12-180.1-37.31c-99.41,22.59-55.15,58.08-130.01,65-74.85,6.92-99.8,4.62-124.76,30-24.95,25.39-53.47,43.85-106.93,41.54-53.47-2.31-49.9-71.54-142.58-73.85s-142.58,16.16-174.66,9.23c-32.08-6.92-37.28-38.06-90.75-33.45-53.47,4.62-71.28,24.15-103.36,21.85-32.08-2.31-74.06-141.48-231.27-150.2-130.9-7.26-175.42,25.54-212.66,60.25-34.78,32.42-28.25,31.45-56.77,31.45s-18.09-52.23-103.63-52.23-117.63,23.08-142.58,18.46-71.29-50.77-142.58-23.08-124.76,48.47-149.71,50.77c-24.95,2.31-103.37-64.62-146.14-69.24s-121.19,0-146.14-11.54-114.06-73.85-203.17-73.85-431.3,41.54-431.3,41.54l7.13,507.73,3475.34-6.92-224.56-320.8v.04Z" style="fill:#cee0f2;" />
					<path d="M2860.2,773.14s-97.77,0-139.37-26.01c-41.6-26.01-33.28-82.77-91.53-61.49-58.24,21.28-45.76,82.77-89.45,89.87-43.68,7.09-58.24,4.73-72.81,30.74-14.56,26.01-31.2,44.93-62.41,42.57-31.2-2.36-29.12-73.31-83.21-75.68-54.08-2.36-83.21,16.55-101.93,9.46-18.72-7.09-16.64-52.03-47.84-47.3-31.2,4.73-46.71,37.78-65.43,35.41-18.72-2.36,14.23-174.61-77.3-188.8s-97.15-51.75-147.07-51.75-70.84,18.95-122.67,17.52c-15.3-.42-70.01-26.69-120.59-16.49-49.37,9.96-80.14,41.32-94.7,43.69-14.56,2.36-41.15-15.86-110.06-10.55-25.33,1.95-79.73,36.33-173.46,38.67-99.38,2.48-116.12-49.27-276.48-32.05-25.72,2.76-91.39,34.39-201.52,48.45-100.24,12.8-1030.99,21.09-1030.99,21.09l-74.98,726.38,3314.86-265-131.05-328.73h-.01Z" style="fill:#4a9986;" />
					<path d="M-309.55,668.61s354.05-11.71,515.49-9.37,393.53-10.37,574.07-7.03c76.5,1.42,777.79-36.09,855-40.77s546.4-4.68,546.4-4.68l9.36,1113.7S-89.34,1598.8-94.02,1587.1c-4.68-11.7-215.52-918.49-215.52-918.49h0Z" style="fill:#2f8760;" />
					<path d="M1340.27,117.47s9.76-47.93,48.12-51.43c44.41-4.05,60.02,39.84,60.02,39.84,0,0,51.5,3.87,59.76,50.23,7.09,39.85-23.65,50.82-38.11,52.4-29.83,3.25-126.76,4.08-141.93,.68-7.22-1.62-33.92-6.79-33.92-43.72,0-40.66,46.06-47.99,46.06-47.99" style="fill:#f6f6f7;" />
					<path d="M1229.18,178.13s6.46-28.66,31.84-30.75c29.39-2.42,39.71,23.81,39.71,23.81,0,0,34.08,2.31,39.54,30.03,4.69,23.83-15.65,30.38-25.22,31.33-19.74,1.94-83.87,2.44-93.91,.41-4.78-.97-22.44-4.06-22.44-26.14,0-24.31,30.47-28.69,30.47-28.69" style="fill:#f6f6f7;" />
					<polygon points="-237.32 696.75 2176.07 690.47 2199.11 1448.54 -156.97 1445.78 -237.32 696.75" style="fill:#58a24b;" />
					<polygon points="-62.33 814.54 2044.41 812.69 2050.04 819.53 -63.54 822.46 -62.33 814.54" style="fill:#f1f1f3;" />
					<polygon points="-320.61 899.98 656.58 896.61 515.28 1405.1 504.87 1401.28 645.38 904.77 -330.34 908.26 -320.61 899.98" style="fill:#f1f1f3;" />
					<g>
						<g>
							<g>
								<polygon points="989.25 448.3 1713.09 449.48 1712.73 454.15 986.84 453.39 989.25 448.3" style="fill:#f1f1f3;" />
								<polygon points="989.25 427.64 1713.09 428.82 1712.73 433.49 986.84 432.73 989.25 427.64" style="fill:#f1f1f3;" />
								<polygon points="989.25 468.96 1713.09 470.14 1712.73 474.81 986.84 474.06 989.25 468.96" style="fill:#f1f1f3;" />
								<polygon points="989.25 489.62 1713.09 490.8 1712.73 495.47 986.84 494.72 989.25 489.62" style="fill:#f1f1f3;" />
								<polygon points="989.25 510.29 1713.09 511.46 1712.73 516.13 986.84 515.38 989.25 510.29" style="fill:#f1f1f3;" />
								<polygon points="989.25 530.95 1713.09 532.12 1712.73 536.79 986.84 536.04 989.25 530.95" style="fill:#f1f1f3;" />
								<polygon points="989.25 551.61 1713.09 552.78 1712.73 557.45 986.84 556.7 989.25 551.61" style="fill:#f1f1f3;" />
								<polygon points="989.25 572.27 1713.09 573.44 1712.73 578.11 986.84 577.36 989.25 572.27" style="fill:#f1f1f3;" />
								<polygon points="989.25 592.93 1713.09 594.11 1712.73 598.77 986.84 598.02 989.25 592.93" style="fill:#f1f1f3;" />
								<polygon points="989.25 613.59 1713.09 614.77 1712.73 619.43 986.84 618.68 989.25 613.59" style="fill:#f1f1f3;" />
								<polygon points="989.25 634.25 1713.09 635.43 1712.73 640.1 986.84 639.34 989.25 634.25" style="fill:#f1f1f3;" />
								<polygon points="989.25 654.91 1713.09 656.09 1712.73 660.76 986.84 660 989.25 654.91" style="fill:#f1f1f3;" />
								<polygon points="989.25 675.57 1713.09 676.75 1712.73 681.42 986.84 680.67 989.25 675.57" style="fill:#f1f1f3;" />
								<polygon points="989.25 696.23 1713.09 697.41 1712.73 702.08 986.84 701.33 989.25 696.23" style="fill:#f1f1f3;" />
								<polygon points="989.25 716.89 1713.09 718.07 1712.73 722.74 986.84 721.99 989.25 716.89" style="fill:#f1f1f3;" />
								<polygon points="979.41 734.62 1012.19 735.8 1012.18 740.47 979.3 739.72 979.41 734.62" style="fill:#f1f1f3;" />
							</g>
							<g>
								<polygon points="1285.82 413.65 1284.64 719.25 1279.98 719.09 1280.73 412.63 1285.82 413.65" style="fill:#f1f1f3;" />
								<polygon points="1306.53 413.65 1305.36 719.25 1300.69 719.09 1301.44 412.63 1306.53 413.65" style="fill:#f1f1f3;" />
								<polygon points="1265.11 413.65 1263.93 719.25 1259.27 719.09 1260.02 412.63 1265.11 413.65" style="fill:#f1f1f3;" />
								<polygon points="1244.4 413.65 1243.22 719.25 1238.55 719.09 1239.31 412.63 1244.4 413.65" style="fill:#f1f1f3;" />
								<polygon points="1223.69 413.65 1222.51 719.25 1217.84 719.09 1218.6 412.63 1223.69 413.65" style="fill:#f1f1f3;" />
								<polygon points="1202.98 413.65 1201.8 719.25 1197.13 719.09 1197.89 412.63 1202.98 413.65" style="fill:#f1f1f3;" />
								<polygon points="1182.27 413.65 1181.09 719.25 1176.42 719.09 1177.17 412.63 1182.27 413.65" style="fill:#f1f1f3;" />
								<polygon points="1161.56 413.65 1160.38 719.25 1155.71 719.09 1156.46 412.63 1161.56 413.65" style="fill:#f1f1f3;" />
								<polygon points="1140.84 413.65 1139.67 719.25 1135 719.09 1135.75 412.63 1140.84 413.65" style="fill:#f1f1f3;" />
								<polygon points="1120.13 413.65 1118.96 719.25 1114.29 719.09 1115.04 412.63 1120.13 413.65" style="fill:#f1f1f3;" />
								<polygon points="1099.42 413.65 1098.25 719.25 1093.58 719.09 1094.33 412.63 1099.42 413.65" style="fill:#f1f1f3;" />
								<polygon points="1078.71 413.65 1077.54 719.25 1072.87 719.09 1073.62 412.63 1078.71 413.65" style="fill:#f1f1f3;" />
								<polygon points="1058 413.65 1056.82 719.25 1052.16 719.09 1052.91 412.63 1058 413.65" style="fill:#f1f1f3;" />
								<polygon points="1037.29 413.65 1036.11 719.25 1031.45 719.09 1032.2 412.63 1037.29 413.65" style="fill:#f1f1f3;" />
								<polygon points="1016.58 413.65 1015.4 738.71 1010.73 738.56 1011.49 412.63 1016.58 413.65" style="fill:#f1f1f3;" />
								<polygon points="1596.48 413.65 1595.31 719.25 1590.64 719.09 1591.39 412.63 1596.48 413.65" style="fill:#f1f1f3;" />
								<polygon points="1617.2 413.65 1616.02 719.25 1611.35 719.09 1612.1 412.63 1617.2 413.65" style="fill:#f1f1f3;" />
								<polygon points="1575.77 413.65 1574.6 719.25 1569.93 719.09 1570.68 412.63 1575.77 413.65" style="fill:#f1f1f3;" />
								<polygon points="1555.06 413.65 1553.89 719.25 1549.22 719.09 1549.97 412.63 1555.06 413.65" style="fill:#f1f1f3;" />
								<polygon points="1534.35 413.65 1533.17 719.25 1528.51 719.09 1529.26 412.63 1534.35 413.65" style="fill:#f1f1f3;" />
								<polygon points="1513.64 413.65 1512.46 719.25 1507.8 719.09 1508.55 412.63 1513.64 413.65" style="fill:#f1f1f3;" />
								<polygon points="1492.93 413.65 1491.75 719.25 1487.08 719.09 1487.84 412.63 1492.93 413.65" style="fill:#f1f1f3;" />
								<polygon points="1472.22 413.65 1471.04 719.25 1466.37 719.09 1467.13 412.63 1472.22 413.65" style="fill:#f1f1f3;" />
								<polygon points="1700.04 413.65 1698.86 735.21 1694.19 735.05 1694.95 412.63 1700.04 413.65" style="fill:#f1f1f3;" />
								<polygon points="1679.33 413.65 1678.15 719.25 1673.48 719.09 1674.24 412.63 1679.33 413.65" style="fill:#f1f1f3;" />
								<polygon points="1658.62 413.65 1657.44 719.25 1652.77 719.09 1653.52 412.63 1658.62 413.65" style="fill:#f1f1f3;" />
								<polygon points="1637.91 413.65 1636.73 719.25 1632.06 719.09 1632.81 412.63 1637.91 413.65" style="fill:#f1f1f3;" />
								<polygon points="1451.51 413.65 1450.33 719.25 1445.66 719.09 1446.42 412.63 1451.51 413.65" style="fill:#f1f1f3;" />
								<polygon points="1430.8 413.65 1429.62 719.25 1424.95 719.09 1425.71 412.63 1430.8 413.65" style="fill:#f1f1f3;" />
								<polygon points="1410.09 413.65 1408.91 719.25 1404.24 719.09 1404.99 412.63 1410.09 413.65" style="fill:#f1f1f3;" />
								<polygon points="1389.38 413.65 1388.2 719.25 1383.53 719.09 1384.28 412.63 1389.38 413.65" style="fill:#f1f1f3;" />
								<polygon points="1368.66 413.65 1367.49 719.25 1362.82 719.09 1363.57 412.63 1368.66 413.65" style="fill:#f1f1f3;" />
								<polygon points="1347.95 413.65 1346.78 719.25 1342.11 719.09 1342.86 412.63 1347.95 413.65" style="fill:#f1f1f3;" />
								<polygon points="1327.24 413.65 1326.07 719.25 1321.4 719.09 1322.15 412.63 1327.24 413.65" style="fill:#f1f1f3;" />
							</g>
						</g>
						<polygon points="973.12 759.58 977.83 395.69 1727.9 394.91 1730.04 753.09 1710.53 753.64 1708.76 413.02 998.86 416.3 993.58 759.92 973.12 759.58" style="fill:#465256;" />
					</g>
					<g>
						<path d="M1237.28,715.64c-19.76-7.38-40.45,3.46-46.61,21.97-6.17,18.54,1.38,38.33,21.08,46.07,20.45,8.03,40.42-3.86,47.07-21.96,6.3-17.15-2.39-38.92-21.54-46.08h0Z" style="fill:#ffd500;" />
						<g style="clip-path:url(#d);">
							<g>
								<polygon points="1228.83 734.79 1213.54 740.33 1213.88 756.24 1229.34 761.71 1238.77 748.04 1228.83 734.79" style="fill:#00487e;" />
								<path d="M1202.59,765.46c.01-.22-10.52-8.1-10.52-8.1l-4.81,13.28,6.01,6.42,12.85,.51-3.52-12.11h0Z" style="fill:#00487e;" />
								<path d="M1237.65,775.25c-.21-.06-10.3,8.38-10.3,8.38l11.82,7.74,7.63-4.37,3.45-12.39-12.59,.64h0Z" style="fill:#00487e;" />
								<polygon points="1254.86 736.11 1250.36 748.61 1255.11 761.17 1266.57 756.95 1264.58 744.15 1254.86 736.11" style="fill:#00487e;" />
								<path d="M1223.45,716.65l8.78-6.62,10.27,4.09,3.47,9.89-12.48-.89s-10.04-6.69-10.05-6.46h.01Z" style="fill:#00487e;" />
								<polygon points="1207.43 721.86 1203.43 733.39 1192.69 742.31 1187.13 730.3 1193.63 722.34 1207.43 721.86" style="fill:#00487e;" />
							</g>
						</g>
					</g>
					<polygon points="988.25 753.31 1027.93 720.4 996.78 401.57 1003.71 401.34 1036.94 723.54 993.15 759.9 988.25 753.31" style="fill:#465256;" />
					<polygon points="1715.49 746.97 1678.47 719.48 1711.46 400.15 1704.52 399.92 1669.46 722.63 1710.52 753.63 1715.49 746.97" style="fill:#465256;" />
					<g>
						<path d="M1262.67,722.98c-15.8,15.25-14.88,39.55-.27,53.64,14.65,14.11,36.63,15.89,52.73,.85,16.71-15.61,14.5-39.7,.48-54.06-13.29-13.61-37.64-15.2-52.95-.43h.01Z" style="fill:#0095d8;" />
						<g style="clip-path:url(#e);">
							<g>
								<polygon points="1276.87 739.51 1275.22 756.36 1290.32 763.17 1302.38 751.1 1293.77 736.11 1276.87 739.51" style="fill:#00487e;" />
								<path d="M1293.91,777.91c-.2-.11-12.33,6.25-12.33,6.25l10.32,10.48,8.72-2.76,6.24-11.84-12.96-2.13h.01Z" style="fill:#00487e;" />
								<path d="M1318.83,749.37c-.15,.17,3.25,13.44,3.25,13.44l12.57-7.63-.68-9.12-10.09-8.8-5.05,12.12h0Z" style="fill:#00487e;" />
								<polygon points="1289.78 715.64 1299.51 725.48 1313.44 726.65 1314.61 713.99 1301.69 710.11 1289.78 715.64" style="fill:#00487e;" />
								<path d="M1257.41,736.43l-2.29-11.22,8.45-7.81,10.84,1.17-6.43,11.32s-10.79,6.43-10.58,6.54h.01Z" style="fill:#00487e;" />
								<polygon points="1255.12 753.81 1264.16 762.74 1267.72 776.83 1253.95 776.67 1249.38 766.99 1255.12 753.81" style="fill:#00487e;" />
							</g>
						</g>
					</g>
				</g>
			</g>
		</g>
	</g>
	<g id="f">
		<path d="M518.72,303.16l-16.28,57.64,58.54-12.98s.06-9.58-.67-16.64c-.73-7.07-2.85-20.29-8.72-24.53-5.87-4.25-32.87-3.5-32.87-3.5h0Z" style="fill:#2e425b;" />
		<path d="M414.57,706.67l120.74,70.92-18.33,88.37s-18.75,152.21-21.37,175.76c-2.62,23.56-5.95,89.25-8.28,140.32-2.32,50.75-2.71,133.25-2.71,133.25,0,0-16.73,6.89-26.55,6.89-9.82,0-34.04,1.3-34.04,1.3,0,0-8.78-57.73-10.09-94.73-1.56-43.58,7.37-144.33,6.06-171.16-1.32-26.84-14.48-130.12-13-171.33,1.71-47.73,9.46-184.84,7.55-179.56h.01Z" style="fill:#c6a4c9;" />
		<path d="M508.65,819.28l64.68-97.59,54.78,43.46s14.71,108.9,12.4,140.9c-2.31,32-2.44,161.76-6.83,183.16-4.39,21.4-28.02,212.87-28.02,212.87,0,0-8.97,8.72-30.53,7.61-21.58-1.11-37.17-14.3-37.17-14.3,0,0,6.93-47.56,8.09-95.35,1.15-47.79,10.68-105.62,13.51-134.97,2.83-29.35,.7-51.74-13.18-100.3-13.88-48.56-37.72-145.48-37.72-145.48h0Z" style="fill:#c6a4c9;" />
		<g>
			<path d="M466.73,325.36l78.21-5.29,21.13,32.89s45.96,10.39,68.68,23.38c22.72,12.98,12.98,30.29,8.66,48.68-4.33,18.39-21.64,183.92-20.56,229.36,1.08,45.43,32.45,115.76,32.45,115.76,0,0-6.48,24.89-28.12,34.62s-86.6,43.95-139.61,20.16c-53.01-23.81-78.26-83.1-78.26-83.1,0,0-3.92-105.83-6.08-149.11-2.16-43.28-23.18-146.31-29.67-174.43-6.5-28.14,76.39-58.78,76.39-58.78l16.79-34.14h0Z" style="fill:#3b9bd2;" />
			<g style="clip-path:url(#g);">
				<path d="M444.46,355.13l11.92-52.94s94.09-1.72,95.14-1.38,19.72,43.94,19.72,43.94l-30.95,49.81-25.95-24.21-19.99,25.89-49.88-41.12h0Z" style="fill:#58b6e3;" />
			</g>
		</g>
		<path d="M425.97,485.51s-28.48,85.46-38.74,117.94c-10.26,32.48-23.36,43.31-41.6,42.74-18.24-.57-27.76,9.36-30.61-18.55-2.85-27.93,30.61-180.88,43.71-206.52,13.12-25.64,46.47-38.23,46.47-38.23l20.77,102.62Z" style="fill:#3b9bd2;" />
		<path d="M630.8,818.04s13.99,.55,24.41,.55c10.42,0,26.33,5.48,26.33,5.48l1.09,27.15s-1.71,22.07-3.56,25.23c-2.74,4.67-7.4,9.6-13.99,12.89-6.57,3.29-21.38,12.07-21.38,12.07l-21.67,1.38s-.27-4.39,2.2-8.78c2.47-4.39,10.14-9.04,11.52-15.9s3.02-29.89,.82-29.89-.82,21.11-3.29,27.7c-2.46,6.59-11.79,6.86-11.79,6.86,0,0,0-12.34,.27-18.93,.27-6.59-1.09-22.49,0-29.35,1.09-6.86,9.04-16.46,9.04-16.46h0Z" style="fill:#dfbe84;" />
		<g>
			<path d="M643.6,384.05l-23.93,9.12-5.12,157.84s13.34,51.38,15.05,82.72c1.71,31.34,7.32,122.33,8.46,132.59,1.14,10.26-9.58,53.24-9.58,53.24,0,0,17.01-1.89,33.39,3.31,14.06,4.46,22.16,7.61,22.16,7.61,0,0,8.6-41.84,12.01-87.99,3.43-46.15-7.4-141.3-13.67-182.9-6.26-41.59-16.52-154.41-38.74-175.49l-.03-.03Z" style="fill:#3b9bd2;" />
			<g style="clip-path:url(#h);">
				<path d="M724.81,870.24l-124.62-20.61s2.95-53.97,0-53.97,28.47-5.9,56.92-2.95,72.61,17.67,72.61,17.67l-4.91,59.85Z" style="fill:#58b6e3;" />
			</g>
		</g>
		<path d="M464.48,288.05l87.26,4.1s.75,46.39-6.18,53.7c-6.93,7.31-30.92,22.43-30.92,22.43,0,0-38.25-17.27-41.94-22.58-3.7-5.32-7.95-12.55-7.46-29.17,.49-16.62-.75-28.48-.75-28.48h0Z" style="fill:#dfbe84;" />
		<path d="M483.14,165.83c-31.03,3.94-49.55,30.79-50.15,48.37-.6,17.58,11.2,56.19,9.67,56.47s111.41-12.23,111.41-12.23c0,0,4.48-29.64-7.8-61.05-7.07-18.1-33.15-35.34-63.12-31.54h-.01Z" style="fill:#f08b27;" />
		<path d="M492.98,214.73c-12.23-4.24-25.02-12.02-35.7-8.46-10.68,3.58-10.95,19.27-8.78,35.9,2.17,16.62,2.73,47.83,9.03,63.45,6.3,15.63,14.44,31.37,29.08,38.19,14.65,6.81,23.86,14.87,44.3-.94,10.21-7.91,17.06-22.16,20.55-38.98,3.5-16.82,3.65-36.19,.52-54.33-6.26-36.28-31.54-25.28-58.99-34.8h-.01Z" style="fill:#dfbe84;" />
		<path d="M455.72,275.06l6.02,20.22s-5.99,5.65-9.87,7.95c-3.89,2.31-6.48,3.02-9.84-4.07-3.35-7.08-18.97-31.42-7.02-37.95,11.95-6.51,20.73,13.87,20.73,13.87h-.02Z" style="fill:#dfbe84;" />
		<path d="M546.68,250.31l.19,35.36s3.64,2.5,8.64,1.35,6.99-8.78,4.81-18.13,.84-22.4-4.42-25.05c-5.26-2.67-9.24,6.47-9.24,6.47h.01Z" style="fill:#dfbe84;" />
		<path d="M495.27,257.81l-1.74,6.6s-14.12-4.03-20.82-5.89c-6.69-1.86-11.7,1.81-11.7,1.81l-1.92-2.56s2.31-3.95,8.97-6.29c6.66-2.34,27.18,6.33,27.18,6.33h.02Z" style="fill:#5b3346;" />
		<path d="M513.3,255.04l3.01,4.75s7.2-4.67,14.12-9.63c6.92-4.96,13.79-.48,13.79-.48l-.09-3.92s-6.48-3.01-13.43-2.38c-6.95,.64-17.39,11.68-17.39,11.68h-.01Z" style="fill:#5b3346;" />
		<polygon points="492.13 264.67 473.12 264.18 473.14 268.58 492.25 267.02 492.13 264.67" style="fill:#5b3346;" />
		<polygon points="538.21 251.94 521.54 258.62 522.24 260.97 540.33 256.13 538.21 251.94" style="fill:#5b3346;" />
		<path d="M530.49,257.32c-3.2,.39-4.91,3.08-4.51,5.29,.57,3.11,2.7,4.87,5.96,4.27,2.77-.51,4.6-1.99,4.34-5.05s-2.7-4.88-5.8-4.51h0Z" style="fill:#5b3346;" />
		<path d="M482.26,265.28c-3.2,.39-4.91,3.08-4.51,5.29,.57,3.11,2.7,4.87,5.96,4.27,2.77-.51,4.6-1.99,4.34-5.05s-2.7-4.88-5.8-4.51h0Z" style="fill:#5b3346;" />
		<g>
			<path d="M518.18,408.04c-1.89-.12-3.16,1.24-3.16,2.55,0,1.84,1.02,3.08,2.97,3.08,1.63,0,2.85-.64,3.02-2.43s-1.02-3.08-2.85-3.2h.01Z" style="fill:#75c6cf;" />
			<path d="M527.12,470.56c-1.89-.12-3.16,1.24-3.16,2.55,0,1.84,1.02,3.08,2.97,3.08,1.63,0,2.85-.64,3.02-2.43s-1.02-3.08-2.85-3.2h.01Z" style="fill:#75c6cf;" />
			<path d="M527.06,525.76c-1.89-.12-3.16,1.24-3.16,2.55,0,1.84,1.02,3.08,2.97,3.08,1.63,0,2.85-.64,3.02-2.43s-1.02-3.08-2.85-3.2h.01Z" style="fill:#75c6cf;" />
			<path d="M529.85,580.31c-1.89-.12-3.16,1.24-3.16,2.55,0,1.84,1.02,3.08,2.97,3.08,3.76,.01,3.08-3.01,3.02-2.43,.18-1.78-1.02-3.08-2.85-3.2h.01Z" style="fill:#75c6cf;" />
			<path d="M530.12,642.08c-1.89-.12-3.16,1.24-3.16,2.55,0,1.84,1.02,3.08,2.97,3.08,3.76,.01,3.08-3.01,3.02-2.43,.18-1.78-1.02-3.08-2.85-3.2h.01Z" style="fill:#75c6cf;" />
			<path d="M529.27,702.54c-1.89-.12-3.16,1.24-3.16,2.55,0,1.84,1.02,3.08,2.97,3.08,3.76,.01,3.08-3.01,3.02-2.43,.18-1.78-1.02-3.08-2.85-3.2h.01Z" style="fill:#75c6cf;" />
		</g>
		<polygon points="498.75 829.59 530.51 764.28 538.55 845.76 498.75 829.59" style="fill:#c6a4c9;" />
		<g>
			<path d="M426.76,635.78c-32.74,22.76-75.91,33.06-96.62,30.26-28.02-3.79-12.35-66.71-12.35-66.71,0,0,36.52-5.35,57.25-11.31,20.73-5.96,83.5-27.85,83.5-27.85l24.12,40.58s-23.17,12.26-55.9,35.03Z" style="fill:#3b9bd2;" />
			<g style="clip-path:url(#i);">
				<path d="M431.4,548.37s48.07-32.38,45.13-32.38,53.97,75.55,54.96,78.5-55.93,42.2-55.93,42.2c0,0-18.64-33.38-27.48-49.07-8.84-15.69-16.68-39.25-16.68-39.25h0Z" style="fill:#58b6e3;" />
			</g>
		</g>
		<path d="M532.4,312.98c-.24-2.4-8.37-3.52-13.36-3.01-4.99,.52-5.53,3.05-5.53,3.05,0,0-3.31-1.42-5.38-1.65s-16.19,3.61-15.42,5.5c.75,1.89,4.63,2.94,9.13,4.4,4.15,1.35,7.77,2.43,12.7,1.71,4.51-.66,8.3-3.55,11.4-5.36,3.98-2.32,6.69-2.25,6.45-4.64h0Z" style="fill:#d88b46;" />
		<path d="M425.61,486.34s-28.48,85.46-38.74,117.94-23.36,43.32-41.6,42.74c-18.24-.58-26.79-.58-29.64-28.5-2.85-27.91,29.64-170.94,42.74-196.58,13.12-25.64,29.64-24.5,29.64-24.5l37.6,88.89Z" style="fill:#3b9bd2;" />
		<path d="M536.83,346.18s11.29-10.62,16.61-20.14c5.32-9.52-1.33-18.75-1.33-18.75,0,0,3.79,3.98,6.54,8.01s4.78,29.37,4.78,29.37c0,0,69.53,26.61,79.05,31.93,9.52,5.3-4.84,136.98,.09,168.15,4.93,31.18,10.78,81.7,19.66,131.99,8.88,50.29,27.19,119.84,27.19,119.84,0,0-25.34,1.93-57.26,5.18-31.93,3.25-55.45,5.05-55.45,5.05l-.78-24.83-19.54-1.47s3.04-68.24,1.11-92.37c-1.93-24.14-10.63-110.25-20.02-144.1-9.39-33.84-17.45-158.32-17.45-158.32l13.82-8.34,2.97-31.19,.02-.02Z" style="fill:#2e425b;" />
		<polygon points="655.74 474.5 590.23 497.95 574.03 462.2 649.59 435.52 655.74 474.5" style="fill:#283a50;" />
		<path d="M622.33,679.33l52.49-34.55s10.45,47.13,15.54,72.82c5.09,25.7-4.72,58.52-4.72,58.52,0,0-17.79,1.56-31.16,1.41s-19.69-3.29-21.71-13.45c-2.02-10.15-10.42-84.76-10.42-84.76h-.01Z" style="fill:#283a50;" />
		<polygon points="677.07 634.88 604.6 641.48 612.45 686.39 683.61 678.67 677.07 634.88" style="fill:#283a50;" />
		<path d="M628.35,666.19c-4.66,.16-7.08,4.12-6.12,7.19s2.32,6.02,7.34,5.41c4.72-.57,5.53-4.49,5.33-6.92s-2.5-5.83-6.54-5.68h0Z" style="fill:#c4c7c9;" />
		<path d="M597.13,477.49c-4.12,.15-6.26,3.65-5.42,6.36,.84,2.71,2.04,5.32,6.48,4.78,4.18-.51,4.9-3.98,4.72-6.12s-2.22-5.15-5.8-5.02h.01Z" style="fill:#c4c7c9;" />
		<path d="M480.61,582.77c.7,3.07,1.8,6.06,6.75,5.86,4.66-.19,5.75-3.97,5.75-6.35s-1.99-5.87-5.96-6.05c-4.55-.21-7.23,3.47-6.54,6.54Z" style="fill:#c4c7c9;" />
		<path d="M448.18,665.13c.7,3.07,1.8,6.06,6.75,5.86,4.66-.19,5.75-3.97,5.75-6.35s-1.99-5.87-5.96-6.05c-4.55-.21-7.25,3.47-6.54,6.54Z" style="fill:#c4c7c9;" />
		<path d="M643.08,460.41c-3.13,.76-3.95,4.48-2.68,6.99,1.29,2.5,2.82,4.85,6.09,3.65,3.08-1.14,2.83-4.61,2.2-6.66-.63-2.05-2.89-4.67-5.62-4h0Z" style="fill:#c4c7c9;" />
		<path d="M687.97,536.97c-34.98-7.88-42.14,118.56-41.97,145.41,.18,26.84-17.9,124.71-17.9,124.71,0,0,15.53,.88,29.73,4.88,14.81,4.16,32.26,12.26,32.26,12.26,0,0,24.65-101.13,21.55-175.19-1.11-26.43-2.34-107.3-23.63-112.09h-.03Z" style="fill:#2e425b;" />
		<path d="M645.67,378.55c-14.08-9.64-36.6-9.18-37.71-2.08-1.11,7.1,10.45,59.36,18.75,100.62,8.3,41.27,.81,116.55,6.53,137.37,5.72,20.8,18.81,29.34,32.99,30.37,14.18,1.03,43.76,14.97,44.03,3.16,.27-11.82,1.62-43.29-1.03-70.83-2.65-27.54-30.65-176.05-63.58-198.6h.03Z" style="fill:#2e425b;" />
		<path d="M466.03,340.19c-.78-5.92-1.05-13.96-2.29-13.75-3.13,.52-14.21,29.4-14.21,29.4,0,0-13.88,5.74-30.08,14.68-16.2,8.94-40.94,20.7-52.07,33.53-11.13,12.83,15.74,91.48,27.42,138.68,11.67,47.2,15.86,99.84,3.7,120.23-12.53,20.99-47.56,110.96-47.56,110.96l56.2,35.31s87.96-186.53,96.23-222.83c8.25-36.3,3.44-184.9,3.44-184.9l-12.02-28.38s-6.87-7.91-17.3-15.83c-6.93-5.27-10.41-9.16-11.46-17.09v-.03Z" style="fill:#2e425b;" />
		<path d="M467.43,486.51s-16.65-8.13-37.69-13.07c-21.05-4.94-47.86-11.47-47.86-11.47,0,0-7.61,41.18-8.33,41.02s14.87,4.07,26.7,5.38c11.82,1.3,54.6,16.26,54.6,16.26l12.56-38.11h.02Z" style="fill:#283a50;" />
		<path d="M368.27,402.42c-10.44,8.7-32.97,76.04-39.2,105.48-6.68,31.55-26.4,109-13.96,146.25,12.74,38.16,68.45,8.55,68.45,8.55,0,0-1.21-36.73,2.55-49.91,3.95-13.87,23.36-73.24,20.73-79.85-13.39-33.5-10.99-153.48-38.58-130.52h.02Z" style="fill:#2e425b;" />
		<path d="M445.45,502.23c-4.12,.19-6.23,3.7-5.36,6.41s2.1,5.32,6.53,4.73c4.18-.55,4.87-4.03,4.67-6.17-.18-2.14-2.25-5.14-5.83-4.97h-.01Z" style="fill:#c4c7c9;" />
		<path d="M486.12,575.49c-3.68,.16-5.57,3.29-4.79,5.71s1.87,4.73,5.83,4.21c3.73-.49,4.33-3.59,4.16-5.5-.16-1.92-2.01-4.58-5.2-4.43h0Z" style="fill:#c4c7c9;" />
		<path d="M458.19,651.5c-3.68,.16-5.57,3.29-4.79,5.71s1.87,4.73,5.83,4.21c3.73-.49,4.33-3.59,4.16-5.5-.16-1.92-2.01-4.58-5.2-4.43h0Z" style="fill:#c4c7c9;" />
		<polygon points="489.22 381.65 459.63 411.24 458.96 425.38 476.45 424.71 498.64 402.5 489.22 381.65" style="fill:#283a50;" />
		<path d="M484.49,396.13c-3.01,.13-4.55,2.7-3.92,4.67,.63,1.98,1.51,3.86,4.76,3.44,3.05-.4,3.55-2.95,3.41-4.51s-1.63-3.74-4.25-3.62v.02Z" style="fill:#c4c7c9;" />
		<path d="M469.65,407.49c-3.01,.13-4.55,2.7-3.92,4.67,.63,1.98,1.51,3.86,4.76,3.44,3.05-.4,3.55-2.95,3.41-4.51s-1.63-3.74-4.25-3.62v.02Z" style="fill:#c4c7c9;" />
		<path d="M407.19,589.16l15.11,36.63c.39,.91,1.41,1.26,2.26,.75,0,0,53.49-30.82,60.24-33.05,6.75-2.25,20.74-5.83,28.99-10.57,8.24-4.75,21.25-14.35,22.78-15.74,1.51-1.39,2.02-3.08,2.55-4.22s.01-3.13-1.15-4.78c-1.17-1.63-3.49-.67-4.09-1.77-.6-1.11,4.12-4.51,4.84-6.32,.73-1.81-1.53-5.99-3.8-7.04s-4.34,.93-2.28-1.05c2.07-1.98,3.29-5.48,1.41-8.45s-3.71-3.68-6.48-3.04c-2.77,.64-4.84,2.61-5.44,1.51-.6-1.11,18.24-11.43,21.41-13.43,3.17-2.01,4.52-2.16,10.24-5.26,5.72-3.1,7.04-3.82,4.52-9s-16.4,1.77-21.02,4.27c-4.63,2.5-32.3,16.47-36.6,18.51s-13.24-.4-16.76,1.11c-5.32,2.29-10.29,10.96-12.58,16.19-2.29,5.23-6.6,10.41-9.58,15.42s-53.61,26.91-53.61,26.91c-.91,.39-1.35,1.45-.97,2.38l.02,.03Z" style="fill:#dfbe84;" />
		<path d="M358.28,755.07l29.77-71.43,24.02,8.94s-19.5,45.93-26.18,59.88c-6.68,13.96-12.02,11.01-17.19,8.85-7.28-3.04-10.42-6.26-10.42-6.26v.02Z" style="fill:#283a50;" />
		<polygon points="402.46 642.55 431.18 654.98 416.26 697.99 385.9 683.61 402.46 642.55" style="fill:#283a50;" />
		<path d="M403.58,673.59c4.19,1.03,5.84,5.56,4.55,8.54s-2.94,5.78-7.4,4.21c-4.21-1.47-4.39-5.66-3.88-8.12s3.07-5.53,6.72-4.63h0Z" style="fill:#c4c7c9;" />
		<path d="M338.3,599.09c-19.78,8.13-26.54,18.78-16.05,51.39,5.3,16.52,31.82,22.09,50.11,17.06,18.27-5.03,22.45-11.61,47.71-21.28,25.26-9.69,68.57-42.48,68.57-42.48l-37.02-46.12s-27.37,5.3-50.97,18.21c-23.6,12.91-46.69,16.79-62.36,23.23h.01Z" style="fill:#2e425b;" />
	</g>
</svg>
