<?xml version="1.0" encoding="UTF-8"?><svg id="a" xmlns="http://www.w3.org/2000/svg" xmlns:xlink="http://www.w3.org/1999/xlink" viewBox="0 0 1920 1080"><defs><style>.s{fill:none;}.t{fill:#f4a019;}.u{fill:#f8b350;}.v{fill:#f2f5f9;}.w{fill:#fabd43;}.x{fill:#00658d;}.y{fill:#0077be;}.a`{fill:#006443;}.aa{fill:#007581;}.ab{fill:#00814c;}.ac{fill:#0090cb;}.ad{fill:#007bc2;}.ae{fill:#eee5c6;}.af{fill:#f09393;}.ag{fill:#ed774c;}.ah{fill:#ed7a30;}.ai{fill:#eaba00;}.aj{fill:#f6bcc8;}.ak{fill:#fdd900;}.al{fill:#e95e2b;}.am{fill:#ef8227;}.an{fill:#e6418d;}.ao{fill:#e9b800;}.ap{fill:#f39843;}.aq{fill:#f0f4f8;}.ar{fill:#f1f1f3;}.as{fill:#ffd628;}.at{fill:#ffd500;}.au{fill:#fbf9f7;}.av{fill:#fbf8f6;}.aw{fill:#e8523b;}.ax{fill:#ee7f00;}.ay{fill:#fcf6e7;}.b`{fill:#e7474c;}.ba{fill:#6b9e6a;}.bb{fill:#009e63;}.bc{fill:#940c3b;}.bd{fill:#93a090;}.be{fill:#9e6c30;}.bf{fill:#a0c443;}.bg{fill:#a19a9e;}.bh{fill:#8cbb15;}.bi{fill:#cda67b;}.bj{fill:#aa8d42;}.bk{fill:#aea7ab;}.bl{fill:#d8abcc;}.bm{fill:#a6cbce;}.bn{fill:#d9e3e9;}.bo{fill:#deb4d2;}.bp{fill:#c59bc1;}.bq{fill:#d7007a;}.br{fill:#db9823;}.bs{fill:#d55998;}.bt{fill:#c695bf;}.bu{fill:#e42625;}.bv{fill:#ca332e;}.bw{fill:#23a4a6;}.bx{fill:#3fa25a;}.by{fill:#444851;}.c`{fill:#1c3628;}.ca{fill:#a44053;}.cb{fill:#a40872;}.cc{fill:#8a4967;}.cd{fill:#554b51;}.ce{fill:#352e50;}.cf{fill:#272a3e;}.cg{fill:#5a5099;}.ch{fill:#5a7a3e;}.ci{fill:#847052;}.cj{fill:#4a9055;}.ck{clip-path:url(#c);}.cl{clip-path:url(#f);}.cm{clip-path:url(#e);}.cn{clip-path:url(#d);}.co{clip-path:url(#n);}.cp{clip-path:url(#m);}.cq{clip-path:url(#l);}.cr{clip-path:url(#k);}.cs{clip-path:url(#j);}.ct{clip-path:url(#i);}.cu{clip-path:url(#h);}.cv{clip-path:url(#g);}.cw{clip-path:url(#r);}.cx{clip-path:url(#q);}.cy{clip-path:url(#p);}.d`{clip-path:url(#o);}</style><clipPath id="c"><rect width="1920" height="1080" style="fill:none;"/></clipPath><clipPath id="d"><path d="M238.07,154.67c-1.29,13.31-11.23,22.28-12.24,47.46-1.29,32.24-1.7,77.73-1.7,77.73l44.85,1.09s.3-46.75-1.34-76.99c-1.32-24.37-11.49-31.39-13.96-47.94-1.96-13.18-2.87-25.68-2.87-25.68l-10.67,.57s-.82,10.84-2.07,23.76h0Z" style="fill:none;"/></clipPath><clipPath id="e"><path d="M288.05,155.28c-1.29,13.31-11.23,22.28-12.24,47.46-1.29,32.24-2.12,77.73-2.12,77.73l44.85,1.09s.72-46.75-.92-76.99c-1.32-24.37-11.49-31.39-13.96-47.94-1.96-13.18-2.87-25.68-2.87-25.68l-10.67,.57s-.82,10.84-2.07,23.76h0Z" style="fill:none;"/></clipPath><clipPath id="f"><path d="M372.45,148.14c-1.3,13.43-11.33,22.47-12.34,47.86-1.3,32.51-2.14,78.39-2.14,78.39l45.23,1.09s.72-47.14-.93-77.65c-1.33-24.58-11.59-31.65-14.07-48.34-1.98-13.29-2.9-25.9-2.9-25.9l-10.76,.58s-.83,10.94-2.09,23.96h0Z" style="fill:none;"/></clipPath><clipPath id="g"><polygon points="1637.39 453.31 1636.97 337.72 1485.37 337.31 1485.37 452.48 1637.39 453.31" style="fill:none;"/></clipPath><clipPath id="h"><rect x="-330.3" y="377.73" width="1250.85" height="733.79" style="fill:none;"/></clipPath><clipPath id="i"><polygon points="381.96 337.42 400.96 378.93 497.75 378.93 518.56 337.97 381.96 337.42" style="fill:none;"/></clipPath><clipPath id="j"><path d="M274.13,486.01s-2.75-16.52-1.65-22.57c1.1-6.06,6.61-13.21,18.72-14.31,12.11-1.1,23.87,4.33,24.22,12.11,.55,12.11-2.75,29.18-2.75,29.18l-38.54-4.41h0Z" style="fill:none;"/></clipPath><clipPath id="k"><path d="M214.47,487.09s-2.75-16.52-1.65-22.57c1.1-6.06,6.61-13.21,18.72-14.31s23.87,4.33,24.22,12.11c.55,12.11-2.75,29.18-2.75,29.18l-38.54-4.41h0Z" style="fill:none;"/></clipPath><clipPath id="l"><path d="M339.22,487.85s-2.75-16.52-1.65-22.57c1.1-6.06,6.61-13.21,18.72-14.31,12.11-1.1,23.87,4.33,24.22,12.11,.55,12.11-2.75,29.18-2.75,29.18l-38.54-4.41h0Z" style="fill:none;"/></clipPath><clipPath id="m"><path d="M391.73,486.93s-2.75-16.52-1.65-22.57c1.1-6.06,6.61-13.21,18.72-14.31,12.11-1.1,23.87,4.33,24.22,12.11,.55,12.11-2.75,29.18-2.75,29.18l-38.54-4.41h0Z" style="fill:none;"/></clipPath><clipPath id="n"><path d="M439.64,486.01s-2.75-16.52-1.65-22.57c1.1-6.06,6.61-13.21,18.72-14.31,12.11-1.1,23.87,4.33,24.22,12.11,.55,12.11-2.75,29.18-2.75,29.18l-38.54-4.41h0Z" style="fill:none;"/></clipPath><clipPath id="o"><polygon points="1303.75 92.96 1304.54 231.87 1409.41 231.45 1410.19 91.3 1303.75 92.96" style="fill:none;"/></clipPath><clipPath id="p"><polygon points="1446.28 92.45 1447.06 231.37 1551.94 230.95 1552.72 90.79 1446.28 92.45" style="fill:none;"/></clipPath><clipPath id="q"><path d="M1177.21,285.49c-3.12,3.29-5.71,10.94-5.71,10.94,0,0-20.42,6.39-34.52,13.56-9.17,4.67-19.83,10.77-23.39,16.32-10.37,16.18,22.98,116.03,24.56,144.68,1.58,28.65-2.2,117.04-2.2,117.04,0,0,36.76,19.92,77.7,11.3,45.3-9.54,61.82-23.93,77.64-30.38,15.82-6.45,28.76-17.61,28.76-17.61,0,0-39.05-107.75-39.84-137.83-.79-30.08,13.91-60.14,17.07-72.32,3.16-12.18,1.77-27.43-14.83-36.03-16.61-8.59-42.59-14.17-42.59-14.17,0,0-2.87-6.91-6.12-9.81-3.25-2.89-53.39,1.01-56.52,4.3h-.01Z" style="fill:none;"/></clipPath><clipPath id="r"><path d="M1152.69,369.27l1.52,21.46,47.07-5.24-2.27-20.4c-.63-.06-46.32,4.17-46.32,4.17h0Z" style="fill:none;"/></clipPath></defs><g id="b"><g style="clip-path:url(#c);"><g><rect x="-245.49" y="-150.32" width="2454.94" height="1353.69" style="fill:#d9e3e9;"/><g><g><path d="M238.07,154.67c-1.29,13.31-11.23,22.28-12.24,47.46-1.29,32.24-1.7,77.73-1.7,77.73l44.85,1.09s.3-46.75-1.34-76.99c-1.32-24.37-11.49-31.39-13.96-47.94-1.96-13.18-2.87-25.68-2.87-25.68l-10.67,.57s-.82,10.84-2.07,23.76h0Z" style="fill:#ed774c;"/><g style="clip-path:url(#d);"><path d="M214.82,201.43l68.41-2.12,3.84,49.79-82.86,2.71s11.14-50.38,10.61-50.38h0Z" style="fill:#d55998;"/></g></g><path d="M238.65,143.98l.12-12.96c.02-1.45,1.18-2.62,2.63-2.66l7.92-.2c1.49-.04,2.73,1.14,2.77,2.64l.19,13.03-13.62,.15h-.01Z" style="fill:#a40872;"/></g><g><g><path d="M288.05,155.28c-1.29,13.31-11.23,22.28-12.24,47.46-1.29,32.24-2.12,77.73-2.12,77.73l44.85,1.09s.72-46.75-.92-76.99c-1.32-24.37-11.49-31.39-13.96-47.94-1.96-13.18-2.87-25.68-2.87-25.68l-10.67,.57s-.82,10.84-2.07,23.76h0Z" style="fill:#a44053;"/><g style="clip-path:url(#e);"><path d="M267.34,202.24l63.77-1.98,1.48,49.93-75.14-.99s10.38-46.96,9.89-46.96h0Z" style="fill:#8a4967;"/></g></g><g><path d="M372.45,148.14c-1.3,13.43-11.33,22.47-12.34,47.86-1.3,32.51-2.14,78.39-2.14,78.39l45.23,1.09s.72-47.14-.93-77.65c-1.33-24.58-11.59-31.65-14.07-48.34-1.98-13.29-2.9-25.9-2.9-25.9l-10.76,.58s-.83,10.94-2.09,23.96h0Z" style="fill:#847052;"/><g style="clip-path:url(#f);"><path d="M348.27,195.38l68.99-2.14,1.6,54.02-81.29-1.07s11.23-50.81,10.7-50.81Z" style="fill:#0090cb;"/></g></g><path d="M288.63,144.59l.12-12.96c.02-1.45,1.18-2.62,2.63-2.66l7.92-.2c1.49-.04,2.73,1.14,2.77,2.64l.19,13.03-13.62,.15h-.01Z" style="fill:#e9b800;"/><path d="M373.03,132.4l.12-13.07c.02-1.46,1.19-2.64,2.65-2.68l7.99-.2c1.51-.04,2.76,1.15,2.79,2.66l.19,13.15-13.74,.15h0Z" style="fill:#ca332e;"/></g><polygon points="-356.74 277 2139.04 276.63 2157.49 298.47 -374.73 297.6 -356.74 277" style="fill:#f2f5f9;"/><polygon points="1549.21 429.46 1549.57 620.09 1568.33 619.2 1568.33 433.75 1549.21 429.46" style="fill:#554b51;"/><g><polygon points="1655.18 469.25 1654.68 321.88 1470.45 321.36 1470.45 468.21 1655.18 469.25" style="fill:#554b51;"/><g><polygon points="1637.39 453.31 1636.97 337.72 1485.37 337.31 1485.37 452.48 1637.39 453.31" style="fill:#00658d;"/><g style="clip-path:url(#g);"><g><polygon points="1560.84 405.88 1560.84 434.9 1509.32 435.91 1508.95 405.55 1560.84 405.88" style="fill:#007581;"/><polygon points="1650.92 356.75 1653.02 418.86 1572.43 419.19 1572.48 354.63 1650.92 356.75" style="fill:#5a5099;"/></g></g></g></g><g><polygon points="1411.31 483.16 1410.05 586.09 1391.29 585.2 1392.18 487.45 1411.31 483.16" style="fill:#554b51;"/><g><polygon points="1427.28 434.82 1432.43 453.46 1395.35 505.81 1369.78 504.62 1363.63 492.72 1397.93 434.82 1427.28 434.82" style="fill:#554b51;"/><polygon points="1408.24 455.05 1400.91 468.13 1380.68 467.74 1389.01 453.86 1408.24 455.05" style="fill:#fcf6e7;"/><polygon points="1389.74 490.47 1388.2 493.83 1382.68 493.83 1384.09 489.86 1389.74 490.47" style="fill:#e42625;"/><polygon points="1381.61 490.26 1379.45 494.23 1374.34 493.96 1375.89 489.86 1381.61 490.26" style="fill:#ffd628;"/><polygon points="1373.54 489.79 1371.59 493.49 1367.15 491.81 1367.95 489.39 1373.54 489.79" style="fill:#3fa25a;"/><polygon points="1397.14 474.93 1395.59 477.62 1390.62 477.42 1391.76 474.6 1397.14 474.93" style="fill:#352e50;"/><polygon points="1389.47 474.46 1387.93 477.15 1382.95 476.95 1384.09 474.13 1389.47 474.46" style="fill:#352e50;"/><polygon points="1381.47 474.26 1379.92 476.95 1374.95 476.75 1376.09 473.92 1381.47 474.26" style="fill:#352e50;"/><polygon points="1378.71 479.5 1377.17 482.19 1372.19 481.99 1373.33 479.17 1378.71 479.5" style="fill:#352e50;"/><polygon points="1376.39 484.75 1374.84 487.44 1369.86 487.23 1371.01 484.41 1376.39 484.75" style="fill:#352e50;"/><polygon points="1394.72 480.11 1393.17 482.8 1388.2 482.6 1389.34 479.77 1394.72 480.11" style="fill:#352e50;"/><polygon points="1391.96 485.76 1390.41 488.45 1385.44 488.25 1386.58 485.42 1391.96 485.76" style="fill:#352e50;"/><polygon points="1386.45 479.91 1384.9 482.6 1379.92 482.4 1381.07 479.57 1386.45 479.91" style="fill:#352e50;"/><polygon points="1383.69 485.56 1382.14 488.25 1377.17 488.05 1378.31 485.22 1383.69 485.56" style="fill:#352e50;"/><polygon points="1424.3 473.69 1420.14 464.96 1403.48 485.19 1408.24 495.5 1413.4 488.56 1412.01 484.79 1418.36 477.26 1419.74 480.23 1424.3 473.69" style="fill:#a19a9e;"/></g></g><polygon points="594.73 562.26 2202.55 555.73 2213.43 1028.17 588.2 1012.93 594.73 562.26" style="fill:#f0f4f8;"/><polygon points="824.62 586.42 2381.44 579.89 2392.33 1052.33 818.08 1037.09 824.62 586.42" style="fill:#23a4a6;"/><polygon points="807.72 808.29 2364.55 801.76 2375.43 1274.2 801.19 1258.96 807.72 808.29" style="fill:#009e63;"/><g><rect x="-330.3" y="377.73" width="1250.85" height="733.79" style="fill:#f0f4f8;"/><g style="clip-path:url(#h);"><g><rect x="543.69" y="403.76" width="352.59" height="733.79" style="fill:#a6cbce;"/><rect x="159.93" y="404.72" width="352.59" height="733.79" style="fill:#a6cbce;"/><rect x="-50.02" y="505.87" width="960.82" height="18.66" style="fill:#f2f5f9;"/><rect x="-481.11" y="739.47" width="1410.36" height="262.97" style="fill:#f0f4f8;"/></g></g></g><rect x="-345.84" y="876.74" width="2661.47" height="733.79" style="fill:#eee5c6;"/><g><path d="M784.19,683.62c-7.24,1.26-25.28,13.49-21.97,31.11,3.33,17.65,14.28,25.11,29.43,23.61,13.62-1.31,34.18-14.74,29.12-34.46-5.07-19.75-25.71-22.2-36.58-20.26" style="fill:#ef8227;"/><polyline points="789.98 686.35 788.37 689.83 789.02 692.6 785.42 692.6 781.81 693.62 781.9 690.66 780.7 688.26 783.38 687.71 785.32 685.58 786.71 686.87 789.98 686.35" style="fill:#00814c;"/></g><g><path d="M708.01,637.38c-6.95-2.39-28.65-.41-34.27,16.62-5.61,17.06,.37,28.88,14.35,34.89,12.55,5.43,37.04,3.61,42.15-16.09,5.1-19.74-11.78-31.87-22.23-35.42" style="fill:#ffd500;"/><polyline points="711.77 642.57 708.68 644.84 707.91 647.58 704.75 645.84 701.1 644.98 702.61 642.44 702.72 639.76 705.34 640.57 708.06 639.64 708.65 641.44 711.77 642.57" style="fill:#00814c;"/></g><g><path d="M745.71,686.15c-6.16-4.01-27.7-7.34-37.28,7.82-9.58,15.19-6.64,28.11,5.47,37.33,10.86,8.31,35.06,12.48,44.79-5.4,9.73-17.92-3.71-33.77-12.99-39.75" style="fill:#ffd500;"/><polyline points="750.35 691.64 746.8 693.1 745.38 695.57 742.74 693.12 739.41 691.41 741.49 689.3 742.25 686.73 744.59 688.15 747.45 687.9 747.59 689.8 750.35 691.64" style="fill:#00814c;"/></g><g><path d="M679.84,686.05c-6.16-4.01-27.7-7.34-37.28,7.82-9.58,15.19-6.64,28.11,5.47,37.33,10.86,8.31,35.06,12.48,44.79-5.4,9.73-17.92-3.71-33.77-12.99-39.75" style="fill:#ffd500;"/><polyline points="682.23 691.99 678.67 693.45 677.26 695.92 674.62 693.47 671.29 691.76 673.37 689.65 674.13 687.08 676.47 688.5 679.33 688.25 679.47 690.15 682.23 691.99" style="fill:#00814c;"/></g><g><path d="M601.74,686.51c-6.16-4.01-27.7-7.34-37.28,7.82-9.58,15.19-6.64,28.11,5.47,37.33,10.86,8.31,35.06,12.48,44.79-5.4,9.73-17.92-3.71-33.77-12.99-39.75" style="fill:#f39843;"/><polyline points="604.13 692.45 600.58 693.91 599.16 696.38 596.52 693.93 593.19 692.22 595.27 690.11 596.03 687.54 598.37 688.95 601.23 688.71 601.37 690.61 604.13 692.45" style="fill:#00814c;"/></g><g><path d="M617.85,658.18c5.1-3.31,22.91-6.07,30.84,6.47,7.92,12.57,5.49,23.25-4.53,30.88-8.99,6.88-29,10.32-37.05-4.47-8.05-14.82,3.07-27.94,10.75-32.88" style="fill:#ed7a30;"/><polyline points="615.87 663.09 618.81 664.3 619.98 666.34 622.16 664.31 624.92 662.9 623.2 661.16 622.57 659.02 620.64 660.2 618.27 660 618.15 661.57 615.87 663.09" style="fill:#006443;"/></g><g><path d="M576.38,467.5s1.95-6.47,1.32-11.62c-.81-6.77-3.68-10.09-3.68-10.09l-3.44,2.9s4.17,2.47,4.95,7.74c.66,4.45-1.69,9.99-1.69,9.99l-1.45,3.98,3.98-2.9h.01Z" style="fill:#444851;"/><path d="M575.64,461.67c-5.32-.59-14.36-5.11-20.6,1.17-6.23,6.26-5.86,32.09,9.47,41.48,4.32,2.64,7.91-.51,10.99-.46,4.02,.07,5.64,3.03,10.98,1.34,11.98-3.79,18.73-32.97,11.18-41.11-7.21-7.77-14.95-1.64-22.03-2.42" style="fill:#e95e2b;"/></g><g><path d="M662.7,467.39s1.95-6.47,1.32-11.62c-.81-6.77-3.68-10.09-3.68-10.09l-3.44,2.9s4.17,2.47,4.95,7.74c.66,4.45-1.69,9.99-1.69,9.99l-1.45,3.98,3.98-2.9h.01Z" style="fill:#444851;"/><path d="M661.95,461.55c-5.32-.59-14.36-5.11-20.6,1.17-6.23,6.26-5.86,32.09,9.47,41.48,4.32,2.64,7.91-.51,10.99-.46,4.02,.07,5.64,3.03,10.98,1.34,11.98-3.79,18.73-32.97,11.18-41.11-7.21-7.77-14.95-1.64-22.03-2.42" style="fill:#4a9055;"/></g><g><path d="M610.38,439.32s-4.98-4.56-7.07-9.31c-2.76-6.24-2-10.56-2-10.56l4.43,.73s-2.32,4.25-.3,9.18c1.71,4.16,6.56,7.73,6.56,7.73l3.28,2.68-4.9-.46h0Z" style="fill:#444851;"/><path d="M608.04,433.92c4.27-3.22,9.73-11.73,18.3-9.51,8.56,2.19,21.43,24.6,13.04,40.5-2.36,4.48-7.06,3.6-9.68,5.21-3.42,2.12-3.3,5.49-8.76,6.77-12.24,2.86-32.95-18.78-30.61-29.63,2.23-10.36,12.02-9.05,17.7-13.33" style="fill:#8cbb15;"/></g><path d="M460.04,327.62c4.65,3.89,6.25,13.89-.7,17.93-7.95,4.63-19.46,7.32-28.5-.63-8.52-7.5-1.39-16.55,5.56-18.95,6.95-2.4,18.94-2.27,23.63,1.65" style="fill:#f4a019;"/><path d="M512.78,331.48c1.83,8.5-5.19,21.22-16.61,19.65-13.07-1.78-28.46-8.89-31.66-25.84-3.01-15.99,13.03-19.93,23-16.52,9.97,3.42,23.42,14.14,25.26,22.71" style="fill:#f8b350;"/><path d="M430,318.8c5.3,2.95,8.73,12.49,2.65,17.75-6.95,6.03-17.76,10.82-28.12,4.69-9.76-5.79-4.44-16,1.94-19.65s18.19-5.76,23.53-2.78" style="fill:#db9823;"/><g><polygon points="381.96 337.42 400.96 378.93 497.75 378.93 518.56 337.97 381.96 337.42" style="fill:#deb4d2;"/><g style="clip-path:url(#i);"><polygon points="377.69 348.91 524.04 349.57 527.21 307.58 371.99 306.25 377.69 348.91" style="fill:#c695bf;"/></g></g><g><g><path d="M274.13,486.01s-2.75-16.52-1.65-22.57c1.1-6.06,6.61-13.21,18.72-14.31,12.11-1.1,23.87,4.33,24.22,12.11,.55,12.11-2.75,29.18-2.75,29.18l-38.54-4.41h0Z" style="fill:#f6bcc8;"/><g style="clip-path:url(#j);"><polygon points="265.32 465.09 330.84 467.84 324.23 435.36 260.92 427.65 265.32 465.09" style="fill:#d7007a;"/></g></g><polygon points="266.43 479.13 278.26 503.35 309.92 503.9 319.83 477.47 266.43 479.13" style="fill:#fcf6e7;"/><path d="M298.02,443.38c2.36,1.86,3.07,5.48,.44,8.5s-6.42,2.33-8.69,.03c-1.98-2-2.92-5.36-.28-8.37,2.63-3.02,5.7-2.39,8.53-.16Z" style="fill:#ffd500;"/></g><g><g><path d="M214.47,487.09s-2.75-16.52-1.65-22.57c1.1-6.06,6.61-13.21,18.72-14.31s23.87,4.33,24.22,12.11c.55,12.11-2.75,29.18-2.75,29.18l-38.54-4.41h0Z" style="fill:#f6bcc8;"/><g style="clip-path:url(#k);"><polygon points="205.66 466.17 271.18 468.93 264.57 436.44 201.25 428.74 205.66 466.17" style="fill:#d7007a;"/></g></g><polygon points="206.76 480.21 218.6 504.44 250.25 504.99 260.17 478.56 206.76 480.21" style="fill:#fcf6e7;"/><path d="M238.35,444.47c2.36,1.86,3.07,5.48,.44,8.5s-6.42,2.33-8.69,.03c-1.98-2-2.92-5.36-.28-8.37,2.63-3.02,5.7-2.39,8.53-.16Z" style="fill:#ffd500;"/></g><g><g><path d="M339.22,487.85s-2.75-16.52-1.65-22.57c1.1-6.06,6.61-13.21,18.72-14.31,12.11-1.1,23.87,4.33,24.22,12.11,.55,12.11-2.75,29.18-2.75,29.18l-38.54-4.41h0Z" style="fill:#fabd43;"/><g style="clip-path:url(#l);"><polygon points="330.41 466.93 395.93 469.68 389.32 437.2 326 429.49 330.41 466.93" style="fill:#ee7f00;"/></g></g><polygon points="331.51 480.97 343.35 505.19 375.01 505.74 384.92 479.32 331.51 480.97" style="fill:#fcf6e7;"/><path d="M363.1,445.23c2.36,1.86,3.07,5.48,.44,8.5s-6.42,2.33-8.69,.03c-1.98-2-2.92-5.36-.28-8.37,2.63-3.02,5.7-2.39,8.53-.16Z" style="fill:#e8523b;"/></g><g><g><path d="M391.73,486.93s-2.75-16.52-1.65-22.57c1.1-6.06,6.61-13.21,18.72-14.31,12.11-1.1,23.87,4.33,24.22,12.11,.55,12.11-2.75,29.18-2.75,29.18l-38.54-4.41h0Z" style="fill:#fabd43;"/><g style="clip-path:url(#m);"><polygon points="383.84 467.69 449.28 463.52 439.29 431.91 375.51 430.92 383.84 467.69" style="fill:#fcf6e7;"/></g></g><polygon points="384.03 480.05 395.87 504.27 427.52 504.82 437.43 478.4 384.03 480.05" style="fill:#5a5099;"/><path d="M415.62,444.31c2.36,1.86,3.07,5.48,.44,8.5s-6.42,2.33-8.69,.03c-1.98-2-2.92-5.36-.28-8.37,2.63-3.02,5.7-2.39,8.53-.16Z" style="fill:#a40872;"/></g><g><g><path d="M439.64,486.01s-2.75-16.52-1.65-22.57c1.1-6.06,6.61-13.21,18.72-14.31,12.11-1.1,23.87,4.33,24.22,12.11,.55,12.11-2.75,29.18-2.75,29.18l-38.54-4.41h0Z" style="fill:#fabd43;"/><g style="clip-path:url(#n);"><polygon points="430.84 465.09 496.35 467.84 489.75 435.36 426.43 427.65 430.84 465.09" style="fill:#ee7f00;"/></g></g><polygon points="431.94 479.13 443.78 503.35 475.43 503.9 485.34 477.47 431.94 479.13" style="fill:#5a5099;"/><path d="M463.53,443.38c2.36,1.86,3.07,5.48,.44,8.5s-6.42,2.33-8.69,.03c-1.98-2-2.92-5.36-.28-8.37,2.63-3.02,5.7-2.39,8.53-.16Z" style="fill:#e8523b;"/></g><g><path d="M215.38,721.06s-3.11-18.64-1.86-25.47c1.24-6.83,7.46-14.91,21.12-16.15,13.67-1.24,26.94,4.89,27.33,13.67,.62,13.67-3.11,32.93-3.11,32.93l-43.49-4.97h0Z" style="fill:#fcf6e7;"/><polygon points="206.68 707.07 220.04 734.4 255.76 735.02 266.95 705.2 206.68 707.07" style="fill:#f09393;"/><path d="M242.33,672.96c2.66,2.1,3.47,6.18,.49,9.59-2.97,3.41-7.24,2.63-9.81,.04-2.23-2.26-3.29-6.04-.31-9.45,2.97-3.41,6.44-2.69,9.63-.18h0Z" style="fill:#007bc2;"/><path d="M274.64,723.14s-3.11-18.64-1.86-25.47c1.24-6.83,7.46-14.91,21.12-16.15,13.67-1.24,26.94,4.89,27.33,13.67,.62,13.67-3.11,32.93-3.11,32.93l-43.49-4.97h0Z" style="fill:#fcf6e7;"/><polygon points="265.94 709.15 279.3 736.48 315.02 737.1 326.21 707.28 265.94 709.15" style="fill:#f09393;"/><path d="M301.59,675.04c2.66,2.1,3.47,6.18,.49,9.59-2.97,3.41-7.24,2.63-9.81,.04-2.23-2.26-3.29-6.04-.31-9.45,2.97-3.41,6.44-2.69,9.63-.18Z" style="fill:#007bc2;"/><path d="M333.9,722.1s-3.11-18.64-1.86-25.47c1.24-6.83,7.46-14.91,21.12-16.15,13.67-1.24,26.94,4.89,27.33,13.67,.62,13.67-3.11,32.93-3.11,32.93l-43.49-4.97h0Z" style="fill:#fcf6e7;"/><polygon points="325.21 708.11 338.56 735.44 374.28 736.06 385.47 706.24 325.21 708.11" style="fill:#aa8d42;"/><path d="M360.85,674c2.66,2.1,3.47,6.18,.49,9.59-2.97,3.41-7.24,2.63-9.81,.04-2.23-2.26-3.29-6.04-.31-9.45,2.97-3.41,6.44-2.69,9.63-.18Z" style="fill:#e6418d;"/><path d="M409.31,724.94s-3.11-18.64-1.86-25.47c1.24-6.83,7.46-14.91,21.12-16.15,13.67-1.24,26.94,4.89,27.33,13.67,.62,13.67-3.11,32.93-3.11,32.93l-43.49-4.97h0Z" style="fill:#f09393;"/><polygon points="400.61 710.95 413.97 738.28 449.69 738.9 460.87 709.08 400.61 710.95" style="fill:#aa8d42;"/><path d="M436.25,676.84c2.66,2.1,3.47,6.18,.49,9.59-2.97,3.41-7.24,2.63-9.81,.04-2.23-2.26-3.29-6.04-.31-9.45,2.97-3.41,6.44-2.69,9.63-.18Z" style="fill:#e6418d;"/></g><g><polygon points="1293.32 80.13 1420.73 80.88 1420.73 263.75 1296.14 263.98 1293.32 80.13" style="fill:#fbf8f6;"/><g><polygon points="1303.75 92.96 1304.54 231.87 1409.41 231.45 1410.19 91.3 1303.75 92.96" style="fill:#fdd900;"/><g style="clip-path:url(#o);"><polygon points="1414.09 43.59 1341.9 285.43 1467.12 260.17 1477.44 45.4 1414.09 43.59" style="fill:#eaba00;"/></g></g></g><g><polygon points="1435.85 79.62 1563.26 80.37 1563.26 263.25 1438.67 263.48 1435.85 79.62" style="fill:#fbf8f6;"/><g><polygon points="1446.28 92.45 1447.06 231.37 1551.94 230.95 1552.72 90.79 1446.28 92.45" style="fill:#c59bc1;"/><g style="clip-path:url(#p);"><polygon points="1556.61 43.09 1484.43 284.93 1609.65 259.66 1619.96 44.89 1556.61 43.09" style="fill:#d8abcc;"/></g></g></g><g><polygon points="1072.83 560.82 1053.74 459.97 980.36 460.31 1002.96 560.92 1072.83 560.82" style="fill:#aea7ab;"/><polygon points="954.34 560.76 975.23 460.04 1053.57 459.29 1032.56 560.92 954.34 560.76" style="fill:#fbf9f7;"/><g><path d="M998.1,504.1l-1.1,5.92s3.75,.16,3.12,3.07c-.5,2.3-3.85,2.42-3.85,2.42l-.63,2.66s5.2,.9,6.65-4.32c1.35-4.87-2.7-5.78-2.7-5.78l.39-1.54,2.48,.11,.43-2.24-4.78-.29h-.01Z" style="fill:#5a7a3e;"/><g><path d="M1012.11,510.33c-.77-.19-1.28,.19-1.51,.72-.24,.56-.22,1.27,.48,1.53,.71,.26,1.51-.19,1.69-.79,.17-.57,.11-1.27-.65-1.46h0Z" style="fill:#5a7a3e;"/><path d="M1011.54,514.16c-.77-.19-1.28,.19-1.51,.72-.24,.56-.22,1.27,.48,1.53,.71,.26,1.51-.19,1.69-.79,.17-.57,.11-1.27-.65-1.46h0Z" style="fill:#5a7a3e;"/></g><path d="M1028.68,511.86c-.63,2.89-2.05,7.25-5.25,6.99-3.33-.27-3.3-3.8-2.54-7.32,.76-3.52,1.75-6.95,5-6.65,3.68,.34,3.42,4.09,2.79,6.98h0Zm-3.41-4.14c-1.15,0-1.68,2.9-1.9,3.95-.23,1.05-.82,4.07,.42,4.19,1.11,.1,1.79-2.19,2.24-4.26,.49-2.25,.5-3.88-.75-3.88h-.01Z" style="fill:#5a7a3e;"/><path d="M1006.43,518.6l-2.3-.21,2.7-7.07s-2.98,.38-3.72-1.84c-.87-2.61,.91-5.81,4.2-5.39,2.38,.31,3.44,1.72,2.58,4.77-1.06,3.76-3.47,9.74-3.47,9.74h0Zm-.42-12.25c-.67,.23-.92,.93-.87,1.69s.88,.99,1.53,.76,1.08-.94,.95-1.6-.67-1.17-1.61-.86h0Z" style="fill:#5a7a3e;"/><path d="M1016.75,519.03l-2.3-.21,2.7-7.07s-2.98,.38-3.72-1.84c-.87-2.61,.91-5.81,4.2-5.39,2.38,.31,3.44,1.72,2.58,4.77-1.06,3.76-3.47,9.74-3.47,9.74h0Zm-.42-12.25c-.67,.23-.92,.93-.87,1.69s.88,.99,1.53,.76,1.08-.94,.95-1.6-.67-1.17-1.61-.86h0Z" style="fill:#5a7a3e;"/></g><polygon points="979.83 487.12 1035.22 487.27 1032.96 497.45 977.54 496.88 979.83 487.12" style="fill:#6b9e6a;"/><polygon points="983.22 474.68 1038.61 474.83 1036.35 485.01 980.94 484.44 983.22 474.68" style="fill:#a0c443;"/></g></g></g></g><g><path d="M1212.16,172.15s-21.65-13.78-39.76,1.38c-13.9,11.64-1.77,21.26-1.77,21.26,0,0-12.6,5.9-12.6,16.14s1.49,12.51-2.2,15.17c-3.79,2.73-5.69,2.49-5.69,2.49,0,0,1.59,8.72,7.69,9.9s10.04-.98,10.04-.98c0,0-8.82,20.53-3.11,29.39s12.17,9.74,12.17,9.74c0,0-1.13-4.47,3.4-7.62s13.33-14.39,24.15-10.05c10.83,4.33,25.45,13.45,31.69,14.37,8.95,1.31,10.69-3.89,10.69-3.89,0,0-5.03-.96-6.35-7.33-1.11-5.34,2.92-8.83,7.05-11.58,4.13-2.76,6.09-3.76,8.85-10.06s-.35-11.43-.35-11.43c0,0,6.77-1,9.38-6.04,4.6-8.9,.59-14.76,.59-14.76,0,0-5.7,5.62-11.41,.31-5.71-5.32-4.26-18.48-8-27.54s-13.57-10.85-20.86-11.22c-7.68-.39-13.58,2.36-13.58,2.36h-.02Z" style="fill:#93a090;"/><path d="M1275.32,863.62s3.22,28.79,4.18,39.97c.95,11.19,.65,29.9,.65,29.9l39.57-2.88,3.3-10.67s-9.18-9.63-11.19-24.89c-2.01-15.26,1.34-33.57,1.34-33.57l-37.85,2.14h0Z" style="fill:#f1f1f3;"/><path d="M1307.16,906.31c-9.74,1.8-11.96,15.25-11.96,15.25,0,0-4.57,2.78-10.66,1.25-6.1-1.53-5.55-13.64-5.55-13.64l-3.9-.16-6.4,40.42s.58,3.61,16.4,7.13c15.82,3.52,20.39,4.67,25.89,9.93,5.49,5.26,17.03,11.27,28.86,9.65s23.3-2.58,23.3-2.58c0,0,6.62-16.17-5.08-24.26-11.69-8.09-13.71-7.12-21.23-15.33-7.52-8.22-9.93-31.31-29.67-27.66Z" style="fill:#272a3e;"/><path d="M1132.46,852.15s-5,41.38-8.77,50.31-6.11,15.3-5.33,15.82,31.91,4.93,31.91,4.93c0,0,3.47-20.79,4.77-25.86,1.29-5.06,4.7-33.54,4.7-33.54l-27.27-11.67h-.01Z" style="fill:#f1f1f3;"/><path d="M1304.08,525.14s9.83,108.81,9.52,141.99c-.3,33.19-5.62,53.85-4.29,65.94,1.33,12.08,1.71,70.48,2.09,87.33,.38,16.85,14.34,88.76,14.34,88.76,0,0-10.6,4.5-26.36,11.51-11.62,5.17-33.86,0-33.86,0,0,0-16.25-13.49-15.5-26.68,.75-13.18,.08-66.68-3.2-86.82-3.14-19.34-4.5-57.3-7.92-70.93-3.53-14.06-8.65-88.58-13.66-107.08-6.47-23.93-18.96-56.51-18.96-56.51l12.03-49.26,85.77,1.75Z" style="fill:#0077be;"/><path d="M1257.33,296.48s34.7,6.9,42.28,20.05c10.14,17.58,39.68,125.75,37.68,145.44-2.01,19.68-16.2,20.66-31.15,14.68-18.53-7.41-30.66-18.98-37.89-41.88s-6.44-57.15-6.44-57.15l-4.47-81.13h-.01Z" style="fill:#e7474c;"/><path d="M1114.13,564.68s9.4,14.28,10.96,18.39c1.56,4.11,2.76,14.15,3.77,18.2,1.02,4.05,2.6,11.7,2.6,11.7,0,0-5.82,1.03-8.2-2.74-2.38-3.76-4.24-17.04-5.6-16.76-1.36,.28,2.62,14.36,4.35,18.43,1.73,4.08,7.09,5.98,9.19,8.38s2.49,5.16,2.49,5.16l-13.61,1.94s-10.31-3.54-14.82-4.73c-4.51-1.19-8.03-3.66-10.33-6.2-1.56-1.72-5.46-15.19-5.46-15.19l-2.42-37.68s6.13-.65,12.59-1.99c6.46-1.34,14.48,3.08,14.48,3.08h.01Z" style="fill:#9e6c30;"/><path d="M1114.7,325.19c-14.08,13.35-36.3,112.93-39.91,128.79-1.98,8.7,1.11,35.99,3.27,65.23,2.17,29.23,6.75,57.55,6.75,57.55,0,0,11.89,.34,20.78-2.48,10.37-3.29,19.67-7.31,19.67-7.31,0,0-2.44-62.63-1.35-82.48,1.08-19.85,22.13-60.81,22.13-60.81l-17.35-93.58-14-4.91h0Z" style="fill:#e7474c;"/><path d="M1350.22,357.4s-13.68-4.32-25.4-5.96c-17.57-2.45-24.45,3.3-24.45,3.3,0,0-.93,22.98-4.3,37.76-3.36,14.78-20.71,74.35-20.71,74.35,0,0,45.36,24.66,57.22,8.73,8.77-11.78,14.5-49.97,15.32-79.3,.78-28.05,2.33-38.89,2.33-38.89h0Z" style="fill:#e7474c;"/><path d="M1129.91,903.86c-9.47,1.06-16.45,11.07-15.39,18.61,1.07,7.54-3.37,22.52-6.5,29.11-3.13,6.59,1.71,22.92,1.71,22.92,0,0,13.27,6.74,27.26,5.12,13.98-1.62,25.29-2.66,26.02-9.98s-9.03-17.02-8.64-25.9c.4-8.88,4.81-11.33,1.66-19.08-3.16-7.76-8.31-11.29-8.31-11.29,0,0-3.23-11.15-17.81-9.51h0Z" style="fill:#272a3e;"/><path d="M1234.91,522.4c.25-.9-11.48,117.42-20.46,168.89-7.62,43.68-19.38,52.96-21.13,61.26-1.75,8.31-.61,108.67-5.91,127.78-5.29,19.11-17.07,43.26-17.07,43.26,0,0-27.4,2.77-39.01,2.85-11.62,.09-22.75-5.6-22.75-5.6,0,0,1.63-55.69,8.94-92.59,7.31-36.91,11.06-77.53,12.6-89.56,1.53-12.03,3.67-12.37,3.55-29.82s-1.34-82.24,2.12-111.01,18.01-85.46,18.01-85.46l81.12,10.01h-.01Z" style="fill:#0077be;"/><g><path d="M1177.21,285.49c-3.12,3.29-5.71,10.94-5.71,10.94,0,0-20.42,6.39-34.52,13.56-9.17,4.67-19.83,10.77-23.39,16.32-10.37,16.18,22.98,116.03,24.56,144.68,1.58,28.65-2.2,117.04-2.2,117.04,0,0,36.76,19.92,77.7,11.3,45.3-9.54,61.82-23.93,77.64-30.38,15.82-6.45,28.76-17.61,28.76-17.61,0,0-39.05-107.75-39.84-137.83-.79-30.08,13.91-60.14,17.07-72.32,3.16-12.18,1.77-27.43-14.83-36.03-16.61-8.59-42.59-14.17-42.59-14.17,0,0-2.87-6.91-6.12-9.81-3.25-2.89-53.39,1.01-56.52,4.3h-.01Z" style="fill:#e7474c;"/><g style="clip-path:url(#q);"><path d="M1170.86,282.06s-1.43,19.24,5.75,26.83,24.91,23.64,24.91,23.64l15.65-15.33,12.66,9.1s6.79-7.51,9.32-19.44c1.79-8.43-.9-24.8-.9-24.8,0,0,1.15-22.41,.4-22.64-.76-.23-69.54,.92-69.54,.92l1.75,21.73h0Z" style="fill:#ca332e;"/></g></g><path d="M1229.98,431.75c1.33,.09,2.22,1.06,2.08,2.38,.04-.44,.54,1.81-2.22,1.81-1.42,0-2.17-.92-2.17-2.3,0-.97,.93-1.98,2.3-1.89h.01Z" style="fill:#940c3b;"/><path d="M1223.43,379.28c1.33,.09,2.22,1.06,2.08,2.38,.04-.44,.54,1.81-2.22,1.81-1.42,0-2.17-.92-2.17-2.3,0-.97,.93-1.98,2.3-1.89h.01Z" style="fill:#940c3b;"/><path d="M1217.61,332.15c1.33,.09,2.22,1.06,2.08,2.38,.04-.44,.54,1.81-2.22,1.81-1.42,0-2.17-.92-2.17-2.3,0-.97,.93-1.98,2.3-1.89h.01Z" style="fill:#940c3b;"/><path d="M1233.72,470.25c1.33,.09,2.22,1.06,2.08,2.38,.04-.44,.54,1.81-2.22,1.81-1.42,0-2.17-.92-2.17-2.3,0-.97,.93-1.98,2.3-1.89h.01Z" style="fill:#940c3b;"/><path d="M1236.67,514.56c1.33,.09,2.22,1.06,2.08,2.38,.04-.44,.54,1.81-2.22,1.81-1.42,0-2.17-.92-2.17-2.3,0-.97,.93-1.98,2.3-1.89h.01Z" style="fill:#940c3b;"/><path d="M1178.45,241.59s4.24,17.56,3.9,29.27c-.34,11.72-3.44,15.61-2.13,19.99,3.25,10.82,35.68,24.42,35.68,24.42-.13,.04,18.78-10.59,19.2-21.03,.09-2.25-7.81-8.66-7.1-17.88,.74-9.65,.26-22.54,.26-22.54l-49.82-12.24h0Z" style="fill:#9e6c30;"/><path d="M1206.37,192.85c-8.27-.48-16.07-3.4-20.79,4.27-4.72,7.68,.91,19.15-.86,23.48-1.77,4.33-8.07,3.94-8.07,3.94,0,0-3.54,4.53-1.97,11.02,1.57,6.5,.74,26.94,4.48,32.26,3.74,5.31,12.92,12.68,18.43,17.01,5.51,4.33,20.01,2.9,24.73-1.23s13.9-15.38,15.67-19.32,2.44-23.59,3.03-29.89c.59-6.3-.59-14.76-.59-14.76,0,0-7.09-2.36-7.87-11.22-.47-5.3-1.25-14.3-6.65-17.85-12.48-8.21-13.79,2.63-19.53,2.3h-.01Z" style="fill:#9e6c30;"/><path d="M1218.9,224.72s14.3-3.42,15.75-2.69c1.45,.73,3.39,3.88,3.39,3.88l-1.58,1.82s-1.89-2.66-4.3-2.37c-3.37,.41-12.3,3.97-12.3,3.97l-.97-4.6h.01Z" style="fill:#93a090;"/><path d="M1203.87,225.39l-.12,4.6s-12.72-3.61-15.62-2.52c-2.91,1.09-4.85,2.06-4.85,2.06l-.97-1.82s3.15-3.76,5.94-4.48c2.79-.73,15.62,2.15,15.62,2.15h0Z" style="fill:#93a090;"/><path d="M1198.76,268.4c.34,1.82,6.62,2.94,13.31,2.84,6.49-.1,10.5-3.4,10.86-4.77s.6-4.44-1.83-5.47c-2.42-1.03-4.98-1.24-6.8-.55-1.82,.69-1.55,1.49-2.76,1.83s-3.06-1.49-5.96-.97c-2.91,.51-4.35,.82-5.77,2.02-1.01,.85-1.53,2.51-1.05,5.08h0Z" style="fill:#cda67b;"/><g><path d="M1195.06,231.46c-1.9-.53-3.6,.38-4.05,2.26-.45,1.88,.55,2.98,2.22,3.57,1.98,.69,3.47-.21,4.13-2.1,.47-1.33-.35-3.18-2.3-3.73h0Z" style="fill:#1c3628;"/><polygon points="1188.29 230.96 1199.7 233.75 1200.89 230.12 1187.46 227.12 1188.29 230.96" style="fill:#1c3628;"/></g><g><path d="M1227.26,230.24c1.96-.21,3.49,.96,3.62,2.89,.13,1.93-1.03,2.85-2.78,3.15-2.06,.36-3.39-.77-3.73-2.74-.24-1.39,.86-3.08,2.88-3.3h.01Z" style="fill:#1c3628;"/><polygon points="1233.57 229.04 1222.97 233.43 1221.73 230.12 1233.27 225.37 1233.57 229.04" style="fill:#1c3628;"/></g><path d="M1175.33,233.17s-7.02-1.98-6.19,3.82c.83,5.8,3.77,17.13,6.91,16.19s5.01-4.31,5.01-4.31l-5.73-15.69h0Z" style="fill:#9e6c30;"/><path d="M1237.56,250.37s3.02,2.81,4.75-1.51,4.75-16.83,2.59-17.7c-2.16-.86-6.04,1.51-6.04,1.51l-1.29,17.7h0Z" style="fill:#9e6c30;"/><path d="M1339.83,356.49c2.67-2.78,25.36-37.83,26.41-39.62,1.05-1.79,8.15-28.12,8.15-28.12,0,0-3.55-1.6-5.47-.28-1.92,1.32-4.46,6.64-4.46,6.64l.97-8.99s-4.38-1.01-6.17,2.78-3.27,15.45-3.98,16.84c-.71,1.39-1.14,2.04-1.14,2.04l-.91-20.2s-5.05,.76-5.75,3.13-.64,16.82-.82,17.92c-.55,3.26-3.73,5.13-4.39,5.32s1.12-2.84,1.23-6.12-.44-13.07-.44-13.07c0,0-4.22-.9-5.81,2.69-.95,2.16-.31,9.59-.63,11.2-.32,1.61-5.2,13.27-6.54,15.23s-12.11,11.78-14.32,21.86c-.88,4.03-3.21,13.81-2.01,13.86,7.4,.34,17.16,6.18,26.08-3.1h0Z" style="fill:#9e6c30;"/><polygon points="1223.97 608.63 1237.88 549.73 1262.77 604.93 1223.97 608.63" style="fill:#0077be;"/><g><path d="M1152.69,369.27l1.52,21.46,47.07-5.24-2.27-20.4c-.63-.06-46.32,4.17-46.32,4.17h0Z" style="fill:#f1f1f3;"/><g style="clip-path:url(#r);"><polygon points="1143.59 375.23 1203.87 370.21 1201.49 354.61 1145.44 361.22 1143.59 375.23" style="fill:#4a9055;"/></g></g><path d="M1240.48,215.9s-3.25,41.74-6.63,44.14c-5.72,4.06-7.89-3.35-13.53-3.98-5.85-.65-7.43,1.69-8.94,1.75-1.51,.06-6.17-1.86-10.44-.53-3.03,.95-8.25,7.28-13.4,6.93-6.48-.45-6.31-11.06-6.96-13.17-3.68-11.92-4.27-29.71-4.27-29.71l-2.98,1.4s2.14,36.68,4.67,42.81c2.54,6.13,5.92,12.76,10.78,16.35s7.9,7.89,11.54,8.48c5.26,.86,18.38,.57,22.61-2.39,4.23-2.96,13.8-17.44,15.28-20.4s2.01-24.74,2.47-27.65c1.33-8.54,1.91-21.77,1.91-21.77l-2.1-2.28v.02Zm-25.16,61.39c-5.71,1.06-11.61,1.16-15.2-.53-1.27-.6-5.79-2.34-6.48-5.29-.69-2.96,5-11.07,9.71-11.7,4.26-.56,5.5,.71,7.56,.71s4.29-2.97,8.53-1.79c3.59,1,9.48,6.6,8.9,9.17-.89,3.91-9.45,8.77-13,9.43h-.02Z" style="fill:#93a090;"/></g></svg>