<?xml version="1.0" encoding="UTF-8"?>
<svg id="a" xmlns="http://www.w3.org/2000/svg" xmlns:xlink="http://www.w3.org/1999/xlink" viewBox="0 0 1920 1080">
	<defs>
		<style>
			.p,.q{fill:none;}.r{fill:#f4d027;}.s{fill:#f6f6f7;}.t{fill:#006835;}.u{fill:#009250;}.v{fill:#ed7925;}.w{fill:#e6f1e2;}.x{fill:#fdd900;}.y{fill:#e8af34;}.a`{fill:#ef8227;}.aa{fill:#ebc88b;}.ab{fill:#e2e6ea;}.ac{fill:#ffee39;}.ad{fill:#ffed00;}.ae{fill:#ea683e;}.af{fill:#ffd500;}.ag{fill:#e6ab00;}.ah{fill:#e2e2e4;}.ai{fill:#803a86;}.aj{fill:#00a183;}.ak{fill:#bba562;}.al{fill:#df2e87;}.am{fill:#c48648;}.an{fill:#ad5850;}.ao{fill:#d4d5e5;}.ap{fill:#c6a4c9;}.aq{fill:#e2a972;}.ar{fill:#e41c80;}.as{fill:#e29b7b;}.at{fill:#ca332e;}.au{fill:#235a96;}.av{fill:#a3853f;}.aw{fill:#54535e;}.ax{fill:#58b6e3;}.ay{fill:#284f4f;}.b`{fill:#47823c;}.ba{fill:#2e425b;}.bb{fill:#313e36;}.bc{fill:#3a4b36;}.bd{fill:#272a3e;}.be{fill:#58873f;}.bf{fill:#5b3346;}.bg{fill:#78a937;}.bh{fill:#78877b;}.bi{fill:#4f4e47;}.bj{fill:#83988d;}.bk{fill:#4f6a6a;}.bl{clip-path:url(#c);}.bm{clip-path:url(#f);}.bn{clip-path:url(#e);}.bo{clip-path:url(#d);}.bp{clip-path:url(#n);}.bq{clip-path:url(#m);}.br{clip-path:url(#l);}.bs{clip-path:url(#k);}.bt{clip-path:url(#j);}.bu{clip-path:url(#i);}.bv{clip-path:url(#h);}.bw{clip-path:url(#g);}.bx{clip-path:url(#o);}.q{stroke:#1a171b;}
		</style>
		<clipPath id="c">
			<rect width="1920" height="1080" style="fill:none;" />
		</clipPath>
		<clipPath id="d">
			<path d="M1602.05,615.87c44.77,2.91,79.3-27.72,77.28-74.74-2.03-47.02-28.22-54.84-38.59-74.79-7.61-14.64,4.32-72.77-28.16-90.68s-44.96-6.54-61.09-21.1c-19.57-17.66-37.12-76.83-113.49-53.02-46.25,14.42-36.88,69.92-52.08,86.81-19.81,22.01-47.31,20.27-54.06,50.69-7.88,35.47,4.19,51.66,12.53,66.26,9.44,16.52-30.56,78.73,9.44,102.69,49.49,29.65,90.22-11.69,147.07-7.21,56.84,4.48,66.67,12.86,101.18,15.1h-.03Z" style="fill:none;" />
		</clipPath>
		<clipPath id="e">
			<path d="M117.56,640.74c-57.74-6.28-97.95-49.37-83.89-123.19,9.52-50,66.67-69.05,57.47-133.86-5.05-35.57-45.57-59.01-26.52-128.06,15.11-54.77,94.38-69.67,120.69-93.06,29.27-26.02,43.66-93.55,162.61-90.46s119.27,136.88,136.94,162.32c17.44,25.1,79.67,48.1,100.91,86.08,35.75,63.91,4.11,101.43-2.35,127.88-6.06,24.84,39.97,123.76-45.82,169.65-69.42,37.13-118.19-9.71-218.28-2.56-100.1,7.15-152.32,30.64-201.77,25.26h0Z" style="fill:none;" />
		</clipPath>
		<clipPath id="f">
			<path d="M1984.86,715.75l-225.12,1.24s-37.58,106.08-175.94,117.4c-193.03,15.8-943.61,17.06-1047.26,2.25-141.41-20.2-149.98-140.15-149.98-140.15l-428.83-.31-160.09,92.79s334.45,450.67,345.69,437.56c13.47-15.71,1741.24-1.58,1730.01-3.83-11.22-2.24,111.51-506.96,111.51-506.96h0Z" style="fill:none;" />
		</clipPath>
		<clipPath id="g">
			<path d="M402.39,766.73c-13.92,5.45-15.54,16.96-7.18,27.93,12.3,16.15,41.77,28.96,84.57,50.74,42.09,21.42,86.94,44.52,97.64,46.9,13.84,3.08,52.54,8.71,78.93-3.84,21.43-10.2,25.63-20.25,17.94-26.4s-19.22-6.66-28.7-10.25c-11.23-4.25-166.07-66.89-176.06-71.24-9.99-4.36-37.67-25.37-67.14-13.84h0Z" style="fill:none;" />
		</clipPath>
		<clipPath id="h">
			<path d="M1326.11,897.47c13.41,1.82,12.2,7.25,13.92,10.51,1.72,3.26,13.92,26.47,15.63,31,1.72,4.53,2.67,12.33,2.1,13.78-.57,1.45-10.68,3.99-21.73,3.63-11.06-.36-16.97-.18-20.59-1.81s.76-11.6,.76-18.13-4-11.78-4.77-18.31c-.76-6.53-.95-10.15-.95-10.15,0,0,5.34-.91,6.1-3.26,.76-2.36,1.53-8.34,9.53-7.25h0Z" style="fill:none;" />
		</clipPath>
		<clipPath id="i">
			<path d="M1221.44,895.83c9.52-.71,10.29,7.25,13.15,8.16s4,3.44,4.58,9.79c.57,6.34,4.58,27.19,3.62,31.54-.95,4.35-2.1,5.98-7.82,5.98s-25.17-.54-29.93-.54-5.72-5.08-5.34-11.42c.38-6.34,5.15-17.77,7.63-23.57s.76-9.25,2.86-12.69,4-6.71,11.25-7.25h0Z" style="fill:none;" />
		</clipPath>
		<clipPath id="j">
			<path d="M1200.78,457.24s5.37,24.41,2.73,31.2-10.97,6.57-10.97,6.57l13.95,39.78,62.22-8.86-1.13-34.88s-18.58-2.03-22.33-10.2c-3.76-8.17-.06-21.61-.06-21.61l-44.4-2.01h0Z" style="fill:none;" />
		</clipPath>
		<clipPath id="k">
			<path d="M1156.54,513.46s10.48,71.18,9.36,98.11c-1.13,26.93-4.95,33.6-9.67,57.55-4.17,21.15,5.35,34.95,5.35,34.95l4.04,16.08s44.22-1.87,72.96-4.86,67.56-17.33,67.56-17.33l-1.35-17.7s8.8-4.06,6.09-23.02c-6.99-48.95-20.32-145.37-25.08-152.43-6.2-9.21-28.67-18.19-28.67-18.19,0,0-7.66,9.25-14.61,18.77s-13.27,24.92-13.27,24.92c0,0-10.23-13.43-20.08-22.06s-19.67-19.51-19.67-19.51l-32.97,24.71h.01Z" style="fill:none;" />
		</clipPath>
		<clipPath id="l">
			<path d="M124.77,240.51c-6.46,.63-23.99,.62-28.04,28.96-4.05,28.34-11.07,43.04-2.17,52.35,8.9,9.31,11.99,21.1,11.99,21.1,0,0,7.21-1.41,12.06-12.74,4.86-11.34-7.2-34.62-3.56-50.81s6.88-27.12,10.52-26.31c3.64,.81,13.35,9.04,20.23,22.94s.18,24.13-.4,33.73c-1.12,18.57,14.15,32.05,14.15,32.05,0,0,.9-7.97,7.78-23.35,6.88-15.38-1.44-24.32-6.71-48.6-5.26-24.29-15.22-31.35-35.87-29.33h0Z" style="fill:none;" />
		</clipPath>
		<clipPath id="m">
			<path d="M134.61,312.7c-10.86,1.33-25.88-2.95-27.45-20.27-1.57-17.32,6.72-23.02,10.42-29.02,4.22-6.85,3.49-10.6,9.4-11.19s5.52,1.93,13.22,12.62c7.7,10.69,12.45,15.08,12.99,25.08,.54,10-8.26,21.53-18.59,22.78h0Z" style="fill:none;" />
		</clipPath>
		<clipPath id="n">
			<path d="M991.86,897.07c4.32-1.14,3.37,13.92,4.62,22.33,1.18,7.94,2.72,14.62,2.72,14.62,0,0-19.9,5.9-21.96,8.55-2.06,2.65-6.41,5.74-14.43,6.84-8.01,1.11-25.65-.44-27.02-2.87s-2.34-11.56,4.53-16.18c6.87-4.64,13.56-12.06,15.86-16.47,2.29-4.41,3.43-21.19,13.97-19.64,10.54,1.54,13.74,13.69,17.41,12.14,3.67-1.54,2.54-8.83,4.31-9.3h0Z" style="fill:none;" />
		</clipPath>
		<clipPath id="o">
			<path d="M1057.52,936.77s9.34,2.96,11.05,6.86,1.71,6.98,12.15,8.01c10.44,1.03,22.97-.21,26.6-2.46,3.62-2.26,3.34-11.02,1.23-14.93-3.07-5.68-13.4-11.52-15.69-17.72-2.84-7.73-4.18-22.2-13.63-20.53-9.55,1.69-9.16,11.29-12.79,12.32-3.62,1.03-3.84-3.29-3.84-3.29,0,0-4.27,18.48-4.27,24.24s-.82,7.52-.82,7.52h0Z" style="fill:none;" />
		</clipPath>
	</defs>
	<g id="b">
		<g style="clip-path:url(#c);">
			<g>
				<g>
					<rect x="-65.85" y="-191.33" width="2113.96" height="1294.39" style="fill:#d4d5e5;" />
					<rect x="-65.85" y="-191.33" width="2113.96" height="1294.39" style="fill:none; stroke:#1a171b;" />
				</g>
				<path d="M125.68,576.66s3.49,64.5,5.23,99.37-5.62,113.7-5.62,113.7l-19.18-1.74s4.75-88.42,3.87-119.8c-.87-31.38-3.49-92.39-3.49-92.39l19.18,.87h0Z" style="fill:#5b3346;" />
				<path d="M621.25,531.59c-77.16-10.8-119.16,26.9-130.52,76.79-11.85,52.3,4.9,116.68,77.27,134.18,73.62,17.8,140.71-29.78,145.22-85.1,4.21-52.76-14.82-115.07-91.97-125.88h0Z" style="fill:#ffed00;" />
				<path d="M11.32,665.24c-25.26-14.49-62.01-61.61-43.47-105.86,14.54-34.7,36.11-34.63,34.34-58.06-1.77-23.43-26.03-67.62-7.24-95.76,16.59-24.85,34.6-23.59,46.84-38.77,13.62-16.89,9.33-62.82,64.95-58.81,74.44,5.36,95.81,92.41,104.15,109.16,8.22,16.53,30.26,30.53,40.3,55.51,16.89,42.03-7.88,59.8-10.83,77.08-2.77,16.23,50.59,76.19,3.74,107.34-33.08,22-76.95,7.93-123.75,12.09-46.8,4.16-82.48,11.32-109.03-3.92h0Z" style="fill:#58873f;" />
				<path d="M189.07,515.46s-5.26,97.34-7.89,149.96,1.32,99.98,1.32,99.98l28.94-2.63s0-61.83,1.32-109.18c1.32-47.36,5.26-139.44,5.26-139.44l-28.94,1.32h-.01Z" style="fill:#5b3346;" />
				<path d="M1413.31,167.69c-6.23,3.54-41.59,5.98-41.59,39.15,0,30.13,24.1,34.35,30.62,35.67,13.7,2.78,101.22,2.1,128.15-.55,13.06-1.29,40.82-10.23,34.41-42.75-7.45-37.82-48.62-37.85-53.96-40.98s-14.18-36.66-54.2-32.5c-35.31,3.67-37.22,38.41-43.45,41.96h.02Z" style="fill:#f6f6f7;" />
				<path d="M1535.28,544.27s3.49,64.5,5.23,99.37-.87,66.24-.87,66.24l-19.18-1.74s0-40.97-.87-72.35-3.49-92.39-3.49-92.39l19.18,.87Z" style="fill:#5b3346;" />
				<g>
					<path d="M1602.05,615.87c44.77,2.91,79.3-27.72,77.28-74.74-2.03-47.02-28.22-54.84-38.59-74.79-7.61-14.64,4.32-72.77-28.16-90.68s-44.96-6.54-61.09-21.1c-19.57-17.66-37.12-76.83-113.49-53.02-46.25,14.42-36.88,69.92-52.08,86.81-19.81,22.01-47.31,20.27-54.06,50.69-7.88,35.47,4.19,51.66,12.53,66.26,9.44,16.52-30.56,78.73,9.44,102.69,49.49,29.65,90.22-11.69,147.07-7.21,56.84,4.48,66.67,12.86,101.18,15.1h-.03Z" style="fill:#009250;" />
					<g style="clip-path:url(#d);">
						<g>
							<path d="M1680.13,280.88c4.61,2.07,74.9,78.65,34.35,154.02-40.55,75.37-94.65,68.61-125.15,103.64-46.67,53.6,18.18,120.46,18.18,120.46,0,0-102.57,88.18-189.53,44.65-86.96-43.53-92.21-176.62-60.29-266.65,31.92-90.04,127.19-27.34,139.8-93.69,12.62-66.35,104.74-97.51,182.64-62.43h0Z" style="fill:#00a183;" />
							<path d="M1554.36,228.99c4.45,1.69,75.19,70.68,42.1,145.86-33.08,75.19-84.16,72.28-110.44,108-40.22,54.65,24.81,114.66,24.81,114.66,0,0-90.3,91.63-174.51,55.54s-97.73-163.75-73.67-252.47c24.06-88.72,117.28-34.74,124.79-99.4,7.52-64.66,91.73-100.75,166.92-72.18h0Z" style="fill:#78a937;" />
							<path d="M1385.62,240.29c48.57,25.06,139.52,102.34,106.44,185.91s-124.06,70.17-145.11,140.37c-21.05,70.2,42.1,104.16,42.1,104.16,0,0-99.67,74.72-183.88,34.61s-97.73-182.01-73.67-280.62c24.06-98.61,117.28-38.61,124.8-110.48,7.52-71.87,80.75-99,129.32-73.94h0Z" style="fill:#47823c;" />
						</g>
					</g>
				</g>
				<path d="M1487.59,557.52c0,2.61,1.74,57.53,2.62,95.01,.87,37.48,5.23,88.91,5.23,88.91l-17.43-4.36s-6.1-83.68-7.84-91.52-14.82-27.02-24.41-37.48c-9.59-10.46-13.7-14.57-13.7-14.57l4.36-5.23s11.96,8.47,18.06,16.31c6.1,7.84,14.82,21.79,14.82,21.79,0,0,.87-33.12,0-42.71s3.49-29.64,3.49-29.64l14.82,3.49h-.02Z" style="fill:#5b3346;" />
				<path d="M-150.65,1162.31l-125.44-459.78s513.83,45.72,871.2,13.07c199.56-18.23,231.99-36.56,529.11-45.58,100.3-3.04,392.58-2.79,638.3,1.84,205.67,3.87,435.44-12.5,435.44-12.5l-282.24,528.6-2066.38-25.64h0Z" style="fill:#e6ab00;" />
				<path d="M524.47,1320.13L46.45,755.28s482.04,65.25,764.94,32.41c296.49-34.42,411.24-71.18,652.58-86.43,395.65-25,1019.86,6.7,1019.86,6.7l-14.21,459.41-1945.15,152.76h0Z" style="fill:#ed7925;" />
				<g>
					<path d="M117.56,640.74c-57.74-6.28-97.95-49.37-83.89-123.19,9.52-50,66.67-69.05,57.47-133.86-5.05-35.57-45.57-59.01-26.52-128.06,15.11-54.77,94.38-69.67,120.69-93.06,29.27-26.02,43.66-93.55,162.61-90.46s119.27,136.88,136.94,162.32c17.44,25.1,79.67,48.1,100.91,86.08,35.75,63.91,4.11,101.43-2.35,127.88-6.06,24.84,39.97,123.76-45.82,169.65-69.42,37.13-118.19-9.71-218.28-2.56-100.1,7.15-152.32,30.64-201.77,25.26h0Z" style="fill:#78a937;" />
					<g style="clip-path:url(#e);">
						<g>
							<path d="M534.01,751.68c7.89-2.74,173.93-127.67,132.15-286.93-41.79-159.26-181-118.3-197.44-229.55-12.87-87.11,71.31-92.25,81.04-196.73,9.73-104.48-94.41-224.13-244.76-163.77C154.66-64.94,96.13,195.75,116.97,299.16c36.96,183.36,146.52,144.3,146.82,277.9,.3,133.6,136.69,221.03,270.22,174.62Z" style="fill:#00a183;" />
							<path d="M315.25-7.21c-7.6,2.89-180.92,93.73-124.35,222.3,56.57,128.58,211.08,109.34,237.9,200.15,21,71.11-62.32,81.94-62.19,169.2s177.5,195.24,321.51,133.52c144-61.72,126-231.44,84.86-383.16s-159.43-108-172.29-218.58C587.83,5.65,443.82-56.07,315.25-7.21Z" style="fill:#47823c;" />
						</g>
					</g>
				</g>
				<path d="M321.87,521c0,3.95-2.63,84.35-3.95,140.92-1.32,56.56-7.89,134.18-7.89,134.18l26.31-6.58s9.21-126.28,11.84-138.12,12.32-39.44,26.79-55.23,23.7-18.23,23.7-18.23l-6.38-7.29s-17.23,6.39-26.44,18.23c-9.21,11.84-17.12,24.39-17.12,24.39,0,0-4.43-25.91-3.11-40.38,1.32-14.47-1.39-57.15-1.39-57.15l-22.36,5.26Z" style="fill:#5b3346;" />
				<g>
					<polygon points="1644.11 77.07 1718.68 857.41 1753.75 851.93 1660.46 75.67 1644.11 77.07" style="fill:#78877b;" />
					<g>
						<g>
							<g>
								<polygon points="1650.05 106.46 1529.14 122.03 1538.56 201.93 1659.58 186.54 1650.05 106.46" style="fill:#78877b;" />
								<polygon points="1644.72 112.6 1537.83 126.53 1545.97 195.81 1652.97 182.05 1644.72 112.6" style="fill:#ffee39;" />
							</g>
							<polygon points="1649.68 146.69 1538.7 159.07 1539.07 163.19 1650.21 150.56 1649.68 146.69" style="fill:#78877b;" />
							<polygon points="1616.81 112.41 1625.56 186.56 1629.67 186.1 1620.68 111.85 1616.81 112.41" style="fill:#78877b;" />
							<polygon points="1588.9 117.29 1597.64 191.45 1601.75 190.99 1592.76 116.74 1588.9 117.29" style="fill:#78877b;" />
							<polygon points="1560.04 120.21 1568.78 194.37 1572.89 193.91 1563.9 119.66 1560.04 120.21" style="fill:#78877b;" />
						</g>
						<g>
							<g>
								<polygon points="1782.28 88.71 1661.37 104.28 1670.79 184.17 1791.82 168.79 1782.28 88.71" style="fill:#78877b;" />
								<polygon points="1776.96 94.85 1670.07 108.77 1678.21 178.06 1785.21 164.3 1776.96 94.85" style="fill:#ffee39;" />
							</g>
							<polygon points="1781.91 128.94 1670.94 141.32 1671.31 145.44 1782.44 132.81 1781.91 128.94" style="fill:#78877b;" />
							<polygon points="1749.05 94.66 1757.79 168.81 1761.9 168.35 1752.91 94.1 1749.05 94.66" style="fill:#78877b;" />
							<polygon points="1721.13 99.54 1729.87 173.7 1733.99 173.24 1725 98.99 1721.13 99.54" style="fill:#78877b;" />
							<polygon points="1692.27 102.46 1701.01 176.62 1705.13 176.16 1696.14 101.91 1692.27 102.46" style="fill:#78877b;" />
						</g>
					</g>
				</g>
				<g>
					<path d="M1984.86,715.75l-225.12,1.24s-37.58,106.08-175.94,117.4c-193.03,15.8-943.61,17.06-1047.26,2.25-141.41-20.2-149.98-140.15-149.98-140.15l-428.83-.31-160.09,92.79s334.45,450.67,345.69,437.56c13.47-15.71,1741.24-1.58,1730.01-3.83-11.22-2.24,111.51-506.96,111.51-506.96h0Z" style="fill:#e2e2e4;" />
					<g style="clip-path:url(#f);">
						<g>
							<polygon points="285.07 801.96 396.37 685.13 3.33 659.34 -97.38 785.85 285.07 801.96" style="fill:none;" />
							<polygon points="1782.11 807.39 1752.69 690.75 2069.49 673.38 2170.21 799.89 1782.11 807.39" style="fill:none;" />
						</g>
					</g>
				</g>
				<path d="M-48.51,763.27l372.72-2.81s29.14,197.21,298.19,198.26c360.86,1.41,810.38,3.61,920.4-4.39,171-12.44,233.51-171.21,233.51-171.21l279.86-.73-11.28,511.33L-38.31,1345.9l-10.2-582.63Z" style="fill:#83988d;" />
				<g>
					<polygon points="430.61 822.19 440.47 818.44 448.5 826.62 434.44 830.54 430.61 822.19" style="fill:#803a86;" />
					<path d="M571.22,898.67l15.1-7.24s-13.94-14.74-13.94-14.48-11.62,15.1-11.62,15.1l10.46,6.61h0Z" style="fill:#803a86;" />
					<path d="M418.16,822.38s-5.66,2.91-1.94,11.15c3.72,8.24,9.05,7.6,9.05,7.6l8.4-2.75s4.85-5.98,1.21-12.61-7.52-6.47-7.52-6.47l-9.21,3.07h.01Z" style="fill:#df2e87;" />
					<path d="M418.96,829.75c-.71,.51-.54,2,.04,3.19,.58,1.19,1.42,1.77,2.35,1.54s.81-2.31,.04-3.43-1.89-1.69-2.43-1.31h0Z" style="fill:#803a86;" />
					<path d="M549.6,893.66s-4.56,8.49,1.97,15.73c6.52,7.24,11.62,4.91,11.62,4.91,0,0,8.39-4.54,8.67-4.83,.98-.98,7.19-6.44-.36-16.98-5.18-7.24-12.87-5-12.87-5l-9.03,6.17h0Z" style="fill:#df2e87;" />
					<path d="M554.43,901.29c-.95,.65-.76,2.69,.12,3.87s2.23,2.03,3.49,1.14c1.26-.88-.02-3.59-.7-4.27s-2.03-1.34-2.91-.74Z" style="fill:#803a86;" />
					<g>
						<path d="M402.39,766.73c-13.92,5.45-15.54,16.96-7.18,27.93,12.3,16.15,41.77,28.96,84.57,50.74,42.09,21.42,86.94,44.52,97.64,46.9,13.84,3.08,52.54,8.71,78.93-3.84,21.43-10.2,25.63-20.25,17.94-26.4s-19.22-6.66-28.7-10.25c-11.23-4.25-166.07-66.89-176.06-71.24-9.99-4.36-37.67-25.37-67.14-13.84h0Z" style="fill:#bba562;" />
						<g style="clip-path:url(#g);">
							<path d="M404.22,762.97c-13.82,5.4-15.43,16.82-7.13,27.7,12.21,16.01,41.48,28.72,83.98,50.32,41.79,21.24,86.33,44.15,96.95,46.51,13.74,3.05,52.17,8.64,78.38-3.81,21.28-10.11,25.45-20.08,17.81-26.18-7.63-6.1-19.09-6.61-28.5-10.17-11.15-4.21-164.9-66.33-174.82-70.65s-37.41-25.16-66.67-13.72h0Z" style="fill:#313e36;" />
						</g>
					</g>
				</g>
				<g>
					<g>
						<path d="M1464.87,835.02c.3,.41,.03,.77-.19,.98s-.55,.19-.74,0-.18-.5,.14-.88,.62-.35,.8-.1h-.01Z" style="fill:#313e36;" />
						<polygon points="1476.57 910.4 1446.34 898.8 1415.69 909.69 1413.35 902.69 1441.56 890.21 1454.24 860.62 1459.53 866.65 1449.19 892.77 1475.63 901.75 1476.57 910.4" style="fill:#313e36;" />
						<path d="M1449.05,889.07c3.41,2.75,3.39,6.6,1.21,9.39-2.3,2.95-6.6,3.32-9.64,.79s-3.17-6.88-.83-9.53c2.18-2.47,6.03-3.25,9.26-.64h0Zm-7.44,2.24c-1.51,1.71-1.43,4.51,.53,6.15,1.96,1.63,4.73,1.39,6.21-.51,1.4-1.8,1.41-4.28-.78-6.05-2.08-1.68-4.56-1.17-5.97,.41h.01Z" style="fill:#ffed00;" />
						<path d="M1521.4,848.7c15.43,26.54,5.85,47.73-4.07,54.11-9.93,6.39-28.82,15.08-29.22,15.56s-9.1,2.46-14.87-7.22c-5.77-9.69,.42-11.59,4.53-15.22,4.11-3.63,4.93-7.56,1.16-14.76-3.77-7.21-6.33-10.97-11.06-10.83-4.73,.14-9.45,3.53-14.36-3.27-4.92-6.8,3.22-11.69,.15-16.15s-18.06-25.88-18.06-25.88c0,0,25.32-16.09,42.49-11.29,17.17,4.79,36.3,22.88,43.32,34.97v-.02Z" style="fill:#ca332e;" />
					</g>
					<polygon points="1454.62 830.39 1461.02 827.52 1456.19 818.91 1449.54 821.99 1454.62 830.39" style="fill:#e41c80;" />
				</g>
				<g>
					<g>
						<path d="M1544.43,857.52c.49,.13,.51,.58,.47,.88s-.31,.49-.57,.47-.45-.27-.45-.76,.25-.66,.56-.58h-.01Z" style="fill:#313e36;" />
						<polygon points="1599.5 907.72 1569.72 918.81 1565.96 941.8 1557.87 940.79 1561.19 916.35 1550.72 883.3 1558.63 884.63 1568.13 910.72 1593.3 901.62 1599.5 907.72" style="fill:#235a96;" />
						<path d="M1566.37,909.39c4.37-.03,6.8,2.97,6.88,6.51,.08,3.74-3.01,6.74-6.97,6.71s-6.81-3.32-6.67-6.86c.13-3.29,2.61-6.33,6.76-6.35h0Zm-4.34,6.44c-.09,2.28,1.75,4.4,4.3,4.42s4.54-1.91,4.49-4.32c-.05-2.28-1.62-4.21-4.44-4.19-2.67,.02-4.28,1.98-4.36,4.1h0Z" style="fill:#58b6e3;" />
						<path d="M1596.86,832.35c28.74,10.79,34.73,33.26,31.08,44.49s-12.78,29.91-12.79,30.54c0,.63-5.49,7.67-16.09,3.82s-7.01-9.24-6.12-14.65c.88-5.41-.96-8.97-8.44-12.17s-11.84-4.49-15.42-1.39c-3.57,3.1-5.08,8.71-13.19,6.55-8.11-2.16-4.9-11.1-10.1-12.6-5.2-1.51-30.36-8.61-30.36-8.61,0,0,9.43-28.48,25.76-35.63s42.58-5.24,55.67-.33v-.02Z" style="fill:#ffed00;" />
					</g>
					<polygon points="1533.55 860.42 1535.82 853.59 1528.04 850.23 1524.31 857.13 1533.55 860.42" style="fill:#ffd500;" />
				</g>
			</g>
		</g>
	</g>
	<path d="M1209.57,389.38c-16.06,4.54-25.8,16.83-26.74,28.03s-13.22,21.51-13.22,21.51c0,0-.27,2.9,5.19,2.24,1.87-.23,3.78-2.19,4.73,.95,.94,3.14-8.03,2.19-8.03,13.39s9.31,14.35,15.78,19.91c5.53,4.75,4.11,4.85,12.29,10.91,9.94,7.36,39.38-1.82,39.38-1.82,0,0,19.25-1.18,22.73-14.66,1-3.89,5.67-1.34,5.67-1.34,0,0,6.14-12.1,0-21.06s-5.07-14.06-5.07-19.89,6.95-17.76-7.68-25.83c-14.64-8.07-36.71-14.7-45.03-12.34h0Z" style="fill:#e8af34;" />
	<path d="M1223.65,484.75c-19.62,.46-49.28-6.93-50.14,3.67-1.22,15.03,9.81,37.61,6.86,20.11l87.3,.15s11.8-17.4,.77-27.8c-8.36-7.89-29.87,3.51-44.79,3.86h0Z" style="fill:#4f6a6a;" />
	<path d="M1194.98,451.95s-6.62-1.58-7.22,2.5c-.98,6.68,1.33,13.39,4.24,13.39s3.76-.67,3.76-.67c0,0,1.11,6.7,4.6,9.53,3.49,2.84,15.36,9.56,25.25,8.71s18.09-7.93,20.7-11.62c2.62-3.69,2.75-9.93,2.75-9.93,0,0,5.02,.58,6.76-1.69,1.75-2.27,3.32-10.81,.56-11.9-4.1-1.61-7.78,0-7.78,0,0,0-5.94-9.61-9.72-14.72-3.78-5.11-17.78-3.89-28.06-8.33-6.86-2.97-9.79,6.01-9.72,12.78,.08,8.88-6.11,11.95-6.11,11.95h-.01Z" style="fill:#ebc88b;" />
	<path d="M1338.02,625.13s-13.28,29.08-12.02,35.62c1.75,9.09-.27,42.64-.87,45.2-1.84,7.83-10.55,19.03-10.55,19.03,0,0-2.45-2.68-2.31-5.19,.25-4.36,2.32-6.53,3.61-9.33,1.25-2.72,1.37-7.69,.59-11.7-.69-3.49-.28-11.44-4.05-11.32-1.6,.05-1.02,11.41-2.72,14.77-1.7,3.37-5.93,4.56-5.93,4.56,0,0-.73-17.39-1.71-20.44-.97-3.05-1.62-7.81-.57-11.59s4.86-6.29,6.09-11.64c1.23-5.35,6.99-42.33,6.99-42.33l23.46,4.35h0Z" style="fill:#ebc88b;" />
	<path d="M1144.87,595.86s-13.03-44.78-18.74-48.21c-7.93-4.77-22.36-14.37-23.54-16.72-3.23-6.44-5.82-24.14-5.82-24.14,0,0,2.52-.54,3.65,.18s1.8,3.43,1.8,3.43l.64-3.31s3.45-.38,4.53,2.3c1.07,2.68,1.54,8.66,3.92,11.3s9.05,11.66,12.54,7.83c2.29-2.51-5.99-7.05-7.36-10.56-1.37-3.52,1.21-5.56,1.21-5.56,0,0,10.04,6.47,13.89,9.16,2.63,1.84,6.89,4.01,9,7.32s1.43,7.82,4.59,12.31c3.16,4.49,18.21,40.57,18.21,40.57l-18.53,14.11h0Z" style="fill:#ebc88b;" />
	<g>
		<path d="M1232.76,884.98s.19,.84,.49,2.25c1.1,5.11,3.7,17.62,4.06,23.73,.46,7.79-3.19,19.48-3.19,19.48l-27.32-4.33s6.83-20.78,6.37-30.74c-.46-9.96-3.64-15.15-3.64-15.15l23.22,4.76h0Z" style="fill:#4f4e47;" />
		<g>
			<path d="M1286.04,640.31s13.18,38.37,22.13,80.47c8.94,42.1,8.24,64.94,10.92,71.75,2.68,6.8,15.68,26.59,19.7,52.1,4.02,25.51-1.32,57.63-1.32,57.63,0,0-3.58,5.53-13.86,6.38-10.29,.85-16.99-.85-16.99-.85,0,0,1.34-14.46-2.68-20.41s-40.06-56.3-44.98-72.89c-4.92-16.58-19.86-81.47-22.1-79.35-2.24,2.13,2.68,38.27,1.34,67.61-1.34,29.34-4.47,56.98-3.58,68.04s3.13,27.64,3.13,27.64c0,0-7.6,1.28-16.55,2.13-8.94,.85-14.76,0-14.76,0,0,0-13.97-10.21-18.44-23.39s-10.92-46.1-15.39-64.81-5.07-64.89-6.86-86.15,5.37-97.8,5.37-97.8l114.93,11.91h-.01Z" style="fill:#284f4f;" />
			<g>
				<path d="M1326.11,897.47c13.41,1.82,12.2,7.25,13.92,10.51,1.72,3.26,13.92,26.47,15.63,31,1.72,4.53,2.67,12.33,2.1,13.78-.57,1.45-10.68,3.99-21.73,3.63-11.06-.36-16.97-.18-20.59-1.81s.76-11.6,.76-18.13-4-11.78-4.77-18.31c-.76-6.53-.95-10.15-.95-10.15,0,0,5.34-.91,6.1-3.26,.76-2.36,1.53-8.34,9.53-7.25h0Z" style="fill:#c6a4c9;" />
				<g style="clip-path:url(#h);">
					<path d="M1313.91,933.72s-1.14,9.25,5.53,10.51c6.67,1.27,13.15,.54,19.64,.73,6.48,.18,12.77,.36,14.11-1.45,1.33-1.81,4.77-7.07,4.77-7.07l6.48,15.95s-23.07,17.77-23.64,17.77-29.93-9.79-29.93-9.79l-2.67-14.68,5.72-11.96h0Z" style="fill:#e2e6ea;" />
				</g>
			</g>
			<g>
				<path d="M1221.44,895.83c9.52-.71,10.29,7.25,13.15,8.16s4,3.44,4.58,9.79c.57,6.34,4.58,27.19,3.62,31.54-.95,4.35-2.1,5.98-7.82,5.98s-25.17-.54-29.93-.54-5.72-5.08-5.34-11.42c.38-6.34,5.15-17.77,7.63-23.57s.76-9.25,2.86-12.69,4-6.71,11.25-7.25h0Z" style="fill:#c6a4c9;" />
				<g style="clip-path:url(#i);">
					<path d="M1244.32,931.18s-1.91,8.52-6.48,9.25c-4.58,.73-24.78,.54-30.69-.36-5.91-.91-8.58-8.34-8.58-8.34l-1.53,27.92,49.38,1.81,2.1-23.93-4.19-6.34h-.01Z" style="fill:#e2e6ea;" />
				</g>
			</g>
		</g>
	</g>
	<g>
		<path d="M1200.78,457.24s5.37,24.41,2.73,31.2-10.97,6.57-10.97,6.57l13.95,39.78,62.22-8.86-1.13-34.88s-18.58-2.03-22.33-10.2c-3.76-8.17-.06-21.61-.06-21.61l-44.4-2.01h0Z" style="fill:#ebc88b;" />
		<g style="clip-path:url(#j);">
			<path d="M1198.69,489.45s16.27,12.2,32.54,9.35c16.27-2.85,24.4-13.83,24.4-13.83l13.42-.41-47.18,69.95-38.64-55.31,15.46-9.76h0Z" style="fill:#fdd900;" />
		</g>
	</g>
	<path d="M1217.51,463.58c2.37-1.41,2.9,.02,4.22-.04,1.45-.07,1.44-1.93,4.83-.09,3.66,1.99,4.6,3.99,4.95,5.31,.92,3.48-1.64,8.21-8.65,8.62-7.21,.42-11.3-3.75-10.14-7.67,.67-2.26,1.7-4.28,4.8-6.13h0Zm-.96,7.39c-.13,1,2.1,1.5,5.49,1.17,3.45-.34,6.01-.96,5.68-1.78-.26-.66-1.15-2.67-5.58-2.6-4.68,.08-5.53,2.78-5.59,3.21h0Z" style="fill:#e29b7b;" />
	<g>
		<path d="M1208.41,443.76c-2,.13-3.32,1.56-3.12,3.51s1.52,2.69,3.32,2.67c1.93-.03,3.25-1.36,3.25-3.38,0-1.43-1.39-2.93-3.45-2.8h0Z" style="fill:#235a96;" />
		<polygon points="1201.85 445.47 1210.12 446.1 1208.66 443.71 1201.86 444.26 1201.85 445.47" style="fill:#235a96;" />
	</g>
	<g>
		<path d="M1231.93,442.22c2,.13,3.32,1.56,3.12,3.51s-1.38,2.7-3.32,2.67c-2.12-.03-3.43-1.06-3.25-3.38,.11-1.43,1.39-2.93,3.45-2.8h0Z" style="fill:#235a96;" />
		<polygon points="1238.03 443.17 1230.71 444.6 1231.58 442.32 1237.83 441.78 1238.03 443.17" style="fill:#235a96;" />
	</g>
	<path d="M1228.34,443.34s3.22-2.32,6.43-3.02c3.21-.7,6.7-.2,6.7-.2v-1.77s-3.57-1.4-8.32-.47c-2.47,.48-6.42,3.21-6.42,3.21l1.61,2.24h0Z" style="fill:#e8af34;" />
	<path d="M1210.96,444.66s-2.87-1.8-6.08-2.49c-3.21-.7-6.43,.57-6.43,.57l-.15-1.47s3.54-2.77,8.3-1.84c2.47,.48,5.91,3.13,5.91,3.13l-1.55,2.1h0Z" style="fill:#e8af34;" />
	<g>
		<path d="M1156.54,513.46s10.48,71.18,9.36,98.11c-1.13,26.93-4.95,33.6-9.67,57.55-4.17,21.15,5.35,34.95,5.35,34.95l4.04,16.08s44.22-1.87,72.96-4.86,67.56-17.33,67.56-17.33l-1.35-17.7s8.8-4.06,6.09-23.02c-6.99-48.95-20.32-145.37-25.08-152.43-6.2-9.21-28.67-18.19-28.67-18.19,0,0-7.66,9.25-14.61,18.77s-13.27,24.92-13.27,24.92c0,0-10.23-13.43-20.08-22.06s-19.67-19.51-19.67-19.51l-32.97,24.71h.01Z" style="fill:#284f4f;" />
		<g style="clip-path:url(#k);">
			<path d="M1121.04,706.44s84.81-4.51,110.19-6.85c48.6-4.47,89.83-23.76,89.83-23.76l-.37,41.12s-164.67,33.82-164.67,31.15-34.97-41.67-34.97-41.67h0Z" style="fill:#4f6a6a;" />
		</g>
	</g>
	<path d="M1267.24,509.72s18.12,89.78,22.27,108.51c4.15,18.74,4.35,48.64,4.35,48.64l34.41,1.55s.19-14.22,4.82-18.73,9.95-12.17,6.91-31c-3.03-18.83-41.09-111.34-52.88-121.7-11.79-10.36-15.53-6.38-22.99-3.12-7.98,3.49,3.11,15.86,3.11,15.86h0Z" style="fill:#284f4f;" />
	<path d="M1176.05,496s-14.66,6.16-19.5,15.85c-5.28,10.56-7.02,92.08-5.56,92.03l35.84,6.89s10.78,4.85,5.39-44.18-16.17-70.59-16.17-70.59h0Z" style="fill:#284f4f;" />
	<g>
		<polygon points="1239.97 538.27 1241.6 570.54 1279.99 567.61 1278.05 537.67 1239.97 538.27" style="fill:#c6a4c9;" />
		<path d="M1257.35,540.91l-11.35,.24,.36,13.29s6.49-.34,6.49,3.67c0,3.1-6.52,2.59-6.52,2.59l.03,7.22s14.25,.73,14.25-9.47c0-8.97-8.21-9.33-8.21-9.33l-.39-3.05,5.57-.21-.22-4.95h-.01Z" style="fill:#ea683e;" />
		<path d="M1261.66,540.97l1.09,25.91s15.45,.05,14.74-13.97c-.67-13.38-15.83-11.95-15.83-11.95h0Z" style="fill:#ea683e;" />
	</g>
	<path d="M1125.19,547.76l19.24-12.48,9.86,13.11s12.59,4.89,16.37,12.09,33.22,68.98,33.22,68.98c0,0-40.3-3.8-47.49-11.38-7.18-7.58-21.33-27.29-24.78-38.88-3.45-11.59-5.55-26.69-5.55-26.69l-.87-4.73v-.02Z" style="fill:#284f4f;" />
	<path d="M1173.27,497.45l15.98-11.52s16.72,19.33,23.41,24.16c6.69,4.83,13.42,10.22,13.42,10.22,0,0,13.59-10.31,16.44-14.91s14.61-18.77,14.61-18.77l14.25,.04s3.72,1.49,1.11,8.92c-2.6,7.43-44.21,41.5-44.21,41.5l-55.02-38.15" style="fill:#4f6a6a;" />
	<g>
		<path d="M140.66,409.72l-46.22,8.85s-17.7,61.45-8.36,105.2c9.34,43.76,14.75,47.69,13.77,60.96s2.46,46.7,5.9,63.91c3.44,17.21,12.78,39.33,12.78,39.33l25.57-2.46s-10.32-64.4-7.86-76.69c2.46-12.29,4.42-26.55,8.36-46.7,3.93-20.15-3.93-152.4-3.93-152.4h0Z" style="fill:#54535e;" />
		<path d="M182.94,416.11s16.71,55.55,17.21,82.1-17.21,74.23-15.73,87.51-1.48,53.58-1.96,67.35c-.49,13.77-6.39,34.91-6.39,34.91l-23.11-3.44s-4.42-41.79-4.42-58.5-.49-23.11-1.96-33.92c-1.48-10.82-12.29-164.2-12.29-164.2,0,0,51.62-13.27,48.67-11.8h0Z" style="fill:#54535e;" />
		<path d="M128.62,681.28c-4.96,.42-15.25,0-15.25,0,0,0,8.53,17.94,8.32,25.18-.1,3.54-3.39,9.62-3.72,15.3-.34,5.92-1.76,10.87-1.76,10.87l8.79,3.6,6.19-1.83s4.72,5.25,11.79,6.8c10.25,2.24,27.49-1.65,27.49-1.65,0,0,.59-11-7.03-13.23-8.47-2.48-10.95-8.89-14.26-19.22-3.31-10.33-5.17-30.8-5.17-30.8,0,0-5.48,4.18-15.39,5h0Z" style="fill:#272a3e;" />
		<path d="M148.35,669.45l15.71,1.24,1.24,10.95s3.1-10.75,9.3-11.16,8.27,1.24,8.27,1.24c0,0-7.02,20.9-4.75,25.86,2.28,4.96,2.68,14.03,8.88,17.14s11.16,1.44,13.23,5.17c2.07,3.72,2.28,10.95,2.28,10.95,0,0-8.47,2.89-20.26,2.69s-12.61-1.03-14.68-3.72c-2.07-2.69-5.58-6.2-5.58-6.2,0,0,.42,4.55-.21,4.55s-13.44,.42-13.44,.42c0,0-2.89-7.44,1.03-18.6,3.93-11.16,2.48-15.91,1.86-20.67-.62-4.75-2.89-19.84-2.89-19.84h.01Z" style="fill:#272a3e;" />
	</g>
	<path d="M81.43,490.72s-2.33,12.27-1.46,26.57c.68,11.08,1.46,22.17,1.46,22.17,0,0,8.86-3.34,41.57-7.67,32.71-4.33,42.19,.89,62.18-1.33,14.97-1.66,26.38-5.29,26.38-5.29,0,0-5.08-33.49-7.48-41.66s-8.18-22.13-8.18-22.13l-114.47,29.34h0Z" style="fill:#272a3e;" />
	<path d="M199.11,371.88s7.08,28.73,6.2,36.6c-.88,7.88-12.04,17.09-12.04,17.09,0,0-17.22-6.13-16.34-6.42s.29-45.52,.29-45.52l21.88-1.75h0Z" style="fill:#e2a972;" />
	<g>
		<path d="M124.29,316.17c-20.88,.95-32.89,8.1-42.79,13.88-6.38,3.72,5.2,28.73,5.2,39.89s-6,66.37-7.04,80.91c-1.04,14.54-1.58,49.69-1.58,49.69,0,0,48.86,1.54,77.93-2.35,29.08-3.9,54.07-19.43,54.07-19.43,0,0-16.64-34.67-21.83-55.44-5.19-20.77-13.8-37.01-13.03-55.44,.78-18.43,13.51-35.9,7.54-40.32-5.97-4.42-37.55-12.32-58.47-11.37h0Z" style="fill:#e6f1e2;" />
		<path d="M175.59,326.49c-6.98,.82-6.61,26.57-5.31,38.77,1.3,12.2,.59,25.6,.59,25.6,0,0,15.32,.13,23.37,1.43,8.05,1.3,12.03-1.57,12.03-1.57,0,0-3.28-23.9-11.33-43.37-8.05-19.47-10.52-21.89-19.36-20.86h0Z" style="fill:#e6f1e2;" />
		<path d="M67.12,386.68s.98,33.55,4.27,40.24c3.29,6.69,19.07,1.93,25.87,1.07s-1.17-16.88-.53-25.59c.64-8.71,0-24.1-3.19-26.22-3.19-2.12-27.59,.51-26.42,10.5h0Z" style="fill:#e2a972;" />
		<path d="M71.39,402.36c-5.12,10.45-1.78,29.45,4.27,29.55s33.09,1.36,44.88,.08c11.78-1.27,37.97-12.17,45.83-16.42,7.86-4.25,12-21.02,16.45-23.57,4.46-2.55,7.32-2.76,8.81-3.82,1.49-1.06,1.91-4.67,1.91-4.67,0,0-11.57,3.71-13.9,4.99-2.33,1.27-6.37,4.46-6.37,4.46,0,0,5.42-6.37,7.54-7.12s7.32-2.55,10.19-2.76c2.87-.21,3.39-3.71,3.39-3.71l-15.29,.74s5.42-1.81,6.69-1.7,4.67,.21,6.05-.32,1.49-3.29,1.49-3.29l-8.39-1.27-9.13,1.7s4.46-3.71,6.16-4.99c1.7-1.27,.21-4.88,.21-4.88,0,0-12.42,6.9-13.48,8.18-1.06,1.27-2.12,8.49-3.82,11.36s-8.07,13.9-12.32,15.93c-4.25,2.02-16.45,2.65-29.41,3.39-12.95,.74-49.12-7.28-51.77-1.87h.01Z" style="fill:#e2a972;" />
		<path d="M68.7,340.78c-3.05,5.5-5.87,55.44-5.87,55.44,0,0,12.69-6.82,19.95-3.44,7.27,3.38,17.91,4.42,17.91,4.42l-11.69-71.08s-16.42,7.65-20.31,14.67h0Z" style="fill:#e6f1e2;" />
		<path d="M92.42,357.52l16.19-5.81s13.14-.72,15.99,1.94c2.85,2.65,4.89,13.95,7.23,16.5,2.34,2.54,24.14,14.16,33.51,16.09,9.37,1.94,16.6,1.94,20.98,4.79,4.38,2.85,19.15,5.83,19.15,17.55s-3.47,19.22-13.44,16.88c-9.98-2.34-21.08-2.45-33.81-12.42-12.73-9.98-23.83-22.41-27.6-24.03-3.77-1.63-7.43-.1-10.29-4.38-2.85-4.28-4.89-9.16-4.89-9.16l-1.63,2.04s-4.28-1.53-6.11-4.48c-1.83-2.95-2.45-14.16-2.45-14.16,0,0-7.02,2.14-9.88,2.14s-2.95-3.46-2.95-3.46h0Z" style="fill:#e2a972;" />
	</g>
	<path d="M112.09,292.86s2.06,12.16,1.22,16.71c-.83,4.55-7.05,9.61-7.05,9.61,0,0,2.56,13.46,26.27,11.53,21.95-1.78,23.07-12.82,23.07-12.82,0,0-7.49-1.86-7.49-8.07s.42-17.81,.42-17.81c0,0-35.61,0-36.44,.83h0Z" style="fill:#e2a972;" />
	<g>
		<path d="M124.77,240.51c-6.46,.63-23.99,.62-28.04,28.96-4.05,28.34-11.07,43.04-2.17,52.35,8.9,9.31,11.99,21.1,11.99,21.1,0,0,7.21-1.41,12.06-12.74,4.86-11.34-7.2-34.62-3.56-50.81s6.88-27.12,10.52-26.31c3.64,.81,13.35,9.04,20.23,22.94s.18,24.13-.4,33.73c-1.12,18.57,14.15,32.05,14.15,32.05,0,0,.9-7.97,7.78-23.35,6.88-15.38-1.44-24.32-6.71-48.6-5.26-24.29-15.22-31.35-35.87-29.33h0Z" style="fill:#272a3e;" />
		<g style="clip-path:url(#l);">
			<path d="M119.61,229.09s6.02,9.16,6.67,15.99c.65,6.84-.11,10.69-.11,10.69l1.72,.07s.75-6.5-.08-11.51-5.09-14.59-5.09-14.59c0,0-3.13-.41-3.11-.66h0Z" style="fill:#e2a972;" />
		</g>
	</g>
	<g>
		<path d="M134.61,312.7c-10.86,1.33-25.88-2.95-27.45-20.27-1.57-17.32,6.72-23.02,10.42-29.02,4.22-6.85,3.49-10.6,9.4-11.19s5.52,1.93,13.22,12.62c7.7,10.69,12.45,15.08,12.99,25.08,.54,10-8.26,21.53-18.59,22.78h0Z" style="fill:#e2a972;" />
		<g style="clip-path:url(#m);">
			<g>
				<path d="M126.02,271.36s-4.4-2.19-7.73-1.87c-3.81,.36-4.01,.94-4.01,.94l.2,1.66s2.52-.06,3.92,.09c3.22,.34,7.23,1.72,7.23,1.72,0,0,.6-2.69,.4-2.54Z" style="fill:#a3853f;" />
				<path d="M135.55,270.2s2.99-2.09,5.83-2.78,5.28,.58,5.28,.58l-.07,2.01c-.08,.03-2.03-.39-3.88,.15-1.72,.5-6.54,2.52-6.54,2.52,0,0-.86-2.61-.64-2.48h0Z" style="fill:#a3853f;" />
			</g>
		</g>
	</g>
	<path d="M133.86,294.77c.77,.15,1.99-1.04,4.7,.42,2.71,1.46,3.38,3.53,3.09,4.24s-6.29,3.15-9.25,3c-2.96-.16-8.8-1.13-8.97-2.18s4.48-6.11,7.23-6.33c2.75-.21,3.08,.82,3.21,.85h-.01Z" style="fill:#ef8227;" />
	<g>
		<path d="M120.51,279.04l-5.19-1.82,.9-1.54,5.78,1.84s-1.37,1.59-1.48,1.52h0Z" style="fill:#2e425b;" />
		<polygon points="121.66 277.86 120.95 273.3 122.25 273.04 123.05 277.16 121.66 277.86" style="fill:#2e425b;" />
		<path d="M122.3,275.96c-1.57-.13-2.78,.84-2.85,2.39s.67,2.63,2.07,2.84c1.66,.25,2.8-.86,3.04-2.45,.17-1.12-.64-2.64-2.27-2.78Z" style="fill:#2e425b;" />
	</g>
	<g>
		<path d="M140.33,278.24l5.6-1.66-.55-1.73-6.09,1.9s.93,1.54,1.05,1.49h0Z" style="fill:#2e425b;" />
		<polygon points="139.61 276.58 140.76 272.3 139.53 271.91 138.36 275.77 139.61 276.58" style="fill:#2e425b;" />
		<path d="M139.18,274.91c1.58,.04,2.67,1.13,2.58,2.67-.1,1.55-1.18,2.32-2.61,2.37-1.68,.07-2.46-.93-2.52-2.53-.05-1.13,.92-2.56,2.55-2.52h0Z" style="fill:#2e425b;" />
	</g>
	<path d="M1063.05,879.14s-.36,13.13,.19,18.28c.54,5.12-1.49,17.05-1.49,17.05l26.77-3.61s-3.16-13.83-3.59-20.2,2.45-20.2,2.45-20.2l-24.34,8.69h0Z" style="fill:#4f4e47;" />
	<path d="M992.17,875.17s-1.7,14.75-.79,21.59c.92,6.84-3.6,15.78-3.6,15.78l-24.96-1.77s4.35-12.98,5.26-19.38c.92-6.4-.19-18.31-.19-18.31l24.28,2.08h0Z" style="fill:#4f4e47;" />
	<g>
		<path d="M991.86,897.07c4.32-1.14,3.37,13.92,4.62,22.33,1.18,7.94,2.72,14.62,2.72,14.62,0,0-19.9,5.9-21.96,8.55-2.06,2.65-6.41,5.74-14.43,6.84-8.01,1.11-25.65-.44-27.02-2.87s-2.34-11.56,4.53-16.18c6.87-4.64,13.56-12.06,15.86-16.47,2.29-4.41,3.43-21.19,13.97-19.64,10.54,1.54,13.74,13.69,17.41,12.14,3.67-1.54,2.54-8.83,4.31-9.3h0Z" style="fill:#006835;" />
		<g style="clip-path:url(#n);">
			<path d="M929.83,941.91s5.04,1.77,6.87,.22c1.83-1.54,.69-3.49,4.81-3.49s4.58,4.16,10.31,4.6c5.73,.44,10.08,1.11,16.26-3.09,6.18-4.19,6.87-7.06,13.52-9.93,6.64-2.87,19.01-12.36,19.01-12.36l.23,35.54-75.58,6.4s4.58-17.44,4.58-17.88h0Z" style="fill:#009250;" />
		</g>
	</g>
	<g>
		<path d="M1057.52,936.77s9.34,2.96,11.05,6.86,1.71,6.98,12.15,8.01c10.44,1.03,22.97-.21,26.6-2.46,3.62-2.26,3.34-11.02,1.23-14.93-3.07-5.68-13.4-11.52-15.69-17.72-2.84-7.73-4.18-22.2-13.63-20.53-9.55,1.69-9.16,11.29-12.79,12.32-3.62,1.03-3.84-3.29-3.84-3.29,0,0-4.27,18.48-4.27,24.24s-.82,7.52-.82,7.52h0Z" style="fill:#006835;" />
		<g style="clip-path:url(#o);">
			<path d="M1056.63,918.98s.64,4.52,5.54,8.62,8.1,5.34,9.59,9.65,3.41,7.81,9.16,8.21c5.75,.41,7.24-3.49,13.21-3.29,5.96,.21,6.15,3.81,8.52,3.08,4.19-1.29,9.73-12.43,9.73-12.43l1.13,17.76-40.06,11.29-27.06-28.55,10.23-14.38v.02Z" style="fill:#009250;" />
		</g>
	</g>
	<path d="M979.92,623.13l97.71-2.05s1.43,9.59,6.04,16.09c4.62,6.51,8.89,28.77,10.66,43.49,1.78,14.72,3.5,48.52,2.08,66.66-1.43,18.14-.86,44.28-.15,55.23,.71,10.96,3.2,32.19,2.84,48.96s-8.74,39.71-8.74,39.71c0,0-7.69,5.75-14.44,5.75s-15.36-1.66-15.36-1.66c0,0-9.91-34.69-8.84-57.97,1.06-23.28-3.8-53.5-10.91-75.75-7.11-22.26-11.71-29.86-11.71-29.86,0,0-7.62,18.27-12.96,32.31-5.33,14.04-6.44,37.02-7.08,42.42-1.21,10.13-2.54,39.84-4.67,49.42-2.13,9.59-12.21,37.22-12.21,37.22,0,0-16.81,1.49-20.72,1.14-3.91-.34-8.7-3.2-8.7-3.2,0,0-5.11-28.54-6.88-42.92-1.78-14.38,3.89-60.74,2.83-72.04-1.06-11.3-4.16-60.65-3.09-83.94,1.06-23.28,15.5-74.62,24.31-69h.02Z" style="fill:#4f4e47;" />
	<path d="M1026.18,348.8c-6.68,.24-9.16,5.9-14.43,7.43s-13.62-1.98-18.48,3.39c-4.87,5.37-3.16,9.46-5.19,12.54-2.02,3.07-7.56,2.51-10.4,11.34-2.76,8.58-.69,10.31-.46,14.54,.24,4.47-3.91,10.67-4.39,16.61-.65,8.08,7.03,11.12,9.32,15.69,2.61,5.22,3.8,15.05,8.99,18.63,8.1,5.59,17.2,7.05,20.85,11.28,3.65,4.22,2.3,1.25,17.09,2.78,12.04,1.24,12.93-5.16,16.98-5.94s10.55-2.86,15.89-8.61c6.02-6.48,4.78-14.59,8.43-17.27s9.59-7.75,9.59-13.52-4.77-11.7-4.84-15.35c-.09-5.28,3.48-8.29-.07-17.76-3.31-8.84-9.17-9.95-12.42-13.02-3.24-3.07,.58-8.78-5.46-12.64-8.48-5.44-9.73-1.15-14.6-3.84-4.87-2.69-5.44-6.67-16.39-6.28h0Z" style="fill:#4f4e47;" />
	<path d="M1006.7,429.61s4.08,17.18,3.29,25.35c-1.3,13.55-17.64,25.79-17.64,25.79l35.26,14.24,39.09-15.45s-18.83-11.63-21.63-22.47c-2.8-10.85,.13-24.59,.13-24.59l-38.5-2.87h0Z" style="fill:#c48648;" />
	<path d="M998.87,421.76c0,8.97,5.61,18.64,10.77,24.27,5.17,5.63,10.05,9.78,20.09,8.86,7.74-.71,13.33-3.98,16.39-8.52,4.13-6.11,12.93-18.05,11.16-28.39-1.02-5.97-7.11-14.41-9.5-19.32-3.87-7.93-5.67-12.39-20.49-11.76-12.95,.55-17.39,2.4-20.62,12.07-2.91,8.74-7.8,15.81-7.8,22.8h0Z" style="fill:#c48648;" />
	<path d="M1023.77,431.01c2.57-.69,3.63-.14,4.59-.2,1.05-.07,2.49-.61,5.28-.52,3.54,.11,5.93,5.57,6.1,6.47,.32,1.72-.53,3.22-1.3,4.07-2.12,2.31-3.56,3.71-8.98,4.02-5.1,.29-8.9-1.62-10.19-3.92-1-1.78-2.09-2.04-1.81-3.85,.31-1.97,3.73-5.39,6.29-6.08h0Zm-.29,7.35c.22,.74,2.61,.82,5.41,.82s5.43-.71,5.16-1.63c-.22-.74-1.86-2.58-5.5-2.27-4.99,.42-5.19,2.62-5.06,3.09Z" style="fill:#ad5850;" />
	<path d="M1001.92,413.67s-9.22-6.71-9.59,.69c-.36,7.4,2.26,14.44,4.67,14.44,2.88,0,6.83-4.57,6.83-4.57l-1.92-10.55h0Z" style="fill:#c48648;" />
	<path d="M1052.23,414.88s10.41-7.2,10.77,.2c.36,7.4-2.26,14.44-4.67,14.44-2.88,0-6.83-4.57-6.83-4.57l.73-10.06h0Z" style="fill:#c48648;" />
	<g>
		<path d="M1014.98,410.44c-1.98,.13-3.29,1.54-3.09,3.48,.2,1.93,1.51,2.64,3.29,2.64,2.11,0,3.22-1.34,3.22-3.35,0-1.42-1.38-2.9-3.41-2.77h0Z" style="fill:#4f4e47;" />
		<polygon points="1010.78 411.41 1019.37 412.05 1019.23 410 1010.28 409.01 1010.78 411.41" style="fill:#4f4e47;" />
	</g>
	<g>
		<path d="M1038.78,409.94c1.98,.13,3.29,1.54,3.09,3.48-.2,1.93-1.51,2.64-3.29,2.64-2.11,0-3.22-1.34-3.22-3.35,0-1.42,1.38-2.9,3.41-2.77h0Z" style="fill:#4f4e47;" />
		<polygon points="1043.83 410.08 1035.14 411.41 1034.95 409.53 1043.99 407.56 1043.83 410.08" style="fill:#4f4e47;" />
	</g>
	<path d="M1034.03,408.96s1.56-2.98,4.74-3.67,8.12-.46,8.12-.46l-.12-1.62s-4.71-1.62-9.41-.69c-2.45,.48-5.65,4.04-5.65,4.04l2.32,2.41h0Z" style="fill:#3a4b36;" />
	<path d="M1021.04,410.17s-2.35-2.65-5.53-3.35c-3.18-.69-8.12-.46-8.12-.46l.12-1.62s4.71-1.62,9.41-.69c2.45,.48,5.65,4.04,5.65,4.04l-1.53,2.08h0Z" style="fill:#3a4b36;" />
	<path d="M956.56,655.91l8.9,28.35s5.22-7.99,9.98-13.41c4.76-5.43,6.34-12.74,6.34-12.74,0,0-2.41-.76-7.38-4.46-4.45-3.31-4.22-6.99-4.22-6.99l-13.62,9.24h0Z" style="fill:#c48648;" />
	<path d="M1097.67,662.55l-10.38,24.97s-4.45-4.74-9.01-10.31c-4.57-5.57-8.49-11.83-8.49-11.83,0,0,5.59-4.3,8.6-7.22,2.91-2.83,8.6-7.91,8.6-7.91l10.68,12.29h0Z" style="fill:#c48648;" />
	<path d="M1128.5,598.07c-2.08-15.95-29.67-110.61-31.37-114.25-5.89-12.63-13.89-13.32-23.64-15.91-9.75-2.61-25.84-5.65-25.84-5.65,0,0-9.08,6.43-19.18,6.84s-21.16-6.2-21.16-6.2c0,0-15.97,4.72-26.9,7.49-10.93,2.78-16.49,5.56-22.72,11.07-8.79,7.77-34.28,102.08-35,120.51-1.62,41.73,34.86,70.94,34.86,70.94,0,0-.64-.38,5.41-9.08,5.5-7.91,15.15-9.22,15.15-9.22,0,0,27.13,5.71,47.27,3.96,17.14-1.5,38.58-3.24,52.94-4.48,1.92,1.79,5.09,5,8.9,9.75,5.1,6.37,10.08,12.67,10.19,12.11,0,0,37.04-32.24,31.1-77.87v.02Z" style="fill:#f4d027;" />
</svg>
