<svg xmlns="http://www.w3.org/2000/svg" viewBox="0 0 1920 1080">
	<defs>
		<clipPath id="uuid-a9665d64-9e7d-4ed1-9324-69fbbfa7901d">
			<path class="uuid-70ba38f7-62c0-46b5-84ae-2d7119aa5f3b" d="M0 0h1920v1080H0z" />
		</clipPath>
		<clipPath id="uuid-f060233d-7e40-4f66-9f2b-da109dba3b09">
			<path class="uuid-7cdaa4b5-c1df-47f1-8351-3703aa097c34" d="M1858.29 104.74s.19 2.01.39 3.88 3.8 4.33 7.95 7.1c4.16 2.77 6.56 6.32 6.84 9.48.28 3.16.16 44.61-.08 55.75s-.36 37.58.08 43.32c.44 5.74-2.63 7.17-5.62 7.02-3-.14-31.93.79-38.63.47-6.7-.32-5.65-4.42-5.79-7.57-.14-3.15.09-31.76-.1-42.78s.52-43.87 1.86-50.95c1.34-7.08 10.06-16.11 12.63-18.99 2.57-2.88 1.91-4.06 1.91-4.06l18.57-2.69Zm-.46 18.56c-.74.8-.63 7.12-.86 15.11-.24 8-.72 15.12.75 17.34 1.47 2.21 7.9 2.23 8.9-.86 1.01-3.1.58-9.12.72-15.12s.87-12.25-1.27-15.36c-2.14-3.1-6.58-2.89-8.24-1.11Z" />
		</clipPath>
		<style>
			.uuid-70ba38f7-62c0-46b5-84ae-2d7119aa5f3b{fill:none}.uuid-0779617b-a2af-4faf-9689-0daecd4ebba1{fill:#0076c0}.uuid-50f72582-4042-47be-9abc-13caf9281984{fill:#e49a54}.uuid-bfe2ade2-e9b6-4b2d-b4de-f810f6523097{fill:#e6007e}.uuid-9f34449c-f554-45cc-9379-fa02757748c5{fill:#eebed4}.uuid-e627d1ec-2633-4ec5-b33c-01cc369f4a6c{fill:#fcc01f}.uuid-8a747e76-626f-4a35-80af-67cd4cca90c3{fill:#e8308a}.uuid-f5d77a11-38dc-4480-8804-f4efb7a35789{fill:#9e8044}.uuid-3ec59a7b-0c84-4636-a099-189dd3fff66d{fill:#a18944}.uuid-929d3ad6-2b60-42ac-8b30-9292d2ba2c66{fill:#b7a36a}.uuid-d8f6477d-ae79-4a49-b4f2-9eb516713da2{fill:#d0aed1}.uuid-a097e8c3-3bfa-40a4-825b-4099dee09432{fill:#c3e3eb}.uuid-0fb7d130-6ecb-4a46-aaef-84d7a54515fe{fill:#e0be86}.uuid-39304848-ac03-4cde-ae02-805c9e58e23f{fill:#d9e1e4}.uuid-16668a05-0808-4039-a12a-24618a34d6fe{fill:#6fb055}.uuid-91064557-cbbc-4e43-9e9c-04aa95ac2bed{fill:#53c0da}.uuid-d603a5eb-9dfb-4a72-b1fc-c69632d30c60{fill:#555772}.uuid-4006e931-8250-4b11-bb68-ab8bdd9cfb1e{fill:#595a74}.uuid-cb592c5d-45fe-4399-a2dd-e29b766e5138{fill:#2d2b40}.uuid-3855982a-b250-4e2c-959f-3ef8b52f9ea4{fill:#3a425f}.uuid-b2ade420-ce19-4644-a796-5443b242fbde{fill:#5a6155}.uuid-054db796-bcbc-410a-a969-7743dc285e0f{fill:#2f5354}.uuid-7cdaa4b5-c1df-47f1-8351-3703aa097c34{fill:#4b9149}
		</style>
	</defs>
	<g style="clip-path:url(#uuid-a9665d64-9e7d-4ed1-9324-69fbbfa7901d)" id="uuid-6694ab5c-7f23-4b06-8d4a-105f99e1704b">
		<path style="fill:#e2edf5" d="M-340.95-165.42h2325.36V966.13H-340.95z" />
		<path style="fill:#f0f3f8" d="M-630.79 761.64h2433.77v676.64H-630.79z" />
		<path style="fill:#f9f8f8" d="m866.35-139.92.78 976.45 1543.1 2.72-.06-976.12-1543.82-3.05z" />
		<path style="fill:#f0d3b7" d="M-438.33 804.61h2433.77v676.64H-438.33z" />
		<path class="uuid-50f72582-4042-47be-9abc-13caf9281984" d="m2339.73 956.76-.8-367.34-1473.25-4.5-1.46 371.25 1475.51.59z" />
		<path class="uuid-9f34449c-f554-45cc-9379-fa02757748c5" d="m1506.59 612.26.47 307.33 174.05.84V613.95l-174.52-1.69zM1868.93 919.17l-2.45-303.36-178.07-.88 2.15 306.92 178.37-2.68z" />
		<path class="uuid-16668a05-0808-4039-a12a-24618a34d6fe" d="M1664.61 626.27c-5.99.52-8.49 5.07-8.04 9 .52 4.59 3.54 7.85 9.02 7.7 5.17-.14 8.9-4.56 7.72-10.03-.98-4.52-4.25-7.06-8.7-6.67ZM1706.2 626.89c-5.99.52-8.49 5.07-8.04 9 .52 4.59 3.54 7.85 9.02 7.7 5.17-.14 8.9-4.56 7.72-10.03-.98-4.52-4.25-7.06-8.7-6.67Z" />
		<path class="uuid-e627d1ec-2633-4ec5-b33c-01cc369f4a6c" d="m893.18 615.63-.45 72.61 273.86 3.76-.44-74.51-272.97-1.86zM892.74 699.14l271.63 3.12.9 66.94-271.64-1.23-.89-68.83zM893.85 776.44l272.07 1.22.45 64.41-273.42-1.23.9-64.4zM894.07 849.46l-1.31 69.75h274.06l1.07-68.4-273.82-1.35z" />
		<path class="uuid-bfe2ade2-e9b6-4b2d-b4de-f810f6523097" d="M1027.99 643.86c5.99-.52 8.49-5.07 8.04-9-.52-4.59-3.54-7.85-9.02-7.7-5.17.14-8.9 4.56-7.72 10.03.98 4.52 4.25 7.06 8.7 6.67ZM1025.4 726.94c5.99-.52 8.49-5.07 8.04-9-.52-4.59-3.54-7.85-9.02-7.7-5.17.14-8.9 4.56-7.72 10.03.98 4.52 4.25 7.06 8.7 6.67ZM1028.33 800.54c5.99-.52 8.49-5.07 8.04-9-.52-4.59-3.54-7.85-9.02-7.7-5.17.14-8.9 4.56-7.72 10.03.98 4.52 4.25 7.06 8.7 6.67ZM1030.46 876.77c5.99-.52 8.49-5.07 8.04-9-.52-4.59-3.54-7.85-9.02-7.7-5.17.14-8.9 4.56-7.72 10.03.98 4.52 4.25 7.06 8.7 6.67Z" />
		<path class="uuid-d8f6477d-ae79-4a49-b4f2-9eb516713da2" d="m1194.3 617.17 271.48.7.15 119.53-271.63-1.23v-119zM1194.7 744.81l271.22.06-.15 89.74-268.7-.22-2.37-89.58zM1196.48 843.88l-.6 75.93 269.9 1.78v-77.12l-269.3-.59z" />
		<path class="uuid-bfe2ade2-e9b6-4b2d-b4de-f810f6523097" d="M1333.77 644.41c5.99-.52 8.49-5.07 8.04-9-.52-4.59-3.54-7.85-9.02-7.7-5.17.14-8.9 4.56-7.72 10.03.98 4.52 4.25 7.06 8.7 6.67ZM1336.78 770.43c5.99-.52 8.49-5.07 8.04-9-.52-4.59-3.54-7.85-9.02-7.7-5.17.14-8.9 4.56-7.72 10.03.98 4.52 4.25 7.06 8.7 6.67ZM1335.72 870.1c5.99-.52 8.49-5.07 8.04-9-.52-4.59-3.54-7.85-9.02-7.7-5.17.14-8.9 4.56-7.72 10.03.98 4.52 4.25 7.06 8.7 6.67Z" />
		<path class="uuid-50f72582-4042-47be-9abc-13caf9281984" d="m1282.87 382.53-.22-421.42-421.95-2.16.01 421.16 422.16 2.42z" />
		<path class="uuid-9f34449c-f554-45cc-9379-fa02757748c5" d="m893.77 65.93-3.97 282.14 174.05.94 4.44-281.19-174.52-1.89zM1251.67 347.6l6.68-276.35-177.51-1.04-7.54 280.39 178.37-3z" />
		<path class="uuid-8a747e76-626f-4a35-80af-67cd4cca90c3" d="M1045.5 320.28c-5.99.52-8.49 5.07-8.04 9 .52 4.59 3.54 7.85 9.02 7.7 5.17-.14 8.9-4.56 7.72-10.03-.98-4.52-4.25-7.06-8.7-6.67ZM1097.63 317.78c-5.99.52-8.49 5.07-8.04 9 .52 4.59 3.54 7.85 9.02 7.7 5.17-.14 8.9-4.56 7.72-10.03-.98-4.52-4.25-7.06-8.7-6.67Z" />
		<g>
			<path class="uuid-39304848-ac03-4cde-ae02-805c9e58e23f" d="m910.64 516.94.22 37.54-34.22.24.55-37.54 33.45-.24zM910.82 476.06l.23 36.71-33.45-.17.16-36.29 33.06-.25zM911.55 434.53l.22 37.54-34.23.24.56-37.54 33.45-.24zM949.35 516.17l.23 37.54-34.23.24.56-37.54 33.44-.24zM949.54 475.29l.22 36.71-33.44-.17.16-36.29 33.06-.25zM953.2 516.19l-.56 37.53 34.22.6-.22-37.54-33.44-.59zM953.38 475.31l-.55 36.7 33.44.18.16-36.29-33.05-.59zM1023.93 516.55l.22 37.54-34.22.24.55-37.53 33.45-.25zM1024.11 475.68l.23 36.7-33.45-.17.16-36.29 33.06-.24zM911.62 393.06l.22 36.71-33.44-.17.16-36.29 33.06-.25zM950.33 392.29l.23 36.71-33.45-.18.16-36.28 33.06-.25zM954.17 392.31l-.55 36.7 33.45.18.16-36.29-33.06-.59zM1024.91 392.68l.22 36.7-33.44-.17.16-36.29 33.06-.24zM950.26 433.76l.22 37.54-34.22.24.55-37.54 33.45-.24zM954.1 433.78l-.55 37.53 34.22.6-.22-37.54-33.45-.59zM1024.84 434.14l.22 37.54-34.23.24.56-37.53 33.45-.25z" />
			<g>
				<path class="uuid-39304848-ac03-4cde-ae02-805c9e58e23f" d="m1063.83 516.94.23 37.54-34.23.24.56-37.54 33.44-.24zM1064.02 476.06l.22 36.71-33.44-.17.16-36.29 33.06-.25zM1064.74 434.53l.22 37.54-34.22.24.55-37.54 33.45-.24zM1102.55 516.17l.22 37.54-34.23.24.56-37.54 33.45-.24zM1102.73 475.29l.22 36.71-33.44-.17.16-36.29 33.06-.25zM1106.39 516.19l-.56 37.53 34.22.6-.22-37.54-33.44-.59zM1106.57 475.31l-.55 36.7 33.44.18.17-36.29-33.06-.59zM1177.12 516.55l.23 37.54-34.23.24.56-37.53 33.44-.25zM1177.31 475.68l.22 36.7-33.45-.17.17-36.29 33.06-.24zM1064.81 393.06l.23 36.71-33.45-.17.16-36.29 33.06-.25zM1103.52 392.29l.23 36.71-33.45-.18.16-36.28 33.06-.25zM1107.37 392.31l-.56 36.7 33.45.18.16-36.29-33.05-.59zM1178.1 392.68l.23 36.7-33.45-.17.16-36.29 33.06-.24zM1103.45 433.76l.22 37.54-34.22.24.55-37.54 33.45-.24zM1107.3 433.78l-.56 37.53 34.22.6-.22-37.54-33.44-.59zM1178.03 434.14l.22 37.54-34.22.24.55-37.53 33.45-.25z" />
			</g>
			<g>
				<path class="uuid-39304848-ac03-4cde-ae02-805c9e58e23f" d="m1217.03 516.94.22 37.54-34.23.24.56-37.54 33.45-.24zM1217.21 476.06l.22 36.71-33.44-.17.16-36.29 33.06-.25zM1217.93 434.53l.22 37.54-34.22.24.55-37.54 33.45-.24zM1255.74 516.17l.22 37.54-34.23.24.56-37.54 33.45-.24zM1255.92 475.29l.23 36.71-33.45-.17.16-36.29 33.06-.25zM1259.58 516.19l-.55 37.53 34.22.6-.22-37.54-33.45-.59zM1259.76 475.31l-.55 36.7 33.45.18.16-36.29-33.06-.59zM1330.32 516.55l.22 37.54-34.23.24.56-37.53 33.45-.25zM1330.5 475.68l.22 36.7-33.44-.17.16-36.29 33.06-.24zM1218 393.06l.23 36.71-33.45-.17.16-36.29 33.06-.25zM1256.72 392.29l.22 36.71-33.44-.18.16-36.28 33.06-.25zM1260.56 392.31l-.55 36.7 33.44.18.16-36.29-33.05-.59zM1331.29 392.68l.23 36.7-33.45-.17.16-36.29 33.06-.24zM1256.65 433.76l.22 37.54-34.23.24.56-37.54 33.45-.24zM1260.49 433.78l-.56 37.53 34.22.6-.22-37.54-33.44-.59zM1331.22 434.14l.22 37.54-34.22.24.55-37.53 33.45-.25z" />
			</g>
			<g>
				<path class="uuid-39304848-ac03-4cde-ae02-805c9e58e23f" d="m1370.22 516.94.22 37.54-34.23.24.56-37.54 33.45-.24zM1370.4 476.06l.23 36.71-33.45-.17.16-36.29 33.06-.25zM1371.12 434.53l.23 37.54-34.23.24.56-37.54 33.44-.24zM1408.93 516.17l.22 37.54-34.22.24.55-37.54 33.45-.24zM1409.11 475.29l.23 36.71-33.45-.17.16-36.29 33.06-.25zM1412.77 516.19l-.55 37.53 34.22.6-.22-37.54-33.45-.59zM1412.96 475.31l-.56 36.7 33.45.18.16-36.29-33.05-.59zM1483.51 516.55l.22 37.54-34.23.24.56-37.53 33.45-.25zM1483.69 475.68l.23 36.7-33.45-.17.16-36.29 33.06-.24zM1371.2 393.06l.22 36.71-33.44-.17.16-36.29 33.06-.25zM1409.91 392.29l.22 36.71-33.44-.18.16-36.28 33.06-.25zM1413.75 392.31l-.55 36.7 33.44.18.17-36.29-33.06-.59zM1484.49 392.68l.22 36.7-33.44-.17.16-36.29 33.06-.24zM1409.84 433.76l.22 37.54-34.23.24.56-37.54 33.45-.24zM1413.68 433.78l-.56 37.53 34.23.6-.23-37.54-33.44-.59zM1484.41 434.14l.23 37.54-34.23.24.56-37.53 33.44-.25z" />
			</g>
			<g>
				<path class="uuid-39304848-ac03-4cde-ae02-805c9e58e23f" d="m1523.41 516.94.22 37.54-34.22.24.55-37.54 33.45-.24zM1523.59 476.06l.23 36.71-33.45-.17.16-36.29 33.06-.25zM1524.32 434.53l.22 37.54-34.23.24.56-37.54 33.45-.24zM1562.12 516.17l.23 37.54-34.23.24.56-37.54 33.44-.24zM1562.31 475.29l.22 36.71-33.45-.17.17-36.29 33.06-.25zM1565.97 516.19l-.56 37.53 34.22.6-.22-37.54-33.44-.59zM1566.15 475.31l-.55 36.7 33.44.18.16-36.29-33.05-.59zM1636.7 516.55l.22 37.54-34.22.24.55-37.53 33.45-.25zM1636.88 475.68l.23 36.7-33.45-.17.16-36.29 33.06-.24zM1524.39 393.06l.22 36.71-33.44-.17.16-36.29 33.06-.25zM1563.1 392.29l.23 36.71-33.45-.18.16-36.28 33.06-.25zM1566.94 392.31l-.55 36.7 33.45.18.16-36.29-33.06-.59zM1637.68 392.68l.22 36.7-33.44-.17.16-36.29 33.06-.24zM1563.03 433.76l.22 37.54-34.22.24.55-37.54 33.45-.24zM1566.87 433.78l-.55 37.53 34.22.6-.22-37.54-33.45-.59zM1637.61 434.14l.22 37.54-34.23.24.56-37.53 33.45-.25z" />
			</g>
			<g>
				<path class="uuid-39304848-ac03-4cde-ae02-805c9e58e23f" d="m1676.6 516.94.23 37.54-34.23.24.56-37.54 33.44-.24zM1676.79 476.06l.22 36.71-33.45-.17.17-36.29 33.06-.25zM1677.51 434.53l.22 37.54-34.22.24.55-37.54 33.45-.24zM1715.32 516.17l.22 37.54-34.23.24.56-37.54 33.45-.24zM1715.5 475.29l.22 36.71-33.44-.17.16-36.29 33.06-.25zM1719.16 516.19l-.56 37.53 34.22.6-.22-37.54-33.44-.59zM1719.34 475.31l-.55 36.7 33.44.18.17-36.29-33.06-.59zM1789.89 516.55l.22 37.54-34.22.24.55-37.53 33.45-.25zM1790.07 475.68l.23 36.7-33.45-.17.17-36.29 33.05-.24zM1677.58 393.06l.23 36.71-33.45-.17.16-36.29 33.06-.25zM1716.29 392.29l.23 36.71-33.45-.18.16-36.28 33.06-.25zM1720.14 392.31l-.56 36.7 33.45.18.16-36.29-33.05-.59zM1790.87 392.68l.23 36.7-33.45-.17.16-36.29 33.06-.24zM1716.22 433.76l.22 37.54-34.22.24.55-37.54 33.45-.24zM1720.06 433.78l-.55 37.53 34.22.6-.22-37.54-33.45-.59zM1790.8 434.14l.22 37.54-34.22.24.55-37.53 33.45-.25z" />
			</g>
			<g>
				<path class="uuid-39304848-ac03-4cde-ae02-805c9e58e23f" d="m1829.8 516.94.22 37.54-34.23.24.56-37.54 33.45-.24zM1829.98 476.06l.22 36.71-33.44-.17.16-36.29 33.06-.25zM1830.7 434.53l.22 37.54-34.22.24.55-37.54 33.45-.24zM1868.51 516.17l.22 37.54-34.23.24.56-37.54 33.45-.24zM1868.69 475.29l.23 36.71-33.45-.17.16-36.29 33.06-.25zM1872.35 516.19l-.56 37.53 34.23.6-.23-37.54-33.44-.59zM1872.53 475.31l-.55 36.7 33.45.18.16-36.29-33.06-.59zM1943.09 516.55l.22 37.54-34.23.24.56-37.53 33.45-.25zM1943.27 475.68l.22 36.7-33.44-.17.16-36.29 33.06-.24zM1830.77 393.06l.23 36.71-33.45-.17.16-36.29 33.06-.25zM1869.49 392.29l.22 36.71-33.44-.18.16-36.28 33.06-.25zM1873.33 392.31l-.55 36.7 33.44.18.16-36.29-33.05-.59zM1944.06 392.68l.23 36.7-33.45-.17.16-36.29 33.06-.24zM1869.41 433.76l.23 37.54-34.23.24.56-37.54 33.44-.24zM1873.26 433.78l-.56 37.53 34.22.6-.22-37.54-33.44-.59zM1943.99 434.14l.22 37.54-34.22.24.55-37.53 33.45-.25z" />
			</g>
		</g>
		<path style="fill:#c3c5ca" d="m1385.44 130.54-1.37 236.24-62.18 6.46.52 26.28 248.85-.81v-24.82l-62.83-5.49V132.6l-122.99-2.06z" />
		<path class="uuid-4006e931-8250-4b11-bb68-ab8bdd9cfb1e" d="m1873.29 333.25 1.21 54.51h13.33v-53.3l-14.54-1.21zM1875.09 240.93l1.21 54.5h13.32v-53.29l-14.53-1.21zM1591.97 333.25l1.21 54.51h13.32v-53.3l-14.53-1.21zM1593.29 240.93l1.21 54.5h13.33v-53.29l-14.54-1.21z" />
		<path d="M1622.25 267.86s2.53 6.17 6.32 8.67c5.08 3.34 10.98 7.16 10.98 7.16l91.58-6.72s12.55-6.89 14.73-10.17c2.19-3.28 3.72-7.41 3.72-7.41l-127.33 8.46Z" style="fill:#f8f7f1" />
		<path d="M1619.44 277.03s2.11 6.33 5.72 9.07c4.84 3.68 10.47 7.89 10.47 7.89l91.82-.53s12.98-6.02 15.39-9.15c2.4-3.13 4.21-7.14 4.21-7.14l-127.61-.14Z" style="fill:#cfb884" />
		<path class="uuid-054db796-bcbc-410a-a969-7743dc285e0f" d="M1617.85 292.1s2.11 6.33 5.72 9.07c4.84 3.68 10.47 7.89 10.47 7.89l91.82-.53s12.98-6.02 15.39-9.15c2.4-3.13 4.21-7.14 4.21-7.14l-127.61-.14Z" />
		<path d="M1618.64 307.17s2.11 6.33 5.72 9.07c4.84 3.68 10.47 7.89 10.47 7.89l91.82-.53s12.98-6.02 15.39-9.15c2.4-3.13 4.21-7.14 4.21-7.14l-127.61-.14Z" style="fill:#7e897b" />
		<path class="uuid-929d3ad6-2b60-42ac-8b30-9292d2ba2c66" d="m1570.08 335.96 335.21 2.18.54-15.62-336.14-.52.39 13.96z" />
		<g>
			<path class="uuid-b2ade420-ce19-4644-a796-5443b242fbde" d="M1666.74 554.13h20.85v14.99h-20.85zM1848.94 554.13h20.85v14.99h-20.85z" />
			<path d="M1868.05 564.32h-220.77c-3.08 0-5.6-2.52-5.6-5.6l.95-123.27c0-3.08 1.57-7.23 4.66-7.23h220.77c3.08 0 5.6 2.52 5.6 5.6v124.9c0 3.08-2.52 5.6-5.6 5.6Z" style="fill:#fbf8f7" />
			<path d="M1858.57 502.53c4.07-.36 5.77-3.44 5.46-6.11-.35-3.11-2.4-5.33-6.12-5.23-3.51.1-6.05 3.1-5.24 6.81.66 3.07 2.88 4.8 5.91 4.53Z" style="fill:#0090cf" />
			<path d="M1858.57 519.05c4.07-.36 5.77-3.44 5.46-6.11-.35-3.11-2.4-5.33-6.12-5.23-3.51.1-6.05 3.1-5.24 6.81.66 3.07 2.88 4.8 5.91 4.53Z" style="fill:#007585" />
			<path style="opacity:.75;fill:#2d2b40" d="M1687.29 451.59h145.78v88.95h-145.78z" />
		</g>
		<g>
			<path class="uuid-91064557-cbbc-4e43-9e9c-04aa95ac2bed" d="M826.71 733.07c-9.58-.99-54.27.81-67.87.69-13.6-.12-19.11 9.99-19.21 22.04 0 .6 0 1.66-.01 3.1l105.32-.87c-.01-12.88-5.71-23.65-18.22-24.95ZM739.66 763.69c-.05 36.06.06 183.34.06 183.34l106.41.1s-1.72-159.97-1.27-184.34l-105.19.89Z" />
			<path d="M844.87 760.5c.04-.83.06-1.66.06-2.47l-105.32.87v5.08l105.19-.89c.02-1.14.05-2.02.08-2.59Z" style="fill:#7dcce3" />
			<path style="fill:#5d5b69" d="m771.84 934.42-5.18 24.33 44.09.54-3.66-23.95-35.25-.92z" />
		</g>
		<g>
			<path d="M186.19 267.94c-21.74 0-41.68-8.22-56.15-23.14-13.54-13.97-20.67-32.34-20.07-51.72.6-19.56 7.8-37.34 20.26-50.07 13.55-13.83 32.48-21.14 54.75-21.14.53 0 1.06 0 1.59.01 47.24.73 72.99 36.22 74 70.91.56 19.3-7.01 38.51-20.78 52.69-14.07 14.48-33.1 22.46-53.6 22.46Z" style="fill:#a3cdef" />
			<path d="M184.98 124.65c.51 0 1.03 0 1.55.01 44.12.68 70.25 33.26 71.27 68.21 1.1 37.66-29.53 72.29-71.61 72.29s-74.68-32.26-73.45-72c1.15-37.21 26.7-68.52 72.24-68.52m0-5.54c-23.03 0-42.65 7.6-56.73 21.97-12.95 13.22-20.43 31.66-21.05 51.92-.62 20.14 6.78 39.22 20.85 53.73 14.99 15.46 35.64 23.98 58.14 23.98 21.25 0 40.99-8.27 55.59-23.3 14.29-14.71 22.15-34.65 21.57-54.7-.56-19.21-8.03-37.2-21.03-50.65-14.17-14.67-33.43-22.6-55.7-22.95-.55 0-1.09-.01-1.64-.01Z" style="fill:#fcf6e7" />
			<g>
				<path class="uuid-cb592c5d-45fe-4399-a2dd-e29b766e5138" d="M186.46 209.09c-.82.09-1.51-.5-1.52-1.33 0 0-1.7-61.66-1.61-62.66.13-1.48.2-2.54 1.7-2.84 1.51-.31 2.34.57 2.47 2.01.13 1.44 5.75 62.95 5.75 62.95.07.82-.55 1.57-1.37 1.66l-5.42.21Z" />
				<path class="uuid-cb592c5d-45fe-4399-a2dd-e29b766e5138" d="M152.36 214.36c.37.73 1.3 1.08 2.06.76l44.43-18.45c.76-.32 1.05-1.16.64-1.88l-2.12-5.7c-.41-.72-1.33-.97-2.05-.57l-42.87 22.71c-.72.4-1 1.32-.63 2.06l.54 1.07Z" />
			</g>
		</g>
		<g>
			<path class="uuid-7cdaa4b5-c1df-47f1-8351-3703aa097c34" d="M1858.29 104.74s.19 2.01.39 3.88 3.8 4.33 7.95 7.1c4.16 2.77 6.56 6.32 6.84 9.48.28 3.16.16 44.61-.08 55.75s-.36 37.58.08 43.32c.44 5.74-2.63 7.17-5.62 7.02-3-.14-31.93.79-38.63.47-6.7-.32-5.65-4.42-5.79-7.57-.14-3.15.09-31.76-.1-42.78s.52-43.87 1.86-50.95c1.34-7.08 10.06-16.11 12.63-18.99 2.57-2.88 1.91-4.06 1.91-4.06l18.57-2.69Zm-.46 18.56c-.74.8-.63 7.12-.86 15.11-.24 8-.72 15.12.75 17.34 1.47 2.21 7.9 2.23 8.9-.86 1.01-3.1.58-9.12.72-15.12s.87-12.25-1.27-15.36c-2.14-3.1-6.58-2.89-8.24-1.11Z" />
			<g style="clip-path:url(#uuid-f060233d-7e40-4f66-9f2b-da109dba3b09)">
				<path style="fill:#006749" d="M1818.67 144.01h60.36l-1.28 48.55-59.85-.52.77-48.03z" />
			</g>
			<path class="uuid-3855982a-b250-4e2c-959f-3ef8b52f9ea4" d="M1841.15 103.25c-1.29.05-2.33.21-2.37 1.92-.04 1.72-.37 3.62.13 3.96s20.16.2 20.77.03c.57-.16.3-2.85.27-3.89-.03-1.04-.19-1.68-1.66-1.83-1.55-.16-15.77-.25-17.14-.2Z" />
		</g>
		<path class="uuid-929d3ad6-2b60-42ac-8b30-9292d2ba2c66" d="m1572.16 243.02 333.63 2.64-.01-13.74-334-2.85.38 13.95z" />
		<path class="uuid-d603a5eb-9dfb-4a72-b1fc-c69632d30c60" d="M1133.48 538.28h-1.49l-.27-33.27-4.12-.59.27 33.86h-6.75v-10.01h-3.7c.29-16.86.72-46.22.37-51.81-.33-5.35-1.24-12.35-5.29-19.04-4.83-7.97-12.96-13.38-24.15-16.08-6.93-1.67-13.44-1.02-19.35 1.94-4.59 2.3-8.73 5.98-12.31 10.92-5.84 8.07-8.24 16.86-8.34 17.23l8.93 2.4c.02-.08 2.13-7.7 7.03-14.38 6.03-8.23 13.19-11.21 21.87-9.12 8.83 2.13 14.85 6.02 18.41 11.89 3.01 4.96 3.7 10.52 3.97 14.82.3 4.87-.05 31.33-.39 51.24h-5.3c0-.59.59 40.34.59 40.34h17.67v-10.7l10.6-.19s7.95-.29 8.24-9.42c.29-9.13-6.48-10.01-6.48-10.01Z" />
		<path class="uuid-d603a5eb-9dfb-4a72-b1fc-c69632d30c60" d="m848.2 586.05 1417.68 8.06-.38-23.41-1416.75-8.49-.55 23.84z" />
	</g>
	<g id="uuid-ad30714c-6087-4603-a615-e3e5c3bc6e9f">
		<path class="uuid-3ec59a7b-0c84-4636-a099-189dd3fff66d" d="M500.38 164.8c-4.8.69-30.06-2.7-36.17 6.68s-2.5 15.42-5.01 24.46c-2.52 9.04 1.37 17.07.29 22.98s5.75 19.82 5.75 19.82l70.56 3.96s3.11-16.12 4.9-24.12c1.8-8 5.8-14.16 2.93-21.81-2.87-7.65-4.72-11.56-9.04-18.87-4.31-7.3-10.16-17.06-18.79-17.75-8.62-.7-10.63 3.97-15.42 4.66Z" />
		<path class="uuid-0fb7d130-6ecb-4a46-aaef-84d7a54515fe" d="M503.34 193.19c-8.41.32-13.68 4.88-21.94 4.88s-15.45 3.48-14.73 9.73c.72 6.26 2.48 23.81-.81 24.65-3.29.84-3.86-15.26-8.17-14.57-4.31.7-3.95 7.65-3.23 15.99.72 8.34 1.33 17.19 4.21 17.19s5.5-2.24 5.5-2.24-2.08 17.3 2.59 23.91c4.67 6.61 11.78 15.73 19.69 18.51 7.91 2.78 10.19-.31 17.09-2.49 6.8-2.15 15.38-8.6 20.03-16.48 3.53-5.98 3.85-18.93 6-19.62 2.16-.7 4.31 2.78 7.55-1.39 3.23-4.17 5.03-9.04 6.47-13.21 1.44-4.17 4.31-13.56.36-14.6-3.95-1.04-9.7 7.3-10.42 9.39-.72 2.09-2.87 3.48-3.23.7s2.52-8.69.72-13.56c-1.8-4.87-2.52-5.21-1.8-13.21s-10.42-8.69-15.09-9.39c-4.67-.7-2.35-4.5-10.76-4.18Z" />
		<path class="uuid-3ec59a7b-0c84-4636-a099-189dd3fff66d" d="m502.41 228.13-1.01 3.24s8.61-1.08 14.42 1.08c5.81 2.16 7.82 2.59 7.82 2.59l1.23-2.7s-7.74-6.46-14.12-7.11c-6.37-.65-8.35 2.89-8.35 2.89ZM490.18 230.13l1.01-2.49s-.85-5.25-9.37-5.7c-8.03-.43-11.71 3.91-11.71 3.91l.69 2.41s7.98-1.15 10.89-1.06c3.35.11 8.49 2.92 8.49 2.92Z" />
		<path class="uuid-0fb7d130-6ecb-4a46-aaef-84d7a54515fe" d="M465.81 239.79s7.51 31.69 1.96 40.65c-5.55 8.95-39.91 13.08-39.91 13.08s-10.18 39.1-9.26 37.91 150 33.47 148.46 33.47c-1.54 0-2.92-65.59-2.92-65.59s-31.66-12.52-38.45-18.78c-6.79-6.27-1.57-24.31-1.57-29.98v-14.63l-58.31 3.88Z" />
		<path class="uuid-70ba38f7-62c0-46b5-84ae-2d7119aa5f3b" d="M486.74 263.8s.16 2.51.32 4.07c.16 1.57 1.13 4.39 1.13 4.39l5.34-.47s.65-1.88.97-4.07c.32-2.19-.16-4.39-.16-4.39l-7.61.47Z" />
		<path d="M481.12 269.52c.85 1.46 1.78.77 3.28 2.12 1.5 1.34 2.08 3.66 7.63 3.78 5.55.12 10.53-2.81 12.26-2.44 1.73.37 2.2.13 2.43-.97.23-1.1-5.44-5.74-8.68-5.5-3.24.24-3.7 1.22-4.51 1.22s-1.5-2.08-4.51-1.34c-3.01.73-8.84 1.55-7.91 3.13Z" style="fill:#f3954a" />
		<path class="uuid-054db796-bcbc-410a-a969-7743dc285e0f" d="M481.83 231.72c-1.85-.52-3.5.37-3.93 2.2-.44 1.83.53 2.9 2.16 3.47 1.92.67 3.37-.2 4.01-2.04.45-1.3-.34-3.09-2.24-3.63Z" />
		<path class="uuid-054db796-bcbc-410a-a969-7743dc285e0f" d="m476.98 231.12 9.15 3.03 1.72-2.98-10.06-2.5-.81 2.45zM511.47 235.5c1.92.09 3.2 1.45 3.04 3.32-.16 1.88-1.42 2.58-3.14 2.61-2.04.03-3.14-1.25-3.17-3.2-.02-1.37 1.29-2.83 3.26-2.74Z" />
		<path class="uuid-054db796-bcbc-410a-a969-7743dc285e0f" d="m516.37 235.62-9.21.86-.69-3.36 9.9-.08v2.58z" />
		<path class="uuid-3855982a-b250-4e2c-959f-3ef8b52f9ea4" d="M545.82 903.65s.21 24.53-.63 37.12c-.84 12.58-2.93 31.03-2.93 31.03s7.54 4.82 7.96 8.6c.42 3.77-1.05 12.37-1.05 12.37s5.86 5.03 13.82 5.03 30.15.21 32.24-.21c2.09-.42 4.61-5.87 4.61-5.87s-.21-10.27-5.44-20.34-6.7-10.9-7.54-16.78c-.84-5.87-2.72-17.61-2.3-24.32.42-6.71-.42-27.05-.42-27.05l-38.32.42ZM421.45 902.18c-.42.63-1.26 26.84-3.14 34.18-1.88 7.34-6.07 22.65-10.05 26-3.98 3.36-13.82 11.74-14.03 17.4-.21 5.66-.84 17.4-.84 17.4s9.21.42 17.8.84c8.58.42 15.7.42 23.66-2.1 7.96-2.52 10.89-6.08 10.89-6.08l.21-9.44 17.59-8.18s-.42-3.56-1.05-14.05-5.86-20.55-5.44-23.7c.42-3.15 1.88-7.34 2.93-15.31 1.05-7.97.42-18.87.42-18.87l-38.95 1.89Z" />
		<path class="uuid-f5d77a11-38dc-4480-8804-f4efb7a35789" d="M553.01 930.95s9.32-3.11 16.02-2.88 13.94 2.17 13.94 2.17l.1 2.74s-6.38-2.31-15.23-1.67c-8.85.64-13.73 2.91-13.73 2.91l-1.09-3.27ZM551.8 923.28s9.32-3.11 16.02-2.88c6.7.23 13.94 2.17 13.94 2.17l.1 2.74s-6.38-2.31-15.23-1.67c-8.85.64-13.73 2.91-13.73 2.91l-1.09-3.27ZM450.65 921.46s-8-2.69-13.93-2.56c-6.05.13-12.97 1.74-12.97 1.74l-.48 2.43s6.26-2.01 14.27-1.39c7.86.61 12.09 2.59 12.09 2.59l1.01-2.81Z" />
		<path class="uuid-0779617b-a2af-4faf-9689-0daecd4ebba1" d="M422.38 548.47s-7.47 110.65-6.41 144.32 6.94 54.52 5.87 66.82c-1.07 12.29-3.2 96.22-3.2 113.32 0 17.1-2.14 52.92-2.14 52.92s12.28 6.41 25.09 4.81c12.81-1.6 24.02-5.88 24.02-5.88s4.8-12.83 3.74-26.19c-1.07-13.36 8.01-45.44 5.87-65.21-2.13-19.78 3.2-58.26 6.4-72.16 3.2-13.9 9.61-70.02 14.94-94.61 5.34-24.59 26.15-72.16 26.15-72.16l-13.34-49.71-87 3.74Z" />
		<path class="uuid-0779617b-a2af-4faf-9689-0daecd4ebba1" d="M498.18 568.25s21.35 104.23 24.55 149.13c3.2 44.9 4.8 48.64 5.87 57.19 1.07 8.55 4.27 90.34 8.01 110.11 3.74 19.78 6.94 48.64 6.94 48.64s8.54 1.6 20.28 2.67c11.74 1.07 23.48-3.74 23.48-3.74s4.8-13.36.53-51.31-7.47-104.23-8.01-116.53c-.53-12.29-2.67-12.83-1.07-30.47 1.6-17.64 13.34-79.65 12.28-109.04-1.07-29.4-16.01-91.4-16.01-91.4l-76.86 34.74Z" />
		<path class="uuid-a097e8c3-3bfa-40a4-825b-4099dee09432" d="M463.92 283.26s-3.44 7.03 7.59 14.63c11.04 7.6 26.14 6.3 26.14 6.3s17.21 1.13 24.83-10.06c5.37-7.88 3.22-13.61 3.22-13.61s14.53 5.97 30.05 12.54c15.52 6.56 37.8 8.19 39.86 16.13 2.07 7.94-23.73 72.99-20.63 94.06 3.1 21.07 9.19 93.07 10.56 107.93 1.38 14.85-7.94 43.1-7.94 43.1s6.34 10.13 3.51 11.27c-18.44 7.37-80.63 26.16-120.32 19.35-36.4-6.24-42.53-24.38-42.53-24.38s2.29-7.27 2.27-19.85c-.03-16.05-10.99-18.5-9.64-35.16 2.41-29.7 9.58-111.24 2.68-131.96-6.9-20.72-21.27-61.47-10.24-69.41 11.04-7.94 27.03-10.56 35.46-13.16 10.98-3.38 25.13-7.7 25.13-7.7Z" />
		<path class="uuid-a097e8c3-3bfa-40a4-825b-4099dee09432" d="M569.27 305.22c-19.77 13.2-6.44 68.18-.23 91.67 6.21 23.49 17.79 50.65 26.41 55.83 8.62 5.18 40.35 4.78 42.42-9.73 2.07-14.51-17.03-41.13-21.86-69.11-4.83-27.98-15.12-59.78-21.32-66.69-6.21-6.91-18.18-6.81-25.42-1.97Z" />
		<path class="uuid-0fb7d130-6ecb-4a46-aaef-84d7a54515fe" d="M576.73 540.32s-2.88 3.09-6.4 5.27c-3.52 2.18-12.29 7.32-16.59 12.12-4.3 4.8-21.17 21.37-21.17 21.37s1.32 5.96 7.94 3.48 11.91-7.12 11.91-7.12 3.14 8.78 13.9 10.77c10.75 1.99 18.2-.83 18.2-.83s4.8-6.3 7.94-13.25c3.14-6.96 8.77-21.87 8.77-21.87l-24.48-9.94Z" />
		<path class="uuid-a097e8c3-3bfa-40a4-825b-4099dee09432" d="M409.88 299.89c-14.3 4.87-22.06 26.27-29.49 47.18-7.44 20.91-14.59 91.95-14.59 91.95s2.57 29.79 16.3 19.48c13.73-10.31 50.34-87.08 50.34-87.08l-22.56-71.53ZM592.48 439.33s-4.85 44.36-8.49 62.29c-3.64 17.93-11.23 41.93-11.23 41.93s11.23 1.82 20.02 6.38c8.8 4.56 5.99 9.54 5.99 9.54l11.91-27.77s14.62.41 17.96-16c3.34-16.41 9.04-51.45 9.04-59.05 0-7.6 2.12-17.32-4.25-24.61-6.37-7.29-39.14-9.11-40.96 7.29Z" />
		<path class="uuid-0fb7d130-6ecb-4a46-aaef-84d7a54515fe" d="M360.92 365.17s-1.89-22.36-2.89-28.87c-1-6.51-6.41-26.72-6.15-29.77.26-3.05 6.83-39.84 6.83-39.84s4.69-1.33 5.59 3.75c.9 5.08-.96 27.09-.96 27.09s6.38-6.89 8.46-7.47c2.08-.58 6.35 2.75 6.62 4.44.27 1.68.57 2.36.57 2.36s2.32-.49 4.85 2.07.79 3.93.79 3.93 4.85-.8 5.51 3.72c.65 4.52-3.47 10.62-3.47 10.62s.49 8.54-1.84 17.65-4.05 10.67-3.09 12.99c.95 2.32-2.18 19.4-2.18 19.4s-18.49-2.21-18.63-2.08Z" />
		<path class="uuid-a097e8c3-3bfa-40a4-825b-4099dee09432" d="M356.4 342.02s10.01 4.25 17.6 5.47c7.58 1.22 13.05-2.43 13.05-2.43s.61 45.27 1.82 73.22c1.21 27.95-9.1 46.18-21.24 45.88-12.14-.3-21.24-9.11-22.45-32.21-1.21-23.09-8.09-41.15 4.25-54.08 6.46-6.78 6.98-35.85 6.98-35.85Z" />
		<path d="M532.48 231.66c-1-.22-4.28-.47-5.24-.75-.96-.27-5.97-2.07-12.67-2.33-6.74-.26-10.12.69-13.28 1.21-2.04.33-6.3.18-8.86-.67-3.04-1.01-6.22-2.48-12.92-3.29-6.65-.81-11.88.18-12.88.29-.99.12-3.63.08-4.56.19-.93.11-.09 3.72.52 4 .61.28 2.31.69 2.55 1.65.23.96.96 8.22 2.08 9.7 1.13 1.47 5.76 3.01 10.48 3.67 3.87.54 9.35-.17 10.58-1.24 1.06-.92 2.24-2.58 3.58-5.36 1.38-2.85 1.77-4.82 2.47-5.15.7-.33 3.91.02 4.35.32.64.43.71 2.45 1.63 5.47.89 2.95 1.79 4.78 2.69 5.86 1.05 1.25 6.35 2.82 10.26 2.9 4.76.09 9.58-.69 10.93-1.97 1.35-1.28 3.21-8.34 3.59-9.25.38-.91 2.34-.64 3.39-.97 1.05-.33 2.29-4.06 1.3-4.28Zm-42.75 5.4c-.83 2.26-2.1 3.82-3.1 4.94-1 1.11-5.99 1.57-9.27 1.01-3.61-.61-7.14-2.09-8.11-3.07-.97-.98-1.25-3.95-1.08-6.61.16-2.66.59-4.45 1.28-5.17.81-.85 5.77-.46 10.59.23 4.48.64 9.49 2 10.51 2.93 1.03.94 0 3.47-.83 5.73Zm32.55 7.29c-1.11.81-4.59 1.54-8.25 1.57-3.32.03-8.18-1.21-8.99-2.46-.81-1.26-1.81-3-2.28-5.37-.47-2.37-1.08-5.02.08-5.79 1.16-.76 6.32-1.31 10.84-1.24 4.87.08 9.58.65 10.25 1.62.57.83.71 2.66.45 5.31-.26 2.65-1 5.54-2.11 6.35Z" style="fill:#ea5b0c" />
	</g>
</svg>
