<?xml version="1.0" encoding="UTF-8"?>
<svg xmlns="http://www.w3.org/2000/svg" xmlns:xlink="http://www.w3.org/1999/xlink" viewBox="0 0 1920 1080">
	<defs>
		<style>
			.k,.l,.m,.n{fill:none;}.o{fill:#f8f7f0;}.p{fill:#f08d64;}.q{fill:#eeeef0;}.r{fill:#eb6a36;}.s{fill:#e8d180;}.t{fill:#f3d484;}.u{fill:#f1f1f3;}.v{fill:#feca1b;}.w{fill:#6b5738;}.x{fill:#8cabbc;}.y{fill:#30513f;}.a`{fill:#ddc07a;}.aa{fill:#cbced4;}.ab{fill:#dfbe84;}.ac{fill:#dda141;}.ad{fill:#afb1b4;}.ae{fill:#e2a972;}.af{fill:#a93985;}.ag{fill:#235a96;}.ah{fill:#1a4431;}.ai{fill:#a3853f;}.aj{fill:#6195b3;}.ak{fill:#497125;}.al{fill:#4f4e47;}.am{fill:#4f91b2;}.an{fill:#74a2be;}.l{stroke-width:9.95px;}.l,.m,.n{stroke:#e64427;}.l,.n{stroke-miterlimit:10;}.m{stroke-linejoin:round;stroke-width:2.15px;}.m,.n{stroke-linecap:round;}.ao{clip-path:url(#c);}.ap{clip-path:url(#e);}.aq{clip-path:url(#d);}.ar{clip-path:url(#j);}.as{clip-path:url(#i);}.at{clip-path:url(#h);}.au{clip-path:url(#g);}.n{stroke-width:11.45px;}
		</style>
		<clipPath id="c">
			<rect width="1920" height="1080" style="fill:none;" />
		</clipPath>
		<clipPath id="d">
			<polygon points="1163.04 435.44 1162.29 897.02 1346.5 891.85 1345.74 436.43 1163.04 435.44" style="fill:none;" />
		</clipPath>
		<clipPath id="e">
			<polygon points="1377.12 435.67 1380.93 890.2 1563.79 890.46 1559.25 432.61 1377.12 435.67" style="fill:none;" />
		</clipPath>
		<clipPath id="g">
			<path d="M1046.02,937.23c-12.45,.82-14.15,11.42-17.88,14.65-3.72,3.23-4.47,8.69-4.47,8.69,0,0,4.72,10.43,4.72,18.37s6.7,23.34,6.7,23.34c0,0,15.39-1.24,27.81-1.74s22.6-2.48,22.6-2.48c0,0,4.22-4.97-.74-14.15-4.97-9.19-8.19-8.19-13.16-18.37-4.97-10.18-6.7-16.64-6.7-16.64,0,0-3.72-12.66-18.87-11.67h-.01Z" style="fill:none;" />
		</clipPath>
		<clipPath id="h">
			<path d="M970.43,556.97c-13.46-.79-34.44,.4-41.17,14.25-6.73,13.86-6.33,22.56-6.33,22.56,0,0-15.04,4.35-17.42,16.63-2.38,12.27,.4,11.88,3.56,27.71,3.17,15.83,14.69,41.11,24.59,58.13s11.92,39.44,11.92,39.44c0,0,49.9-4.17,72.46-44.95,22.56-40.77,10.97-47.48,15.72-61.74,4.75-14.25,1.19-30.09-4.75-36.02-5.94-5.94-9.5-5.94-9.5-5.94,0,0-1.98-15.83-12.27-17.42-10.29-1.58-36.81-12.67-36.81-12.67v.02Z" style="fill:none;" />
		</clipPath>
		<clipPath id="i">
			<path d="M985.61,515.26s-8.37,20.77-15.44,28.08c-7.06,7.32-19.07,13.55-19.07,13.55l12.06-20.44s-10.24,2.33-15.78,9.55c-6.22,8.11-6.92,20.47-1.62,29.55s10.6,19.68,22.2,19.43,15.63-4.43,22.95-9.73,8.84-7.42,10.35-14.49c1.51-7.06,1.04-14.67,1.04-14.67l-12.55,14.57s3.48-18.74,.81-29.96c-1.24-5.21-4.94-25.45-4.94-25.45h-.01Z" style="fill:none;" />
		</clipPath>
		<clipPath id="j">
			<path d="M927.29,935.66c12.46-.69,15.43,9.63,19.51,12.39,4.09,2.76,5.48,8.09,5.48,8.09,0,0-3.43,10.92-2.47,18.81,.96,7.89-3.84,23.98-3.84,23.98,0,0-15.43,.62-27.82,1.62-12.38,1-22.73,.26-22.73,.26,0,0-4.79-4.42-.96-14.14,3.82-9.72,7.15-9.12,10.85-19.83,3.7-10.7,4.65-17.32,4.65-17.32,0,0,2.17-13.02,17.33-13.86h0Z" style="fill:none;" />
		</clipPath>
	</defs>
	<g id="a">
		<g id="b">
			<g style="clip-path:url(#c);">
				<g>
					<rect x="-116.96" y="-17.89" width="2108.82" height="1080.55" style="fill:#f3d484;" />
					<polygon points="-272.06 863.37 2098.84 859.96 2077.61 1277.89 -243.43 1276.69 -272.06 863.37" style="fill:#e8d180;" />
					<g>
						<polygon points="1130.58 910.46 1127.67 235.15 1589.08 234.47 1593.21 921 1130.58 910.46" style="fill:#a3853f;" />
						<polygon points="1163.72 296.28 1166.37 406.34 1555.07 405 1555.07 295.09 1163.72 296.28" style="fill:#74a2be;" />
						<g>
							<polygon points="1163.04 435.44 1162.29 897.02 1346.5 891.85 1345.74 436.43 1163.04 435.44" style="fill:#4f91b2;" />
							<g style="clip-path:url(#d);">
								<polygon points="1159.33 734.13 1154.82 955.88 1358.8 954.29 1362.91 732.42 1159.33 734.13" style="fill:#cbced4;" />
							</g>
						</g>
						<g>
							<polygon points="1377.12 435.67 1380.93 890.2 1563.79 890.46 1559.25 432.61 1377.12 435.67" style="fill:#4f91b2;" />
							<g style="clip-path:url(#e);">
								<polygon points="1374.51 732.38 1375.81 948.46 1580.66 946.55 1584.77 731.92 1374.51 732.38" style="fill:#cbced4;" />
							</g>
						</g>
					</g>
					<polygon points="-265.2 890.77 2105.71 887.36 2084.48 1305.29 -236.56 1304.08 -265.2 890.77" style="fill:#ddc07a;" />
					<path d="M1401.11,619.02c.56,19.27-15.11,36.98-36.64,36.98s-38.2-16.5-37.58-36.83c.59-19.25,13.96-35.42,37.75-35.05,22.57,.35,35.94,17.02,36.46,34.9h.01Zm-36.62-25.89c-17.83-.28-27.85,11.84-28.29,26.27-.47,15.24,12.03,27.61,28.16,27.61s27.88-13.28,27.46-27.72c-.39-13.4-10.41-25.89-27.33-26.16h0Z" style="fill:#30513f;" />
					<g>
						<path d="M1372.48,64.55c-49.2-.76-76.83,32.67-78.06,72.47-1.3,42.04,33.18,76.16,77.7,76.16s76.92-36.63,75.76-76.47c-1.08-36.97-28.72-71.44-75.39-72.16h0Z" style="fill:#eeeef0;" />
						<g>
							<polygon points="1369.58 149.11 1371.92 96.98 1375.73 96.47 1376.95 148.84 1369.58 149.11" style="fill:#30513f;" />
							<polygon points="1341.24 156.04 1382.41 139.56 1380.23 132.26 1339.5 152.6 1341.24 156.04" style="fill:#30513f;" />
						</g>
						<g>
							<polygon points="1394.96 88.21 1394.96 90.24 1397.45 90.02 1397.59 100.99 1400.26 101.2 1400.08 86.9 1394.96 88.21" style="fill:#30513f;" />
							<g>
								<polygon points="1334.78 88.42 1334.78 90.45 1337.26 90.22 1337.41 101.2 1340.08 101.41 1339.9 87.11 1334.78 88.42" style="fill:#30513f;" />
								<polygon points="1341.41 87.59 1341.41 89.62 1343.9 89.39 1344.04 100.37 1346.71 100.58 1346.53 86.28 1341.41 87.59" style="fill:#30513f;" />
							</g>
							<g>
								<polygon points="1364.42 81.16 1364.42 83.19 1366.9 82.97 1367.05 93.94 1369.44 93.6 1369.26 79.3 1364.42 81.16" style="fill:#30513f;" />
								<path d="M1372.52,80.83s3.87-3.01,6.42-.82c2.09,1.79,1.87,3.98-.03,6.52-1.91,2.55-4,4.53-4,4.53l4.41-.15,.26,2.12-7.44,.23,.02-2.51s1.66-2.02,3.59-4.33c1.49-1.79,2.42-2.91,1.57-4.18-.9-1.34-3.64,.36-3.64,.36l-1.14-1.78h-.02Z" style="fill:#30513f;" />
							</g>
							<path d="M1412.93,105.23s3.91-3.97,7.29-1.68c2.8,1.89,2.18,4.7,.05,7.55-2.13,2.85-3.97,4.86-3.97,4.86h4.84l-.15,2.51-8.29,.17-.18-2.6s2.23-2.83,4.49-5.33c1.96-2.17,3.11-3.34,2.09-4.63-1.32-1.68-5.04,.99-5.04,.99l-1.12-1.82v-.02Z" style="fill:#30513f;" />
							<path d="M1419.84,131.35s6.82-1.7,7.36,3.63c.38,3.75-3.44,4.4-3.44,4.4,0,0,4.17,.66,4.1,4.01-.1,5.39-7.73,4.62-7.73,4.62l-.12-2.2s5.31-.11,5.13-2.53-4.29-1.81-4.29-1.81l-.42-3.24s4.41-.11,4.41-2.97-4.65-2.09-4.65-2.09l-.36-1.81h.01Z" style="fill:#30513f;" />
							<polygon points="1410.79 160.31 1409.17 169.56 1415.28 169.38 1415.73 174.32 1417.75 174.45 1417.39 160 1415.19 159.78 1415.19 167.14 1411.88 167.16 1412.54 160.11 1410.79 160.31" style="fill:#30513f;" />
							<path d="M1399.24,178.02h-5.94l-.16,6.77s5.07-.37,5.12,2.25c.06,3-5,2.62-5,2.62l.04,2.23s7.01,.64,7.17-4.62c.14-4.62-5.1-4.78-5.1-4.78l.1-2.08,3.71-.16,.06-2.22h0Z" style="fill:#30513f;" />
							<path d="M1372.57,184.55s-6.83,4.87-6.83,8.88,1.71,5.27,5.04,5.08c2.76-.16,4.15-3.73,3.18-5.8-1.37-2.95-5.11-2.07-5.11-2.07l4.98-5.39-1.24-.69h-.02Z" style="fill:#30513f;" />
							<path d="M1314.75,149.68s6.74-5.84,6.46-10.31-2.36-5.57-5.44-5.38c-3.08,.2-4.36,4.45-3.13,6.69,1.74,3.19,5.85,1.95,5.85,1.95l-5.16,6.36,1.43,.68h-.01Z" style="fill:#30513f;" />
							<polygon points="1341.06 177.64 1350.39 178.06 1347.9 192.98 1345.62 192.98 1347.07 180.75 1341.06 179.92 1341.06 177.64" style="fill:#30513f;" />
							<path d="M1325.65,159.86c-3.13,.23-4.08,1.74-4.19,4.12-.14,3.07,3.15,3.57,3.15,3.57,0,0-3.57,1.2-3.36,4.1,.21,2.9,1.84,4.26,4.54,4.26s5.37-1.14,4.89-4.61c-.49-3.49-3.57-3.75-3.57-3.75,0,0,3.43-.39,3.23-3.5-.21-3.11-1.88-4.4-4.68-4.19h-.01Z" style="fill:#30513f;" />
							<g>
								<polygon points="1314.62 111.35 1314.62 113.39 1316.43 113.35 1316.58 124.33 1318.88 124.17 1319.06 110.24 1314.62 111.35" style="fill:#30513f;" />
								<path d="M1324.07,110.44c-2.68,.18-4.23,3.55-4.03,6.63,.19,3.07,.77,6.92,4.9,7.01,4.13,.1,4.71-4.42,4.42-7.3-.29-2.88-1.06-6.63-5.28-6.34h-.01Z" style="fill:#30513f;" />
							</g>
						</g>
					</g>
					<g>
						<g>
							<polygon points="328.97 161.87 330.29 554.43 582.81 556.24 582.1 163.41 328.97 161.87" style="fill:#eeeef0;" />
							<polygon points="346.02 180.85 347.69 519.2 566.66 520.87 565.54 182.24 346.02 180.85" style="fill:#6195b3;" />
						</g>
						<polygon points="454.13 178.71 449.39 529.18 462.38 529.64 466.38 178.57 454.13 178.71" style="fill:#eeeef0;" />
						<polygon points="334.52 267.7 568.9 269.39 569.07 256.41 334.3 255.45 334.52 267.7" style="fill:#eeeef0;" />
						<polygon points="338.86 356.55 573.23 358.25 573.41 345.26 338.63 344.3 338.86 356.55" style="fill:#eeeef0;" />
						<polygon points="336.69 447.58 571.07 449.27 571.24 436.28 336.47 435.32 336.69 447.58" style="fill:#eeeef0;" />
					</g>
					<g>
						<g>
							<polygon points="641.12 163.97 642.44 556.52 894.96 558.34 894.25 165.51 641.12 163.97" style="fill:#eeeef0;" />
							<polygon points="658.18 182.95 659.85 521.3 878.81 522.97 877.69 184.34 658.18 182.95" style="fill:#6195b3;" />
						</g>
						<polygon points="766.28 180.81 761.54 531.28 774.53 531.74 778.53 180.67 766.28 180.81" style="fill:#eeeef0;" />
						<polygon points="646.67 269.8 881.05 271.49 881.22 258.5 646.45 257.54 646.67 269.8" style="fill:#eeeef0;" />
						<polygon points="651.01 358.65 885.39 360.35 885.56 347.36 650.78 346.4 651.01 358.65" style="fill:#eeeef0;" />
						<polygon points="648.84 449.67 883.22 451.37 883.39 438.38 648.62 437.42 648.84 449.67" style="fill:#eeeef0;" />
					</g>
					<g>
						<polygon points="265.74 439.47 268.81 980.48 281.85 980.26 281.88 440.46 265.74 439.47" style="fill:#30513f;" />
						<g>
							<path d="M162.68,445.14c-.16-23.87-.69-116.75,.43-137.03,.44-7.88,11.29-22.7,34.07-36.61,23.8-14.53,52.42-22.86,78.51-22.86,.95,0,1.9,0,2.85,.03,64.2,1.44,105.53,42.89,106.63,64.97,1.12,22.43-.38,109.98-.8,133.09l-221.7-1.61v.02Z" style="fill:#eeeef0;" />
							<path d="M275.7,254.33c.91,0,1.82,0,2.73,.03,27.33,.61,53.62,9.05,74.03,23.75,18.1,13.04,26.63,27.39,27.05,35.83,1.04,20.73-.19,97.94-.71,127.08l-210.47-1.53c-.19-30.21-.58-112.28,.46-131.07,.31-5.56,10.24-19.18,31.35-32.07,22.94-14,50.47-22.03,75.55-22.03m0-11.37c-60.88,0-116.97,41.56-118.26,64.83-1.31,23.65-.4,142.99-.4,142.99l232.92,1.69s2.22-112.83,.9-139.1c-1.31-26.28-45.99-68.89-112.18-70.37-.99-.02-1.99-.03-2.98-.03h0Z" style="fill:#235a96;" />
						</g>
						<polygon points="229.99 325.38 231.3 392.8 320.78 390.85 320.49 323.12 229.99 325.38" style="fill:none; stroke:#e64427; stroke-miterlimit:10; stroke-width:9.95px;" />
						<g>
							<line x1="347.08" y1="417.55" x2="198.7" y2="417.06" style="fill:none; stroke:#e64427; stroke-linecap:round; stroke-miterlimit:10; stroke-width:11.45px;" />
							<path d="M234.58,502.43c.49,14.79-8.76,32.97-2.79,36.95,8.87,5.92,16.21-18.31,16.21-18.31,0,0-4.93,20.21,2.96,20.7,8.87,.55,10.35-21.2,10.35-21.2,0,0-3.54,22.68,8.38,22.68,8.38,0,7.39-21.2,7.39-21.2,0,0-.99,22.68,9.86,21.2,8.53-1.16,5.42-22.18,5.42-22.18,0,0,9.37,22.18,18.24,17.75,8.87-4.44-7.89-21.2-6.9-34.51,.99-13.31,40.42-82.81,40.42-82.81l-143.45,.99s33.5,67.96,33.9,79.95h0Z" style="fill:none; stroke:#e64427; stroke-linecap:round; stroke-linejoin:round; stroke-width:2.15px;" />
							<polygon points="248 521.07 270.94 422.58 292.36 521.07 223.33 422.58 277.08 522.06 322.43 421.99 261.31 520.58 200.67 422.48 248 521.07" style="fill:none; stroke:#e64427; stroke-linecap:round; stroke-linejoin:round; stroke-width:2.15px;" />
							<polyline points="253.91 421.99 234.18 494.9 300.82 422.78 303.67 503.68" style="fill:none; stroke:#e64427; stroke-linecap:round; stroke-linejoin:round; stroke-width:2.15px;" />
						</g>
					</g>
				</g>
			</g>
		</g>
	</g>
	<g id="f">
		<g>
			<rect x="1106.51" y="806.36" width="11.77" height="4.15" transform="translate(-5.2 7.2) rotate(-.37)" style="fill:#8cabbc;" />
			<rect x="1111.59" y="888.2" width="11.77" height="4.15" transform="translate(-5.73 7.23) rotate(-.37)" style="fill:#8cabbc;" />
			<rect x="1113.43" y="976.26" width="11.77" height="4.15" transform="translate(-64.73 79.43) rotate(-3.95)" style="fill:#8cabbc;" />
		</g>
		<g>
			<rect x="836.46" y="802.54" width="11.77" height="4.15" transform="translate(-15.7 16.77) rotate(-1.13)" style="fill:#8cabbc;" />
			<rect x="833.53" y="884.48" width="11.77" height="4.15" transform="translate(-17.32 16.73) rotate(-1.13)" style="fill:#8cabbc;" />
			<rect x="837.8" y="969.03" width="4.15" height="11.77" transform="translate(-170.19 1772.17) rotate(-87.54)" style="fill:#8cabbc;" />
		</g>
		<path d="M836.28,774.37c-4.29-.12-4.8,2.12-4.94,7.77-.14,5.65-1.92,211.7-2.2,215.09-.28,3.39-.34,7.84,4.18,7.84s4.73-5.19,4.58-8.44c-.14-3.25,2.34-211.1,2.34-213.93s1.13-8.19-3.96-8.34h0Z" style="fill:#f8f7f0;" />
		<path d="M1121.21,775.08c4.29-.24,4.86,1.98,5.17,7.63,.3,5.64,7.98,211.56,8.36,214.94s.57,7.82-3.95,7.95c-4.52,.13-4.87-5.05-4.82-8.3s-8.38-210.95-8.47-213.77-1.36-8.16,3.72-8.45h-.01Z" style="fill:#f1f1f3;" />
		<path d="M1112.52,789.28l-.48,15.23s3.69,12.01,4.39,17.09c.56,4.1,1.15,11.08,1.15,11.08,0,0,5.27-.55,6-3.46,.73-2.92,2.54-10.54,2.54-10.54l2.54,17.23s7.58-3.37,8.31-5.31c.73-1.94-.16-7.06,1.05-7.55,1.21-.49,7.53-5.35,8.75-8.02,1.21-2.67-4.37-17.98-8.02-23.81-3.64-5.83-4.13-16.52-4.13-16.52l-22.11,2.92v11.66h0Z" style="fill:#e2a972;" />
		<path d="M840.75,779.66l2.53,15.03s-2.04,12.4-2.04,17.52c0,4.14,.35,11.14,.35,11.14,0,0-5.3,.17-6.42-2.62s-3.94-10.1-3.94-10.1l-.2,17.42s-7.97-2.31-8.95-4.14-.79-7.02-2.06-7.34-8.18-4.28-9.75-6.77c-1.56-2.48,1.91-18.41,4.73-24.68,2.83-6.27,1.87-16.93,1.87-16.93l22.3-.09,1.57,11.56h.01Z" style="fill:#e2a972;" />
		<path d="M1098.98,676.39c-15.57,9.52-18.28,20.48-14.76,34.75s26.31,74.87,26.31,74.87l25.09-4.21,2.82-11.3s12.56-5.76,9.85-29.56c-2.68-23.56-37.35-71.86-49.32-64.55h.01Z" style="fill:#a93985;" />
		<path d="M882.77,821.36s44.74,31.72,93.47,30.01c48.73-1.71,89.81-30.01,89.81-30.01l-21.41-196.57-144.48,4.51s-13.96,191.2-17.38,192.06h0Z" style="fill:#1a4431;" />
		<path d="M942.77,605.8s-57.72,11.83-74.62,31.18c-19.79,22.67-46.32,27.45-59.04,55.8-11.76,26.2,37.6,31.82,37.6,31.82,0,0,27.07-11.99,31.82-14.46,14.46-7.52,37.47-9.4,45.96-31.68,8.48-22.28,31.89-65.54,18.29-72.66h0Z" style="fill:#a93985;" />
		<path d="M1029.27,618.39s19.93-12.25,37.56,6.45c15.97,16.94,59.97,71.44,66.03,80.26,5.98,8.71-39.06,30.69-39.06,30.69,0,0-23.75-23.65-27.75-27.21-11.12-9.89-33.79-11.34-42.27-33.63-8.48-22.28-8.1-49.45,5.5-56.57h-.01Z" style="fill:#a93985;" />
		<path d="M945.08,600.67s-17.52,7.99-30.48,13.06c-17.17,6.72-20.53,10.94-20.53,10.94,0,0-6.48,76.33-8.36,110.98-1.43,26.47,36.38,50.36,36.38,50.36l124.73-4.05c.34,0,27.33-11.85,18.53-59.33-12.53-67.62,.67-93.58-3.47-101.37-7.49-14.09-116.8-20.61-116.8-20.61v.02Z" style="fill:#a93985;" />
		<polygon points="872.65 828.78 1094.83 942.34 1091.32 926.87 869.5 812.43 872.65 828.78" style="fill:#1a4431;" />
		<polygon points="872.17 924.95 1087.73 816.52 1088.85 829.68 877.91 935.96 872.17 924.95" style="fill:#1a4431;" />
		<polygon points="1090.68 820.05 1107.16 821.37 1110.45 963.78 1092.65 965.76 1090.68 820.05" style="fill:none;" />
		<polygon points="874.53 827.22 859.38 819.22 856.08 961.63 873.89 963.61 874.53 827.22" style="fill:none;" />
		<path d="M874.06,821.19c-6.6,0-5.17,14.11-5.64,21.16s1.32,153.77,1.32,153.77l13.28,.63s-2.84-143.58-2.37-152.52,1.41-23.04-6.58-23.04h-.01Z" style="fill:#1a4431;" />
		<path d="M1104.98,761.44c5.72-.16,7.22,4.12,7.7,12.53,.48,8.37,8.23,225.83,8.42,232.41,.19,6.58-.47,13.78-7.92,14-7.46,.21-8.11-7.34-8.09-13.94,.03-7.33-7.22-223.87-7.55-230.9-.34-7.45-.92-13.86,7.45-14.09h0Z" style="fill:#afb1b4;" />
		<path d="M1095.78,983.7c13.53,.17,13.67,21.75,14,33.31s3.32,29.93-11.69,29.86c-11.41-.05-13.59-10.44-14.31-26.9-.72-16.47-5.97-36.49,12-36.27h0Z" style="fill:#8cabbc;" />
		<path d="M1086.08,822.77c6.59-.35,5.91,13.82,6.75,20.84s4.59,153.78,4.59,153.78l-12.65,2.53s-3.11-144.89-4.05-153.79c-.94-8.9-2.62-22.94,5.37-23.36h0Z" style="fill:#1a4431;" />
		<path d="M1102.7,985.64l.71,21.62-100.15,4.36,.27-16.72,83.16-4.07s.45-6.09,4.12-8.08c9.16-4.96,11.88,2.9,11.88,2.9h.01Z" style="fill:#1a4431;" />
		<path d="M975.34,764.12c-27.67,.86-53.98-18.45-65.51-20.3s-27.68,.46-35.99,7.38c-8.3,6.92-3.23,61.82,6.46,93.66,9.69,31.83,18.45,60.44,17.53,73.36-.92,12.92,8.76,41.65,8.76,41.65,0,0,7.39-5.2,22.62,.34,15.22,5.54,19.14,2.58,17.76,2.58s8.32-10.87,9.24-22.86c.92-12,5.29-20.78-1.63-38.31-6.92-17.53-20.76-77.97-20.76-77.97,0,0,26.3,5.07,42.44,3.23,16.15-1.85,49.37-9.23,49.37-9.23,0,0-7.84,73.36-2.77,86.27,5.07,12.92,6.46,21.22,2.31,26.76-4.15,5.54,2.55,35.03,2.55,35.03,0,0,9.9-7.35,26.05-6.42,16.15,.92,12.38-8.66,12.38-8.66,0,0,9.49,5.55,14.11-17.51,4.61-23.07-2.96-73.02-.65-99.78,2.31-26.76,11.07-45.21,3.23-70.59-7.84-25.37-26.76-25.37-40.14-21.22s-52.59,22.15-67.36,22.61v-.02Z" style="fill:#497125;" />
		<g>
			<path d="M1032.61,909.91s-.25,16.88-1.74,23.09-1.74,21.6-1.74,21.6l37,10.18s.25-12.42-.74-20.11c-.99-7.7-1.74-16.64-1.24-21.6,.5-4.97,2.98-15.89,2.98-15.89l-34.51,2.73h-.01Z" style="fill:none;" />
			<g>
				<path d="M1046.02,937.23c-12.45,.82-14.15,11.42-17.88,14.65-3.72,3.23-4.47,8.69-4.47,8.69,0,0,4.72,10.43,4.72,18.37s6.7,23.34,6.7,23.34c0,0,15.39-1.24,27.81-1.74s22.6-2.48,22.6-2.48c0,0,4.22-4.97-.74-14.15-4.97-9.19-8.19-8.19-13.16-18.37-4.97-10.18-6.7-16.64-6.7-16.64,0,0-3.72-12.66-18.87-11.67h-.01Z" style="fill:#feca1b;" />
				<g style="clip-path:url(#g);">
					<path d="M1021.19,973.73c.25,.74,5.21,12.17,13.66,14.65,8.44,2.48,27.06-1.24,36-1.24s15.15-3.48,15.15-3.48l5.21,26.82-76.23-3.48,6.21-33.27h0Z" style="fill:#dda141;" />
				</g>
			</g>
		</g>
		<g>
			<path d="M970.43,556.97c-13.46-.79-34.44,.4-41.17,14.25-6.73,13.86-6.33,22.56-6.33,22.56,0,0-15.04,4.35-17.42,16.63-2.38,12.27,.4,11.88,3.56,27.71,3.17,15.83,14.69,41.11,24.59,58.13s11.92,39.44,11.92,39.44c0,0,49.9-4.17,72.46-44.95,22.56-40.77,10.97-47.48,15.72-61.74,4.75-14.25,1.19-30.09-4.75-36.02-5.94-5.94-9.5-5.94-9.5-5.94,0,0-1.98-15.83-12.27-17.42-10.29-1.58-36.81-12.67-36.81-12.67v.02Z" style="fill:#eb6a36;" />
			<g style="clip-path:url(#h);">
				<path d="M917.78,575.58s23.36,65.71,36.02,73.63c12.67,7.92,31.27,0,49.09-19.79,17.81-19.79,21.38-56.61,21.38-56.61l-95.01-49.88-11.48,52.65h0Z" style="fill:#f08d64;" />
			</g>
		</g>
		<g>
			<path d="M987.15,497.75c-3.44-1.32-21.13-16.46-41.79-4.81-20.66,11.65-24.43,52.75-24.43,52.75l8.84-9.45s-4.32,8.63-5.54,14.55c-2.08,10.05,1.04,21.82,1.04,21.82l5.2-13.51s-1.28,15.72,6.23,23.55c5.86,6.11,13.82,8.86,20.44,13.16l21.43,1.71s23.08-7.15,29.93-19.07c6.14-10.7,8.06-27.73,8.06-27.73l3.77,10.49s2.35-22.89-1.43-35.09c-5.17-16.65-13.36-28.74-19.84-29.15-6.98-.44-11.9,.77-11.9,.77h0Z" style="fill:#4f4e47;" />
			<g>
				<path d="M985.61,515.26s-8.37,20.77-15.44,28.08c-7.06,7.32-19.07,13.55-19.07,13.55l12.06-20.44s-10.24,2.33-15.78,9.55c-6.22,8.11-6.92,20.47-1.62,29.55s10.6,19.68,22.2,19.43,15.63-4.43,22.95-9.73,8.84-7.42,10.35-14.49c1.51-7.06,1.04-14.67,1.04-14.67l-12.55,14.57s3.48-18.74,.81-29.96c-1.24-5.21-4.94-25.45-4.94-25.45h-.01Z" style="fill:#dfbe84;" />
				<g style="clip-path:url(#i);">
					<path d="M978.23,535.03s2.55-2.24,7.49-3.62c3.08-.86,11.38,2.42,11.38,2.42l-.36,1.45s-5.01-2.24-9.49-.91-7.33,4.06-7.33,4.06l-1.69-3.39h0Z" style="fill:#6b5738;" />
				</g>
			</g>
			<path d="M947.77,569.25s3.97,18.28,4.47,23.07,4.04,17.23,17.41,17.48,17.53-11.31,21.32-15.85c3.78-4.54,6.75-18.14,6.75-18.14l-49.95-6.56Z" style="fill:#dfbe84;" />
			<path d="M961.11,578.06c1.17,.9,5.21,.19,9.44-.05s7.93-1.17,8.29-2.75c.36-1.57-1.27-6.57-4.54-6.69s-5.08,1.33-5.08,1.33c0,0-2.85,.37-6.6,1.58s-3.09,5.37-1.51,6.58h0Z" style="fill:#eb6a36;" />
			<g>
				<path d="M983.67,542.83c1.71,.59,2.52,2.16,1.88,3.82s-1.97,1.96-3.54,1.53c-1.85-.51-2.51-1.97-2.02-3.73,.34-1.25,1.92-2.22,3.68-1.61h0Z" style="fill:#235a96;" />
				<polygon points="989.75 541.52 979.99 545.08 979.21 541.69 988.01 537.22 989.75 541.52" style="fill:#235a96;" />
			</g>
		</g>
		<polygon points="1096.51 740.71 1099.54 826.28 1086.09 827.15 1084.21 741.99 1096.51 740.71" style="fill:#1a4431;" />
		<path d="M1099.73,732.83l.73,10.71-20.37,1.39s-.55-8.1-.49-10.99,4.57-6.09,10.07-6.2,9.79,1.17,10.06,5.09h0Z" style="fill:#1a4431;" />
		<path d="M1118.39,842.21c-2.09-4.85-9.1-4.41-13.14-1.13-4.04,3.28-19.13,17.32-19.13,17.32l.94,3.14,13.1-6.8s7.3-.77,12.93-2.02c4.5-1,7.39-5.66,5.3-10.51Z" style="fill:#1a4431;" />
		<path d="M811.42,688.74c19.29-22.8,56.99,5.49,56.99,5.49,0,0-15.93,55.6-17.24,60.92-3.52,14.27-8.94,25.62-8.94,25.62l-28.31-2.14-2.14-10.68s-12.73-7.96-9.45-30.56c3.41-23.47,3.2-41.7,9.08-48.65h.01Z" style="fill:#a93985;" />
		<polygon points="854.93 737.68 857.59 825.15 871.57 828.08 867.64 736.66 854.93 737.68" style="fill:#1a4431;" />
		<path d="M851.86,728.28v10.73h20.42s0-8.12-.26-11-4.97-5.76-10.47-5.5-9.69,1.83-9.69,5.76h0Z" style="fill:#1a4431;" />
		<path d="M851.95,761.03c-5.69,.63-8.05,4.62-8.15,12.61-.11,8.38-.78,225.34-.78,231.92s.86,13.76,8.32,13.76,7.9-7.57,7.68-14.16c-.24-7.32,1.36-224.04,.92-231.06s-.1-13.95-8-13.07h.01Z" style="fill:#afb1b4;" />
		<path d="M867.57,978.44c-13.52,.56-13.04,22.14-13.04,33.7s-2.46,30.01,12.54,29.52c11.4-.37,13.28-10.82,13.53-27.3s4.92-36.65-13.04-35.91h.01Z" style="fill:#8cabbc;" />
		<path d="M864.78,988.9v21.64l99.72,.15-.82-16.71-82.74-.42s-.65-6.08-4.38-7.94c-9.31-4.66-11.78,3.29-11.78,3.29h0Z" style="fill:#1a4431;" />
		<g>
			<path d="M937.31,906.93s2.28,16.73,4.51,22.71c2.23,5.98,4.33,21.24,4.33,21.24l-35.5,14.56s-1.74-12.29-1.68-20.06c.06-7.76-.28-16.72-1.37-21.59-1.09-4.87-4.87-15.42-4.87-15.42l34.59-1.45h0Z" style="fill:none;" />
			<g>
				<path d="M927.29,935.66c12.46-.69,15.43,9.63,19.51,12.39,4.09,2.76,5.48,8.09,5.48,8.09,0,0-3.43,10.92-2.47,18.81,.96,7.89-3.84,23.98-3.84,23.98,0,0-15.43,.62-27.82,1.62-12.38,1-22.73,.26-22.73,.26,0,0-4.79-4.42-.96-14.14,3.82-9.72,7.15-9.12,10.85-19.83,3.7-10.7,4.65-17.32,4.65-17.32,0,0,2.17-13.02,17.33-13.86h0Z" style="fill:#feca1b;" />
				<g style="clip-path:url(#j);">
					<path d="M956.33,968.9c-.16,.77-3.71,12.71-11.79,16.19-8.08,3.48-27.02,2.03-35.89,3.1-8.87,1.08-15.45-1.63-15.45-1.63l-1.95,27.25,75.25-12.63-10.17-32.28Z" style="fill:#dda141;" />
				</g>
			</g>
		</g>
		<path d="M874.23,855.27l-12.3-8.54s-4.31-3.77-9.1-5.82c-4.79-2.05-11.65-.56-12.33,4.68-.68,5.24,3.38,8.93,7.98,8.66,5.76-.34,12.99-1.6,12.99-1.6l11.83,5.84,.92-3.23h.01Z" style="fill:#1a4431;" />
	</g>
</svg>
