<?xml version="1.0" encoding="UTF-8"?>
<svg xmlns="http://www.w3.org/2000/svg" xmlns:xlink="http://www.w3.org/1999/xlink" viewBox="0 0 1920 1080">
	<defs>
		<style>
			.h{fill:none;}.i{fill:#f6f6f7;}.j{fill:#f8f8f8;}.k{fill:#004a7c;}.l{fill:#00487e;}.m{fill:#0095d8;}.n{fill:#ed7925;}.o{fill:#ea6343;}.p{fill:#f1f1f3;}.q{fill:#edce5c;}.r{fill:#ffd500;}.s{fill:#00a39a;}.t{fill:#8cabbc;}.u{fill:#2f8760;}.v{fill:#b7d3ec;}.w{fill:#b37b42;}.x{fill:#cee0f2;}.y{fill:#e2007a;}.a`{fill:#e2a972;}.aa{fill:#9d3187;}.ab{fill:#465256;}.ac{fill:#58a24b;}.ad{fill:#4a9986;}.ae{clip-path:url(#c);}.af{clip-path:url(#e);}.ag{clip-path:url(#d);}.ah{clip-path:url(#g);}
		</style>
		<clipPath id="c">
			<rect x="0" y="0" width="1920" height="1080" style="fill:none;" />
		</clipPath>
		<clipPath id="d">
			<path d="M682.72,715.64c-19.15,7.16-27.84,28.93-21.54,46.08,6.65,18.1,26.62,29.99,47.07,21.96,19.7-7.74,27.25-27.53,21.08-46.07-6.16-18.51-26.85-29.35-46.61-21.97h0Z" style="fill:none;" />
		</clipPath>
		<clipPath id="e">
			<path d="M657.34,722.98c-15.31-14.77-39.66-13.18-52.95,.43-14.02,14.36-16.23,38.45,.48,54.06,16.1,15.04,38.08,13.26,52.73-.85,14.61-14.09,15.53-38.39-.27-53.64h.01Z" style="fill:none;" />
		</clipPath>
		<clipPath id="g">
			<path d="M1047.75,257.67s9.02,28.68,3.79,43.32-17.04,21.78-17.04,32.24,6.58,35.22,4.49,55.09-22.86,60.24-26.31,72.68c-6.53,23.55-9.54,46.09-9.54,46.09,0,0,54.11,15.58,95.94,12.96,41.83-2.61,67.29-7.38,67.29-7.38,0,0-.97-7.19-2.27-32.87-.85-16.72-5.89-38.67-3.28-58.54,2.61-19.87,7.38-57.01,12.09-73.75,4.71-16.73-6.02-29.59-5.49-49.98s4.54-39.65,4.54-39.65l-21.95-6.67s-10.23,27.07-39.21,27.86c-33.81,.91-42.59-29.34-42.59-29.34l-20.46,7.94h0Z" style="fill:none;" />
		</clipPath>
	</defs>
	<g id="a">
		<g id="b">
			<g style="clip-path:url(#c);">
				<g>
					<polygon points="-367.46 -122 2180.38 -102.86 2185.66 1182.29 -362.18 1163.15 -367.46 -122" style="fill:#b7d3ec;" />
					<path d="M181.77,537.85L-42.79,858.65l3475.34,6.92,7.13-507.73s-342.19-41.54-431.3-41.54-178.22,62.31-203.17,73.85c-24.95,11.54-103.37,6.92-146.14,11.54s-121.19,71.55-146.14,69.24c-24.95-2.3-78.42-23.08-149.71-50.77-71.29-27.69-117.63,18.46-142.58,23.08s-57.04-18.46-142.58-18.46c-85.54,0-75.11,52.23-103.63,52.23s-21.99,.97-56.77-31.45c-37.24-34.71-81.76-67.51-212.66-60.25-157.21,8.72-199.19,147.89-231.27,150.2-32.08,2.3-49.89-17.23-103.36-21.85-53.47-4.61-58.67,26.53-90.75,33.45-32.08,6.93-81.98-11.54-174.66-9.23-92.68,2.31-89.11,71.54-142.58,73.85-53.46,2.31-81.98-16.15-106.93-41.54-24.96-25.38-49.91-23.08-124.76-30-74.86-6.92-30.6-42.41-130.01-65-69.59-15.81-108.81,11.92-180.1,37.31-71.29,25.39-238.82,25.39-238.82,25.39v-.04Z" style="fill:#cee0f2;" />
					<path d="M-940.21,773.14l-131.05,328.73,3314.86,265-74.98-726.38s-930.75-8.29-1030.99-21.09c-110.13-14.06-175.8-45.69-201.52-48.45-160.36-17.22-177.1,34.53-276.48,32.05-93.73-2.34-148.13-36.72-173.46-38.67-68.91-5.31-95.5,12.91-110.06,10.55-14.56-2.37-45.33-33.73-94.7-43.69-50.58-10.2-105.29,16.07-120.59,16.49-51.83,1.43-72.75-17.52-122.67-17.52s-55.54,37.56-147.07,51.75c-91.53,14.19-58.58,186.44-77.3,188.8-18.72,2.37-34.23-30.68-65.43-35.41-31.2-4.73-29.12,40.21-47.84,47.3-18.72,7.09-47.85-11.82-101.93-9.46-54.09,2.37-52.01,73.32-83.21,75.68-31.21,2.36-47.85-16.56-62.41-42.57-14.57-26.01-29.13-23.65-72.81-30.74-43.69-7.1-31.21-68.59-89.45-89.87-58.25-21.28-49.93,35.48-91.53,61.49-41.6,26.01-139.37,26.01-139.37,26.01h-.01Z" style="fill:#4a9986;" />
					<path d="M2229.54,668.61s-210.84,906.79-215.52,918.49c-4.68,11.7-2284.79,133.36-2284.79,133.36l9.36-1113.7s469.19,0,546.4,4.68,778.5,42.19,855,40.77c180.54-3.34,412.63,9.37,574.07,7.03s515.49,9.37,515.49,9.37h0Z" style="fill:#2f8760;" />
					<path d="M579.73,117.48s46.06,7.33,46.06,47.99c0,36.93-26.7,42.1-33.92,43.72-15.17,3.4-112.1,2.57-141.93-.68-14.46-1.58-45.2-12.55-38.11-52.4,8.26-46.36,59.76-50.23,59.76-50.23,0,0,15.61-43.89,60.02-39.84,38.36,3.5,48.12,51.43,48.12,51.43" style="fill:#f6f6f7;" />
					<path d="M690.83,178.13s30.47,4.38,30.47,28.69c0,22.08-17.66,25.17-22.44,26.14-10.04,2.03-74.17,1.53-93.91-.41-9.57-.95-29.91-7.5-25.22-31.33,5.46-27.72,39.54-30.03,39.54-30.03,0,0,10.32-26.23,39.71-23.81,25.38,2.09,31.84,30.75,31.84,30.75" style="fill:#f6f6f7;" />
					<polygon points="2076.97 1445.78 -279.11 1448.54 -256.07 690.47 2157.32 696.75 2076.97 1445.78" style="fill:#58a24b;" />
					<polygon points="1983.54 822.46 -130.04 819.53 -124.41 812.69 1982.33 814.54 1983.54 822.46" style="fill:#f1f1f3;" />
					<polygon points="2250.34 908.26 1274.62 904.77 1415.13 1401.28 1404.72 1405.1 1263.42 896.61 2240.61 899.98 2250.34 908.26" style="fill:#f1f1f3;" />
					<g>
						<g>
							<g>
								<polygon points="933.16 453.39 207.27 454.15 206.91 449.48 930.75 448.3 933.16 453.39" style="fill:#f1f1f3;" />
								<polygon points="933.16 432.73 207.27 433.49 206.91 428.82 930.75 427.64 933.16 432.73" style="fill:#f1f1f3;" />
								<polygon points="933.16 474.06 207.27 474.81 206.91 470.14 930.75 468.96 933.16 474.06" style="fill:#f1f1f3;" />
								<polygon points="933.16 494.72 207.27 495.47 206.91 490.8 930.75 489.62 933.16 494.72" style="fill:#f1f1f3;" />
								<polygon points="933.16 515.38 207.27 516.13 206.91 511.46 930.75 510.29 933.16 515.38" style="fill:#f1f1f3;" />
								<polygon points="933.16 536.04 207.27 536.79 206.91 532.12 930.75 530.95 933.16 536.04" style="fill:#f1f1f3;" />
								<polygon points="933.16 556.7 207.27 557.45 206.91 552.78 930.75 551.61 933.16 556.7" style="fill:#f1f1f3;" />
								<polygon points="933.16 577.36 207.27 578.11 206.91 573.44 930.75 572.27 933.16 577.36" style="fill:#f1f1f3;" />
								<polygon points="933.16 598.02 207.27 598.77 206.91 594.11 930.75 592.93 933.16 598.02" style="fill:#f1f1f3;" />
								<polygon points="933.16 618.68 207.27 619.43 206.91 614.77 930.75 613.59 933.16 618.68" style="fill:#f1f1f3;" />
								<polygon points="933.16 639.34 207.27 640.1 206.91 635.43 930.75 634.25 933.16 639.34" style="fill:#f1f1f3;" />
								<polygon points="933.16 660 207.27 660.76 206.91 656.09 930.75 654.91 933.16 660" style="fill:#f1f1f3;" />
								<polygon points="933.16 680.67 207.27 681.42 206.91 676.75 930.75 675.57 933.16 680.67" style="fill:#f1f1f3;" />
								<polygon points="933.16 701.33 207.27 702.08 206.91 697.41 930.75 696.23 933.16 701.33" style="fill:#f1f1f3;" />
								<polygon points="933.16 721.99 207.27 722.74 206.91 718.07 930.75 716.89 933.16 721.99" style="fill:#f1f1f3;" />
								<polygon points="940.7 739.72 907.82 740.47 907.81 735.8 940.59 734.62 940.7 739.72" style="fill:#f1f1f3;" />
							</g>
							<g>
								<polygon points="639.27 412.63 640.02 719.09 635.36 719.25 634.18 413.65 639.27 412.63" style="fill:#f1f1f3;" />
								<polygon points="618.56 412.63 619.31 719.09 614.64 719.25 613.47 413.65 618.56 412.63" style="fill:#f1f1f3;" />
								<polygon points="659.98 412.63 660.73 719.09 656.07 719.25 654.89 413.65 659.98 412.63" style="fill:#f1f1f3;" />
								<polygon points="680.69 412.63 681.45 719.09 676.78 719.25 675.6 413.65 680.69 412.63" style="fill:#f1f1f3;" />
								<polygon points="701.4 412.63 702.16 719.09 697.49 719.25 696.31 413.65 701.4 412.63" style="fill:#f1f1f3;" />
								<polygon points="722.11 412.63 722.87 719.09 718.2 719.25 717.02 413.65 722.11 412.63" style="fill:#f1f1f3;" />
								<polygon points="742.83 412.63 743.58 719.09 738.91 719.25 737.73 413.65 742.83 412.63" style="fill:#f1f1f3;" />
								<polygon points="763.54 412.63 764.29 719.09 759.62 719.25 758.44 413.65 763.54 412.63" style="fill:#f1f1f3;" />
								<polygon points="784.25 412.63 785 719.09 780.33 719.25 779.16 413.65 784.25 412.63" style="fill:#f1f1f3;" />
								<polygon points="804.96 412.63 805.71 719.09 801.04 719.25 799.87 413.65 804.96 412.63" style="fill:#f1f1f3;" />
								<polygon points="825.67 412.63 826.42 719.09 821.75 719.25 820.58 413.65 825.67 412.63" style="fill:#f1f1f3;" />
								<polygon points="846.38 412.63 847.13 719.09 842.46 719.25 841.29 413.65 846.38 412.63" style="fill:#f1f1f3;" />
								<polygon points="867.09 412.63 867.84 719.09 863.18 719.25 862 413.65 867.09 412.63" style="fill:#f1f1f3;" />
								<polygon points="887.8 412.63 888.55 719.09 883.89 719.25 882.71 413.65 887.8 412.63" style="fill:#f1f1f3;" />
								<polygon points="908.51 412.63 909.27 738.56 904.6 738.71 903.42 413.65 908.51 412.63" style="fill:#f1f1f3;" />
								<polygon points="328.61 412.63 329.36 719.09 324.69 719.25 323.52 413.65 328.61 412.63" style="fill:#f1f1f3;" />
								<polygon points="307.9 412.63 308.65 719.09 303.98 719.25 302.8 413.65 307.9 412.63" style="fill:#f1f1f3;" />
								<polygon points="349.32 412.63 350.07 719.09 345.4 719.25 344.23 413.65 349.32 412.63" style="fill:#f1f1f3;" />
								<polygon points="370.03 412.63 370.78 719.09 366.11 719.25 364.94 413.65 370.03 412.63" style="fill:#f1f1f3;" />
								<polygon points="390.74 412.63 391.49 719.09 386.83 719.25 385.65 413.65 390.74 412.63" style="fill:#f1f1f3;" />
								<polygon points="411.45 412.63 412.2 719.09 407.54 719.25 406.36 413.65 411.45 412.63" style="fill:#f1f1f3;" />
								<polygon points="432.16 412.63 432.92 719.09 428.25 719.25 427.07 413.65 432.16 412.63" style="fill:#f1f1f3;" />
								<polygon points="452.87 412.63 453.63 719.09 448.96 719.25 447.78 413.65 452.87 412.63" style="fill:#f1f1f3;" />
								<polygon points="225.05 412.63 225.81 735.05 221.14 735.21 219.96 413.65 225.05 412.63" style="fill:#f1f1f3;" />
								<polygon points="245.76 412.63 246.52 719.09 241.85 719.25 240.67 413.65 245.76 412.63" style="fill:#f1f1f3;" />
								<polygon points="266.48 412.63 267.23 719.09 262.56 719.25 261.38 413.65 266.48 412.63" style="fill:#f1f1f3;" />
								<polygon points="287.19 412.63 287.94 719.09 283.27 719.25 282.09 413.65 287.19 412.63" style="fill:#f1f1f3;" />
								<polygon points="473.58 412.63 474.34 719.09 469.67 719.25 468.49 413.65 473.58 412.63" style="fill:#f1f1f3;" />
								<polygon points="494.29 412.63 495.05 719.09 490.38 719.25 489.2 413.65 494.29 412.63" style="fill:#f1f1f3;" />
								<polygon points="515.01 412.63 515.76 719.09 511.09 719.25 509.91 413.65 515.01 412.63" style="fill:#f1f1f3;" />
								<polygon points="535.72 412.63 536.47 719.09 531.8 719.25 530.62 413.65 535.72 412.63" style="fill:#f1f1f3;" />
								<polygon points="556.43 412.63 557.18 719.09 552.51 719.25 551.34 413.65 556.43 412.63" style="fill:#f1f1f3;" />
								<polygon points="577.14 412.63 577.89 719.09 573.22 719.25 572.05 413.65 577.14 412.63" style="fill:#f1f1f3;" />
								<polygon points="597.85 412.63 598.6 719.09 593.93 719.25 592.76 413.65 597.85 412.63" style="fill:#f1f1f3;" />
							</g>
						</g>
						<polygon points="926.42 759.92 921.14 416.3 211.24 413.02 209.47 753.64 189.96 753.09 192.1 394.91 942.17 395.69 946.88 759.58 926.42 759.92" style="fill:#465256;" />
					</g>
					<g>
						<path d="M682.72,715.64c-19.15,7.16-27.84,28.93-21.54,46.08,6.65,18.1,26.62,29.99,47.07,21.96,19.7-7.74,27.25-27.53,21.08-46.07-6.16-18.51-26.85-29.35-46.61-21.97h0Z" style="fill:#ffd500;" />
						<g style="clip-path:url(#d);">
							<g>
								<polygon points="681.23 748.04 690.66 761.71 706.12 756.24 706.46 740.33 691.17 734.79 681.23 748.04" style="fill:#00487e;" />
								<path d="M717.4,765.46l-3.52,12.11,12.85-.51,6.01-6.42-4.81-13.28s-10.53,7.88-10.52,8.1h0Z" style="fill:#00487e;" />
								<path d="M682.34,775.25l-12.59-.64,3.45,12.39,7.63,4.37,11.82-7.74s-10.09-8.44-10.3-8.38h0Z" style="fill:#00487e;" />
								<polygon points="655.42 744.15 653.43 756.95 664.89 761.17 669.64 748.61 665.14 736.11 655.42 744.15" style="fill:#00487e;" />
								<path d="M696.56,716.66c-.01-.23-10.05,6.46-10.05,6.46l-12.48,.89,3.47-9.89,10.27-4.09,8.78,6.62h.01Z" style="fill:#00487e;" />
								<polygon points="726.37 722.34 732.87 730.3 727.31 742.31 716.57 733.39 712.57 721.86 726.37 722.34" style="fill:#00487e;" />
							</g>
						</g>
					</g>
					<polygon points="926.85 759.9 883.06 723.54 916.29 401.34 923.22 401.57 892.07 720.4 931.75 753.31 926.85 759.9" style="fill:#465256;" />
					<polygon points="209.48 753.63 250.54 722.63 215.48 399.92 208.54 400.15 241.53 719.48 204.51 746.97 209.48 753.63" style="fill:#465256;" />
					<g>
						<path d="M657.34,722.98c-15.31-14.77-39.66-13.18-52.95,.43-14.02,14.36-16.23,38.45,.48,54.06,16.1,15.04,38.08,13.26,52.73-.85,14.61-14.09,15.53-38.39-.27-53.64h.01Z" style="fill:#0095d8;" />
						<g style="clip-path:url(#e);">
							<g>
								<polygon points="626.23 736.11 617.62 751.1 629.68 763.17 644.78 756.36 643.13 739.51 626.23 736.11" style="fill:#00487e;" />
								<path d="M626.1,777.91l-12.96,2.13,6.24,11.84,8.72,2.76,10.32-10.48s-12.13-6.36-12.33-6.25h.01Z" style="fill:#00487e;" />
								<path d="M601.17,749.38l-5.05-12.12-10.09,8.8-.68,9.12,12.57,7.63s3.4-13.27,3.25-13.44h0Z" style="fill:#00487e;" />
								<polygon points="618.31 710.11 605.39 713.99 606.56 726.65 620.49 725.48 630.22 715.64 618.31 710.11" style="fill:#00487e;" />
								<path d="M662.6,736.43c.21-.11-10.58-6.54-10.58-6.54l-6.43-11.32,10.84-1.17,8.45,7.81-2.29,11.22h.01Z" style="fill:#00487e;" />
								<polygon points="670.62 766.99 666.05 776.67 652.28 776.83 655.84 762.74 664.88 753.81 670.62 766.99" style="fill:#00487e;" />
							</g>
						</g>
					</g>
				</g>
			</g>
		</g>
	</g>
	<g id="f">
		<path d="M1194.17,267.22c-7.07-6.31-33.82-11.71-33.82-11.71l6.3,90.12s-3.65,36.82-4.83,48.23c-1.18,11.41,15.46,101.71,15.46,113.12s-.39,18.5-.39,18.5l17.71,4.33s7.48-58.24,9.05-79.1c1.57-20.86-5.51-49.98-3.94-62.18s5.43-49.27,4.17-82.84c-.4-10.62-3.05-32.53-9.7-38.47h-.01Z" style="fill:#e2a972;" />
		<path d="M1053.04,256.75s-11.95,4.63-18.38,6.13c-5.57,1.3-13.47,3.71-19.38,7.32-8.48,5.18-40.69,39.49-55.25,58.08-14.55,18.58-27.68,38.7-27.04,45.97s16.89,16.5,28.9,5.27,33.07-29.23,40.56-38.99c7.49-9.75,19.29-17.16,26.96-18.46,12.46-2.12,10.63,30.62,10.63,30.62l24.03,.72,50.07-44.38-61.11-52.26v-.02Z" style="fill:#e2a972;" />
		<path d="M1060.07,809.13s6.3,20.49,6.3,30.58-1.89,36.25-1.89,36.25l33.42-12.92s.32-17.02-2.84-25.22c-3.15-8.2-11.35-25.22-11.35-25.22l-23.64-3.47h0Z" style="fill:#e2a972;" />
		<path d="M1178.28,818.27s6.62,17.02,6.3,24.9-2.52,21.12-2.52,21.12l33.42,.63s-5.04-17.02-5.67-24.27,.95-21.12,.95-21.12l-32.47-1.26h-.01Z" style="fill:#e2a972;" />
		<path d="M1072.46,837.61c10.58-2.65,13.61-.21,15.08,4.19s1.88,6.91,1.88,6.91c0,0,3.14,2.3,4.82,0,1.68-2.3,.86-8.9,2.33-8.9s4.79,11.83,6.05,19.58,3.98,19.48,2.09,21.36c-1.88,1.88-10.89,4.61-10.05,8.8s1.47,16.75-4.19,20.52c-5.65,3.77-38.12,.84-40-3.56s-1.05-12.77,2.93-23.04c3.98-10.26,8.8-22.41,10.68-29.11s-1.26-14.03,1.05-15.71c2.3-1.68,4.82-.42,7.33-1.05h0Z" style="fill:#f8f8f8;" />
		<g>
			<path d="M1060.05,866.38c-.3,0-.59-.03-.85-.11-.69-.19-1.59-.71-1.96-2.08-.3-1.1-.12-2.2,.53-3.26,2.91-4.73,15.09-7.56,17.81-8.14,.74-.96,3-3.34,7.62-4,3.88-.55,8.92,2.9,11.59,6.55,1.9,2.59,2.46,5.03,1.58,6.88-.61,1.29-1.38,1.99-2.32,2.16-1.64,.28-3.1-1.12-4.94-2.92-1.01-.99-2.16-2.1-3.41-2.97-3.36-2.33-7.51-3-8.85-3.17-2.66,2.53-12.02,11.06-16.79,11.06h-.01Zm13.78-11.08c-4.81,1.22-12.46,3.7-14.31,6.7-.35,.57-.45,1.09-.3,1.64,.15,.54,.39,.61,.53,.64,2.28,.61,9.02-4.42,14.08-8.99h0Zm3.97-1.92c1.94,.29,5.78,1.14,9.07,3.42,1.39,.96,2.6,2.14,3.67,3.19,1.13,1.1,2.51,2.48,3.15,2.37,.09-.02,.4-.13,.82-1.02,.53-1.12,.03-2.86-1.38-4.77-2.57-3.49-6.99-6.13-9.65-5.73-3.02,.43-4.79,1.69-5.69,2.55h.01Z" style="fill:#8cabbc;" />
			<path d="M1069.69,885.24c-.25,0-.49-.09-.69-.27-.42-.38-.45-1.03-.07-1.45,.04-.04,4.05-4.56,5.85-13.37,1.82-8.93,.47-15.85,.45-15.92-.1-.48,.16-.97,.62-1.15,.45-.19,.98-.02,1.25,.39,.25,.39,6.23,9.59,7.56,15.63,1.31,5.95-.93,11.62-1.03,11.86-.21,.53-.81,.78-1.34,.57-.53-.21-.78-.81-.57-1.34,.02-.05,2.09-5.33,.93-10.65-.73-3.32-3.07-7.84-4.91-11.04,.14,3,.04,7.23-.95,12.06-1.92,9.41-6.17,14.15-6.35,14.35-.2,.22-.48,.34-.76,.34h0Z" style="fill:#8cabbc;" />
		</g>
		<path d="M1182.8,854.53c-2.65-.45-4.45,20.7-5.48,26.89s-2.94,11.44-1.74,13.16,12.38,5.67,12.72,10.49c.34,4.81-3.61,11.17,2.92,15.47s14.61,5.16,28.02,4.64c13.41-.52,15.3-3.61,16.33-7.22,1.03-3.61-.34-6.88-3.61-15.47-3.27-8.59-11.6-20.61-12.03-28.36-.37-6.68-3.27-13.41-4.13-22.69-.24-2.59-8.94-1.72-13.06-2.06-4.13-.34-8.25,1.38-10.14,6.88-1.4,4.08-2.23,7.74-5.67,7.56s-2.94-9.08-4.13-9.28h0Z" style="fill:#f8f8f8;" />
		<path d="M1195.72,880.78c-.81,0-1.57-.31-2.25-.93-.91-.82-1.35-1.9-1.25-3.11,.39-4.85,9.54-11.21,11.69-12.64,.56-2.24,3.35-13.01,6.21-18.15,2.02-3.63,5.51-4.6,7.94-3.68,2.3,.87,3.39,3.21,2.78,5.95-1.22,5.51-12.9,15.91-14.67,17.47-.81,2.29-5.1,13.82-9.63,14.99-.28,.07-.55,.11-.82,.11h0Zm7.82-13.93c-3.55,2.55-9.03,7.09-9.27,10.05-.05,.58,.13,1.02,.57,1.42,.51,.46,.9,.43,1.18,.36,2.41-.62,5.58-6.9,7.51-11.82h.01Zm12.68-22.88c-1.45,0-3.16,.9-4.3,2.96-2.22,3.99-4.48,11.89-5.52,15.77,4.31-3.95,11.61-11.24,12.43-14.95,.39-1.74-.18-3.08-1.5-3.58-.34-.13-.72-.2-1.11-.2Z" style="fill:#8cabbc;" />
		<path d="M1218.79,881.96c-2,0-4.32-.64-6.84-2.52-6.18-4.6-7.79-10.41-8.18-12.53-.88-.12-2.79-.39-6.85-.93-6.27-.82-11.19,6.48-11.24,6.55-.32,.47-.95,.6-1.43,.29-.47-.32-.6-.95-.29-1.42,.23-.35,5.76-8.44,13.22-7.45,7,.93,7.66,1.05,7.66,1.05l.78,.14,.07,.79c0,.07,.7,6.83,7.48,11.88,6.41,4.78,11,0,11.19-.21,.38-.41,1.03-.44,1.45-.05,.41,.39,.44,1.03,.06,1.45-.04,.04-2.82,2.99-7.1,2.99l.02-.03Z" style="fill:#8cabbc;" />
		<path d="M1021.45,448.8s-25.36,51.48-15.47,102.37c7.36,37.86,29.06,111.48,28.53,125.21-.53,13.74,0,58.12,6.34,82.42s22.19,71.85,22.19,71.85c0,0,10.04,2.64,16.91,1.59,6.87-1.06,12.15-4.23,12.15-4.23,0,0-1.06-39.62,1.06-63.93,2.11-24.3-9.51-56-7.92-71.32s3.7-28.53,2.64-50.19c-1.06-21.66,4.23-175.41,4.23-175.41l-70.65-18.36h-.01Z" style="fill:#9d3187;" />
		<path d="M1072.55,491.99s29.06,92.99,39.62,119.4c10.57,26.42,20.68,66.93,29.06,82.42,6.69,12.37,13.21,21.13,14.26,30.64,1.06,9.51,1.06,36.45,7.4,56s17.96,54.42,17.96,54.42c0,0,9.51,3.17,18.49,2.11s13.74-5.81,13.74-5.81c0,0,1.06-77.14-2.64-95.63-3.7-18.49-11.09-36.45-14.26-54.42-3.17-17.96-2.64-46.49-6.34-67.63-3.7-21.13-24.83-97.21-28.53-112.01-3.7-14.79-2.11-44.38-2.11-44.38l-86.65,34.87v.02Z" style="fill:#9d3187;" />
		<path d="M1080.23,196.33s5.75,28.53,2.05,40.15c-4.23,13.27-46.89,27.2-46.89,27.2,0,0,4.47,49.13,6.45,48.47,1.99-.66,140.31-11.25,140.31-11.25l-4.99-39.42s-37.09-7.53-44.89-27.42c-7.79-19.89-1.08-39.51-1.08-39.51l-50.97,1.78h.01Z" style="fill:#e2a972;" />
		<g>
			<path d="M1047.75,257.67s9.02,28.68,3.79,43.32-17.04,21.78-17.04,32.24,6.58,35.22,4.49,55.09-22.86,60.24-26.31,72.68c-6.53,23.55-9.54,46.09-9.54,46.09,0,0,54.11,15.58,95.94,12.96,41.83-2.61,67.29-7.38,67.29-7.38,0,0-.97-7.19-2.27-32.87-.85-16.72-5.89-38.67-3.28-58.54,2.61-19.87,7.38-57.01,12.09-73.75,4.71-16.73-6.02-29.59-5.49-49.98s4.54-39.65,4.54-39.65l-21.95-6.67s-10.23,27.07-39.21,27.86c-33.81,.91-42.59-29.34-42.59-29.34l-20.46,7.94h0Z" style="fill:#e2007a;" />
			<g style="clip-path:url(#g);">
				<g>
					<path d="M990.41,388.7s49.68-2.86,62.94,42.16c13.84,47-15.67,74.24-15.67,74.24,0,0,53.27-6.35,55.04-71.05,1.84-67.41-81.87-95.79-81.87-95.79l-20.44,50.45h0Z" style="fill:#ea6343;" />
					<path d="M1204.55,323.08s-45.74,16.27-70.3-23.35c-25.64-41.36-5.37-75.56-5.37-75.56,0,0-48.16,20.6-32.35,83.21,16.48,65.24,102.5,69.7,102.5,69.7l5.52-54.01h0Z" style="fill:none;" />
				</g>
			</g>
		</g>
		<path d="M1178.1,518.52s.26,4.1-1.79,7.68-4.23,9.73-4.1,19.84c.13,10.11,4.35,31.88,4.35,31.88,0,0,4.74,1.79,5.63-2.94,.9-4.74-1.15-19.84,.9-19.84s6.53,13.32,6.53,13.32c0,0-8.07,9.09-8.07,11.65s1.28,3.46,1.28,3.46c0,0,7.94-6.15,8.45-5.63,1.31,1.31-6.53,11.27-7.04,14.08s1.79,5.25,1.79,5.25c0,0,5.12-3.97,7.94-7.17s6.02-7.94,7.04-10.5,1.15-19.97,1.28-23.17-6.91-24.84-6.66-30.22c.26-5.38,1.02-12.42,1.02-12.42l-18.56,4.74h.01Z" style="fill:#e2a972;" />
		<path d="M1012.91,434.18c-11.5-4.72-58.71-36.25-65.26-42.92-6.54-6.66-20.65-14.75-9.07-25.07,11.58-10.31,25.29-15.91,35.65-2.52,10.36,13.4,23.88,27.34,30.54,37.01,8.44,12.24,20.02,17.25,20.02,17.25l-11.88,16.24h0Z" style="fill:#e2a972;" />
		<path d="M1014.77,437.24c6.21,.62,20.74-9.28,20.74-9.28,0,0,9.79,5.05,12.91,5.69,4.77,.97,5.75-3.25,5.75-3.25,0,0-13.15-8.05-14.44-8.57-1.29-.51-3.68-1.18-3.68-1.18,0,0,7.42-2.38,8.89-1.87s12.85,4.06,15.6,3.8c5.09-.49,5.71-5.07,4.98-4.87-.72,.2-13.24-4.4-13.24-4.4,0,0,9.37,2.68,12.82,2.23,3.45-.45,4.18-4.17,3.89-4.84-.39-.9-19.27-4.29-19.86-6.24-.66-2.22,13.2-3.38,15.14-5.8,1.94-2.42,1.16-5.93,1.16-5.93,0,0-15.26,2.4-17.6,3.37s-19.27,15.03-22.72,17.36c-5.61,3.79-10.41-.46-10.41-.46l-11.12,14.51s6.8,9.31,11.19,9.75v-.02Z" style="fill:#e2a972;" />
		<g>
			<path d="M1099.8,92.28c-11.47,.41-21.77,5.57-21.01,17.55,.76,11.97,11.5,11.18,10.74,14.07-.69,2.63-20.03,7.16-23.99,14.52s-6.79,26.89-5.38,32.55c1.42,5.66,9.06,22.36,9.06,22.36l61.14,1.98s6.51-14.72,9.06-24.62c2.55-9.91,0-23.78-4.25-30.85-4.25-7.08-23.17-14.17-22.52-16.41,.8-2.78,13.62,.05,12.85-18.04-.48-11.46-18.57-13.35-25.7-13.1h0Z" style="fill:#edce5c;" />
			<path d="M1102.91,150.88c-14.95-1.87-21.7,8.8-28.68,13.52-6.97,4.72-3.87,13.93-5.57,15.35s-3.68-5.94-7.93-4.53c-4.25,1.42,.66,14.36,1.93,19.49,1.27,5.17,1.53,6.8,3.89,6.87,2,.06,4.08-2.02,4.08-2.02,0,0,1.44,11.94,2.55,16.42,1.8,7.3,12.74,18.96,19.81,21.79,7.08,2.83,13.12,4.47,18.78,.22s16.72-13.38,18.86-22.58c1.24-5.35,.61-12.47,1.93-14.86,.92-1.66,2.92-.84,4.24-1.59,2.05-1.16,1.54-6.36,2.39-10.61s1.37-12.12-1.06-12.73c-2.12-.53-2.97,4.12-4.67,3.55-1.7-.57-.57-13.02-4.81-18.4-4.25-5.38-18.96-9.06-25.76-9.91l.02,.02Z" style="fill:#e2a972;" />
			<path d="M1088.91,221.34c.15,1.27,5.44,5.57,13.19,5.08,7.74-.49,12.71-4.63,13-6.2s-2.58-4.92-6.89-4.53-4.74,1.88-6.5,2.18-3.06-1.22-6-1.12-7.09,2.04-6.8,4.59h0Z" style="fill:#ed7925;" />
		</g>
		<path d="M1088.92,122.67l.4,1.6s7.1-.94,11.96-.85,11.86,.88,11.86,.88l.25-1.66s-7.71-1.19-12.58-1.1c-4.86,.09-11.9,1.13-11.9,1.13h.01Z" style="fill:#00a39a;" />
		<g>
			<path d="M1094.58,184.01s-5.39-2.03-9.26-2.58c-3.87-.56-9.18,1.83-9.18,1.83l.71,2.81s6.16-1.92,8.08-1.1c2.19,.93,8.95,2.6,8.95,2.6,0,0,1.01-3.76,.71-3.56h0Z" style="fill:#b37b42;" />
			<path d="M1106.06,184.84s4.5-3.6,8-5.33c3.51-1.73,9.3-1.1,9.3-1.1l.2,2.9s-6.45,.09-8.02,1.45c-1.79,1.56-7.7,5.24-7.7,5.24,0,0-2.12-3.27-1.78-3.16Z" style="fill:#b37b42;" />
			<g>
				<path d="M1084.45,192.85l-5.07-.12-.1-1.74,5.99-.14s-.66,2.02-.82,2h0Z" style="fill:#004a7c;" />
				<polygon points="1084.71 191.22 1080.58 187.83 1081.53 186.39 1085.4 189.32 1084.71 191.22" style="fill:#004a7c;" />
				<path d="M1085.33,188.72c-1.77,.58-2.62,2.18-1.99,3.89,.63,1.71,2.34,2.27,3.96,1.85,1.91-.5,2.36-2.21,1.89-4.03-.33-1.29-2.03-2.3-3.85-1.7h-.01Z" style="fill:#004a7c;" />
			</g>
		</g>
		<g>
			<path d="M1115.8,191.61l5.04-.52-.04-1.74-5.98,.33s.82,1.97,.98,1.93Z" style="fill:#004a7c;" />
			<polygon points="1115.41 190.01 1119.26 186.29 1118.2 184.93 1114.58 188.16 1115.41 190.01" style="fill:#004a7c;" />
			<path d="M1114.6,187.55c1.81,.44,2.79,1.97,2.29,3.72-.5,1.76-2.15,2.44-3.8,2.15-1.95-.34-2.53-2.02-2.2-3.87,.23-1.31,1.84-2.46,3.71-2Z" style="fill:#004a7c;" />
		</g>
	</g>
</svg>
