<?xml version="1.0" encoding="UTF-8"?>
<svg id="a" xmlns="http://www.w3.org/2000/svg" xmlns:xlink="http://www.w3.org/1999/xlink" viewBox="0 0 1920 1080">
	<defs>
		<style>
			.h,.i{fill:none;}.j{fill:#f3e5cc;}.k{fill:#00756b;}.l{fill:#0081c2;}.m{fill:#ebeee3;}.n{fill:#ed7a30;}.o{fill:#f0e0c1;}.p{fill:#fdd900;}.q{fill:#e95e27;}.r{fill:#e63e27;}.s{fill:#ea6527;}.t{fill:#ffd500;}.u{fill:#ee7f00;}.v{fill:#eee2dd;}.w{fill:#fcf8f1;}.x{fill:#72929d;}.y{fill:#00a183;}.a`{fill:#9ebcc7;}.aa{fill:#8db2bf;}.ab{fill:#d02b86;}.ac{fill:#d94288;}.ad{fill:#d7be7e;}.ae{fill:#d29dc3;}.af{fill:#d55596;}.ag{fill:#171f41;}.ah{fill:#234335;}.ai{fill:#428a3d;}.aj{fill:#a2bec9;}.ak{fill:#55ac42;}.al{fill:#3b9bd2;}.am{fill:#3aaba8;}.an{fill:#469857;}.ao{fill:#4e6c78;}.ap{fill:#4d8d97;}.i{stroke:#425d68;stroke-miterlimit:10;stroke-width:5.47px;}.aq{clip-path:url(#c);}.ar{clip-path:url(#f);}.as{clip-path:url(#e);}.at{clip-path:url(#d);}.au{clip-path:url(#g);}
		</style>
		<clipPath id="c">
			<rect width="1920" height="1080" style="fill:none;" />
		</clipPath>
		<clipPath id="d">
			<path d="M1401.83,426.77l-4.91,17.39-13.6,19.94,.16,212.31,6.42,16.78s19.62,9.91,62.61,10.36c50.81,.54,67.61-9.72,67.61-9.72l8.69-15.48,5.89-209.72-11.79-26.29,.83-12.69-121.91-2.88h0Z" style="fill:none;" />
		</clipPath>
		<clipPath id="e">
			<rect x="-109.34" y="-219.69" width="505.34" height="642.88" style="fill:none;" />
		</clipPath>
		<clipPath id="f">
			<polygon points="540.96 718.99 367.31 910.92 383.12 955.43 1554.76 946.26 1567.95 905.67 1395.93 716.66 540.96 718.99" style="fill:none;" />
		</clipPath>
		<clipPath id="g">
			<polygon points="1412.2 1009.64 1463.92 1015.75 1844.36 925.22 1847.47 914.85 1842.32 900.67 1832.69 893.02 1452.19 978.36 1412.12 1008.64 1412.2 1009.64" style="fill:none;" />
		</clipPath>
	</defs>
	<g id="b">
		<g style="clip-path:url(#c);">
			<g>
				<rect x="-154.61" y="-434.66" width="2543.99" height="1787.37" style="fill:#ebeee3;" />
				<polygon points="-254.05 645.05 2468.65 634.26 2555.83 1632.19 -429.92 1655.26 -254.05 645.05" style="fill:#a2bec9;" />
				<path d="M530.84,810.03s-63.46-21.15-134.84,5.29c-49.9,18.48-81.96,55.52-148.06,68.74-101.21,20.24-137.79-57.6-249.72-55.27-129.97,2.71-349.81,37.46-458,145.42" style="fill:none; stroke:#425d68; stroke-miterlimit:10; stroke-width:5.47px;" />
				<path d="M514.98,794.17s-48.02-34.61-164.62-9.68c-137.99,29.5-212.95-36.85-345.14-20.99-203.1,24.37-118.01,168.2-249.05,136.43-131.04-31.77-297.6-282.24-362.9-211.78" style="fill:none; stroke:#425d68; stroke-miterlimit:10; stroke-width:5.47px;" />
				<g>
					<g>
						<g>
							<path d="M1401.83,426.77l-4.91,17.39-13.6,19.94,.16,212.31,6.42,16.78s19.62,9.91,62.61,10.36c50.81,.54,67.61-9.72,67.61-9.72l8.69-15.48,5.89-209.72-11.79-26.29,.83-12.69-121.91-2.88h0Z" style="fill:#ffd500;" />
							<g style="clip-path:url(#d);">
								<g>
									<polygon points="1523.84 772.6 1413.05 548.83 1537.68 441.91 1721.97 574.66 1694.65 783.58 1523.84 772.6" style="fill:#d94288;" />
									<polygon points="1564.36 774.92 1456.49 557.95 1552.56 472.59 1751.96 557.77 1724.64 766.69 1564.36 774.92" style="fill:#ed7a30;" />
									<polygon points="1603.62 785.4 1495.83 568.2 1560.55 504.37 1797 568.3 1769.68 777.22 1603.62 785.4" style="fill:#e63e27;" />
									<polygon points="1582.49 803.23 1542.85 561.32 1607.18 522.83 1811.6 657.75 1720.08 847.54 1582.49 803.23" style="fill:#e95e27;" />
									<polygon points="1576.39 791.51 1536.75 549.59 1618.24 509.3 1822.66 644.22 1731.15 834.01 1576.39 791.51" style="fill:#55ac42;" />
									<polygon points="1592.29 785.2 1552.64 543.28 1634.13 502.99 1838.56 637.9 1747.04 827.7 1592.29 785.2" style="fill:#e95e27;" />
									<polygon points="1602.74 771.72 1563.1 529.81 1644.58 489.51 1849.01 624.43 1757.5 814.22 1602.74 771.72" style="fill:#55ac42;" />
									<path d="M1379.22,667.06s22.65,15.12,70.89,15.58c54.2,.51,100.62-15.73,100.62-15.73l.64,44.81-169.48-2.28s-4.19-43.9-2.67-42.39h0Z" style="fill:#f0e0c1;" />
									<path d="M1458.61,458.42c-78.66,2.58-76.49-31.95-76.49-31.95l-4.72-49.54,152.78-5.35,8.19,60.49s-31.03,24.76-79.76,26.35h0Z" style="fill:#9ebcc7;" />
								</g>
							</g>
						</g>
						<path d="M1524.05,426.2c2.28,10.67-9.39,19.28-53.81,22.9-44.41,3.62-74.33-7.25-72.51-19.04,1.97-12.83,29.91-20.85,58.92-20.85s64.68,4.29,67.4,16.98h0Z" style="fill:#9ebcc7;" />
						<path d="M1468.04,435.55s-6.5,10.31-30.8,10.17c-15.73-.09-21.17-13.62-9.45-17.15,10.75-3.24,31.2-3.01,31.2-3.01l9.04,9.99h.01Z" style="fill:#234335;" />
					</g>
					<path d="M1512.97,408.54c-15.16,14.69-35.46,32.18-48.68,24.91-13.22-7.27,2.7-25.63,15.26-35.76,12.56-10.14,15.24-17.47,29.56-12.4,14.32,5.07,10.91,16.42,3.85,23.26h.01Zm-19.07-14.56c-4.82,3.48-6.5,10.99-2.13,13.45s10.38,1.4,14.64-1.96,6.92-8.49,2.57-11.66c-5.38-3.92-10.26-3.31-15.08,.17h0Zm-27.8,26.23c-1.23,4.04,7.33,10.62,10.47,9.05s15.33-12.1,10.49-15.86c-6.05-4.71-19.73,2.78-20.96,6.81Z" style="fill:#72929d;" />
				</g>
				<polygon points="1627.42 725.24 1775.74 870.6 2111.29 818.16 1957.92 652.69 1627.42 725.24" style="fill:#fcf8f1;" />
				<polygon points="1585.1 824.96 1939.07 730.02 2110.53 914.45 1765.31 1031.01 1585.1 824.96" style="fill:#469857;" />
				<polygon points="1792.08 719.27 1681.38 913.94 2045.95 1042.94 2111.52 826.29 1792.08 719.27" style="fill:#ffd500;" />
				<g>
					<polygon points="420.18 450.08 -127.45 448.33 -127.45 -248.12 420.18 -246.37 420.18 450.08" style="fill:#d7be7e;" />
					<g>
						<rect x="-109.34" y="-219.69" width="505.34" height="642.88" style="fill:#00756b;" />
						<g style="clip-path:url(#e);">
							<g>
								<polygon points="-306.66 -142.06 92.95 635.23 595.51 -124.15 -306.66 -142.06" style="fill:none;" />
								<polygon points="-430.36 -114.22 -54 473.68 344.09 -174.61 -430.36 -114.22" style="fill:#3b9bd2;" />
								<polygon points="-30.71 -286.86 327.17 642.63 856.7 -221.07 -30.71 -286.86" style="fill:#00a183;" />
								<polygon points="-146.3 -590.37 139.67 161.14 476.64 -573.75 -146.3 -590.37" style="fill:#171f41;" />
							</g>
						</g>
					</g>
				</g>
				<path d="M570.3,78.24c-24.87,0-35,5.96-35.75,30.53-.97,31.93,.22,552.71,.22,570.43s9,31.6,31.23,32.16c22.22,.56,780.01-.17,802.63-1,28.03-1.03,37.86-8.98,39.2-32.9,1.33-23.92,1.65-550.09,1-568.68-.79-23.03-3.05-30.69-28.3-32.02s-788.9,1.49-810.23,1.49h0Z" style="fill:#4e6c78;" />
				<g>
					<polygon points="540.96 718.99 367.31 910.92 383.12 955.43 1554.76 946.26 1567.95 905.67 1395.93 716.66 540.96 718.99" style="fill:#4e6c78;" />
					<g style="clip-path:url(#f);">
						<polygon points="326.65 926.29 1580.65 917.19 1581.49 1030.9 386.18 1015.54 326.65 926.29" style="fill:#4d8d97;" />
					</g>
				</g>
				<rect x="565.49" y="110.44" width="812.41" height="556.57" style="fill:#fcf8f1;" />
				<path d="M856.54,840.62l-16.54,30.05c-2.79,5.07,.88,11.28,6.67,11.27l290.53-.29c5.63,0,9.3-5.91,6.81-10.96l-15.58-31.65c-3.26-6.61-10.02-10.77-17.39-10.69l-238.1,2.47c-6.84,.07-13.11,3.82-16.4,9.81h0Z" style="fill:#d55596;" />
				<polygon points="582.87 730.95 531.48 816.08 1399.02 809.92 1347.85 726.93 582.87 730.95" style="fill:#234335;" />
				<path d="M590.99,740.83l-7.65,9.81c-1.98,2.54,.37,5.79,4.19,5.79h18.91c2.16,0,4.07-1.1,4.69-2.71l3.82-9.81c.95-2.45-1.4-4.92-4.69-4.92h-15.09c-1.71,0-3.31,.7-4.19,1.84h.01Z" style="fill:#428a3d;" />
				<path d="M625.32,741.55l-3.58,10.03c-.9,2.51,1.55,4.99,4.9,4.97l17.23-.11c2.48-.02,4.58-1.43,4.95-3.34l1.91-9.92c.46-2.37-1.9-4.5-4.99-4.5h-15.57c-2.27,0-4.25,1.18-4.86,2.87h.01Z" style="fill:#ee7f00;" />
				<path d="M657.8,742.46l-1.61,10.35c-.33,2.14,1.81,4.02,4.58,4.02h15.23c2.44,0,4.46-1.49,4.61-3.38l.81-10.67c.16-2.1-2.04-3.86-4.74-3.8l-14.42,.33c-2.28,.05-4.17,1.39-4.45,3.16h-.01Z" style="fill:#fdd900;" />
				<path d="M578.43,762.95l-8.69,11.15c-2.25,2.89,.42,6.58,4.77,6.58h21.5c2.46,0,4.62-1.25,5.34-3.08l4.35-11.15c1.08-2.78-1.59-5.59-5.34-5.59h-17.16c-1.95,0-3.76,.79-4.77,2.09Z" style="fill:#3aaba8;" />
				<path d="M616.6,763.49l-4.06,11.4c-1.02,2.85,1.76,5.67,5.57,5.65l19.58-.12c2.82-.02,5.2-1.63,5.62-3.8l2.18-11.28c.52-2.7-2.16-5.12-5.67-5.12h-17.7c-2.58,0-4.84,1.34-5.52,3.27h0Z" style="fill:#d29dc3;" />
				<path d="M565.77,787.31l-9.94,12.75c-2.57,3.3,.48,7.52,5.45,7.52h24.58c2.81,0,5.29-1.43,6.1-3.52l4.97-12.75c1.24-3.18-1.82-6.39-6.1-6.39h-19.61c-2.23,0-4.3,.91-5.45,2.39Z" style="fill:#d02b86;" />
				<g>
					<path d="M1340.21,779.34l4.65,13.03c1.16,3.26-2.01,6.48-6.37,6.46l-22.39-.14c-3.22-.02-5.95-1.86-6.43-4.34l-2.49-12.89c-.59-3.08,2.47-5.85,6.48-5.85h20.23c2.95,0,5.53,1.53,6.32,3.73h0Z" style="fill:#8db2bf;" />
					<g>
						<path d="M1288.39,755.5l2.47,10.85c.53,2.33-1.56,4.43-4.47,4.44l-15.94,.06c-2.55,.01-4.66-1.62-4.82-3.69l-.83-11.19c-.16-2.12,2-3.88,4.67-3.84l14.27,.23c2.27,.04,4.24,1.36,4.64,3.14h0Z" style="fill:#eee2dd;" />
						<path d="M1296.92,779.03l3.41,14.42c.74,3.13-1.78,5.94-5.4,5.93h-19.8c-3.17,0-5.81-2.2-6.03-4.98l-1.17-14.87c-.22-2.79,2.41-5.09,5.68-5.02l17.5,.36c2.78,.06,5.25,1.81,5.8,4.15h.01Z" style="fill:#0081c2;" />
					</g>
				</g>
				<g>
					<polygon points="1412.2 1009.64 1463.92 1015.75 1844.36 925.22 1847.47 914.85 1842.32 900.67 1832.69 893.02 1452.19 978.36 1412.12 1008.64 1412.2 1009.64" style="fill:#f3e5cc;" />
					<g style="clip-path:url(#g);">
						<g>
							<polygon points="1444.08 1020.59 1431.9 987.98 1398.23 1004.82 1416.08 1030.94 1444.08 1020.59" style="fill:#234335;" />
							<path d="M1463.9,1026.14s12.64-7.35,9.81-17.87c-2.84-10.52-13.29-9.43-13.29-9.43l-.22-1.55s11.25-4.2,8.85-14.41c-2.03-8.62-16.33-12.95-16.33-12.95l405.09-95.04,5.21,76.61-399.12,74.64Z" style="fill:#ea6527;" />
						</g>
					</g>
				</g>
			</g>
		</g>
	</g>
</svg>
