<?xml version="1.0" encoding="UTF-8"?>
<svg xmlns="http://www.w3.org/2000/svg" xmlns:xlink="http://www.w3.org/1999/xlink" viewBox="0 0 1920 1080">
	<defs>
		<style>
			.k,.l,.m,.n{fill:none;}.o{fill:#f3f4f0;}.p{fill:#f7c4ce;}.q{fill:#00ace1;}.r{fill:#00a79b;}.s{fill:#008389;}.t{fill:#ed7703;}.u{fill:#f2974a;}.v{fill:#ec7527;}.w{fill:#e6f1e2;}.x{fill:#ffe547;}.y{fill:#ffe251;}.a`{fill:#f39948;}.aa{fill:#fee608;}.ab{fill:#fbe91e;}.ac{fill:#e5f2ee;}.ad{fill:#e85627;}.ae{fill:#e8523b;}.af{fill:#fcf8f1;}.ag{fill:#fdf9f3;}.ah{fill:#6b5738;}.ai{fill:#009f65;}.aj{fill:#bac4cb;}.ak{fill:#bb5396;}.al{fill:#a68953;}.am{fill:#ab9137;}.an{fill:#dac38a;}.ao{fill:#d7ebee;}.ap{fill:#b2c9d1;}.aq{fill:#cfe6ea;}.ar{fill:#dfbe84;}.as{fill:#c3e3e8;}.at{fill:#dcded9;}.au{fill:#afb1b4;}.av{fill:#a93985;}.aw{fill:#428a3d;}.ax{fill:#535b81;}.ay{fill:#352e50;}.b`{fill:#3d3c50;}.ba{fill:#272a3e;}.bb{fill:#5e626c;}.bc{fill:#501f74;}.bd{fill:#82b556;}.be{fill:#7bb2dd;}.l,.m,.n{stroke:#d4c27f;stroke-linecap:round;stroke-miterlimit:10;stroke-width:1.35px;}.m{stroke-dasharray:0 0 0 0 0 0 0 0 0 0 3.43 5.14;}.n{stroke-dasharray:0 0 0 0 0 0 3.43 5.14;}.bf{clip-path:url(#c);}.bg{clip-path:url(#f);}.bh{clip-path:url(#e);}.bi{clip-path:url(#d);}.bj{clip-path:url(#i);}.bk{clip-path:url(#h);}.bl{clip-path:url(#g);}
		</style>
		<clipPath id="c">
			<rect width="1920" height="1080" style="fill:none;" />
		</clipPath>
		<clipPath id="d">
			<polygon points="120.09 189.6 122.76 405.38 288.06 406.08 288.11 188.65 120.09 189.6" style="fill:none;" />
		</clipPath>
		<clipPath id="e">
			<path d="M983.67,505.29c-74.97,3.7-142.46-17.8-175.69,51.84-9.75,20.42-10.64,50.84-24.11,86.66-14.89,39.61-41.72,84.28-36.95,95.02,16.42,36.94,107.29-15.04,163.61-3.59,56.32,11.45,88.09,30.35,198.82,22.71,110.73-7.64,359.79-18.74,446.97-6.81,92.33,12.64,344.91,12.02,384.05,12.02s89.79-11.08,103.15-25.4-21.89-136.3-33.35-171.62c-11.45-35.32-13.05-49.17-72.24-53.95-59.18-4.77-876.94-10.71-954.26-6.89h0Z" style="fill:none;" />
		</clipPath>
		<clipPath id="f">
			<path d="M1606.78,266.9c-4.8,10.81,0,76.7-2.64,129.59s-37.03,105.79-21.16,116.37c15.87,10.58,113.72,13.22,169.26,13.22s185.13,29.09,195.71,13.22c10.58-15.87,0-95.21,7.93-126.95,7.93-31.74,26.45-105.79,15.87-113.72s-126.95-10.58-177.2-18.51c-50.25-7.93-177.2-37.03-187.78-13.22h.01Z" style="fill:none;" />
		</clipPath>
		<clipPath id="g">
			<path d="M1249.56,375.96c0,10.38,12.45,39.43,8.3,64.34-4.15,24.9-24.9,89.24-14.53,93.39,10.38,4.15,97.54-2.08,118.29,2.08,20.75,4.15,62.26-2.08,78.86-8.3,16.6-6.23,6.23-87.16,8.3-107.92,2.08-20.75,12.45-66.41,6.23-78.86-6.23-12.45-62.26-4.15-85.09-4.15s-120.37,20.75-120.37,39.43h0Z" style="fill:none;" />
		</clipPath>
		<clipPath id="h">
			<path d="M1429.76,465.81c-6.45,27.96-32.91,77.05-17.46,85.87,15.45,8.83,143.28,.21,189.63,4.63,46.35,4.41,123.61,8.83,130.23,2.21s11.04-50.77,11.04-66.22,19.87-64.01,8.83-72.84-119.2,13.24-163.34,8.83-128.03-35.32-147.89-28.7c-19.87,6.62-4.41,37.52-11.04,66.22Z" style="fill:none;" />
		</clipPath>
		<clipPath id="i">
			<polygon points="440.59 251.45 442.09 368.79 613.43 368.7 612.74 249.65 440.59 251.45" style="fill:none;" />
		</clipPath>
	</defs>
	<g id="a">
		<g id="b">
			<g style="clip-path:url(#c);">
				<g>
					<rect x="-203.44" y="-87.89" width="2431.61" height="1442.67" style="fill:#dcded9;" />
					<polygon points="-153.54 693.97 2005.29 664.76 2060.79 1351.26 -159.39 1342.49 -153.54 693.97" style="fill:#bac4cb;" />
					<polygon points="197.79 801.32 197.45 473.35 52.56 473.84 52.56 470.07 -64.28 469.03 -64.89 800.76 197.79 801.32" style="fill:#f3f4f0;" />
					<g>
						<polygon points="172.7 498.52 105.46 497.95 96.31 508.93 53.52 508.72 44.81 497.44 -21.51 496.89 -21.83 560.49 173.02 563.79 172.7 498.52" style="fill:#b2c9d1;" />
						<polygon points="171.76 572.94 105.75 572 96.16 583.51 53.37 583.3 43.97 571.13 -21.5 570.2 -20.87 630.5 172.39 631.57 171.76 572.94" style="fill:#b2c9d1;" />
						<polygon points="173.19 640.37 107.12 640 96.95 652.19 54.16 651.98 44.64 639.65 -20.39 639.29 -21.03 695.7 173.5 696.78 173.19 640.37" style="fill:#b2c9d1;" />
						<polygon points="172.12 707.85 106.05 707.48 95.88 719.67 53.1 719.46 43.57 707.13 -21.46 706.77 -22.1 763.18 172.43 764.26 172.12 707.85" style="fill:#b2c9d1;" />
					</g>
					<g>
						<polygon points="63.86 143.64 64.38 465.6 347.34 465.32 342.39 140.64 63.86 143.64" style="fill:#fdf9f3;" />
						<g>
							<polygon points="120.09 189.6 122.76 405.38 288.06 406.08 288.11 188.65 120.09 189.6" style="fill:#c3e3e8;" />
							<g style="clip-path:url(#d);">
								<g>
									<polygon points="95.45 299.74 386.1 214.25 392.78 443.34 95.44 526.91 95.45 299.74" style="fill:#e5f2ee;" />
									<polygon points="60.12 201.51 350.77 116.02 357.46 345.11 60.12 428.68 60.12 201.51" style="fill:#d7ebee;" />
									<polygon points="93.44 307.97 372.79 154.6 394.23 429.31 96.89 512.88 93.44 307.97" style="fill:#c3e3e8;" />
									<polygon points="81.13 366.11 371.78 280.61 378.47 509.71 81.12 593.28 81.13 366.11" style="fill:#cfe6ea;" />
								</g>
							</g>
						</g>
					</g>
					<g>
						<g>
							<polygon points="1415.11 113.85 1381.36 235.87 1477.95 263.03 1508.67 141.04 1415.11 113.85" style="fill:#fcf8f1;" />
							<path d="M1454.81,148.04s-4.31-17.5-20.81-16.48-15.48,17.52-13.81,31.82c1.68,14.3,11.08,44.73,11.08,44.73,0,0,26.91-11.67,39.75-26.38,12.84-14.72,19.42-32.52,9.42-39.14s-25.64,5.45-25.64,5.45h.01Z" style="fill:#e85627;" />
							<path d="M1464.25,201.95s7.89-5.33,14,.92c6.11,6.24-.14,12.35-5.86,17.36-5.73,5.01-20.19,13.6-20.19,13.6,0,0-6.41-14.11-6.23-24.42s3.91-19.62,10.18-18.67c6.26,.95,8.12,11.22,8.12,11.22h-.02Z" style="fill:#bb5396;" />
						</g>
						<polygon points="1462.59 115.61 1456.28 131.31 1466.17 134.05 1472.34 118.73 1462.59 115.61" style="fill:#dac38a;" />
					</g>
					<polygon points="540.03 474.69 413.46 806.8 438.83 805.69 563.21 474.12 540.03 474.69" style="fill:#f3f4f0;" />
					<polygon points="373.52 390.53 369.48 340.76 375.17 339.85 380.48 388 373.52 390.53" style="fill:#428a3d;" />
					<polygon points="368.31 437.56 392.55 345.75 397.49 347.32 375.05 440.64 368.31 437.56" style="fill:#ec7527;" />
					<polygon points="569.02 478.37 688.41 808.66 662.78 809.23 547.13 481.04 569.02 478.37" style="fill:#f3f4f0;" />
					<g>
						<polygon points="881.9 783.93 893.19 901.29 923.12 901.29 933.69 787.46 881.9 783.93" style="fill:#a68953;" />
						<polygon points="1864.97 799.61 1876.26 916.98 1906.19 916.98 1916.76 803.14 1864.97 799.61" style="fill:#a68953;" />
						<path d="M881.96,546.87c-45.22,8.82-55.34,18.14-61.09,62.05-17.41,133-42.51,219.69-42.51,219.69,0,0,68.21,24.3,182.83,18.96,108.02-5.03,745.17,6.58,908.3,16.57,77.9,4.77,168.74-42.61,173.18-40.02,0,0-26-97.18-30.78-161.13-4.77-63.96-18.81-134.24-61.77-134.24s-408.56-3.82-544.11-4.77c-135.55-.95-484.92,15.27-524.06,22.91v-.02Z" style="fill:#f7c4ce;" />
						<g>
							<path d="M983.67,505.29c-74.97,3.7-142.46-17.8-175.69,51.84-9.75,20.42-10.64,50.84-24.11,86.66-14.89,39.61-41.72,84.28-36.95,95.02,16.42,36.94,107.29-15.04,163.61-3.59,56.32,11.45,88.09,30.35,198.82,22.71,110.73-7.64,359.79-18.74,446.97-6.81,92.33,12.64,344.91,12.02,384.05,12.02s89.79-11.08,103.15-25.4-21.89-136.3-33.35-171.62c-11.45-35.32-13.05-49.17-72.24-53.95-59.18-4.77-876.94-10.71-954.26-6.89h0Z" style="fill:#ed7703;" />
							<g style="clip-path:url(#e);">
								<g>
									<path d="M821.31,573.05c94.63,6.3,537.25,2.6,703.93,10.5s576.29,22.31,609.73,2.97,33.93-168.33,33.93-168.33l-1371.16-24.41-130.63,64.56s10.46,105.14,154.21,114.71h0Z" style="fill:#f39948;" />
									<path d="M884.79,555.39c94.63,6.3,537.25,2.6,703.93,10.5s576.29,22.31,609.73,2.97,33.93-168.33,33.93-168.33l-1371.16-24.41-152.6,94.98s32.42,74.72,176.17,84.28h0Z" style="fill:#ed7703;" />
								</g>
							</g>
						</g>
					</g>
					<g>
						<path d="M1606.78,266.9c-4.8,10.81,0,76.7-2.64,129.59s-37.03,105.79-21.16,116.37c15.87,10.58,113.72,13.22,169.26,13.22s185.13,29.09,195.71,13.22c10.58-15.87,0-95.21,7.93-126.95,7.93-31.74,26.45-105.79,15.87-113.72s-126.95-10.58-177.2-18.51c-50.25-7.93-177.2-37.03-187.78-13.22h.01Z" style="fill:#008389;" />
						<g style="clip-path:url(#f);">
							<g>
								<path d="M1543.3,288.06s224.8,29.09,282.99,34.38c58.18,5.29,195.71,10.58,195.71,10.58v39.67s-129.59,5.29-222.16-10.58c-92.57-15.87-264.47-26.45-264.47-26.45l7.93-47.61h0Z" style="fill:#00ace1;" />
								<path d="M1535.37,380.62s177.2,26.45,261.83,29.09c84.63,2.64,201,0,201,0v39.67s-103.15,7.93-198.36-2.64c-95.21-10.58-277.7-23.8-277.7-23.8l13.22-42.32h.01Z" style="fill:#00ace1;" />
								<path d="M1514.21,491.7c7.93,0,190.42,7.93,267.12,13.22s222.16,23.8,222.16,23.8l-7.93,103.15-444.32-21.16-37.03-119.01h0Z" style="fill:#00ace1;" />
							</g>
						</g>
					</g>
					<g>
						<g>
							<path d="M1249.56,375.96c0,10.38,12.45,39.43,8.3,64.34-4.15,24.9-24.9,89.24-14.53,93.39,10.38,4.15,97.54-2.08,118.29,2.08,20.75,4.15,62.26-2.08,78.86-8.3,16.6-6.23,6.23-87.16,8.3-107.92,2.08-20.75,12.45-66.41,6.23-78.86-6.23-12.45-62.26-4.15-85.09-4.15s-120.37,20.75-120.37,39.43h0Z" style="fill:#fcf8f1;" />
							<g style="clip-path:url(#g);">
								<g>
									<path d="M1366.92,498.32c-33.08,9.27-80.85-4.62-86.36-52.98-5.51-48.43,29.03-73.38,53.84-76.35,34.95-4.21,70.44,11.22,80.28,50.74,8.54,34.33-12.61,68.76-47.77,78.59h.01Z" style="fill:#a93985;" />
									<path d="M1344.88,389.35c-4.02-9.9-14.98-11.62-24.78-7.43-9.77,4.18-14.58,12.8-11.08,22.86,1.49,4.27,6.81,7.47,5.79,9.25-1.03,1.78-10.62-2.62-15.95-.36-9.81,4.2-14.35,15.57-10.18,25.36,4.14,9.63,15.14,14.19,24.84,10.36l.02,.02c-8.15,4.88-11.7,15.16-7.84,24.16,4.18,9.81,15.52,14.35,25.31,10.17,5.84-2.49,9.84-13.68,11.21-13.24s1.37,5.36,2.11,7.13c4.19,9.8,16.04,13.12,25.83,8.92,9.8-4.18,13.16-16.02,8.96-25.85-1.11-2.6-5.9-5.15-4.74-6.65s11.69,2.36,17.51,1.28c12.08-2.23,13.07-16.33,8.89-26.12-4.14-9.73-25.02-8.61-25.03-10.29s14.1-9.3,8.21-24.39c-3.88-9.93-15.51-14.37-25.3-10.16-6.97,2.99-10.56,16.61-11.7,16.66s.34-5.72-2.07-11.66v-.02Z" style="fill:#e8523b;" />
								</g>
							</g>
						</g>
						<path d="M1348.27,448.78c-9.33,2.61-22.81-1.3-24.36-14.94-1.55-13.66,8.19-20.7,15.19-21.54,9.86-1.19,19.87,3.17,22.64,14.31,2.41,9.68-3.56,19.39-13.47,22.17Z" style="fill:#00a79b;" />
					</g>
					<g>
						<path d="M1429.76,465.81c-6.45,27.96-32.91,77.05-17.46,85.87,15.45,8.83,143.28,.21,189.63,4.63,46.35,4.41,123.61,8.83,130.23,2.21s11.04-50.77,11.04-66.22,19.87-64.01,8.83-72.84-119.2,13.24-163.34,8.83-128.03-35.32-147.89-28.7c-19.87,6.62-4.41,37.52-11.04,66.22Z" style="fill:#009f65;" />
						<g style="clip-path:url(#h);">
							<g>
								<g>
									<path d="M1515.33,521c-12.84-3.69-13.72-17.82-11.26-25.62,2.51-7.83,10.23-16.27,5.72-20.21-4.52-3.96-10.6,7.34-20.82,12.32-22.56,11.02-34.71-15.24-18.01-24.81,16.69-9.58,24.72-7.55,25.42-12.15,.73-4.59-9.54-7.47-16.71-13.4-7.76-6.37-12.15-17.49-2.31-26.97,9.82-9.48,18.09-5.19,25.7,3.63,5.22,6.02,6.28,22.03,12.16,20.59,5.85-1.5,9.41-14.97,19.93-23.01,12.82-9.89,28.21,2.62,26.74,16.36-1.23,11.45-19.62,16.21-20.32,23.27-.59,6.07,9.52,3.74,26.45,7.21,18.2,3.76,15.03,29.66-1.83,29.48-16.86-.16-29.59-15.22-35.06-8.41-4.03,5.04,6.61,13.74,7.03,23.17,.8,17.87-8.08,22.78-22.83,18.54h0Z" style="fill:#82b556;" />
									<path d="M1514.14,444.36c-5.73,1.28-11.01,8.53-8.91,15.36,2.24,7.38,9.61,11.33,16.81,9.21,5.63-1.66,9.98-6.69,8.51-14.95-1.02-5.66-8.05-11.53-16.41-9.63h0Z" style="fill:#352e50;" />
								</g>
								<g>
									<path d="M1627.94,587.82c-12.84-3.69-13.72-17.82-11.26-25.62,2.51-7.83,10.23-16.27,5.72-20.21-4.52-3.96-10.6,7.34-20.82,12.32-22.56,11.02-34.71-15.24-18.01-24.81,16.69-9.58,24.72-7.55,25.42-12.15,.73-4.59-9.54-7.47-16.71-13.4-7.76-6.37-12.15-17.49-2.31-26.97,9.82-9.48,18.09-5.19,25.7,3.63,5.22,6.02,6.28,22.03,12.16,20.59,5.85-1.5,9.41-14.97,19.93-23.01,12.82-9.89,28.21,2.62,26.74,16.36-1.23,11.45-19.62,16.21-20.32,23.27-.59,6.07,9.52,3.74,26.45,7.21,18.2,3.76,15.03,29.66-1.83,29.48-16.86-.16-29.59-15.22-35.06-8.41-4.03,5.04,6.61,13.74,7.03,23.17,.8,17.87-8.08,22.78-22.83,18.54h0Z" style="fill:#82b556;" />
									<path d="M1626.74,511.18c-5.73,1.28-11.01,8.53-8.91,15.36,2.24,7.38,9.61,11.33,16.81,9.21,5.63-1.66,9.98-6.69,8.51-14.95-1.02-5.66-8.05-11.53-16.41-9.63h0Z" style="fill:#352e50;" />
								</g>
								<g>
									<path d="M1707.98,506.36c-12.84-3.69-13.72-17.82-11.26-25.62,2.51-7.83,10.23-16.27,5.72-20.21-4.52-3.96-10.6,7.34-20.82,12.32-22.56,11.02-34.71-15.24-18.01-24.81,16.69-9.58,24.72-7.55,25.42-12.15,.73-4.59-9.54-7.47-16.71-13.4-7.76-6.37-12.15-17.49-2.31-26.97,9.82-9.48,18.09-5.19,25.7,3.63,5.22,6.02,6.28,22.03,12.16,20.59,5.85-1.5,9.41-14.97,19.93-23.01,12.82-9.89,28.21,2.62,26.74,16.36-1.23,11.45-19.62,16.21-20.32,23.27-.59,6.07,9.52,3.74,26.45,7.21,18.2,3.76,15.03,29.66-1.83,29.48-16.86-.16-29.59-15.22-35.06-8.41-4.03,5.04,6.61,13.74,7.03,23.17,.8,17.87-8.08,22.78-22.83,18.54h0Z" style="fill:#82b556;" />
									<path d="M1706.78,429.71c-5.73,1.28-11.01,8.53-8.91,15.36,2.24,7.38,9.61,11.33,16.81,9.21,5.63-1.66,9.98-6.69,8.51-14.95-1.02-5.66-8.05-11.53-16.41-9.63h0Z" style="fill:#352e50;" />
								</g>
							</g>
						</g>
					</g>
					<g>
						<g>
							<polygon points="1566.71 77.86 1590.23 246.01 1722.43 224.52 1692.16 57.92 1566.71 77.86" style="fill:#7bb2dd;" />
							<polygon points="1624.14 46.92 1630.4 79.03 1644.5 75.9 1635.1 44.57 1624.14 46.92" style="fill:#fbe91e;" />
							<path d="M1684.64,175.48c-7.27-15.88-11.28-27.27-11.21-34.25,.11-10.36,8.72-20.37,8.72-20.37l-3.62-2.26s-13.58,9.05-12.42,25.21c.7,9.75,8.36,26.82,11.92,34.59,5.24,11.4,8.09,21.19,2.46,26.32-4.3,3.92-14.13,.7-16.32-2.11-.26-.33,1.88-40.01-17.67-55.77-7.67-6.18-14.69-4.89-15-7.53s1.82-6.56,2.44-11.3c.79-6.05-.76-11.2-.76-11.2l1.77-9.81-10.88,4.74s-3.19-1.28-6.7-1.36c-3.85-.09-7.31,.77-7.31,.77l-10.97-4.36,1.84,9.15s-1.47,8.98-.58,13.51c1.31,6.68,4.09,10.34,4.39,13.35,.3,3.01-4.29,6.66-4.14,15.68s4.85,13.17,6.51,22.22c1.66,9.06,.88,20.18,.39,25.05-.49,4.87-2.13,6.94-2.25,11.45-.11,4.5,6.69,1.43,6.69,1.43,0,0,4.78-5.41,5.62-9.15,.84-3.73,1-10.06,1.08-13.52,.09-3.54,2.77-3.98,3.41,.54,.64,4.52,1.85,7.25,1.38,10.99s-4.04,7.57-4.25,10.3c-.34,4.33,7.51,1.2,7.51,1.2,0,0,6.74-5.62,7.2-8.99,.46-3.37-1.2-14.38,.07-14.81,1.42-.48,2.22,6.27,4.12,9.01,2.9,4.2,6.29,3.92,6.38,5.07,.19,2.26-3.7,2.31-6.36,3.5-2.92,1.31-1.4,6.07-1.4,6.07,0,0,5.81-.33,11.72-1.63,3.86-.85,15.14-5.05,15.14-5.05,0,0,15.34,2.78,21.18-1.02,8.9-5.79,6.98-20.16-.11-35.64v-.02Z" style="fill:#501f74;" />
						</g>
						<path d="M1619.93,126.2s0-2.54,2.25-3.46c2.26-.92,4.37,.2,4.37,.2,0,0-.54,2.52-2.08,3.29-2.3,1.15-4.54-.04-4.54-.04h0Z" style="fill:#ffe251;" />
						<path d="M1613.35,126.3s0-2.54-2.25-3.46c-2.26-.92-4.37,.2-4.37,.2,0,0,.54,2.52,2.08,3.29,2.3,1.15,4.54-.04,4.54-.04h0Z" style="fill:#ffe251;" />
					</g>
					<g>
						<polygon points="511.31 323.75 492.69 462.97 561.22 460.85 544.81 323.78 511.31 323.75" style="fill:#5e626c;" />
						<g>
							<polygon points="440.59 251.45 442.09 368.79 613.43 368.7 612.74 249.65 440.59 251.45" style="fill:#fcf8f1;" />
							<g style="clip-path:url(#i);">
								<path d="M485.89,316.01s45.33,2.22,87.06,2.22,90.97-6.52,90.97-6.52l-1.85,91.48-157.63,9.15-18.54-96.33h-.01Z" style="fill:none;" />
							</g>
						</g>
					</g>
					<path d="M354.19,373.64c5.41-2.62,10.83-4.19,10.83-4.19l-.7-2.27-16.94,1.57-.1-.76,16.64-2.26-.07-1.41-16.86,1.52-.14-1.01,16.78-2.28-.07-1.41-16.99,1.53-.15-1.14,17.11-2.33-.07-1.41-17.34,1.56-.13-.95,17.42-2.37-.07-1.41-17.64,1.59-.18-1.35,17.45-2.37-.07-1.41-17.68,1.59-.16-1.22,16.34-3.62-.19-1.4-16.44,2.87-.14-1.02,16.22-3.59-.19-1.4-16.32,2.85-.16-1.16,16.28-3.61-.19-1.4-16.38,2.86-.13-.99,16.32-3.61-.19-1.4-16.42,2.87-.19-1.4,16.07-3.56-.19-1.4-16.17,2.82-.11-.79,16.35-3.62-.19-1.4-16.45,2.87-.13-.99,16.39-3.63-.19-1.4-16.49,2.88-.19-1.4,16.14-3.57-.19-1.4-16.24,2.83-.12-.88,16.27-3.45-.17-1.4-16.38,2.7-.14-1.03,16.17-3.43-.17-1.4-16.28,2.69-.16-1.16,16.26-3.45-.17-1.4-16.38,2.7-.13-.99,16.33-3.46-.17-1.4-16.45,2.72-.19-1.4,16.11-3.41-.17-1.4-16.22,2.68-.2-1.46,15.9-3.14,.17-2.45s-6.81-.17-14.15,.87c-7.34,1.05-10.83,.7-11.88,8.56-1.05,7.86,8.56,58.34,10.31,65.68s4.37,55.72,4.37,55.72l16.07-.17s-11.35-57.82-5.94-60.44v.1Z" style="fill:#3d3c50;" />
					<polygon points="339.04 386.05 344.13 463.84 386.99 465.3 396.43 386.05 339.04 386.05" style="fill:#fee608;" />
					<g>
						<path d="M89.33,391.62c-5.37,1.2-10.32,7.99-8.35,14.4,2.1,6.92,9.01,10.62,15.75,8.63,5.28-1.55,9.35-6.27,7.98-14.01-.95-5.3-7.55-10.8-15.38-9.02Z" style="fill:#ffe547;" />
						<path d="M89.33,347.17c-5.37,1.2-10.32,7.99-8.35,14.4,2.1,6.92,9.01,10.62,15.75,8.63,5.28-1.55,9.35-6.27,7.98-14.01-.95-5.3-7.55-10.8-15.38-9.02Z" style="fill:#ffe547;" />
						<path d="M89.33,302.71c-5.37,1.2-10.32,7.99-8.35,14.4,2.1,6.92,9.01,10.62,15.75,8.63,5.28-1.55,9.35-6.27,7.98-14.01-.95-5.3-7.55-10.8-15.38-9.02Z" style="fill:#ffe547;" />
						<path d="M89.33,258.26c-5.37,1.2-10.32,7.99-8.35,14.4,2.1,6.92,9.01,10.62,15.75,8.63,5.28-1.55,9.35-6.27,7.98-14.01-.95-5.3-7.55-10.8-15.38-9.02Z" style="fill:#ffe547;" />
						<path d="M89.33,213.8c-5.37,1.2-10.32,7.99-8.35,14.4,2.1,6.92,9.01,10.62,15.75,8.63,5.28-1.55,9.35-6.27,7.98-14.01-.95-5.3-7.55-10.8-15.38-9.02Z" style="fill:#ffe547;" />
						<path d="M89.33,169.35c-5.37,1.2-10.32,7.99-8.35,14.4,2.1,6.92,9.01,10.62,15.75,8.63,5.28-1.55,9.35-6.27,7.98-14.01-.95-5.3-7.55-10.8-15.38-9.02Z" style="fill:#ffe547;" />
					</g>
					<g>
						<path d="M313.17,390.04c-5.37,1.2-10.32,7.99-8.35,14.4,2.1,6.92,9.01,10.62,15.75,8.63,5.28-1.55,9.35-6.27,7.98-14.01-.95-5.3-7.55-10.8-15.38-9.02Z" style="fill:#ffe547;" />
						<path d="M313.17,345.59c-5.37,1.2-10.32,7.99-8.35,14.4,2.1,6.92,9.01,10.62,15.75,8.63,5.28-1.55,9.35-6.27,7.98-14.01-.95-5.3-7.55-10.8-15.38-9.02Z" style="fill:#ffe547;" />
						<path d="M313.17,301.14c-5.37,1.2-10.32,7.99-8.35,14.4,2.1,6.92,9.01,10.62,15.75,8.63,5.28-1.55,9.35-6.27,7.98-14.01-.95-5.3-7.55-10.8-15.38-9.02Z" style="fill:#ffe547;" />
						<path d="M313.17,256.68c-5.37,1.2-10.32,7.99-8.35,14.4,2.1,6.92,9.01,10.62,15.75,8.63,5.28-1.55,9.35-6.27,7.98-14.01-.95-5.3-7.55-10.8-15.38-9.02Z" style="fill:#ffe547;" />
						<path d="M313.17,212.23c-5.37,1.2-10.32,7.99-8.35,14.4,2.1,6.92,9.01,10.62,15.75,8.63,5.28-1.55,9.35-6.27,7.98-14.01-.95-5.3-7.55-10.8-15.38-9.02Z" style="fill:#ffe547;" />
						<path d="M313.17,167.77c-5.37,1.2-10.32,7.99-8.35,14.4,2.1,6.92,9.01,10.62,15.75,8.63,5.28-1.55,9.35-6.27,7.98-14.01-.95-5.3-7.55-10.8-15.38-9.02Z" style="fill:#ffe547;" />
					</g>
					<polygon points="-.38 484.84 646.07 485.09 645.75 462 -.35 459.17 -.38 484.84" style="fill:#ab9137;" />
				</g>
			</g>
		</g>
	</g>
	<g id="j">
		<g>
			<g>
				<path d="M808.1,76.35c-8.24,1.19-51.63-4.64-62.12,11.47-10.49,16.13-4.29,26.48-8.6,42.01-4.33,15.53,2.35,29.32,.5,39.47-1.85,10.15,9.88,34.04,9.88,34.04l121.19,6.8s5.34-27.69,8.42-41.43c3.09-13.74,9.96-24.32,5.03-37.46-4.93-13.14-8.11-19.85-15.53-32.41-7.4-12.54-17.45-29.3-32.27-30.49-14.81-1.2-18.26,6.82-26.48,8v-.02Z" style="fill:#afb1b4;" />
				<path d="M813.2,125.11c-14.44,.55-23.5,8.38-37.68,8.38s-26.54,5.98-25.3,16.71c1.24,10.75,4.26,40.89-1.39,42.34s-6.63-26.21-14.03-25.02c-7.4,1.2-6.78,13.14-5.55,27.46,1.24,14.32,2.28,29.52,7.23,29.52s9.45-3.85,9.45-3.85c0,0-3.57,29.71,4.45,41.07,8.02,11.35,20.23,27.02,33.82,31.79,13.59,4.77,17.5-.53,29.35-4.28,11.68-3.69,26.42-14.77,34.4-28.3,6.06-10.27,6.61-32.51,10.31-33.7,3.71-1.2,7.4,4.77,12.97-2.39,5.55-7.16,8.64-15.53,11.11-22.69,2.47-7.16,7.4-23.29,.62-25.08-6.78-1.79-16.66,12.54-17.9,16.13-1.24,3.59-4.93,5.98-5.55,1.2s4.33-14.93,1.24-23.29-4.33-8.95-3.09-22.69c1.24-13.74-17.9-14.93-25.92-16.13s-4.04-7.73-18.48-7.18l-.05-.02Z" style="fill:#dfbe84;" />
				<path d="M811.6,185.12l-1.73,5.56s14.79-1.85,24.77,1.85,13.43,4.45,13.43,4.45l2.11-4.64s-13.29-11.1-24.25-12.21c-10.94-1.12-14.34,4.96-14.34,4.96l.02,.02Z" style="fill:#afb1b4;" />
				<path d="M790.6,188.55l1.73-4.28s-1.46-9.02-16.09-9.79c-13.79-.74-20.11,6.72-20.11,6.72l1.18,4.14s13.71-1.98,18.7-1.82c5.75,.19,14.58,5.02,14.58,5.02v.02Z" style="fill:#afb1b4;" />
				<path d="M748.74,205.14s12.9,54.43,3.37,69.82c-9.53,15.37-68.55,22.47-68.55,22.47,0,0-17.48,67.16-15.9,65.11,1.6-2.04,257.63,57.49,254.98,57.49s-5.02-112.65-5.02-112.65c0,0-54.38-21.5-66.04-32.26-11.66-10.75-2.7-41.75-2.7-51.49v-25.13l-100.15,6.66v-.02Z" style="fill:#dfbe84;" />
				<path d="M784.69,246.38s.27,4.31,.55,6.99c.27,2.7,1.94,7.54,1.94,7.54l9.17-.81s1.12-3.23,1.67-6.99-.27-7.54-.27-7.54l-13.07,.81h.02Z" style="fill:none;" />
				<path d="M775.02,256.21c1.46,2.51,3.06,1.32,5.63,3.64,2.58,2.3,3.57,6.29,13.1,6.49,9.53,.21,18.09-4.83,21.06-4.19s3.78,.22,4.17-1.67c.39-1.89-9.34-9.86-14.91-9.45-5.56,.41-6.35,2.1-7.75,2.1s-2.58-3.57-7.75-2.3c-5.17,1.25-15.18,2.66-13.59,5.38h.02Z" style="fill:#f2974a;" />
			</g>
			<g>
				<path d="M776.26,191.28c-3.18-.89-6.01,.64-6.75,3.78-.76,3.14,.91,4.98,3.71,5.96,3.3,1.15,5.79-.34,6.89-3.5,.77-2.23-.58-5.31-3.85-6.23Z" style="fill:#6b5738;" />
				<polygon points="767.93 190.25 783.64 195.46 786.58 190.34 769.3 186.05 767.93 190.25" style="fill:#6b5738;" />
			</g>
			<g>
				<path d="M827.16,197.78c3.3,.15,5.5,2.49,5.22,5.7-.27,3.23-2.44,4.43-5.39,4.48-3.5,.05-5.39-2.15-5.44-5.5-.03-2.35,2.22-4.86,5.6-4.71l.02,.02Z" style="fill:#6b5738;" />
				<polygon points="835.56 197.98 819.76 199.46 818.58 193.69 835.58 193.55 835.56 197.98" style="fill:#6b5738;" />
			</g>
		</g>
		<path d="M674.15,735.31s-12.83,190.04-11.01,247.87c1.84,57.85,11.92,93.64,10.08,114.76-1.84,21.11-5.5,165.26-5.5,194.63s-3.68,90.89-3.68,90.89c0,0,21.09,11.01,43.09,8.26,22-2.75,41.25-10.1,41.25-10.1,0,0,8.24-22.04,6.42-44.98-1.84-22.95,13.76-78.04,10.08-112-3.66-33.97,5.5-100.06,10.99-123.94,5.5-23.87,16.51-120.26,25.66-162.49,9.17-42.23,44.91-123.94,44.91-123.94l-22.91-85.38-149.42,6.42,.02-.02Z" style="fill:#535b81;" />
		<path d="M804.32,769.28s36.67,179.02,42.17,256.13c5.5,77.12,8.24,83.54,10.08,98.23,1.84,14.68,7.33,155.16,13.76,189.12,6.42,33.97,11.92,83.54,11.92,83.54,0,0,14.67,2.75,34.83,4.59,20.16,1.84,40.33-6.42,40.33-6.42,0,0,8.24-22.95,.91-88.13-7.33-65.18-12.83-179.02-13.76-200.14-.91-21.11-4.59-22.04-1.84-52.33,2.75-30.3,22.91-136.8,21.09-187.28-1.84-50.5-27.5-156.98-27.5-156.98l-132.01,59.67,.02,.02Z" style="fill:#535b81;" />
		<g>
			<path d="M810.37,857.92s1.12,.17,2.89,.27" style="fill:none; stroke:#d4c27f; stroke-linecap:round; stroke-miterlimit:10; stroke-width:1.35px;" />
			<path d="M822.04,857.7c3.31-.62,6.7-1.87,9.24-4.24" style="fill:none; stroke:#d4c27f; stroke-dasharray:0 0 0 0 0 0 3.43 5.14; stroke-linecap:round; stroke-miterlimit:10; stroke-width:1.35px;" />
			<path d="M833.93,849.94c.27-.57,.53-1.15,.74-1.8,4.23-12.97,2.11-75.4,2.11-75.4v-6.44" style="fill:none; stroke:#d4c27f; stroke-dasharray:0 0 0 0 0 0 0 0 0 0 3.43 5.14; stroke-linecap:round; stroke-miterlimit:10; stroke-width:1.35px;" />
			<line x1="836.78" y1="761.88" x2="836.78" y2="758.98" style="fill:none; stroke:#d4c27f; stroke-linecap:round; stroke-miterlimit:10; stroke-width:1.35px;" />
		</g>
		<path d="M745.49,279.81s-5.91,12.07,13.04,25.13c18.96,13.05,30.21,10.68,28.43,10.08-1.77-.6,6.1,60.08,6.1,60.08l19.37-58.88s20.54,1.48,33.63-17.74c9.22-13.53,5.53-23.38,5.53-23.38,0,0,24.96,10.25,51.61,21.54,26.66,11.27,64.92,14.07,68.46,27.7,3.56,13.64-40.76,125.36-35.43,161.55,5.32,36.19,1.18,92.54,3.56,118.05,2.37,25.51,11.85,151.28,11.85,151.28,0,0-27.84,30.85-60.42,40.93-32.58,10.08-60.42,20.76-60.42,20.76,0,0-24.89-65.85-24.89-64.06s-7.11,71.78-7.11,71.78c0,0-39.69,10.68-94.77-20.76-55.08-31.45-68.96-46.13-68.96-46.13,0,0,26.3-90.32,30.45-141.33,4.14-51.01,5.32-145.94-6.51-181.52-11.85-35.59-36.53-105.58-17.59-119.21,18.96-13.64,46.42-18.14,60.9-22.6,18.86-5.81,43.16-13.22,43.16-13.22l.02-.02Z" style="fill:#e6f1e2;" />
		<path d="M926.44,317.52c-33.96,22.67-11.06,117.1-.39,157.45,10.67,40.34,30.55,86.99,45.36,95.89,14.81,8.9,69.3,8.21,72.86-16.71,3.56-24.92-29.25-70.64-37.54-118.7s-25.97-102.67-36.62-114.54c-10.67-11.87-31.22-11.7-43.66-3.38h0Z" style="fill:#e6f1e2;" />
		<path d="M939.23,721.31s-4.95,5.31-10.99,9.05-21.11,12.57-28.49,20.82c-7.39,8.24-36.36,36.7-36.36,36.7,0,0,2.27,10.24,13.64,5.98,11.37-4.26,20.46-12.23,20.46-12.23,0,0,5.39,15.08,23.87,18.5,18.46,3.42,31.26-1.43,31.26-1.43,0,0,8.24-10.82,13.64-22.76,5.39-11.95,15.06-37.56,15.06-37.56l-42.04-17.07h-.03Z" style="fill:#dfbe84;" />
		<path d="M652.68,308.37c-24.56,8.36-37.89,45.12-50.65,81.03-12.78,35.91-25.06,157.93-25.06,157.93,0,0,4.41,51.16,28,33.46,23.58-17.71,86.46-149.56,86.46-149.56l-38.75-122.85h0Z" style="fill:#e6f1e2;" />
		<path d="M966.3,547.86s-8.33,76.19-14.58,106.98c-6.25,30.8-19.29,72.02-19.29,72.02,0,0,19.29,3.13,34.38,10.96,15.11,7.83,10.29,16.39,10.29,16.39l20.46-47.7s15.11-1.05,20.85-29.22c5.74-28.18,25.54-86.63,25.54-99.67s3.64-29.75-7.3-42.27c-10.94-12.52-67.22-15.65-70.35,12.52v-.02Z" style="fill:#e6f1e2;" />
		<path d="M568.57,420.49s-3.25-38.4-4.96-49.58c-1.72-11.18-11.01-45.89-10.56-51.13s11.73-68.43,11.73-68.43c0,0,8.06-2.28,9.6,6.44s-1.65,46.53-1.65,46.53c0,0,10.96-11.83,14.53-12.83s10.91,4.72,11.37,7.63c.46,2.89,.98,4.05,.98,4.05,0,0,3.98-.84,8.33,3.56s1.36,6.75,1.36,6.75c0,0,8.33-1.37,9.46,6.39,1.12,7.76-5.96,18.24-5.96,18.24,0,0,.84,14.67-3.16,30.31s-6.96,18.33-5.31,22.31c1.63,3.98-3.74,33.32-3.74,33.32,0,0-31.76-3.8-32-3.57l-.02,.02Z" style="fill:#dfbe84;" />
		<path d="M560.83,380.73s17.19,7.3,30.23,9.39c13.02,2.1,22.41-4.17,22.41-4.17,0,0,1.05,77.75,3.13,125.76,2.08,48-15.63,79.32-36.48,78.8-20.85-.52-36.48-15.65-38.56-55.32-2.08-39.66-2.08-63.67,7.3-92.88,9.38-29.22,11.99-61.57,11.99-61.57h-.02Z" style="fill:#e6f1e2;" />
		<path d="M863.25,191.18c-1.72-.38-7.35-.81-9-1.29-1.65-.46-10.25-3.56-21.76-4-11.58-.45-17.38,1.19-22.81,2.08-3.5,.57-10.82,.31-15.22-1.15-5.22-1.73-10.68-4.26-22.19-5.65-11.42-1.39-20.4,.31-22.12,.5-1.7,.21-6.23,.14-7.83,.33s-.15,6.39,.89,6.87,3.97,1.19,4.38,2.83c.39,1.65,1.65,14.12,3.57,16.66,1.94,2.52,9.89,5.17,18,6.3,6.65,.93,16.06-.29,18.17-2.13,1.82-1.58,3.85-4.43,6.15-9.21,2.37-4.89,3.04-8.28,4.24-8.85,1.2-.57,6.72,.03,7.47,.55,1.1,.74,1.22,4.21,2.8,9.39,1.53,5.07,3.07,8.21,4.62,10.06,1.8,2.15,10.91,4.84,17.62,4.98,8.18,.15,16.45-1.19,18.77-3.38,2.32-2.2,5.51-14.32,6.17-15.89s4.02-1.1,5.82-1.67,3.93-6.97,2.23-7.35h.02Zm-73.42,9.27c-1.43,3.88-3.61,6.56-5.32,8.48-1.72,1.91-10.29,2.7-15.92,1.73-6.2-1.05-12.26-3.59-13.93-5.27-1.67-1.68-2.15-6.78-1.85-11.35,.27-4.57,1.01-7.64,2.2-8.88,1.39-1.46,9.91-.79,18.19,.4,7.69,1.1,16.3,3.44,18.05,5.03,1.77,1.61,0,5.96-1.43,9.84l.02,.02Zm55.91,12.52c-1.91,1.39-7.88,2.64-14.17,2.7-5.7,.05-14.05-2.08-15.44-4.23-1.39-2.16-3.11-5.15-3.92-9.22s-1.85-8.62,.14-9.94c1.99-1.31,10.85-2.25,18.62-2.13,8.36,.14,16.45,1.12,17.6,2.78,.98,1.43,1.22,4.57,.77,9.12s-1.72,9.52-3.62,10.91l.02,.02Z" style="fill:#272a3e;" />
	</g>
</svg>
