<?xml version="1.0" encoding="UTF-8"?>
<svg xmlns="http://www.w3.org/2000/svg" xmlns:xlink="http://www.w3.org/1999/xlink" viewBox="0 0 1920 1080">
	<defs>
		<style>
			.t{fill:none;}.u{fill:#f4a019;}.v{fill:#f3decd;}.w{fill:#f8b350;}.x{fill:#f2f5f9;}.y{fill:#fabd43;}.a`{fill:#00658d;}.aa{fill:#006443;}.ab{fill:#007581;}.ac{fill:#00814c;}.ad{fill:#0090cb;}.ae{fill:#007bc2;}.af{fill:#eee5c6;}.ag{fill:#f09393;}.ah{fill:#ed774c;}.ai{fill:#ed7a30;}.aj{fill:#f2934a;}.ak{fill:#e6f1e2;}.al{fill:#eaba00;}.am{fill:#f6bcc8;}.an{fill:#fdd900;}.ao{fill:#e95e2b;}.ap{fill:#e3ebde;}.aq{fill:#ef8227;}.ar{fill:#e6418d;}.as{fill:#e9b800;}.at{fill:#f39843;}.au{fill:#f0f4f8;}.av{fill:#ffd628;}.aw{fill:#ffd500;}.ax{fill:#fbf9f7;}.ay{fill:#fbf8f6;}.b`{fill:#e8523b;}.ba{fill:#ee7f00;}.bb{fill:#fcf6e7;}.bc{fill:#6b9e6a;}.bd{fill:#009e63;}.be{fill:#a0c443;}.bf{fill:#a19a9e;}.bg{fill:#8cbb15;}.bh{fill:#aa8d42;}.bi{fill:#aea7ab;}.bj{fill:#d8abcc;}.bk{fill:#a6cbce;}.bl{fill:#d9e3e9;}.bm{fill:#deb4d2;}.bn{fill:#dfbe84;}.bo{fill:#c48648;}.bp{fill:#c59bc1;}.bq{fill:#d7007a;}.br{fill:#d47241;}.bs{fill:#db9823;}.bt{fill:#d55998;}.bu{fill:#c695bf;}.bv{fill:#e2a972;}.bw{fill:#e42625;}.bx{fill:#ca332e;}.by{fill:#23a4a6;}.c`{fill:#3fa25a;}.ca{fill:#444851;}.cb{fill:#3d6b2a;}.cc{fill:#899586;}.cd{fill:#a44053;}.ce{fill:#a40872;}.cf{fill:#8a4967;}.cg{fill:#554b51;}.ch{fill:#352e50;}.ci{fill:#5a5099;}.cj{fill:#5a7a3e;}.ck{fill:#847052;}.cl{fill:#4a9055;}.cm{clip-path:url(#c);}.cn{clip-path:url(#f);}.co{clip-path:url(#e);}.cp{clip-path:url(#d);}.cq{clip-path:url(#n);}.cr{clip-path:url(#m);}.cs{clip-path:url(#l);}.ct{clip-path:url(#k);}.cu{clip-path:url(#j);}.cv{clip-path:url(#i);}.cw{clip-path:url(#h);}.cx{clip-path:url(#g);}.cy{clip-path:url(#s);}.d`{clip-path:url(#r);}.da{clip-path:url(#p);}.db{clip-path:url(#o);}
		</style>
		<clipPath id="c">
			<rect width="1920" height="1080" style="fill:none;" />
		</clipPath>
		<clipPath id="d">
			<path d="M238.07,154.67c-1.29,13.31-11.23,22.28-12.24,47.46-1.29,32.24-1.7,77.73-1.7,77.73l44.85,1.09s.3-46.75-1.34-76.99c-1.32-24.37-11.49-31.39-13.96-47.94-1.96-13.18-2.87-25.68-2.87-25.68l-10.67,.57s-.82,10.84-2.07,23.76h0Z" style="fill:none;" />
		</clipPath>
		<clipPath id="e">
			<path d="M288.05,155.28c-1.29,13.31-11.23,22.28-12.24,47.46-1.29,32.24-2.12,77.73-2.12,77.73l44.85,1.09s.72-46.75-.92-76.99c-1.32-24.37-11.49-31.39-13.96-47.94-1.96-13.18-2.87-25.68-2.87-25.68l-10.67,.57s-.82,10.84-2.07,23.76h0Z" style="fill:none;" />
		</clipPath>
		<clipPath id="f">
			<path d="M372.45,148.14c-1.3,13.43-11.33,22.47-12.34,47.86-1.3,32.51-2.14,78.39-2.14,78.39l45.23,1.09s.72-47.14-.93-77.65c-1.33-24.58-11.59-31.65-14.07-48.34-1.98-13.29-2.9-25.9-2.9-25.9l-10.76,.58s-.83,10.94-2.09,23.96h0Z" style="fill:none;" />
		</clipPath>
		<clipPath id="g">
			<polygon points="1637.39 453.31 1636.97 337.72 1485.37 337.31 1485.37 452.48 1637.39 453.31" style="fill:none;" />
		</clipPath>
		<clipPath id="h">
			<rect x="-330.3" y="377.73" width="1250.85" height="733.79" style="fill:none;" />
		</clipPath>
		<clipPath id="i">
			<polygon points="381.96 337.42 400.96 378.93 497.75 378.93 518.56 337.97 381.96 337.42" style="fill:none;" />
		</clipPath>
		<clipPath id="j">
			<path d="M274.13,486.01s-2.75-16.52-1.65-22.57c1.1-6.06,6.61-13.21,18.72-14.31,12.11-1.1,23.87,4.33,24.22,12.11,.55,12.11-2.75,29.18-2.75,29.18l-38.54-4.41h0Z" style="fill:none;" />
		</clipPath>
		<clipPath id="k">
			<path d="M214.47,487.09s-2.75-16.52-1.65-22.57c1.1-6.06,6.61-13.21,18.72-14.31s23.87,4.33,24.22,12.11c.55,12.11-2.75,29.18-2.75,29.18l-38.54-4.41h0Z" style="fill:none;" />
		</clipPath>
		<clipPath id="l">
			<path d="M339.22,487.85s-2.75-16.52-1.65-22.57c1.1-6.06,6.61-13.21,18.72-14.31,12.11-1.1,23.87,4.33,24.22,12.11,.55,12.11-2.75,29.18-2.75,29.18l-38.54-4.41h0Z" style="fill:none;" />
		</clipPath>
		<clipPath id="m">
			<path d="M391.73,486.93s-2.75-16.52-1.65-22.57c1.1-6.06,6.61-13.21,18.72-14.31,12.11-1.1,23.87,4.33,24.22,12.11,.55,12.11-2.75,29.18-2.75,29.18l-38.54-4.41h0Z" style="fill:none;" />
		</clipPath>
		<clipPath id="n">
			<path d="M439.64,486.01s-2.75-16.52-1.65-22.57c1.1-6.06,6.61-13.21,18.72-14.31,12.11-1.1,23.87,4.33,24.22,12.11,.55,12.11-2.75,29.18-2.75,29.18l-38.54-4.41h0Z" style="fill:none;" />
		</clipPath>
		<clipPath id="o">
			<polygon points="1303.75 92.96 1304.54 231.87 1409.41 231.45 1410.19 91.3 1303.75 92.96" style="fill:none;" />
		</clipPath>
		<clipPath id="p">
			<polygon points="1446.28 92.45 1447.06 231.37 1551.94 230.95 1552.72 90.79 1446.28 92.45" style="fill:none;" />
		</clipPath>
		<clipPath id="r">
			<path d="M1206.04,230.74c-4.36,.28-15.78,24.52-33.01,30.1-17.24,5.58-18.69,6.31-19.42,11.65-.73,5.34,2.91,12.62,1.46,14.32-1.46,1.7-5.1-7.28-8.25-8.01-3.16-.73-6.8,1.7-4.37,8.98s7.77,14.32,10.68,13.84c2.91-.49,4.13-1.21,4.13-1.21,0,0,0,8.5,7.53,13.35,7.53,4.86,16.26,16.02,33.26,12.87,16.99-3.16,23.3-15.05,26.22-20.15,2.91-5.1,2.91-13.84,2.91-13.84,0,0,7.25,3.49,8.95-.15,1.7-3.64,.76-5.92,1-14.9,.24-8.98,0-11.89-3.16-11.41s0,16.75-.97,19.42-2.18-.73-3.64-3.88c-1.46-3.16-5.58-9.95-10.68-23.3-5.1-13.35-5.1-28.16-12.62-27.67h-.02Z" style="fill:none;" />
		</clipPath>
		<clipPath id="s">
			<path d="M1163.48,302.94s2.48,17.37,1.51,23.41,9.28,25.25,18.99,33.98c9.71,8.74,18.12,13.27,18.12,13.27,0,0,11.11-11.76,16.83-19.53s6.47-18.88,4.75-22.22-4.1-4.53-4.53-10.14c-.43-5.61,0-12.19,0-12.19l-55.67-6.58h0Z" style="fill:none;" />
		</clipPath>
	</defs>
	<g id="a">
		<g id="b">
			<g style="clip-path:url(#c);">
				<g>
					<rect x="-245.49" y="-150.32" width="2454.94" height="1353.69" style="fill:#d9e3e9;" />
					<g>
						<g>
							<path d="M238.07,154.67c-1.29,13.31-11.23,22.28-12.24,47.46-1.29,32.24-1.7,77.73-1.7,77.73l44.85,1.09s.3-46.75-1.34-76.99c-1.32-24.37-11.49-31.39-13.96-47.94-1.96-13.18-2.87-25.68-2.87-25.68l-10.67,.57s-.82,10.84-2.07,23.76h0Z" style="fill:#ed774c;" />
							<g style="clip-path:url(#d);">
								<path d="M214.82,201.43l68.41-2.12,3.84,49.79-82.86,2.71s11.14-50.38,10.61-50.38h0Z" style="fill:#d55998;" />
							</g>
						</g>
						<path d="M238.65,143.98l.12-12.96c.02-1.45,1.18-2.62,2.63-2.66l7.92-.2c1.49-.04,2.73,1.14,2.77,2.64l.19,13.03-13.62,.15h-.01Z" style="fill:#a40872;" />
					</g>
					<g>
						<g>
							<path d="M288.05,155.28c-1.29,13.31-11.23,22.28-12.24,47.46-1.29,32.24-2.12,77.73-2.12,77.73l44.85,1.09s.72-46.75-.92-76.99c-1.32-24.37-11.49-31.39-13.96-47.94-1.96-13.18-2.87-25.68-2.87-25.68l-10.67,.57s-.82,10.84-2.07,23.76h0Z" style="fill:#a44053;" />
							<g style="clip-path:url(#e);">
								<path d="M267.34,202.24l63.77-1.98,1.48,49.93-75.14-.99s10.38-46.96,9.89-46.96h0Z" style="fill:#8a4967;" />
							</g>
						</g>
						<g>
							<path d="M372.45,148.14c-1.3,13.43-11.33,22.47-12.34,47.86-1.3,32.51-2.14,78.39-2.14,78.39l45.23,1.09s.72-47.14-.93-77.65c-1.33-24.58-11.59-31.65-14.07-48.34-1.98-13.29-2.9-25.9-2.9-25.9l-10.76,.58s-.83,10.94-2.09,23.96h0Z" style="fill:#847052;" />
							<g style="clip-path:url(#f);">
								<path d="M348.27,195.38l68.99-2.14,1.6,54.02-81.29-1.07s11.23-50.81,10.7-50.81Z" style="fill:#0090cb;" />
							</g>
						</g>
						<path d="M288.63,144.59l.12-12.96c.02-1.45,1.18-2.62,2.63-2.66l7.92-.2c1.49-.04,2.73,1.14,2.77,2.64l.19,13.03-13.62,.15h-.01Z" style="fill:#e9b800;" />
						<path d="M373.03,132.4l.12-13.07c.02-1.46,1.19-2.64,2.65-2.68l7.99-.2c1.51-.04,2.76,1.15,2.79,2.66l.19,13.15-13.74,.15h0Z" style="fill:#ca332e;" />
					</g>
					<polygon points="-356.74 277 2139.04 276.63 2157.49 298.47 -374.73 297.6 -356.74 277" style="fill:#f2f5f9;" />
					<polygon points="1549.21 429.46 1549.57 620.09 1568.33 619.2 1568.33 433.75 1549.21 429.46" style="fill:#554b51;" />
					<g>
						<polygon points="1655.18 469.25 1654.68 321.88 1470.45 321.36 1470.45 468.21 1655.18 469.25" style="fill:#554b51;" />
						<g>
							<polygon points="1637.39 453.31 1636.97 337.72 1485.37 337.31 1485.37 452.48 1637.39 453.31" style="fill:#00658d;" />
							<g style="clip-path:url(#g);">
								<g>
									<polygon points="1560.84 405.88 1560.84 434.9 1509.32 435.91 1508.95 405.55 1560.84 405.88" style="fill:#007581;" />
									<polygon points="1650.92 356.75 1653.02 418.86 1572.43 419.19 1572.48 354.63 1650.92 356.75" style="fill:#5a5099;" />
								</g>
							</g>
						</g>
					</g>
					<g>
						<polygon points="1411.31 483.16 1410.05 586.09 1391.29 585.2 1392.18 487.45 1411.31 483.16" style="fill:#554b51;" />
						<g>
							<polygon points="1427.28 434.82 1432.43 453.46 1395.35 505.81 1369.78 504.62 1363.63 492.72 1397.93 434.82 1427.28 434.82" style="fill:#554b51;" />
							<polygon points="1408.24 455.05 1400.91 468.13 1380.68 467.74 1389.01 453.86 1408.24 455.05" style="fill:#fcf6e7;" />
							<polygon points="1389.74 490.47 1388.2 493.83 1382.68 493.83 1384.09 489.86 1389.74 490.47" style="fill:#e42625;" />
							<polygon points="1381.61 490.26 1379.45 494.23 1374.34 493.96 1375.89 489.86 1381.61 490.26" style="fill:#ffd628;" />
							<polygon points="1373.54 489.79 1371.59 493.49 1367.15 491.81 1367.95 489.39 1373.54 489.79" style="fill:#3fa25a;" />
							<polygon points="1397.14 474.93 1395.59 477.62 1390.62 477.42 1391.76 474.6 1397.14 474.93" style="fill:#352e50;" />
							<polygon points="1389.47 474.46 1387.93 477.15 1382.95 476.95 1384.09 474.13 1389.47 474.46" style="fill:#352e50;" />
							<polygon points="1381.47 474.26 1379.92 476.95 1374.95 476.75 1376.09 473.92 1381.47 474.26" style="fill:#352e50;" />
							<polygon points="1378.71 479.5 1377.17 482.19 1372.19 481.99 1373.33 479.17 1378.71 479.5" style="fill:#352e50;" />
							<polygon points="1376.39 484.75 1374.84 487.44 1369.86 487.23 1371.01 484.41 1376.39 484.75" style="fill:#352e50;" />
							<polygon points="1394.72 480.11 1393.17 482.8 1388.2 482.6 1389.34 479.77 1394.72 480.11" style="fill:#352e50;" />
							<polygon points="1391.96 485.76 1390.41 488.45 1385.44 488.25 1386.58 485.42 1391.96 485.76" style="fill:#352e50;" />
							<polygon points="1386.45 479.91 1384.9 482.6 1379.92 482.4 1381.07 479.57 1386.45 479.91" style="fill:#352e50;" />
							<polygon points="1383.69 485.56 1382.14 488.25 1377.17 488.05 1378.31 485.22 1383.69 485.56" style="fill:#352e50;" />
							<polygon points="1424.3 473.69 1420.14 464.96 1403.48 485.19 1408.24 495.5 1413.4 488.56 1412.01 484.79 1418.36 477.26 1419.74 480.23 1424.3 473.69" style="fill:#a19a9e;" />
						</g>
					</g>
					<polygon points="594.73 562.26 2202.55 555.73 2213.43 1028.17 588.2 1012.93 594.73 562.26" style="fill:#f0f4f8;" />
					<polygon points="824.62 586.42 2381.44 579.89 2392.33 1052.33 818.08 1037.09 824.62 586.42" style="fill:#23a4a6;" />
					<polygon points="807.72 808.29 2364.55 801.76 2375.43 1274.2 801.19 1258.96 807.72 808.29" style="fill:#009e63;" />
					<g>
						<rect x="-330.3" y="377.73" width="1250.85" height="733.79" style="fill:#f0f4f8;" />
						<g style="clip-path:url(#h);">
							<g>
								<rect x="543.69" y="403.76" width="352.59" height="733.79" style="fill:#a6cbce;" />
								<rect x="159.93" y="404.72" width="352.59" height="733.79" style="fill:#a6cbce;" />
								<rect x="-50.02" y="505.87" width="960.82" height="18.66" style="fill:#f2f5f9;" />
								<rect x="-481.11" y="739.47" width="1410.36" height="262.97" style="fill:#f0f4f8;" />
							</g>
						</g>
					</g>
					<rect x="-345.84" y="876.74" width="2661.47" height="733.79" style="fill:#eee5c6;" />
					<g>
						<path d="M784.19,683.62c-7.24,1.26-25.28,13.49-21.97,31.11,3.33,17.65,14.28,25.11,29.43,23.61,13.62-1.31,34.18-14.74,29.12-34.46-5.07-19.75-25.71-22.2-36.58-20.26" style="fill:#ef8227;" />
						<polyline points="789.98 686.35 788.37 689.83 789.02 692.6 785.42 692.6 781.81 693.62 781.9 690.66 780.7 688.26 783.38 687.71 785.32 685.58 786.71 686.87 789.98 686.35" style="fill:#00814c;" />
					</g>
					<g>
						<path d="M708.01,637.38c-6.95-2.39-28.65-.41-34.27,16.62-5.61,17.06,.37,28.88,14.35,34.89,12.55,5.43,37.04,3.61,42.15-16.09,5.1-19.74-11.78-31.87-22.23-35.42" style="fill:#ffd500;" />
						<polyline points="711.77 642.57 708.68 644.84 707.91 647.58 704.75 645.84 701.1 644.98 702.61 642.44 702.72 639.76 705.34 640.57 708.06 639.64 708.65 641.44 711.77 642.57" style="fill:#00814c;" />
					</g>
					<g>
						<path d="M745.71,686.15c-6.16-4.01-27.7-7.34-37.28,7.82-9.58,15.19-6.64,28.11,5.47,37.33,10.86,8.31,35.06,12.48,44.79-5.4,9.73-17.92-3.71-33.77-12.99-39.75" style="fill:#ffd500;" />
						<polyline points="750.35 691.64 746.8 693.1 745.38 695.57 742.74 693.12 739.41 691.41 741.49 689.3 742.25 686.73 744.59 688.15 747.45 687.9 747.59 689.8 750.35 691.64" style="fill:#00814c;" />
					</g>
					<g>
						<path d="M679.84,686.05c-6.16-4.01-27.7-7.34-37.28,7.82-9.58,15.19-6.64,28.11,5.47,37.33,10.86,8.31,35.06,12.48,44.79-5.4,9.73-17.92-3.71-33.77-12.99-39.75" style="fill:#ffd500;" />
						<polyline points="682.23 691.99 678.67 693.45 677.26 695.92 674.62 693.47 671.29 691.76 673.37 689.65 674.13 687.08 676.47 688.5 679.33 688.25 679.47 690.15 682.23 691.99" style="fill:#00814c;" />
					</g>
					<g>
						<path d="M601.74,686.51c-6.16-4.01-27.7-7.34-37.28,7.82-9.58,15.19-6.64,28.11,5.47,37.33,10.86,8.31,35.06,12.48,44.79-5.4,9.73-17.92-3.71-33.77-12.99-39.75" style="fill:#f39843;" />
						<polyline points="604.13 692.45 600.58 693.91 599.16 696.38 596.52 693.93 593.19 692.22 595.27 690.11 596.03 687.54 598.37 688.95 601.23 688.71 601.37 690.61 604.13 692.45" style="fill:#00814c;" />
					</g>
					<g>
						<path d="M617.85,658.18c5.1-3.31,22.91-6.07,30.84,6.47,7.92,12.57,5.49,23.25-4.53,30.88-8.99,6.88-29,10.32-37.05-4.47-8.05-14.82,3.07-27.94,10.75-32.88" style="fill:#ed7a30;" />
						<polyline points="615.87 663.09 618.81 664.3 619.98 666.34 622.16 664.31 624.92 662.9 623.2 661.16 622.57 659.02 620.64 660.2 618.27 660 618.15 661.57 615.87 663.09" style="fill:#006443;" />
					</g>
					<g>
						<path d="M576.38,467.5s1.95-6.47,1.32-11.62c-.81-6.77-3.68-10.09-3.68-10.09l-3.44,2.9s4.17,2.47,4.95,7.74c.66,4.45-1.69,9.99-1.69,9.99l-1.45,3.98,3.98-2.9h.01Z" style="fill:#444851;" />
						<path d="M575.64,461.67c-5.32-.59-14.36-5.11-20.6,1.17-6.23,6.26-5.86,32.09,9.47,41.48,4.32,2.64,7.91-.51,10.99-.46,4.02,.07,5.64,3.03,10.98,1.34,11.98-3.79,18.73-32.97,11.18-41.11-7.21-7.77-14.95-1.64-22.03-2.42" style="fill:#e95e2b;" />
					</g>
					<g>
						<path d="M662.7,467.39s1.95-6.47,1.32-11.62c-.81-6.77-3.68-10.09-3.68-10.09l-3.44,2.9s4.17,2.47,4.95,7.74c.66,4.45-1.69,9.99-1.69,9.99l-1.45,3.98,3.98-2.9h.01Z" style="fill:#444851;" />
						<path d="M661.95,461.55c-5.32-.59-14.36-5.11-20.6,1.17-6.23,6.26-5.86,32.09,9.47,41.48,4.32,2.64,7.91-.51,10.99-.46,4.02,.07,5.64,3.03,10.98,1.34,11.98-3.79,18.73-32.97,11.18-41.11-7.21-7.77-14.95-1.64-22.03-2.42" style="fill:#4a9055;" />
					</g>
					<g>
						<path d="M610.38,439.32s-4.98-4.56-7.07-9.31c-2.76-6.24-2-10.56-2-10.56l4.43,.73s-2.32,4.25-.3,9.18c1.71,4.16,6.56,7.73,6.56,7.73l3.28,2.68-4.9-.46h0Z" style="fill:#444851;" />
						<path d="M608.04,433.92c4.27-3.22,9.73-11.73,18.3-9.51,8.56,2.19,21.43,24.6,13.04,40.5-2.36,4.48-7.06,3.6-9.68,5.21-3.42,2.12-3.3,5.49-8.76,6.77-12.24,2.86-32.95-18.78-30.61-29.63,2.23-10.36,12.02-9.05,17.7-13.33" style="fill:#8cbb15;" />
					</g>
					<path d="M460.04,327.62c4.65,3.89,6.25,13.89-.7,17.93-7.95,4.63-19.46,7.32-28.5-.63-8.52-7.5-1.39-16.55,5.56-18.95,6.95-2.4,18.94-2.27,23.63,1.65" style="fill:#f4a019;" />
					<path d="M512.78,331.48c1.83,8.5-5.19,21.22-16.61,19.65-13.07-1.78-28.46-8.89-31.66-25.84-3.01-15.99,13.03-19.93,23-16.52,9.97,3.42,23.42,14.14,25.26,22.71" style="fill:#f8b350;" />
					<path d="M430,318.8c5.3,2.95,8.73,12.49,2.65,17.75-6.95,6.03-17.76,10.82-28.12,4.69-9.76-5.79-4.44-16,1.94-19.65s18.19-5.76,23.53-2.78" style="fill:#db9823;" />
					<g>
						<polygon points="381.96 337.42 400.96 378.93 497.75 378.93 518.56 337.97 381.96 337.42" style="fill:#deb4d2;" />
						<g style="clip-path:url(#i);">
							<polygon points="377.69 348.91 524.04 349.57 527.21 307.58 371.99 306.25 377.69 348.91" style="fill:#c695bf;" />
						</g>
					</g>
					<g>
						<g>
							<path d="M274.13,486.01s-2.75-16.52-1.65-22.57c1.1-6.06,6.61-13.21,18.72-14.31,12.11-1.1,23.87,4.33,24.22,12.11,.55,12.11-2.75,29.18-2.75,29.18l-38.54-4.41h0Z" style="fill:#f6bcc8;" />
							<g style="clip-path:url(#j);">
								<polygon points="265.32 465.09 330.84 467.84 324.23 435.36 260.92 427.65 265.32 465.09" style="fill:#d7007a;" />
							</g>
						</g>
						<polygon points="266.43 479.13 278.26 503.35 309.92 503.9 319.83 477.47 266.43 479.13" style="fill:#fcf6e7;" />
						<path d="M298.02,443.38c2.36,1.86,3.07,5.48,.44,8.5s-6.42,2.33-8.69,.03c-1.98-2-2.92-5.36-.28-8.37,2.63-3.02,5.7-2.39,8.53-.16Z" style="fill:#ffd500;" />
					</g>
					<g>
						<g>
							<path d="M214.47,487.09s-2.75-16.52-1.65-22.57c1.1-6.06,6.61-13.21,18.72-14.31s23.87,4.33,24.22,12.11c.55,12.11-2.75,29.18-2.75,29.18l-38.54-4.41h0Z" style="fill:#f6bcc8;" />
							<g style="clip-path:url(#k);">
								<polygon points="205.66 466.17 271.18 468.93 264.57 436.44 201.25 428.74 205.66 466.17" style="fill:#d7007a;" />
							</g>
						</g>
						<polygon points="206.76 480.21 218.6 504.44 250.25 504.99 260.17 478.56 206.76 480.21" style="fill:#fcf6e7;" />
						<path d="M238.35,444.47c2.36,1.86,3.07,5.48,.44,8.5s-6.42,2.33-8.69,.03c-1.98-2-2.92-5.36-.28-8.37,2.63-3.02,5.7-2.39,8.53-.16Z" style="fill:#ffd500;" />
					</g>
					<g>
						<g>
							<path d="M339.22,487.85s-2.75-16.52-1.65-22.57c1.1-6.06,6.61-13.21,18.72-14.31,12.11-1.1,23.87,4.33,24.22,12.11,.55,12.11-2.75,29.18-2.75,29.18l-38.54-4.41h0Z" style="fill:#fabd43;" />
							<g style="clip-path:url(#l);">
								<polygon points="330.41 466.93 395.93 469.68 389.32 437.2 326 429.49 330.41 466.93" style="fill:#ee7f00;" />
							</g>
						</g>
						<polygon points="331.51 480.97 343.35 505.19 375.01 505.74 384.92 479.32 331.51 480.97" style="fill:#fcf6e7;" />
						<path d="M363.1,445.23c2.36,1.86,3.07,5.48,.44,8.5s-6.42,2.33-8.69,.03c-1.98-2-2.92-5.36-.28-8.37,2.63-3.02,5.7-2.39,8.53-.16Z" style="fill:#e8523b;" />
					</g>
					<g>
						<g>
							<path d="M391.73,486.93s-2.75-16.52-1.65-22.57c1.1-6.06,6.61-13.21,18.72-14.31,12.11-1.1,23.87,4.33,24.22,12.11,.55,12.11-2.75,29.18-2.75,29.18l-38.54-4.41h0Z" style="fill:#fabd43;" />
							<g style="clip-path:url(#m);">
								<polygon points="383.84 467.69 449.28 463.52 439.29 431.91 375.51 430.92 383.84 467.69" style="fill:#fcf6e7;" />
							</g>
						</g>
						<polygon points="384.03 480.05 395.87 504.27 427.52 504.82 437.43 478.4 384.03 480.05" style="fill:#5a5099;" />
						<path d="M415.62,444.31c2.36,1.86,3.07,5.48,.44,8.5s-6.42,2.33-8.69,.03c-1.98-2-2.92-5.36-.28-8.37,2.63-3.02,5.7-2.39,8.53-.16Z" style="fill:#a40872;" />
					</g>
					<g>
						<g>
							<path d="M439.64,486.01s-2.75-16.52-1.65-22.57c1.1-6.06,6.61-13.21,18.72-14.31,12.11-1.1,23.87,4.33,24.22,12.11,.55,12.11-2.75,29.18-2.75,29.18l-38.54-4.41h0Z" style="fill:#fabd43;" />
							<g style="clip-path:url(#n);">
								<polygon points="430.84 465.09 496.35 467.84 489.75 435.36 426.43 427.65 430.84 465.09" style="fill:#ee7f00;" />
							</g>
						</g>
						<polygon points="431.94 479.13 443.78 503.35 475.43 503.9 485.34 477.47 431.94 479.13" style="fill:#5a5099;" />
						<path d="M463.53,443.38c2.36,1.86,3.07,5.48,.44,8.5s-6.42,2.33-8.69,.03c-1.98-2-2.92-5.36-.28-8.37,2.63-3.02,5.7-2.39,8.53-.16Z" style="fill:#e8523b;" />
					</g>
					<g>
						<path d="M215.38,721.06s-3.11-18.64-1.86-25.47c1.24-6.83,7.46-14.91,21.12-16.15,13.67-1.24,26.94,4.89,27.33,13.67,.62,13.67-3.11,32.93-3.11,32.93l-43.49-4.97h0Z" style="fill:#fcf6e7;" />
						<polygon points="206.68 707.07 220.04 734.4 255.76 735.02 266.95 705.2 206.68 707.07" style="fill:#f09393;" />
						<path d="M242.33,672.96c2.66,2.1,3.47,6.18,.49,9.59-2.97,3.41-7.24,2.63-9.81,.04-2.23-2.26-3.29-6.04-.31-9.45,2.97-3.41,6.44-2.69,9.63-.18h0Z" style="fill:#007bc2;" />
						<path d="M274.64,723.14s-3.11-18.64-1.86-25.47c1.24-6.83,7.46-14.91,21.12-16.15,13.67-1.24,26.94,4.89,27.33,13.67,.62,13.67-3.11,32.93-3.11,32.93l-43.49-4.97h0Z" style="fill:#fcf6e7;" />
						<polygon points="265.94 709.15 279.3 736.48 315.02 737.1 326.21 707.28 265.94 709.15" style="fill:#f09393;" />
						<path d="M301.59,675.04c2.66,2.1,3.47,6.18,.49,9.59-2.97,3.41-7.24,2.63-9.81,.04-2.23-2.26-3.29-6.04-.31-9.45,2.97-3.41,6.44-2.69,9.63-.18Z" style="fill:#007bc2;" />
						<path d="M333.9,722.1s-3.11-18.64-1.86-25.47c1.24-6.83,7.46-14.91,21.12-16.15,13.67-1.24,26.94,4.89,27.33,13.67,.62,13.67-3.11,32.93-3.11,32.93l-43.49-4.97h0Z" style="fill:#fcf6e7;" />
						<polygon points="325.21 708.11 338.56 735.44 374.28 736.06 385.47 706.24 325.21 708.11" style="fill:#aa8d42;" />
						<path d="M360.85,674c2.66,2.1,3.47,6.18,.49,9.59-2.97,3.41-7.24,2.63-9.81,.04-2.23-2.26-3.29-6.04-.31-9.45,2.97-3.41,6.44-2.69,9.63-.18Z" style="fill:#e6418d;" />
						<path d="M409.31,724.94s-3.11-18.64-1.86-25.47c1.24-6.83,7.46-14.91,21.12-16.15,13.67-1.24,26.94,4.89,27.33,13.67,.62,13.67-3.11,32.93-3.11,32.93l-43.49-4.97h0Z" style="fill:#f09393;" />
						<polygon points="400.61 710.95 413.97 738.28 449.69 738.9 460.87 709.08 400.61 710.95" style="fill:#aa8d42;" />
						<path d="M436.25,676.84c2.66,2.1,3.47,6.18,.49,9.59-2.97,3.41-7.24,2.63-9.81,.04-2.23-2.26-3.29-6.04-.31-9.45,2.97-3.41,6.44-2.69,9.63-.18Z" style="fill:#e6418d;" />
					</g>
					<g>
						<polygon points="1293.32 80.13 1420.73 80.88 1420.73 263.75 1296.14 263.98 1293.32 80.13" style="fill:#fbf8f6;" />
						<g>
							<polygon points="1303.75 92.96 1304.54 231.87 1409.41 231.45 1410.19 91.3 1303.75 92.96" style="fill:#fdd900;" />
							<g style="clip-path:url(#o);">
								<polygon points="1414.09 43.59 1341.9 285.43 1467.12 260.17 1477.44 45.4 1414.09 43.59" style="fill:#eaba00;" />
							</g>
						</g>
					</g>
					<g>
						<polygon points="1435.85 79.62 1563.26 80.37 1563.26 263.25 1438.67 263.48 1435.85 79.62" style="fill:#fbf8f6;" />
						<g>
							<polygon points="1446.28 92.45 1447.06 231.37 1551.94 230.95 1552.72 90.79 1446.28 92.45" style="fill:#c59bc1;" />
							<g style="clip-path:url(#p);">
								<polygon points="1556.61 43.09 1484.43 284.93 1609.65 259.66 1619.96 44.89 1556.61 43.09" style="fill:#d8abcc;" />
							</g>
						</g>
					</g>
					<g>
						<polygon points="1072.83 560.82 1053.74 459.97 980.36 460.31 1002.96 560.92 1072.83 560.82" style="fill:#aea7ab;" />
						<polygon points="954.34 560.76 975.23 460.04 1053.57 459.29 1032.56 560.92 954.34 560.76" style="fill:#fbf9f7;" />
						<g>
							<path d="M998.1,504.1l-1.1,5.92s3.75,.16,3.12,3.07c-.5,2.3-3.85,2.42-3.85,2.42l-.63,2.66s5.2,.9,6.65-4.32c1.35-4.87-2.7-5.78-2.7-5.78l.39-1.54,2.48,.11,.43-2.24-4.78-.29h-.01Z" style="fill:#5a7a3e;" />
							<g>
								<path d="M1012.11,510.33c-.77-.19-1.28,.19-1.51,.72-.24,.56-.22,1.27,.48,1.53,.71,.26,1.51-.19,1.69-.79,.17-.57,.11-1.27-.65-1.46h0Z" style="fill:#5a7a3e;" />
								<path d="M1011.54,514.16c-.77-.19-1.28,.19-1.51,.72-.24,.56-.22,1.27,.48,1.53,.71,.26,1.51-.19,1.69-.79,.17-.57,.11-1.27-.65-1.46h0Z" style="fill:#5a7a3e;" />
							</g>
							<path d="M1028.68,511.86c-.63,2.89-2.05,7.25-5.25,6.99-3.33-.27-3.3-3.8-2.54-7.32,.76-3.52,1.75-6.95,5-6.65,3.68,.34,3.42,4.09,2.79,6.98h0Zm-3.41-4.14c-1.15,0-1.68,2.9-1.9,3.95-.23,1.05-.82,4.07,.42,4.19,1.11,.1,1.79-2.19,2.24-4.26,.49-2.25,.5-3.88-.75-3.88h-.01Z" style="fill:#5a7a3e;" />
							<path d="M1006.43,518.6l-2.3-.21,2.7-7.07s-2.98,.38-3.72-1.84c-.87-2.61,.91-5.81,4.2-5.39,2.38,.31,3.44,1.72,2.58,4.77-1.06,3.76-3.47,9.74-3.47,9.74h0Zm-.42-12.25c-.67,.23-.92,.93-.87,1.69s.88,.99,1.53,.76,1.08-.94,.95-1.6-.67-1.17-1.61-.86h0Z" style="fill:#5a7a3e;" />
							<path d="M1016.75,519.03l-2.3-.21,2.7-7.07s-2.98,.38-3.72-1.84c-.87-2.61,.91-5.81,4.2-5.39,2.38,.31,3.44,1.72,2.58,4.77-1.06,3.76-3.47,9.74-3.47,9.74h0Zm-.42-12.25c-.67,.23-.92,.93-.87,1.69s.88,.99,1.53,.76,1.08-.94,.95-1.6-.67-1.17-1.61-.86h0Z" style="fill:#5a7a3e;" />
						</g>
						<polygon points="979.83 487.12 1035.22 487.27 1032.96 497.45 977.54 496.88 979.83 487.12" style="fill:#6b9e6a;" />
						<polygon points="983.22 474.68 1038.61 474.83 1036.35 485.01 980.94 484.44 983.22 474.68" style="fill:#a0c443;" />
					</g>
				</g>
			</g>
		</g>
	</g>
	<g id="q">
		<path d="M1202.73,960.96c4.79,2.05,11.55,16,12.37,22.06s2,11.75-.6,13.71-15.96,3.91-17.87,9.49-8.57,15.35-12.2,17.28c-4.53,2.41-25.23,8.67-33.39,7.12-8.38-1.59-12.52-5.5-10.73-12.81,2.3-9.39,.42-12.78,12.16-20.98,11.74-8.2,27.59-21.05,27.59-21.05,0,0,17.87-16.88,22.66-14.83h0Z" style="fill:#e6f1e2;" />
		<path d="M1155.07,1001.63c.99,6.44,24.27,4.44,29.14,2.9,4.86-1.55,18.94-20.62,21.64-24.15,2.7-3.53,2.43-5.02,1.08-11.01-1.35-5.99,.81-30.76,0-30.75-.81,0-28.9-3.21-28.9-3.21,0,0-1.89,30.52-3.24,36.54-1.35,6.01-9.92,17.12-14.04,21.39-3.93,4.07-5.93,6.65-5.67,8.31v-.02Z" style="fill:#e2a972;" />
		<path d="M1273.96,965.48c-4.51,2.67-9.57,17.41-9.65,23.53-.09,6.12-.58,11.93,2.24,13.54s16.33,1.78,18.9,7.07c2.57,5.29,10.36,14.11,14.19,15.55,4.79,1.8,26.12,5.28,34.04,2.68,8.14-2.68,11.78-7.11,9.13-14.13-3.41-9.02-1.95-12.63-14.6-19.23s-29.95-17.26-29.95-17.26c0,0-19.79-14.41-24.3-11.74h0Z" style="fill:#e6f1e2;" />
		<path d="M1326.2,999.59c-.21,6.53-23.59,7.61-28.61,6.71-5.02-.9-21.3-17.99-24.4-21.13-3.11-3.15-3.02-4.67-2.39-10.79,.62-6.12-4.49-30.44-3.69-30.54,.81-.1,28.34-7,28.34-7,0,0,5.54,30.06,7.6,35.85,2.06,5.79,11.91,15.69,16.52,19.39,4.39,3.52,6.69,5.83,6.63,7.5h0Z" style="fill:#e2a972;" />
		<path d="M1105.78,580.87s0,41.86,7.97,82.73c7.97,40.86,21.93,96.68,21.93,123.59s5.98,91.7,10.96,125.58c4.98,33.89,14.17,48.79,14.17,48.79,0,0,15.95,2.99,26.91,1.99,10.96-1,25.91-5.98,25.91-5.98,0,0,1.78-26.86,1.78-79.69s-11.96-59.8-9.97-83.72c1.99-23.92-.29-136.74,1-137.54,1.29-.81,41.86,133.56,40.86,156.48s-3.99,50.83-1.99,90.7c1.99,39.87,2.41,55.95,2.41,55.95,0,0,21.93,3.99,31.89,5.98,9.97,1.99,37.87-11.96,37.87-11.96,0,0,4.57-47.97-1.41-84.85s-8.97-51.83-6.98-74.75,3.99-87.71,1.99-128.57c-1.99-40.86-28.9-109.64-28.9-109.64,0,0-174.42,23.92-176.42,24.92h.02Z" style="fill:#ffd628;" />
		<path d="M1171.21,324.07s-18.38,11.97-35.44,18.97c-17.06,7-40.11,15.43-40.11,15.43,0,0,18.24,78.17,13.43,107.48-4.81,29.31-15.99,104.44-14.24,124.13,1.75,19.68,10.67,51.56,10.67,51.56,0,0,37.3-19.34,103.74-25.62,66.44-6.27,88.75-16.11,88.75-16.11,0,0,1.92-11.54,4.55-44.34,2.62-32.81-32.94-91.36-27.25-128.54s22.26-54.89,14.39-65.82c-7.87-10.94-45.4-9.84-61.14-25.58s-37.66-15.76-37.66-15.76l-19.68,4.21h-.01Z" style="fill:#899586;" />
		<path d="M1218.44,452.39s4.37,12.25,3.06,19.68-1.31,13.12-1.31,13.12c0,0,18.89-4.1,26.33-8.91s15.23-9.9,15.23-9.9v-11.81s-10.5,.44-22.31-1.75-21-.44-21-.44h0Z" style="fill:#dfbe84;" />
		<path d="M1179.95,522.81c.44-1.31-2.19-21-2.19-21,0,0-10.5,7.44-25.37,7s-20.42,.29-20.42,.29c0,0,9.03,6.01,12.97,9.94,3.94,3.94,15.32,5.07,21.45,5.07s13.56-1.31,13.56-1.31h0Z" style="fill:#dfbe84;" />
		<path d="M1104.28,354.85c-30.34,9.28-25.37,45.49-21,81.36s10.5,56.86,21,64.3,24.49-7,28.87-31.06c4.37-24.06,0-62.99,0-83.98s-14.28-35.08-28.87-30.62h0Z" style="fill:#899586;" />
		<path d="M1272.36,355.5c-18.38-.03-8.86,60.15-8.42,78.08,.44,17.93-19.25,75.67-4.81,76.98,14.43,1.31,40.68-2.19,45.93-11.37,5.25-9.19-4.81-85.29-3.5-101.04s-3.38-42.6-29.19-42.65h-.01Z" style="fill:#899586;" />
		<path d="M1204.83,211.8c-4.22-1.17-28.89-5.58-43.45,4.61-14.57,10.2-23.79,38.6-23.3,48.79,.49,10.2,9.47,12.38,11.17,17.48,1.7,5.1,9.22,15.78,9.22,15.78l65.06-4.61s10.17-3.27,10.9-10.31-1.46-10.37,1.69-20.08c3.16-9.71,3.67-14.03-.21-28.6-3.88-14.57-13.09-20.75-19.91-22.82-4.65-1.41-6.8,.97-11.17-.24h0Z" style="fill:#d47241;" />
		<g>
			<path d="M1206.04,230.74c-4.36,.28-15.78,24.52-33.01,30.1-17.24,5.58-18.69,6.31-19.42,11.65-.73,5.34,2.91,12.62,1.46,14.32-1.46,1.7-5.1-7.28-8.25-8.01-3.16-.73-6.8,1.7-4.37,8.98s7.77,14.32,10.68,13.84c2.91-.49,4.13-1.21,4.13-1.21,0,0,0,8.5,7.53,13.35,7.53,4.86,16.26,16.02,33.26,12.87,16.99-3.16,23.3-15.05,26.22-20.15,2.91-5.1,2.91-13.84,2.91-13.84,0,0,7.25,3.49,8.95-.15,1.7-3.64,.76-5.92,1-14.9,.24-8.98,0-11.89-3.16-11.41s0,16.75-.97,19.42-2.18-.73-3.64-3.88c-1.46-3.16-5.58-9.95-10.68-23.3-5.1-13.35-5.1-28.16-12.62-27.67h-.02Z" style="fill:#dfbe84;" />
			<g style="clip-path:url(#r);">
				<g>
					<path d="M1200.32,255.3s5.79-3.36,10.11-4.75c4.33-1.39,10.86,.3,10.86,.3l-.28,3.35s-7.42-.99-9.45,.31c-2.33,1.49-9.76,4.7-9.76,4.7,0,0-1.86-4.09-1.48-3.92h0Z" style="fill:#c48648;" />
					<path d="M1187.27,254.61s-5.79-3.36-10.11-4.75c-4.33-1.39-10.86,.3-10.86,.3l.28,3.35s7.42-.99,9.45,.31c2.33,1.49,9.76,4.7,9.76,4.7,0,0,1.86-4.09,1.48-3.92h0Z" style="fill:#c48648;" />
				</g>
			</g>
		</g>
		<g>
			<path d="M1163.48,302.94s2.48,17.37,1.51,23.41,9.28,25.25,18.99,33.98c9.71,8.74,18.12,13.27,18.12,13.27,0,0,11.11-11.76,16.83-19.53s6.47-18.88,4.75-22.22-4.1-4.53-4.53-10.14c-.43-5.61,0-12.19,0-12.19l-55.67-6.58h0Z" style="fill:#dfbe84;" />
			<g style="clip-path:url(#s);">
				<path d="M1137.96,330.26s43.03,23.97,66.03,17.83c28.87-7.72,55.38-19.01,53.55-17.83l5.41,63.1-123.19,13.82-1.8-76.92h0Z" style="fill:#e6f1e2;" />
			</g>
		</g>
		<path d="M1180.71,304.14c1.01,1.51,2.63,.63,5.54,2.14s5.72,.86,10.03,.54c4.32-.32,6.4-2.17,8.67-3.14s3.99-1.52,4.31-2.92c.32-1.4-1.23-3.35-3.92-4.54-2.7-1.19-5.39-1.26-7.22-.83-1.83,.43-3.45,2.48-5.07,2.27-1.62-.22-3.13-1.4-5.5-.86s-3.03,1.03-4.91,2.5-2.78,3.57-1.92,4.85h-.01Z" style="fill:#f2934a;" />
		<g>
			<path d="M1209.64,268.34l3.84-.68-.38-1.97-5.02,.82s1.41,1.88,1.57,1.82h0Z" style="fill:#3d6b2a;" />
			<polygon points="1208.81 267.6 1210.78 261.95 1209.17 261.31 1207.2 266.38 1208.81 267.6" style="fill:#3d6b2a;" />
			<path d="M1207.17,264.85c1.92,.19,3.15,1.62,2.89,3.49-.26,1.88-1.87,2.79-3.6,2.73-2.05-.07-3.15-1.34-3.09-3.29,.05-1.38,1.82-3.13,3.8-2.93h0Z" style="fill:#3d6b2a;" />
		</g>
		<g>
			<path d="M1177.52,270.89l-5.16-.99,.19-1.8,6.15,.87s-1.02,1.96-1.18,1.91h0Z" style="fill:#3d6b2a;" />
			<polygon points="1177.64 269.65 1175.35 264.12 1176.92 263.39 1179.17 268.34 1177.64 269.65" style="fill:#3d6b2a;" />
			<path d="M1179.12,266.81c-1.91,.29-3.05,1.79-2.69,3.65,.36,1.86,2.01,2.72,3.74,2.56,2.04-.18,2.79-1.86,2.61-3.81-.12-1.38-1.69-2.7-3.65-2.4h-.01Z" style="fill:#3d6b2a;" />
		</g>
		<path d="M1226.89,256.94s-8.5-1.48-18.28-.53c-10.56,1.03-10.87,3.98-12.41,5.12-.96,.71-1.21,.31-3.54,.37-2.33,.06-2.53,.59-3.56-.02-1.64-.98-2.24-3.89-12.85-3.89-9.83,0-18.13,1.92-18.13,1.92l-.73,5.24s2.84,.12,3.76,4.46c.92,4.34,1.77,13.68,14.14,13.29,12.37-.38,13.66-10.64,14.28-13,.72-2.77,.8-4.42,1.67-4.73,.56-.2,2.55-.29,3.12-.15,.9,.22,1.14,1.86,2.12,4.54,.84,2.29,3.12,12.37,15.48,11.55,12.35-.82,12.29-10.2,12.79-14.61,.49-4.4,2.35-4.45,2.35-4.45l-.22-5.12h.01Zm-45.75,22.24c-4.68,2.72-11.71,1.48-14.48-1.9s-3.14-8.55-2.87-11.27c.41-4.14,4.61-5.14,11.35-5.64s11.36,.81,11.74,5.82c.37,5.01-.14,9.74-5.74,12.99Zm39.23-4.95c-2.43,3.63-8.57,6.29-14.46,3.63-5.9-2.66-7.22-7.5-7.33-12.52s4.62-6.5,11.38-6.66,11.04,.43,11.85,4.51c.53,2.68,1,7.41-1.43,11.04h-.01Z" style="fill:#e3ebde;" />
		<path d="M1151.59,294.6c-1.48,.23-2.36,1.37-2.05,2.79,.3,1.42,1.6,2.07,2.94,1.95,1.59-.15,2.15-1.43,1.99-2.92-.11-1.05-1.35-2.06-2.88-1.82h0Z" style="fill:#f3decd;" />
		<path d="M1233.25,287.67c-1.48,.23-2.36,1.37-2.05,2.79,.3,1.42,1.6,2.07,2.94,1.95,1.59-.15,2.15-1.43,1.99-2.92-.11-1.05-1.35-2.06-2.88-1.82h0Z" style="fill:#f3decd;" />
	</g>
</svg>
