<?xml version="1.0" encoding="UTF-8"?>
<svg xmlns="http://www.w3.org/2000/svg" xmlns:xlink="http://www.w3.org/1999/xlink" viewBox="0 0 1920 1080">
	<defs>
		<style>
			.k{fill:none;}.l{fill:#f8dfb3;}.m{fill:#009a95;}.n{fill:#eeeef0;}.o{fill:#ed7a30;}.p{fill:#f19eb0;}.q{fill:#ec7206;}.r{fill:#e6eef8;}.s{fill:#e6f1e2;}.t{fill:#eaba00;}.u{fill:#fae7c6;}.v{fill:#fee608;}.w{fill:#fbf8f6;}.x{fill:#e53446;}.y{fill:#fcf6e7;}.a`{fill:#e52d87;}.aa{fill:#efe8f2;}.ab{fill:#8aa195;}.ac{fill:#8cabbc;}.ad{fill:#c1d3d7;}.ae{fill:#a691c0;}.af{fill:#c3ae7b;}.ag{fill:#dedcd1;}.ah{fill:#dfbe84;}.ai{fill:#425170;}.aj{fill:#1a4431;}.ak{fill:#814d34;}.al{fill:#5597c3;}.am{fill:#62ac6d;}.an{fill:#344138;}.ao{fill:#272a3e;}.ap{fill:#776baa;}.aq{fill:#4f4e47;}.ar{clip-path:url(#c);}.as{clip-path:url(#f);}.at{clip-path:url(#e);}.au{clip-path:url(#d);}.av{clip-path:url(#i);}.aw{clip-path:url(#h);}.ax{clip-path:url(#g);}
		</style>
		<clipPath id="c">
			<rect width="1920" height="1080" style="fill:none;" />
		</clipPath>
		<clipPath id="d">
			<polygon points="1312.92 945.2 1312.94 337.12 1778.5 335.95 1785.14 955.82 1312.92 945.2" style="fill:none;" />
		</clipPath>
		<clipPath id="e">
			<polygon points="84.28 798.74 82.19 204.89 725.71 180.75 731.11 794.1 84.28 798.74" style="fill:none;" />
		</clipPath>
		<clipPath id="f">
			<polygon points="423.15 523.97 661.05 519.36 663.91 745.3 412.17 748.32 423.15 523.97" style="fill:none;" />
		</clipPath>
		<clipPath id="g">
			<polygon points="128.36 617.22 74.54 774.29 263.24 775.14 297.53 619.92 128.36 617.22" style="fill:none;" />
		</clipPath>
		<clipPath id="h">
			<polygon points="309.3 592.1 343.63 777.5 471.81 777.5 432.9 592.1 309.3 592.1" style="fill:none;" />
		</clipPath>
		<clipPath id="i">
			<polygon points="34.8 92.1 25.14 207.03 785.37 208.17 775.69 92.06 34.8 92.1" style="fill:none;" />
		</clipPath>
	</defs>
	<g id="a">
		<g id="b">
			<g style="clip-path:url(#c);">
				<g>
					<rect x="-214.6" y="-99.22" width="2302" height="1214.71" style="fill:#f8dfb3;" />
					<g>
						<polygon points="-183.12 1352.26 -197.27 654.32 2109.21 658.77 2146.51 1369.13 -183.12 1352.26" style="fill:#fae7c6;" />
						<polygon points="1292.33 937.39 1288.86 239.51 1806.2 239.73 1806.79 947.38 1292.33 937.39" style="fill:#c3ae7b;" />
						<g>
							<polygon points="1312.92 945.2 1312.94 337.12 1778.5 335.95 1785.14 955.82 1312.92 945.2" style="fill:#344138;" />
							<g style="clip-path:url(#d);">
								<g>
									<polygon points="1351.76 374.68 1352.31 498.71 1529.55 500.28 1528.62 376.18 1351.76 374.68" style="fill:#5597c3;" />
									<polygon points="1564.32 375.77 1564.87 499.79 1745.24 497.34 1744.31 373.23 1564.32 375.77" style="fill:#5597c3;" />
									<polygon points="1544.11 325.55 1547.8 1010.49 1553.95 1009.18 1549.03 321.61 1544.11 325.55" style="fill:#c3ae7b;" />
								</g>
							</g>
						</g>
						<polygon points="1349.43 510.62 1349.85 803 1529.77 804.94 1528.96 512.33 1349.43 510.62" style="fill:#5597c3;" />
						<polygon points="1564.77 512.96 1566.05 803.31 1748.01 801.69 1744.07 512.74 1564.77 512.96" style="fill:#5597c3;" />
					</g>
					<g>
						<g>
							<polygon points="1539.72 -312.75 1541.36 162.46 1854.96 164.72 1854.07 -310.83 1539.72 -312.75" style="fill:#eeeef0;" />
							<polygon points="1560.9 -289.18 1562.97 131.01 1834.89 133.08 1833.51 -287.45 1560.9 -289.18" style="fill:#c1d3d7;" />
						</g>
						<polygon points="1695.14 -291.83 1689.27 143.4 1705.39 143.97 1710.36 -292.01 1695.14 -291.83" style="fill:#eeeef0;" />
					</g>
					<g>
						<g>
							<polygon points="1001.42 -304.15 1003.06 171.06 1316.66 173.32 1315.77 -302.23 1001.42 -304.15" style="fill:#eeeef0;" />
							<polygon points="1022.6 -280.57 1024.67 139.61 1296.59 141.68 1295.21 -278.84 1022.6 -280.57" style="fill:#c1d3d7;" />
						</g>
						<polygon points="1156.84 -283.23 1150.97 152 1167.09 152.58 1172.06 -283.41 1156.84 -283.23" style="fill:#eeeef0;" />
					</g>
					<polygon points="60.04 957.53 62 151.73 745.51 149.04 751.21 966.16 60.04 957.53" style="fill:#c3ae7b;" />
					<g>
						<polygon points="84.28 798.74 82.19 204.89 725.71 180.75 731.11 794.1 84.28 798.74" style="fill:#776baa;" />
						<g style="clip-path:url(#e);">
							<g>
								<polyline points="1.13 612.82 802.08 600.62 795.74 910.53 26.64 928.87 10.62 631.8" style="fill:#425170;" />
								<g>
									<polygon points="423.15 523.97 661.05 519.36 663.91 745.3 412.17 748.32 423.15 523.97" style="fill:#62ac6d;" />
									<g style="clip-path:url(#f);">
										<polygon points="349.42 546.59 612.28 618.18 691.29 754.93 291.77 776.83 349.42 546.59" style="fill:#009a95;" />
									</g>
								</g>
								<polyline points="-58.94 194.2 746.85 30.56 753.22 308.82 13.21 518.67 -24.92 244.95" style="fill:#a691c0;" />
								<polygon points="260.89 -171.89 786 -46.71 760.11 292.51 216.28 128.99 162.67 8.86 260.89 -171.89" style="fill:#f19eb0;" />
								<g>
									<polygon points="128.36 617.22 74.54 774.29 263.24 775.14 297.53 619.92 128.36 617.22" style="fill:#efe8f2;" />
									<g style="clip-path:url(#g);">
										<polygon points="-6.54 697.67 191.71 686.62 279.3 782.07 169.88 852.19 3.48 871.44 -98.34 697.6 -6.54 697.67" style="fill:#fee608;" />
									</g>
								</g>
								<g>
									<polygon points="309.3 592.1 343.63 777.5 471.81 777.5 432.9 592.1 309.3 592.1" style="fill:#e6eef8;" />
									<g style="clip-path:url(#h);">
										<polygon points="305.14 712.5 501.68 648.76 487.38 524.03 269.59 532.53 305.14 712.5" style="fill:#f19eb0;" />
									</g>
								</g>
							</g>
						</g>
					</g>
					<g>
						<g>
							<polygon points="34.8 92.1 25.14 207.03 785.37 208.17 775.69 92.06 34.8 92.1" style="fill:#e53446;" />
							<g style="clip-path:url(#i);">
								<g>
									<polygon points="294.56 81.36 293.09 238.11 -4.83 228.2 -2.2 79.57 294.56 81.36" style="fill:#eaba00;" />
									<polygon points="825.29 63.81 836.97 224.29 522.77 208.49 525.4 59.86 825.29 63.81" style="fill:#ec7206;" />
								</g>
							</g>
						</g>
						<path d="M494.48,125.51s-44.78-.75-56.09-.59c-7.73,.12-16.65,4.96-25.11,5.61-8.47-.41-17.53-4.99-25.26-4.87-11.31,.17-56.05,2.23-56.05,2.23l.57,8.24s3.14,1.77,3.42,3.58c.29,1.81,3.81,24.65,7.51,28.96,5.37,6.25,12.37,5.59,22.49,6.22s25.42-.12,29.19-8.3c2.76-6,3.88-9.29,8.12-19.58,2.07-5.02,4.92-7.12,9.78-7.2,4.86-.07,8.52,1.94,10.74,6.89,4.55,10.16,5.76,13.41,8.7,19.33,4,8.06,19.32,8.36,29.42,7.44,10.09-.93,17.11-.47,22.29-6.88,3.57-4.42,6.42-27.35,6.66-29.17,.23-1.82,3.31-3.68,3.31-3.68l.33-8.25-.02,.02Zm-98.84,20.36c-1.39,6.87-2.38,17.25-10.69,22.01-6.29,3.61-26.3,1.59-30.81,.19-4.89-1.51-7.93-5.45-8.77-10.05-.84-4.61-2.1-12.92-2.4-15.48-.29-2.57,.2-7.74,4.75-8.54,6.68-1.18,34.6-2.37,42.34-.36,4.5,1.17,6.93,5.46,5.57,12.24h0Zm88.22-5.41c-.22,2.57-1.24,10.91-1.94,15.54-.7,4.63-3.63,8.65-8.47,10.31-4.46,1.53-24.42,4.13-30.81,.71-8.45-4.51-9.74-14.86-11.33-21.69-1.57-6.73,.74-11.09,5.21-12.39,7.67-2.24,35.62-1.86,42.33-.88,4.57,.67,5.22,5.83,5,8.4h0Z" style="fill:#fbf8f6;" />
					</g>
					<path d="M616.96,497.25c-.48-.24-1.86-.96-2.88-1.14-1.02-.18-10.24-2.2-18.94-2.14s-16.55,3.23-17.63,3.41c-.56,.09-1.44-.13-3.8-.14-2.36,0-3.13,.23-3.69,.14-1.08-.18-8.93-3.35-17.63-3.41s-17.92,1.96-18.94,2.14-2.4,.9-2.88,1.14c-.48,.24-.16,4.37,.02,4.55s2.5,.37,3.04,.43,1.02,.48,1.44,1.8c.42,1.32,1.48,11.31,4.12,14.72,2.13,2.74,5.81,3.41,10.9,3.75,5.45,.36,9.75-.21,14.08-4,5.16-4.51,6.52-11.84,6.96-14.34,.15-.85,1.09-1.19,2.63-1.22s2.48,.37,2.63,1.22c.44,2.5,1.8,9.83,6.96,14.34,4.34,3.79,8.63,4.36,14.08,4,5.09-.33,8.77-1,10.9-3.75,2.64-3.41,3.7-13.4,4.12-14.72s.9-1.74,1.44-1.8,2.86-.25,3.04-.43,.5-4.31,.02-4.55h0Z" style="fill:#272a3e;" />
					<path d="M249.82,598.51c-.48-.24-1.86-.96-2.88-1.14s-10.24-2.2-18.94-2.14-16.55,3.23-17.63,3.41c-.56,.09-1.44-.13-3.8-.14-2.36,0-3.13,.23-3.69,.14-1.08-.18-8.93-3.35-17.63-3.41s-17.92,1.96-18.94,2.14-2.4,.9-2.88,1.14c-.48,.24-.16,4.37,.02,4.55,.18,.18,2.5,.37,3.04,.43s1.02,.48,1.44,1.8,1.48,11.31,4.12,14.72c2.13,2.74,5.81,3.41,10.9,3.75,5.45,.36,9.75-.21,14.08-4,5.16-4.51,6.52-11.84,6.96-14.34,.15-.85,1.09-1.19,2.63-1.22,1.54-.03,2.48,.37,2.63,1.22,.44,2.5,1.8,9.83,6.96,14.34,4.34,3.79,8.63,4.36,14.08,4,5.09-.33,8.77-1,10.9-3.75,2.64-3.41,3.7-13.4,4.12-14.72,.42-1.32,.9-1.74,1.44-1.8,.54-.06,2.86-.25,3.04-.43s.5-4.31,.02-4.55h.01Z" style="fill:#272a3e;" />
					<path d="M411.1,572.99c-.48-.24-1.86-.96-2.88-1.14-1.02-.18-10.24-2.2-18.94-2.14s-16.55,3.23-17.63,3.41c-.56,.09-1.44-.13-3.8-.14-2.36,0-3.13,.23-3.69,.14-1.08-.18-8.93-3.35-17.63-3.41s-17.92,1.96-18.94,2.14-2.4,.9-2.88,1.14-.16,4.37,.02,4.55,2.5,.37,3.04,.43,1.02,.48,1.44,1.8,1.48,11.31,4.12,14.72c2.13,2.74,5.81,3.41,10.9,3.75,5.45,.36,9.75-.21,14.08-4,5.16-4.51,6.52-11.84,6.96-14.34,.15-.85,1.09-1.19,2.63-1.22,1.54-.03,2.48,.37,2.63,1.22,.44,2.5,1.8,9.83,6.96,14.34,4.34,3.79,8.63,4.36,14.08,4,5.09-.33,8.77-1,10.9-3.75,2.64-3.41,3.7-13.4,4.12-14.72,.42-1.32,.9-1.74,1.44-1.8s2.86-.25,3.04-.43,.5-4.31,.02-4.55h.01Z" style="fill:#e52d87;" />
					<polygon points="-181.56 908.54 2105.96 904.71 2082.58 1225.77 -149.36 1373.17 -181.56 908.54" style="fill:#dedcd1;" />
					<g>
						<polygon points="1510.89 703.08 1530.46 702.8 1530.46 714.82 1510.61 714.82 1510.89 703.08" style="fill:#8aa195;" />
						<polygon points="1512.01 621.14 1531.58 620.86 1531.58 632.88 1511.73 632.88 1512.01 621.14" style="fill:#8aa195;" />
						<polygon points="1501.92 610.55 1514.22 611.06 1514.22 725.43 1501.4 725.94 1501.92 610.55" style="fill:#dfbe84;" />
					</g>
					<g>
						<polygon points="1579.74 704.14 1560.17 703.86 1560.17 715.89 1580.02 715.89 1579.74 704.14" style="fill:#8aa195;" />
						<polygon points="1578.62 622.21 1559.05 621.93 1559.05 633.95 1578.9 633.95 1578.62 622.21" style="fill:#8aa195;" />
						<polygon points="1588.71 611.61 1576.41 612.13 1576.41 726.5 1589.23 727.01 1588.71 611.61" style="fill:#dfbe84;" />
					</g>
					<g>
						<polygon points="1326.55 267.13 1326.19 315.89 1385.26 315.39 1385.89 265.52 1326.55 267.13" style="fill:#fcf6e7;" />
						<polygon points="1336.85 280.41 1339.75 284.6 1343.33 282.47 1343.4 307.31 1350.19 307.54 1350.49 273.55 1344.55 273.32 1336.85 280.41" style="fill:#272a3e;" />
						<path d="M1354.72,280.8l3.66,4.12s3.83-5.38,6.94-3.05c4.06,3.05-8.84,16.61-8.84,16.61l.15,8.38,16.84-.23-.23-6.48-8.61-.38s8.86-10.05,8.55-17.3-5.11-9.42-9.6-9.11c-6.63,.46-8.86,7.43-8.86,7.43h0Z" style="fill:#272a3e;" />
					</g>
				</g>
			</g>
		</g>
	</g>
	<g id="j">
		<g>
			<g>
				<path d="M879.72,574.92s-23.44,41.49-25.54,46.93c-1.19,3.08-5.17,18.16-7.63,23.89-2.49,5.8-10.51,22.45-12.12,26.35-1.42,3.43-6.75,13.24-6.75,13.24,0,0-3.84-2-2.94-5.26,.47-1.7,3.65-9.03,4.63-11.4,1.49-3.63,3.84-9.87,3.98-10.63s-1.08-1.55-1.72-.21c-.81,1.66-3.64,8.79-5.47,12.96-2.56,5.84-7.7,16.1-7.7,16.1,0,0-2.82-1.76-3.07-4.69-.16-1.8,3.63-9.76,4.94-12.75,1.31-2.99,4.64-11.65,4.76-12.73,.13-1.08-.88-2.01-1.67-.61s-4.3,9.27-5.84,12.21c-1.54,2.94-8.96,16.46-8.96,16.46,0,0-3.48-1.84-3.19-5,.17-1.91,4.32-9.38,6.58-13.79,1.66-3.22,4.85-11.4,5.12-12.34s-.42-1.7-1.38-.33c-.96,1.38-4.48,7.71-6.44,10.99-1.96,3.28-8.85,15.34-8.85,15.34,0,0-3.7-1.41-2.71-5.61,.75-3.16,4.4-9,6.21-12.52,2.08-4.05,4.73-10.29,6.1-12.65,1.1-1.92,5.38-11.99,4.61-13.09-1.6-.77-8.91,8.29-13.01,10.27-4.69,3.45-8.78-.01-8.78-.01,0,0,6.49-7.24,9.93-10.86,3.44-3.62,11.57-14.89,17.05-18.37,3.89-2.47,12.84-5.71,16.07-11.09,7.62-9.96,20.34-48.28,20.34-48.28l23.47,17.48h-.02Z" style="fill:#dfbe84;" />
				<path d="M880.35,574.82c4.95-8.05,14.85-25.71,14.85-25.71l-32.04-12.36s-6.97,24.25-13.22,43.79l20.26,9.46c4.08-6.01,8.09-11.83,10.15-15.18h0Z" style="fill:#dfbe84;" />
			</g>
			<path d="M1170,661.76c4.42,3.79,8.76,.64,8.76,.64,0,0-5.94-7.7-9.09-11.57-3.16-3.87-10.43-15.71-15.63-19.59-3.7-2.76-13.94-12.69-16.76-18.29-9.56-16.57-17.17-57.7-17.17-57.7l-32.87,9.95s14.97,30.58,16.4,33.1c6.12,13.17,14.7,31.88,15.77,35.42,.96,3.16,3.81,18.49,5.84,24.4,2.06,5.97,8.82,23.17,10.13,27.18,1.16,3.53,5.75,13.71,5.75,13.71,0,0,3.98-1.71,3.32-5.03-.34-1.73-2.97-9.27-3.77-11.72-1.22-3.73-3.09-10.13-3.18-10.89-.08-.76,1.19-1.46,1.73-.09,.68,1.72,2.98,9.03,4.49,13.33,2.12,6.02,6.48,16.63,6.48,16.63,0,0,2.94-1.55,3.41-4.45,.29-1.78-2.9-10.01-3.98-13.08-1.08-3.08-3.76-11.97-3.8-13.05-.05-1.08,1.03-1.94,1.71-.48,.68,1.46,3.6,9.57,4.91,12.61,1.31,3.05,7.72,17.08,7.72,17.08,0,0,3.61-1.57,3.56-4.75-.03-1.92-3.61-9.68-5.54-14.24-1.41-3.33-3.99-11.73-4.19-12.69s.55-1.67,1.4-.22,3.89,8.03,5.61,11.44c1.71,3.42,7.69,15.95,7.69,15.95,0,0,3.79-1.13,3.11-5.39-.51-3.21-3.72-9.3-5.27-12.95-1.77-4.19-3.95-10.62-5.14-13.07-.96-1.99-4.47-12.36-3.62-13.39,1.65-.65,8.27,8.93,12.21,11.21h.01Z" style="fill:#dfbe84;" />
			<g>
				<path d="M956.7,948.87s2.04,11.86,.41,17.58c-1.64,5.72-2.25,14.51-1.23,18.19s.41,12.67-4.29,16.97c-4.7,4.29-14.72,20.44-16.15,24.12s3.68,8.18,10.83,10.83c7.16,2.66,16.35,4.29,20.03,2.45,3.68-1.84,4.09-5.11,4.91-8.79,.82-3.68,2.45-13.9,6.34-17.79,3.88-3.88,5.11-4.29,5.72-8.59,.61-4.29-1.02-6.13-.41-10.63s1.84-7.56,1.84-12.67-2.45-13.7-2.45-17.58,.82-15.54,.82-15.54l-26.37,1.43v.02Z" style="fill:#dfbe84;" />
				<path d="M946.89,993.03s11.24-7.16,21.26-4.7,18.81,11.86,18.81,11.86c0,0,.86,11.68-.61,14.31s-10.84,23.1-12.67,26.78c-1.84,3.68-5.2,7.63-10.51,7.63s-10.14-.75-16.48-3-12.01-4.77-12.63-6.21c-.61-1.43-2.5-11.72-1.68-13.56s-.2-3.68-.2-3.68l-.82-2.04,4.05-8.47,6.37-1.96-.41-5.72,5.52-11.24h0Z" style="fill:#4f4e47;" />
				<path d="M937.08,1022.47s-3.88,1.43-2.25,5.32c1.64,3.88,10.02,9.4,16.15,10.43,6.13,1.02,10.63,2.66,15.33,.82,4.7-1.84,4.29-4.09,4.5-6.54s.41-5.32,.41-5.32c0,0-2.66-3.88-11.65-4.7s-22.49,0-22.49,0h0Z" style="fill:#dfbe84;" />
				<path d="M944.18,1009.19s11.8,1.26,21,1.88c9.2,.61,11.24,5.72,12.06,6.54,.82,.82,1.9-4.38,1.84-7.36-.06-2.88,.2-8.55-13.9-10.83-10.56-1.71-17.55,4.51-18.89,6.23s-2.11,3.54-2.11,3.54h0Z" style="fill:#dfbe84;" />
			</g>
			<path d="M924.02,607.74s5.35,78.92,12.71,121.06,13.38,70.23,11.37,82.93c-2.01,12.71-6.69,35.45-5.35,63.54,1.34,28.09,4.68,87.62,4.68,87.62,0,0,12.65,4.55,17.91,5.56,7.55,1.45,24.72-5.25,24.72-5.25,0,0,4.19-61.18,3.52-87.26-.67-26.08,9.36-44.14,9.36-64.21s13.17-149.09,14.51-170.49c1.34-21.4,9.91-96.19,9.91-96.19l-103.33,62.69h-.01Z" style="fill:#e6f1e2;" />
			<g>
				<path d="M1057.64,947.14s-2.04,11.86-.41,17.58c1.64,5.72,2.25,14.51,1.23,18.19s-.41,12.67,4.29,16.97c4.7,4.29,14.72,20.44,16.15,24.12s-3.68,8.18-10.83,10.83c-7.16,2.66-16.35,4.29-20.03,2.45-3.68-1.84-4.09-5.11-4.91-8.79-.82-3.68-2.45-13.9-6.34-17.79-3.88-3.88-5.11-4.29-5.72-8.59-.61-4.29,1.02-6.13,.41-10.63s-1.84-7.56-1.84-12.67,2.45-13.7,2.45-17.58-.82-15.54-.82-15.54l26.37,1.43v.02Z" style="fill:#dfbe84;" />
				<path d="M1072.97,1002.54l-.41,5.72,6.37,1.96,4.05,8.47-.82,2.04s-1.02,1.84-.2,3.68c.82,1.84-1.07,12.13-1.68,13.56s-6.29,3.96-12.63,6.21-11.16,3-16.48,3-8.67-3.95-10.51-7.63-11.21-24.15-12.67-26.78-.61-14.31-.61-14.31c0,0,8.79-9.4,18.81-11.86,10.02-2.45,21.26,4.7,21.26,4.7l5.52,11.24h0Z" style="fill:#4f4e47;" />
				<path d="M1077.27,1020.74s3.88,1.43,2.25,5.32c-1.64,3.88-10.02,9.4-16.15,10.43-6.13,1.02-10.63,2.66-15.33,.82-4.7-1.84-4.29-4.09-4.5-6.54-.2-2.45-.41-5.32-.41-5.32,0,0,4.83-4.47,13.83-5.29,8.99-.82,20.31,.58,20.31,.58h0Z" style="fill:#dfbe84;" />
				<path d="M1068.06,1003.93c-1.34-1.72-8.33-7.94-18.89-6.23-14.1,2.28-13.84,7.96-13.9,10.83-.06,2.98,1.02,8.18,1.84,7.36s2.86-5.93,12.06-6.54c9.2-.61,21-1.88,21-1.88,0,0-.77-1.82-2.11-3.54h0Z" style="fill:#dfbe84;" />
			</g>
			<path d="M1090.32,606.02s.03,45.37-7.33,87.51-18.76,103.77-16.75,116.48c2.01,12.71,6.69,35.45,5.35,63.54-1.34,28.09-4.68,87.62-4.68,87.62,0,0-12.65,4.55-17.91,5.56-7.55,1.45-24.72-5.25-24.72-5.25,0,0-4.19-61.18-3.52-87.26,.67-26.08-9.36-44.14-9.36-64.21s-5.92-150.04-7.26-171.44-10.13-49.27-10.13-49.27l96.31,16.72h0Z" style="fill:#e6f1e2;" />
			<path d="M1012.44,220.98c-3.88-.4-11.86-4.2-27,3.65-15.14,7.84-28.74,62.21-29.01,83.56-.26,20.94,9.8,31.87,24.87,39.65,13.99,7.23,55.51,1.34,66.16-4.08,9.91-5.04,17.78-11.87,11.49-30.83-6.64-20.03-5.14-35.21-8.03-49.26-3.02-14.69-10.36-30.35-20.43-37.95-6.98-5.26-12.77-4.2-18.06-4.74h.01Z" style="fill:#814d34;" />
			<path d="M984.99,295.5s5.28,22.44,5.19,27.61c-.08,5.17,1.37,16.9-6.91,19.91-13.41,4.88-30.07,10.16-30.07,10.16l-18.92,7.66,3.9,40.66s129.35,12.22,128.62,12.41,8.03-38.31,6.93-37.95-32.47-16.05-37.22-22.07c-4.74-6.02-3.33-17.33-3.7-26.63-.36-9.3,.05-22.81,.05-22.81l-47.88-8.94h0Z" style="fill:#dfbe84;" />
			<path d="M1010.43,241.41c-10.41-.47-18.79,3.65-22.07,16.24-3.28,12.59-11.34,48.17-11.34,48.17,0,0,5.87,17.88,18.64,20.25s28.64,.91,35.58-4.74c6.93-5.66,10.95-12.04,10.95-16.78s-2.19-32.11-3.1-39.41-7.3-18.43-13.32-20.25c-6.02-1.82-11.31-3.28-15.32-3.47h-.02Z" style="fill:#dfbe84;" />
			<path d="M1037.98,277.17s3.47-6.02,6.57-5.11,0,7.3,.73,12.77,2.92,10.4,0,12.04c-2.92,1.64-6.2-.18-6.2-.18,0,0-.73-18.97-1.09-19.52h-.01Z" style="fill:#dfbe84;" />
			<path d="M1000.47,311.2c.48,1.43,7.77,1.73,12.14,1.18,4.38-.55,12.81-1.63,12.81-3.64s-6.79-7.31-9.34-6.76-2.92,1.64-3.83,1.64-2.37-1.46-4.93-.36-7.77,5.2-6.85,7.94h0Z" style="fill:#ed7a30;" />
			<path d="M1002.78,271.54l-1.69,4.17s-9.18-3.55-12.15-3.55-7.89,1.51-7.89,1.51l-.47-2.5s5.14-3.69,10.52-2.69,11.67,3.06,11.67,3.06h0Z" style="fill:#814d34;" />
			<path d="M1091.48,590.93l39.51-9.61s-19.27-52.19-23.45-67.21c-4.18-15.02-6.71-43.83-7.81-65.48-1.09-21.65-4.72-55.79-12.46-65.68-2.35-3.01-5.7-5.18-9.21-6.76-9.29-5.5-25.22-11.45-25.22-11.45,0,0-22.83,25.44-44.46,22.99-36.9-4.18-48.76-37.46-48.76-37.46,0,0-12.07,3.63-20.17,5.34-8.4,1.78-18.38,4.37-26.36,9.69-.53,.35-1,.73-1.42,1.13-1.75,1.28-3.43,2.72-4.93,4.37-8.45,9.29-12.62,39.61-15.32,61.12s-7.36,50.05-12.65,64.72-28.38,65.28-28.38,65.28l38.68,12.52s19.47-37.58,23.85-49.73c2.34-6.49,7.99-25.63,13.61-45.1,1.83,9.76,3.41,18.07,4.4,23.23,3.8,19.78-4.3,55.51-7.72,71.87-3.42,16.36-1.48,55.1,1.31,56.22s5.13-6.37,37.08-7.89c16.06-.76,48.12,3.17,72.74,9.2,24.37,5.96,53.12,7.93,56.85,4.57,3-2.7,2.13-27.11-.33-47.38,.4,.95,.63,1.49,.63,1.49h-.01Z" style="fill:#8cabbc;" />
			<path d="M1015.85,270.18s12.89-4.99,16.05-4.2c2.92,.73,5.47,3.1,5.47,3.1l-.73,1.64s-3.1-2.01-6.2-1.28-12.59,4.93-12.59,4.93l-2.01-4.2h0Z" style="fill:#814d34;" />
			<g>
				<path d="M994.43,280.88l-5.03,.8-.33-1.78,6.14-1.29s-.62,2.22-.78,2.27h0Z" style="fill:#1a4431;" />
				<polygon points="995.15 279.97 989.94 276.36 990.92 274.81 995.77 277.93 995.15 279.97" style="fill:#1a4431;" />
				<path d="M994.35,276.89c-1.47,1.31-1.63,3.22-.29,4.61s2.79,1.15,4.19,.06c1.65-1.29,1.78-2.77,.55-4.34-.87-1.11-2.93-1.68-4.45-.34h0Z" style="fill:#1a4431;" />
			</g>
			<g>
				<path d="M1027.87,280.44l5.01,.91,.37-1.77-6.11-1.43s.57,2.24,.73,2.29Z" style="fill:#1a4431;" />
				<polygon points="1027.5 279.35 1032.59 275.99 1031.68 274.48 1026.95 277.37 1027.5 279.35" style="fill:#1a4431;" />
				<path d="M1027.52,276.8c1.44,1.34,1.56,3.25,.19,4.62-1.37,1.36-2.97,.86-4.33-.26-1.62-1.32-1.57-2.58-.31-4.12,.89-1.09,2.97-1.62,4.45-.24h0Z" style="fill:#1a4431;" />
			</g>
		</g>
		<g>
			<path d="M1015.32,380.46c-2.54,2.83-8.13,4.49-12.21,.95-3.41-2.95-4.35-7.83-1.04-11.84,2.93-3.56,8.76-3.35,12.09-.82,4.23,3.22,3.32,9.31,1.16,11.71Zm-4.51-10.84c-1.08-.82-2.97-.89-3.92,.27-1.07,1.3-.77,2.88,.34,3.83,1.33,1.14,3.14,.61,3.96-.31,.7-.78,.99-2.75-.38-3.79h0Z" style="fill:#e6f1e2;" />
			<path d="M1010.18,367.47c-.69,0-1.39-.02-2.11-.05-23.6-1.2-28.34-23.05-28.38-23.27-.06-.28,.12-.56,.4-.61,.31-.05,.56,.12,.61,.41,.04,.21,4.63,21.27,27.42,22.43,20.08,1.03,27.83-13.26,27.91-13.4,.14-.26,.45-.35,.7-.22s.35,.45,.22,.7c-.07,.15-7.5,14.02-26.77,14.02h0Z" style="fill:#e6f1e2;" />
		</g>
	</g>
</svg>
