<svg xmlns="http://www.w3.org/2000/svg" viewBox="0 0 1920 1080">
	<defs>
		<clipPath id="uuid-46ad76b1-a8e4-41e7-94f7-e5d767d72278">
			<path class="uuid-b962637b-413d-49e2-a9ed-ff64f718d391" d="M0 0h1920v1080H0z" />
		</clipPath>
		<clipPath id="uuid-b2a24166-3be3-4555-a3e1-47e06b53239c">
			<path class="uuid-e3b4501b-acde-4e2f-8246-a5e2e9f60f39" d="M228.57 147.4c58.5 1.45 107.19 35.84 109.32 113.64 2.03 74.04-55.21 120.87-107.88 119.87-56.4-1.07-110.37-49.3-110.28-118.91.1-70.5 52.81-115.99 108.84-114.6Z" />
		</clipPath>
		<clipPath id="uuid-41180bb6-19d4-4f4a-861e-b7a458026642">
			<path class="uuid-1d77bcaa-2519-47cc-a8d2-3dfc8bfb89eb" d="M1656.25 438.95c-10.76 3.8-2.95 46.49-.79 57.25 2.16 10.77 7.27 45.64 12.15 68.02 4.87 22.39 8.9 22.52 8.9 22.52l1.4 19.08 33.74-2.81 2.24-22.42s12.17-4.45 9.51-27.55-22.76-75.83-28.39-90.85c-4.2-11.21-14.81-31.71-38.75-23.25Z" />
		</clipPath>
		<clipPath id="uuid-94f6f765-5ac7-47cf-bfee-e8387db7acb4">
			<path class="uuid-1d77bcaa-2519-47cc-a8d2-3dfc8bfb89eb" d="M1534.76 302.1s24.44 13.86 44.05 15.23c19.61 1.37 21.31-7.4 21.31-7.4s12.22 5.99 24.57 13.3c9.13 5.4 28.61 12.49 30.21 23.72 1.36 9.52-22.75 66.13-20.01 96.68 2.74 30.55 18.89 81.66 19.26 93.14 1.02 31.75-4.99 37.53-4.99 37.53l-.02 19.47s-43.86 7.87-93.56 9.24-83.95-13.6-83.95-13.6l1.86-22.57s-11.21-11.26-5.74-28.13c5.47-16.87 12.29-59.84 13.2-78.08.91-18.24-2.44-45.26-6.09-73.53-3.65-28.27-5.02-70.67 11.4-75.23 16.41-4.56 28.4-5.49 34.78-6.4 6.38-.91 13.73-3.36 13.73-3.36Z" />
		</clipPath>
		<clipPath id="uuid-d5daf95d-14f8-46ad-8369-e953a28f96ab">
			<path class="uuid-1d77bcaa-2519-47cc-a8d2-3dfc8bfb89eb" d="M1463.32 489.54c11.48-11.08 23.17-17.75 20.95-29.91-2.22-12.16-13-36.66-16.19-43.94s-8.67-19.08-8.67-19.08l-2.6-20.81-36.42 2.6 1.73 21.97s-6.91 10.88-5.2 32.95 11.17 44.23 15.02 53.14c5.32 12.33 20.34 13.74 31.38 3.08Z" />
		</clipPath>
		<style>
			.uuid-b962637b-413d-49e2-a9ed-ff64f718d391{fill:none}.uuid-a74069a8-8ceb-4700-a23c-2f8c317ae59c{fill:#00a99f}.uuid-1d77bcaa-2519-47cc-a8d2-3dfc8bfb89eb{fill:#00a278}.uuid-e3b4501b-acde-4e2f-8246-a5e2e9f60f39{fill:#eee6f3}.uuid-94218134-0940-47f0-a56b-447d9c66a8df{fill:#f5f2ee}.uuid-cab28417-315a-4d40-8849-9acaa904e665{fill:#94143b}.uuid-367dd1e9-72df-4011-817b-4d0664dba77b{fill:#b39b50}.uuid-2abd000b-bdf3-446a-a9ba-aa8a67161f42{fill:#e2a975}.uuid-22357af0-2613-4da8-8479-370318da94b6{fill:#108e3a}.uuid-e43c2ad9-b656-4ea9-8b07-cedac214e0d9{fill:#4365a1}.uuid-76d78aaf-8d1a-4b60-b7cf-b75f1efef4f8{fill:#3a425f}.uuid-10e1f47e-6dd5-434f-b65d-f634e0abb599{fill:#5a74ad}
		</style>
	</defs>
	<g style="clip-path:url(#uuid-46ad76b1-a8e4-41e7-94f7-e5d767d72278)" id="uuid-cf99e8f6-3a8b-445b-8e9b-4b73a9a7d2e5">
		<path style="fill:#fbdedd" d="M-213.38-164.57h2280.04v1270.99H-213.38z" />
		<path style="fill:#a1c092" d="M-334.14 736.22h2400.45v867.77H-334.14z" />
		<path d="m727.64 825.02-8.43 86.71-20.59-1.25-1.61-75.78s33.86-8.06 30.63-9.67Z" style="fill:#575563" />
		<path class="uuid-10e1f47e-6dd5-434f-b65d-f634e0abb599" d="M-108.85 507.96c-17.37.38-33.97-1.18-59.65 15.94-22.95 15.3-27.27 45.11-15.81 70.9 6.05 13.62 16.76 22.96 25.5 28.74 8.71 5.75 13.95 15.48 13.79 25.91l-2.94 195.78 517.46.49v-336.2c-237.73-.91-469.96-1.75-478.36-1.56Z" />
		<path class="uuid-10e1f47e-6dd5-434f-b65d-f634e0abb599" d="M722.44 507.96c17.37.38 33.97-1.18 59.65 15.94 22.95 15.3 27.27 45.11 15.81 70.9-6.05 13.62-16.76 22.96-25.5 28.74-8.71 5.75-13.95 15.48-13.79 25.91l2.94 195.78-517.46.49v-336.2c237.73-.91 469.96-1.75 478.36-1.56Z" />
		<path class="uuid-e43c2ad9-b656-4ea9-8b07-cedac214e0d9" d="M-51.95 673.88c8.55-.17 340.54-.2 348.58-.05 9.95.18 13.56 3.9 13.56 8.65 0 9.11.53 32.31.14 39.75-.22 4.18-4.23 6.93-11.35 6.93-12.3 0-342.27.41-352.44.41-10.16 0-12.2-3.43-12.2-8.84s.1-31.86.1-39.82c0-4.26 4.23-6.83 13.61-7.02Z" />
		<path d="M-49.67 450.15c33.68-9.32 319.07-6.08 326.99-6.29 20-.53 29.77 14.51 29.69 24.65-.15 19.47-.77 166.48-1.28 182.39-.28 8.92-4.28 14.79-11.3 14.79-12.12 0-326.43.87-336.45.87-10.01 0-11.96-7.32-11.87-18.87.09-11.56-14.7-138.08-15.71-165.39-.34-9.1 11.01-29.68 19.93-32.14Zm719.74 0c-8.28-1.65-319.09-1.53-327.01-1.23-27.31 1.01-30.42 20.2-30.34 30.34.15 19.47 1.45 155.73 1.95 171.64.28 8.92 4.28 14.79 11.3 14.79 12.12 0 317.35.86 327.36.86 10.01 0 19.43-7.41 20.96-18.87S692.81 497.71 692 488.36c-2.02-23.26-5.25-34.88-21.93-38.21Z" style="fill:#41619b" />
		<path class="uuid-e43c2ad9-b656-4ea9-8b07-cedac214e0d9" d="M667.03 673.68c-8.55-.17-330.36.01-338.4.15-9.95.18-13.56 3.9-13.56 8.65 0 9.11-.53 32.31-.14 39.75.22 4.18 4.23 6.93 11.35 6.93 12.3 0 331.13 2.58 341.3 2.58s19.38-2.14 23.01-13.69c1.62-5.16-1.86-25.5-2.74-33.41-1.1-9.86-11.44-10.76-20.81-10.95Z" />
		<path d="M228.1 132.7c64-.8 121.18 39.04 124 125.36 2.55 77.88-51.22 134.25-119.73 135.98s-124.52-45.76-126.4-134.1c-1.53-71.84 51.87-126.37 122.13-127.25Z" style="fill:#666019" />
		<path class="uuid-e3b4501b-acde-4e2f-8246-a5e2e9f60f39" d="M228.57 147.4c58.5 1.45 107.19 35.84 109.32 113.64 2.03 74.04-55.21 120.87-107.88 119.87-56.4-1.07-110.37-49.3-110.28-118.91.1-70.5 52.81-115.99 108.84-114.6Z" />
		<g style="clip-path:url(#uuid-b2a24166-3be3-4555-a3e1-47e06b53239c)">
			<path class="uuid-b962637b-413d-49e2-a9ed-ff64f718d391" d="M285.26 50.89S208.11 236.96 178.61 307.3C149.11 377.64 106 488.83 106 488.83l238.26 11.35 90.76-392.56-149.76-56.73Z" />
			<path d="M426.1 199.02s-72.96-52.03-148.48-20.57c-71.73 29.89-66.69 75.55-116.3 93.39-64.48 23.18-124.18-33.45-193.95 35.95l99.94 204.99 375.51-265.37-16.72-48.39Z" style="fill:#f29a7e" />
			<path d="M561.25 221.58s-116.11-48.32-171.45 11.95c-83.94 91.41-189.93 0-287.28 96.82l99.94 204.99 375.49-265.37-16.72-48.39Z" style="fill:#f0c23d" />
		</g>
		<path class="uuid-22357af0-2613-4da8-8479-370318da94b6" d="M921.74 320.49c-1.15 0-1.94 1.18-1.55 2.27 5.49 15.14 40.07 110.57 49.44 138.4 10.75 31.93 32.72 70.31 33.75 85.55 1.3 19.22-20.91 29.37-25.52 41.97-11.04 30.19 3.76 59.91 3.76 59.91l9.55-.38s-8.19-35.09 6.33-55.35c14.52-20.25 49.58-32.81 68.13-46.82 20.48-15.47 45.86-45.48 44.33-45.48s-2.03-5.42-2.03-5.42-28.92 33.75-42.66 45.45c-11.85 10.09-66.84 33.85-66.84 33.85s14.6-13.17 12.69-27.31c-1.91-14.14-29.89-68.99-36.01-87.72C969 440.68 924 321.04 924 321.04s-2.27-.56-2.28-.56Z" />
		<path class="uuid-22357af0-2613-4da8-8479-370318da94b6" d="M936.63 327.66s0-35.79-27.29-45.63c-27.29-9.84-36.89-3.66-40.71.45-8.13 8.74-10.29 14.76-10.29 14.76s8.89-6.74 20.53-1.82c11.63 4.92 25.1 11.22 22.42 16.14-2.68 4.92-41.16-10.74-44.29-10.74s-10.74 5.82-14.76 12.97c-4.03 7.16-7.61 18.34-7.61 18.34s17.45-9.84 35.79-9.39c18.34.45 24.16 4.03 24.16 6.26s-26.39-1.79-40.26 3.13c-13.87 4.92-17.45 6.71-19.24 12.08-1.79 5.37-3.58 14.32-2.24 20.13 1.34 5.82 7.16 14.76 7.16 14.76s1.79-12.97 21.47-23.71 37.58-9.84 40.71-6.71c3.13 3.13-15.66 8.95-29.97 15.21-14.32 6.26-24.16 21.92-24.16 21.92l15.66 12.53s1.14-14.3 11.87-22.8c10.74-8.5 25.26-10.75 28.39-8.52 3.13 2.24-16.55 12.97-22.82 19.68-6.26 6.71-8.5 13.42-8.5 13.42s11.63 4.74 15.65 9.66c4.03 4.92 9.84 13.6 9.84 13.6s.25-8.99 10.09-15.7c9.84-6.71 31.58-8.78 31.58-8.78s11.31-6.74 10.03-20.9c-.88-9.78-17.25-20.83-10.99-23.51 6.26-2.68 15.21 8.5 17.45 17.89 2.24 9.39 2.42 20.43 2.42 20.43l28-15.95s-5.37-16.55-16.55-22.82c-11.18-6.26-20.13-10.29-18.79-12.97 1.34-2.68 17.45-4.47 27.74 7.61s6.26 18.79 6.26 18.79 12.53-9.39 16.55-18.34c4.03-8.95 3.58-15.66 3.58-15.66s-9.39-4.03-21.03-12.08c-11.63-8.05-21.92-9.84-28.63-5.82-6.71 4.03-19.24 12.08-19.24 12.08Zm-18.27 177.36s2.68-10.7-4.2-14.52c-6.88-3.82-11.08-3.44-17.96 1.53-6.88 4.97-10.32 23.31-19.11 30.95-8.79 7.64-17.96 17.2-17.2 26.75.76 9.55 4.66 18.67 4.66 18.67s4.15-6.92 9.5-8.63c11.85-3.81 42.79-17.68 51.19-24.94 8.41-7.26 25.57-23.16 13.76-33.63-6.78-6.01-20.64 3.82-20.64 3.82Zm87.26-46.95s.76-11.85-14.52-9.55c-15.29 2.29-26.75 16.43-18.73 30.19 8.03 13.76 15.72 18.63 17.63 22.45 1.91 3.82 3.86 5.79 3.86 5.79s1.99-2.15 5.67-4.9c5.74-4.31 33.82-17.04 35.73-31.56 1.91-14.52-8.63-17.77-15.89-18.92-7.26-1.15-13.76 6.5-13.76 6.5Z" />
		<path class="uuid-22357af0-2613-4da8-8479-370318da94b6" d="M903.92 516.48s24.69-9.17 44.68 10.83c20 20 49.79 82.38 49.79 82.38l8.13-1.57s-39.32-73.39-58.71-89.14c-19.39-15.76-44.31-7.85-44.31-7.85l.43 5.34Zm140.25-159.77s7.29-11.98 22.46-7.04c15.17 4.94 22.84 23.75 18.75 38.31-3.79 13.5-17.08 34.27-17.08 34.27s-1.37-15.52-5.4-25.37c-4.16-10.18-9.2-13.3-11.32-12.31-2.11.99 3.1 7.56 6.57 14.1 3.47 6.53 6.2 21.57 6.2 21.57s-10.94 2.34-18.42 5.59c-5.19 2.25-12.9 4.87-17.52 9.83-2.18 2.35-7.64 5.67-7.64 5.67s-4.11-9.81-7.8-18.57c-3.07-7.3-13.21-26.02-16.87-38.47s1.79-27.44 11.1-36.92c9.3-9.49 16.87-14.11 25.37-11.83 11.28 3.03 11.6 21.19 11.6 21.19Z" />
		<path class="uuid-22357af0-2613-4da8-8479-370318da94b6" d="M1041.55 362.64s1.42 69.74 9.88 101.79c8.46 32.05-17.59 59.86-23.38 93.69-5.79 33.83 2.01 92.83 2.01 92.83l-7.12-2.23s-7.25-60.76-3.69-89.25c3.56-28.49 35.74-66.11 27.73-95.04-8.01-28.93-10.68-101.49-10.68-101.49l5.26-.3Zm55.23 126.21s3.87-18.13 24.04-8.85c16.93 7.8 23 32.22 15.92 45.32-6.83 12.64-11.52 16.07-13.35 18.19-1.83 2.12-3.88 7.72-3.88 7.72s-2.64-3.19-9.22-6.24c-7.11-3.3-40.41-17.01-48.24-37.22-9.26-23.92 4.31-29.76 15.86-28.5 10.75 1.17 18.87 9.57 18.87 9.57Zm-90.77-17.17s-7.57 59.35-14.09 83.55c-6.81 25.26-8.12 47.1-10.84 61.76-3.26 17.6-6.8 32.93-6.8 32.93l6.67-.21s3.86-19.28 6.43-33.42 6.47-48.85 10.97-63.63c4.5-14.78 12.16-82.27 12.16-82.27l-4.5 1.29Z" />
		<path style="fill:#d1622d" d="m954.67 607.85 7.55 67.58h74.03l7.99-62.35 8.22-15.26 1.74-22.77-108.39.59.59 16.99 8.27 15.22z" />
		<path style="fill:#efe9ea" d="M1145.78 673.72v-11.18l-293.1 5.16v13.75l134.39-2.97 5.07 162.39-70.9 16.89-.72 10.07 175.41-1.58-.86-10.31-77.1-15.44.69-162.86 127.12-3.92z" />
		<g>
			<path class="uuid-367dd1e9-72df-4011-817b-4d0664dba77b" d="M1332.13 112.96h428.6v7.85h-428.6z" />
			<path class="uuid-94218134-0940-47f0-a56b-447d9c66a8df" d="m1715.71 108.97-3.1 452.29h-335.29l-1.19-454.63 339.58 2.34z" />
			<path style="fill:#a9cee1" d="m1402.83 159.25 1.09 356.11 286.65-1.72 1.27-355-289.01.61z" />
			<path class="uuid-367dd1e9-72df-4011-817b-4d0664dba77b" d="M1744.91 107.76c-6.46-.9-10.17 2.03-11.12 6.21-.99 4.38.41 9.78 6.47 11.24 6.17 1.49 11.79-2.5 12.17-7.13.35-4.42-1.06-9.41-7.52-10.32Zm-394.69-.22c-6.46-.9-10.17 2.03-11.12 6.21-.99 4.38.41 9.78 6.47 11.24 6.17 1.49 11.79-2.5 12.17-7.13.35-4.42-1.06-9.41-7.52-10.32Z" />
			<path class="uuid-94218134-0940-47f0-a56b-447d9c66a8df" d="m1394.8 331.62 306.35-2.17-.72 11.59H1394.8v-9.42z" />
			<path class="uuid-94218134-0940-47f0-a56b-447d9c66a8df" d="m1536.44 531.82-.44-420.2 11.58 1.07-1.72 419.13h-9.42z" />
			<path style="fill:#f3b85b" d="m1356.48 103.12.92 122.52 371.72-1.06-.16-122.1-372.48.64z" />
		</g>
		<path style="fill:#d4c381" d="m1360.22 549.12 367.32 2.62.5 13.92-367.31-1.37-.51-15.17z" />
	</g>
	<g id="uuid-79bd17bb-1396-4265-ba60-54dc10b92c8e">
		<path class="uuid-2abd000b-bdf3-446a-a9ba-aa8a67161f42" d="M1682.8 599.91s-4.24 9.6-5.05 12.62c-.8 3.02-2.91 12.97-3.11 15.32-.2 2.34 2.75 20.83 2.75 20.83s4.21-.36 5.8-4.04c1.59-3.68-.13-13.27 1.76-16.2 1.47-2.29 3.53-.97 3.32 1.56-.22 2.52-.43 12.35-.56 13.79-.12 1.44-4.36 5.4-5.48 7.85-1.12 2.45 1.68 5.78 1.68 5.78s9.64-2.26 11.01-3.41 1.29-4.43 2.96-4.83 5.64-2.24 5.81-4.22c.17-1.98 2.55-2.14 3.95-3.66 1.4-1.51.52-3.95 2.19-4.35s4.86-1.58 5.52-2.98c.66-1.4.92-13.2.54-17.23-.38-4.03-5.84-14.77-5.94-17.87s1.76-15.54 1.76-15.54l-24.84-2.68s-3.11 14.44-4.07 19.26Z" />
		<path d="M1444.17 884.37s4.11 32.57-7.99 48.53c-12.1 15.96-22.59 20.52-29.29 22.03-6.7 1.51-26.71 2.3-30.49 7.53-3.78 5.24-2.79 17.1-2.79 17.1s24.74 4.56 40.97 3.01c16.23-1.55 35.04-7.33 40.92-8.92 5.87-1.59 7.21-.1 7.21-.1l.58 4.67 38.66-4.39s3.32-13.37-1.48-25.96c-4.8-12.59-9.8-28.94-11.23-37.64-1.44-8.71-.76-29.77-.76-29.77l-44.3 3.9Zm98.45 1.76s2.82 41.67-.31 48.88c-3.13 7.21-5.95 21.3-5.95 21.3l5.33 4.39h4.7s0 13.79.94 16.61c.94 2.82 10.65 10.34 20.99 11.59 10.34 1.25 25.06.94 28.2-2.51 3.13-3.45 6.27-14.41-2.19-23.81-8.46-9.4-17.55-22.87-19.11-29.76-1.57-6.89-1.88-23.81-1.88-31.02 0-7.21 4.07-18.49 4.07-18.49l-34.78 2.82Z" style="fill:#543627" />
		<path class="uuid-cab28417-315a-4d40-8849-9acaa904e665" d="M1497.72 497.91s-1.76 22.89-8.32 41.13c-6.57 18.25-42.03 142.79-46.41 163.95-4.38 21.17-20.59 217.52-20.59 217.52s36 6.15 54.24 8.34c18.25 2.19 30.65-2.19 30.65-2.19s-4.46-89.38-.08-141.92c4.38-52.55-2.69-49.34 8.99-69.77 11.68-20.44 58.89-122.17 72.76-144.07 13.87-21.9 12.41-81.74 12.41-81.74s-28.46 8.03-49.63 8.03-54.01.73-54.01.73Z" />
		<path class="uuid-cab28417-315a-4d40-8849-9acaa904e665" d="M1553.19 554.11c-1.43 3.9 1.58 147.78-3.59 188.29-5.41 42.39-31.07 169.76-31.07 169.76s25.54 16.79 45.98 17.52c20.44.73 42.93-6.23 42.93-6.23s2.74-108.8 12.23-158.42c9.49-49.63 31.28-184.94 27.63-217.78-3.65-32.84-22.58-67.58-22.58-67.58s-18.98 10.22-40.87 13.87c-21.9 3.65-50.36 2.92-50.36 2.92l19.71 57.66Z" />
		<path d="M1559.96 177.79c-4.11-1.27-7.77-2.8-14.04-1.41-6.26 1.39-9.1 4.34-9.1 4.34l9.31 1.32s-13.76 2.2-18.84 9.64c-5.09 7.43-5.22 11.76-5.22 11.76l4.9-3.79s-5.41 6.32-5.59 13.15c-.18 6.82 11.51 47.16 11.51 47.16s71.92-3.38 69.85-8.22c-.57-1.33 2.61-21.39 3.13-26.88.52-5.49 2.24-10.62.27-14.78-1.98-4.16-3.99-8.77-3.99-8.77l4.99 3.47s-3.8-12.42-9.22-15.4c-5.42-2.98-9.85-2.19-9.85-2.19s1.6-3.76 4.21-3.51c2.62.25 4.71-.14 4.71-.14s-2.06-5.29-9.82-4.91c-7.76.38-11.19 1.78-11.19 1.78s.93-3.25-3.69-4.94c-4.62-1.69-12.33 2.32-12.33 2.32Z" style="fill:#eee5dc" />
		<path class="uuid-2abd000b-bdf3-446a-a9ba-aa8a67161f42" d="M1572.01 296.3c15.04-4.12 20.34-14.31 24.67-19.91 4.41-5.7 1.21-16.31 2.27-17.33 1.06-1.02 5.17 1.45 8.33-7.6 3.15-9.05 4.5-19.05.65-18.75-4 .31-5.26 4.86-6.17 8.69-.91 3.79-2.69 8.61-2.69 8.61l-2.83.7s1.21-17.26-4.28-28.89c-5.48-11.63-6.3-15.97-10.27-14.27-3.97 1.7 5.74 11.84 5.74 11.84s-9.37 1.88-16.58-4.05c-7.21-5.93-9.91-8.03-9.91-8.03s-.56 2.13.89 5.26c1.45 3.13 3.56 5.52 3.56 5.52s-8.09 1.32-13.65-1.95c-5.56-3.28-7.96-6.34-7.96-6.34s1.48 3.59 1.84 8.2c.36 4.61-2.54 6.56-2.54 6.56s-.16-1.02-.8-3.06-1.74-3.81-1.74-3.81-2.54 7.71-3.53 13.49c-.99 5.77 3.92 24.54 3.92 24.54l-2.67-.26s-8.31-19.1-12.54-17.61c-4.22 1.49-.75 12.11 1.1 17.3 1.85 5.19 4.1 9.42 6.76 9.44 2.65.03 4.51-.43 4.83.09s.89 11.52 4.38 16.12c3.49 4.6 16.07 14.52 19.95 14.91 3.89.39 6.9 1.23 9.26.59Z" />
		<path class="uuid-2abd000b-bdf3-446a-a9ba-aa8a67161f42" d="M1542.49 262.66s6.52 20.98.11 32.51c-4.14 7.44-15.16 9.9-22.69 11.6-7.83 1.77-21.39 2.92-21.39 2.92l2.69 42.73 120.27-4.04-5.47-23.82s-15.6-11.99-19.53-18.99c-9.34-16.66-1.49-40.16-1.49-40.16l-52.49-2.73Z" />
		<path d="M1555.96 275.96c.78.99 2.14.98 3.31 1.46 1.76.72 5.08 3.23 8.81 2.46 3.72-.77 6.79-2.13 8.48-2.46 1.69-.34 4.23-1.7 3.9-3.12-.32-1.42-5.28-3.51-6.72-3.91-2.27-.64-4.63.59-5.99.56s-3.71-.49-6.34.54-6.54 3.09-5.45 4.48Z" style="fill:#d98a46" />
		<path d="M1572.7 237.36s6.3-3.85 11.31-4.12c5.02-.27 7.03 1.5 7.03 1.5l-.33 2.17s-2.29-.79-7.26-.31c-6.59.63-8.9 2.86-8.9 2.86l-1.84-2.09Zm-13.64 3.92.18-2.62s-6.47-3.47-12.09-2.66-6.88 3.2-6.88 3.2l.97 1.88s3.13-2.63 8.09-1.9 9.72 2.1 9.72 2.1Z" style="fill:#6d593b" />
		<path class="uuid-76d78aaf-8d1a-4b60-b7cf-b75f1efef4f8" d="M1551.17 243.67c-1.56.68-2.2 2.2-1.48 3.71.72 1.5 1.98 1.69 3.42 1.17 1.7-.61 2.93-2.52 1.62-3.64-1.79-1.53-1.96-1.94-3.56-1.24Z" />
		<path class="uuid-76d78aaf-8d1a-4b60-b7cf-b75f1efef4f8" d="m1546.58 244.29 9.09.92.44-2.06-9.05-1.71-.48 2.85zm34.1-3.21c1.64.43 2.52 1.84 2.03 3.43-.48 1.6-1.87 2.05-3.36 1.76-1.77-.34-2.33-1.73-2-3.41.23-1.19 1.64-2.22 3.33-1.78Z" />
		<path class="uuid-76d78aaf-8d1a-4b60-b7cf-b75f1efef4f8" d="m1585.65 241.13-8.97 3.13-.58-2.29 8.23-3.74 1.32 2.9z" />
		<path class="uuid-1d77bcaa-2519-47cc-a8d2-3dfc8bfb89eb" d="M1617.79 416.67s32.77 58 35.05 71.68c2.28 13.68 2.71 27.5 25.05 27.5s16.26-35.29 15.35-53.07c-.91-17.78-30.08-116.26-42.85-124.02-12.77-7.75-39.13-20.82-46.43-8.05-7.3 12.77 13.82 85.96 13.82 85.96Zm-133.36-103.9c-20.68 7.82-33.91 41.54-41.21 78.92-7.3 37.39-13.96 70.17-5.3 78.83 8.66 8.66 29.18 18.24 37.84 2.74 8.66-15.5 15.05-67.48 21.89-77.97 6.84-10.49 17.33-36.48 10.94-54.71-6.38-18.24-15.58-31.06-24.17-27.81Z" />
		<path class="uuid-1d77bcaa-2519-47cc-a8d2-3dfc8bfb89eb" d="M1656.25 438.95c-10.76 3.8-2.95 46.49-.79 57.25 2.16 10.77 7.27 45.64 12.15 68.02 4.87 22.39 8.9 22.52 8.9 22.52l1.4 19.08 33.74-2.81 2.24-22.42s12.17-4.45 9.51-27.55-22.76-75.83-28.39-90.85c-4.2-11.21-14.81-31.71-38.75-23.25Z" />
		<path class="uuid-a74069a8-8ceb-4700-a23c-2f8c317ae59c" d="M1670.58 587.54s9.25-1.45 23.41-3.18c14.06-1.72 13.61-1.61 30.06-5.2l-.58 31.22-48.56 4.91-4.34-27.75Z" style="clip-path:url(#uuid-41180bb6-19d4-4f4a-861e-b7a458026642)" />
		<path class="uuid-1d77bcaa-2519-47cc-a8d2-3dfc8bfb89eb" d="M1534.76 302.1s24.44 13.86 44.05 15.23c19.61 1.37 21.31-7.4 21.31-7.4s12.22 5.99 24.57 13.3c9.13 5.4 28.61 12.49 30.21 23.72 1.36 9.52-22.75 66.13-20.01 96.68 2.74 30.55 18.89 81.66 19.26 93.14 1.02 31.75-4.99 37.53-4.99 37.53l-.02 19.47s-43.86 7.87-93.56 9.24-83.95-13.6-83.95-13.6l1.86-22.57s-11.21-11.26-5.74-28.13c5.47-16.87 12.29-59.84 13.2-78.08.91-18.24-2.44-45.26-6.09-73.53-3.65-28.27-5.02-70.67 11.4-75.23 16.41-4.56 28.4-5.49 34.78-6.4 6.38-.91 13.73-3.36 13.73-3.36Z" />
		<path class="uuid-a74069a8-8ceb-4700-a23c-2f8c317ae59c" d="M1556.47 318.7c15.19 7.01 34.85 6.7 43.05 1.58 11.79-7.37 18.83-17.15 18.83-17.15l-14.46-24.09-74.78-1.37-22.92 17.07s34.94 16.89 50.28 23.96Zm105.65 253.51c-58.54 11.65-88.01 10.15-112.83 10.85-55.87 1.58-94.14-23.27-94.14-23.27l-7.07 47.31 214.39 7.58-.35-42.47Z" style="clip-path:url(#uuid-94f6f765-5ac7-47cf-bfee-e8387db7acb4)" />
		<path class="uuid-2abd000b-bdf3-446a-a9ba-aa8a67161f42" d="M1435.06 401.67s-11.31-20.03-12.91-24.34c-1.6-4.31-10.71-20.45-11.67-24.2-.95-3.75.86-20.21 1.3-21.64.44-1.43 5.15-23.51 5.15-23.51s6.11-.48 6.83 5.13c.27 2.1-1.2 10.76-2.52 13.03-.89 1.52 1.36 8.64 1.8 8.82.75.31 7.14-6.48 9.03-6.53 2.66-.08 15.19 11.08 14.85 14.09-.35 3.19-1.58 11.04-1.37 13.03.21 1.99 4.52 10.71 2.73 14.36-1.78 3.66-1.68 4.91-.54 7.13 1.14 2.22 9.22 11.06 9.22 11.06l-21.89 13.57Z" />
		<path class="uuid-1d77bcaa-2519-47cc-a8d2-3dfc8bfb89eb" d="M1463.32 489.54c11.48-11.08 23.17-17.75 20.95-29.91-2.22-12.16-13-36.66-16.19-43.94s-8.67-19.08-8.67-19.08l-2.6-20.81-36.42 2.6 1.73 21.97s-6.91 10.88-5.2 32.95 11.17 44.23 15.02 53.14c5.32 12.33 20.34 13.74 31.38 3.08Z" />
		<path class="uuid-a74069a8-8ceb-4700-a23c-2f8c317ae59c" d="M1467.51 396.32s-12.73-1.52-26.88.29c-14.15 1.8-27.75 4.62-27.75 4.62l-1.31-38.68 48.54-5.15 7.41 38.92Z" style="clip-path:url(#uuid-d5daf95d-14f8-46ad-8369-e953a28f96ab)" />
	</g>
</svg>
