<?xml version="1.0" encoding="UTF-8"?>
<svg xmlns="http://www.w3.org/2000/svg" xmlns:xlink="http://www.w3.org/1999/xlink" viewBox="0 0 1920 1080">
	<defs>
		<style>
			.m{fill:none;}.n{fill:#006443;}.o{fill:#eeeef0;}.p{fill:#f5aa74;}.q{fill:#eb6a36;}.r{fill:#f5ac7b;}.s{fill:#fbbf1f;}.t{fill:#e8e9dd;}.u{fill:#e2e6ea;}.v{fill:#ffed00;}.w{fill:#f1f1f3;}.x{fill:#7e897b;}.y{fill:#c280b1;}.a`{fill:#8cb717;}.aa{fill:#8f9e69;}.ab{fill:#b591be;}.ac{fill:#32343c;}.ad{fill:#cdc3b0;}.ae{fill:#b39a4f;}.af{fill:#cad3cc;}.ag{fill:#c4c7c9;}.ah{fill:#e37a37;}.ai{fill:#e41c80;}.aj{fill:#d6993f;}.ak{fill:#b39746;}.al{fill:#3fa25a;}.am{fill:#54535e;}.an{fill:#313e36;}.ao{fill:#394a35;}.ap{fill:#2da4bd;}.aq{fill:#70847a;}.ar{fill:#497125;}.as{fill:#75c6cf;}.at{fill:#70a25e;}.au{fill:#7b408e;}.av{clip-path:url(#c);}.aw{clip-path:url(#f);}.ax{clip-path:url(#e);}.ay{clip-path:url(#d);}.b`{clip-path:url(#l);}.ba{clip-path:url(#k);}.bb{clip-path:url(#j);}.bc{clip-path:url(#i);}.bd{clip-path:url(#g);}
		</style>
		<clipPath id="c">
			<rect width="1920" height="1080" style="fill:none;" />
		</clipPath>
		<clipPath id="d">
			<polygon points="836.11 335.71 834.57 425.51 926.18 424.93 927.37 335.22 836.11 335.71" style="fill:none;" />
		</clipPath>
		<clipPath id="e">
			<path d="M125.78,40.87s1.03,24.82,2.07,32.06c1.03,7.24,3.1,11.37,21.72,12.41,18.61,1.03,563.57,3.1,585.28,3.1s33.09-7.24,34.12-16.55c1.03-9.31,1.03-27.92,1.03-27.92l-644.23-3.1h0Z" style="fill:none;" />
		</clipPath>
		<clipPath id="f">
			<path d="M1062.58,40.87s1.03,24.82,2.07,32.06c1.03,7.24,3.1,11.37,21.72,12.41,18.61,1.03,563.57,3.1,585.28,3.1s33.09-7.24,34.12-16.55c1.03-9.31,1.03-27.92,1.03-27.92l-644.23-3.1h.01Z" style="fill:none;" />
		</clipPath>
		<clipPath id="g">
			<path d="M973.96,801.87c2.79,9.53,2.8,58.55,1.64,69s-7.88,75.9-19.99,89.66c-3.21,3.64-30.41,2.65-42.47,.48-12.06-2.17-53.8-17.06-59.66-23.29-6.77-7.19,10.11-114.01,12.42-123.77s7.37-9.71,9.96-14.87,4.5-20.3,20.93-21.74c16.43-1.43,42.76,2.77,52.14,4.26s23.55,15.22,25.03,20.27h0Z" style="fill:none;" />
		</clipPath>
		<clipPath id="i">
			<path d="M1145.85,963.79c-8.32,.32-17.21,10.49-18.71,10.83-4.08,.92-.54-6.83-1.71-7.07-1.17-.24-3.39,8.43-4.41,16.08s-1.53,11.05-.17,12.07,13.59,6.63,14.95,10.71,4.42,15.12,17.5,16.31,23.79-.51,24.47-4.59c.68-4.08,1.53-11.9-1.53-15.8-3.06-3.91-9.69-7.65-13.42-14.78-3.74-7.14-7.63-15.9-8.9-18.36-1.38-2.67-3.66-5.55-8.08-5.38v-.02Z" style="fill:none;" />
		</clipPath>
		<clipPath id="j">
			<path d="M1060.35,965.77c1.28-.33,3.11,11.65,4.08,15.97,1.8,8.05,.34,15.46-.17,16.99-.51,1.53-18.52,2.21-28.89,7.65s-20.56,7.99-32.46,7.99-20.39-4.59-21.24-7.14-2.89-10.03,1.19-12.24c4.08-2.21,18.18-6.8,24.13-10.37s23.39-24.9,32.73-19.97c9.35,4.93,10.43,16.74,15.87,14.19s3.47-12.75,4.76-13.08h0Z" style="fill:none;" />
		</clipPath>
		<clipPath id="k">
			<path d="M1065.17,385.73c-29.46,6.17-31.89,28.37-30.77,46.83,1.13,18.46,10.12,28.96,14.25,41.87s3.57,46.11,3.57,46.11l9.65-.32s5.61-20.65,5.02-29.82c-.78-12.27-6.84-30.03-6.84-30.03l45.15-15.76s2.36,17.19,7.81,29.39c5.45,12.2,12.19,22.58,12.19,22.58l14.06-3.8s-.7-4.71-7.44-16.66c-5.2-9.23-10.28-20.07-14.15-36.72-1.49-6.44-3.57-29.43-12.4-41.59-7.82-10.76-21.17-16.04-40.11-12.07h0Z" style="fill:none;" />
		</clipPath>
		<clipPath id="l">
			<path d="M1187.24,671.87s5.4-6.2,6.7-18c1.29-11.8-6.9-35.68-15.99-65.5s-15.34-78.85-30.2-87.64c-5.94-3.51-12.19-1.5-17.37-1.6-11.4-.23-16.6-1.29-16.6-1.29,0,0-6.85,6.19-29.93,7.13-22.36,.91-30.87-5.14-30.87-5.14,0,0-12.86,4.95-20.42,7.3-7.35,2.29-13.87,4.31-19.5,14.67-6.27,11.53-12.41,64.25-12.41,64.25l-14.61-16.37-10.09-12.63-16.77,13.83,5.82,11.15s-4.96,11.04,1.67,23.95c5.64,10.99,37.87,36.8,49.94,41.23,8.5,3.11,11.8-5.03,11.81-4.44,.67,38.61-8.96,49.76-9.95,56.24-2.7,17.65,11.81,21.69,11.81,21.69,0,0,27.96-6.77,51.37-5.05,23.41,1.72,70.4,9.36,70.4,9.36,0,0,9.67,.35,10.36-12.49,.66-12.33-.47-28.31-.53-32.55,2.16,6.37,5.4,15.55,5.4,15.55l20.23-5.67-.27-17.97h0Z" style="fill:none;" />
		</clipPath>
	</defs>
	<g id="a">
		<g id="b">
			<g style="clip-path:url(#c);">
				<g>
					<polygon points="1983 1156.86 -116.44 1172.62 -113.62 -89.89 1985.82 -105.66 1983 1156.86" style="fill:#cad3cc;" />
					<polygon points="-245.13 817.38 2086.12 816.8 2050.37 1243.76 -220.52 1384.05 -245.13 817.38" style="fill:#e8e9dd;" />
					<g>
						<polygon points="-51.6 288.89 414.33 290.6 412.68 340.73 -47.97 339.84 -51.6 288.89" style="fill:#b39746;" />
						<g>
							<polygon points="346.04 238.34 327.56 289.03 330.4 342.56 342.25 350.62 352.67 350.15 362.62 331.67 352.19 328.83 346.04 340.2 342.72 289.5 356.46 248.76 359.77 262.02 371.15 261.55 364.51 239.28 346.04 238.34" style="fill:#e2e6ea;" />
							<path d="M338.71,296.64c-2.76,.69-2.88,3.2-2.67,4.91s1.71,2.78,3.2,2.67,2.56-1.49,2.56-4.27-1.39-3.74-3.1-3.31h.01Z" style="fill:#313e36;" />
							<path d="M340.1,319.8c-2.76,.69-2.88,3.2-2.67,4.91s1.71,2.78,3.2,2.67c1.49-.11,2.56-1.49,2.56-4.27s-1.39-3.74-3.1-3.31h.01Z" style="fill:#313e36;" />
						</g>
						<g>
							<polygon points="190.32 238.34 171.85 289.03 174.69 342.56 186.53 350.62 196.96 350.15 206.91 331.67 196.48 328.83 190.32 340.2 187.01 289.5 200.75 248.76 204.06 262.02 215.43 261.55 208.8 239.28 190.32 238.34" style="fill:#e2e6ea;" />
							<path d="M183,296.64c-2.76,.69-2.88,3.2-2.67,4.91s1.71,2.78,3.2,2.67,2.56-1.49,2.56-4.27-1.39-3.74-3.1-3.31h.01Z" style="fill:#313e36;" />
							<path d="M184.39,319.8c-2.76,.69-2.88,3.2-2.67,4.91s1.71,2.78,3.2,2.67c1.49-.11,2.56-1.49,2.56-4.27s-1.39-3.74-3.1-3.31h.01Z" style="fill:#313e36;" />
						</g>
						<g>
							<polygon points="112.47 238.34 93.99 289.03 96.83 342.56 108.68 350.62 119.1 350.15 129.05 331.67 118.63 328.83 112.47 340.2 109.15 289.5 122.89 248.76 126.21 262.02 137.58 261.55 130.95 239.28 112.47 238.34" style="fill:#e2e6ea;" />
							<path d="M105.14,296.64c-2.76,.69-2.88,3.2-2.67,4.91s1.71,2.78,3.2,2.67,2.56-1.49,2.56-4.27-1.39-3.74-3.1-3.31h.01Z" style="fill:#313e36;" />
							<path d="M106.53,319.8c-2.76,.69-2.88,3.2-2.67,4.91s1.71,2.78,3.2,2.67,2.56-1.49,2.56-4.27-1.39-3.74-3.1-3.31h.01Z" style="fill:#313e36;" />
						</g>
						<g>
							<polygon points="268.18 238.34 249.7 289.03 252.55 342.56 264.39 350.62 274.81 350.15 284.76 331.67 274.34 328.83 268.18 340.2 264.86 289.5 278.6 248.76 281.92 262.02 293.29 261.55 286.66 239.28 268.18 238.34" style="fill:#e2e6ea;" />
							<path d="M260.85,296.64c-2.76,.69-2.88,3.2-2.67,4.91s1.71,2.78,3.2,2.67,2.56-1.49,2.56-4.27-1.39-3.74-3.1-3.31h.01Z" style="fill:#313e36;" />
							<path d="M262.24,319.8c-2.76,.69-2.88,3.2-2.67,4.91s1.71,2.78,3.2,2.67c1.49-.11,2.56-1.49,2.56-4.27s-1.39-3.74-3.1-3.31h.01Z" style="fill:#313e36;" />
						</g>
					</g>
					<g>
						<polygon points="801.52 309.86 801.52 527.8 971.42 527.8 969.44 309.66 801.52 309.86" style="fill:#54535e;" />
						<polygon points="810.27 321.94 810.32 516.6 959.88 515.75 959 321.6 810.27 321.94" style="fill:#eeeef0;" />
						<g>
							<polygon points="833.98 448.89 834.88 459.38 896.45 459.42 896.41 448.89 833.98 448.89" style="fill:#c4c7c9;" />
							<polygon points="834.5 470.07 834.46 480.57 938 480.64 937.79 470.43 834.5 470.07" style="fill:#c4c7c9;" />
						</g>
						<g>
							<polygon points="836.11 335.71 834.57 425.51 926.18 424.93 927.37 335.22 836.11 335.71" style="fill:#fbbf1f;" />
							<g style="clip-path:url(#d);">
								<path d="M870.74,431.74l-9.12-34.69s3.04-43.3,3.04-46.59,8.1-7.6,8.61,.51c.51,8.1,.76,23.04,.76,23.04,0,0,7.09-1.01,10.63,1.27s7.85,1.27,11.39,3.29c3.54,2.03,8.1,2.79,10.13,5.32s0,24.31-1.27,29.37-4.81,15.95-4.81,15.95c0,0-28.61,2.53-29.37,2.53h.01Z" style="fill:#ffed00;" />
							</g>
						</g>
					</g>
					<g>
						<path d="M125.78,40.87s1.03,24.82,2.07,32.06c1.03,7.24,3.1,11.37,21.72,12.41,18.61,1.03,563.57,3.1,585.28,3.1s33.09-7.24,34.12-16.55c1.03-9.31,1.03-27.92,1.03-27.92l-644.23-3.1h0Z" style="fill:#ffed00;" />
						<g style="clip-path:url(#e);">
							<polygon points="103.36 56.44 826.17 59.54 821 4.73 101.29 8.87 103.36 56.44" style="fill:#f1f1f3;" />
						</g>
					</g>
					<g>
						<path d="M1062.58,40.87s1.03,24.82,2.07,32.06c1.03,7.24,3.1,11.37,21.72,12.41,18.61,1.03,563.57,3.1,585.28,3.1s33.09-7.24,34.12-16.55c1.03-9.31,1.03-27.92,1.03-27.92l-644.23-3.1h.01Z" style="fill:#ffed00;" />
						<g style="clip-path:url(#f);">
							<polygon points="1038.8 60.52 1761.62 63.62 1756.44 8.81 1036.73 12.95 1038.8 60.52" style="fill:#f1f1f3;" />
						</g>
					</g>
					<g>
						<path d="M1002.25,839.56c-2.64,13.55-9.92,66.11-18.58,79.17-8.66,13.05-34.08,26.19-34.08,26.19l-2.78-9.92s23.96-12.12,32.34-25.64c4.12-6.64,11.75-61.38,13.38-74.79s-4.63-21.91-12.36-23.28c-5.99-1.06-22.92-.88-22.92-.88l-1.06-8.78s19.02-1.12,28.44,.84c10.8,2.25,20.53,22.15,17.62,37.1h0Z" style="fill:#e37a37;" />
						<path d="M954.96,786.81s5.74-18.41,0-21.61c-5.55-3.1-25.97-6.12-29.22-1.57-3.26,4.55-6.34,16.56-6.34,16.56l9.62,2.09s-.74-14.8,1.29-15.46c4.43-1.44,19.29,1.07,21.1,2.38,1.82,1.3-3.86,17.24-3.86,17.24l7.4,.39v-.02Z" style="fill:#7b408e;" />
						<g>
							<path d="M973.96,801.87c2.79,9.53,2.8,58.55,1.64,69s-7.88,75.9-19.99,89.66c-3.21,3.64-30.41,2.65-42.47,.48-12.06-2.17-53.8-17.06-59.66-23.29-6.77-7.19,10.11-114.01,12.42-123.77s7.37-9.71,9.96-14.87,4.5-20.3,20.93-21.74c16.43-1.43,42.76,2.77,52.14,4.26s23.55,15.22,25.03,20.27h0Z" style="fill:#e37a37;" />
							<g style="clip-path:url(#g);">
								<g>
									<path d="M866.9,801.02s7.67-1.06,31.36,1.73,29.32,12.5,31.16,25.51c1.84,13.01-16.07,137.94-16.07,137.94l5.62-.61s16.76-119.29,14.96-140.78-22.83-24.9-35.34-26.24-32.48-2.89-32.48-2.89l.78,5.34h.01Z" style="fill:#f5ac7b;" />
									<path d="M967.11,921.48s-37.18-6.45-44.58-7.71c-13.43-2.28-26.62-4.14-49.2-11.78-22.58-7.65-29.56-14.89-29.56-14.89l-6.73,53.37,122.15,40.77,7.91-59.76h.01Z" style="fill:none;" />
								</g>
							</g>
						</g>
					</g>
					<g>
						<polygon points="1018.27 864.57 1016.65 960.16 1817.3 959.76 1816.7 844.31 1018.27 864.57" style="fill:#54535e;" />
						<polygon points="985.91 193.65 994.87 917.18 1839.93 914.21 1837.54 196.49 985.91 193.65" style="fill:#f1f1f3;" />
						<polygon points="1004.04 216.96 1007.55 886.48 1156.92 886.48 1155.39 218.28 1004.04 216.96" style="fill:#75c6cf;" />
						<polygon points="1175.94 218.72 1179.43 885.61 1331.11 888.24 1328.82 216.96 1175.94 218.72" style="fill:#ffed00;" />
						<polygon points="1343.41 218.72 1346.92 888.24 1496.29 888.24 1496.29 216.96 1343.41 218.72" style="fill:#2da4bd;" />
						<polygon points="1508.06 218.72 1511.58 888.24 1660.94 888.24 1660.94 216.96 1508.06 218.72" style="fill:#b591be;" />
						<polygon points="1673.16 220.31 1675.53 882.97 1824.9 882.97 1826.04 218.55 1673.16 220.31" style="fill:#70a25e;" />
						<g>
							<path d="M1187.09,579.26l-4.13-.11c0-.12,.25-11.83,.32-14.55,.08-2.94,1.33-5.93,3.36-7.99,1.55-1.57,4.28-3.38,8.55-3.06,6.19,.45,9.9,4.45,10.46,11.27,.33,4,.23,13.54,.22,13.94l-4.13-.06c0-.1,.1-9.7-.21-13.46-.37-4.53-2.47-6.78-6.61-7.08-2.23-.16-4.13,.48-5.5,1.87-1.43,1.45-1.98,3.39-2.01,4.71-.07,2.7-.32,14.4-.32,14.52h0Z" style="fill:#70847a;" />
							<polygon points="1180.44 574.68 1180.12 599.94 1207.97 600.05 1208.07 575.27 1180.44 574.68" style="fill:#3fa25a;" />
						</g>
						<g>
							<path d="M1685.46,575.64l-4.31-.1c0-.11,.26-11.06,.33-13.6,.08-2.75,1.39-5.54,3.51-7.47,1.61-1.47,4.47-3.15,8.92-2.86,6.46,.42,10.34,4.16,10.91,10.53,.34,3.74,.24,12.65,.23,13.03l-4.31-.05c0-.09,.11-9.06-.21-12.58-.38-4.23-2.58-6.33-6.9-6.62-2.33-.15-4.31,.45-5.74,1.75-1.49,1.36-2.06,3.16-2.1,4.4-.07,2.53-.33,13.46-.33,13.57h0Z" style="fill:#cdc3b0;" />
							<polygon points="1678.51 571.36 1678.18 594.96 1707.24 595.08 1707.35 571.91 1678.51 571.36" style="fill:#32343c;" />
						</g>
						<g>
							<path d="M1044.18,581.03l-4.27,.33c0-.12-.95-12.31-1.6-16.61-1.08-7.15-6.16-6.8-7.83-6.68-5.66,.39-6.87,5.12-6.72,7.86,.16,2.78,1.67,15.21,1.69,15.33l-4.25,.52c-.06-.52-1.55-12.69-1.71-15.61-.45-7.96,5.22-11.99,10.7-12.37,6.79-.47,11.29,3.29,12.36,10.32,.67,4.46,1.6,16.41,1.64,16.92h-.01Z" style="fill:#ffed00;" />
							<polygon points="1018.6 578.36 1021.9 607.27 1049.44 604.12 1045.76 575.67 1018.6 578.36" style="fill:#7e897b;" />
						</g>
						<g>
							<path d="M1372.05,584.75l-4.16-1c.03-.12,2.88-12,3.59-16.3,1.17-7.14-3.77-8.36-5.39-8.77-5.5-1.37-8.12,2.76-8.81,5.41-.71,2.69-3.09,14.98-3.11,15.11l-4.2-.81c.1-.51,2.43-12.55,3.17-15.38,2.02-7.71,8.65-9.81,13.99-8.48,6.61,1.64,9.73,6.6,8.58,13.62-.73,4.45-3.53,16.11-3.65,16.6h0Z" style="fill:#cdc3b0;" />
							<polygon points="1348.54 574.34 1342.78 602.87 1369.95 608.34 1375.2 580.14 1348.54 574.34" style="fill:#ffed00;" />
						</g>
						<g>
							<path d="M1535.01,579.32l-3.44-.59c.02-.1,1.68-9.92,2.02-13.45,.56-5.87-3.52-6.59-4.86-6.83-4.55-.81-6.45,2.69-6.87,4.88-.43,2.23-1.69,12.35-1.7,12.46l-3.46-.43c.05-.42,1.29-10.34,1.73-12.68,1.22-6.38,6.49-8.45,10.91-7.66,5.46,.97,8.28,4.84,7.73,10.6-.35,3.66-1.98,13.29-2.05,13.7h-.01Z" style="fill:#c4c7c9;" />
							<polygon points="1515.33 572.15 1512.21 595.66 1534.61 598.62 1537.33 575.4 1515.33 572.15" style="fill:#c4c7c9;" />
						</g>
						<path d="M1031.45,551.56c-5.29-.85-9.07,2.29-9.89,6.04s.68,8.85,5.74,10.06c5.06,1.21,9.88-2.68,10.52-6.47s-1.08-8.78-6.37-9.63Z" style="fill:#54535e;" />
						<path d="M1196.02,551.56c-5.29-.85-9.07,2.29-9.89,6.04-.82,3.75,.68,8.85,5.74,10.06,5.06,1.21,9.88-2.68,10.52-6.47s-1.08-8.78-6.37-9.63Z" style="fill:#54535e;" />
						<path d="M1366.23,551.56c-5.29-.85-9.07,2.29-9.89,6.04-.82,3.75,.68,8.85,5.74,10.06,5.06,1.21,9.88-2.68,10.52-6.47s-1.08-8.78-6.37-9.63Z" style="fill:#54535e;" />
						<path d="M1532.21,551.56c-5.29-.85-9.07,2.29-9.89,6.04-.82,3.75,.68,8.85,5.74,10.06,5.06,1.21,9.88-2.68,10.52-6.47s-1.08-8.78-6.37-9.63Z" style="fill:#54535e;" />
						<path d="M1695.36,551.56c-5.29-.85-9.07,2.29-9.89,6.04-.82,3.75,.68,8.85,5.74,10.06,5.06,1.21,9.88-2.68,10.52-6.47s-1.08-8.78-6.37-9.63Z" style="fill:#54535e;" />
					</g>
				</g>
			</g>
		</g>
	</g>
	<g id="h">
		<g>
			<g>
				<path d="M1150.33,937.02s-4.27,19.54-.61,27.78c3.66,8.24,9.16,23.81,9.16,23.81l-31.44-4.58s-3.19-5.25-2.34-12.56,6.13-23.87,6.13-23.87l2.55-14.44,16.55,3.87h0Z" style="fill:#b39a4f;" />
				<g>
					<path d="M1145.85,963.79c-8.32,.32-17.21,10.49-18.71,10.83-4.08,.92-.54-6.83-1.71-7.07-1.17-.24-3.39,8.43-4.41,16.08s-1.53,11.05-.17,12.07,13.59,6.63,14.95,10.71,4.42,15.12,17.5,16.31,23.79-.51,24.47-4.59c.68-4.08,1.53-11.9-1.53-15.8-3.06-3.91-9.69-7.65-13.42-14.78-3.74-7.14-7.63-15.9-8.9-18.36-1.38-2.67-3.66-5.55-8.08-5.38v-.02Z" style="fill:#497125;" />
					<g style="clip-path:url(#i);">
						<path d="M1184.58,1006.4s-8.67,7.82-23.96,6.46c-15.29-1.36-20.9-5.44-23.62-10.54s-6.12-9.69-9.18-12.58-9.52-9.01-9.52-9.01l-.17,26.51s34.67,33.48,35.52,33.48,42.48-16.48,42.48-16.48l-11.56-17.84h.01Z" style="fill:#8f9e69;" />
					</g>
				</g>
				<path d="M1132.42,984.48l-4.14-6.55s13-11.41,20.28-10.61c4.56,.5,12.34,8.27,13.55,9.64,1.72,1.94,2.7,7.59-.8,5.09-4.12-2.95-5.78-7.93-12.41-7.08-11.21,1.44-16.48,9.52-16.48,9.52h0Z" style="fill:#8cb717;" />
			</g>
			<g>
				<path d="M1068.59,915.95s-8.56,41.42-8.05,47.2,1.85,8.57,1.85,8.57l-3.57,17.67-35.13-15.94s14.23-8.34,14.74-12.93c.51-4.59,5.58-45,5.58-45l24.58,.44h0Z" style="fill:#b39a4f;" />
				<g>
					<path d="M1060.35,965.77c1.28-.33,3.11,11.65,4.08,15.97,1.8,8.05,.34,15.46-.17,16.99-.51,1.53-18.52,2.21-28.89,7.65s-20.56,7.99-32.46,7.99-20.39-4.59-21.24-7.14-2.89-10.03,1.19-12.24c4.08-2.21,18.18-6.8,24.13-10.37s23.39-24.9,32.73-19.97c9.35,4.93,10.43,16.74,15.87,14.19s3.47-12.75,4.76-13.08h0Z" style="fill:#497125;" />
					<g style="clip-path:url(#j);">
						<path d="M1067.66,984.12s-1.02,6.29-18.35,9.69-23.28,8.84-33.99,10.54c-10.71,1.7-22.05,.64-26.8-1.4-4.76-2.04-10.07-8.96-10.07-8.96l-4.42,30.93s96.18-4.59,96.52-5.1,5.95-24.47,5.44-24.64-8.33-11.05-8.33-11.05h0Z" style="fill:#8f9e69;" />
					</g>
				</g>
				<path d="M1046.91,982.69l-7.73,3.96s-10.36-13.42-13.33-14.88c-2.8-1.37-4.15-.87-4.15-.87l7.24-5.6s5.02-.39,9.47,4.93c4.44,5.31,8.5,12.46,8.5,12.46h0Z" style="fill:#8cb717;" />
			</g>
		</g>
		<path d="M1147.14,638.59s5.22,71.41,1.68,105c-3.41,32.39-.34,68.37,.85,83.54,1.62,20.63,6.47,63.36,4.95,85.91s-3.28,46.34-3.28,46.34c0,0-4.94,2.87-14.77,2.31s-15.77-3.65-15.77-3.65c0,0-2.81-24.76-5.62-53.92-1.92-19.95-3.83-45.79-4.82-52-2.55-15.96-6.87-33.27-10.55-57.18-2.8-18.18-12.37-56.36-12.37-56.36,0,0-6.38,57.71-8,78.54-1.62,20.83,.2,40.97-.7,65.19-1.04,28.01-14.96,76.82-14.96,76.82,0,0-10.76,1.86-18.9,.63-8.14-1.24-12.97-4.97-12.97-4.97,0,0,5.92-49,7.08-65.15,1.29-18.13-4.2-67.37-4.71-85.84-.83-29.7-4.65-54.35-3.09-83.22,1.18-21.82-4.58-53.47-4.58-53.47,0,0,118.85-27.84,120.54-28.52h-.01Z" style="fill:#f1f1f3;" />
		<g>
			<path d="M1065.17,385.73c-29.46,6.17-31.89,28.37-30.77,46.83,1.13,18.46,10.12,28.96,14.25,41.87s3.57,46.11,3.57,46.11l9.65-.32s5.61-20.65,5.02-29.82c-.78-12.27-6.84-30.03-6.84-30.03l45.15-15.76s2.36,17.19,7.81,29.39c5.45,12.2,12.19,22.58,12.19,22.58l14.06-3.8s-.7-4.71-7.44-16.66c-5.2-9.23-10.28-20.07-14.15-36.72-1.49-6.44-3.57-29.43-12.4-41.59-7.82-10.76-21.17-16.04-40.11-12.07h0Z" style="fill:#394a35;" />
			<g style="clip-path:url(#k);">
				<polygon points="1068.26 407.6 1062.02 382.46 1063.3 381.95 1069.83 406.89 1068.26 407.6" style="fill:#d6993f;" />
			</g>
		</g>
		<path d="M1068.45,406.07s-1.42,3.58-9.18,11.37c-9.5,9.54-12.71,9.62-12.36,22.66,.34,12.79,2.54,15.06,2.54,15.06,0,0-10.7-4.06-11.74,1.02s9.52,13.91,12.16,14.09,4.74-.85,4.74-.85c0,0,2.97,9.26,10.72,12.43,7.75,3.17,14.26,8.53,20.36,6.13s19.96-12.4,21.17-16.54c1.21-4.14,2.98-14.24,2.98-14.24,0,0,4.39,.84,5.92-3.35s5.92-19.67,.7-19.71c-5.23-.04-7.82,5.21-7.82,5.21,0,0-2.53-4.45-8.27-15.53-3.93-7.59-5.68-8.08-17.69-11.92-8.99-2.87-13.18-5.75-14.25-5.82h.02Z" style="fill:#d6993f;" />
		<path d="M1060.48,459.26s8.52,25.69,4.66,31.59c-8,12.23-26.5,18.52-26.5,18.52l35.33,32.12,28.27-.96,26.02-36.3s-19.43-5.31-21.04-13.66,.16-30.34,.16-30.34l-46.9-.96h0Z" style="fill:#d6993f;" />
		<g>
			<polygon points="1053.94 444.58 1059.8 445.73 1059.99 442.83 1053.75 442.71 1053.94 444.58" style="fill:#006443;" />
			<path d="M1061.33,440.34c-2.5,.64-3.83,2.78-3.11,5.21s2.58,3.02,4.86,2.58c2.7-.51,3.74-2.16,3.25-4.74-.35-1.82-2.42-3.72-4.99-3.06h-.01Z" style="fill:#006443;" />
		</g>
		<g>
			<polygon points="1096.33 436.51 1091.55 440.07 1090.13 437.54 1095.7 434.74 1096.33 436.51" style="fill:#006443;" />
			<path d="M1087.84,435.88c2.54-.5,4.66,.86,5.05,3.36s-1.02,3.83-3.27,4.43c-2.65,.7-4.31-.34-4.97-2.87-.47-1.79,.57-4.4,3.19-4.92h0Z" style="fill:#006443;" />
		</g>
		<path d="M1081.01,432.73s8.93-6.32,11.3-6.53,4.62,1.25,4.62,1.25l.09,1.74s-3.09-1.31-5.55,.89c-2.45,2.19-8.82,6.96-8.82,6.96l-1.65-4.3h.01Z" style="fill:#394a35;" />
		<path d="M1065.89,435.92s-9.36-2.22-11.66-1.59-4.96,2.54-4.96,2.54l.69,1.78s3.35-2.17,6.41-.97,9.48,2.86,9.48,2.86l.05-4.61h-.01Z" style="fill:#394a35;" />
		<path d="M955.18,542.3c5.07,.15,7.79,2.54,13.01,9.11,5.22,6.56,17.57,27.11,22.03,32.95,4.46,5.84,20.19,24.32,20.57,30.69,.37,6.37-3.51,21.75-12.98,20.03-9.46-1.73-21.23-23.04-25.46-34.13-4.23-11.08-13.56-37.75-15.9-36.97-2.35,.78-15.69,1.97-19.84,1.55s-16.39-3.5-19.49-3.58-17.64-6.23-17.64-6.23c0,0,.51-3.5,5.25-3.85,2.29-.17,9.2,2.58,15.79,1.95,7.08-.68,12.04-3.19,11.75-4.05-.56-1.66-9.64-2.6-13.03-4.81-5.25-3.42-1.81-7.01,2.31-6.18s12.6,2.76,15.94,3.66c5.54,1.49,9.1-.38,17.68-.13h0Z" style="fill:#d6993f;" />
		<path d="M1164.9,680.96s4.42,12.06,3.41,19c-.56,3.84-2.47,17.93-.8,23.13,1.66,5.2,8.09,20.38,8.09,20.38,0,0,2.57-.78,3.15-4.38,.46-2.82-3.72-11.63-2.21-11.91,1.5-.28,7.03,16.38,7.03,16.38,0,0-4.29,1.78-4.97,4.97-.68,3.19,.61,4.02,.61,4.02,0,0,10.01-5.89,11.7-6.83s6.32-13.65,6.68-17.31c.36-3.66-3.27-10.48-3.9-12.88-.62-2.4-5.91-13.77-6.94-19.53s-2.95-25.92-2.95-25.92l-18.9,10.88h0Z" style="fill:#d6993f;" />
		<g>
			<path d="M1187.24,671.87s5.4-6.2,6.7-18c1.29-11.8-6.9-35.68-15.99-65.5s-15.34-78.85-30.2-87.64c-5.94-3.51-12.19-1.5-17.37-1.6-11.4-.23-16.6-1.29-16.6-1.29,0,0-6.85,6.19-29.93,7.13-22.36,.91-30.87-5.14-30.87-5.14,0,0-12.86,4.95-20.42,7.3-7.35,2.29-13.87,4.31-19.5,14.67-6.27,11.53-12.41,64.25-12.41,64.25l-14.61-16.37-10.09-12.63-16.77,13.83,5.82,11.15s-4.96,11.04,1.67,23.95c5.64,10.99,37.87,36.8,49.94,41.23,8.5,3.11,11.8-5.03,11.81-4.44,.67,38.61-8.96,49.76-9.95,56.24-2.7,17.65,11.81,21.69,11.81,21.69,0,0,27.96-6.77,51.37-5.05,23.41,1.72,70.4,9.36,70.4,9.36,0,0,9.67,.35,10.36-12.49,.66-12.33-.47-28.31-.53-32.55,2.16,6.37,5.4,15.55,5.4,15.55l20.23-5.67-.27-17.97h0Z" style="fill:#c280b1;" />
			<g style="clip-path:url(#l);">
				<g>
					<polygon points="959.8 586.38 988.8 564.17 973.99 547.8 940.18 576.57 959.8 586.38" style="fill:#eb6a36;" />
					<polygon points="1162.58 682.03 1189.33 672.05 1200.58 694.74 1163.85 702.75 1162.58 682.03" style="fill:#eb6a36;" />
					<path d="M1038.59,566.47s29.39-6.09,46.02-7.85c16.63-1.75,53.55-5.36,53.55-5.36l4.06,21.34s-36.57,4.06-55.88,7.11c-15.43,2.44-47.75,6.1-47.75,6.1,0,0,.88-20.9,0-21.34h0Z" style="fill:none;" />
					<path d="M1031.02,490.19s20.81,23.41,59.27,19.68c37.64-3.65,46.63-23.6,46.63-23.6,0,0-51.82-18.87-52.94-18.49-1.12,.37-52.96,22.42-52.96,22.42h0Z" style="fill:#eb6a36;" />
				</g>
			</g>
		</g>
		<path d="M1076.4,465.12c2.45-.69,4.9-1.19,4.9-1.19,0,0,2.52-.99,5.57-.93,3.11,.07,5.34,2.76,5.54,4.26,.31,2.33-.8,3.88-1.68,4.66-.88,.77-1.81,2.29-6.57,3.15-4.22,.76-6.85,.28-8.47-.1-2.08-.5-2.75-1.72-2.95-3.47-.19-1.6,1.33-5.72,3.66-6.38h0Zm1.84,5.48c.27,.65,2.46-.02,4.47-.48,2-.46,3.94-.69,3.85-1.99-.05-.69-3.08-.66-4.88-.26-1.48,.33-3.76,1.96-3.43,2.73h0Z" style="fill:#f5aa74;" />
		<path d="M1117.11,482.43s5.97,11,9.42,17.45c2.47,4.61,7.74,7.83,7.74,7.83l.65,4.55s-3.12,4.99-1.59,14.05c1.04,6.1,7.09,23.19,7.09,23.19,0,0,13.06-12.05,9.6-24.3-1.97-6.97-6.77-15.02-6.77-15.02l-1.17-4.94s1.98-2.01-.3-7.88c-4.23-10.92-9.11-19.32-9.11-19.32l-15.55,4.4h0Z" style="fill:#394a35;" />
		<polygon points="1134.08 507.49 1135.13 511.8 1143.11 509.84 1142.17 505.13 1134.08 507.49" style="fill:#e41c80;" />
	</g>
</svg>
