<?xml version="1.0" encoding="UTF-8"?>
<svg xmlns="http://www.w3.org/2000/svg" xmlns:xlink="http://www.w3.org/1999/xlink" viewBox="0 0 1920 1080">
	<defs>
		<style>
			.g{fill:none;}.h{fill:#009794;}.i{fill:#f19eb0;}.j{fill:#f2974a;}.k{fill:#e64427;}.l{fill:#ef833b;}.m{fill:#e9b800;}.n{fill:#ef875c;}.o{fill:#ffe01c;}.p{fill:#ffea97;}.q{fill:#f39843;}.r{fill:#f0f4f8;}.s{fill:#f1f1f3;}.t{fill:#fbf8f6;}.u{fill:#00a39a;}.v{fill:#940c3b;}.w{fill:#8cbb15;}.x{fill:#bad1d0;}.y{fill:#a5ccdb;}.a`{fill:#cbe4e8;}.aa{fill:#d18850;}.ab{fill:#d29dc3;}.ac{fill:#d8e5df;}.ad{fill:#e30042;}.ae{fill:#428a3d;}.af{fill:#404b51;}.ag{fill:#444851;}.ah{fill:#1a4431;}.ai{fill:#54535e;}.aj{fill:#272a3e;}.ak{fill:#3b7c5e;}.al{fill:#49465a;}.am{fill:#75c6cf;}.an{fill:#4b6c52;}.ao{fill:#82b658;}.ap{clip-path:url(#c);}.aq{clip-path:url(#e);}.ar{clip-path:url(#d);}
		</style>
		<clipPath id="c">
			<rect width="1920" height="1080" style="fill:none;" />
		</clipPath>
		<clipPath id="d">
			<path d="M766.43,461.73c-.8,11.44-8.18,19.1-8.6,40.75-.55,27.72-.34,61.44-.34,61.44l33.83,1.17s-.3-34.8-1.94-60.82c-1.32-20.97-9.08-27.05-11.15-41.3-1.65-11.35-2.5-22.1-2.5-22.1l-8.04,.43s-.48,9.32-1.25,20.42h-.01Z" style="fill:none;" />
		</clipPath>
		<clipPath id="e">
			<polygon points="848.53 524.16 861.9 561.31 929.99 561.31 944.63 524.65 848.53 524.16" style="fill:none;" />
		</clipPath>
	</defs>
	<g id="a">
		<g id="b">
			<g style="clip-path:url(#c);">
				<g>
					<rect x="-185.71" y="-144.27" width="2325.36" height="1131.55" style="fill:#d8e5df;" />
					<rect x="-237.43" y="797.42" width="2433.77" height="676.64" style="fill:#bad1d0;" />
					<g>
						<g>
							<polygon points="696.96 507.7 696.16 549.61 745.35 550.27 745.03 508.36 696.96 507.7" style="fill:#fbf8f6;" />
							<polygon points="697.22 462.06 696.43 503.04 744.5 503.23 744.73 462.72 697.22 462.06" style="fill:#fbf8f6;" />
						</g>
						<g>
							<polygon points="798.63 508.1 798.94 550.02 749.75 550.29 750.55 508.38 798.63 508.1" style="fill:#fbf8f6;" />
							<polygon points="798.89 462.47 799.21 503.45 751.14 503.26 751.37 462.74 798.89 462.47" style="fill:#fbf8f6;" />
						</g>
						<g>
							<polygon points="804.15 508.13 803.35 550.04 852.54 550.7 852.22 508.79 804.15 508.13" style="fill:#fbf8f6;" />
							<polygon points="804.41 462.49 803.62 503.47 851.69 503.66 851.92 463.15 804.41 462.49" style="fill:#fbf8f6;" />
						</g>
						<g>
							<polygon points="905.82 508.53 906.13 550.45 856.94 550.72 857.74 508.81 905.82 508.53" style="fill:#fbf8f6;" />
							<polygon points="906.08 462.9 906.4 503.88 858.33 503.69 858.56 463.17 906.08 462.9" style="fill:#fbf8f6;" />
						</g>
						<g>
							<polygon points="911.34 508.56 910.54 550.47 959.73 551.13 959.41 509.22 911.34 508.56" style="fill:#fbf8f6;" />
							<polygon points="911.6 462.92 910.81 503.9 958.88 504.09 959.11 463.58 911.6 462.92" style="fill:#fbf8f6;" />
						</g>
						<g>
							<polygon points="1013.01 508.96 1013.33 550.88 964.13 551.15 964.93 509.24 1013.01 508.96" style="fill:#fbf8f6;" />
							<polygon points="1013.27 463.33 1013.59 504.31 965.52 504.12 965.75 463.6 1013.27 463.33" style="fill:#fbf8f6;" />
						</g>
						<g>
							<polygon points="1018.53 508.99 1017.73 550.9 1066.92 551.56 1066.6 509.65 1018.53 508.99" style="fill:#fbf8f6;" />
							<polygon points="1018.79 463.35 1018 504.33 1066.07 504.52 1066.3 464.01 1018.79 463.35" style="fill:#fbf8f6;" />
						</g>
						<g>
							<polygon points="1120.2 509.39 1120.52 551.31 1071.32 551.58 1072.12 509.67 1120.2 509.39" style="fill:#fbf8f6;" />
							<polygon points="1120.46 463.76 1120.78 504.74 1072.71 504.55 1072.94 464.03 1120.46 463.76" style="fill:#fbf8f6;" />
						</g>
						<g>
							<polygon points="1125.72 509.42 1124.92 551.33 1174.11 551.99 1173.79 510.07 1125.72 509.42" style="fill:#fbf8f6;" />
							<polygon points="1125.98 463.78 1125.19 504.76 1173.26 504.95 1173.49 464.44 1125.98 463.78" style="fill:#fbf8f6;" />
						</g>
						<g>
							<polygon points="1227.39 509.82 1227.71 551.74 1178.51 552.01 1179.31 510.1 1227.39 509.82" style="fill:#fbf8f6;" />
							<polygon points="1227.65 464.19 1227.97 505.17 1179.9 504.98 1180.13 464.46 1227.65 464.19" style="fill:#fbf8f6;" />
						</g>
						<g>
							<polygon points="1232.91 509.85 1232.11 551.76 1281.3 552.42 1280.98 510.5 1232.91 509.85" style="fill:#fbf8f6;" />
							<polygon points="1233.17 464.21 1232.38 505.19 1280.45 505.38 1280.68 464.87 1233.17 464.21" style="fill:#fbf8f6;" />
						</g>
						<g>
							<polygon points="1334.58 510.25 1334.9 552.17 1285.7 552.44 1286.5 510.53 1334.58 510.25" style="fill:#fbf8f6;" />
							<polygon points="1334.84 464.62 1335.16 505.6 1287.09 505.41 1287.32 464.89 1334.84 464.62" style="fill:#fbf8f6;" />
						</g>
						<g>
							<polygon points="1340.1 510.28 1339.3 552.19 1388.49 552.85 1388.17 510.93 1340.1 510.28" style="fill:#fbf8f6;" />
							<polygon points="1340.36 464.64 1339.57 505.62 1387.64 505.81 1387.87 465.3 1340.36 464.64" style="fill:#fbf8f6;" />
						</g>
						<g>
							<polygon points="1441.77 510.68 1442.09 552.6 1392.9 552.87 1393.69 510.96 1441.77 510.68" style="fill:#fbf8f6;" />
							<polygon points="1442.03 465.05 1442.36 506.03 1394.28 505.84 1394.51 465.32 1442.03 465.05" style="fill:#fbf8f6;" />
						</g>
						<g>
							<polygon points="1447.29 510.71 1446.49 552.62 1495.68 553.28 1495.36 511.36 1447.29 510.71" style="fill:#fbf8f6;" />
							<polygon points="1447.55 465.07 1446.76 506.05 1494.83 506.24 1495.06 465.73 1447.55 465.07" style="fill:#fbf8f6;" />
						</g>
						<g>
							<polygon points="1548.96 511.11 1549.28 553.03 1500.09 553.3 1500.89 511.39 1548.96 511.11" style="fill:#fbf8f6;" />
							<polygon points="1549.22 465.48 1549.55 506.46 1501.47 506.27 1501.71 465.75 1549.22 465.48" style="fill:#fbf8f6;" />
						</g>
						<polygon points="698.26 415.69 697.46 457.6 746.65 458.26 746.33 416.35 698.26 415.69" style="fill:#fbf8f6;" />
						<polygon points="799.93 416.1 800.25 458.01 751.05 458.28 751.85 416.37 799.93 416.1" style="fill:#fbf8f6;" />
						<polygon points="805.45 416.12 804.65 458.03 853.84 458.69 853.52 416.78 805.45 416.12" style="fill:#fbf8f6;" />
						<polygon points="907.12 416.53 907.44 458.44 858.24 458.71 859.04 416.8 907.12 416.53" style="fill:#fbf8f6;" />
						<polygon points="912.64 416.55 911.84 458.46 961.03 459.12 960.71 417.21 912.64 416.55" style="fill:#fbf8f6;" />
						<polygon points="1014.31 416.96 1014.63 458.87 965.44 459.14 966.23 417.23 1014.31 416.96" style="fill:#fbf8f6;" />
						<polygon points="1019.83 416.98 1019.03 458.89 1068.22 459.55 1067.9 417.64 1019.83 416.98" style="fill:#fbf8f6;" />
						<polygon points="1121.5 417.39 1121.82 459.3 1072.63 459.57 1073.42 417.66 1121.5 417.39" style="fill:#fbf8f6;" />
						<polygon points="1127.02 417.41 1126.22 459.32 1175.41 459.98 1175.09 418.07 1127.02 417.41" style="fill:#fbf8f6;" />
						<polygon points="1228.69 417.82 1229.01 459.73 1179.82 460 1180.62 418.09 1228.69 417.82" style="fill:#fbf8f6;" />
						<polygon points="1234.21 417.84 1233.41 459.75 1282.6 460.41 1282.28 418.5 1234.21 417.84" style="fill:#fbf8f6;" />
						<polygon points="1335.88 418.25 1336.2 460.16 1287.01 460.43 1287.81 418.52 1335.88 418.25" style="fill:#fbf8f6;" />
						<polygon points="1341.4 418.27 1340.61 460.18 1389.79 460.84 1389.47 418.93 1341.4 418.27" style="fill:#fbf8f6;" />
						<polygon points="1443.07 418.68 1443.39 460.59 1394.2 460.86 1395 418.95 1443.07 418.68" style="fill:#fbf8f6;" />
						<polygon points="1448.59 418.7 1447.8 460.61 1496.98 461.27 1496.66 419.36 1448.59 418.7" style="fill:#fbf8f6;" />
						<polygon points="1550.26 419.11 1550.58 461.02 1501.39 461.29 1502.19 419.38 1550.26 419.11" style="fill:#fbf8f6;" />
						<g>
							<polygon points="1604.6 510.25 1604.92 552.17 1555.73 552.44 1556.53 510.53 1604.6 510.25" style="fill:#fbf8f6;" />
							<polygon points="1604.86 464.62 1605.19 505.6 1557.12 505.41 1557.35 464.89 1604.86 464.62" style="fill:#fbf8f6;" />
						</g>
						<g>
							<polygon points="1610.12 510.28 1609.33 552.19 1658.51 552.85 1658.19 510.93 1610.12 510.28" style="fill:#fbf8f6;" />
							<polygon points="1610.39 464.64 1609.59 505.62 1657.67 505.81 1657.9 465.3 1610.39 464.64" style="fill:#fbf8f6;" />
						</g>
						<g>
							<polygon points="1711.79 510.68 1712.11 552.6 1662.92 552.87 1663.72 510.96 1711.79 510.68" style="fill:#fbf8f6;" />
							<polygon points="1712.05 465.05 1712.38 506.03 1664.31 505.84 1664.54 465.32 1712.05 465.05" style="fill:#fbf8f6;" />
						</g>
						<polygon points="1605.9 418.25 1606.22 460.16 1557.03 460.43 1557.83 418.52 1605.9 418.25" style="fill:#fbf8f6;" />
						<polygon points="1611.43 418.27 1610.63 460.18 1659.82 460.84 1659.5 418.93 1611.43 418.27" style="fill:#fbf8f6;" />
						<polygon points="1713.1 418.68 1713.41 460.59 1664.22 460.86 1665.02 418.95 1713.1 418.68" style="fill:#fbf8f6;" />
					</g>
					<g>
						<g>
							<polygon points="1720.44 510.49 1719.64 552.4 1768.83 553.06 1768.51 511.15 1720.44 510.49" style="fill:#fbf8f6;" />
							<polygon points="1720.7 464.85 1719.91 505.83 1767.98 506.02 1768.21 465.51 1720.7 464.85" style="fill:#fbf8f6;" />
						</g>
						<g>
							<polygon points="1822.11 510.9 1822.43 552.81 1773.24 553.08 1774.03 511.17 1822.11 510.9" style="fill:#fbf8f6;" />
							<polygon points="1822.37 465.26 1822.7 506.24 1774.62 506.05 1774.86 465.54 1822.37 465.26" style="fill:#fbf8f6;" />
						</g>
						<g>
							<polygon points="1827.63 510.92 1826.83 552.83 1876.02 553.49 1875.7 511.58 1827.63 510.92" style="fill:#fbf8f6;" />
							<polygon points="1827.89 465.28 1827.1 506.26 1875.17 506.45 1875.41 465.94 1827.89 465.28" style="fill:#fbf8f6;" />
						</g>
						<g>
							<polygon points="1929.3 511.33 1929.62 553.24 1880.43 553.51 1881.23 511.6 1929.3 511.33" style="fill:#fbf8f6;" />
							<polygon points="1929.56 465.69 1929.89 506.67 1881.81 506.48 1882.05 465.97 1929.56 465.69" style="fill:#fbf8f6;" />
						</g>
						<polygon points="1721.74 418.48 1720.95 460.39 1770.13 461.05 1769.81 419.14 1721.74 418.48" style="fill:#fbf8f6;" />
						<polygon points="1823.41 418.89 1823.73 460.8 1774.54 461.07 1775.34 419.16 1823.41 418.89" style="fill:#fbf8f6;" />
						<polygon points="1828.94 418.91 1828.14 460.82 1877.32 461.48 1877.01 419.57 1828.94 418.91" style="fill:#fbf8f6;" />
						<polygon points="1930.6 419.32 1930.92 461.23 1881.73 461.5 1882.53 419.59 1930.6 419.32" style="fill:#fbf8f6;" />
					</g>
					<polygon points="2132.04 938.34 2131.25 571 938.47 571.5 938.46 567.58 658 566.5 656.53 937.75 2132.04 938.34" style="fill:#fbf8f6;" />
					<g>
						<polygon points="690.15 585.39 689.76 658 928.99 661.76 928.6 587.25 690.15 585.39" style="fill:#ffe01c;" />
						<polygon points="690.34 664.95 927.63 668.07 928.4 735.01 691.12 733.78 690.34 664.95" style="fill:#ffe01c;" />
						<polygon points="690.73 740.27 928.41 741.5 928.79 805.91 689.95 804.68 690.73 740.27" style="fill:#ffe01c;" />
						<polygon points="689.78 810.01 690.17 875.05 928.97 876.58 928.97 811.36 689.78 810.01" style="fill:#ffe01c;" />
					</g>
					<g>
						<g>
							<path d="M766.43,461.73c-.8,11.44-8.18,19.1-8.6,40.75-.55,27.72-.34,61.44-.34,61.44l33.83,1.17s-.3-34.8-1.94-60.82c-1.32-20.97-9.08-27.05-11.15-41.3-1.65-11.35-2.5-22.1-2.5-22.1l-8.04,.43s-.48,9.32-1.25,20.42h-.01Z" style="fill:#e9b800;" />
							<g style="clip-path:url(#d);">
								<polygon points="751.51 509.99 773.87 509.81 774.44 540.9 751.88 540.74 751.51 509.99" style="fill:#ffea97;" />
							</g>
						</g>
						<path d="M766.43,452.81l.23-11.08c0-1.25,.86-2.25,1.95-2.27l5.97-.13c1.13-.02,2.08,1,2.12,2.28v11.14l-10.27,.06h0Z" style="fill:#940c3b;" />
					</g>
					<g>
						<path d="M794.42,471.75c-.97,10.04-8.47,16.8-9.23,35.79-.97,24.31-1.28,53.87-1.28,53.87l33.82,.82s.23-30.51-1.01-53.31c-1-18.38-8.67-23.67-10.52-36.14-1.48-9.94-2.17-19.36-2.17-19.36l-8.05,.43s-.62,8.18-1.56,17.92v-.02Z" style="fill:#3b7c5e;" />
						<path d="M794.85,463.69l.09-9.77c.02-1.09,.89-1.98,1.98-2.01l5.97-.15c1.13-.03,2.06,.86,2.09,1.99l.14,9.83-10.27,.12h0Z" style="fill:#e30042;" />
					</g>
					<path d="M771.2,293.73s1.12,3.55,3.66,9.18,7.13,11.11,7.13,11.11l68.45-3.33s3.58-6.78,4.81-11.95,1.93-11.75,1.93-11.75l-85.98,6.73h0Z" style="fill:#f19eb0;" />
					<path d="M771.13,304.38s.57,3.67,2.23,9.59c1.66,5.92,5.37,11.99,5.37,11.99l68.23,6.21s4.57-6.21,6.57-11.15,3.69-11.36,3.69-11.36l-86.08-5.28h0Z" style="fill:#428a3d;" />
					<path d="M771.53,323.94s.83,3.62,2.89,9.41,6.19,11.58,6.19,11.58l68.49,1.45s4.13-6.52,5.78-11.58c1.65-5.07,2.89-11.58,2.89-11.58l-86.24,.72h0Z" style="fill:#ef875c;" />
					<g>
						<polygon points="1310.35 879.66 1309.87 586.35 1133.87 588.06 1135.83 877.77 1310.35 879.66" style="fill:#82b658;" />
						<polygon points="950.76 588.8 949.36 875.56 1125.05 877.07 1125.59 586.56 950.76 588.8" style="fill:#82b658;" />
					</g>
					<g>
						<polygon points="789.58 610.46 789.58 616.37 829.17 616.53 829.17 610.64 789.58 610.46" style="fill:#49465a;" />
						<polygon points="789.58 693.35 789.58 699.26 829.17 699.42 829.17 693.52 789.58 693.35" style="fill:#49465a;" />
						<polygon points="1112.12 650.51 1117.58 650.47 1117.48 611.46 1112.04 611.49 1112.12 650.51" style="fill:#49465a;" />
						<polygon points="1141.84 648.51 1147.3 648.47 1147.2 609.46 1141.76 609.49 1141.84 648.51" style="fill:#49465a;" />
						<polygon points="789.58 767.82 789.58 773.73 829.17 773.89 829.17 767.99 789.58 767.82" style="fill:#49465a;" />
						<polygon points="787.38 836.46 787.38 843.03 831.36 843.2 831.36 836.66 787.38 836.46" style="fill:#49465a;" />
					</g>
					<g>
						<polygon points="848.53 524.16 861.9 561.31 929.99 561.31 944.63 524.65 848.53 524.16" style="fill:#009794;" />
						<g style="clip-path:url(#e);">
							<polygon points="845.3 528.79 948.26 529.39 950.49 491.82 841.29 490.63 845.3 528.79" style="fill:#8cbb15;" />
						</g>
					</g>
					<g>
						<polygon points="718.91 279.32 718.37 343.88 763.7 343.67 764.11 278.97 718.91 279.32" style="fill:#d29dc3;" />
						<g>
							<path d="M716.48,284.73l49.43,.35s.15-10.43,.06-11.61-1.57-1.61-2.71-1.61h-44.16c-1.15,.01-2.15,.46-2.36,1.75-.21,1.29-.26,11.11-.26,11.11h0Z" style="fill:#444851;" />
							<path d="M742.25,261.02c-4.98-.7-7.65,1.77-8.38,4.99-.77,3.38,.32,7.53,4.99,8.66,4.75,1.15,9.09-1.92,9.38-5.49,.27-3.41-1-7.47-5.98-8.16h-.01Z" style="fill:#444851;" />
						</g>
					</g>
					<g>
						<polygon points="1679.66 877.92 1681.22 583.59 1507.21 584.83 1505.14 876.03 1679.66 877.92" style="fill:#f39843;" />
						<polygon points="1321.76 585.09 1322.18 877.02 1500.25 878.01 1499.12 585.41 1321.76 585.09" style="fill:#f39843;" />
						<polygon points="1484.9 646.17 1490.36 646.13 1490.26 607.12 1484.82 607.15 1484.9 646.17" style="fill:#49465a;" />
						<polygon points="1518.06 645.54 1523.51 645.51 1523.41 606.49 1517.98 606.53 1518.06 645.54" style="fill:#49465a;" />
					</g>
					<g>
						<polygon points="2053.11 876.91 2052.63 583.59 1878.63 584.83 1878.59 875.02 2053.11 876.91" style="fill:#a5ccdb;" />
						<polygon points="1693.17 585.09 1695.62 873.97 1871.12 873.62 1870.54 585.41 1693.17 585.09" style="fill:#a5ccdb;" />
						<polygon points="1856.32 646.17 1861.78 646.13 1861.67 607.12 1856.24 607.15 1856.32 646.17" style="fill:#49465a;" />
						<polygon points="1889.47 645.54 1894.93 645.51 1894.83 606.49 1889.39 606.53 1889.47 645.54" style="fill:#49465a;" />
					</g>
					<g>
						<polygon points="1374.1 503.37 1377.34 565.99 1472.4 567.2 1478.45 499.99 1374.1 503.37" style="fill:#ef833b;" />
						<path d="M1367.34,508.98h115.31l-.61-12.42-49.1-7.02-.47-11.16c-.05-1.18-1.07-2.1-2.28-2.07l-7.62,.18c-1.12,.03-2.04,.85-2.17,1.92l-1.19,10.32-52.67,7.86,.8,12.39Z" style="fill:#e64427;" />
					</g>
					<g>
						<path d="M1195.01,566.54l-.29-34.54,13.93-.29,.29,11.03,16.25-.58s2.03,2.03,1.74,6.68c-.29,4.64-1.45,8.13-1.45,8.13l-16.54,.29,.29,9.87-14.22-.58h0Z" style="fill:#49465a;" />
						<polygon points="1219.68 545.83 1221.57 527.06 1224.25 527.38 1222.99 545.99 1219.68 545.83" style="fill:#49465a;" />
						<path d="M1198.23,533.21s-1.42-71.12-1.58-77.75c-.16-6.62,1.12-9.81,2.84-13.25,1.89-3.78,3.47-6.47,7.88-8.36,4.42-1.89,17.24-6.04,20.82-6.78,3.78-.79,8.97,.09,11.99,6.62,2.84,6.15,3.15,17.5,3.15,17.5l-8.04,.47s-.29-6.26-.47-8.2c-.47-5.05-2.21-9.46-4.42-9.3-3.19,.23-18.27,5.58-20.19,6.31-3.31,1.26-4.73,5.52-5.52,9.78-1.01,5.45,.79,84.05,.79,84.05l-7.25-1.1h0Z" style="fill:#49465a;" />
					</g>
					<polygon points="633.07 572.53 2029.25 572.79 2028.92 561.85 633.1 558.89 633.07 572.53" style="fill:#49465a;" />
					<polygon points="901.09 96.66 901.65 407.33 2003.58 410.05 2003.54 99.71 901.09 96.66" style="fill:#fbf8f6;" />
					<g>
						<polygon points="1305.9 396.35 1305.42 130.62 1131.38 129.68 1131.38 394.46 1305.9 396.35" style="fill:#a5ccdb;" />
						<polygon points="947.3 130.82 948.42 393.42 1123.85 393.82 1124.04 128.84 947.3 130.82" style="fill:#a5ccdb;" />
						<polygon points="1109.8 372.94 1115.26 372.9 1115.16 333.89 1109.72 333.92 1109.8 372.94" style="fill:#49465a;" />
						<polygon points="1137.46 372.31 1142.91 372.28 1142.81 333.26 1137.38 333.29 1137.46 372.31" style="fill:#49465a;" />
					</g>
					<g>
						<polygon points="1686.13 397.97 1685.66 132.24 1511.61 131.3 1511.61 396.08 1686.13 397.97" style="fill:#ffe01c;" />
						<polygon points="1322.29 131.78 1324.74 393.08 1502.82 394.07 1500.67 128.79 1322.29 131.78" style="fill:#ffe01c;" />
						<polygon points="1488.48 373.24 1493.94 373.2 1493.84 334.19 1488.4 334.22 1488.48 373.24" style="fill:#49465a;" />
						<polygon points="1519.58 372.61 1525.03 372.58 1524.93 333.56 1519.49 333.59 1519.58 372.61" style="fill:#49465a;" />
					</g>
					<g>
						<polygon points="2059.39 396.59 2058.91 130.85 1884.87 129.92 1884.87 394.7 2059.39 396.59" style="fill:#82b658;" />
						<polygon points="1697.48 131.37 1699.93 392.67 1878.01 393.66 1875.86 128.37 1697.48 131.37" style="fill:#82b658;" />
						<polygon points="1862.69 371.84 1868.15 371.81 1868.05 332.79 1862.61 332.82 1862.69 371.84" style="fill:#49465a;" />
						<polygon points="1893.78 371.22 1899.24 371.18 1899.14 332.16 1893.7 332.2 1893.78 371.22" style="fill:#49465a;" />
					</g>
					<polygon points="692.4 353.98 905.16 355.15 905.16 340.96 692.78 339.79 692.4 353.98" style="fill:#fbf8f6;" />
					<g>
						<polygon points="-38.91 -58.42 -37.57 398.8 355.31 397.28 355.31 -62.97 -38.91 -58.42" style="fill:#f0f4f8;" />
						<polygon points="-19.33 -38.73 -19.96 350.32 147.94 349.98 147.92 -35.8 -19.33 -38.73" style="fill:#cbe4e8;" />
						<polygon points="162.55 -38.73 161.92 350.32 329.82 349.98 329.8 -35.8 162.55 -38.73" style="fill:#cbe4e8;" />
					</g>
				</g>
			</g>
		</g>
	</g>
	<g id="f">
		<g>
			<path d="M968.34,946.03s5.33,15.6,3.42,23.59c-1.9,7.99-11.41,20.54-12.17,25.87s-.38,13.7-.38,13.7c0,0,16.36,2.28,25.87,1.9s23.21-1.14,23.21-1.14c0,0-1.14-17.12-1.14-23.21s1.14-10.65,0-16.74c-1.14-6.09-3.04-24.35-3.04-24.35l-35.76,.38h0Z" style="fill:#1a4431;" />
			<path d="M1070.92,942.03s1.63,7.22,.36,13.72-4.69,18.78-5.06,26-.54,11.38-.54,11.38l8.85,4.51,.36,9.39s16.79,2.89,27.45,1.81c10.65-1.08,21.67-2.71,21.67-2.71,0,0,.36-8.49-4.69-15.35-5.06-6.86-10.65-13.18-13.18-18.06s-5.78-27.45-5.78-27.45l-29.43-3.25h0Z" style="fill:#1a4431;" />
			<path d="M950.43,555.71s-8.83,62.7-9.71,94.49,7.06,121.87,7.06,137.77-2.65,71.97,2.21,103.32,16.69,75.33,16.69,75.33l42.75-1.58s-2.48-71.54-1.16-100.68-.44-64.91,1.32-88.75c1.77-23.84,17.03-95.72,17.03-95.72,0,0,16.09,73.21,22.71,92.63,6.62,19.43,7.51,77.27,10.6,112.16,3.09,34.88,4.93,78.65,4.93,78.65l40.55-1.38s14.13-53.87,14.57-98.47-6.18-106.42-6.18-136.44,4.42-73.74-3.53-113.92c-7.95-40.18-19.87-64.03-19.87-64.03l-139.97,6.62h0Z" style="fill:#4b6c52;" />
		</g>
		<g>
			<path d="M990.99,295.06s.7,29.38-3.12,35.11c-3.82,5.73-35.96,20.75-35.96,20.75l5.99,28.15,124.74-.32-6.59-26.1s-25.44-11.7-27.67-19.02c-2.23-7.32-.12-39.21-.12-39.21l-57.28,.64h.01Z" style="fill:#d18850;" />
			<path d="M999.69,204.28c-11.09,1.67-36.28,17.42-29.69,41.94,1.17,4.35,7.45,10.72,9.96,21.16,1.64,6.8,8.4,34.44,8.4,34.44l68.32-22.65s-.35-4.9,2.16-12.64c2.51-7.74,9.84-14.66,7.54-21.98-2.3-7.32-20.6-33.49-30.2-36.09-20.08-5.44-27.04,2.29-31.78,.9-5.02-1.46-1.18-5.6-4.7-5.07h-.01Z" style="fill:#54535e;" />
			<path d="M1018.18,232.43c-9.4,.77-15.26-2.41-21.19,.5-7.97,3.9-6.54,9.97-8.04,15.62-3.13,11.78-5.98,14.88-4.14,25.18,1.84,10.31,8.47,29.95,13.81,40.07,5.34,10.12,10.67,8.28,17.3,8.83s17.12,.37,21.53-6.81c4.42-7.18,13.43-22.08,14.91-32.39,1.47-10.31,.55-27.25-3.7-37.94-2.13-5.36-2.04-10.01-10.69-14.08-6.46-3.04-14.76,.61-19.8,1.02h0Z" style="fill:#d18850;" />
			<path d="M986.46,275.43s-6.77-2.93-11.19-.36c-4.42,2.58-.74,13.43,.92,18.59,1.66,5.15,3.5,6.07,6.07,5.71,2.58-.37,5.52-2.21,5.52-2.21l-1.33-21.73h0Z" style="fill:#d18850;" />
			<path d="M1054.48,272.91s3.68-3.86,8.1-1.29c4.42,2.58,.74,13.43-.92,18.59-1.66,5.15-3.5,6.07-6.07,5.71-2.58-.37-5.52-2.21-5.52-2.21l4.42-20.8h-.01Z" style="fill:#d18850;" />
			<path d="M1022.62,280.86c3.18,0,11.35,5.9,14.94,9.33,4.07,3.88,8.23,1.25,13.14-10.24,3.1-7.27,1.22-23.88,1.22-23.88l7.46-.88s-3.62,8.08-3.62,12.47-1.65,9.98-2.38,14.49c-.73,4.51,3.23,13.92,1.4,21.11s-10.64,16.23-15.15,22.32-12.8,7.28-19.14,7.03c-6.34-.24-15.79,1.24-21.76-7.41s-13.43-17.87-14.28-25.18,.07-16.84-1.48-26.9c-.93-6.03-.02-17.17,.23-17.53,.24-.37,4.19-1.43,4.19-1.43,0,0-1.98,9.26-1.73,13.28s.54,7.54,1.64,13.51,8.28,14.11,10.82,10.59c2.94-4.07,11.52-8.72,14.33-9.77,5.24-1.95,4.26,1.35,6.34,1.22,1.95-.12,1.65-2.13,3.84-2.13h0Zm-3.47,3.47c-2.55-.2-10.55,3.37-13.56,6.85-3.96,4.56-6.33,14.62-2,16.75,8.58,4.24,10.06-3.71,15.06-3.46,5,.24,7.26,7.33,13.72,2.63,6.15-4.47,1.77-13.33-.84-16.21-2.18-2.41-8.77-6.26-12.38-6.55h0Z" style="fill:#54535e;" />
			<path d="M1014.32,285.98c2.27-.69,3.07,.7,3.86,.6s1.48-1.58,4.43-.59c3.85,1.28,9.56,6.4,9.06,8.18-.49,1.77-8.05,7.4-13.08,7.6-5.02,.2-12.28-6.55-12.43-8.26-.2-2.27,5.89-6.83,8.15-7.52h0Zm-2.45,7c.21,.55,3.18,1.97,6.27,2.04,3.15,.07,6.83-1.19,6.93-1.78,.1-.59-3.25-2.53-6.6-2.63s-6.9,1.58-6.6,2.37h0Z" style="fill:#f2974a;" />
			<g>
				<path d="M1003.1,259.06c-1.91,.66-2.81,2.4-2.09,4.25,.72,1.84,2.19,2.18,3.94,1.7,2.06-.57,2.8-2.19,2.25-4.16-.38-1.39-2.14-2.47-4.1-1.79Z" style="fill:#272a3e;" />
				<polygon points="996.37 261.83 1008.91 259 1007.59 254.24 995.82 259.67 996.37 261.83" style="fill:#272a3e;" />
			</g>
			<path d="M1007.47,254.81s-3.69-2.48-7.76-2.33c-4.07,.16-9.33,3.71-9.33,3.71l-1.03-3.72s5.2-3.44,11.2-3.79c3.12-.19,8.33,1.51,8.33,1.51l-1.42,4.62h.01Z" style="fill:#272a3e;" />
			<g>
				<path d="M1032.96,259.92c1.91,.66,2.81,2.4,2.09,4.25-.72,1.84-2.19,2.18-3.94,1.7-2.06-.57-2.8-2.19-2.25-4.16,.38-1.39,2.14-2.47,4.1-1.79Z" style="fill:#272a3e;" />
				<polygon points="1039.81 262.57 1027.62 259.39 1028.4 254.66 1040.35 260.18 1039.81 262.57" style="fill:#272a3e;" />
			</g>
			<path d="M1028.53,255.82s3.21-3.08,7.24-3.62c4.04-.54,10.65,2.53,10.65,2.53l-.46-4.32s-5.71-2.49-11.68-1.82c-3.1,.35-8.37,2.83-8.37,2.83l2.6,4.39h.02Z" style="fill:#272a3e;" />
		</g>
		<g>
			<path d="M987.62,331.16s14.47,26.52,47.39,21.65c21.18-3.13,19.25-12.96,19.25-12.96,0,0,40.72,13.29,53.57,25.04s21.48,37.32,33.59,62.65,19.96,60.75,4.54,68.1c-15.42,7.34-45.52,7.23-45.52,7.23,0,0,1.64,42.08,4.17,66.62,2.72,26.33,5.25,39.39,5.25,39.39,0,0-20.6,12.7-83.74,10.5s-83.83-8.03-83.83-8.03c0,0-4.03-15.21-1.82-31.36,2.2-16.15,7.11-68.77,7.11-68.77,0,0-17.71,5.12-26.8-61.67-5.54-40.7-12.1-67.91,4.41-88.1,10.71-13.1,34.71-16.07,43.32-20.92,11.62-6.55,19.12-9.35,19.12-9.35v-.02Z" style="fill:#75c6cf;" />
			<path d="M1025.76,444.41c1.47,2.94,2.2,10.28,1.47,17.99s-3.99,10.67-3.99,10.67c0,0-6.12-.9-13.43-1.16-7.03-.24-15.5-2.87-20.28-4.89-9.54-4.04-8.72-18.33-8.72-18.33,0,0,6.75-2.89,12.99-1.42s9.57-.3,13.61-1.4,18.36-1.47,18.36-1.47h0Z" style="fill:#d18850;" />
			<path d="M1008.07,444.85s-1.85,6.97-2.14,11.44c-.25,3.75,1.74,17.49,1.74,17.49l12.55,1.14s-.36-13.89-.74-19.68c-.38-5.79,.59-11.85,.59-11.85l-12,1.46Z" style="fill:#00a39a;" />
			<path d="M1089.64,444.04s6.38-10.39,7.75-12.35,19.47-11.91,19.47-11.91c0,0,2.29,2.11,1.51,3.88-.78,1.76-2.16,3.72-2.16,3.72l10.19-3.92s2.91,1.77,1.19,3.81c-1.93,2.3-3.32,4.33-3.32,4.33l6.64-.89s1.57,3.53-.39,5.49-5.09,3.51-5.09,3.51c0,0,4.3,.81,4.3,2.18s-1.96,3.14-1.96,3.14c0,0-13.92-.39-22.74,.78-8.82,1.18-15.39-1.77-15.39-1.77h0Z" style="fill:#d18850;" />
			<g>
				<path d="M1013.96,446.24c-6.38-.1-10.05,4.42-10.21,9.62-.16,5.28,4.09,9.23,9.47,9,5.25-.22,9.3-4.65,9.51-9.45,.2-4.62-2.89-9.08-8.77-9.17h0Z" style="fill:#00a39a;" />
				<path d="M1013.87,448c-5.21-.06-8.21,3.62-8.37,7.87-.16,4.35,3.32,7.63,7.77,7.46,4.36-.17,7.71-3.85,7.86-7.83,.14-3.81-2.43-7.44-7.25-7.5h-.01Z" style="fill:#f1f1f3;" />
			</g>
			<polygon points="1008.86 456.66 1013.37 454.59 1019.64 457.85 1019.29 458.44 1013.4 455.41 1009.13 457.27 1008.86 456.66" style="fill:#404b51;" />
		</g>
	</g>
</svg>
