<svg xmlns="http://www.w3.org/2000/svg" viewBox="0 0 1920 1080">
	<defs>
		<clipPath id="uuid-0445830d-30f7-4913-971f-ad2a7a4f7197">
			<path class="uuid-8eb81d76-29cb-4d7e-8ccc-3d837d204e6e" d="M0 0h1920v1080H0z" />
		</clipPath>
		<clipPath id="uuid-1916b888-4716-4464-8e1a-843da6706d9d">
			<path class="uuid-dc641366-ebb1-4b75-a518-1c6a121220fb" d="m1400.75 435.1-293.41.5.04-203.29 290.24.81 3.13 201.98z" />
		</clipPath>
		<clipPath id="uuid-5bebf12b-2225-441d-b7c6-b99110af012a">
			<path class="uuid-ed434c65-93ab-4d73-822f-778f19ce1b48" d="m330.95 334.08 2.03 91.18 20.43.91-1.33-91.61-21.13-.48z" />
		</clipPath>
		<clipPath id="uuid-c1802e70-7933-4a34-bf6f-85fec129ea96">
			<path class="uuid-4754a86a-90d3-4c9b-9c3b-9da1ca1a650a" d="m138.2 396.59 142.24-.66.96 29.23-143.96 4.21.76-32.78z" />
		</clipPath>
		<clipPath id="uuid-6474f4c3-a00c-4772-8892-456a96548f9c">
			<path class="uuid-d26ebcdb-54a9-4468-827f-a9e3107e7ff1" d="m152.61 200.2.33 119.86s11.21 2.36 19.42 2.36 16.04-2.59 16.04-2.59l-1.55-120.15-34.23.52Z" />
		</clipPath>
		<clipPath id="uuid-e95cc03a-8069-4558-b981-8570ea17928b">
			<path class="uuid-141d24a3-c53d-49a9-988b-e7d63baa3596" d="m278.26 222.43.36 101.81s12.24 2 21.19 2c8.96 0 17.51-2.2 17.51-2.2l-1.7-102.06-37.37.44Z" />
		</clipPath>
		<clipPath id="uuid-f72bbdff-432d-445d-8bf7-e2b71e81057d">
			<path class="uuid-21730406-f33f-4809-b418-c510e7e79c14" d="m250.61 212.74.33 108.67s4.41 2.36 12.61 2.36 5.84-2.59 5.84-2.59l-1.55-108.96-17.23.52Z" />
		</clipPath>
		<clipPath id="uuid-d57a12de-a490-492b-96ae-59471a8a8063">
			<path class="uuid-26d2de8c-8215-4c92-a9ec-83dd9e0d91ff" d="m190.58 186.86-4.64 133.68s2.05 1.39 10.25 1.69c8.2.3 16.13-1.99 16.13-1.99l3.42-134.01-25.16.63Z" />
		</clipPath>
		<clipPath id="uuid-45584468-6696-4a59-88bd-6dfe01ee6370">
			<path class="uuid-ea5f2811-bf68-468a-88e3-591c6105ea88" d="m214.84 189 .41 133.76s5.21 2.36 14.91 2.36 18.96-2.59 18.96-2.59l-1.86-134.05-32.42.52Z" />
		</clipPath>
		<clipPath id="uuid-884890b7-f6ca-4d8b-808b-bdbb10944773">
			<path class="uuid-1bbdc473-6dd7-46f8-914e-c526a0625291" d="M389.58 341.1h11.96l1.14 81.76-11.39.57-1.71-82.33z" />
		</clipPath>
		<clipPath id="uuid-3906cdcc-c493-4281-a386-de4ef2e3dd96">
			<path class="uuid-3fd91ec0-a573-44e7-98b3-77297fdbc5d7" d="M1551.03 620.56c6.56 5.06.16 40.48-12.44 63.64-10.37 19.06-17.84 27.21-31.03 27.61-12.65.39-94.64-11.04-98.07-17.62-3.52-6.76.66-36.8 9.96-60.74 9.29-23.94 28.4-31.28 42.01-33.1 13.61-1.82 75.95 9.71 89.56 20.22Z" />
		</clipPath>
		<clipPath id="uuid-afad2595-2335-4d28-a78e-9166d23703fd">
			<path class="uuid-34d9f33c-6c6e-4fe4-96ef-02145e71e662" d="M1499.21 312.84s15.67 26.2 48.6 21.34c21.18-3.13 19.25-12.96 19.25-12.96s40.72 13.29 53.57 25.04c12.85 11.75 21.48 37.32 33.59 62.65 12.11 25.33 19.96 60.75 4.54 68.1-15.42 7.34-45.52 7.23-45.52 7.23s1.64 42.08 4.17 66.62c2.72 26.33 5.25 39.39 5.25 39.39s-20.6 12.7-83.74 10.5c-63.14-2.2-83.83-8.03-83.83-8.03s-4.03-15.21-1.82-31.36c2.2-16.15 7.11-68.77 7.11-68.77s-17.71 5.12-26.8-61.67c-5.54-40.7-12.1-67.91 4.41-88.1 10.71-13.1 34.71-16.07 43.32-20.92 11.62-6.55 17.92-9.04 17.92-9.04Z" />
		</clipPath>
		<style>
			.uuid-8eb81d76-29cb-4d7e-8ccc-3d837d204e6e{fill:none}.uuid-4754a86a-90d3-4c9b-9c3b-9da1ca1a650a{fill:#f39db3}.uuid-ed434c65-93ab-4d73-822f-778f19ce1b48{fill:#00869a}.uuid-c05d246e-b13e-4677-be85-a2aa20fb8dfc{fill:#f59e19}.uuid-ea5f2811-bf68-468a-88e3-591c6105ea88{fill:#eb5e30}.uuid-141d24a3-c53d-49a9-988b-e7d63baa3596{fill:#f3ca00}.uuid-34d9f33c-6c6e-4fe4-96ef-02145e71e662{fill:#00a18f}.uuid-d908aa05-fa74-4a39-b345-a21618030d43{fill:#be539a}.uuid-dc641366-ebb1-4b75-a518-1c6a121220fb{fill:#d7c4cb}.uuid-a2b11b9a-9fc7-40a2-9ea6-a46ca6e03536{fill:#c0c2c6}.uuid-3fd91ec0-a573-44e7-98b3-77297fdbc5d7{fill:#d39ac5}.uuid-37427b0c-4c0f-4e6d-bac3-ad3063d7ca6b{fill:#d28751}.uuid-a592a574-d5e9-4729-a627-4a6f329d2c5a{fill:#25382a}.uuid-21730406-f33f-4809-b418-c510e7e79c14{fill:#8abd24}.uuid-d84e31b5-c91b-4900-a337-6d32aa69096b{fill:#6d593b}.uuid-1bbdc473-6dd7-46f8-914e-c526a0625291{fill:#575563}.uuid-d26ebcdb-54a9-4468-827f-a9e3107e7ff1{fill:#3aa55f}.uuid-26d2de8c-8215-4c92-a9ec-83dd9e0d91ff{fill:#3a9bd6}.uuid-102da988-eae5-4cbd-8e30-f7f7d5509f1f{fill:#4d6e56}
		</style>
	</defs>
	<g style="clip-path:url(#uuid-0445830d-30f7-4913-971f-ad2a7a4f7197)" id="uuid-cb810bdf-1880-40f1-8b17-16c552817d62">
		<path style="fill:#fdf9ee" d="M-121.67-137.97h2137.5v1191.53h-2137.5z" />
		<path style="fill:#f1e3dc" d="M842.95 786.55 837.02 107l-324.43.44.8 681.29 329.56-2.18z" />
		<path style="fill:#e7ca7f" d="m816.66 128.43-282.3 1.02-1.74 682.86 289.14-2.06-5.1-681.82z" />
		<path style="fill:#e9eaec" d="m794.52 449.55-.27 68.07-23.07-.48 1.08-68.54 22.26.95z" />
		<path style="fill:#2f5354" d="m787.78 460.74-54.15.91-.53 7.05 54.68 4.97v-12.93z" />
		<path d="M791.66 495.23c0 4.11-2.15 8.38-8.32 8.83-6.17.44-10.09-3.65-9.89-8.93.19-4.9 3.53-8.43 9.59-8.37 5.68.06 8.62 4.14 8.62 8.47Z" style="fill:#33ad94" />
		<path style="fill:#00658e" d="m780.48 488.65 7.58 10.39-3.54 2.87-7.56-10.69 3.52-2.57z" />
		<path d="m1096.72 222.69 1.08 222.96 314.08-.56-3.29-220.94-.03-2.16-311.83.7Z" style="fill:#bba065" />
		<path class="uuid-dc641366-ebb1-4b75-a518-1c6a121220fb" d="m1400.75 435.1-293.41.5.04-203.29 290.24.81 3.13 201.98z" />
		<g style="clip-path:url(#uuid-1916b888-4716-4464-8e1a-843da6706d9d)">
			<path style="fill:#f8c1b6" d="m1080.32 464.14 332.38 2.53 2.27-257.36-332.38-2.53-2.27 257.36z" />
			<path class="uuid-8eb81d76-29cb-4d7e-8ccc-3d837d204e6e" d="M1171.06 347.53c21.98 0 35.72-4.47 45.75-9.95 9.96-5.44 16.86-10.9 28.96-17.03 12.9-6.52 43.37-7.94 67.99-7.61 38.72.52 295.05 1.28 295.05 1.28l-13.29 91.16-641.81 38.3-2.44-96.16h219.79Z" />
			<path d="M1782.51 450.42s-645.88-292.59-662.7-299.9c-16.82-7.29-40.04-18.78-47.69-4.32-7.89 14.91 6.71 22.26 17.06 30.76 4.82 3.96 13.18 11.19 6.91 23.19-6.72 12.86-20.49 11.08-40.36.09-21.59-11.93-904.36-423.87-904.36-423.87L120.03-127l1542.06 726.78 120.42-149.36Z" style="fill:#ef7d00" />
			<path d="M1770.98 566.3s-368.08-177.31-404.16-194.61c-36.08-17.3-62.97-33.25-72.27-19.52-6.69 9.88 1.39 15.05 21.58 32.19 8.13 6.9 11.54 15.53 7.68 22.63-5.72 10.52-17.11 11.3-38.73 1.06-41.52-19.66-648.06-302.58-648.06-302.58L513.13 361.41 1629.6 911.78l141.38-345.48Z" style="fill:#f39d99" />
		</g>
		<path style="fill:#d3dce4" d="M-233.98 753.54h2250.39v813.52H-233.98z" />
		<g>
			<path class="uuid-d84e31b5-c91b-4900-a337-6d32aa69096b" d="M1691.19 329.01c-10.98-1.54-17.26 3.44-18.88 10.54-1.69 7.44.69 16.6 10.99 19.09 10.47 2.53 20.02-4.24 20.66-12.1.6-7.51-1.8-15.98-12.77-17.52Z" />
			<path class="uuid-d84e31b5-c91b-4900-a337-6d32aa69096b" d="M1693.13 353.66c-16.35-2.29-25.71 5.12-28.12 15.69-2.51 11.08 1.03 24.72 16.37 28.43 15.6 3.77 29.82-6.31 30.77-18.03.89-11.18-2.67-23.8-19.02-26.1Z" />
			<path class="uuid-d84e31b5-c91b-4900-a337-6d32aa69096b" d="m1680.92 296.96 8.4 563.09 14.47-5.78-10.12-552.75-12.75-4.56z" />
			<path class="uuid-d84e31b5-c91b-4900-a337-6d32aa69096b" d="M1642.62 865.64s.52-13.02 3.11-18.45c3.32-6.96 11.69-9.81 25.86-10.94 14.64-1.17 37.61.02 46.31.02 13.26 0 24.54 1.98 26.52 11.48 1.84 8.84 2.77 16.62 2.77 16.62l-104.57 1.27Z" />
			<path style="fill:#ffd500" d="m1566.16 211.97-1.23 95.71 240.76-1.12-1.46-96.29-238.07 1.7z" />
		</g>
		<g>
			<path class="uuid-102da988-eae5-4cbd-8e30-f7f7d5509f1f" d="m1306.4 776.63-4.67 93.79-12.68-.77-8.35-90.55 25.7-2.47zM1536.26 773.72l5.99 98.23 13.9-.51 5.81-95.26-25.7-2.46z" />
			<path d="M1590.41 672.81c-.52-22.7-16.04-38.29-29.98-59.3-8.47-12.78 1.76-55.33 3.52-72.84 3.43-34.35 15.38-65.84-8.39-94.45-21.26-25.59-82.23-22.66-140.37-21.75-58.13-.91-100.91-9.24-123.45 25.53-16.58 25.58-13.32 45.3-6.05 97.98 3.34 24.21 16.03 54.12 7.79 65.53-16.42 22.76-34.33 36.6-34.85 59.3-.52 22.7 5.67 105.61 6.19 118.44.52 12.83 9.61 12.76 24.01 14.96 38.31 5.85 228.77 4.62 271.37 0 14.5-1.57 21.87-6.03 22.39-18.86.52-12.83 8.33-91.83 7.81-114.54Z" style="fill:#2dac93" />
			<path d="M1577.98 680.46c-4.99-12.47-26.41-17.1-43.22-21.58-15.25-4.06-39.43-4-101.36-3.94-61.92.06-103.71.17-119.04 3.94-22.5 5.54-38.37 9.49-43.22 21.58-2.75 6.86 0 18.82 0 33.51 0 14.69 1.08 29.02 12.53 30.86 11.46 1.84 159.1 3.31 159.58 3.29 27.6-.92 109.82-1.46 121.28-3.29 11.46-1.84 13.44-16.16 13.44-30.86 0-14.69 2.75-26.65 0-33.51Z" style="fill:#00a387" />
		</g>
		<g>
			<path class="uuid-ed434c65-93ab-4d73-822f-778f19ce1b48" d="m330.95 334.08 2.03 91.18 20.43.91-1.33-91.61-21.13-.48z" />
			<g style="clip-path:url(#uuid-5bebf12b-2225-441d-b7c6-b99110af012a)">
				<path style="fill:#bf318a" d="m325.15 403.48 33.22.54-2.01-9.66-34.57 1.35 3.36 7.77z" />
				<path style="fill:#8dabbf" d="m324.3 403.26 32.4-.27.47 29.18-36.73 1.08 3.86-29.99z" />
			</g>
			<path class="uuid-4754a86a-90d3-4c9b-9c3b-9da1ca1a650a" d="m138.2 396.59 142.24-.66.96 29.23-143.96 4.21.76-32.78z" />
			<g style="clip-path:url(#uuid-c1802e70-7933-4a34-bf6f-85fec129ea96)">
				<path style="fill:#ec6835" d="m180.46 433.1-1.78-42.42 45.07-.02L222 432.2l-41.54.9z" />
			</g>
			<path style="fill:#ef7b00" d="m357.07 343.24 1.39 80.08 30.96.31-2.38-79.93-29.97-.46z" />
			<path style="fill:#666019" d="m363.92 370.06 1.14 45.01 17.57.63-.24-45.35-18.47-.29z" />
			<path style="fill:#019996" d="m136.07 367.14 149.19-2.32.7 33.25H135.43l.64-30.93z" />
			<path style="fill:#008551" d="m209.58 392.17 56.42-.97-.63-20.13-56.3.66.51 20.44z" />
			<path class="uuid-d26ebcdb-54a9-4468-827f-a9e3107e7ff1" d="m152.61 200.2.33 119.86s11.21 2.36 19.42 2.36 16.04-2.59 16.04-2.59l-1.55-120.15-34.23.52Z" />
			<g style="clip-path:url(#uuid-6474f4c3-a00c-4772-8892-456a96548f9c)">
				<path style="fill:#e3007e" d="m147.8 228.22 41.63-1.04 1.55 66.95-43.69 1.03.51-66.94z" />
			</g>
			<path class="uuid-141d24a3-c53d-49a9-988b-e7d63baa3596" d="m278.26 222.43.36 101.81s12.24 2 21.19 2c8.96 0 17.51-2.2 17.51-2.2l-1.7-102.06-37.37.44Z" />
			<g style="clip-path:url(#uuid-e95cc03a-8069-4558-b981-8570ea17928b)">
				<path style="fill:#f08026" d="m272.38 274.3 45.44-.88 1.69 56.86-47.7.88.57-56.86z" />
			</g>
			<g>
				<path class="uuid-21730406-f33f-4809-b418-c510e7e79c14" d="m250.61 212.74.33 108.67s4.41 2.36 12.61 2.36 5.84-2.59 5.84-2.59l-1.55-108.96-17.23.52Z" />
				<g style="clip-path:url(#uuid-f72bbdff-432d-445d-8bf7-e2b71e81057d)">
					<path style="fill:#4c732b" d="m249.42 209.8 33.12-1.04 1.56 69.78-35.2 1.04.52-69.78z" />
				</g>
			</g>
			<g>
				<path class="uuid-26d2de8c-8215-4c92-a9ec-83dd9e0d91ff" d="m190.58 186.86-4.64 133.68s2.05 1.39 10.25 1.69c8.2.3 16.13-1.99 16.13-1.99l3.42-134.01-25.16.63Z" />
				<g style="clip-path:url(#uuid-d57a12de-a490-492b-96ae-59471a8a8063)">
					<path style="fill:#007baa" d="m185.35 203.7 33.91.59-.52 36.53-35.21-1.97 1.82-35.15z" />
				</g>
			</g>
			<g>
				<path class="uuid-ea5f2811-bf68-468a-88e3-591c6105ea88" d="m214.84 189 .41 133.76s5.21 2.36 14.91 2.36 18.96-2.59 18.96-2.59l-1.86-134.05-32.42.52Z" />
				<g style="clip-path:url(#uuid-45584468-6696-4a59-88bd-6dfe01ee6370)">
					<path style="fill:#e73446" d="m208.91 161.19 39.15-1.04 1.84 104.93-41.59 1.04.6-104.93z" />
					<path style="fill:#7e3f91" d="m213.45 99.96 39.14-1.04 1.85 104.93-41.59 1.04.6-104.93z" />
				</g>
			</g>
			<g>
				<path class="uuid-1bbdc473-6dd7-46f8-914e-c526a0625291" d="M389.58 341.1h11.96l1.14 81.76-11.39.57-1.71-82.33z" />
				<g style="clip-path:url(#uuid-884890b7-f6ca-4d8b-808b-bdbb10944773)">
					<path style="fill:#60b6b1" d="m387.47 354.5 16.8-.24.96 40.55-18 .24.24-40.55z" />
				</g>
			</g>
			<path d="m454.49 331.96.15-11.31-15.34-.02 1.47-141.12-13.58-1.13-.9 142.23-280.94-.45 1.46-140.64-13.58-1.13-.9 141.75-13.59-.02-1.34 10.17 14.86.07-.59 92.31-17.78.05-.26 10.45 17.98-.27-.47 73.42 12.27-.96.75-72.46 281.4.1-.47 73.32 12.27-.96.75-72.35h11.57l.09-11.31-11.55.04.94-89.84 15.3.08Zm-28.84 89.8-281.36.85.96-92.21 280.97 1.41-.57 89.95Z" style="fill:#ce8d5d" />
		</g>
		<g>
			<path class="uuid-3fd91ec0-a573-44e7-98b3-77297fdbc5d7" d="M1551.03 620.56c6.56 5.06.16 40.48-12.44 63.64-10.37 19.06-17.84 27.21-31.03 27.61-12.65.39-94.64-11.04-98.07-17.62-3.52-6.76.66-36.8 9.96-60.74 9.29-23.94 28.4-31.28 42.01-33.1 13.61-1.82 75.95 9.71 89.56 20.22Z" />
			<g style="clip-path:url(#uuid-3906cdcc-c493-4281-a386-de4ef2e3dd96)">
				<path class="uuid-d908aa05-fa74-4a39-b345-a21618030d43" d="M1391.81 742.9s28.96-.41 54.23-9.86c24.53-9.18 153.91-77.05 153.91-77.05l-1.08-8.38s-141.25 73.65-156.25 78.31c-14.53 4.51-45.37 7.51-45.37 7.51l-5.43 9.48ZM1392.75 762.63s29.65.43 55.56-8.71c25.18-8.88 158.32-76.22 158.32-76.22l-1.17-8.79s-145.29 73.04-160.68 77.47c-14.9 4.29-46.48 6.52-46.48 6.52l-5.55 9.73Z" />
				<path class="uuid-d908aa05-fa74-4a39-b345-a21618030d43" d="M1393 724.28s28.47-1.16 53.29-10.93c24.07-9.48 150.67-78.01 150.67-78.01l-1.04-8.03s-138.27 74.39-152.99 79.27c-14.27 4.73-44.59 8.42-44.59 8.42l-5.34 9.28ZM1397.06 701.77s28.11-2.04 52.55-12.21c23.68-9.85 147.87-79.4 147.87-79.4l-1.02-7.66s-135.7 75.53-150.19 80.68c-14.06 4.99-43.98 9.51-43.98 9.51l-5.23 9.08ZM1398.64 679.6s27.54-2.87 51.45-13.36c23.14-10.16 144.12-80.28 144.12-80.28l-.97-7.27s-132.26 76.2-146.42 81.57-43.06 10.5-43.06 10.5l-5.12 8.84ZM1400.99 658.22s27.06-3.63 50.51-14.43c22.67-10.44 140.88-81.12 140.88-81.12l-.93-6.92s-129.27 76.84-143.16 82.43c-13.49 5.42-42.28 11.42-42.28 11.42l-5.01 8.63ZM1414.42 633.23s27.38-4.56 50.98-15.89c22.81-10.95 141.4-83.66 141.4-83.66l-1.03-6.64s-129.71 79.08-143.7 85.01c-13.59 5.76-42.69 12.66-42.69 12.66l-4.95 8.52Z" />
			</g>
		</g>
		<path d="m1231.36 646.34-242.01-.62-.11 19.03h16.72l.06 207.05H1028l2.22-48.52 157.49.25 1.47 49.68 21.7.84 4.16-209.19h16.93l-.6-18.53Zm-200.83 166.05 2.97-132.35 152.06-.49 1.95 133.2-156.97-.35Z" style="fill:#e0a65a" />
	</g>
	<g id="uuid-f5da7800-b424-45f8-a080-98065afc9696">
		<path class="uuid-102da988-eae5-4cbd-8e30-f7f7d5509f1f" d="M1481.14 927.38s5.33 15.6 3.42 23.59c-1.9 7.99-11.41 20.54-12.17 25.87-.76 5.33-.38 13.7-.38 13.7s16.36 2.28 25.87 1.9c9.51-.38 23.21-1.14 23.21-1.14s-1.14-17.12-1.14-23.21 1.14-10.65 0-16.74c-1.14-6.09-3.04-24.35-3.04-24.35l-35.76.38ZM1583.72 923.39s1.63 7.22.36 13.72c-1.26 6.5-4.69 18.78-5.06 26-.36 7.22-.54 11.38-.54 11.38l8.85 4.51.36 9.39s16.79 2.89 27.45 1.81c10.65-1.08 21.67-2.71 21.67-2.71s.36-8.49-4.69-15.35c-5.06-6.86-10.65-13.18-13.18-18.06-2.53-4.88-5.78-27.45-5.78-27.45l-29.43-3.25Z" />
		<path d="M1463.23 537.07s-8.83 62.7-9.71 94.49c-.88 31.79 7.06 121.87 7.06 137.77 0 15.9-2.65 71.97 2.21 103.32 4.86 31.35 16.69 75.33 16.69 75.33l42.75-1.58s-2.48-71.54-1.16-100.68-.44-64.91 1.32-88.75 17.03-95.72 17.03-95.72 16.09 73.21 22.71 92.63c6.62 19.43 7.51 77.27 10.6 112.16 3.09 34.88 4.93 78.65 4.93 78.65l40.55-1.38s14.13-53.87 14.57-98.47c.44-44.6-6.18-106.42-6.18-136.44 0-30.03 4.42-73.74-3.53-113.92-7.95-40.18-19.87-64.03-19.87-64.03l-139.97 6.62Z" style="fill:#e0be86" />
		<g>
			<path class="uuid-37427b0c-4c0f-4e6d-bac3-ad3063d7ca6b" d="M1503.78 276.42s.7 29.38-3.12 35.11c-3.82 5.73-35.96 20.75-35.96 20.75l5.99 28.15 124.74-.32-6.59-26.1s-25.44-11.7-27.67-19.02c-2.23-7.32-.12-39.21-.12-39.21l-57.28.64Z" />
			<path class="uuid-a2b11b9a-9fc7-40a2-9ea6-a46ca6e03536" d="M1512.49 185.64c-11.09 1.67-36.28 17.42-29.69 41.94 1.17 4.35 7.45 10.72 9.96 21.16 1.64 6.8 8.4 34.44 8.4 34.44l68.32-22.65s-.35-4.9 2.16-12.64c2.51-7.74 9.84-14.66 7.54-21.98s-20.6-33.49-30.2-36.09c-20.08-5.44-27.04 2.29-31.78.9-5.02-1.46-1.18-5.6-4.7-5.07Z" />
			<path class="uuid-37427b0c-4c0f-4e6d-bac3-ad3063d7ca6b" d="M1530.98 213.79c-9.4.77-15.26-2.41-21.19.5-7.97 3.9-6.54 9.97-8.04 15.62-3.13 11.78-5.98 14.88-4.14 25.18 1.84 10.31 8.47 29.95 13.81 40.07 5.34 10.12 10.67 8.28 17.3 8.83 6.63.55 17.12.37 21.53-6.81s13.43-22.08 14.91-32.39c1.47-10.31.55-27.25-3.7-37.94-2.13-5.36-2.04-10.01-10.69-14.08-6.46-3.04-14.76.61-19.8 1.02Z" />
			<path class="uuid-37427b0c-4c0f-4e6d-bac3-ad3063d7ca6b" d="M1499.26 256.78s-6.77-2.93-11.19-.36c-4.42 2.58-.74 13.43.92 18.59 1.66 5.15 3.5 6.07 6.07 5.71 2.58-.37 5.52-2.21 5.52-2.21l-1.33-21.73ZM1567.28 254.27s3.68-3.86 8.1-1.29c4.42 2.58.74 13.43-.92 18.59-1.66 5.15-3.5 6.07-6.07 5.71-2.58-.37-5.52-2.21-5.52-2.21l4.42-20.8Z" />
			<path class="uuid-a2b11b9a-9fc7-40a2-9ea6-a46ca6e03536" d="M1535.42 262.22c3.18 0 11.35 5.9 14.94 9.33 4.07 3.88 8.23 1.25 13.14-10.24 3.1-7.27 1.22-23.88 1.22-23.88l7.46-.88s-3.62 8.08-3.62 12.47-1.65 9.98-2.38 14.49 3.23 13.92 1.4 21.11-10.64 16.23-15.15 22.32-12.8 7.28-19.14 7.03c-6.34-.24-15.79 1.24-21.76-7.41-5.97-8.65-13.43-17.87-14.28-25.18-.85-7.31.07-16.84-1.48-26.9-.93-6.03-.02-17.17.23-17.53.24-.37 4.19-1.43 4.19-1.43s-1.98 9.26-1.73 13.28c.24 4.02.54 7.54 1.64 13.51 1.1 5.97 8.28 14.11 10.82 10.59 2.94-4.07 11.52-8.72 14.33-9.77 5.24-1.95 4.26 1.35 6.34 1.22 1.95-.12 1.65-2.13 3.84-2.13Zm-3.47 3.47c-2.55-.2-10.55 3.37-13.56 6.85-3.96 4.56-6.33 14.62-2 16.75 8.58 4.24 10.06-3.71 15.06-3.46 5 .24 7.26 7.33 13.72 2.63 6.15-4.47 1.77-13.33-.84-16.21-2.18-2.41-8.77-6.26-12.38-6.55Z" />
			<path class="uuid-c05d246e-b13e-4677-be85-a2aa20fb8dfc" d="M1527.12 267.34c2.27-.69 3.07.7 3.86.6.79-.1 1.48-1.58 4.43-.59 3.85 1.28 9.56 6.4 9.06 8.18-.49 1.77-8.05 7.4-13.08 7.6-5.02.2-12.28-6.55-12.43-8.26-.2-2.27 5.89-6.83 8.15-7.52Zm-2.45 7.01c.21.55 3.18 1.97 6.27 2.04 3.15.07 6.83-1.19 6.93-1.78.1-.59-3.25-2.53-6.6-2.63-3.35-.1-6.9 1.58-6.6 2.37Z" />
			<path class="uuid-a592a574-d5e9-4729-a627-4a6f329d2c5a" d="M1515.9 240.42c-1.91.66-2.81 2.4-2.09 4.25.72 1.84 2.19 2.18 3.94 1.7 2.06-.57 2.8-2.19 2.25-4.16-.38-1.39-2.14-2.47-4.1-1.79Z" />
			<path class="uuid-a592a574-d5e9-4729-a627-4a6f329d2c5a" d="m1509.17 243.19 12.54-2.83-1.33-4.76-11.76 5.43.55 2.16z" />
			<path class="uuid-a592a574-d5e9-4729-a627-4a6f329d2c5a" d="M1520.27 236.17s-3.69-2.48-7.76-2.33c-4.07.16-9.33 3.71-9.33 3.71l-1.03-3.72s5.2-3.44 11.2-3.79c3.12-.19 8.33 1.51 8.33 1.51l-1.42 4.62ZM1545.76 241.27c1.91.66 2.81 2.4 2.09 4.25s-2.19 2.18-3.94 1.7c-2.06-.57-2.8-2.19-2.25-4.16.38-1.39 2.14-2.47 4.1-1.79Z" />
			<path class="uuid-a592a574-d5e9-4729-a627-4a6f329d2c5a" d="m1552.6 243.93-12.18-3.18.78-4.73 11.95 5.52-.55 2.39z" />
			<path class="uuid-a592a574-d5e9-4729-a627-4a6f329d2c5a" d="M1541.33 237.17s3.21-3.08 7.24-3.62c4.04-.54 10.65 2.53 10.65 2.53l-.46-4.32s-5.71-2.49-11.68-1.82c-3.1.35-8.37 2.83-8.37 2.83l2.6 4.39Z" />
		</g>
		<g>
			<path class="uuid-34d9f33c-6c6e-4fe4-96ef-02145e71e662" d="M1499.21 312.84s15.67 26.2 48.6 21.34c21.18-3.13 19.25-12.96 19.25-12.96s40.72 13.29 53.57 25.04c12.85 11.75 21.48 37.32 33.59 62.65 12.11 25.33 19.96 60.75 4.54 68.1-15.42 7.34-45.52 7.23-45.52 7.23s1.64 42.08 4.17 66.62c2.72 26.33 5.25 39.39 5.25 39.39s-20.6 12.7-83.74 10.5c-63.14-2.2-83.83-8.03-83.83-8.03s-4.03-15.21-1.82-31.36c2.2-16.15 7.11-68.77 7.11-68.77s-17.71 5.12-26.8-61.67c-5.54-40.7-12.1-67.91 4.41-88.1 10.71-13.1 34.71-16.07 43.32-20.92 11.62-6.55 17.92-9.04 17.92-9.04Z" />
			<g style="clip-path:url(#uuid-afad2595-2335-4d28-a78e-9166d23703fd)">
				<path d="M1367.1 364.07s31-20.97 78.4-5.47c47.41 15.5 65.64 25.53 111.22 27.35 45.58 1.82 114.87-28.26 114.87-28.26l-2.73-103.02-322.73 6.38 20.97 103.02Z" style="fill:#5eaf71" />
				<path d="M1538.47 339.13c21.29.17 29.4-6.45 32.44-11.89 3.04-5.44 2.4-11.68 2.4-11.68l-80.18-14.72.32 9.28s5.81 28.69 45.02 29.01Z" style="fill:#e6332a" />
			</g>
			<path class="uuid-37427b0c-4c0f-4e6d-bac3-ad3063d7ca6b" d="M1538.56 425.77c1.47 2.94 2.2 10.28 1.47 17.99-.73 7.71-3.99 10.67-3.99 10.67s-6.12-.9-13.43-1.16c-7.03-.24-15.5-2.87-20.28-4.89-9.54-4.04-8.72-18.33-8.72-18.33s6.75-2.89 12.99-1.42c6.24 1.47 9.57-.3 13.61-1.4 4.04-1.1 18.36-1.47 18.36-1.47Z" />
			<path class="uuid-c05d246e-b13e-4677-be85-a2aa20fb8dfc" d="M1520.87 426.21s-1.85 6.97-2.14 11.44c-.25 3.75 1.74 17.49 1.74 17.49l12.55 1.14s-.36-13.89-.74-19.68c-.38-5.79.59-11.85.59-11.85l-12 1.46Z" />
			<path class="uuid-37427b0c-4c0f-4e6d-bac3-ad3063d7ca6b" d="M1602.44 425.4s6.38-10.39 7.75-12.35c1.37-1.96 19.47-11.91 19.47-11.91s2.29 2.11 1.51 3.88c-.78 1.76-2.16 3.72-2.16 3.72l10.19-3.92s2.91 1.77 1.19 3.81c-1.93 2.3-3.32 4.33-3.32 4.33l6.64-.89s1.57 3.53-.39 5.49c-1.96 1.96-5.09 3.51-5.09 3.51s4.3.81 4.3 2.18-1.96 3.14-1.96 3.14-13.92-.39-22.74.78c-8.82 1.18-15.39-1.77-15.39-1.77Z" />
			<path class="uuid-c05d246e-b13e-4677-be85-a2aa20fb8dfc" d="M1526.76 427.6c-6.38-.1-10.05 4.42-10.21 9.62-.16 5.28 4.09 9.23 9.47 9 5.25-.22 9.3-4.65 9.51-9.45.2-4.62-2.89-9.08-8.77-9.17Z" />
			<path d="M1526.66 429.36c-5.21-.06-8.21 3.62-8.37 7.87-.16 4.35 3.32 7.63 7.77 7.46 4.36-.17 7.71-3.85 7.86-7.83.14-3.81-2.43-7.44-7.25-7.5Z" style="fill:#f1f1f4" />
			<path style="fill:#444e54" d="m1521.66 438.02 4.51-2.07 6.26 3.26-.34.59-5.89-3.03-4.28 1.86-.26-.61z" />
		</g>
	</g>
</svg>
