<?xml version="1.0" encoding="UTF-8"?>
<svg xmlns="http://www.w3.org/2000/svg" xmlns:xlink="http://www.w3.org/1999/xlink" viewBox="0 0 1920 1080">
	<defs>
		<style>
			.l,.m,.n,.o,.p,.q,.r,.s,.t,.u,.v,.w{fill:none;}.m{stroke-dasharray:0 0 0 0 0 0 1.81 3.62;}.m,.n,.p,.q,.r,.s,.t,.u,.v,.w{stroke-linecap:round;}.m,.n,.p,.q,.s,.t,.u,.v{stroke:#ffd500;stroke-width:1.59px;}.m,.q,.r,.s{stroke-linejoin:round;}.x{fill:#f3f1e3;}.y{fill:#f8c4b7;}.a`{fill:#f09b7d;}.aa{fill:#eeeef0;}.ab{fill:#e8d180;}.ac{fill:#f3d484;}.ad{fill:#9e6c30;}.ae{fill:#8cabbc;}.af{fill:#30513f;}.ag{fill:#d0b46a;}.ah{fill:#ddc07a;}.ai{fill:#cbced4;}.aj{fill:#d6d9dc;}.ak{fill:#235a96;}.al{fill:#222d44;}.am{fill:#44679e;}.an{fill:#a3853f;}.ao{fill:#6195b3;}.ap{fill:#4f91b2;}.aq{fill:#4e3950;}.ar{fill:#74a2be;}.o{stroke-width:9.95px;}.o,.r,.w{stroke:#e64427;}.o,.w{stroke-miterlimit:10;}.p{stroke-dasharray:0 0 0 0 0 0 0 0 0 0 1.86 3.72;}.r{stroke-width:2.15px;}.s{stroke-dasharray:0 0 0 0 0 0 0 0 0 0 1.81 3.62;}.as{clip-path:url(#f);}.at{clip-path:url(#e);}.au{clip-path:url(#d);}.av{clip-path:url(#k);}.aw{clip-path:url(#j);}.ax{clip-path:url(#i);}.ay{clip-path:url(#h);}.t{stroke-dasharray:0 0 0 0 0 0 2.02 4.04;}.u{stroke-dasharray:0 0 0 0 0 0 0 0 0 0 2.02 4.04;}.v{stroke-dasharray:0 0 0 0 0 0 1.86 3.72;}.w{stroke-width:11.45px;}
		</style>
		<clipPath id="d">
			<rect width="1920" height="1080" style="fill:none;" />
		</clipPath>
		<clipPath id="e">
			<polygon points="1163.04 435.44 1162.29 897.02 1346.5 891.85 1345.74 436.43 1163.04 435.44" style="fill:none;" />
		</clipPath>
		<clipPath id="f">
			<polygon points="1377.12 435.67 1380.93 890.2 1563.79 890.46 1559.25 432.61 1377.12 435.67" style="fill:none;" />
		</clipPath>
		<clipPath id="h">
			<path d="M931.95,948.91s-6.48,26.37-8.26,33.13c-2.39,9.08-.96,14.34-.96,14.34,0,0,25.63,7.81,27.69,10.9,2.06,3.08,2.28,11.16,14.6,12.96,21.95,3.2,30.9-4.09,32.69-5.58,1.41-1.18,1.53-9.66-.28-12.27-3.81-5.5-21.78-14.56-28.03-29.07-2.94-6.81-4.88-30.92-4.88-30.92l-32.56,6.5h0Z" style="fill:none;" />
		</clipPath>
		<clipPath id="i">
			<path d="M790.35,962.46s-9.26,27.49-9.98,30.08c-3.47,12.48-13.01,21.2-13.22,26.13-.21,4.94,.03,8.63,3.13,10.01,8.06,3.58,25.91,2.88,32.9,.82s8.84-5.14,9.67-8.64c.82-3.5,.65-10.82,1.44-11.72,3.13-3.59,11.86-8.45,11.86-8.45,0,0-1.36-10.94-4.3-19.6-1.79-5.27-3.24-13.29-3.24-13.29l-28.25-5.35h-.01Z" style="fill:none;" />
		</clipPath>
		<clipPath id="j">
			<path d="M803.84,637.9s-9.52,116.93-14.96,146.84c-5.44,29.91-8.71,107.24-8.71,128.99s-1.76,61.89-1.76,61.89c0,0,9.27,12.54,25.59,10.5s26.73-9.46,26.73-9.46c0,0,7.69-74.84,8.37-108.83s10.68-92.62,18.84-113.01c8.16-20.39,22.87-49.98,30.35-66.97,7.48-17,1.89-58.11,1.89-58.11l-86.34,8.16h0Z" style="fill:none;" />
		</clipPath>
		<clipPath id="k">
			<path d="M867.74,641.3s15.42,102.56,19.5,136.55,17.89,73.51,17.89,109.54,16.29,86.1,16.29,86.1c0,0,7.03,4.87,19.27,2.15s30.81-9.71,30.81-9.71c0,0-6.21-45.14-13-82.53-6.8-37.39-4.42-63.3-8.5-85.06-4.08-21.75,1.36-68.66,0-85.66s-11.56-71.38-11.56-71.38h-70.7Z" style="fill:none;" />
		</clipPath>
	</defs>
	<g id="a">
		<g id="b">
			<g id="c">
				<g style="clip-path:url(#d);">
					<g>
						<rect x="-116.96" y="-17.89" width="2108.82" height="1080.55" style="fill:#f3d484;" />
						<polygon points="-272.06 863.37 2098.84 859.96 2077.61 1277.89 -243.43 1276.69 -272.06 863.37" style="fill:#e8d180;" />
						<g>
							<polygon points="1130.58 910.46 1127.67 235.15 1589.08 234.47 1593.21 921 1130.58 910.46" style="fill:#a3853f;" />
							<polygon points="1163.72 296.28 1166.37 406.34 1555.07 405 1555.07 295.09 1163.72 296.28" style="fill:#74a2be;" />
							<g>
								<polygon points="1163.04 435.44 1162.29 897.02 1346.5 891.85 1345.74 436.43 1163.04 435.44" style="fill:#4f91b2;" />
								<g style="clip-path:url(#e);">
									<polygon points="1159.33 734.13 1154.82 955.88 1358.8 954.29 1362.91 732.42 1159.33 734.13" style="fill:#cbced4;" />
								</g>
							</g>
							<g>
								<polygon points="1377.12 435.67 1380.93 890.2 1563.79 890.46 1559.25 432.61 1377.12 435.67" style="fill:#4f91b2;" />
								<g style="clip-path:url(#f);">
									<polygon points="1374.51 732.38 1375.81 948.46 1580.66 946.55 1584.77 731.92 1374.51 732.38" style="fill:#cbced4;" />
								</g>
							</g>
						</g>
						<polygon points="-265.2 890.77 2105.71 887.36 2084.48 1305.29 -236.56 1304.08 -265.2 890.77" style="fill:#ddc07a;" />
						<path d="M1401.11,619.02c.56,19.27-15.11,36.98-36.64,36.98s-38.2-16.5-37.58-36.83c.59-19.25,13.96-35.42,37.75-35.05,22.57,.35,35.94,17.02,36.46,34.9h.01Zm-36.62-25.89c-17.83-.28-27.85,11.84-28.29,26.27-.47,15.24,12.03,27.61,28.16,27.61s27.88-13.28,27.46-27.72c-.39-13.4-10.41-25.89-27.33-26.16h0Z" style="fill:#30513f;" />
						<g>
							<path d="M1372.48,64.55c-49.2-.76-76.83,32.67-78.06,72.47-1.3,42.04,33.18,76.16,77.7,76.16s76.92-36.63,75.76-76.47c-1.08-36.97-28.72-71.44-75.39-72.16h0Z" style="fill:#eeeef0;" />
							<g>
								<polygon points="1369.58 149.11 1371.92 96.98 1375.73 96.47 1376.95 148.84 1369.58 149.11" style="fill:#30513f;" />
								<polygon points="1341.24 156.04 1382.41 139.56 1380.23 132.26 1339.5 152.6 1341.24 156.04" style="fill:#30513f;" />
							</g>
							<g>
								<polygon points="1394.96 88.21 1394.96 90.24 1397.45 90.02 1397.59 100.99 1400.26 101.2 1400.08 86.9 1394.96 88.21" style="fill:#30513f;" />
								<g>
									<polygon points="1334.78 88.42 1334.78 90.45 1337.26 90.22 1337.41 101.2 1340.08 101.41 1339.9 87.11 1334.78 88.42" style="fill:#30513f;" />
									<polygon points="1341.41 87.59 1341.41 89.62 1343.9 89.39 1344.04 100.37 1346.71 100.58 1346.53 86.28 1341.41 87.59" style="fill:#30513f;" />
								</g>
								<g>
									<polygon points="1364.42 81.16 1364.42 83.19 1366.9 82.97 1367.05 93.94 1369.44 93.6 1369.26 79.3 1364.42 81.16" style="fill:#30513f;" />
									<path d="M1372.52,80.83s3.87-3.01,6.42-.82c2.09,1.79,1.87,3.98-.03,6.52-1.91,2.55-4,4.53-4,4.53l4.41-.15,.26,2.12-7.44,.23,.02-2.51s1.66-2.02,3.59-4.33c1.49-1.79,2.42-2.91,1.57-4.18-.9-1.34-3.64,.36-3.64,.36l-1.14-1.78h-.02Z" style="fill:#30513f;" />
								</g>
								<path d="M1412.93,105.23s3.91-3.97,7.29-1.68c2.8,1.89,2.18,4.7,.05,7.55-2.13,2.85-3.97,4.86-3.97,4.86h4.84l-.15,2.51-8.29,.17-.18-2.6s2.23-2.83,4.49-5.33c1.96-2.17,3.11-3.34,2.09-4.63-1.32-1.68-5.04,.99-5.04,.99l-1.12-1.82v-.02h0Z" style="fill:#30513f;" />
								<path d="M1419.84,131.35s6.82-1.7,7.36,3.63c.38,3.75-3.44,4.4-3.44,4.4,0,0,4.17,.66,4.1,4.01-.1,5.39-7.73,4.62-7.73,4.62l-.12-2.2s5.31-.11,5.13-2.53-4.29-1.81-4.29-1.81l-.42-3.24s4.41-.11,4.41-2.97-4.65-2.09-4.65-2.09l-.36-1.81h.01Z" style="fill:#30513f;" />
								<polygon points="1410.79 160.31 1409.17 169.56 1415.28 169.38 1415.73 174.32 1417.75 174.45 1417.39 160 1415.19 159.78 1415.19 167.14 1411.88 167.16 1412.54 160.11 1410.79 160.31" style="fill:#30513f;" />
								<path d="M1399.24,178.02h-5.94l-.16,6.77s5.07-.37,5.12,2.25c.06,3-5,2.62-5,2.62l.04,2.23s7.01,.64,7.17-4.62c.14-4.62-5.1-4.78-5.1-4.78l.1-2.08,3.71-.16,.06-2.22h0Z" style="fill:#30513f;" />
								<path d="M1372.57,184.55s-6.83,4.87-6.83,8.88,1.71,5.27,5.04,5.08c2.76-.16,4.15-3.73,3.18-5.8-1.37-2.95-5.11-2.07-5.11-2.07l4.98-5.39-1.24-.69h-.02Z" style="fill:#30513f;" />
								<path d="M1314.75,149.68s6.74-5.84,6.46-10.31-2.36-5.57-5.44-5.38c-3.08,.2-4.36,4.45-3.13,6.69,1.74,3.19,5.85,1.95,5.85,1.95l-5.16,6.36,1.43,.68h-.01Z" style="fill:#30513f;" />
								<polygon points="1341.06 177.64 1350.39 178.06 1347.9 192.98 1345.62 192.98 1347.07 180.75 1341.06 179.92 1341.06 177.64" style="fill:#30513f;" />
								<path d="M1325.65,159.86c-3.13,.23-4.08,1.74-4.19,4.12-.14,3.07,3.15,3.57,3.15,3.57,0,0-3.57,1.2-3.36,4.1,.21,2.9,1.84,4.26,4.54,4.26s5.37-1.14,4.89-4.61c-.49-3.49-3.57-3.75-3.57-3.75,0,0,3.43-.39,3.23-3.5-.21-3.11-1.88-4.4-4.68-4.19h-.01Z" style="fill:#30513f;" />
								<g>
									<polygon points="1314.62 111.35 1314.62 113.39 1316.43 113.35 1316.58 124.33 1318.88 124.17 1319.06 110.24 1314.62 111.35" style="fill:#30513f;" />
									<path d="M1324.07,110.44c-2.68,.18-4.23,3.55-4.03,6.63,.19,3.07,.77,6.92,4.9,7.01,4.13,.1,4.71-4.42,4.42-7.3-.29-2.88-1.06-6.63-5.28-6.34h-.01Z" style="fill:#30513f;" />
								</g>
							</g>
						</g>
						<g>
							<g>
								<polygon points="328.97 161.87 330.29 554.43 582.81 556.24 582.1 163.41 328.97 161.87" style="fill:#eeeef0;" />
								<polygon points="346.02 180.85 347.69 519.2 566.66 520.87 565.54 182.24 346.02 180.85" style="fill:#6195b3;" />
							</g>
							<polygon points="454.13 178.71 449.39 529.18 462.38 529.64 466.38 178.57 454.13 178.71" style="fill:#eeeef0;" />
							<polygon points="334.52 267.7 568.9 269.39 569.07 256.41 334.3 255.45 334.52 267.7" style="fill:#eeeef0;" />
							<polygon points="338.86 356.55 573.23 358.25 573.41 345.26 338.63 344.3 338.86 356.55" style="fill:#eeeef0;" />
							<polygon points="336.69 447.58 571.07 449.27 571.24 436.28 336.47 435.32 336.69 447.58" style="fill:#eeeef0;" />
						</g>
						<g>
							<g>
								<polygon points="641.12 163.97 642.44 556.52 894.96 558.34 894.25 165.51 641.12 163.97" style="fill:#eeeef0;" />
								<polygon points="658.18 182.95 659.85 521.3 878.81 522.97 877.69 184.34 658.18 182.95" style="fill:#6195b3;" />
							</g>
							<polygon points="766.28 180.81 761.54 531.28 774.53 531.74 778.53 180.67 766.28 180.81" style="fill:#eeeef0;" />
							<polygon points="646.67 269.8 881.05 271.49 881.22 258.5 646.45 257.54 646.67 269.8" style="fill:#eeeef0;" />
							<polygon points="651.01 358.65 885.39 360.35 885.56 347.36 650.78 346.4 651.01 358.65" style="fill:#eeeef0;" />
							<polygon points="648.84 449.67 883.22 451.37 883.39 438.38 648.62 437.42 648.84 449.67" style="fill:#eeeef0;" />
						</g>
						<g>
							<polygon points="265.74 439.47 268.81 980.48 281.85 980.26 281.88 440.46 265.74 439.47" style="fill:#30513f;" />
							<g>
								<path d="M162.68,445.14c-.16-23.87-.69-116.75,.43-137.03,.44-7.88,11.29-22.7,34.07-36.61,23.8-14.53,52.42-22.86,78.51-22.86,.95,0,1.9,0,2.85,.03,64.2,1.44,105.53,42.89,106.63,64.97,1.12,22.43-.38,109.98-.8,133.09l-221.7-1.61v.02h0Z" style="fill:#eeeef0;" />
								<path d="M275.7,254.33c.91,0,1.82,0,2.73,.03,27.33,.61,53.62,9.05,74.03,23.75,18.1,13.04,26.63,27.39,27.05,35.83,1.04,20.73-.19,97.94-.71,127.08l-210.47-1.53c-.19-30.21-.58-112.28,.46-131.07,.31-5.56,10.24-19.18,31.35-32.07,22.94-14,50.47-22.03,75.55-22.03m0-11.37c-60.88,0-116.97,41.56-118.26,64.83-1.31,23.65-.4,142.99-.4,142.99l232.92,1.69s2.22-112.83,.9-139.1c-1.31-26.28-45.99-68.89-112.18-70.37-.99-.02-1.99-.03-2.98-.03h0Z" style="fill:#235a96;" />
							</g>
							<polygon points="229.99 325.38 231.3 392.8 320.78 390.85 320.49 323.12 229.99 325.38" style="fill:none; stroke:#e64427; stroke-miterlimit:10; stroke-width:9.95px;" />
							<g>
								<line x1="347.08" y1="417.55" x2="198.7" y2="417.06" style="fill:none; stroke:#e64427; stroke-linecap:round; stroke-miterlimit:10; stroke-width:11.45px;" />
								<path d="M234.58,502.43c.49,14.79-8.76,32.97-2.79,36.95,8.87,5.92,16.21-18.31,16.21-18.31,0,0-4.93,20.21,2.96,20.7,8.87,.55,10.35-21.2,10.35-21.2,0,0-3.54,22.68,8.38,22.68,8.38,0,7.39-21.2,7.39-21.2,0,0-.99,22.68,9.86,21.2,8.53-1.16,5.42-22.18,5.42-22.18,0,0,9.37,22.18,18.24,17.75,8.87-4.44-7.89-21.2-6.9-34.51,.99-13.31,40.42-82.81,40.42-82.81l-143.45,.99s33.5,67.96,33.9,79.95h0Z" style="fill:none; stroke:#e64427; stroke-linecap:round; stroke-linejoin:round; stroke-width:2.15px;" />
								<polygon points="248 521.07 270.94 422.58 292.36 521.07 223.33 422.58 277.08 522.06 322.43 421.99 261.31 520.58 200.67 422.48 248 521.07" style="fill:none; stroke:#e64427; stroke-linecap:round; stroke-linejoin:round; stroke-width:2.15px;" />
								<polyline points="253.91 421.99 234.18 494.9 300.82 422.78 303.67 503.68" style="fill:none; stroke:#e64427; stroke-linecap:round; stroke-linejoin:round; stroke-width:2.15px;" />
							</g>
						</g>
					</g>
				</g>
			</g>
		</g>
	</g>
	<g id="g">
		<g>
			<path d="M931.95,948.91s-6.48,26.37-8.26,33.13c-2.39,9.08-.96,14.34-.96,14.34,0,0,25.63,7.81,27.69,10.9,2.06,3.08,2.28,11.16,14.6,12.96,21.95,3.2,30.9-4.09,32.69-5.58,1.41-1.18,1.53-9.66-.28-12.27-3.81-5.5-21.78-14.56-28.03-29.07-2.94-6.81-4.88-30.92-4.88-30.92l-32.56,6.5h0Z" style="fill:#222d44;" />
			<g style="clip-path:url(#h);">
				<path d="M917.41,985.28s20.86,3.87,26.07,9.53c5.21,5.66,9.24,14.3,17.73,15.64s16.97,2.58,28.55-1.15c9-2.9,20.07-12.94,20.07-12.94l-1.7,37.93-96.54-9.98,5.81-39.03h.01Z" style="fill:#8cabbc;" />
			</g>
		</g>
		<g>
			<path d="M790.35,962.46s-9.26,27.49-9.98,30.08c-3.47,12.48-13.01,21.2-13.22,26.13-.21,4.94,.03,8.63,3.13,10.01,8.06,3.58,25.91,2.88,32.9,.82s8.84-5.14,9.67-8.64c.82-3.5,.65-10.82,1.44-11.72,3.13-3.59,11.86-8.45,11.86-8.45,0,0-1.36-10.94-4.3-19.6-1.79-5.27-3.24-13.29-3.24-13.29l-28.25-5.35h-.01Z" style="fill:#222d44;" />
			<g style="clip-path:url(#i);">
				<path d="M756.45,1013.31s8.17,6.84,23.21,8.18c15.05,1.34,25.12-1.06,28.99-4.63,3.87-3.58,2.53-5.51,4.32-10.58,1.79-5.07,12.66-18.32,12.66-18.32l2.23,32.92-26.07,20.86-51.4-7.15,6.05-21.27h.01Z" style="fill:#8cabbc;" />
			</g>
		</g>
		<g>
			<path d="M782.57,1003.89s6.39-3.1,11.16-3.1,9.36,2.12,9.36,2.12l-.3,1.44s-6.13-2.39-9.48-2.06c-6.85,.67-10.28,2.79-10.28,2.79l-.47-1.19h.01Z" style="fill:#d6d9dc;" />
			<path d="M782.78,997.91l.3,1.44s4.44-3.51,11.51-3.15,9.94,2.58,9.94,2.58l.51-1.08s-4.15-3.15-10.28-3.2-11.97,3.4-11.97,3.4h-.01Z" style="fill:#d6d9dc;" />
			<path d="M795.09,988.83c-8.01,.12-12.61,4.49-12.61,4.49l.34,1.5s6.6-4.85,12.44-4.49c7.07,.44,11.63,4.13,11.63,4.13l.8-1.03s-5.58-4.69-12.61-4.59h.01Z" style="fill:#d6d9dc;" />
			<path d="M782.44,987.33s6.18-6.55,15.4-4.9c8.94,1.6,11.47,5.21,11.47,5.21l-.72,.83s-4.73-3.92-10.96-4.59c-10.03-1.08-14.68,4.54-14.68,4.54l-.51-1.08h0Z" style="fill:#d6d9dc;" />
		</g>
		<g>
			<path d="M975.63,984.78s-6.86-.11-11.02,1.77c-4.3,1.94-7.7,5.81-7.7,5.81l.89,1.21s4.68-4.81,7.84-5.89c6.28-2.16,10.18-1.72,10.18-1.72l-.18-1.18h-.01Z" style="fill:#d6d9dc;" />
			<path d="M972.66,980.01l.41,1.26s-5.27-1.17-11.19,1.75c-6.22,3.07-8.03,6.2-8.03,6.2l-.91-.75s2.62-4.39,8.09-6.78c5.25-2.3,11.63-1.68,11.63-1.68Z" style="fill:#d6d9dc;" />
			<path d="M958.47,977.29c6.8-2.66,12.39-.94,12.39-.94l.38,1.26s-7.5-1.42-12.33,.91c-6.11,2.95-8.97,7.85-8.97,7.85l-1.14-.57s3.44-6.06,9.68-8.51h-.01Z" style="fill:#d6d9dc;" />
			<path d="M968.36,971.93s-7.55-2.7-14.64,1.45c-7.37,4.31-8.49,8.16-8.49,8.16l.96,.41s2.98-4.89,8.23-7.56c7.98-4.06,13.98-1.51,13.98-1.51l-.04-.95h0Z" style="fill:#d6d9dc;" />
		</g>
		<g>
			<path d="M846.48,394c-.02,.64,3.84,19.74,1.96,25.22s-5.84,9.71-11.64,11.01-21.6,7.76-21.6,7.76l.52,44.15,103.54,9.08,1.86-45.29s-22.49-8.57-24.01-14.37c-1.52-5.81,1.18-30.99,1.18-30.99l-51.81-6.57Z" style="fill:#f8c4b7;" />
			<path d="M874.26,312.47c-7.27,.21-4.62,5.56-12.55,7.71s-19.7,1.52-22.08,8.67c-2.38,7.15,2.42,7.43-.63,11.77-3.06,4.34-5.84,12.27-4.27,18.41,.73,2.84,2.32,10.02,3.53,13.4,1.4,3.94,.06,13.44,.06,13.44l69.8-2.72s-1.47-7.3,.51-9.64c1.98-2.35,2.32-3.32,4.41-9.34,2.1-6.02-4.53-9.02-3.71-14.83,.82-5.81-.35-16.75-5.71-23.38-5.36-6.64-16.76-3.07-18.66-7.19s-6.51-6.42-10.7-6.3h0Z" style="fill:#d0b46a;" />
			<path d="M858.22,349.99c-3.94,2.76,.73,8.9-5.82,11.48-6.55,2.58-10.77,3.71-9.6,6.66s-1.14,4.02-1.14,4.02c0,0-3.67-4.17-7.94-1.4-4.27,2.78,0,15.59,1.5,20.46,1.49,4.87,2.89,4.78,5.03,5.36s3.97-1.14,3.97-1.14c0,0,.08,9.38,3.5,13.42s13.36,14.25,17.33,17.04,14.35,3.12,18.9-.28,13.36-13.39,15.35-15.99c1.99-2.6,3.7-12.56,3.7-12.56,0,0,3.62,1.76,5.68,.82,2.06-.95,4.73-9.23,6.35-12.22s1.88-11.1-1.37-12.47-7.47,3.69-7.47,3.69c0,0-2.78-.22-1.25-4.35s4.93-7.57-2.75-9.22c-7.68-1.64-17.47,7.05-24.21,3.79-6.74-3.26-4.2-11.42-8.36-15.86-4.17-4.44-9.29-2.71-11.37-1.25h-.03Z" style="fill:#f8c4b7;" />
			<path d="M881.79,374.2s10.93-4.85,12.96-4.78c2.03,.07,6.32,.71,6.32,.71l-.19,1.9s-7.1,.15-9.95,1.96-6.84,3.84-6.84,3.84l-2.29-3.62h-.01Z" style="fill:#9e6c30;" />
			<path d="M869.4,372.44s-11.47-3.38-13.47-3.05c-2,.33-6.17,1.53-6.17,1.53l.43,1.85s7.06-.78,10.12,.65c3.06,1.42,7.28,2.91,7.28,2.91l1.8-3.89h0Z" style="fill:#9e6c30;" />
			<path d="M862.21,409.95c.2,1.07,1.88,.4,2.8,1.6,.93,1.2,4.45,3.04,9.41,3.13,1.6,.76,4.48-.33,5.88-.81s3.32-2.55,4.36-2.79,2.5-.54,2.46-1.64c-.03-1.1-6.47-2.27-8.68-2.28-2.2,0-3.21,1.34-3.9,1.25-.69-.09-1.69-1.16-3.47-1.21-1.79-.06-4.86,1.22-5.62,1.33s-3.48,.17-3.24,1.42Z" style="fill:#f09b7d;" />
		</g>
		<g>
			<polygon points="853.37 376.98 857.66 378.7 858.8 375.77 854.03 375.27 853.37 376.98" style="fill:#4e3950;" />
			<path d="M859.84,375.19c-2.14,.13-3.56,1.66-3.35,3.76,.21,2.09,1.62,2.87,3.55,2.87,2.28,0,3.49-1.45,3.5-3.62,0-1.54-1.49-3.14-3.69-3.01h-.01Z" style="fill:#4e3950;" />
		</g>
		<g>
			<polygon points="894.78 377.87 890.52 380.46 889.38 377.74 893.89 376.28 894.78 377.87" style="fill:#4e3950;" />
			<path d="M887.52,376.97c2.13-.28,3.81,.96,4.01,3.06,.19,2.1-1.05,3.12-2.94,3.49-2.24,.44-3.7-.76-4.12-2.89-.29-1.51,.87-3.37,3.06-3.65h-.01Z" style="fill:#4e3950;" />
		</g>
		<path d="M774.79,509.87s-9.43,45.02-11.58,55.74c-2.14,10.72,2.57,20.15,14.15,21.87,11.58,1.71,14.58-15.86,17.15-23.15,2.57-7.29,10.72-46.73,10.72-46.73l-30.44-7.72h0Z" style="fill:#f8c4b7;" />
		<path d="M777.89,551.67c-11.37-.31-15.2,11.59-15.46,20.09s.77,40.7,2.83,51.26c2.06,10.56,5.15,24.21,5.15,24.21l21.38-5.67s-1.55-4.89-.52-18.8,3.11-52.22,3.23-58.44c.12-6.22-7.09-12.4-16.63-12.66h.02Z" style="fill:#f8c4b7;" />
		<path d="M931.93,529.51s12.11,37.09,15.46,44.31c3.35,7.21,6.18,15.2,17.26,15.46s12.11-13.14,10.05-20.61c-2.06-7.47-14.17-50.23-14.17-50.23l-28.59,11.08h-.01Z" style="fill:#f8c4b7;" />
		<path d="M958.98,550.12c-8.81-.25-13.4,16.49-11.59,36.32,1.8,19.83,7.99,60.02,7.99,60.02l19.58,5.15s4.12-62.34,3.35-71.35c-.77-9.02-10.3-29.88-19.32-30.14h-.01Z" style="fill:#f8c4b7;" />
		<g>
			<path d="M803.84,637.9s-9.52,116.93-14.96,146.84c-5.44,29.91-8.71,107.24-8.71,128.99s-1.76,61.89-1.76,61.89c0,0,9.27,12.54,25.59,10.5s26.73-9.46,26.73-9.46c0,0,7.69-74.84,8.37-108.83s10.68-92.62,18.84-113.01c8.16-20.39,22.87-49.98,30.35-66.97,7.48-17,1.89-58.11,1.89-58.11l-86.34,8.16h0Z" style="fill:#44679e;" />
			<g style="clip-path:url(#j);">
				<g>
					<path d="M770.88,960.94s.2,.29,.58,.8" style="fill:none; stroke:#ffd500; stroke-linecap:round; stroke-width:1.59px;" />
					<path d="M773.83,964.61c.73,.82,1.59,1.73,2.57,2.68" style="fill:none; stroke:#ffd500; stroke-dasharray:0 0 0 0 0 0 1.86 3.72; stroke-linecap:round; stroke-width:1.59px;" />
					<path d="M777.76,968.57c5.13,4.64,12.91,9.79,22.58,10.37,14.41,.87,30.91-9.08,36.92-13.1" style="fill:none; stroke:#ffd500; stroke-dasharray:0 0 0 0 0 0 0 0 0 0 1.86 3.72; stroke-linecap:round; stroke-width:1.59px;" />
					<path d="M838.8,964.79c.53-.37,.81-.58,.81-.58" style="fill:none; stroke:#ffd500; stroke-linecap:round; stroke-width:1.59px;" />
				</g>
			</g>
		</g>
		<g>
			<path d="M867.74,641.3s15.42,102.56,19.5,136.55,17.89,73.51,17.89,109.54,16.29,86.1,16.29,86.1c0,0,7.03,4.87,19.27,2.15s30.81-9.71,30.81-9.71c0,0-6.21-45.14-13-82.53-6.8-37.39-4.42-63.3-8.5-85.06-4.08-21.75,1.36-68.66,0-85.66s-11.56-71.38-11.56-71.38h-70.7Z" style="fill:#44679e;" />
			<g style="clip-path:url(#k);">
				<g>
					<path d="M905.6,965.85s.34,.08,.97,.23" style="fill:none; stroke:#ffd500; stroke-linecap:round; stroke-width:1.59px;" />
					<path d="M910.51,966.94c1.17,.25,2.51,.52,3.97,.79" style="fill:none; stroke:#ffd500; stroke-dasharray:0 0 0 0 0 0 2.02 4.04; stroke-linecap:round; stroke-width:1.59px;" />
					<path d="M916.46,968.1c8.5,1.52,19.76,2.92,25.14,1.02,7.35-2.59,24.65-8.28,31.5-10.52" style="fill:none; stroke:#ffd500; stroke-dasharray:0 0 0 0 0 0 0 0 0 0 2.02 4.04; stroke-linecap:round; stroke-width:1.59px;" />
					<path d="M975.02,957.98c.61-.2,.94-.31,.94-.31" style="fill:none; stroke:#ffd500; stroke-linecap:round; stroke-width:1.59px;" />
				</g>
			</g>
		</g>
		<g>
			<path d="M889.53,647.54s.02,.36,.04,.99" style="fill:none; stroke:#ffd500; stroke-linecap:round; stroke-linejoin:round; stroke-width:1.59px;" />
			<path d="M889.71,652.15c.04,1.08,.08,2.3,.12,3.62" style="fill:none; stroke:#ffd500; stroke-dasharray:0 0 0 0 0 0 1.81 3.62; stroke-linecap:round; stroke-linejoin:round; stroke-width:1.59px;" />
			<path d="M889.89,657.58c.19,6.51,.35,14.5,.1,18.58-.31,5.04-5.13,6.98-8.31,7.71" style="fill:none; stroke:#ffd500; stroke-dasharray:0 0 0 0 0 0 0 0 0 0 1.81 3.62; stroke-linecap:round; stroke-linejoin:round; stroke-width:1.59px;" />
			<path d="M879.89,684.2c-.61,.08-.99,.1-.99,.1" style="fill:none; stroke:#ffd500; stroke-linecap:round; stroke-linejoin:round; stroke-width:1.59px;" />
		</g>
		<path d="M837.61,429.61s16.08,23.4,36.56,22.91c20.47-.49,28.76-16.08,28.76-16.08,0,0,43.07,20.59,45.03,21.79,1.96,1.2-3.34,31.2-9.66,40.98-6.32,9.78,0,39.29,1.81,58.41s5.42,99.2,5.42,99.2c0,0-5.47-.53-13.4,2.48-10.95,4.16-27.42,12.26-48.12,12.5-35.69,.41-58.81-6.49-65.71-6.08-6.9,.41-17.44,.41-17.44,.41,0,0-4.46-6.08-3.65-19.88,.81-13.79,4.87-27.18,11.36-48.27s3.65-79.5,0-97.35-23.74-50.16-16.85-54.22c6.9-4.06,45.92-16.8,45.92-16.8h-.03Z" style="fill:#f3f1e3;" />
		<path d="M757.84,518.07s17.04,5.68,27.99,9.73c10.95,4.06,29.61,3.24,29.61,3.24,0,0-7.3-93.7-22.31-85.59s-19.47,37.72-24.34,45.83c-4.87,8.11-10.95,26.77-10.95,26.77v.02Z" style="fill:#f3f1e3;" />
		<path d="M946.71,457.96c-9.75-1.83-20.55,80.8-20.55,80.8,0,0,11.36-2.84,23.93-3.65,12.57-.81,30.57-13.46,30.57-13.46,0,0-10.88-16.94-13.32-27.48-2.43-10.55-10.24-34.25-20.64-36.2h.01Z" style="fill:#f3f1e3;" />
		<path d="M769.67,643.4s2.35,16.65,3.58,21.93c1.23,5.28,14.6,44.69,16.36,48.21s11.26,13.9,11.26,13.9c0,0,3.48-2.57,2.17-5.81-1.32-3.24-6.81-9.61-7.03-10.76s-.49-5.99-.49-5.99c0,0,3.25,7.76,4.22,9.15,1.18,1.68,15.6,18.25,15.6,18.25,0,0,4.5-1.92,2.14-6.09-2.36-4.17-11-13.99-11-13.99,0,0-2.84-5.94-2.07-6.22,.77-.27,7.25,7.74,8.95,8.9s15.7,12.74,15.7,12.74c0,0,4.02-2.56,1.16-6.46s-11.21-10.51-12.58-12.54c-1.37-2.03-8.02-9.17-6.31-10.27,1.7-1.1,9.28,6.97,10.65,8.02,1.37,1.04,14.77,10.71,14.77,10.71,0,0,3.1-3.13,.13-6.21-2.97-3.07-10.87-10-12.08-11.48s-8.77-13.98-9.28-17.8-.76-7.78,.51-9.05,7.65-6.12,7.65-6.12c0,0-4.47-4.35-7.66-4.86-3.19-.51-14.8,1.9-17.48-1.04-2.68-2.93-8.04-27.59-8.04-27.59l-20.85,10.47h.02Z" style="fill:#f8c4b7;" />
		<path d="M931.71,659.44s4.98-2.88,10.62-2.43c5.64,.44,7.52,1.88,9.51-.33s.89-27.83,.89-27.83c0,0,23.66,4.93,23.33,4.93s0,23.11-1.55,27.87-7.41,32.51-7.96,35.28c-.55,2.76-9.64,11.44-10.19,12.88-.55,1.44-9.82,13.11-9.82,13.11,0,0-2.19-1.28-1.61-3.9,.36-1.6,2.43-4.56,2.43-4.56l-14.09,11.23s-3.1-3.43-1.22-5.86,12.72-12.05,12.72-12.05c0,0,2.88-3.65,2.32-4.31-.55-.66-20.35,19.46-20.35,19.46,0,0-3.41-3.54-1.2-7.85,2.21-4.31,14.91-15.37,13.8-17.25s-18.25,15.7-18.25,15.7c0,0-4.36-3.74-.93-8.38s16.74-18.93,19.4-23.91c2.65-4.98,1.88-8.18,.55-10.28-1.33-2.1-2.76-4.31-2.76-4.31,0,0-5.42-7.3-5.64-7.19v-.02Z" style="fill:#f8c4b7;" />
	</g>
</svg>
