<?xml version="1.0" encoding="UTF-8"?>
<svg id="a" xmlns="http://www.w3.org/2000/svg" xmlns:xlink="http://www.w3.org/1999/xlink" viewBox="0 0 1920 1080">
	<defs>
		<style>
			.q,.r{fill:none;}.s{fill:#006796;}.t{fill:#0084b3;}.u{fill:#008fba;}.v{fill:#6a5742;}.w{fill:#eeeef0;}.x{fill:#f1d8b3;}.y{fill:#e87730;}.a`{fill:#ffed00;}.aa{fill:#009f5f;}.ab{fill:#b98743;}.ac{fill:#bf5f25;}.ad{fill:#c48648;}.ae{fill:#c4c7c9;}.af{fill:#d5d7d9;}.ag{fill:#b39746;}.ah{fill:#235a96;}.ai{fill:#1e2032;}.aj{fill:#244133;}.ak{fill:#222d44;}.al{fill:#413f52;}.am{fill:#9b4632;}.an{fill:#31405d;}.ao{fill:#2f2b39;}.ap{fill:#2762a3;}.aq{clip-path:url(#c);}.ar{clip-path:url(#f);}.as{clip-path:url(#e);}.at{clip-path:url(#d);}.au{clip-path:url(#n);}.av{clip-path:url(#m);}.aw{clip-path:url(#l);}.ax{clip-path:url(#k);}.ay{clip-path:url(#j);}.b`{clip-path:url(#i);}.ba{clip-path:url(#h);}.bb{clip-path:url(#g);}.bc{clip-path:url(#p);}.bd{clip-path:url(#o);}.r{stroke:#b39746;stroke-linejoin:round;stroke-width:1.59px;}
		</style>
		<clipPath id="c">
			<rect width="1920" height="1080" style="fill:none;" />
		</clipPath>
		<clipPath id="d">
			<rect width="1920" height="1080" style="fill:none;" />
		</clipPath>
		<clipPath id="e">
			<rect width="1920" height="1080" style="fill:none;" />
		</clipPath>
		<clipPath id="f">
			<polygon points="1204.8 485.5 1203.1 920.9 1413.1 915.5 1410.3 489.1 1204.8 485.5" style="fill:none;" />
		</clipPath>
		<clipPath id="g">
			<polygon points="1204.8 485.5 1203.1 920.9 1413.1 915.5 1410.3 489.1 1204.8 485.5" style="fill:none;" />
		</clipPath>
		<clipPath id="h">
			<polygon points="1428.6 487.9 1432.6 913.7 1624.5 914 1619.8 484.7 1428.6 487.9" style="fill:none;" />
		</clipPath>
		<clipPath id="i">
			<polygon points="1428.6 487.9 1432.6 913.7 1624.5 914 1619.8 484.7 1428.6 487.9" style="fill:none;" />
		</clipPath>
		<clipPath id="j">
			<rect width="1920" height="1080" style="fill:none;" />
		</clipPath>
		<clipPath id="k">
			<rect width="1920" height="1080" style="fill:none;" />
		</clipPath>
		<clipPath id="l">
			<rect width="1920" height="1080" style="fill:none;" />
		</clipPath>
		<clipPath id="m">
			<rect width="1920" height="1080" style="fill:none;" />
		</clipPath>
		<clipPath id="n">
			<rect width="1920" height="1080" style="fill:none;" />
		</clipPath>
		<clipPath id="o">
			<rect width="1920" height="1080" style="fill:none;" />
		</clipPath>
		<clipPath id="p">
			<path d="M622.98,312.94s14.27-17.38,43.87-17.34c29.61,.04,37.95,13.14,37.95,13.14,0,0-.52-24.02-7.81-34.64s-29.92-19.74-36.46-20.47c-6.54-.73-27.1,16.08-31.51,21.87-4.42,5.8-7.29,35.85-6.04,37.43h0Z" style="fill:none;" />
		</clipPath>
	</defs>
	<g id="b">
		<g>
			<g style="clip-path:url(#c);">
				<rect x="-91.7" y="-55.5" width="2184.2" height="1136.8" style="fill:#bf5f25;" />
			</g>
			<g style="clip-path:url(#d);">
				<g>
					<g>
						<polygon points="7.3 508.9 6.7 541.8 -53.5 542.3 -54 508.9 7.3 508.9" style="fill:#e87730;" />
						<polygon points="12.9 509.2 12.9 542.1 88.5 541.6 87.6 509.6 12.9 509.2" style="fill:#e87730;" />
						<polygon points="95.1 509.4 95.1 541.8 150.3 541.4 150.3 510.3 95.1 509.4" style="fill:#e87730;" />
						<polygon points="299.2 508.9 299.7 541.8 360 542.3 360.5 508.9 299.2 508.9" style="fill:#e87730;" />
						<polygon points="293.6 509.2 293.6 542.1 218 541.6 219.5 510.2 293.6 509.2" style="fill:#e87730;" />
						<polygon points="211.4 509.4 211.4 541.8 156.2 541.4 156.2 510.3 211.4 509.4" style="fill:#e87730;" />
						<polygon points="511.1 509.2 512.7 542.9 440.6 542.9 441.1 508.3 511.1 509.2" style="fill:#e87730;" />
						<polygon points="434 508 365.8 510 365 543.2 434.5 543.2 434 508" style="fill:#e87730;" />
						<polygon points="578.8 508.9 578.3 541.8 518 542.3 517.5 508.9 578.8 508.9" style="fill:#e87730;" />
						<polygon points="584.4 509.2 584.4 542.1 660 541.6 659.1 509.6 584.4 509.2" style="fill:#e87730;" />
						<polygon points="666.7 509.4 666.7 541.8 721.8 541.4 721.8 510.3 666.7 509.4" style="fill:#e87730;" />
						<polygon points="870.8 508.9 871.3 541.8 931.6 542.3 932.1 508.9 870.8 508.9" style="fill:#e87730;" />
						<polygon points="865.2 509.2 865.2 542.1 789.5 541.6 791 510.2 865.2 509.2" style="fill:#e87730;" />
						<polygon points="782.9 509.4 782.9 541.8 727.7 541.4 727.7 510.3 782.9 509.4" style="fill:#e87730;" />
						<polygon points="1084.1 509.2 1085.6 542.9 1013.6 542.9 1014.1 508.3 1084.1 509.2" style="fill:#e87730;" />
						<polygon points="1006.9 508 938.7 510 938 543.2 1007.5 543.2 1006.9 508" style="fill:#e87730;" />
						<polygon points="1151.8 508.9 1151.2 541.8 1091 542.3 1090.5 508.9 1151.8 508.9" style="fill:#e87730;" />
						<polygon points="1157.4 509.2 1157.4 542.1 1233 541.6 1232.1 509.6 1157.4 509.2" style="fill:#e87730;" />
						<polygon points="1239.6 509.4 1239.6 541.8 1294.8 541.4 1294.8 510.3 1239.6 509.4" style="fill:#e87730;" />
						<polygon points="1443.7 508.9 1444.3 541.8 1504.5 542.3 1505 508.9 1443.7 508.9" style="fill:#e87730;" />
						<polygon points="1438.1 509.2 1438.1 542.1 1362.5 541.6 1364 510.2 1438.1 509.2" style="fill:#e87730;" />
						<polygon points="1355.9 509.4 1355.9 541.8 1300.7 541.4 1300.7 510.3 1355.9 509.4" style="fill:#e87730;" />
						<polygon points="1658.6 509.2 1660.1 542.9 1588.1 542.9 1588.6 508.3 1658.6 509.2" style="fill:#e87730;" />
						<polygon points="1581.5 508 1513.2 510 1512.5 543.2 1582 543.2 1581.5 508" style="fill:#e87730;" />
						<polygon points="1726.3 508.9 1725.8 541.8 1665.5 542.3 1665 508.9 1726.3 508.9" style="fill:#e87730;" />
						<polygon points="1731.9 509.2 1731.9 542.1 1807.5 541.6 1806.6 509.6 1731.9 509.2" style="fill:#e87730;" />
						<polygon points="1814.1 509.4 1814.1 541.8 1869.3 541.4 1869.3 510.3 1814.1 509.4" style="fill:#e87730;" />
						<polygon points="1930.4 509.4 1930.4 541.8 1875.2 541.4 1875.2 510.3 1930.4 509.4" style="fill:#e87730;" />
					</g>
					<g>
						<polygon points="1798.6 547.8 1798.6 580.2 1926.3 582 1926.3 548.7 1798.6 547.8" style="fill:#e87730;" />
						<polygon points="1793.5 547.8 1793.5 580.2 1665.7 582 1665.7 548.7 1793.5 547.8" style="fill:#e87730;" />
						<polygon points="1241.7 547.8 1241.7 580.2 1369.4 582 1369.4 548.7 1241.7 547.8" style="fill:#e87730;" />
						<polygon points="1236.6 547.8 1236.6 580.2 1108.8 582 1108.8 548.7 1236.6 547.8" style="fill:#e87730;" />
						<path d="M1660.6,548.7v32.4l-135.9-.4-.5-31.6,136.4-.4Z" style="fill:#e87730;" />
						<polygon points="1519.1 550.5 1519.6 580.7 1373.5 581.1 1374.1 548.7 1519.1 550.5" style="fill:#e87730;" />
						<polygon points="413.9 547.8 413.9 580.2 286.1 582 286.1 548.7 413.9 547.8" style="fill:#e87730;" />
						<path d="M281,548.7v32.4l-135.9-.4-.5-31.6,136.4-.4Z" style="fill:#e87730;" />
						<polygon points="139.5 549.9 140 580.1 -6.1 580.5 -6.7 549.3 139.5 549.9" style="fill:#e87730;" />
						<polygon points="419 547.8 419 580.2 546.7 582 546.7 548.7 419 547.8" style="fill:#e87730;" />
						<polygon points="970.8 547.8 970.8 580.2 843 582 843 548.7 970.8 547.8" style="fill:#e87730;" />
						<polygon points="975.9 547.8 975.9 580.2 1103.6 582 1103.6 548.7 975.9 547.8" style="fill:#e87730;" />
						<path d="M551.8,548.7v32.4l135.9-.4,.5-31.6-136.4-.4Z" style="fill:#e87730;" />
						<polygon points="693.3 550.5 692.8 580.7 838.9 581.1 838.4 548.7 693.3 550.5" style="fill:#e87730;" />
					</g>
					<g>
						<polygon points="240.8 666.1 240.3 699 180 699.5 179.5 666.1 240.8 666.1" style="fill:#e87730;" />
						<polygon points="173.4 666.3 173.9 699.7 106 699.7 105.7 665.9 173.4 666.3" style="fill:#e87730;" />
						<polygon points="97.8 666.3 99.3 700.1 27.3 700.1 27.8 665.4 97.8 666.3" style="fill:#e87730;" />
						<polygon points="246.4 666.3 246.4 699.2 322 698.8 320 667.7 246.4 666.3" style="fill:#e87730;" />
						<polygon points="328.7 666.6 328.7 699 383.9 698.6 383.9 667.4 328.7 666.6" style="fill:#e87730;" />
						<polygon points="444.1 666.3 445.2 697.9 390 699.2 389 667.7 444.1 666.3" style="fill:#e87730;" />
						<polygon points="21.2 666.3 22.3 697.9 -32.9 699.2 -33.9 667.7 21.2 666.3" style="fill:#e87730;" />
						<polygon points="1934.1 666.1 1933.6 699 1873.4 699.5 1872.8 666.1 1934.1 666.1" style="fill:#e87730;" />
						<polygon points="1866.7 666.3 1867.2 699.7 1799.3 699.7 1799 665.9 1866.7 666.3" style="fill:#e87730;" />
						<polygon points="1791.1 666.3 1792.6 700.1 1720.6 700.1 1721.1 665.4 1791.1 666.3" style="fill:#e87730;" />
						<polygon points="1511.2 666.1 1510.7 699 1450.4 699.5 1449.9 666.1 1511.2 666.1" style="fill:#e87730;" />
						<polygon points="1443.8 666.3 1444.3 699.7 1376.4 699.7 1376.1 665.9 1443.8 666.3" style="fill:#e87730;" />
						<polygon points="1368.2 666.3 1369.7 700.1 1297.7 700.1 1298.2 665.4 1368.2 666.3" style="fill:#e87730;" />
						<polygon points="1516.9 666.3 1516.9 699.2 1592.5 698.8 1590.4 667.7 1516.9 666.3" style="fill:#e87730;" />
						<polygon points="1599.1 666.6 1599.1 699 1654.3 698.6 1654.3 667.4 1599.1 666.6" style="fill:#e87730;" />
						<polygon points="1714.6 666.3 1715.6 697.9 1660.4 699.2 1659.4 667.7 1714.6 666.3" style="fill:#e87730;" />
						<polygon points="655 666.1 655.5 699 715.7 699.5 716.3 666.1 655 666.1" style="fill:#e87730;" />
						<polygon points="722.4 666.3 721.9 699.7 789.8 699.7 790.1 665.9 722.4 666.3" style="fill:#e87730;" />
						<polygon points="798 666.3 796.5 700.1 868.5 700.1 868 665.4 798 666.3" style="fill:#e87730;" />
						<polygon points="649.3 666.3 649.3 699.2 573.7 698.8 575.8 667.7 649.3 666.3" style="fill:#e87730;" />
						<polygon points="567.1 666.6 567.1 699 511.9 698.6 511.9 667.4 567.1 666.6" style="fill:#e87730;" />
						<polygon points="451.6 666.3 450.6 697.9 505.8 699.2 506.8 667.7 451.6 666.3" style="fill:#e87730;" />
						<polygon points="1077.9 666.1 1078.4 699 1138.7 699.5 1139.2 666.1 1077.9 666.1" style="fill:#e87730;" />
						<polygon points="1145.3 666.3 1144.8 699.7 1212.7 699.7 1213 665.9 1145.3 666.3" style="fill:#e87730;" />
						<polygon points="1220.9 666.3 1219.4 700.1 1291.4 700.1 1290.9 665.4 1220.9 666.3" style="fill:#e87730;" />
						<polygon points="1072.2 666.3 1072.2 699.2 996.6 698.8 998.7 667.7 1072.2 666.3" style="fill:#e87730;" />
						<polygon points="990 666.6 990 699 934.8 698.6 934.8 667.4 990 666.6" style="fill:#e87730;" />
						<polygon points="874.5 666.3 873.5 697.9 928.7 699.2 929.7 667.7 874.5 666.3" style="fill:#e87730;" />
					</g>
					<g>
						<polygon points="491.2 627 492.2 658.6 437.1 659.9 436.1 628.4 491.2 627" style="fill:#e87730;" />
						<path d="M430,627.3v32.4l-135.9-.4-.5-31.6,136.4-.4Z" style="fill:#e87730;" />
						<polygon points="288.5 629 289 659.3 142.9 659.7 143.5 627.3 288.5 629" style="fill:#e87730;" />
						<polygon points="845 627 846 658.6 790.9 659.9 789.8 628.4 845 627" style="fill:#e87730;" />
						<path d="M783.8,627.3v32.4l-135.9-.4-.5-31.6,136.4-.4Z" style="fill:#e87730;" />
						<polygon points="642.3 629 642.8 659.3 496.7 659.7 497.2 627.3 642.3 629" style="fill:#e87730;" />
						<polygon points="1199.9 627 1201 658.6 1145.8 659.9 1144.8 628.4 1199.9 627" style="fill:#e87730;" />
						<path d="M1138.7,627.3v32.4l-135.9-.4-.5-31.6,136.4-.4Z" style="fill:#e87730;" />
						<polygon points="997.2 629 997.8 659.3 851.7 659.7 852.2 627.3 997.2 629" style="fill:#e87730;" />
						<polygon points="133.6 627 134.6 658.6 79.5 659.9 78.5 628.4 133.6 627" style="fill:#e87730;" />
						<path d="M72.4,627.3v32.4l-135.9-.4-.5-31.6,136.4-.4Z" style="fill:#e87730;" />
						<polygon points="1556.8 627 1557.8 658.6 1502.6 659.9 1501.6 628.4 1556.8 627" style="fill:#e87730;" />
						<path d="M1495.6,627.3v32.4l-135.9-.4-.5-31.6,136.4-.4Z" style="fill:#e87730;" />
						<polygon points="1354.1 629 1354.6 659.3 1208.5 659.7 1209 627.3 1354.1 629" style="fill:#e87730;" />
						<polygon points="1910.6 627 1911.6 658.6 1856.4 659.9 1855.4 628.4 1910.6 627" style="fill:#e87730;" />
						<path d="M1849.4,627.3v32.4l-135.9-.4-.5-31.6,136.4-.4Z" style="fill:#e87730;" />
						<polygon points="1707.9 629 1708.4 659.3 1562.3 659.7 1562.8 627.3 1707.9 629" style="fill:#e87730;" />
					</g>
					<g>
						<polygon points="1626.8 587.5 1626.3 620.4 1566.1 620.9 1565.5 587.5 1626.8 587.5" style="fill:#e87730;" />
						<polygon points="1559.4 587.5 1559.9 620.9 1492 620.9 1492.5 587.5 1559.4 587.5" style="fill:#e87730;" />
						<polygon points="1485.8 588.2 1485.3 621 1413.3 621 1414.1 587.4 1485.8 588.2" style="fill:#e87730;" />
						<polygon points="1408 587.5 1337.2 588.8 1337.7 620.9 1408 619.6 1408 587.5" style="fill:#e87730;" />
						<polygon points="1632.5 587.7 1632.5 620.6 1708.1 620.2 1707.8 588.7 1632.5 587.7" style="fill:#e87730;" />
						<polygon points="1714.7 588.8 1714.7 621.3 1769.9 620.8 1768.8 587.1 1714.7 588.8" style="fill:#e87730;" />
						<polygon points="1833.1 587.6 1832.4 620.8 1776 620.4 1776.7 588.3 1833.1 587.6" style="fill:#e87730;" />
						<polygon points="1955.9 588.8 1955.9 621.3 1900.7 620.8 1901.8 587.1 1955.9 588.8" style="fill:#e87730;" />
						<polygon points="1837.5 587.6 1838.2 620.8 1894.6 620.4 1893.9 588.3 1837.5 587.6" style="fill:#e87730;" />
						<polygon points="627.1 587.5 626.6 620.4 566.3 620.9 565.8 587.5 627.1 587.5" style="fill:#e87730;" />
						<polygon points="559.7 587.5 560.2 620.9 492.3 620.9 492.8 587.5 559.7 587.5" style="fill:#e87730;" />
						<polygon points="486.1 588.2 485.6 621 413.6 621 414.4 587.4 486.1 588.2" style="fill:#e87730;" />
						<polygon points="408.3 587.5 337.5 588.8 338 620.9 408.3 619.6 408.3 587.5" style="fill:#e87730;" />
						<polygon points="632.7 587.7 632.7 620.6 708.3 620.2 708.1 588.7 632.7 587.7" style="fill:#e87730;" />
						<polygon points="715 588.8 715 621.3 770.2 620.8 769 587.1 715 588.8" style="fill:#e87730;" />
						<polygon points="833.4 587.6 832.7 620.8 776.3 620.4 777 588.3 833.4 587.6" style="fill:#e87730;" />
						<polygon points="1044 587.5 1044.5 620.4 1104.8 620.9 1105.3 587.5 1044 587.5" style="fill:#e87730;" />
						<polygon points="1111.5 587.5 1111 620.9 1178.9 620.9 1178.4 587.5 1111.5 587.5" style="fill:#e87730;" />
						<polygon points="1185 588.2 1185.5 621 1257.6 621 1256.8 587.4 1185 588.2" style="fill:#e87730;" />
						<polygon points="1262.9 587.5 1333.6 588.8 1333.2 620.9 1262.9 619.6 1262.9 587.5" style="fill:#e87730;" />
						<polygon points="1038.4 587.7 1038.4 620.6 962.8 620.2 963 588.7 1038.4 587.7" style="fill:#e87730;" />
						<polygon points="956.2 588.8 956.2 621.3 901 620.8 902.1 587.1 956.2 588.8" style="fill:#e87730;" />
						<polygon points="837.8 587.6 838.5 620.8 894.9 620.4 894.2 588.3 837.8 587.6" style="fill:#e87730;" />
						<polygon points="43.2 587.5 43.7 620.4 103.9 620.9 104.5 587.5 43.2 587.5" style="fill:#e87730;" />
						<polygon points="110.6 587.5 110.1 620.9 178 620.9 177.5 587.5 110.6 587.5" style="fill:#e87730;" />
						<polygon points="184.2 588.2 184.7 621 256.7 621 255.9 587.4 184.2 588.2" style="fill:#e87730;" />
						<polygon points="262 587.5 332.8 588.8 332.3 620.9 262 619.6 262 587.5" style="fill:#e87730;" />
						<polygon points="37.5 587.7 37.5 620.6 -38.1 620.2 -37.8 588.7 37.5 587.7" style="fill:#e87730;" />
					</g>
					<g>
						<polygon points="7.3 705.4 6.7 738.3 -53.5 738.7 -54 705.4 7.3 705.4" style="fill:#e87730;" />
						<polygon points="12.9 705.6 12.9 738.5 88.5 738.1 87.6 706.1 12.9 705.6" style="fill:#e87730;" />
						<polygon points="95.1 705.9 95.1 738.3 150.3 737.9 150.3 706.7 95.1 705.9" style="fill:#e87730;" />
						<polygon points="299.2 705.4 299.7 738.3 360 738.7 360.5 705.4 299.2 705.4" style="fill:#e87730;" />
						<polygon points="293.6 705.6 293.6 738.5 218 738.1 219.5 706.7 293.6 705.6" style="fill:#e87730;" />
						<polygon points="211.4 705.9 211.4 738.3 156.2 737.9 156.2 706.7 211.4 705.9" style="fill:#e87730;" />
						<polygon points="511.1 705.6 512.7 739.4 440.6 739.4 441.1 704.7 511.1 705.6" style="fill:#e87730;" />
						<polygon points="434 704.5 365.8 706.5 365 739.6 434.5 739.6 434 704.5" style="fill:#e87730;" />
						<polygon points="578.8 705.4 578.3 738.3 518 738.7 517.5 705.4 578.8 705.4" style="fill:#e87730;" />
						<polygon points="584.4 705.6 584.4 738.5 660 738.1 659.1 706.1 584.4 705.6" style="fill:#e87730;" />
						<polygon points="666.7 705.9 666.7 738.3 721.8 737.9 721.8 706.7 666.7 705.9" style="fill:#e87730;" />
						<polygon points="870.8 705.4 871.3 738.3 931.6 738.7 932.1 705.4 870.8 705.4" style="fill:#e87730;" />
						<polygon points="865.2 705.6 865.2 738.5 789.5 738.1 791 706.7 865.2 705.6" style="fill:#e87730;" />
						<polygon points="782.9 705.9 782.9 738.3 727.7 737.9 727.7 706.7 782.9 705.9" style="fill:#e87730;" />
						<polygon points="1084.1 705.6 1085.6 739.4 1013.6 739.4 1014.1 704.7 1084.1 705.6" style="fill:#e87730;" />
						<polygon points="1006.9 704.5 938.7 706.5 938 739.6 1007.5 739.6 1006.9 704.5" style="fill:#e87730;" />
						<polygon points="1151.8 705.4 1151.2 738.3 1091 738.7 1090.5 705.4 1151.8 705.4" style="fill:#e87730;" />
						<polygon points="1157.4 705.6 1157.4 738.5 1233 738.1 1232.1 706.1 1157.4 705.6" style="fill:#e87730;" />
						<polygon points="1239.6 705.9 1239.6 738.3 1294.8 737.9 1294.8 706.7 1239.6 705.9" style="fill:#e87730;" />
						<polygon points="1443.7 705.4 1444.3 738.3 1504.5 738.7 1505 705.4 1443.7 705.4" style="fill:#e87730;" />
						<polygon points="1438.1 705.6 1438.1 738.5 1362.5 738.1 1364 706.7 1438.1 705.6" style="fill:#e87730;" />
						<polygon points="1355.9 705.9 1355.9 738.3 1300.7 737.9 1300.7 706.7 1355.9 705.9" style="fill:#e87730;" />
						<polygon points="1658.6 705.6 1660.1 739.4 1588.1 739.4 1588.6 704.7 1658.6 705.6" style="fill:#e87730;" />
						<polygon points="1581.5 704.5 1513.2 706.5 1512.5 739.6 1582 739.6 1581.5 704.5" style="fill:#e87730;" />
						<polygon points="1726.3 705.4 1725.8 738.3 1665.5 738.7 1665 705.4 1726.3 705.4" style="fill:#e87730;" />
						<polygon points="1731.9 705.6 1731.9 738.5 1807.5 738.1 1806.6 706.1 1731.9 705.6" style="fill:#e87730;" />
						<polygon points="1814.1 705.9 1814.1 738.3 1869.3 737.9 1869.3 706.7 1814.1 705.9" style="fill:#e87730;" />
						<polygon points="1930.4 705.9 1930.4 738.3 1875.2 737.9 1875.2 706.7 1930.4 705.9" style="fill:#e87730;" />
					</g>
					<g>
						<polygon points="1798.6 744.3 1798.6 776.7 1926.3 778.5 1926.3 745.1 1798.6 744.3" style="fill:#e87730;" />
						<polygon points="1793.5 744.3 1793.5 776.7 1665.7 778.5 1665.7 745.1 1793.5 744.3" style="fill:#e87730;" />
						<polygon points="1241.7 744.3 1241.7 776.7 1369.4 778.5 1369.4 745.1 1241.7 744.3" style="fill:#e87730;" />
						<polygon points="1236.6 744.3 1236.6 776.7 1108.8 778.5 1108.8 745.1 1236.6 744.3" style="fill:#e87730;" />
						<path d="M1660.6,745.1v32.4l-135.9-.4-.5-31.6,136.4-.4Z" style="fill:#e87730;" />
						<polygon points="1519.1 746.9 1519.6 777.2 1373.5 777.6 1374.1 745.1 1519.1 746.9" style="fill:#e87730;" />
						<polygon points="413.9 744.3 413.9 776.7 286.1 778.5 286.1 745.1 413.9 744.3" style="fill:#e87730;" />
						<path d="M281,745.1v32.4l-135.9-.4-.5-31.6,136.4-.4Z" style="fill:#e87730;" />
						<polygon points="139.5 746.3 140 776.6 -6.1 777 -6.7 745.7 139.5 746.3" style="fill:#e87730;" />
						<polygon points="419 744.3 419 776.7 546.7 778.5 546.7 745.1 419 744.3" style="fill:#e87730;" />
						<polygon points="970.8 744.3 970.8 776.7 843 778.5 843 745.1 970.8 744.3" style="fill:#e87730;" />
						<polygon points="975.9 744.3 975.9 776.7 1103.6 778.5 1103.6 745.1 975.9 744.3" style="fill:#e87730;" />
						<path d="M551.8,745.1v32.4l135.9-.4,.5-31.6-136.4-.4Z" style="fill:#e87730;" />
						<polygon points="693.3 746.9 692.8 777.2 838.9 777.6 838.4 745.1 693.3 746.9" style="fill:#e87730;" />
					</g>
					<g>
						<polygon points="240.8 862.6 240.3 895.5 180 895.9 179.5 862.6 240.8 862.6" style="fill:#e87730;" />
						<polygon points="173.4 862.8 173.9 896.1 106 896.1 105.7 862.4 173.4 862.8" style="fill:#e87730;" />
						<polygon points="97.8 862.8 99.3 896.6 27.3 896.6 27.8 861.9 97.8 862.8" style="fill:#e87730;" />
						<polygon points="246.4 862.8 246.4 895.7 322 895.3 320 864.1 246.4 862.8" style="fill:#e87730;" />
						<polygon points="328.7 863 328.7 895.5 383.9 895 383.9 863.9 328.7 863" style="fill:#e87730;" />
						<polygon points="444.1 862.8 445.2 894.4 390 895.7 389 864.1 444.1 862.8" style="fill:#e87730;" />
						<polygon points="21.2 862.8 22.3 894.4 -32.9 895.7 -33.9 864.1 21.2 862.8" style="fill:#e87730;" />
						<polygon points="1934.1 862.6 1933.6 895.5 1873.4 895.9 1872.8 862.6 1934.1 862.6" style="fill:#e87730;" />
						<polygon points="1866.7 862.8 1867.2 896.1 1799.3 896.1 1799 862.4 1866.7 862.8" style="fill:#e87730;" />
						<polygon points="1791.1 862.8 1792.6 896.6 1720.6 896.6 1721.1 861.9 1791.1 862.8" style="fill:#e87730;" />
						<polygon points="1511.2 862.6 1510.7 895.5 1450.4 895.9 1449.9 862.6 1511.2 862.6" style="fill:#e87730;" />
						<polygon points="1443.8 862.8 1444.3 896.1 1376.4 896.1 1376.1 862.4 1443.8 862.8" style="fill:#e87730;" />
						<polygon points="1368.2 862.8 1369.7 896.6 1297.7 896.6 1298.2 861.9 1368.2 862.8" style="fill:#e87730;" />
						<polygon points="1516.9 862.8 1516.9 895.7 1592.5 895.3 1590.4 864.1 1516.9 862.8" style="fill:#e87730;" />
						<polygon points="1599.1 863 1599.1 895.5 1654.3 895 1654.3 863.9 1599.1 863" style="fill:#e87730;" />
						<polygon points="1714.6 862.8 1715.6 894.4 1660.4 895.7 1659.4 864.1 1714.6 862.8" style="fill:#e87730;" />
						<polygon points="655 862.6 655.5 895.5 715.7 895.9 716.3 862.6 655 862.6" style="fill:#e87730;" />
						<polygon points="722.4 862.8 721.9 896.1 789.8 896.1 790.1 862.4 722.4 862.8" style="fill:#e87730;" />
						<polygon points="798 862.8 796.5 896.6 868.5 896.6 868 861.9 798 862.8" style="fill:#e87730;" />
						<polygon points="649.3 862.8 649.3 895.7 573.7 895.3 575.8 864.1 649.3 862.8" style="fill:#e87730;" />
						<polygon points="567.1 863 567.1 895.5 511.9 895 511.9 863.9 567.1 863" style="fill:#e87730;" />
						<polygon points="451.6 862.8 450.6 894.4 505.8 895.7 506.8 864.1 451.6 862.8" style="fill:#e87730;" />
						<polygon points="1077.9 862.6 1078.4 895.5 1138.7 895.9 1139.2 862.6 1077.9 862.6" style="fill:#e87730;" />
						<polygon points="1145.3 862.8 1144.8 896.1 1212.7 896.1 1213 862.4 1145.3 862.8" style="fill:#e87730;" />
						<polygon points="1220.9 862.8 1219.4 896.6 1291.4 896.6 1290.9 861.9 1220.9 862.8" style="fill:#e87730;" />
						<polygon points="1072.2 862.8 1072.2 895.7 996.6 895.3 998.7 864.1 1072.2 862.8" style="fill:#e87730;" />
						<polygon points="990 863 990 895.5 934.8 895 934.8 863.9 990 863" style="fill:#e87730;" />
						<polygon points="874.5 862.8 873.5 894.4 928.7 895.7 929.7 864.1 874.5 862.8" style="fill:#e87730;" />
					</g>
					<g>
						<polygon points="491.2 823.5 492.2 855.1 437.1 856.4 436.1 824.8 491.2 823.5" style="fill:#e87730;" />
						<path d="M430,823.7v32.4l-135.9-.4-.5-31.6,136.4-.4Z" style="fill:#e87730;" />
						<polygon points="288.5 825.5 289 855.7 142.9 856.2 143.5 823.7 288.5 825.5" style="fill:#e87730;" />
						<polygon points="845 823.5 846 855.1 790.9 856.4 789.8 824.8 845 823.5" style="fill:#e87730;" />
						<path d="M783.8,823.7v32.4l-135.9-.4-.5-31.6,136.4-.4Z" style="fill:#e87730;" />
						<polygon points="642.3 825.5 642.8 855.7 496.7 856.2 497.2 823.7 642.3 825.5" style="fill:#e87730;" />
						<polygon points="1199.9 823.5 1201 855.1 1145.8 856.4 1144.8 824.8 1199.9 823.5" style="fill:#e87730;" />
						<path d="M1138.7,823.7v32.4l-135.9-.4-.5-31.6,136.4-.4Z" style="fill:#e87730;" />
						<polygon points="997.2 825.5 997.8 855.7 851.7 856.2 852.2 823.7 997.2 825.5" style="fill:#e87730;" />
						<polygon points="133.6 823.5 134.6 855.1 79.5 856.4 78.5 824.8 133.6 823.5" style="fill:#e87730;" />
						<path d="M72.4,823.7v32.4l-135.9-.4-.5-31.6,136.4-.4Z" style="fill:#e87730;" />
						<polygon points="1556.8 823.5 1557.8 855.1 1502.6 856.4 1501.6 824.8 1556.8 823.5" style="fill:#e87730;" />
						<path d="M1495.6,823.7v32.4l-135.9-.4-.5-31.6,136.4-.4Z" style="fill:#e87730;" />
						<polygon points="1354.1 825.5 1354.6 855.7 1208.5 856.2 1209 823.7 1354.1 825.5" style="fill:#e87730;" />
						<polygon points="1910.6 823.5 1911.6 855.1 1856.4 856.4 1855.4 824.8 1910.6 823.5" style="fill:#e87730;" />
						<path d="M1849.4,823.7v32.4l-135.9-.4-.5-31.6,136.4-.4Z" style="fill:#e87730;" />
						<polygon points="1707.9 825.5 1708.4 855.7 1562.3 856.2 1562.8 823.7 1707.9 825.5" style="fill:#e87730;" />
					</g>
					<g>
						<polygon points="1626.8 784 1626.3 816.9 1566.1 817.3 1565.5 784 1626.8 784" style="fill:#e87730;" />
						<polygon points="1559.4 784 1559.9 817.3 1492 817.3 1492.5 784 1559.4 784" style="fill:#e87730;" />
						<polygon points="1485.8 784.7 1485.3 817.4 1413.3 817.4 1414.1 783.9 1485.8 784.7" style="fill:#e87730;" />
						<polygon points="1408 784 1337.2 785.3 1337.7 817.3 1408 816.1 1408 784" style="fill:#e87730;" />
						<polygon points="1632.5 784.2 1632.5 817.1 1708.1 816.7 1707.8 785.2 1632.5 784.2" style="fill:#e87730;" />
						<polygon points="1714.7 785.3 1714.7 817.7 1769.9 817.3 1768.8 783.6 1714.7 785.3" style="fill:#e87730;" />
						<polygon points="1833.1 784.1 1832.4 817.3 1776 816.9 1776.7 784.8 1833.1 784.1" style="fill:#e87730;" />
						<polygon points="1955.9 785.3 1955.9 817.7 1900.7 817.3 1901.8 783.6 1955.9 785.3" style="fill:#e87730;" />
						<polygon points="1837.5 784.1 1838.2 817.3 1894.6 816.9 1893.9 784.8 1837.5 784.1" style="fill:#e87730;" />
						<polygon points="627.1 784 626.6 816.9 566.3 817.3 565.8 784 627.1 784" style="fill:#e87730;" />
						<polygon points="559.7 784 560.2 817.3 492.3 817.3 492.8 784 559.7 784" style="fill:#e87730;" />
						<polygon points="486.1 784.7 485.6 817.4 413.6 817.4 414.4 783.9 486.1 784.7" style="fill:#e87730;" />
						<polygon points="408.3 784 337.5 785.3 338 817.3 408.3 816.1 408.3 784" style="fill:#e87730;" />
						<polygon points="632.7 784.2 632.7 817.1 708.3 816.7 708.1 785.2 632.7 784.2" style="fill:#e87730;" />
						<polygon points="715 785.3 715 817.7 770.2 817.3 769 783.6 715 785.3" style="fill:#e87730;" />
						<polygon points="833.4 784.1 832.7 817.3 776.3 816.9 777 784.8 833.4 784.1" style="fill:#e87730;" />
						<polygon points="1044 784 1044.5 816.9 1104.8 817.3 1105.3 784 1044 784" style="fill:#e87730;" />
						<polygon points="1111.5 784 1111 817.3 1178.9 817.3 1178.4 784 1111.5 784" style="fill:#e87730;" />
						<polygon points="1185 784.7 1185.5 817.4 1257.6 817.4 1256.8 783.9 1185 784.7" style="fill:#e87730;" />
						<polygon points="1262.9 784 1333.6 785.3 1333.2 817.3 1262.9 816.1 1262.9 784" style="fill:#e87730;" />
						<polygon points="1038.4 784.2 1038.4 817.1 962.8 816.7 963 785.2 1038.4 784.2" style="fill:#e87730;" />
						<polygon points="956.2 785.3 956.2 817.7 901 817.3 902.1 783.6 956.2 785.3" style="fill:#e87730;" />
						<polygon points="837.8 784.1 838.5 817.3 894.9 816.9 894.2 784.8 837.8 784.1" style="fill:#e87730;" />
						<polygon points="43.2 784 43.7 816.9 103.9 817.3 104.5 784 43.2 784" style="fill:#e87730;" />
						<polygon points="110.6 784 110.1 817.3 178 817.3 177.5 784 110.6 784" style="fill:#e87730;" />
						<polygon points="184.2 784.7 184.7 817.4 256.7 817.4 255.9 783.9 184.2 784.7" style="fill:#e87730;" />
						<polygon points="262 784 332.8 785.3 332.3 817.3 262 816.1 262 784" style="fill:#e87730;" />
						<polygon points="37.5 784.2 37.5 817.1 -38.1 816.7 -37.8 785.2 37.5 784.2" style="fill:#e87730;" />
					</g>
					<g>
						<polygon points="1798.6 940.7 1798.6 973.2 1926.3 975 1926.3 941.6 1798.6 940.7" style="fill:#e87730;" />
						<polygon points="1793.5 940.7 1793.5 973.2 1665.7 975 1665.7 941.6 1793.5 940.7" style="fill:#e87730;" />
						<polygon points="1241.7 940.7 1241.7 973.2 1369.4 975 1369.4 941.6 1241.7 940.7" style="fill:#e87730;" />
						<polygon points="1236.6 940.7 1236.6 973.2 1108.8 975 1108.8 941.6 1236.6 940.7" style="fill:#e87730;" />
						<path d="M1660.6,941.6v32.4l-135.9-.4-.5-31.6,136.4-.4Z" style="fill:#e87730;" />
						<polygon points="1519.1 943.4 1519.6 973.6 1373.5 974.1 1374.1 941.6 1519.1 943.4" style="fill:#e87730;" />
						<polygon points="413.9 940.7 413.9 973.2 286.1 975 286.1 941.6 413.9 940.7" style="fill:#e87730;" />
						<path d="M281,941.6v32.4l-135.9-.4-.5-31.6,136.4-.4Z" style="fill:#e87730;" />
						<polygon points="139.5 942.8 140 973 -6.1 973.5 -6.7 942.2 139.5 942.8" style="fill:#e87730;" />
						<polygon points="419 940.7 419 973.2 546.7 975 546.7 941.6 419 940.7" style="fill:#e87730;" />
						<polygon points="970.8 940.7 970.8 973.2 843 975 843 941.6 970.8 940.7" style="fill:#e87730;" />
						<polygon points="975.9 940.7 975.9 973.2 1103.6 975 1103.6 941.6 975.9 940.7" style="fill:#e87730;" />
						<path d="M551.8,941.6v32.4l135.9-.4,.5-31.6-136.4-.4Z" style="fill:#e87730;" />
						<polygon points="693.3 943.4 692.8 973.6 838.9 974.1 838.4 941.6 693.3 943.4" style="fill:#e87730;" />
					</g>
					<g>
						<polygon points="1626.8 980.5 1626.3 1013.4 1566.1 1013.8 1565.5 980.5 1626.8 980.5" style="fill:#e87730;" />
						<polygon points="1559.4 980.5 1559.9 1013.8 1492 1013.8 1492.5 980.5 1559.4 980.5" style="fill:#e87730;" />
						<polygon points="1485.8 981.2 1485.3 1013.9 1413.3 1013.9 1414.1 980.4 1485.8 981.2" style="fill:#e87730;" />
						<polygon points="1408 980.5 1337.2 981.8 1337.7 1013.8 1408 1012.6 1408 980.5" style="fill:#e87730;" />
						<polygon points="1632.5 980.7 1632.5 1013.6 1708.1 1013.1 1707.8 981.7 1632.5 980.7" style="fill:#e87730;" />
						<polygon points="1714.7 981.8 1714.7 1014.2 1769.9 1013.8 1768.8 980.1 1714.7 981.8" style="fill:#e87730;" />
						<polygon points="1833.1 980.5 1832.4 1013.8 1776 1013.4 1776.7 981.3 1833.1 980.5" style="fill:#e87730;" />
						<polygon points="1955.9 981.8 1955.9 1014.2 1900.7 1013.8 1901.8 980.1 1955.9 981.8" style="fill:#e87730;" />
						<polygon points="1837.5 980.5 1838.2 1013.8 1894.6 1013.4 1893.9 981.3 1837.5 980.5" style="fill:#e87730;" />
						<polygon points="627.1 980.5 626.6 1013.4 566.3 1013.8 565.8 980.5 627.1 980.5" style="fill:#e87730;" />
						<polygon points="559.7 980.5 560.2 1013.8 492.3 1013.8 492.8 980.5 559.7 980.5" style="fill:#e87730;" />
						<polygon points="486.1 981.2 485.6 1013.9 413.6 1013.9 414.4 980.4 486.1 981.2" style="fill:#e87730;" />
						<polygon points="408.3 980.5 337.5 981.8 338 1013.8 408.3 1012.6 408.3 980.5" style="fill:#e87730;" />
						<polygon points="632.7 980.7 632.7 1013.6 708.3 1013.1 708.1 981.7 632.7 980.7" style="fill:#e87730;" />
						<polygon points="715 981.8 715 1014.2 770.2 1013.8 769 980.1 715 981.8" style="fill:#e87730;" />
						<polygon points="833.4 980.5 832.7 1013.8 776.3 1013.4 777 981.3 833.4 980.5" style="fill:#e87730;" />
						<polygon points="1044 980.5 1044.5 1013.4 1104.8 1013.8 1105.3 980.5 1044 980.5" style="fill:#e87730;" />
						<polygon points="1111.5 980.5 1111 1013.8 1178.9 1013.8 1178.4 980.5 1111.5 980.5" style="fill:#e87730;" />
						<polygon points="1185 981.2 1185.5 1013.9 1257.6 1013.9 1256.8 980.4 1185 981.2" style="fill:#e87730;" />
						<polygon points="1262.9 980.5 1333.6 981.8 1333.2 1013.8 1262.9 1012.6 1262.9 980.5" style="fill:#e87730;" />
						<polygon points="1038.4 980.7 1038.4 1013.6 962.8 1013.1 963 981.7 1038.4 980.7" style="fill:#e87730;" />
						<polygon points="956.2 981.8 956.2 1014.2 901 1013.8 902.1 980.1 956.2 981.8" style="fill:#e87730;" />
						<polygon points="837.8 980.5 838.5 1013.8 894.9 1013.4 894.2 981.3 837.8 980.5" style="fill:#e87730;" />
						<polygon points="43.2 980.5 43.7 1013.4 103.9 1013.8 104.5 980.5 43.2 980.5" style="fill:#e87730;" />
						<polygon points="110.6 980.5 110.1 1013.8 178 1013.8 177.5 980.5 110.6 980.5" style="fill:#e87730;" />
						<polygon points="184.2 981.2 184.7 1013.9 256.7 1013.9 255.9 980.4 184.2 981.2" style="fill:#e87730;" />
						<polygon points="262 980.5 332.8 981.8 332.3 1013.8 262 1012.6 262 980.5" style="fill:#e87730;" />
						<polygon points="37.5 980.7 37.5 1013.6 -38.1 1013.1 -37.8 981.7 37.5 980.7" style="fill:#e87730;" />
					</g>
					<g>
						<polygon points="7.3 312.5 6.7 345.4 -53.5 345.8 -54 312.5 7.3 312.5" style="fill:#e87730;" />
						<polygon points="12.9 312.7 12.9 345.6 88.5 345.1 87.6 313.1 12.9 312.7" style="fill:#e87730;" />
						<polygon points="95.1 312.9 95.1 345.4 150.3 344.9 150.3 313.8 95.1 312.9" style="fill:#e87730;" />
						<polygon points="299.2 312.5 299.7 345.4 360 345.8 360.5 312.5 299.2 312.5" style="fill:#e87730;" />
						<polygon points="293.6 312.7 293.6 345.6 218 345.1 219.5 313.7 293.6 312.7" style="fill:#e87730;" />
						<polygon points="211.4 312.9 211.4 345.4 156.2 344.9 156.2 313.8 211.4 312.9" style="fill:#e87730;" />
						<polygon points="511.1 312.7 512.7 346.5 440.6 346.5 441.1 311.8 511.1 312.7" style="fill:#e87730;" />
						<polygon points="434 311.6 365.8 313.5 365 346.7 434.5 346.7 434 311.6" style="fill:#e87730;" />
						<polygon points="578.8 312.5 578.3 345.4 518 345.8 517.5 312.5 578.8 312.5" style="fill:#e87730;" />
						<polygon points="584.4 312.7 584.4 345.6 660 345.1 659.1 313.1 584.4 312.7" style="fill:#e87730;" />
						<polygon points="666.7 312.9 666.7 345.4 721.8 344.9 721.8 313.8 666.7 312.9" style="fill:#e87730;" />
						<polygon points="870.8 312.5 871.3 345.4 931.6 345.8 932.1 312.5 870.8 312.5" style="fill:#e87730;" />
						<polygon points="865.2 312.7 865.2 345.6 789.5 345.1 791 313.7 865.2 312.7" style="fill:#e87730;" />
						<polygon points="782.9 312.9 782.9 345.4 727.7 344.9 727.7 313.8 782.9 312.9" style="fill:#e87730;" />
						<polygon points="1084.1 312.7 1085.6 346.5 1013.6 346.5 1014.1 311.8 1084.1 312.7" style="fill:#e87730;" />
						<polygon points="1006.9 311.6 938.7 313.5 938 346.7 1007.5 346.7 1006.9 311.6" style="fill:#e87730;" />
						<polygon points="1151.8 312.5 1151.2 345.4 1091 345.8 1090.5 312.5 1151.8 312.5" style="fill:#e87730;" />
						<polygon points="1157.4 312.7 1157.4 345.6 1233 345.1 1232.1 313.1 1157.4 312.7" style="fill:#e87730;" />
						<polygon points="1239.6 312.9 1239.6 345.4 1294.8 344.9 1294.8 313.8 1239.6 312.9" style="fill:#e87730;" />
						<polygon points="1443.7 312.5 1444.3 345.4 1504.5 345.8 1505 312.5 1443.7 312.5" style="fill:#e87730;" />
						<polygon points="1438.1 312.7 1438.1 345.6 1362.5 345.1 1364 313.7 1438.1 312.7" style="fill:#e87730;" />
						<polygon points="1355.9 312.9 1355.9 345.4 1300.7 344.9 1300.7 313.8 1355.9 312.9" style="fill:#e87730;" />
						<polygon points="1658.6 312.7 1660.1 346.5 1588.1 346.5 1588.6 311.8 1658.6 312.7" style="fill:#e87730;" />
						<polygon points="1581.5 311.6 1513.2 313.5 1512.5 346.7 1582 346.7 1581.5 311.6" style="fill:#e87730;" />
						<polygon points="1726.3 312.5 1725.8 345.4 1665.5 345.8 1665 312.5 1726.3 312.5" style="fill:#e87730;" />
						<polygon points="1731.9 312.7 1731.9 345.6 1807.5 345.1 1806.6 313.1 1731.9 312.7" style="fill:#e87730;" />
						<polygon points="1814.1 312.9 1814.1 345.4 1869.3 344.9 1869.3 313.8 1814.1 312.9" style="fill:#e87730;" />
						<polygon points="1930.4 312.9 1930.4 345.4 1875.2 344.9 1875.2 313.8 1930.4 312.9" style="fill:#e87730;" />
					</g>
					<g>
						<polygon points="1798.6 351.3 1798.6 383.8 1926.3 385.5 1926.3 352.2 1798.6 351.3" style="fill:#e87730;" />
						<polygon points="1793.5 351.3 1793.5 383.8 1665.7 385.5 1665.7 352.2 1793.5 351.3" style="fill:#e87730;" />
						<polygon points="1241.7 351.3 1241.7 383.8 1369.4 385.5 1369.4 352.2 1241.7 351.3" style="fill:#e87730;" />
						<polygon points="1236.6 351.3 1236.6 383.8 1108.8 385.5 1108.8 352.2 1236.6 351.3" style="fill:#e87730;" />
						<path d="M1660.6,352.2v32.4l-135.9-.4-.5-31.6,136.4-.4Z" style="fill:#e87730;" />
						<polygon points="1519.1 354 1519.6 384.2 1373.5 384.7 1374.1 352.2 1519.1 354" style="fill:#e87730;" />
						<polygon points="413.9 351.3 413.9 383.8 286.1 385.5 286.1 352.2 413.9 351.3" style="fill:#e87730;" />
						<path d="M281,352.2v32.4l-135.9-.4-.5-31.6,136.4-.4Z" style="fill:#e87730;" />
						<polygon points="139.5 353.4 140 383.6 -6.1 384.1 -6.7 352.8 139.5 353.4" style="fill:#e87730;" />
						<polygon points="419 351.3 419 383.8 546.7 385.5 546.7 352.2 419 351.3" style="fill:#e87730;" />
						<polygon points="970.8 351.3 970.8 383.8 843 385.5 843 352.2 970.8 351.3" style="fill:#e87730;" />
						<polygon points="975.9 351.3 975.9 383.8 1103.6 385.5 1103.6 352.2 975.9 351.3" style="fill:#e87730;" />
						<path d="M551.8,352.2v32.4l135.9-.4,.5-31.6-136.4-.4Z" style="fill:#e87730;" />
						<polygon points="693.3 354 692.8 384.2 838.9 384.7 838.4 352.2 693.3 354" style="fill:#e87730;" />
					</g>
					<g>
						<polygon points="240.8 469.6 240.3 502.5 180 503 179.5 469.6 240.8 469.6" style="fill:#e87730;" />
						<polygon points="173.4 469.9 173.9 503.2 106 503.2 105.7 469.4 173.4 469.9" style="fill:#e87730;" />
						<polygon points="97.8 469.9 99.3 503.6 27.3 503.6 27.8 469 97.8 469.9" style="fill:#e87730;" />
						<polygon points="246.4 469.9 246.4 502.8 322 502.3 320 471.2 246.4 469.9" style="fill:#e87730;" />
						<polygon points="328.7 470.1 328.7 502.5 383.9 502.1 383.9 471 328.7 470.1" style="fill:#e87730;" />
						<polygon points="444.1 469.9 445.2 501.4 390 502.8 389 471.2 444.1 469.9" style="fill:#e87730;" />
						<polygon points="21.2 469.9 22.3 501.4 -32.9 502.8 -33.9 471.2 21.2 469.9" style="fill:#e87730;" />
						<polygon points="1934.1 469.6 1933.6 502.5 1873.4 503 1872.8 469.6 1934.1 469.6" style="fill:#e87730;" />
						<polygon points="1866.7 469.9 1867.2 503.2 1799.3 503.2 1799 469.4 1866.7 469.9" style="fill:#e87730;" />
						<polygon points="1791.1 469.9 1792.6 503.6 1720.6 503.6 1721.1 469 1791.1 469.9" style="fill:#e87730;" />
						<polygon points="1511.2 469.6 1510.7 502.5 1450.4 503 1449.9 469.6 1511.2 469.6" style="fill:#e87730;" />
						<polygon points="1443.8 469.9 1444.3 503.2 1376.4 503.2 1376.1 469.4 1443.8 469.9" style="fill:#e87730;" />
						<polygon points="1368.2 469.9 1369.7 503.6 1297.7 503.6 1298.2 469 1368.2 469.9" style="fill:#e87730;" />
						<polygon points="1516.9 469.9 1516.9 502.8 1592.5 502.3 1590.4 471.2 1516.9 469.9" style="fill:#e87730;" />
						<polygon points="1599.1 470.1 1599.1 502.5 1654.3 502.1 1654.3 471 1599.1 470.1" style="fill:#e87730;" />
						<polygon points="1714.6 469.9 1715.6 501.4 1660.4 502.8 1659.4 471.2 1714.6 469.9" style="fill:#e87730;" />
						<polygon points="655 469.6 655.5 502.5 715.7 503 716.3 469.6 655 469.6" style="fill:#e87730;" />
						<polygon points="722.4 469.9 721.9 503.2 789.8 503.2 790.1 469.4 722.4 469.9" style="fill:#e87730;" />
						<polygon points="798 469.9 796.5 503.6 868.5 503.6 868 469 798 469.9" style="fill:#e87730;" />
						<polygon points="649.3 469.9 649.3 502.8 573.7 502.3 575.8 471.2 649.3 469.9" style="fill:#e87730;" />
						<polygon points="567.1 470.1 567.1 502.5 511.9 502.1 511.9 471 567.1 470.1" style="fill:#e87730;" />
						<polygon points="451.6 469.9 450.6 501.4 505.8 502.8 506.8 471.2 451.6 469.9" style="fill:#e87730;" />
						<polygon points="1077.9 469.6 1078.4 502.5 1138.7 503 1139.2 469.6 1077.9 469.6" style="fill:#e87730;" />
						<polygon points="1145.3 469.9 1144.8 503.2 1212.7 503.2 1213 469.4 1145.3 469.9" style="fill:#e87730;" />
						<polygon points="1220.9 469.9 1219.4 503.6 1291.4 503.6 1290.9 469 1220.9 469.9" style="fill:#e87730;" />
						<polygon points="1072.2 469.9 1072.2 502.8 996.6 502.3 998.7 471.2 1072.2 469.9" style="fill:#e87730;" />
						<polygon points="990 470.1 990 502.5 934.8 502.1 934.8 471 990 470.1" style="fill:#e87730;" />
						<polygon points="874.5 469.9 873.5 501.4 928.7 502.8 929.7 471.2 874.5 469.9" style="fill:#e87730;" />
					</g>
					<g>
						<polygon points="491.2 430.6 492.2 462.1 437.1 463.5 436.1 431.9 491.2 430.6" style="fill:#e87730;" />
						<path d="M430,430.8v32.4l-135.9-.4-.5-31.6,136.4-.4Z" style="fill:#e87730;" />
						<polygon points="288.5 432.6 289 462.8 142.9 463.2 143.5 430.8 288.5 432.6" style="fill:#e87730;" />
						<polygon points="845 430.6 846 462.1 790.9 463.5 789.8 431.9 845 430.6" style="fill:#e87730;" />
						<path d="M783.8,430.8v32.4l-135.9-.4-.5-31.6,136.4-.4Z" style="fill:#e87730;" />
						<polygon points="642.3 432.6 642.8 462.8 496.7 463.2 497.2 430.8 642.3 432.6" style="fill:#e87730;" />
						<polygon points="1199.9 430.6 1201 462.1 1145.8 463.5 1144.8 431.9 1199.9 430.6" style="fill:#e87730;" />
						<path d="M1138.7,430.8v32.4l-135.9-.4-.5-31.6,136.4-.4Z" style="fill:#e87730;" />
						<polygon points="997.2 432.6 997.8 462.8 851.7 463.2 852.2 430.8 997.2 432.6" style="fill:#e87730;" />
						<polygon points="133.6 430.6 134.6 462.1 79.5 463.5 78.5 431.9 133.6 430.6" style="fill:#e87730;" />
						<path d="M72.4,430.8v32.4l-135.9-.4-.5-31.6,136.4-.4Z" style="fill:#e87730;" />
						<polygon points="1556.8 430.6 1557.8 462.1 1502.6 463.5 1501.6 431.9 1556.8 430.6" style="fill:#e87730;" />
						<path d="M1495.6,430.8v32.4l-135.9-.4-.5-31.6,136.4-.4Z" style="fill:#e87730;" />
						<polygon points="1354.1 432.6 1354.6 462.8 1208.5 463.2 1209 430.8 1354.1 432.6" style="fill:#e87730;" />
						<polygon points="1910.6 430.6 1911.6 462.1 1856.4 463.5 1855.4 431.9 1910.6 430.6" style="fill:#e87730;" />
						<path d="M1849.4,430.8v32.4l-135.9-.4-.5-31.6,136.4-.4Z" style="fill:#e87730;" />
						<polygon points="1707.9 432.6 1708.4 462.8 1562.3 463.2 1562.8 430.8 1707.9 432.6" style="fill:#e87730;" />
					</g>
					<g>
						<polygon points="1626.8 391.1 1626.3 423.9 1566.1 424.4 1565.5 391.1 1626.8 391.1" style="fill:#e87730;" />
						<polygon points="1559.4 391.1 1559.9 424.4 1492 424.4 1492.5 391.1 1559.4 391.1" style="fill:#e87730;" />
						<polygon points="1485.8 391.8 1485.3 424.5 1413.3 424.5 1414.1 390.9 1485.8 391.8" style="fill:#e87730;" />
						<polygon points="1408 391.1 1337.2 392.4 1337.7 424.4 1408 423.2 1408 391.1" style="fill:#e87730;" />
						<polygon points="1632.5 391.3 1632.5 424.2 1708.1 423.7 1707.8 392.3 1632.5 391.3" style="fill:#e87730;" />
						<polygon points="1714.7 392.3 1714.7 424.8 1769.9 424.3 1768.8 390.7 1714.7 392.3" style="fill:#e87730;" />
						<polygon points="1833.1 391.1 1832.4 424.3 1776 424 1776.7 391.9 1833.1 391.1" style="fill:#e87730;" />
						<polygon points="1955.9 392.3 1955.9 424.8 1900.7 424.3 1901.8 390.7 1955.9 392.3" style="fill:#e87730;" />
						<polygon points="1837.5 391.1 1838.2 424.3 1894.6 424 1893.9 391.9 1837.5 391.1" style="fill:#e87730;" />
						<polygon points="627.1 391.1 626.6 423.9 566.3 424.4 565.8 391.1 627.1 391.1" style="fill:#e87730;" />
						<polygon points="559.7 391.1 560.2 424.4 492.3 424.4 492.8 391.1 559.7 391.1" style="fill:#e87730;" />
						<polygon points="486.1 391.8 485.6 424.5 413.6 424.5 414.4 390.9 486.1 391.8" style="fill:#e87730;" />
						<polygon points="408.3 391.1 337.5 392.4 338 424.4 408.3 423.2 408.3 391.1" style="fill:#e87730;" />
						<polygon points="632.7 391.3 632.7 424.2 708.3 423.7 708.1 392.3 632.7 391.3" style="fill:#e87730;" />
						<polygon points="715 392.3 715 424.8 770.2 424.3 769 390.7 715 392.3" style="fill:#e87730;" />
						<polygon points="833.4 391.1 832.7 424.3 776.3 424 777 391.9 833.4 391.1" style="fill:#e87730;" />
						<polygon points="1044 391.1 1044.5 423.9 1104.8 424.4 1105.3 391.1 1044 391.1" style="fill:#e87730;" />
						<polygon points="1111.5 391.1 1111 424.4 1178.9 424.4 1178.4 391.1 1111.5 391.1" style="fill:#e87730;" />
						<polygon points="1185 391.8 1185.5 424.5 1257.6 424.5 1256.8 390.9 1185 391.8" style="fill:#e87730;" />
						<polygon points="1262.9 391.1 1333.6 392.4 1333.2 424.4 1262.9 423.2 1262.9 391.1" style="fill:#e87730;" />
						<polygon points="1038.4 391.3 1038.4 424.2 962.8 423.7 963 392.3 1038.4 391.3" style="fill:#e87730;" />
						<polygon points="956.2 392.3 956.2 424.8 901 424.3 902.1 390.7 956.2 392.3" style="fill:#e87730;" />
						<polygon points="837.8 391.1 838.5 424.3 894.9 424 894.2 391.9 837.8 391.1" style="fill:#e87730;" />
						<polygon points="43.2 391.1 43.7 423.9 103.9 424.4 104.5 391.1 43.2 391.1" style="fill:#e87730;" />
						<polygon points="110.6 391.1 110.1 424.4 178 424.4 177.5 391.1 110.6 391.1" style="fill:#e87730;" />
						<polygon points="184.2 391.8 184.7 424.5 256.7 424.5 255.9 390.9 184.2 391.8" style="fill:#e87730;" />
						<polygon points="262 391.1 332.8 392.4 332.3 424.4 262 423.2 262 391.1" style="fill:#e87730;" />
						<polygon points="37.5 391.3 37.5 424.2 -38.1 423.7 -37.8 392.3 37.5 391.3" style="fill:#e87730;" />
					</g>
					<g>
						<polygon points="7.3 116 6.7 148.9 -53.5 149.3 -54 116 7.3 116" style="fill:#e87730;" />
						<polygon points="12.9 116.2 12.9 149.1 88.5 148.7 87.6 116.6 12.9 116.2" style="fill:#e87730;" />
						<polygon points="95.1 116.4 95.1 148.9 150.3 148.4 150.3 117.3 95.1 116.4" style="fill:#e87730;" />
						<polygon points="299.2 116 299.7 148.9 360 149.3 360.5 116 299.2 116" style="fill:#e87730;" />
						<polygon points="293.6 116.2 293.6 149.1 218 148.7 219.5 117.3 293.6 116.2" style="fill:#e87730;" />
						<polygon points="211.4 116.4 211.4 148.9 156.2 148.4 156.2 117.3 211.4 116.4" style="fill:#e87730;" />
						<polygon points="511.1 116.2 512.7 150 440.6 150 441.1 115.3 511.1 116.2" style="fill:#e87730;" />
						<polygon points="434 115.1 365.8 117.1 365 150.2 434.5 150.2 434 115.1" style="fill:#e87730;" />
						<polygon points="578.8 116 578.3 148.9 518 149.3 517.5 116 578.8 116" style="fill:#e87730;" />
						<polygon points="584.4 116.2 584.4 149.1 660 148.7 659.1 116.6 584.4 116.2" style="fill:#e87730;" />
						<polygon points="666.7 116.4 666.7 148.9 721.8 148.4 721.8 117.3 666.7 116.4" style="fill:#e87730;" />
						<polygon points="870.8 116 871.3 148.9 931.6 149.3 932.1 116 870.8 116" style="fill:#e87730;" />
						<polygon points="865.2 116.2 865.2 149.1 789.5 148.7 791 117.3 865.2 116.2" style="fill:#e87730;" />
						<polygon points="782.9 116.4 782.9 148.9 727.7 148.4 727.7 117.3 782.9 116.4" style="fill:#e87730;" />
						<polygon points="1084.1 116.2 1085.6 150 1013.6 150 1014.1 115.3 1084.1 116.2" style="fill:#e87730;" />
						<polygon points="1006.9 115.1 938.7 117.1 938 150.2 1007.5 150.2 1006.9 115.1" style="fill:#e87730;" />
						<polygon points="1151.8 116 1151.2 148.9 1091 149.3 1090.5 116 1151.8 116" style="fill:#e87730;" />
						<polygon points="1157.4 116.2 1157.4 149.1 1233 148.7 1232.1 116.6 1157.4 116.2" style="fill:#e87730;" />
						<polygon points="1239.6 116.4 1239.6 148.9 1294.8 148.4 1294.8 117.3 1239.6 116.4" style="fill:#e87730;" />
						<polygon points="1443.7 116 1444.3 148.9 1504.5 149.3 1505 116 1443.7 116" style="fill:#e87730;" />
						<polygon points="1438.1 116.2 1438.1 149.1 1362.5 148.7 1364 117.3 1438.1 116.2" style="fill:#e87730;" />
						<polygon points="1355.9 116.4 1355.9 148.9 1300.7 148.4 1300.7 117.3 1355.9 116.4" style="fill:#e87730;" />
						<polygon points="1658.6 116.2 1660.1 150 1588.1 150 1588.6 115.3 1658.6 116.2" style="fill:#e87730;" />
						<polygon points="1581.5 115.1 1513.2 117.1 1512.5 150.2 1582 150.2 1581.5 115.1" style="fill:#e87730;" />
						<polygon points="1726.3 116 1725.8 148.9 1665.5 149.3 1665 116 1726.3 116" style="fill:#e87730;" />
						<polygon points="1731.9 116.2 1731.9 149.1 1807.5 148.7 1806.6 116.6 1731.9 116.2" style="fill:#e87730;" />
						<polygon points="1814.1 116.4 1814.1 148.9 1869.3 148.4 1869.3 117.3 1814.1 116.4" style="fill:#e87730;" />
						<polygon points="1930.4 116.4 1930.4 148.9 1875.2 148.4 1875.2 117.3 1930.4 116.4" style="fill:#e87730;" />
					</g>
					<g>
						<polygon points="1798.6 154.8 1798.6 187.3 1926.3 189.1 1926.3 155.7 1798.6 154.8" style="fill:#e87730;" />
						<polygon points="1793.5 154.8 1793.5 187.3 1665.7 189.1 1665.7 155.7 1793.5 154.8" style="fill:#e87730;" />
						<polygon points="1241.7 154.8 1241.7 187.3 1369.4 189.1 1369.4 155.7 1241.7 154.8" style="fill:#e87730;" />
						<polygon points="1236.6 154.8 1236.6 187.3 1108.8 189.1 1108.8 155.7 1236.6 154.8" style="fill:#e87730;" />
						<path d="M1660.6,155.7v32.4l-135.9-.4-.5-31.6,136.4-.4Z" style="fill:#e87730;" />
						<polygon points="1519.1 157.5 1519.6 187.7 1373.5 188.2 1374.1 155.7 1519.1 157.5" style="fill:#e87730;" />
						<polygon points="413.9 154.8 413.9 187.3 286.1 189.1 286.1 155.7 413.9 154.8" style="fill:#e87730;" />
						<path d="M281,155.7v32.4l-135.9-.4-.5-31.6,136.4-.4Z" style="fill:#e87730;" />
						<polygon points="139.5 156.9 140 187.1 -6.1 187.6 -6.7 156.3 139.5 156.9" style="fill:#e87730;" />
						<polygon points="419 154.8 419 187.3 546.7 189.1 546.7 155.7 419 154.8" style="fill:#e87730;" />
						<polygon points="970.8 154.8 970.8 187.3 843 189.1 843 155.7 970.8 154.8" style="fill:#e87730;" />
						<polygon points="975.9 154.8 975.9 187.3 1103.6 189.1 1103.6 155.7 975.9 154.8" style="fill:#e87730;" />
						<path d="M551.8,155.7v32.4l135.9-.4,.5-31.6-136.4-.4Z" style="fill:#e87730;" />
						<polygon points="693.3 157.5 692.8 187.7 838.9 188.2 838.4 155.7 693.3 157.5" style="fill:#e87730;" />
					</g>
					<g>
						<polygon points="240.8 273.2 240.3 306.1 180 306.5 179.5 273.2 240.8 273.2" style="fill:#e87730;" />
						<polygon points="173.4 273.4 173.9 306.7 106 306.7 105.7 273 173.4 273.4" style="fill:#e87730;" />
						<polygon points="97.8 273.4 99.3 307.2 27.3 307.2 27.8 272.5 97.8 273.4" style="fill:#e87730;" />
						<polygon points="246.4 273.4 246.4 306.3 322 305.8 320 274.7 246.4 273.4" style="fill:#e87730;" />
						<polygon points="328.7 273.6 328.7 306.1 383.9 305.6 383.9 274.5 328.7 273.6" style="fill:#e87730;" />
						<polygon points="444.1 273.4 445.2 305 390 306.3 389 274.7 444.1 273.4" style="fill:#e87730;" />
						<polygon points="21.2 273.4 22.3 305 -32.9 306.3 -33.9 274.7 21.2 273.4" style="fill:#e87730;" />
						<polygon points="1934.1 273.2 1933.6 306.1 1873.4 306.5 1872.8 273.2 1934.1 273.2" style="fill:#e87730;" />
						<polygon points="1866.7 273.4 1867.2 306.7 1799.3 306.7 1799 273 1866.7 273.4" style="fill:#e87730;" />
						<polygon points="1791.1 273.4 1792.6 307.2 1720.6 307.2 1721.1 272.5 1791.1 273.4" style="fill:#e87730;" />
						<polygon points="1511.2 273.2 1510.7 306.1 1450.4 306.5 1449.9 273.2 1511.2 273.2" style="fill:#e87730;" />
						<polygon points="1443.8 273.4 1444.3 306.7 1376.4 306.7 1376.1 273 1443.8 273.4" style="fill:#e87730;" />
						<polygon points="1368.2 273.4 1369.7 307.2 1297.7 307.2 1298.2 272.5 1368.2 273.4" style="fill:#e87730;" />
						<polygon points="1516.9 273.4 1516.9 306.3 1592.5 305.8 1590.4 274.7 1516.9 273.4" style="fill:#e87730;" />
						<polygon points="1599.1 273.6 1599.1 306.1 1654.3 305.6 1654.3 274.5 1599.1 273.6" style="fill:#e87730;" />
						<polygon points="1714.6 273.4 1715.6 305 1660.4 306.3 1659.4 274.7 1714.6 273.4" style="fill:#e87730;" />
						<polygon points="655 273.2 655.5 306.1 715.7 306.5 716.3 273.2 655 273.2" style="fill:#e87730;" />
						<polygon points="722.4 273.4 721.9 306.7 789.8 306.7 790.1 273 722.4 273.4" style="fill:#e87730;" />
						<polygon points="798 273.4 796.5 307.2 868.5 307.2 868 272.5 798 273.4" style="fill:#e87730;" />
						<polygon points="649.3 273.4 649.3 306.3 573.7 305.8 575.8 274.7 649.3 273.4" style="fill:#e87730;" />
						<polygon points="567.1 273.6 567.1 306.1 511.9 305.6 511.9 274.5 567.1 273.6" style="fill:#e87730;" />
						<polygon points="451.6 273.4 450.6 305 505.8 306.3 506.8 274.7 451.6 273.4" style="fill:#e87730;" />
						<polygon points="1077.9 273.2 1078.4 306.1 1138.7 306.5 1139.2 273.2 1077.9 273.2" style="fill:#e87730;" />
						<polygon points="1145.3 273.4 1144.8 306.7 1212.7 306.7 1213 273 1145.3 273.4" style="fill:#e87730;" />
						<polygon points="1220.9 273.4 1219.4 307.2 1291.4 307.2 1290.9 272.5 1220.9 273.4" style="fill:#e87730;" />
						<polygon points="1072.2 273.4 1072.2 306.3 996.6 305.8 998.7 274.7 1072.2 273.4" style="fill:#e87730;" />
						<polygon points="990 273.6 990 306.1 934.8 305.6 934.8 274.5 990 273.6" style="fill:#e87730;" />
						<polygon points="874.5 273.4 873.5 305 928.7 306.3 929.7 274.7 874.5 273.4" style="fill:#e87730;" />
					</g>
					<g>
						<polygon points="491.2 234.1 492.2 265.7 437.1 267 436.1 235.4 491.2 234.1" style="fill:#e87730;" />
						<path d="M430,234.3v32.4l-135.9-.4-.5-31.6,136.4-.4Z" style="fill:#e87730;" />
						<polygon points="288.5 236.1 289 266.3 142.9 266.8 143.5 234.3 288.5 236.1" style="fill:#e87730;" />
						<polygon points="845 234.1 846 265.7 790.9 267 789.8 235.4 845 234.1" style="fill:#e87730;" />
						<path d="M783.8,234.3v32.4l-135.9-.4-.5-31.6,136.4-.4Z" style="fill:#e87730;" />
						<polygon points="642.3 236.1 642.8 266.3 496.7 266.8 497.2 234.3 642.3 236.1" style="fill:#e87730;" />
						<polygon points="1199.9 234.1 1201 265.7 1145.8 267 1144.8 235.4 1199.9 234.1" style="fill:#e87730;" />
						<path d="M1138.7,234.3v32.4l-135.9-.4-.5-31.6,136.4-.4Z" style="fill:#e87730;" />
						<polygon points="997.2 236.1 997.8 266.3 851.7 266.8 852.2 234.3 997.2 236.1" style="fill:#e87730;" />
						<polygon points="133.6 234.1 134.6 265.7 79.5 267 78.5 235.4 133.6 234.1" style="fill:#e87730;" />
						<path d="M72.4,234.3v32.4l-135.9-.4-.5-31.6,136.4-.4Z" style="fill:#e87730;" />
						<polygon points="1556.8 234.1 1557.8 265.7 1502.6 267 1501.6 235.4 1556.8 234.1" style="fill:#e87730;" />
						<path d="M1495.6,234.3v32.4l-135.9-.4-.5-31.6,136.4-.4Z" style="fill:#e87730;" />
						<polygon points="1354.1 236.1 1354.6 266.3 1208.5 266.8 1209 234.3 1354.1 236.1" style="fill:#e87730;" />
						<polygon points="1910.6 234.1 1911.6 265.7 1856.4 267 1855.4 235.4 1910.6 234.1" style="fill:#e87730;" />
						<path d="M1849.4,234.3v32.4l-135.9-.4-.5-31.6,136.4-.4Z" style="fill:#e87730;" />
						<polygon points="1707.9 236.1 1708.4 266.3 1562.3 266.8 1562.8 234.3 1707.9 236.1" style="fill:#e87730;" />
					</g>
					<g>
						<polygon points="1626.8 194.6 1626.3 227.5 1566.1 227.9 1565.5 194.6 1626.8 194.6" style="fill:#e87730;" />
						<polygon points="1559.4 194.6 1559.9 227.9 1492 227.9 1492.5 194.6 1559.4 194.6" style="fill:#e87730;" />
						<polygon points="1485.8 195.3 1485.3 228 1413.3 228 1414.1 194.5 1485.8 195.3" style="fill:#e87730;" />
						<polygon points="1408 194.6 1337.2 195.9 1337.7 227.9 1408 226.7 1408 194.6" style="fill:#e87730;" />
						<polygon points="1632.5 194.8 1632.5 227.7 1708.1 227.3 1707.8 195.8 1632.5 194.8" style="fill:#e87730;" />
						<polygon points="1714.7 195.9 1714.7 228.3 1769.9 227.9 1768.8 194.2 1714.7 195.9" style="fill:#e87730;" />
						<polygon points="1833.1 194.6 1832.4 227.9 1776 227.5 1776.7 195.4 1833.1 194.6" style="fill:#e87730;" />
						<polygon points="1955.9 195.9 1955.9 228.3 1900.7 227.9 1901.8 194.2 1955.9 195.9" style="fill:#e87730;" />
						<polygon points="1837.5 194.6 1838.2 227.9 1894.6 227.5 1893.9 195.4 1837.5 194.6" style="fill:#e87730;" />
						<polygon points="627.1 194.6 626.6 227.5 566.3 227.9 565.8 194.6 627.1 194.6" style="fill:#e87730;" />
						<polygon points="559.7 194.6 560.2 227.9 492.3 227.9 492.8 194.6 559.7 194.6" style="fill:#e87730;" />
						<polygon points="486.1 195.3 485.6 228 413.6 228 414.4 194.5 486.1 195.3" style="fill:#e87730;" />
						<polygon points="408.3 194.6 337.5 195.9 338 227.9 408.3 226.7 408.3 194.6" style="fill:#e87730;" />
						<polygon points="632.7 194.8 632.7 227.7 708.3 227.3 708.1 195.8 632.7 194.8" style="fill:#e87730;" />
						<polygon points="715 195.9 715 228.3 770.2 227.9 769 194.2 715 195.9" style="fill:#e87730;" />
						<polygon points="833.4 194.6 832.7 227.9 776.3 227.5 777 195.4 833.4 194.6" style="fill:#e87730;" />
						<polygon points="1044 194.6 1044.5 227.5 1104.8 227.9 1105.3 194.6 1044 194.6" style="fill:#e87730;" />
						<polygon points="1111.5 194.6 1111 227.9 1178.9 227.9 1178.4 194.6 1111.5 194.6" style="fill:#e87730;" />
						<polygon points="1185 195.3 1185.5 228 1257.6 228 1256.8 194.5 1185 195.3" style="fill:#e87730;" />
						<polygon points="1262.9 194.6 1333.6 195.9 1333.2 227.9 1262.9 226.7 1262.9 194.6" style="fill:#e87730;" />
						<polygon points="1038.4 194.8 1038.4 227.7 962.8 227.3 963 195.8 1038.4 194.8" style="fill:#e87730;" />
						<polygon points="956.2 195.9 956.2 228.3 901 227.9 902.1 194.2 956.2 195.9" style="fill:#e87730;" />
						<polygon points="837.8 194.6 838.5 227.9 894.9 227.5 894.2 195.4 837.8 194.6" style="fill:#e87730;" />
						<polygon points="43.2 194.6 43.7 227.5 103.9 227.9 104.5 194.6 43.2 194.6" style="fill:#e87730;" />
						<polygon points="110.6 194.6 110.1 227.9 178 227.9 177.5 194.6 110.6 194.6" style="fill:#e87730;" />
						<polygon points="184.2 195.3 184.7 228 256.7 228 255.9 194.5 184.2 195.3" style="fill:#e87730;" />
						<polygon points="262 194.6 332.8 195.9 332.3 227.9 262 226.7 262 194.6" style="fill:#e87730;" />
						<polygon points="37.5 194.8 37.5 227.7 -38.1 227.3 -37.8 195.8 37.5 194.8" style="fill:#e87730;" />
					</g>
					<g>
						<polygon points="240.8 76.7 240.3 109.6 180 110 179.5 76.7 240.8 76.7" style="fill:#e87730;" />
						<polygon points="173.4 76.9 173.9 110.2 106 110.2 105.7 76.5 173.4 76.9" style="fill:#e87730;" />
						<polygon points="97.8 76.9 99.3 110.7 27.3 110.7 27.8 76 97.8 76.9" style="fill:#e87730;" />
						<polygon points="246.4 76.9 246.4 109.8 322 109.4 320 78.3 246.4 76.9" style="fill:#e87730;" />
						<polygon points="328.7 77.1 328.7 109.6 383.9 109.1 383.9 78 328.7 77.1" style="fill:#e87730;" />
						<polygon points="444.1 76.9 445.2 108.5 390 109.8 389 78.3 444.1 76.9" style="fill:#e87730;" />
						<polygon points="21.2 76.9 22.3 108.5 -32.9 109.8 -33.9 78.3 21.2 76.9" style="fill:#e87730;" />
						<polygon points="1934.1 76.7 1933.6 109.6 1873.4 110 1872.8 76.7 1934.1 76.7" style="fill:#e87730;" />
						<polygon points="1866.7 76.9 1867.2 110.2 1799.3 110.2 1799 76.5 1866.7 76.9" style="fill:#e87730;" />
						<polygon points="1791.1 76.9 1792.6 110.7 1720.6 110.7 1721.1 76 1791.1 76.9" style="fill:#e87730;" />
						<polygon points="1511.2 76.7 1510.7 109.6 1450.4 110 1449.9 76.7 1511.2 76.7" style="fill:#e87730;" />
						<polygon points="1443.8 76.9 1444.3 110.2 1376.4 110.2 1376.1 76.5 1443.8 76.9" style="fill:#e87730;" />
						<polygon points="1368.2 76.9 1369.7 110.7 1297.7 110.7 1298.2 76 1368.2 76.9" style="fill:#e87730;" />
						<polygon points="1516.9 76.9 1516.9 109.8 1592.5 109.4 1590.4 78.3 1516.9 76.9" style="fill:#e87730;" />
						<polygon points="1599.1 77.1 1599.1 109.6 1654.3 109.1 1654.3 78 1599.1 77.1" style="fill:#e87730;" />
						<polygon points="1714.6 76.9 1715.6 108.5 1660.4 109.8 1659.4 78.3 1714.6 76.9" style="fill:#e87730;" />
						<polygon points="655 76.7 655.5 109.6 715.7 110 716.3 76.7 655 76.7" style="fill:#e87730;" />
						<polygon points="722.4 76.9 721.9 110.2 789.8 110.2 790.1 76.5 722.4 76.9" style="fill:#e87730;" />
						<polygon points="798 76.9 796.5 110.7 868.5 110.7 868 76 798 76.9" style="fill:#e87730;" />
						<polygon points="649.3 76.9 649.3 109.8 573.7 109.4 575.8 78.3 649.3 76.9" style="fill:#e87730;" />
						<polygon points="567.1 77.1 567.1 109.6 511.9 109.1 511.9 78 567.1 77.1" style="fill:#e87730;" />
						<polygon points="451.6 76.9 450.6 108.5 505.8 109.8 506.8 78.3 451.6 76.9" style="fill:#e87730;" />
						<polygon points="1077.9 76.7 1078.4 109.6 1138.7 110 1139.2 76.7 1077.9 76.7" style="fill:#e87730;" />
						<polygon points="1145.3 76.9 1144.8 110.2 1212.7 110.2 1213 76.5 1145.3 76.9" style="fill:#e87730;" />
						<polygon points="1220.9 76.9 1219.4 110.7 1291.4 110.7 1290.9 76 1220.9 76.9" style="fill:#e87730;" />
						<polygon points="1072.2 76.9 1072.2 109.8 996.6 109.4 998.7 78.3 1072.2 76.9" style="fill:#e87730;" />
						<polygon points="990 77.1 990 109.6 934.8 109.1 934.8 78 990 77.1" style="fill:#e87730;" />
						<polygon points="874.5 76.9 873.5 108.5 928.7 109.8 929.7 78.3 874.5 76.9" style="fill:#e87730;" />
					</g>
					<g>
						<polygon points="491.2 37.6 492.2 69.2 437.1 70.5 436.1 39 491.2 37.6" style="fill:#e87730;" />
						<path d="M430,37.8v32.4l-135.9-.4-.5-31.6,136.4-.4Z" style="fill:#e87730;" />
						<polygon points="288.5 39.6 289 69.9 142.9 70.3 143.5 37.8 288.5 39.6" style="fill:#e87730;" />
						<polygon points="845 37.6 846 69.2 790.9 70.5 789.8 39 845 37.6" style="fill:#e87730;" />
						<path d="M783.8,37.8v32.4l-135.9-.4-.5-31.6,136.4-.4Z" style="fill:#e87730;" />
						<polygon points="642.3 39.6 642.8 69.9 496.7 70.3 497.2 37.8 642.3 39.6" style="fill:#e87730;" />
						<polygon points="1199.9 37.6 1201 69.2 1145.8 70.5 1144.8 39 1199.9 37.6" style="fill:#e87730;" />
						<path d="M1138.7,37.8v32.4l-135.9-.4-.5-31.6,136.4-.4Z" style="fill:#e87730;" />
						<polygon points="997.2 39.6 997.8 69.9 851.7 70.3 852.2 37.8 997.2 39.6" style="fill:#e87730;" />
						<polygon points="133.6 37.6 134.6 69.2 79.5 70.5 78.5 39 133.6 37.6" style="fill:#e87730;" />
						<path d="M72.4,37.8v32.4l-135.9-.4-.5-31.5,136.4-.5Z" style="fill:#e87730;" />
						<polygon points="1556.8 37.6 1557.8 69.2 1502.6 70.5 1501.6 39 1556.8 37.6" style="fill:#e87730;" />
						<path d="M1495.6,37.8v32.4l-135.9-.4-.5-31.6,136.4-.4Z" style="fill:#e87730;" />
						<polygon points="1354.1 39.6 1354.6 69.9 1208.5 70.3 1209 37.8 1354.1 39.6" style="fill:#e87730;" />
						<polygon points="1910.6 37.6 1911.6 69.2 1856.4 70.5 1855.4 39 1910.6 37.6" style="fill:#e87730;" />
						<path d="M1849.4,37.8v32.4l-135.9-.4-.5-31.6,136.4-.4Z" style="fill:#e87730;" />
						<polygon points="1707.9 39.6 1708.4 69.9 1562.3 70.3 1562.8 37.8 1707.9 39.6" style="fill:#e87730;" />
					</g>
					<g>
						<polygon points="1626.8 -1.9 1626.3 31 1566.1 31.4 1565.5 -1.9 1626.8 -1.9" style="fill:#e87730;" />
						<polygon points="1559.4 -1.9 1559.9 31.4 1492 31.4 1492.5 -1.9 1559.4 -1.9" style="fill:#e87730;" />
						<polygon points="1485.8 -1.2 1485.3 31.6 1413.3 31.6 1414.1 -2 1485.8 -1.2" style="fill:#e87730;" />
						<polygon points="1408 -1.9 1337.2 -.6 1337.7 31.4 1408 30.2 1408 -1.9" style="fill:#e87730;" />
						<polygon points="1632.5 -1.7 1632.5 31.2 1708.1 30.8 1707.8 -.7 1632.5 -1.7" style="fill:#e87730;" />
						<polygon points="1714.7 -.6 1714.7 31.8 1769.9 31.4 1768.8 -2.3 1714.7 -.6" style="fill:#e87730;" />
						<polygon points="1833.1 -1.8 1832.4 31.4 1776 31 1776.7 -1.1 1833.1 -1.8" style="fill:#e87730;" />
						<polygon points="1955.9 -.6 1955.9 31.8 1900.7 31.4 1901.8 -2.3 1955.9 -.6" style="fill:#e87730;" />
						<polygon points="1837.5 -1.8 1838.2 31.4 1894.6 31 1893.9 -1.1 1837.5 -1.8" style="fill:#e87730;" />
						<polygon points="627.1 -1.9 626.6 31 566.3 31.4 565.8 -1.9 627.1 -1.9" style="fill:#e87730;" />
						<polygon points="559.7 -1.9 560.2 31.4 492.3 31.4 492.8 -1.9 559.7 -1.9" style="fill:#e87730;" />
						<polygon points="486.1 -1.2 485.6 31.6 413.6 31.6 414.4 -2 486.1 -1.2" style="fill:#e87730;" />
						<polygon points="408.3 -1.9 337.5 -.6 338 31.4 408.3 30.2 408.3 -1.9" style="fill:#e87730;" />
						<polygon points="632.7 -1.7 632.7 31.2 708.3 30.8 708.1 -.7 632.7 -1.7" style="fill:#e87730;" />
						<polygon points="715 -.6 715 31.8 770.2 31.4 769 -2.3 715 -.6" style="fill:#e87730;" />
						<polygon points="833.4 -1.8 832.7 31.4 776.3 31 777 -1.1 833.4 -1.8" style="fill:#e87730;" />
						<polygon points="1044 -1.9 1044.5 31 1104.8 31.4 1105.3 -1.9 1044 -1.9" style="fill:#e87730;" />
						<polygon points="1111.5 -1.9 1111 31.4 1178.9 31.4 1178.4 -1.9 1111.5 -1.9" style="fill:#e87730;" />
						<polygon points="1185 -1.2 1185.5 31.6 1257.6 31.6 1256.8 -2 1185 -1.2" style="fill:#e87730;" />
						<polygon points="1262.9 -1.9 1333.6 -.6 1333.2 31.4 1262.9 30.2 1262.9 -1.9" style="fill:#e87730;" />
						<polygon points="1038.4 -1.7 1038.4 31.2 962.8 30.8 963 -.7 1038.4 -1.7" style="fill:#e87730;" />
						<polygon points="956.2 -.6 956.2 31.8 901 31.4 902.1 -2.3 956.2 -.6" style="fill:#e87730;" />
						<polygon points="837.8 -1.8 838.5 31.4 894.9 31 894.2 -1.1 837.8 -1.8" style="fill:#e87730;" />
						<polygon points="43.2 -1.9 43.7 31 103.9 31.4 104.5 -1.9 43.2 -1.9" style="fill:#e87730;" />
						<polygon points="110.6 -1.9 110.1 31.4 178 31.4 177.5 -1.9 110.6 -1.9" style="fill:#e87730;" />
						<polygon points="184.2 -1.2 184.7 31.6 256.7 31.6 255.9 -2 184.2 -1.2" style="fill:#e87730;" />
						<polygon points="262 -1.9 332.8 -.6 332.3 31.4 262 30.2 262 -1.9" style="fill:#e87730;" />
						<polygon points="37.5 -1.7 37.5 31.2 -38.1 30.8 -37.8 -.7 37.5 -1.7" style="fill:#e87730;" />
					</g>
				</g>
			</g>
			<g style="clip-path:url(#e);">
				<g>
					<path d="M1169.8,907.4s-4.5-501.7-3.1-524.6c1.5-22.9,31.2-165.4,245.9-158.5,207.3,6.6,232.8,133.3,233.8,145.3,1.9,23.4,9,548.5,9,548.5l-485.6-10.7Z" style="fill:#6a5742;" />
					<path d="M1204.2,383.3c-1.2,13.3-2.3,84.5-2.3,84.5l415.8-2.2s-1.2-65.6-2.3-85.9-41-125-206.7-125.4c-177.2-.5-203.3,116.6-204.5,129Z" style="fill:#0084b3;" />
					<g>
						<polygon points="1204.8 485.5 1203.1 920.9 1413.1 915.5 1410.3 489.1 1204.8 485.5" style="fill:#0084b3;" />
						<g style="clip-path:url(#f);">
							<polygon points="1193.2 777 1195.3 975.9 1433.9 974.3 1431.4 775.2 1193.2 777" style="fill:#006796;" />
						</g>
						<g style="clip-path:url(#g);">
							<path d="M1454.4,659.7c.6,20.2-15.9,38.8-38.5,38.8s-40.1-17.3-39.4-38.7c.6-20.2,14.7-37.2,39.6-36.8,23.7,.5,37.8,18,38.3,36.7Zm-38.4-27.1c-18.7-.3-29.2,12.4-29.7,27.6-.5,16,12.6,29,29.6,29s29.3-13.9,28.8-29.1c-.4-14.2-11-27.3-28.7-27.5Z" style="fill:#f1d8b3;" />
						</g>
					</g>
					<g>
						<polygon points="1428.6 487.9 1432.6 913.7 1624.5 914 1619.8 484.7 1428.6 487.9" style="fill:#0084b3;" />
						<g style="clip-path:url(#h);">
							<polygon points="1425.2 775.6 1427.2 963.1 1642.3 961.1 1639.8 773.5 1425.2 775.6" style="fill:#006796;" />
						</g>
						<g style="clip-path:url(#i);">
							<path d="M1465.3,659.6c.6,20.2-15.9,38.8-38.5,38.8s-40.1-17.3-39.4-38.7c.6-20.2,14.7-37.2,39.6-36.8,23.7,.4,37.7,17.9,38.3,36.7Zm-38.5-27.2c-18.7-.3-29.2,12.4-29.7,27.6-.5,16,12.6,29,29.6,29s29.3-13.9,28.8-29.1c-.4-14.1-10.9-27.2-28.7-27.5Z" style="fill:#f1d8b3;" />
						</g>
					</g>
				</g>
			</g>
			<g style="clip-path:url(#j);">
				<polygon points="-120.3 903.1 2212.5 899.8 2192.4 1176.2 -92.6 1303.1 -120.3 903.1" style="fill:#d5d7d9;" />
			</g>
			<g style="clip-path:url(#k);">
				<g>
					<g>
						<path d="M1677.6,83.5l1.1,257.6,207.7,1.6-.6-257.8s-35.2-46.9-100.4-45.9c-78.1,1-107.8,44.5-107.8,44.5Z" style="fill:#f1d8b3;" />
						<polygon points="1691.7 99.8 1693 319.4 1873.1 320.8 1872.2 101 1691.7 99.8" style="fill:#008fba;" />
					</g>
					<polygon points="1876 240.7 1785.9 240.3 1786.9 175 1872.3 175.6 1872.4 164.5 1787 164.1 1787.9 97.8 1777.9 97.9 1776.8 164.1 1679.3 163.7 1679.5 174.2 1776.6 174.9 1775.5 240.2 1682.8 239.8 1683 250.3 1775.3 251 1774 332.8 1784.6 333.2 1785.8 251.1 1875.8 251.8 1876 240.7" style="fill:#f1d8b3;" />
				</g>
			</g>
			<g style="clip-path:url(#l);">
				<g>
					<g>
						<path d="M773,235.9l1.6,417.7,305.2,2-.9-418s-51.8-59.7-147.5-58.5c-114.8,1.4-158.4,56.8-158.4,56.8Z" style="fill:#f1d8b3;" />
						<polygon points="793.6 256.6 795.6 626 1060.3 627.8 1058.9 258.1 793.6 256.6" style="fill:#0084b3;" />
					</g>
					<polygon points="1064.2 450.3 1064.4 436.1 932.8 435.6 933.8 352.4 1059 353.3 1059.2 339.1 934 338.6 935.1 254.1 920.3 254.3 919 338.6 775.4 338 775.7 351.4 918.8 352.3 917.5 435.5 780.7 435 780.9 448.4 917.3 449.3 916.1 534.9 778 534.4 778.3 547.8 915.9 548.7 914.5 636.9 930.2 637.4 931.4 548.8 1061.6 549.6 1061.8 535.4 931.5 535 932.6 449.4 1064.2 450.3" style="fill:#f1d8b3;" />
				</g>
			</g>
			<g style="clip-path:url(#m);">
				<polygon points="1248.7 97.7 1247.8 176.9 1579.8 177 1579.8 97.7 1248.7 97.7" style="fill:#f1d8b3;" />
			</g>
			<g style="clip-path:url(#n);">
				<polygon points="1265.2 110.1 1265.9 162.1 1566.2 163.3 1565.6 111 1265.2 110.1" style="fill:#009f5f;" />
			</g>
			<g style="clip-path:url(#o);">
				<g>
					<g>
						<g>
							<path d="M189.8,392.1v75.4l314.4,1.6s9-24.8,12.7-43.8,3.7-33.2,3.7-33.2H189.8Z" style="fill:#244133;" />
							<polygon points="216.8 405.8 216.5 457.7 484.6 460.4 484.6 406.4 216.8 405.8" style="fill:#2762a3;" />
							<g>
								<polygon points="237.2 411 237.2 431.6 241 431.6 240.7 411 237.2 411" style="fill:#ffed00;" />
								<path d="M244,411.1s8.8-1.7,9.7,4.9c.7,4.8-3.1,5.8-3.1,5.8,0,0,3.7,.5,3.4,5.4-.3,5.2-10,3.7-10,3.7l.5-3.1s5.2,1.2,5-1.3c-.2-3-4.2-3-4.2-3l.1-2.9s4.6-.3,4.2-3.3c-.3-3-5.6-2.8-5.6-2.8v-3.4h0Z" style="fill:#ffed00;" />
								<path d="M258.6,411.6s8.3-1.7,9.2,4.9c.7,4.8-2.6,5.8-2.6,5.8,0,0,3.7,.5,3.4,5.4-.3,5.2-10,3.7-10,3.7l.5-3.1s5.2,1,5-1.5c-.2-3-4.2-2.8-4.2-2.8l.1-2.9s4.1-.8,3.8-3.9c-.3-3-5.2-2.2-5.2-2.2v-3.4h0Z" style="fill:#ffed00;" />
								<path d="M271.3,412.2l-.1,9.1s4.8-.6,5.1,3.4c.2,3.2-5.2,2.5-5.2,2.5l-.1,3.8s9.6,.9,9.4-6c-.1-6.4-5.4-6.4-5.4-6.4v-2.7l4.6,.1-.2-4-8.1,.2Z" style="fill:#ffed00;" />
								<path d="M257.9,418c0,.8-.6,1.5-1.5,1.5s-1.5-.7-1.5-1.5,.6-1.4,1.5-1.4c1,.1,1.5,.7,1.5,1.4Z" style="fill:#ffed00;" />
								<path d="M257.9,428.2c0,.8-.6,1.5-1.5,1.5s-1.5-.7-1.5-1.5,.6-1.4,1.5-1.4c1,0,1.5,.7,1.5,1.4Z" style="fill:#ffed00;" />
							</g>
							<path d="M441.6,423.3h-7.6s-1.8-11.5,12.2-11.3,13.5,13.8,10.9,17.1c-2.6,3.4-10.9,11.3-10.9,11.3l13.5-.2v8.4h-26.9s-.5-5.5,3.4-10.1c3.8-4.6,11-11,12.8-13.2,1.8-2.1,2-6.4-2.9-6s-4.5,4-4.5,4Z" style="fill:#eeeef0;" />
							<polygon points="163.3 271.5 161.9 934.3 180.1 933.8 180.5 269.1 163.3 271.5" style="fill:#244133;" />
							<polygon points="189.4 345 189.1 374.5 523.6 377.2 523.6 346.8 189.4 345" style="fill:#244133;" />
						</g>
						<path d="M173.6,355c.4,0,23.5-.8,23.5-.8l.4,7.1-23.5,1.3-.4-7.6Z" style="fill:#244133;" />
						<polygon points="171.9 400.3 199.6 401.9 199.6 412.5 173.6 412.1 171.9 400.3" style="fill:#244133;" />
						<polygon points="174 440.6 197.9 440.6 197.5 450.7 172.3 449.9 174 440.6" style="fill:#244133;" />
					</g>
					<g>
						<path d="M175.5,123.2c-51.7-.8-80.7,34.3-82,76.2-1.4,44.2,34.9,80,81.6,80s80.8-38.5,79.6-80.4c-1.1-38.8-30.1-75-79.2-75.8Z" style="fill:#244133;" />
						<g>
							<path d="M175.3,132.5c-45.6-.7-71.2,30.3-72.3,67.1-1.2,38.9,30.7,70.6,72,70.6s71.3-33.9,70.2-70.8c-1-34.4-26.6-66.3-69.9-66.9Z" style="fill:#eeeef0;" />
							<g>
								<polygon points="171.8 214.8 175.1 159.3 179.1 159.5 180.6 214.9 171.8 214.8" style="fill:#244133;" />
								<polygon points="139.8 182.8 185.7 211.5 189.8 203.4 142 179 139.8 182.8" style="fill:#244133;" />
							</g>
							<g>
								<polygon points="237.6 199.1 222.8 199.1 222.6 203.2 237.5 203.5 237.6 199.1" style="fill:#244133;" />
								<polygon points="109.5 199.1 124.4 199.1 124.5 203.2 109.6 203.5 109.5 199.1" style="fill:#244133;" />
							</g>
							<g>
								<polygon points="176 138.2 176 153 180.1 153.2 180.3 138.3 176 138.2" style="fill:#244133;" />
								<polygon points="171.9 262.1 171.9 247.3 175.9 247.1 176.2 262 171.9 262.1" style="fill:#244133;" />
							</g>
							<g>
								<polygon points="209 147.3 201.4 160 204.8 162.2 212.6 149.6 209 147.3" style="fill:#244133;" />
								<polygon points="140.3 253.9 147.9 241.1 151.5 243.1 144.1 256 140.3 253.9" style="fill:#244133;" />
							</g>
							<g>
								<polygon points="228.9 168.5 215.9 175.8 217.8 179.4 230.9 172.3 228.9 168.5" style="fill:#244133;" />
								<polygon points="117.4 231.6 130.3 224.3 132.5 227.7 119.6 235.3 117.4 231.6" style="fill:#244133;" />
							</g>
							<g>
								<polygon points="233.9 228.7 220.8 221.6 218.8 225 231.7 232.4 233.9 228.7" style="fill:#244133;" />
								<polygon points="121.5 167.3 134.5 174.4 132.7 178.1 119.5 171.2 121.5 167.3" style="fill:#244133;" />
							</g>
							<g>
								<polygon points="210 252.7 202.2 240.1 198.7 242.1 206.3 254.9 210 252.7" style="fill:#244133;" />
								<polygon points="142.9 143.6 150.7 156.3 147.3 158.5 139.3 146 142.9 143.6" style="fill:#244133;" />
							</g>
						</g>
					</g>
				</g>
			</g>
		</g>
	</g>
	<g>
		<g>
			<path d="M623.03,311.16s-7.79,9.49-4.96,22.95c1.48,7.05,8.65,15.52,12.4,19.56,9.6,10.36,42.69,12.51,51.52,12.31s20.36-15.43,23.12-20.51,9.57-19.97,5.29-27.04c-4.28-7.06-5.11-7.62-6.62-14.94-1.52-7.32-20.29-29.11-39.89-28.58s-37,25.25-40.86,36.24h0Z" style="fill:#2f2b39;" />
			<path d="M625.76,960.74s1.55,27.79,2.04,36.14c.48,8.35-5.73,19.36-8.48,24.14s-5.4,5.93-6.21,11.01c-.81,5.08-.47,13.27-.47,13.27,0,0,49.01,.1,48.56,.06s1.97-4.31,1.31-10.1c-.66-5.8,1.24-11.39,3.67-18.01s.11-16.92,.13-25.84c.01-8.92-3.43-33.53-3.43-33.53l-37.12,2.87h0Z" style="fill:#1e2032;" />
			<g>
				<path d="M659.82,1005.75s-7.51-2.33-13.61-1.85c-8.36,.66-13.74,3.19-13.74,3.19l.14,2.74s5.61-2.75,13.73-2.71,12.76,1.97,12.76,1.97l.71-3.34h.01Z" style="fill:#413f52;" />
				<path d="M659.53,999.19s-7.76-1.92-14.14-1.46c-6.11,.43-13.05,3.2-13.05,3.2l.35,2.7s5.36-2.03,13.46-2.39c8.11-.37,12.84,1.33,12.84,1.33l.54-3.38h0Z" style="fill:#413f52;" />
				<path d="M660.7,992.53s-8.62-1.41-15.74-1.36c-6.5,.05-13.19,2.46-13.19,2.46l.38,3.12s5.67-2.39,14.28-2.56c8.6-.16,13.54,1.59,13.54,1.59l.73-3.26h0Z" style="fill:#413f52;" />
				<path d="M660.72,984.92s-9.24-1.45-15.74-1.36c-9.02,.13-13.24,3.33-13.24,3.33l.17,2.65s5.93-2.8,14.54-2.96c8.6-.16,13.54,1.59,13.54,1.59l.73-3.26h0Z" style="fill:#413f52;" />
				<path d="M660.83,978.09s-8.97-2.86-15.42-2.04c-6.44,.82-13.24,3.33-13.24,3.33l.17,2.65s5.93-2.8,14.54-2.96c8.6-.16,13.54,1.59,13.54,1.59l.41-2.57h0Z" style="fill:#413f52;" />
			</g>
			<path d="M754.23,957.13s-2.18,27.71-2.85,36.04c-.67,8.33,5.29,19.58,7.93,24.46s5.27,6.14,5.96,11.25-1.06,15.61-1.06,15.61c0,0-48.32,.46-47.87,.44s-1.32-9.01-.54-14.77c.79-5.77-.98-11.44-3.26-18.14-2.27-6.71,.27-16.92,.46-25.83,.19-8.91,4.19-33.37,4.19-33.37l37.04,4.32h0Z" style="fill:#1e2032;" />
			<g>
				<path d="M719.15,1000.78s7.56-2.04,13.65-1.32c8.34,.99,13.66,3.73,13.66,3.73l-.21,2.73s-5.55-2.97-13.67-3.25-12.8,1.47-12.8,1.47l-.64-3.37h.01Z" style="fill:#413f52;" />
				<path d="M719.59,994.23s7.8-1.61,14.17-.91c6.1,.67,12.97,3.71,12.97,3.71l-.41,2.68s-5.31-2.24-13.41-2.92-12.87,.83-12.87,.83l-.47-3.4h.02Z" style="fill:#413f52;" />
				<path d="M718.57,987.53s8.65-1.07,15.76-.73c6.5,.31,13.13,2.98,13.13,2.98l-.45,3.1s-5.62-2.62-14.21-3.12c-8.6-.5-13.57,1.06-13.57,1.06l-.66-3.28h0Z" style="fill:#413f52;" />
				<path d="M718.72,979.93s9.27-1.09,15.76-.73c9.01,.49,13.16,3.85,13.16,3.85l-.23,2.64s-5.87-3.03-14.47-3.54c-8.6-.5-13.57,1.06-13.57,1.06l-.66-3.28h0Z" style="fill:#413f52;" />
				<path d="M718.78,973.1s9.04-2.5,15.46-1.43c6.42,1.07,13.16,3.85,13.16,3.85l-.23,2.64s-5.87-3.03-14.47-3.54c-8.6-.5-13.57,1.06-13.57,1.06l-.35-2.59h0Z" style="fill:#413f52;" />
			</g>
			<path d="M638.99,341.23s4.34,12.3,3.37,20.69c-.43,3.77-.44,13.78-14.56,22.6-10.73,6.7-32.48,23.71-32.48,23.71l68.49,18.43,73.9-39.11s-22.05-8.02-35.3-12.75c-8.54-3.05-8.47-12.76-8.35-17.81,.28-10.89,.69-20.53,.69-20.53l-55.76,4.78h0Z" style="fill:#b98743;" />
			<g>
				<path d="M610.27,583.34s-28.5,118.77-18.8,169.82c9.71,51.05,11.75,79,13.54,100.98s1.05,30.5,1.25,57.66c.16,22.19,11.81,44.11,12.72,50.13,.91,6.03,5.46,23.98,5.46,23.98l42.43-2.49s14.67-10.18,11.59-42.19c-3.08-32-8.04-84.67-8.15-111.81s2.97-81.17,9.08-130.99c6.1-49.82,6.05-116,6.05-116l-75.16,.91h0Z" style="fill:#31405d;" />
				<path d="M586.09,736.48s-9.29,28.63-3.97,44.81c5.32,16.18,14.47,30.38,14.47,30.38l15.47-.09-5.4-70.02-20.56-5.08h0Z" style="fill:#222d44;" />
				<polygon points="586.44 712.56 581.95 734.58 608.02 739.5 609.9 717.11 586.44 712.56" style="fill:#222d44;" />
			</g>
			<g>
				<path d="M732.36,566.25s41.09,128.48,36.11,180.03-4.44,79.53-4.2,101.54,10.18,41.87,4.99,63.39c-5.19,21.51-13.13,46.78-13.48,52.85s-1.6,13.68-1.6,13.68l-41.71,1.26s-13.56-6.83-13.44-38.92c.12-32.09,.22-84.89-2.18-111.92-2.4-27.03-15.63-97.72-26.31-146.85s-11.54-97.87-11.54-97.87l73.36-17.19Z" style="fill:#31405d;" />
				<path d="M772.26,730.02s6.03,27.6,2.22,44.11c-3.82,16.51-5.88,25.62-5.88,25.62l-15.28,6.24,.94-71.13,18-4.84h0Z" style="fill:#222d44;" />
				<polygon points="770.37 705.78 776.24 727.06 750.69 733.93 746.76 711.79 770.37 705.78" style="fill:#222d44;" />
			</g>
			<path d="M528.21,660.45s-3.73,24.45-5.5,30.98c-1.77,6.53,18.61,25.75,18.9,25.61,.3-.14,8.24,11.07,8.24,11.07,0,0,3.2-4.41,1.71-9.38-1.48-4.97-5.77-7.37-5.22-16.05,.55-8.69,1.69-18.4,4.77-18.04,3.08,.36-.98,19.89,.83,22.5,1.8,2.62,5.82,4.54,5.82,4.54,0,0,2.48-10.71,4.07-14.59s1.39-17.52,.28-22.85c-1.11-5.33-2.81-10.38-2.6-15.97,.22-5.6,2.19-16.99,2.19-16.99l-31.15,1.01s.85,8.94-2.35,18.16h.01Z" style="fill:#c48648;" />
			<path d="M827.66,645.4s4.99,22.75,6.79,29.26c1.79,6.51-16.28,26.72-16.58,26.58s-8.28,10.95-8.28,10.95c0,0-4.22-3.96-2.73-8.89,1.48-4.93,6.79-7.74,6.22-16.39-.57-8.65-1.74-18.33-4.84-18s1.02,19.8-.79,22.39-5.86,4.46-5.86,4.46c0,0-2.52-10.69-4.13-14.56s-1.43-17.45-.32-22.74c1.11-5.29,2.81-10.3,2.59-15.88-.23-5.57,2.39-24.57,2.39-24.57l26.76,8.92s-4.44,9.25-1.21,18.46h-.01Z" style="fill:#c48648;" />
			<path d="M632.96,298.82s2.85,20.02-.96,33.86c-1.76,6.39-.71,22.77,13.25,31.95,14.03,9.23,20.54,10.9,24.68,10.38s12.72-5.66,18.52-9.61c5.8-3.95,13.51-21.8,12.11-28.99-1.64-8.42-4.9-24.72-5.86-28.72-.97-4-4.59-16.43-4.59-16.43l-26.64-1.74-30.51,9.3h0Z" style="fill:#b98743;" />
			<path d="M635.32,320.3s-9.11-5.04-12.7-.93c-2.08,2.38,1.23,10.02,3.24,16.22,1.46,4.51,2.44,9,3.54,9.94,2.62,2.23,3.15-.99,5.09-1.94,1.93-.95,4.83-1.89,4.83-1.89l-4-21.4Z" style="fill:#b98743;" />
			<path d="M695.35,321.35s7.18-4.08,10.9-1.84c3.73,2.24-2.62,11-3.31,15.55-.69,4.54,.41,7.72-3.31,8.93-3.73,1.21-7.73-.48-7.73-.48l3.45-22.16h0Z" style="fill:#b98743;" />
			<path d="M672.28,315.48s3.72-4.24,6.88-5.63c4.79-2.11,10.58-.79,10.58-.79v-2.64s-8.48-1.78-13.5,.3c-5.01,2.08-7.48,6.06-7.48,6.06l3.52,2.69h0Z" style="fill:#2f2b39;" />
			<path d="M655.17,315.83s-3.97-2.63-6.93-4.38c-3.91-2.31-9.58-.18-9.58-.18l-.59-2.34s7.72-2.56,12.87-.75,7.56,4.78,7.56,4.78l-3.33,2.87h0Z" style="fill:#2f2b39;" />
			<g>
				<path d="M622.98,312.94s14.27-17.38,43.87-17.34c29.61,.04,37.95,13.14,37.95,13.14,0,0-.52-24.02-7.81-34.64s-29.92-19.74-36.46-20.47c-6.54-.73-27.1,16.08-31.51,21.87-4.42,5.8-7.29,35.85-6.04,37.43h0Z" style="fill:#31405d;" />
				<g style="clip-path:url(#p);">
					<g>
						<path d="M658.87,261.49s-5.63,2.8-5.35,4.98,1.92,2.28,1.92,2.28c0,0-3.03,1.33-2.74,4.77s2.74,8.26,5.15,9.46c2.4,1.2,3.7-.69,3.7-.69,0,0,1.92,1.65,4.11-.51,2.2-2.15,2.79-6.95,2.5-10.03s-4.09-3.93-4.09-3.93c0,0,1.05-1.44,.54-2.98s-5.74-3.36-5.74-3.36h0Z" style="fill:#b39746;" />
						<path d="M655.46,270.56s1.63-1.43,4.34-1.59c2.72-.16,4.37,.49,4.37,.49,0,0,1.57,10.5-3.07,10.38-5.35-.14-5.64-9.29-5.64-9.29h0Z" style="fill:#235a96;" />
						<path d="M630.66,269.25l8.89-.46s-4.78,10.38,2.12,12.46c7.17,2.16,12.05-.2,20.52-.58,8.48-.38,19.49-.09,21.36-4.15,2.86-6.24-3.64-11.59-3.64-11.59l8.81-2.31" style="fill:none; stroke:#b39746; stroke-linejoin:round; stroke-width:1.59px;" />
					</g>
				</g>
			</g>
			<path d="M652.43,354.76c1.26,1.69,2.76-1.36,5.11,.73s6.76,3.64,10.63,3.67c7.59,.06,9.69-5.34,10.9-5.56,2.21-.4,3.04,.71,3.73-1.07s-8.42-5.58-11.18-5.47c-2.76,.12-3.31,1.63-4.42,1.62-1.1,0-1.52-2.36-4.55-1.42-3.04,.94-12.28,4.72-10.21,7.5h0Z" style="fill:#9b4632;" />
			<path d="M648.18,319.73l-7.64,.04-.11-1.92,8.89-.99s-.96,2.9-1.14,2.87Z" style="fill:#2f2b39;" />
			<polygon points="648.47 317.94 640.69 315.29 641.03 313.3 649.23 315.84 648.47 317.94" style="fill:#2f2b39;" />
			<path d="M649.15,315.17c-1.96,.62-2.9,2.38-2.2,4.28,.7,1.89,2.59,2.52,4.37,2.07,2.11-.53,2.61-2.42,2.09-4.44-.37-1.43-2.25-2.56-4.26-1.92h0Z" style="fill:#2f2b39;" />
			<path d="M678.97,318.8l7.51-.6-.06-1.92-8.84-.26s1.22,2.82,1.39,2.78h0Z" style="fill:#2f2b39;" />
			<polygon points="678.52 317.03 686.04 313.83 685.52 311.87 677.58 315 678.52 317.03" style="fill:#2f2b39;" />
			<path d="M677.6,314.32c2,.48,3.1,2.17,2.57,4.11-.53,1.94-2.35,2.7-4.18,2.38-2.15-.38-2.81-2.22-2.47-4.27,.24-1.45,2.01-2.71,4.08-2.22h0Z" style="fill:#2f2b39;" />
			<path d="M640.51,374.52s.44,9.64,9.99,16.45,19.66,10.82,19.66,10.82c0,0,13.1-6.02,19.54-11.59,9.41-8.15,9.65-18.25,9.65-18.25,0,0,14.06,6.08,29.23,10.69,15.17,4.61,35.67,14.09,40.17,24.78,4.49,10.69-20.51,123.41-17.59,162.62,2.69,36.16-3.84,49.89-3.84,49.89l-140.19,.49s-14.92-2.58-7.06-48.51-33.93-150.1-22.28-160.3c9.84-8.62,31.29-17.2,42.48-24.1,11.3-6.96,20.24-12.99,20.24-12.99h0Z" style="fill:#31405d;" />
			<path d="M599.59,612.85l-2.44,29.91s38.81,9.81,79.47,10.14,77.4-11.35,77.4-11.35l-4.02-27.66s-25.99,8.06-64.67,8.23c-38.67,.18-85.73-9.28-85.73-9.28h-.01Z" style="fill:#222d44;" />
			<path d="M746.95,391.49c29.08,.48,43.26,53.96,56.27,82.01,12.53,27.03,32.12,80.54,35.58,101.3,2.85,17.08-8.4,52.38-8.4,52.38l-1.52,16.41-31.09-1.09s-5.33-8.46-11.66-49.4c-6.32-40.86-24.09-67.14-36.94-91.89-8.82-16.98-29.94-29.13-34.91-46.37-4.97-17.24,10.09-63.72,32.68-63.35h-.01Z" style="fill:#31405d;" />
			<polygon points="692.49 459.91 692.17 477.45 743.18 481.46 743.11 462.89 692.49 459.91" style="fill:#222d44;" />
			<polygon points="696.82 464.27 696.22 473.08 738.56 475.83 738.76 467.42 696.82 464.27" style="fill:#b39746;" />
			<path d="M635.01,679.12c-.77,5.27-4.14,9.89-12.47,8.8-7.84-1.03-9.18-7.54-8.85-11.55,.32-4.01,4.15-9.61,10.86-9.31,7.73,.34,11.22,6.87,10.46,12.06Zm-10.53-8.08c-4.17-.19-6.55,3.29-6.75,5.79-.2,2.49,.63,6.54,5.5,7.18,5.18,.68,7.28-2.19,7.75-5.47,.47-3.22-1.7-7.28-6.5-7.49h0Z" style="fill:#c4c7c9;" />
			<polygon points="622.21 651.76 621.27 668.98 629.07 669.75 629.77 653.24 622.21 651.76" style="fill:#c4c7c9;" />
			<polygon points="618.21 611.63 613.75 659.95 637.14 662.6 639.67 613.58 618.21 611.63" style="fill:#222d44;" />
			<path d="M619.85,681.64s0,22.11-.34,26.46,2.35,11.41,8.72,10.46c6.37-.95,9.06-3.28,9.39-10.31,.34-7.03-8.72-27.54-8.72-27.54l-9.06,.93h.01Z" style="fill:none;" />
			<path d="M594.34,402.93c-36.04,2.55-47.58,73.68-56.19,102.12-7.31,24.13-15.28,69.63-18.05,86.82-3.53,21.89,4.62,40.14,4.62,40.14l1.73,27.65,34.15-3.47s2.7-7.19,10.18-47.82c4.93-26.79,5.49-38.92,10.39-57.32,6.28-23.59,26.02-65.5,29.96-83,3.95-17.5,5.66-66.69-16.79-65.11h0Z" style="fill:#31405d;" />
			<path d="M642.13,365.64l-9.32,5.91-22.27,36.65s33.57-4.37,45.47-4.37,15.37,.99,15.37,.99c0,0,16.37-4.96,23.8-2.48,7.44,2.48,29.76,3.47,29.76,3.47l-19.84-33.72-10.41-6.94s0,18.85-7.44,24.8c-7.44,5.95-17.36,11.41-17.36,11.41,0,0-18.85-6.94-23.8-15.87-4.96-8.93-3.97-19.84-3.97-19.84h0Z" style="fill:#222d44;" />
			<polygon points="581.44 405.58 586.41 414.99 623.92 395.4 625.04 384.48 614.96 386.16 581.44 405.58" style="fill:#222d44;" />
			<polygon points="758.03 394 753.86 403.79 714.84 387.38 711.9 377.16 723.01 377.43 758.03 394" style="fill:#222d44;" />
			<path d="M651.16,487.2s1.6,29.97,2.24,37.02c.64,7.04-1.92,10.86-13.46,12.69-11.53,1.82-19.81,4.42-27.5,2.44s-9.65-10.51-10.42-21.38c-.77-10.89-2.62-20.92-2.62-20.92l51.76-9.84h0Z" style="fill:#222d44;" />
			<path d="M596.72,473.37l52.84-6.13s4.49,13.47,.64,16.64c-3.84,3.17-47.91,10.8-50.35,7.81-4.02-4.94-3.13-18.32-3.13-18.32Z" style="fill:#222d44;" />
		</g>
		<g>
			<path d="M670.82,420.55c-2.68-.12-4.21,2.11-4.33,3.72-.13,1.6,.41,4.2,3.54,4.61,3.33,.44,4.67-1.41,4.98-3.51,.3-2.07-1.09-4.68-4.18-4.81h-.01Z" style="fill:#222d44;" />
			<path d="M673.68,469.31c-2.68-.12-4.21,2.11-4.33,3.72-.13,1.6,.41,4.2,3.54,4.61,3.33,.44,4.67-1.41,4.98-3.51,.3-2.07-1.09-4.68-4.18-4.81h-.01Z" style="fill:#222d44;" />
			<path d="M675.03,525.93c-2.68-.12-4.21,2.11-4.33,3.72-.13,1.6,.41,4.2,3.54,4.61,3.33,.44,4.67-1.41,4.98-3.51,.3-2.07-1.09-4.68-4.18-4.81h-.01Z" style="fill:#222d44;" />
			<path d="M675.51,572.56c-2.68-.12-4.21,2.11-4.33,3.72s.41,4.2,3.54,4.61c3.33,.44,4.67-1.41,4.98-3.51,.3-2.07-1.09-4.68-4.18-4.81h-.01Z" style="fill:#222d44;" />
		</g>
	</g>
</svg>
