<?xml version="1.0" encoding="UTF-8"?>
<svg id="a" xmlns="http://www.w3.org/2000/svg" xmlns:xlink="http://www.w3.org/1999/xlink" viewBox="0 0 1920 1080">
	<defs>
		<style>
			.p,.q{fill:none;}.q{stroke:#272a3e;stroke-linecap:round;stroke-miterlimit:10;stroke-width:1.68px;}.r{fill:#f3fafd;}.s{fill:#f8f8f8;}.t{fill:#f8f7f0;}.u{fill:#009250;}.v{fill:#008f33;}.w{fill:#009794;}.x{fill:#007bc2;}.y{fill:#ffe558;}.a`{fill:#f1f1f3;}.aa{fill:#ffd800;}.ab{fill:#e5ca9c;}.ac{fill:#e52d87;}.ad{fill:#eef6eb;}.ae{fill:#e5b224;}.af{fill:#feca1b;}.ag{fill:#93a090;}.ah{fill:#8cabbc;}.ai{fill:#b3993e;}.aj{fill:#b0983a;}.ak{fill:#c6d6dc;}.al{fill:#df2e87;}.am{fill:#d4a55e;}.an{fill:#0b8f8a;}.ao{fill:#3fa25a;}.ap{fill:#406229;}.aq{fill:#189686;}.ar{fill:#1c3628;}.as{fill:#464640;}.at{fill:#879384;}.au{fill:#2a5151;}.av{fill:#4a4630;}.aw{fill:#2e425b;}.ax{fill:#272a3e;}.ay{fill:#75c6cf;}.b`{fill:#50b492;}.ba{fill:#7c5198;}.bb{clip-path:url(#c);}.bc{clip-path:url(#f);}.bd{clip-path:url(#e);}.be{clip-path:url(#d);}.bf{clip-path:url(#n);}.bg{clip-path:url(#m);}.bh{clip-path:url(#l);}.bi{clip-path:url(#k);}.bj{clip-path:url(#j);}.bk{clip-path:url(#i);}.bl{clip-path:url(#h);}.bm{clip-path:url(#g);}.bn{clip-path:url(#o);}
		</style>
		<clipPath id="c">
			<rect width="1920" height="1080" style="fill:none;" />
		</clipPath>
		<clipPath id="d">
			<path d="M1085.4,803.69c-1.8,.42-7.54,16.41-10.1,23.81-3.79,10.95-6.69,21.57-5.94,24.79,.76,3.22,21.93,4.33,30.89,3.73,8.96-.6,22.2-2.86,31.14-1.73s20.07,1.29,28.44,.19c8.36-1.11,16.5-6.32,18.52-9.5s-.5-7.6-3.27-8.88-15.91-3.32-21.45-6.37c-5.53-3.05-21.76-15.55-24.75-19.68s-7.26-12.24-11.41-6.04c-4.89,7.31-3.93,17.48-14.47,17.18-7.01-.19-9.86-2.82-9.41-8.03,.35-4.15-2.76-10.74-8.19-9.47h0Z" style="fill:none;" />
		</clipPath>
		<clipPath id="e">
			<path d="M1000.83,804.98c-1.8,.42-7.54,16.41-10.1,23.81-3.79,10.95-6.69,21.57-5.94,24.79s21.93,4.33,30.89,3.73c8.96-.6,22.2-2.86,31.14-1.73,8.94,1.12,20.07,1.29,28.44,.19,8.36-1.11,16.5-6.32,18.52-9.5s-.5-7.6-3.27-8.88-15.91-3.32-21.45-6.37c-5.53-3.05-21.76-15.55-24.75-19.68s-7.26-12.24-11.41-6.04c-4.89,7.31-4.49,17.3-15.03,17.01-7.01-.19-9.29-2.64-8.85-7.86,.35-4.15-2.76-10.74-8.19-9.47h0Z" style="fill:none;" />
		</clipPath>
		<clipPath id="f">
			<path d="M1340.45,803.67c-5.59,25.92,3.55,56.44,13.82,57.28,11.9,.98,179.07-.67,186.3-1.25,6.47-.52,12.77-28.5,13.36-49.64s-7.06-48.94-16.47-50.61c-9.41-1.67-69.69-3.61-100.86-3.06-31.17,.56-74.98,3.61-82.04,6.4-7.06,2.78-11.17,27.25-14.11,40.88Z" style="fill:none;" />
		</clipPath>
		<clipPath id="g">
			<path d="M1306.05,593.74c-1.5-6.17-8.76-9.36-16.1-7.55s-10.87,6.05-11.18,12.78c-.3,6.73-.47,20.08-5.64,33.32-7.9,20.22-21.45,29.4-22.3,31.14-1.1,2.26-2.17,5.17-2.17,5.17l-302.82,35.77,1.07,10.63,303.57-36.74s5.3,2.6,8.75,1.95c5.59-1.05,33.85-5.98,44.04-39.85,8.61-28.62,4.24-40.58,2.77-46.64v.02Zm-1.72,20.6l-2.43-1.58c-.01,3.52-.28,7.47-1.02,11.6l3.48,2.26-1.01,1.56-2.86-1.85c-.68,3.17-1.64,6.42-2.99,9.63-.04,.11-.09,.21-.14,.31l4.13,2.72-1.02,1.56-3.87-2.55c-1.36,2.98-2.94,5.94-4.63,8.8l4.92,3.22-1.02,1.56-4.86-3.18c-1.84,3.02-3.77,5.91-5.65,8.55l4.53,3.02-1.03,1.55-4.58-3.06c-2.09,2.87-4.06,5.41-5.72,7.46l2.5,1.67-1.03,1.55-2.65-1.77c-2.07,2.51-3.42,4-3.47,4.06l-1.38-1.26s1.32-1.46,3.29-3.84l-3.94-2.63c-3.73,4.53-6.44,7.44-6.52,7.51l-1.36-1.28c.07-.07,2.69-2.88,6.32-7.27l-3.31-2.21c-2.13,2.43-3.55,3.81-3.59,3.85l-1.29-1.35s1.34-1.3,3.32-3.54l-4.02-2.68,1.03-1.55,4.21,2.81c1.68-1.98,3.68-4.5,5.74-7.46l-2.93-1.96,1.03-1.55,2.95,1.97c1.76-2.63,3.54-5.55,5.17-8.72l-4.84-3.17,1.02-1.56,4.66,3.05c.94-1.92,1.81-3.91,2.6-5.98,.43-1.14,.83-2.27,1.18-3.41l-5.29-3.47,1.02-1.56,4.82,3.17c1.03-3.63,1.69-7.17,2.11-10.49l-3.48-2.26,1.01-1.56,2.7,1.75c.47-4.75,.44-8.94,.27-12.15l-3.7-2.41,1.02-1.56,2.51,1.64c-.22-2.59-.5-4.12-.51-4.17l1.83-.35c.01,.06,.41,2.23,.64,5.8l4.79,3.12c-.29-5.85-.93-9.98-.94-10.07l1.84-.3c.07,.43,.81,5.16,1.05,11.64l4.97,3.24c-.26-6.06-1.18-10.16-1.2-10.24l1.82-.42c.09,.39,1.15,5.13,1.33,11.93l3.47,2.26-1.02,1.56,.02,.04Z" style="fill:none;" />
		</clipPath>
		<clipPath id="h">
			<path d="M557.38,262.33c4.07-3.67,14.18-14.95,17.55-18.95,5.55-6.58,8.47-35.1,9.09-47.25s1.21-35.8-.94-41.19c-2.15-5.38-9.85-15.08-33.85-15.39s-35.23,11.85-38,20.46c-2.77,8.62-1.72,32.48-2.46,45.23-.71,12.17,2.77,26.46,6,33.85,3.23,7.39,10.62,18.46,17.39,23.23,6.77,4.77,22.16,2.77,25.23,0h-.01Z" style="fill:none;" />
		</clipPath>
		<clipPath id="i">
			<path d="M599.58,653.52s6.21,41.21,11.85,57.01c5.64,15.81,23.14,42.34,23.71,46.29,.56,3.95,0,28.79,6.21,47.42s22.58,57.01,24.84,70.56,5.08,29.92,5.08,29.92l25.97-5.08s-9.03-44.03-7.9-69.43-1.69-50.8-6.21-63.22-16.37-36.13-19.76-52.5-10.73-68.3-10.73-68.3l-53.06,7.34h0Z" style="fill:none;" />
		</clipPath>
		<clipPath id="j">
			<path d="M489.47,608.62s8.07,100.02,8.07,119.38-10.22,40.87-8.6,60.77c1.61,19.9,17.21,124.76,17.21,124.76l29.58,12.37s-6.99-25.81-6.99-51.09,11.29-51.09,12.37-67.22-3.76-47.86-3.23-56.46c.54-8.6,10.22-29.04,9.68-48.4-.54-19.36,2.69-76.36,2.69-76.36l-60.77-17.75h0Z" style="fill:none;" />
		</clipPath>
		<clipPath id="k">
			<path d="M519.39,908.21s7.26,.7,9.83,0,1.4-7.26,3.51-7.26,11.24,42.13,11.24,46.81-10.53,6.09-16.15,8.43c-5.62,2.34-7.49,8.89-7.49,8.89,0,0-39.09,1.17-43.07-.7s-3.28-9.36-.23-16.62c3.04-7.26,9.6-11.47,13.81-16.15,4.21-4.68,6.09-21.77,6.09-21.77l22.47-1.64h-.01Z" style="fill:none;" />
		</clipPath>
		<clipPath id="l">
			<path d="M667.68,900.1c-2.11,1.21,1.34,17.96,.28,24.44-1.06,6.48-1.21,32.41-1.21,32.41,0,0,7.99,2.56,21.7,2.41,13.72-.15,22.01-1.21,23.51-3.62,1.51-2.41,1.21-12.21-1.06-19.59-2.26-7.39-4.07-10.1-5.12-15.68-1.06-5.58-3.62-19.75-4.37-23.21-.75-3.47-12.21-7.23-18.54-5.88-6.33,1.36-15.21,8.72-15.21,8.72h.02Z" style="fill:none;" />
		</clipPath>
		<clipPath id="m">
			<path d="M491.97,478.4s24.51,10.09,61.99,11.53,68.48-7.93,68.48-7.93l2.92,11.02s15.32,29.94,17.41,63.36c2.09,33.42,23.01,112.73,23.01,112.73,0,0-25.8,3.55-46.68,7.03-20.89,3.48-47.35-.7-47.35-.7,0,0-22.28-61.27-27.15-103.05s-45.26-68.24-45.26-68.24l-7.37-25.77v.02Z" style="fill:none;" />
		</clipPath>
		<clipPath id="n">
			<path d="M469.81,673.84s27.44-7.44,46.93-3.26,39.69,4.18,39.69,4.18c0,0,18.1-81.47,17.41-79.38-.7,2.09-8.36-105.84-8.36-105.84,0,0-41.08-2.09-51.52-2.09s-19.5-5.57-19.5-5.57l-1.39,10.44s-12.53,8.36-12.53,35.51-10.73,146-10.73,146h0Z" style="fill:none;" />
		</clipPath>
		<clipPath id="o">
			<path d="M509.79,261.32s2.26,5.8,11.92,18.69c9.67,12.89,25.13,26.08,25.13,26.08,0,0,18.24-18.63,24.68-27.65,6.44-9.02,7.86-24.21,7.86-24.21,0,0,29,10.63,39.63,14.82s23.84,9.34,26.1,14.5-16.11,38.34-17.08,52.2c-.97,13.86,3.22,73.79,2.9,87.96-.32,14.18,5.48,62.19,8.38,78.94,2.9,16.76,1.84,22.99,1.84,22.99,0,0-56.26,9.44-92.02,12.02-35.77,2.58-70.92-4.9-70.92-4.9,0,0,5.48-34.3,9.02-54.6s4.51-67.34,3.87-78.62-11.28-59.61-18.37-77.33c-7.09-17.72-25.62-20.45-15.79-29.32,5.27-4.75,19.01-13.21,28.03-17.72s24.81-13.86,24.81-13.86h0Z" style="fill:none;" />
		</clipPath>
	</defs>
	<g id="b">
		<g style="clip-path:url(#c);">
			<g>
				<polygon points="2067.06 1061.34 -118.35 1074.43 -116.8 -80.18 2068.61 -93.27 2067.06 1061.34" style="fill:#c6d6dc;" />
				<polygon points="-208.02 847.7 2201.06 847.17 2188.68 1271.11 -172.64 1253.52 -208.02 847.7" style="fill:#f3fafd;" />
				<g>
					<g>
						<polygon points="238.85 249.73 226.48 281.44 227.52 315.25 234.88 320.5 241.46 320.35 248 308.83 241.46 306.89 237.42 313.98 236.04 281.95 245.28 256.45 247.18 264.86 254.36 264.72 250.49 250.58 238.85 249.73" style="fill:#f8f8f8;" />
						<path d="M233.41,286.4c-1.75,.4-1.86,1.98-1.75,3.06s1.04,1.77,1.98,1.73,1.64-.91,1.68-2.66-.82-2.38-1.91-2.13h0Z" style="fill:#879384;" />
						<path d="M233.96,301.03c-1.75,.4-1.86,1.98-1.75,3.06s1.04,1.77,1.98,1.73c.94-.05,1.64-.91,1.68-2.66s-.82-2.38-1.91-2.13h0Z" style="fill:#879384;" />
					</g>
					<g>
						<polygon points="142.06 249.73 129.69 281.44 130.73 315.25 138.09 320.5 144.67 320.35 151.2 308.83 144.67 306.89 140.62 313.98 139.24 281.95 148.48 256.45 150.39 264.86 157.57 264.72 153.7 250.58 142.06 249.73" style="fill:#f8f8f8;" />
						<path d="M136.62,286.4c-1.75,.4-1.86,1.98-1.75,3.06s1.04,1.77,1.98,1.73,1.64-.91,1.68-2.66-.82-2.38-1.91-2.13h0Z" style="fill:#879384;" />
						<path d="M137.17,301.03c-1.75,.4-1.86,1.98-1.75,3.06s1.04,1.77,1.98,1.73c.94-.05,1.64-.91,1.68-2.66s-.82-2.38-1.91-2.13h0Z" style="fill:#879384;" />
					</g>
					<g>
						<polygon points="335.64 249.73 323.28 281.44 324.32 315.25 331.68 320.5 338.26 320.35 344.79 308.83 338.26 306.89 334.21 313.98 332.83 281.95 342.07 256.45 343.98 264.86 351.16 264.72 347.29 250.58 335.64 249.73" style="fill:#f8f8f8;" />
						<path d="M330.2,286.4c-1.75,.4-1.86,1.98-1.75,3.06s1.04,1.77,1.98,1.73,1.64-.91,1.68-2.66-.82-2.38-1.91-2.13Z" style="fill:#879384;" />
						<path d="M330.75,301.03c-1.75,.4-1.86,1.98-1.75,3.06s1.04,1.77,1.98,1.73c.94-.05,1.64-.91,1.68-2.66,.04-1.75-.82-2.38-1.91-2.13Z" style="fill:#879384;" />
					</g>
				</g>
				<polygon points="907.76 690.77 908.64 862.53 928.44 862.53 927.56 688.87 907.76 690.77" style="fill:#2e425b;" />
				<polygon points="593.78 732.06 594.66 862.53 614.46 862.53 613.58 730.62 593.78 732.06" style="fill:#2e425b;" />
				<polygon points="1254.75 690.77 1255.63 862.53 1275.43 862.53 1274.54 688.87 1254.75 690.77" style="fill:#2e425b;" />
				<polygon points="1634.75 690.77 1635.63 862.53 1655.43 862.53 1654.54 688.87 1634.75 690.77" style="fill:#2e425b;" />
				<polygon points="812.07 169.97 814.05 716.97 1707.39 714.71 1704.75 168.37 812.07 169.97" style="fill:#e5b224;" />
				<g>
					<polygon points="1074.95 183.95 1077.62 433.25 1191.33 433.25 1190.16 184.44 1074.95 183.95" style="fill:#ffd800;" />
					<polygon points="1200.29 184.61 1202.95 432.93 1318.4 433.91 1316.66 183.95 1200.29 184.61" style="fill:#ffe558;" />
					<polygon points="1327.77 184.61 1330.44 433.91 1444.14 433.91 1444.14 183.95 1327.77 184.61" style="fill:#ffd800;" />
					<polygon points="1453.1 184.61 1455.78 433.91 1569.48 433.91 1569.48 183.95 1453.1 184.61" style="fill:#ffd800;" />
					<polygon points="1575.76 185.2 1577.56 431.95 1691.26 431.95 1692.13 184.54 1575.76 185.2" style="fill:#ffe558;" />
				</g>
				<g>
					<polygon points="1073.95 444.02 1076.63 693.32 1190.33 693.32 1189.16 444.51 1073.95 444.02" style="fill:#ffd800;" />
					<polygon points="1199.29 444.67 1201.95 692.99 1317.41 693.97 1315.67 444.02 1199.29 444.67" style="fill:#ffd800;" />
					<polygon points="1326.77 444.67 1329.44 693.97 1443.15 693.97 1443.15 444.02 1326.77 444.67" style="fill:#ffe558;" />
					<polygon points="1452.11 444.67 1454.78 693.97 1568.48 693.97 1568.48 444.02 1452.11 444.67" style="fill:#ffd800;" />
					<polygon points="1574.76 445.26 1576.57 692.01 1690.27 692.01 1691.14 444.61 1574.76 445.26" style="fill:#ffe558;" />
				</g>
				<g>
					<polygon points="828.07 186.5 830.75 435.81 944.45 435.81 944.45 185.85 828.07 186.5" style="fill:#ffd800;" />
					<polygon points="950.73 187.1 952.53 433.84 1066.23 433.84 1067.1 186.44 950.73 187.1" style="fill:#ffe558;" />
				</g>
				<g>
					<polygon points="828.07 446.57 830.75 695.87 944.45 695.87 944.45 445.92 828.07 446.57" style="fill:#ffd800;" />
					<polygon points="950.73 447.16 952.53 693.91 1066.23 693.91 1067.1 446.51 950.73 447.16" style="fill:#ffe558;" />
				</g>
				<polygon points="557.79 715.78 1973.2 712.96 1973.2 740.04 557.38 740.83 557.79 715.78" style="fill:#b0983a;" />
				<g>
					<path d="M1219.65,540.04c-4.44,.16-5.59,1.76-5.59,7.78,0,6.38,.3,9.24,5.59,9.12,5.91-.14,5.83-3.76,5.83-9.06s-.79-8.02-5.83-7.84Z" style="fill:#93a090;" />
					<polygon points="1218.72 542.94 1218.53 553.94 1220.71 553.94 1220.71 542.94 1218.72 542.94" style="fill:#eef6eb;" />
				</g>
				<g>
					<path d="M1344.98,540.04c-4.44,.16-5.59,1.76-5.59,7.78,0,6.38,.3,9.24,5.59,9.12,5.91-.14,5.83-3.76,5.83-9.06s-.79-8.02-5.83-7.84Z" style="fill:#93a090;" />
					<polygon points="1344.05 542.94 1343.86 553.94 1346.03 553.94 1346.03 542.94 1344.05 542.94" style="fill:#eef6eb;" />
				</g>
				<g>
					<path d="M1470.31,540.04c-4.44,.16-5.59,1.76-5.59,7.78,0,6.38,.3,9.24,5.59,9.12,5.91-.14,5.83-3.76,5.83-9.06s-.79-8.02-5.83-7.84Z" style="fill:#93a090;" />
					<polygon points="1469.37 542.94 1469.18 553.94 1471.36 553.94 1471.36 542.94 1469.37 542.94" style="fill:#eef6eb;" />
				</g>
				<g>
					<path d="M1595.64,540.04c-4.44,.16-5.59,1.76-5.59,7.78,0,6.38,.3,9.24,5.59,9.12,5.91-.14,5.83-3.76,5.83-9.06s-.79-8.02-5.83-7.84Z" style="fill:#93a090;" />
					<g>
						<path d="M1606.79,568.56l-3.04,.23c0-.09-.68-8.75-1.14-11.8-.77-5.08-4.38-4.83-5.56-4.75-4.02,.27-4.89,3.64-4.78,5.58,.11,1.97,1.19,10.81,1.2,10.9l-3.02,.37c-.05-.37-1.1-9.02-1.22-11.09-.32-5.66,3.71-8.52,7.61-8.79,4.83-.33,8.03,2.34,8.78,7.33,.48,3.17,1.14,11.67,1.16,12.03h.01Z" style="fill:#7c5198;" />
						<polygon points="1587.95 562.54 1590.3 583.09 1609.88 580.85 1607.26 560.63 1587.95 562.54" style="fill:#7c5198;" />
					</g>
					<polygon points="1594.7 542.94 1594.51 553.94 1596.69 553.94 1596.69 542.94 1594.7 542.94" style="fill:#eef6eb;" />
				</g>
				<g>
					<path d="M1094.33,540.04c-4.44,.16-5.59,1.76-5.59,7.78,0,6.38,.3,9.24,5.59,9.12,5.91-.14,5.83-3.76,5.83-9.06s-.79-8.02-5.83-7.84Z" style="fill:#93a090;" />
					<g>
						<path d="M1099.63,564.52l-2.37-.15c0-.07,.44-6.84,.42-9.26-.04-4.02-2.85-4.22-3.78-4.29-3.14-.23-4.18,2.28-4.31,3.8-.13,1.54-.27,8.49-.27,8.56l-2.38-.05c0-.29,.14-7.1,.28-8.72,.38-4.41,3.81-6.19,6.85-5.97,3.77,.27,5.95,2.69,5.99,6.64,.02,2.5-.41,9.15-.42,9.43h0Z" style="fill:#df2e87;" />
						<polygon points="1085.72 558.72 1085.27 574.88 1100.66 575.3 1100.87 559.36 1085.72 558.72" style="fill:#df2e87;" />
					</g>
					<polygon points="1093.39 542.94 1093.2 553.94 1095.38 553.94 1095.38 542.94 1093.39 542.94" style="fill:#eef6eb;" />
				</g>
				<g>
					<path d="M969,540.04c-4.44,.16-5.59,1.76-5.59,7.78,0,6.38,.3,9.24,5.59,9.12,5.91-.14,5.83-3.76,5.83-9.06s-.79-8.02-5.83-7.84Z" style="fill:#93a090;" />
					<polygon points="968.06 542.94 967.88 553.94 970.05 553.94 970.05 542.94 968.06 542.94" style="fill:#eef6eb;" />
				</g>
				<g>
					<path d="M843.67,545.34c-4.44,.16-5.59,1.76-5.59,7.78,0,6.38,.3,9.24,5.59,9.12,5.91-.14,5.83-3.76,5.83-9.06s-.79-8.02-5.83-7.84Z" style="fill:#93a090;" />
					<g>
						<path d="M846.91,568.56l-2.04-.37c.01-.06,1.05-5.88,1.27-7.98,.36-3.48-2.06-3.94-2.86-4.09-2.7-.51-3.85,1.56-4.11,2.87-.26,1.32-1.07,7.33-1.07,7.39l-2.06-.27c.03-.25,.82-6.14,1.1-7.53,.76-3.79,3.9-4.99,6.52-4.5,3.24,.61,4.89,2.92,4.54,6.34-.23,2.17-1.25,7.89-1.29,8.13h0Z" style="fill:#2a5151;" />
						<polygon points="835.52 561.37 833.55 575.32 846.84 577.2 848.58 563.41 835.52 561.37" style="fill:#2a5151;" />
					</g>
					<polygon points="842.74 548.24 842.55 559.25 844.73 559.25 844.73 548.24 842.74 548.24" style="fill:#eef6eb;" />
				</g>
				<g>
					<path d="M1218.25,303.51c4.44,.16,5.59,1.76,5.59,7.78,0,6.38-.3,9.24-5.59,9.12-5.91-.14-5.83-3.76-5.83-9.06s.79-8.02,5.83-7.84Z" style="fill:#93a090;" />
					<polygon points="1219.18 306.41 1219.37 317.42 1217.2 317.42 1217.2 306.41 1219.18 306.41" style="fill:#eef6eb;" />
				</g>
				<g>
					<path d="M1092.92,303.51c4.44,.16,5.59,1.76,5.59,7.78,0,6.38-.3,9.24-5.59,9.12-5.91-.14-5.83-3.76-5.83-9.06s.79-8.02,5.83-7.84Z" style="fill:#93a090;" />
					<polygon points="1093.86 306.41 1094.05 317.42 1091.87 317.42 1091.87 306.41 1093.86 306.41" style="fill:#eef6eb;" />
				</g>
				<g>
					<path d="M967.6,303.51c4.44,.16,5.59,1.76,5.59,7.78,0,6.38-.3,9.24-5.59,9.12-5.91-.14-5.83-3.76-5.83-9.06s.79-8.02,5.83-7.84Z" style="fill:#93a090;" />
					<g>
						<path d="M956.44,332.03l3.04,.23c0-.09,.68-8.75,1.14-11.8,.77-5.08,4.38-4.83,5.56-4.75,4.02,.27,4.89,3.64,4.78,5.58-.11,1.97-1.19,10.81-1.2,10.9l3.02,.37c.05-.37,1.1-9.02,1.22-11.09,.32-5.66-3.71-8.52-7.61-8.79-4.83-.33-8.03,2.34-8.78,7.33-.48,3.17-1.14,11.67-1.16,12.03h-.01Z" style="fill:#b3993e;" />
						<polygon points="975.28 326.01 972.93 346.56 953.36 344.32 955.97 324.1 975.28 326.01" style="fill:#b3993e;" />
					</g>
					<polygon points="968.53 306.41 968.72 317.42 966.54 317.42 966.54 306.41 968.53 306.41" style="fill:#eef6eb;" />
				</g>
				<g>
					<path d="M842.27,303.51c4.44,.16,5.59,1.76,5.59,7.78,0,6.38-.3,9.24-5.59,9.12-5.91-.14-5.83-3.76-5.83-9.06s.79-8.02,5.83-7.84Z" style="fill:#93a090;" />
					<polygon points="843.2 306.41 843.39 317.42 841.21 317.42 841.21 306.41 843.2 306.41" style="fill:#eef6eb;" />
				</g>
				<g>
					<path d="M1343.58,303.51c4.44,.16,5.59,1.76,5.59,7.78,0,6.38-.3,9.24-5.59,9.12-5.91-.14-5.83-3.76-5.83-9.06s.79-8.02,5.83-7.84Z" style="fill:#93a090;" />
					<g>
						<path d="M1340.8,331.75l2.88-.99c-.03-.08-2.85-8.3-3.63-11.29-1.31-4.97,2.1-6.17,3.22-6.57,3.8-1.34,5.93,1.4,6.6,3.23,.68,1.86,3.19,10.39,3.22,10.48l2.92-.86c-.1-.36-2.57-8.72-3.28-10.67-1.95-5.32-6.78-6.35-10.47-5.05-4.56,1.61-6.44,5.33-5.16,10.21,.82,3.1,3.58,11.16,3.7,11.5h0Z" style="fill:#0b8f8a;" />
						<polygon points="1355.7 318.75 1361.7 338.54 1342.84 344.25 1337.22 324.65 1355.7 318.75" style="fill:#0b8f8a;" />
					</g>
					<polygon points="1344.51 306.41 1344.7 317.42 1342.52 317.42 1342.52 306.41 1344.51 306.41" style="fill:#eef6eb;" />
				</g>
				<g>
					<path d="M1468.9,303.51c4.44,.16,5.59,1.76,5.59,7.78,0,6.38-.3,9.24-5.59,9.12-5.91-.14-5.83-3.76-5.83-9.06s.79-8.02,5.83-7.84Z" style="fill:#93a090;" />
					<polygon points="1469.84 306.41 1470.03 317.42 1467.85 317.42 1467.85 306.41 1469.84 306.41" style="fill:#eef6eb;" />
				</g>
				<g>
					<path d="M1594.23,308.82c4.44,.16,5.59,1.76,5.59,7.78,0,6.38-.3,9.24-5.59,9.12-5.91-.14-5.83-3.76-5.83-9.06s.79-8.02,5.83-7.84Z" style="fill:#93a090;" />
					<polygon points="1595.17 311.71 1595.36 322.72 1593.18 322.72 1593.18 311.71 1595.17 311.71" style="fill:#eef6eb;" />
				</g>
				<g>
					<path d="M1085.4,803.69c-1.8,.42-7.54,16.41-10.1,23.81-3.79,10.95-6.69,21.57-5.94,24.79,.76,3.22,21.93,4.33,30.89,3.73,8.96-.6,22.2-2.86,31.14-1.73s20.07,1.29,28.44,.19c8.36-1.11,16.5-6.32,18.52-9.5s-.5-7.6-3.27-8.88-15.91-3.32-21.45-6.37c-5.53-3.05-21.76-15.55-24.75-19.68s-7.26-12.24-11.41-6.04c-4.89,7.31-3.93,17.48-14.47,17.18-7.01-.19-9.86-2.82-9.41-8.03,.35-4.15-2.76-10.74-8.19-9.47h0Z" style="fill:#f1f1f3;" />
					<g style="clip-path:url(#d);">
						<g>
							<path d="M784.55,848.68s2.51-12.06-1.76-28.03c-4.27-15.97-10.2-14.56-10.2-14.56l-21.63,31.94,18.22,9.98,15.37,.67h0Z" style="fill:none;" />
							<path d="M1065.71,833.76s14.29,7.31,30.56,7.56c6.97,.11,23.02-1.34,33.71,.76,10.69,2.1,26.22,5.38,34.77,4.72,15.31-1.19,20.52-14.08,20.52-14.08l6.58-3.92-9.35,30.78-117.57,9.99,.79-35.81h-.01Z" style="fill:#007bc2;" />
						</g>
					</g>
				</g>
				<g>
					<path d="M1000.83,804.98c-1.8,.42-7.54,16.41-10.1,23.81-3.79,10.95-6.69,21.57-5.94,24.79s21.93,4.33,30.89,3.73c8.96-.6,22.2-2.86,31.14-1.73,8.94,1.12,20.07,1.29,28.44,.19,8.36-1.11,16.5-6.32,18.52-9.5s-.5-7.6-3.27-8.88-15.91-3.32-21.45-6.37c-5.53-3.05-21.76-15.55-24.75-19.68s-7.26-12.24-11.41-6.04c-4.89,7.31-4.49,17.3-15.03,17.01-7.01-.19-9.29-2.64-8.85-7.86,.35-4.15-2.76-10.74-8.19-9.47h0Z" style="fill:#f1f1f3;" />
					<g style="clip-path:url(#e);">
						<g>
							<path d="M1008.01,847.69s2.7-12.95-1.89-30.1c-4.59-17.15-10.96-15.64-10.96-15.64l-23.24,34.31,19.57,10.72,16.51,.71h.01Z" style="fill:none;" />
							<path d="M981.14,835.05s14.29,7.31,30.56,7.56c6.97,.11,23.02-1.34,33.71,.76,10.69,2.1,26.22,5.38,34.77,4.72,15.31-1.19,20.52-14.08,20.52-14.08l6.58-3.92-9.35,30.78-117.57,9.99,.79-35.81h-.01Z" style="fill:#007bc2;" />
						</g>
					</g>
				</g>
				<path d="M1268.3,696.94c-.11,9.38-7.34,18.07-18.03,17.71-10.3-.35-16.97-8.2-17.15-17.71-.18-9.49,7.55-17.82,17.81-17.64,9.94,.18,17.46,8.75,17.36,17.64h.01Zm-27.34-10.46c-1.46-.03-2.55,1.16-2.53,2.5s.97,2.46,2.43,2.51,2.54-1.18,2.56-2.51c.01-1.26-1.05-2.48-2.46-2.5h0Zm21.76,.72c-1.46-.03-2.55,1.16-2.53,2.5,.02,1.35,.97,2.46,2.43,2.51,1.52,.05,2.54-1.18,2.56-2.51,.01-1.26-1.05-2.48-2.46-2.5h0Zm-16.23,12.98c-1.46-.03-2.55,1.16-2.53,2.5s.97,2.46,2.43,2.51,2.54-1.18,2.56-2.51c.01-1.26-1.05-2.48-2.46-2.5h0Zm-9.73-1.84c-1.46-.03-2.55,1.16-2.53,2.5s.97,2.46,2.43,2.51,2.54-1.18,2.56-2.51c.01-1.26-1.05-2.48-2.46-2.5h0Zm13.79-8.47c-1.46-.03-2.55,1.16-2.53,2.5s.97,2.46,2.43,2.51,2.54-1.18,2.56-2.51c.01-1.26-1.05-2.48-2.46-2.5h0Zm11.14,8.88c-1.46-.03-2.55,1.16-2.53,2.5s.97,2.46,2.43,2.51,2.54-1.18,2.56-2.51c.01-1.26-1.05-2.48-2.46-2.5h0Zm-7.53,8.81c-1.46-.03-2.55,1.16-2.53,2.5s.97,2.46,2.43,2.51,2.54-1.18,2.56-2.51c.01-1.26-1.05-2.48-2.46-2.5h0Zm-3.52-26.96c-1.46-.03-2.55,1.16-2.53,2.5,.02,1.35,.97,2.46,2.43,2.51s2.54-1.18,2.56-2.51c.01-1.26-1.05-2.48-2.46-2.5h0Z" style="fill:#f1f1f3;" />
				<g>
					<path d="M1421.32,723.31s-33.82,42.54-39.11,56.45c-5.29,13.9-13.53,80.08-13.53,80.08l12.94,.28s11.47-75.63,15.58-83.98c4.12-8.34,24.27-45.28,24.27-45.28l30.53-.71s17.25,37.37,20.77,44.88c3.53,7.51,17.06,85.37,17.06,85.37l12.94,.28s-12.06-82.03-16.76-88.15c-4.7-6.12-34.22-50-34.22-50l-30.47,.78h0Z" style="fill:#189686;" />
					<g>
						<path d="M1340.45,803.67c-5.59,25.92,3.55,56.44,13.82,57.28,11.9,.98,179.07-.67,186.3-1.25,6.47-.52,12.77-28.5,13.36-49.64s-7.06-48.94-16.47-50.61c-9.41-1.67-69.69-3.61-100.86-3.06-31.17,.56-74.98,3.61-82.04,6.4-7.06,2.78-11.17,27.25-14.11,40.88Z" style="fill:#008f33;" />
						<g style="clip-path:url(#f);">
							<g>
								<path d="M1331.34,789.49s63.22,1.67,94.98,1.95,110.27-1.95,110.27-1.95l.29,13.63s-67.93,1.39-113.21,1.39-77.63-.28-77.63-.28l-16.17-4.45s1.18-9.18,1.47-10.29Z" style="fill:#50b492;" />
								<path d="M1371.71,756.9s-2.16,6.12-2.59,10.61c-.43,4.49,.86,11.02,14.24,10.61,13.37-.41,106.56-.76,117.57-.76s14.14-4.46,11.79-12.63c-2.36-8.17-7.07-23.04-7.07-23.04l-133.93,15.21h-.01Z" style="fill:#50b492;" />
								<path d="M1377.56,753.42s-2.58,10.54-2.98,13.52c-.4,2.98,.79,7.32,13.06,7.05s99.23-.95,109.33-.95,13.45-2.48,11.29-7.92c-2.16-5.43-4-17.56-4-17.56l-126.69,5.85h-.01Z" style="fill:#008f33;" />
							</g>
						</g>
					</g>
					<polygon points="1420.94 723.03 1420.94 731.57 1453.11 732.59 1452 722.53 1420.94 723.03" style="fill:#272a3e;" />
					<path d="M1427.17,724.66s-34.38,42.86-39.67,56.76-14.61,81.14-14.61,81.14l14.02-.78s11.47-75.63,15.58-83.98c4.12-8.34,24.41-43.93,24.41-43.93l30.29-.28s17.35,35.59,20.88,43.1c3.53,7.51,17.14,84.28,17.14,84.28l13.86,.1s-13.06-80.76-17.77-86.88c-4.7-6.12-35.21-49.33-35.21-49.33l-28.91-.2h-.01Z" style="fill:#50b492;" />
					<polygon points="1427.39 724.46 1426.96 734.11 1456.95 733.5 1456.73 724.66 1427.39 724.46" style="fill:#272a3e;" />
				</g>
				<g>
					<path d="M1289.4,633.28l-4.54-2.98c-.32,1-.67,2-1.05,3.01-.83,2.19-1.77,4.31-2.77,6.34l3.86,2.52c1.72-2.95,3.27-5.95,4.51-8.89h0Z" style="fill:#2e425b;" />
					<path d="M1273.94,651.58c-2.05,2.94-4.04,5.46-5.73,7.46l3.28,2.19c1.79-2.2,3.75-4.72,5.74-7.45l-3.29-2.2Z" style="fill:#2e425b;" />
					<path d="M1273.05,662.27l3.95,2.63c1.65-2.04,3.63-4.58,5.73-7.46l-3.94-2.63c-1.99,2.73-3.95,5.24-5.74,7.46Z" style="fill:#2e425b;" />
					<path d="M1292.48,621.14l-4.83-3.13c-.46,3.32-1.16,6.84-2.21,10.44l4.66,3.06c1.16-3.24,1.92-6.79,2.38-10.37h0Z" style="fill:#2e425b;" />
					<path d="M1293.1,607.02l-4.76-3.1c.12,3.31,.07,7.44-.44,12.03l4.82,3.12c.42-4.21,.48-8.38,.38-12.05h0Z" style="fill:#2e425b;" />
					<path d="M1283.94,643.78l-3.75-2.45c-1.65,3.16-3.43,6.09-5.19,8.72l3.33,2.22c1.92-2.7,3.84-5.56,5.61-8.49h0Z" style="fill:#2e425b;" />
					<path d="M1294.49,620.22l4.67,3.03c.68-4.2,.88-8.21,.84-11.73l-4.97-3.24c.07,3.69-.05,7.8-.53,11.94h-.01Z" style="fill:#2e425b;" />
					<g>
						<path d="M1306.05,593.74c-1.5-6.17-8.76-9.36-16.1-7.55s-10.87,6.05-11.18,12.78c-.3,6.73-.47,20.08-5.64,33.32-7.9,20.22-21.45,29.4-22.3,31.14-1.1,2.26-2.17,5.17-2.17,5.17l-302.82,35.77,1.07,10.63,303.57-36.74s5.3,2.6,8.75,1.95c5.59-1.05,33.85-5.98,44.04-39.85,8.61-28.62,4.24-40.58,2.77-46.64v.02Zm-1.72,20.6l-2.43-1.58c-.01,3.52-.28,7.47-1.02,11.6l3.48,2.26-1.01,1.56-2.86-1.85c-.68,3.17-1.64,6.42-2.99,9.63-.04,.11-.09,.21-.14,.31l4.13,2.72-1.02,1.56-3.87-2.55c-1.36,2.98-2.94,5.94-4.63,8.8l4.92,3.22-1.02,1.56-4.86-3.18c-1.84,3.02-3.77,5.91-5.65,8.55l4.53,3.02-1.03,1.55-4.58-3.06c-2.09,2.87-4.06,5.41-5.72,7.46l2.5,1.67-1.03,1.55-2.65-1.77c-2.07,2.51-3.42,4-3.47,4.06l-1.38-1.26s1.32-1.46,3.29-3.84l-3.94-2.63c-3.73,4.53-6.44,7.44-6.52,7.51l-1.36-1.28c.07-.07,2.69-2.88,6.32-7.27l-3.31-2.21c-2.13,2.43-3.55,3.81-3.59,3.85l-1.29-1.35s1.34-1.3,3.32-3.54l-4.02-2.68,1.03-1.55,4.21,2.81c1.68-1.98,3.68-4.5,5.74-7.46l-2.93-1.96,1.03-1.55,2.95,1.97c1.76-2.63,3.54-5.55,5.17-8.72l-4.84-3.17,1.02-1.56,4.66,3.05c.94-1.92,1.81-3.91,2.6-5.98,.43-1.14,.83-2.27,1.18-3.41l-5.29-3.47,1.02-1.56,4.82,3.17c1.03-3.63,1.69-7.17,2.11-10.49l-3.48-2.26,1.01-1.56,2.7,1.75c.47-4.75,.44-8.94,.27-12.15l-3.7-2.41,1.02-1.56,2.51,1.64c-.22-2.59-.5-4.12-.51-4.17l1.83-.35c.01,.06,.41,2.23,.64,5.8l4.79,3.12c-.29-5.85-.93-9.98-.94-10.07l1.84-.3c.07,.43,.81,5.16,1.05,11.64l4.97,3.24c-.26-6.06-1.18-10.16-1.2-10.24l1.82-.42c.09,.39,1.15,5.13,1.33,11.93l3.47,2.26-1.02,1.56,.02,.04Z" style="fill:#2e425b;" />
						<g style="clip-path:url(#g);">
							<path d="M1044.59,665.78l9.59,55.99-209.36,33.44,.56-43.28s200.41-46.3,199.21-46.14h0Z" style="fill:#e52d87;" />
						</g>
					</g>
					<path d="M1286.45,643.19l3.96,2.59c1.69-2.87,3.27-5.83,4.61-8.81l-4.04-2.66c-1.26,2.94-2.81,5.93-4.53,8.88h0Z" style="fill:#2e425b;" />
					<path d="M1279.87,653.3l3.93,2.63c1.88-2.64,3.81-5.52,5.64-8.54l-3.95-2.59c-1.78,2.94-3.7,5.8-5.62,8.5h0Z" style="fill:#2e425b;" />
					<path d="M1291.69,632.55l4.09,2.69c1.4-3.32,2.36-6.7,3.02-10.01l-4.58-2.97c-.52,3.54-1.32,7.05-2.53,10.29Z" style="fill:#2e425b;" />
				</g>
			</g>
		</g>
	</g>
	<path d="M515.52,198.29s3.44,30.41,4.02,42.46-7.85,21.16-13.02,23.45c-5.16,2.3-35.4,21.04-35.4,21.04l1.36,31.25,70.01,71.16,61.4-90.09,8.61-27.54c-.13,.02-31.26-4.92-36.13-20.6-4.96-15.98-2.32-45.96-2.32-45.96l-58.53-5.16h0Z" style="fill:#d4a55e;" />
	<g>
		<g>
			<path d="M511.38,199.41s-5.23-6.46-9.08-5.23c-3.85,1.23-.31,7.69-.46,12.92-.15,5.23,1.23,12,4.46,12.62,3.23,.62,8.62-1.85,8.15-1.85s-3.08-18.46-3.08-18.46h0Z" style="fill:#d4a55e;" />
			<path d="M580.31,201.56s6.46-6.15,11.08-2.62c4.62,3.54-1.08,8.31-2.46,12.77s-2.77,10.62-6.92,11.39-7.23-1.08-7.23-1.08l5.54-20.46h-.01Z" style="fill:#d4a55e;" />
			<g>
				<path d="M557.38,262.33c4.07-3.67,14.18-14.95,17.55-18.95,5.55-6.58,8.47-35.1,9.09-47.25s1.21-35.8-.94-41.19c-2.15-5.38-9.85-15.08-33.85-15.39s-35.23,11.85-38,20.46c-2.77,8.62-1.72,32.48-2.46,45.23-.71,12.17,2.77,26.46,6,33.85,3.23,7.39,10.62,18.46,17.39,23.23,6.77,4.77,22.16,2.77,25.23,0h-.01Z" style="fill:#d4a55e;" />
				<g style="clip-path:url(#h);">
					<path d="M546.67,178.65c8.23,.34,21.56-6.42,23.71-7.23,2.12-.8,5.19-.52,6.23,1.41,1.04,1.92,4.22,6.43,2.61,10.85-1.61,4.42-2.81,7.63-2.81,7.63l4.02,14.87,3.01-.4,15.07-61.48-45.41-21.9-48.22,28.33,3.89,54.53,3.15-1.09,4.42-14.06s-2.93-8.25-1.81-12.66c1.65-6.47,6.62-7.23,9.83-6.14s7.65,6.74,22.32,7.34h0Z" style="fill:#4a4630;" />
				</g>
			</g>
			<path d="M531.23,242.11c.22,1.3,2.61-.39,4.3,.99,1.69,1.38,6.46,4.15,10,3.85s7.06-2.76,8.74-3.02c3.85-.58,4.56-.62,4.94-2.03,.29-1.08-5.38-2.8-9.23-2.34s-3.54,1.23-4.92,1.38-1.85-1.54-5.08-1.08c-3.23,.46-9.07,.39-8.77,2.24h.02Z" style="fill:#e5ca9c;" />
			<path d="M550.92,204.48c.46,0,12.31-3.08,15.08-2.92,2.77,.15,8.46,4.77,8.46,4.77l-2,2.15s-5.23-2.31-7.39-2.92c-2.15-.62-12.92,3.08-12.92,3.08l-1.23-4.15h0Z" style="fill:#464640;" />
			<path d="M539.07,207.87l1.08-4.31s-13.85-4-16-3.69-8.46,4-8.46,4l1.69,2.15s5.08-2.15,7.85-1.69c2.77,.46,13.85,3.54,13.85,3.54h0Z" style="fill:#464640;" />
		</g>
		<g>
			<path d="M531.53,208.23c-1.99-.05-3.42,1.26-3.39,3.21,.04,1.95,1.29,2.77,3.07,2.93,2.11,.18,3.34-1.07,3.51-3.07,.12-1.42-1.14-3.02-3.19-3.07h0Z" style="fill:#406229;" />
			<path d="M559.99,208.94c-1.99-.05-3.42,1.26-3.39,3.21,.04,1.95,1.29,2.77,3.07,2.93,2.11,.18,3.34-1.07,3.51-3.07,.12-1.42-1.14-3.02-3.19-3.07Z" style="fill:#406229;" />
			<polygon points="555.95 210.94 565.76 209.18 564.87 205.12 554.79 208.4 555.95 210.94" style="fill:#464640;" />
			<polygon points="524.45 208.73 535.19 210.87 536.29 208.22 525.51 204.58 524.45 208.73" style="fill:#464640;" />
		</g>
	</g>
	<g>
		<g>
			<path d="M599.58,653.52s6.21,41.21,11.85,57.01c5.64,15.81,23.14,42.34,23.71,46.29,.56,3.95,0,28.79,6.21,47.42s22.58,57.01,24.84,70.56,5.08,29.92,5.08,29.92l25.97-5.08s-9.03-44.03-7.9-69.43-1.69-50.8-6.21-63.22-16.37-36.13-19.76-52.5-10.73-68.3-10.73-68.3l-53.06,7.34h0Z" style="fill:#d4a55e;" />
			<g style="clip-path:url(#i);">
				<g>
					<path d="M673.38,822.65c12.14-2.58,24.2-12.37,24.2-12.37l13.98,89.81-49.47,16.13-24.74-97.33s18.28,7.53,36.03,3.76Z" style="fill:#75c6cf;" />
					<path d="M676.32,832.24c12.14-2.58,24.2-12.37,24.2-12.37l13.98,89.81-49.47,16.13-24.74-97.33s18.28,7.53,36.03,3.76Z" style="fill:#009794;" />
				</g>
			</g>
		</g>
		<g>
			<path d="M489.47,608.62s8.07,100.02,8.07,119.38-10.22,40.87-8.6,60.77c1.61,19.9,17.21,124.76,17.21,124.76l29.58,12.37s-6.99-25.81-6.99-51.09,11.29-51.09,12.37-67.22-3.76-47.86-3.23-56.46c.54-8.6,10.22-29.04,9.68-48.4-.54-19.36,2.69-76.36,2.69-76.36l-60.77-17.75h0Z" style="fill:#d4a55e;" />
			<g style="clip-path:url(#j);">
				<g>
					<path d="M510.44,829.1c11.88,0,33.34-6.99,33.34-6.99l5.92,114-70.45-.54-2.15-118.84s19.9,12.37,33.34,12.37Z" style="fill:#75c6cf;" />
					<path d="M511.1,839.22c11.88,0,33.34-6.99,33.34-6.99l5.92,114-70.45-.54-2.15-118.84s19.9,12.37,33.34,12.37Z" style="fill:#009794;" />
				</g>
			</g>
		</g>
		<g>
			<path d="M519.39,908.21s7.26,.7,9.83,0,1.4-7.26,3.51-7.26,11.24,42.13,11.24,46.81-10.53,6.09-16.15,8.43c-5.62,2.34-7.49,8.89-7.49,8.89,0,0-39.09,1.17-43.07-.7s-3.28-9.36-.23-16.62c3.04-7.26,9.6-11.47,13.81-16.15,4.21-4.68,6.09-21.77,6.09-21.77l22.47-1.64h-.01Z" style="fill:#f1f1f3;" />
			<g style="clip-path:url(#k);">
				<path d="M467.9,964.63s8.66-1.4,11.7-5.38,2.86-8.35,2.86-8.35l10.95-.31s.7,7.02,11.94,10.53,19.9,2.81,19.9,2.81l-3.75,13.58-54.3-3.04,.7-9.83h0Z" style="fill:#1c3628;" />
			</g>
		</g>
		<path d="M518.06,910.95s6.79,8.89,8.66,14.51,.94,13.58,.94,13.58l3.75-2.57s.94-8.66-.7-13.58c-1.64-4.92-8.66-14.75-8.66-14.75l-3.98,2.81h-.01Z" style="fill:#009250;" />
		<g>
			<path d="M667.68,900.1c-2.11,1.21,1.34,17.96,.28,24.44-1.06,6.48-1.21,32.41-1.21,32.41,0,0,7.99,2.56,21.7,2.41,13.72-.15,22.01-1.21,23.51-3.62,1.51-2.41,1.21-12.21-1.06-19.59-2.26-7.39-4.07-10.1-5.12-15.68-1.06-5.58-3.62-19.75-4.37-23.21-.75-3.47-12.21-7.23-18.54-5.88-6.33,1.36-15.21,8.72-15.21,8.72h.02Z" style="fill:#f1f1f3;" />
			<g style="clip-path:url(#l);">
				<g>
					<path d="M671.88,899.52s-3.77,3.32-4.07,7.54c-.3,4.22-.9,11.91-.9,11.91l1.66,3.32s-.45-11.76,1.81-14.62,6.63-7.69,6.63-7.69l-5.12-.45h-.01Z" style="fill:#3fa25a;" />
					<path d="M662.99,956.95s13.57-.45,15.68-4.07c2.11-3.62,2.86-5.73,2.86-5.73l9.5-.3s1.4,5.18,7.13,7.44,18.34-.5,18.34-.5l1.96,14.02-56.07-3.47,.6-7.39h0Z" style="fill:#272a3e;" />
				</g>
			</g>
		</g>
		<path d="M685.45,883.24c-8.57,.39-18.2,10.68-18.2,10.68l1.77,8.16,10.7,1.36,2.11,22.01,9.5-.15,.75-22.46,6.48-.15,.3-8.44s-3.47-11.46-13.41-11h0Z" style="fill:#272a3e;" />
		<path d="M510.27,894.4c-5.39,.38-13.58,14.28-13.58,14.28l-.47,8.89,5.15,.23-7.49,16.41,8.64,1.23,13.6-22.1,10.66,1.21,1.93-6.27s-8.38-14.6-18.45-13.89h0Z" style="fill:#272a3e;" />
	</g>
	<g>
		<g>
			<path d="M491.97,478.4s24.51,10.09,61.99,11.53,68.48-7.93,68.48-7.93l2.92,11.02s15.32,29.94,17.41,63.36c2.09,33.42,23.01,112.73,23.01,112.73,0,0-25.8,3.55-46.68,7.03-20.89,3.48-47.35-.7-47.35-.7,0,0-22.28-61.27-27.15-103.05s-45.26-68.24-45.26-68.24l-7.37-25.77v.02Z" style="fill:#272a3e;" />
			<g style="clip-path:url(#m);">
				<path d="M563.39,667.96s34.97,1.9,46.22,1.34,64.91-9.42,64.91-9.42l.32,24.04-113.03,10.12,1.58-26.08h0Z" style="fill:#f1f1f3;" />
			</g>
		</g>
		<g>
			<path d="M469.81,673.84s27.44-7.44,46.93-3.26,39.69,4.18,39.69,4.18c0,0,18.1-81.47,17.41-79.38-.7,2.09-8.36-105.84-8.36-105.84,0,0-41.08-2.09-51.52-2.09s-19.5-5.57-19.5-5.57l-1.39,10.44s-12.53,8.36-12.53,35.51-10.73,146-10.73,146h0Z" style="fill:#272a3e;" />
			<g style="clip-path:url(#n);">
				<path d="M458.33,666.49s30.37-7.87,51.73-5.06c21.37,2.81,55.28,7.76,55.28,7.76l-2.98,17.55-106.28,3.94,2.25-24.18h0Z" style="fill:#f1f1f3;" />
			</g>
		</g>
		<g>
			<path d="M532.45,594.9c.04-.39,3.83-39.17,7.14-53.2,4.18-17.7,9.9-27.57,10.14-27.98l1.96,1.15c-.06,.1-5.79,10.01-9.89,27.35-3.28,13.87-7.06,52.5-7.09,52.89l-2.26-.22h0Z" style="fill:#f1f1f3;" />
			<path d="M533.21,598.65c-1.06-.13-1.82-1.09-1.72-2.15l1.85-18.74c.11-1.09,2.03-.31,2.03-.31,0,0,2.01-.37,1.9,.7l-1.85,18.74c-.11,1.09-1.07,1.88-2.16,1.77h-.05Z" style="fill:#f1f1f3;" />
		</g>
		<g>
			<path d="M576.83,584.78c.01-.39-.08-45.92-1.61-60.25-1.94-18.09-6.37-28.59-6.56-29.03l-2.09,.89c.05,.1,4.49,10.66,6.39,28.38,1.52,14.17,1.61,59.55,1.6,59.94l2.27,.06h0Z" style="fill:#f1f1f3;" />
			<path d="M576.1,588.4c1.07-.05,1.9-.94,1.88-2.01l-.37-18.82c-.02-1.09-2-.47-2-.47,0,0-1.97-.53-1.95,.55l.37,18.82c.02,1.09,.92,1.96,2.01,1.94h.06Z" style="fill:#f1f1f3;" />
		</g>
	</g>
	<path d="M618.43,352.22s12.01,50.58,13.2,57.27,8.32,22.13,8.32,22.13l31.11-13.9s-2.95-13.06-5.1-24.07c-2.15-11-10.7-55.78-10.7-55.78l-36.83,14.35Z" style="fill:#d4a55e;" />
	<path d="M650,402.2c-10.27,3.85-19.61,6.7-15.31,27.27,4.31,20.57,17.94,65.77,18.42,73.66s-.96,14.83-.96,14.83l20.81,2.39s2.39-.96,2.39-6.94-1.2-10.52-.96-22,3.59-53.33,1.2-66.73c-2.39-13.39-10.28-28.22-25.59-22.48h0Z" style="fill:#d4a55e;" />
	<path d="M654.21,512.34s-13.46,19.5-14.45,24.12c-.98,4.63-2.52,20.06-3.51,24.82-.98,4.77-1.26,8.98-1.26,8.98,0,0,6.59,3.23,10.1-4.63,3.51-7.85,2.66-17.95,6.45-17.25s.14,12.06-1.82,15.99-7.43,4.63-7.85,6.59c-.42,1.96-1.4,3.51-1.4,3.51,0,0-7.85,2.81-8.42,5.61s0,5.89,0,5.89c0,0,26.23-5.33,28.19-7.29s12.48-20.48,13.89-23.84c1.4-3.37,1.12-23,1.26-29.73s1.26-8.56,.98-12.9c-.28-4.35-2.95-23.84-2.95-23.84l-20.76,2.81s5.05,12.48,1.54,21.18v-.02Z" style="fill:#d4a55e;" />
	<path d="M448.75,370.57s1.61,43.77-.3,53.37c-2.6,13.09-2.97,29.06,8.6,30.54,11.56,1.48,19.83-.66,23.39-12.23,3.56-11.56,7.15-36.1,7.44-46.78,.3-10.67-2.67-33.21-2.67-33.21l-36.47,8.3h.01Z" style="fill:#d4a55e;" />
	<path d="M465.65,412.97c-15.41,1.24-19.87,10.08-23.13,31.13-3.26,21.05,3.26,76.79,2.67,82.72s-1.19,10.08-.89,16.01c.3,5.93,1.19,11.27,1.19,11.27l19.87-8.89s-2.08-7.12,.59-18.98c2.67-11.86,13.64-61.08,16.9-74.42,3.26-13.34,1.19-40.32-17.2-38.84h0Z" style="fill:#d4a55e;" />
	<path d="M443.12,584.94c1.12,4.09,8.01,18.68,9.78,21.94,1.78,3.26,26.12,8.16,26.12,8.16,0,0,1.54-4.31-.22-5.92-2.44-2.24-3.5-2.16-3.5-2.16l5.57-.68s-.11-5.62-3.66-6.22c-3.56-.59-11.03-1.89-11.03-1.89,0,0-4.04-6.12-4.98-12.34-.85-5.62,3.85-9.78,5.93-3.26,2.08,6.52,3.62,13.1,5.4,14.88s8.65,2.17,8.65,2.17c0,0-3.48-10.87-4.02-14.39-.7-4.59,.18-17.28-1.63-22.8-1.81-5.52-9.87-16.38-10.53-20.51-1.11-6.97,.54-15.83,.54-15.83l-19.97,13.46s-.51,8.95-.1,15.55c.37,6.06-3.27,26.47-2.35,29.84h0Z" style="fill:#d4a55e;" />
	<g>
		<path d="M509.79,261.32s2.26,5.8,11.92,18.69c9.67,12.89,25.13,26.08,25.13,26.08,0,0,18.24-18.63,24.68-27.65,6.44-9.02,7.86-24.21,7.86-24.21,0,0,29,10.63,39.63,14.82s23.84,9.34,26.1,14.5-16.11,38.34-17.08,52.2c-.97,13.86,3.22,73.79,2.9,87.96-.32,14.18,5.48,62.19,8.38,78.94,2.9,16.76,1.84,22.99,1.84,22.99,0,0-56.26,9.44-92.02,12.02-35.77,2.58-70.92-4.9-70.92-4.9,0,0,5.48-34.3,9.02-54.6s4.51-67.34,3.87-78.62-11.28-59.61-18.37-77.33c-7.09-17.72-25.62-20.45-15.79-29.32,5.27-4.75,19.01-13.21,28.03-17.72s24.81-13.86,24.81-13.86h0Z" style="fill:#feca1b;" />
		<g style="clip-path:url(#o);">
			<path d="M494.96,248.56s10.16,24.36,21.43,37.89c11.28,13.53,30.37,29.9,30.37,29.9,0,0,22.56-22.69,30.62-33.01,8.06-10.31,12.17-42.74,12.17-42.74l-82.21,3.72-12.38,4.23h0Z" style="fill:#f8f7f0;" />
		</g>
	</g>
	<path d="M432.49,399.45s9.64,6.33,24.57,7.57c17.66,1.47,32.46-1.12,32.46-1.12,0,0,9.63-83.04,8.67-100.11-.97-17.08-36.21-18.7-42.66-11.29-6.44,7.41-13.64,56.29-14.93,66.6s-8.11,38.36-8.11,38.36h0Z" style="fill:#feca1b;" />
	<path d="M621.6,389.88s25.78-6.44,38.67-7.41,23.2-5.48,23.2-5.48c0,0-32.54-91.51-40.28-96.99-7.73-5.48-31.9-13.85-31.9-13.85,0,0-.64,55.42,.32,69.6,.97,14.18,9.99,54.13,9.99,54.13h0Z" style="fill:#feca1b;" />
	<path d="M513.39,257.43s-4.69,2.07,3.85,28.22c7.97,24.42,33.81,97.92,33.81,97.92l4.67-.31s19.22-73.64,24.83-96.92c6.57-27.27-1.41-33.25-1.41-33.25" style="fill:none; stroke:#272a3e; stroke-linecap:round; stroke-miterlimit:10; stroke-width:1.68px;" />
	<g>
		<polygon points="548.02 386.21 551.12 385.68 551.5 382.4 555.14 382.27 555.86 385.28 559.43 385.57 557.93 404.66 550.36 404.55 548.02 386.21" style="fill:#8cabbc;" />
		<polygon points="551.04 398.37 551.04 400.08 557.54 400.08 557.54 398.16 551.04 398.37" style="fill:#272a3e;" />
	</g>
</svg>
