<svg xmlns="http://www.w3.org/2000/svg" viewBox="0 0 1920 1080">
	<defs>
		<clipPath id="a">
			<path style="fill:none" d="M0 0h1920v1080H0z" />
		</clipPath>
		<clipPath id="b">
			<path d="M1490.87 814.56c-7.23 33.48 4.59 72.91 17.85 74 15.37 1.26 231.32-.87 240.66-1.61 8.36-.67 16.5-36.82 17.26-64.12s-9.12-63.22-21.27-65.38c-12.16-2.16-90.03-4.67-130.29-3.95s-96.86 4.67-105.98 8.26-14.43 35.2-18.23 52.8Z" style="fill:none" />
		</clipPath>
		<clipPath id="c">
			<path d="M1110.75 842.24c-1.08-3.24-8.1-18-8.1-18l2.88-.9s2.52-6.66.9-12.6-4.32-15.84-5.04-22.14c-.72-6.3-1.44-10.26-2.88-13.5s-8.46-16.02-8.64-20.34 3.78-11.16 3.78-11.16h-3.24s-8.64 11.7-8.1 15.66c.54 3.96 3.6 7.92 3.6 7.92l-17.82-.36s-4.86-13.32-7.92-19.26-6.84-7.74-10.44-7.2-8.64 3.6-8.64 3.6 12.6 28.62 11.88 37.62-4.68 16.2-10.98 18.72-15.66 5.76-15.66 5.76l-1.8 5.4s-13.32 2.88-16.74 4.68-3.78 5.22-3.42 8.1c.36 2.88 3.78 8.1 3.78 8.1s-6.3 10.44-4.5 16.56 9.36 7.74 15.66 8.1c6.3.36 52.21 1.62 61.39 1.8s26.1-1.44 28.8-4.32c2.7-2.88 2.34-9 1.26-12.24h-.01Zm-69.67-.54c-.72-1.98 5.76-8.46 5.76-8.46s7.02-1.44 10.8-2.34 10.98-3.42 10.98-3.42 11.16 7.38 10.26 10.62-10.62 4.68-18.18 5.76-18.9-.18-19.62-2.16Z" style="fill:none" />
		</clipPath>
		<clipPath id="d">
			<path d="M1196.65 849.71c-1.08-3.24-8.1-18-8.1-18l2.88-.9s2.52-6.66.9-12.6-4.32-15.84-5.04-22.14c-.72-6.3-1.44-10.26-2.88-13.5s-8.46-16.02-8.64-20.34 3.78-11.16 3.78-11.16h-3.24s-8.64 11.7-8.1 15.66c.54 3.96 3.6 7.92 3.6 7.92l-17.82-.36s-4.86-13.32-7.92-19.26-6.84-7.74-10.44-7.2-8.64 3.6-8.64 3.6 12.6 28.62 11.88 37.62-4.68 16.2-10.98 18.72-15.66 5.76-15.66 5.76l-1.8 5.4s-13.32 2.88-16.74 4.68-3.78 5.22-3.42 8.1 3.78 8.1 3.78 8.1-6.3 10.44-4.5 16.56 9.36 7.74 15.66 8.1 52.21 1.62 61.39 1.8 26.1-1.44 28.8-4.32c2.7-2.88 2.34-9 1.26-12.24h-.01Zm-69.67-.54c-.72-1.98 5.76-8.46 5.76-8.46s7.02-1.44 10.8-2.34 10.98-3.42 10.98-3.42 11.16 7.38 10.26 10.62-10.62 4.68-18.18 5.76-18.9-.18-19.62-2.16Z" style="fill:none" />
		</clipPath>
		<clipPath id="e">
			<path d="m1698.84 604.87-7.36-8.26s-338.09 296.97-348.68 306.61-31.41 24.74-63.44 20.88c-32.02-3.86-55.52-16.57-65.58-14.15-10.06 2.42-15.43 17.23-8.81 25.36 6.62 8.12 36.04 12.23 59.92 13.51 22.58 1.21 36.83 2.8 46.14-3.99s387.81-339.97 387.81-339.97Z" style="fill:none" />
		</clipPath>
		<clipPath id="f">
			<path d="M641.38 407.45s-24.5-17.09-38.74-26.2c-14.24-9.1-19.93-21.64-19.93-21.64s0 13.67-7.4 36.45c-7.41 22.77-30.19 48.98-30.19 48.98s-27.33-41.01-50.69-59.81c-23.34-18.79-34.74-63.79-34.74-63.79s-35.88 21.08-50.69 27.91c-14.81 6.83-44.7 16.41-64.63 37.47-19.93 21.07 28.8 162.66 39.05 199.11 10.26 36.45 3.94 106.86 7.35 124.51 3.41 17.65 16.52 12.53 16.52 12.53l.57 22.21s12.53-2.28 39.88-3.98 61.51 9.1 110.49 17.09c48.98 7.98 83.72-15.38 83.72-15.38l-7.4-25.07 9.69-9.69c5.14-5.14 7.74-16.88 10.61-35.69 2.86-18.81-2.05-38.94-22.55-61.72s-4.55-72.32 0-113.34c4.57-41.01 23.36-80.87 9.12-89.99l-.05.03Z" style="fill:none" />
		</clipPath>
	</defs>
	<g style="clip-path:url(#a)">
		<path style="fill:#eff1f3" d="m2069.34 1056.77-2185.41 13.1 1.55-1154.62 2185.41-13.09-1.55 1154.61z" />
		<path style="fill:#c1d0da" d="m-208.02 847.7 2409.08-.53-12.38 423.94-2361.32-17.59-35.38-405.82z" />
		<path style="fill:#afb1b4" d="m321.86 297.56-12.36 31.72 1.04 33.81 7.35 5.24 6.58-.15 6.54-11.51-6.53-1.94-4.05 7.08-1.38-32.02 9.24-25.51 1.91 8.42 7.17-.14-3.87-14.14-11.64-.86z" />
		<path d="M316.42 334.23c-1.75.4-1.86 1.98-1.75 3.06s1.04 1.77 1.98 1.73 1.64-.91 1.68-2.66c.04-1.75-.82-2.38-1.91-2.13ZM316.97 348.86c-1.75.4-1.86 1.98-1.75 3.06s1.04 1.77 1.98 1.73c.94-.05 1.64-.91 1.68-2.66.04-1.75-.82-2.38-1.91-2.13Z" style="fill:#516386" />
		<path style="fill:#afb1b4" d="m225.07 297.56-12.37 31.72 1.04 33.81 7.36 5.24 6.58-.15 6.54-11.51-6.54-1.94-4.04 7.08-1.38-32.02 9.24-25.51 1.9 8.42 7.18-.14-3.87-14.14-11.64-.86z" />
		<path d="M219.63 334.23c-1.75.4-1.86 1.98-1.75 3.06s1.04 1.77 1.98 1.73 1.64-.91 1.68-2.66-.82-2.38-1.91-2.13ZM220.18 348.86c-1.75.4-1.86 1.98-1.75 3.06s1.04 1.77 1.98 1.73c.94-.05 1.64-.91 1.68-2.66s-.82-2.38-1.91-2.13Z" style="fill:#516386" />
		<path style="fill:#afb1b4" d="m418.66 297.56-12.37 31.72 1.04 33.81 7.36 5.24 6.58-.15 6.53-11.51-6.53-1.94-4.04 7.08-1.38-32.02 9.24-25.51 1.9 8.42 7.18-.14-3.87-14.14-11.64-.86z" />
		<path d="M413.22 334.23c-1.75.4-1.86 1.98-1.75 3.06s1.04 1.77 1.98 1.73 1.64-.91 1.68-2.66-.82-2.38-1.91-2.13ZM413.77 348.86c-1.75.4-1.86 1.98-1.75 3.06s1.04 1.77 1.98 1.73c.94-.05 1.64-.91 1.68-2.66.04-1.75-.82-2.38-1.91-2.13Z" style="fill:#516386" />
		<path style="fill:#d18850" d="m907.76 690.77.88 171.76h19.8l-.88-173.66-19.8 1.9zM593.78 732.06l.88 130.47h19.8l-.88-131.91-19.8 1.44zM1254.75 690.77l.88 171.76h19.8l-.89-173.66-19.79 1.9zM1634.75 690.77l.88 171.76h19.8l-.89-173.66-19.79 1.9z" />
		<path style="fill:#58b6e3" d="m812.07 169.97 1.98 547 893.34-2.26-2.64-546.34-892.68 1.6z" />
		<path style="fill:#339bce" d="m1074.95 183.95 2.67 249.3h113.71l-1.17-248.81-115.21-.49zM1200.29 184.61l2.66 248.32 115.45.98-1.74-249.96-116.37.66zM1327.77 184.61l2.67 249.3h113.7V183.95l-116.37.66zM1453.1 184.61l2.68 249.3h113.7V183.95l-116.38.66zM1575.76 185.2l1.8 246.75h113.7l.87-247.41-116.37.66zM1073.95 444.02l2.68 249.3h113.7l-1.17-248.81-115.21-.49zM1199.29 444.67l2.66 248.32 115.46.98-1.74-249.95-116.38.65zM1326.77 444.67l2.67 249.3h113.71V444.02l-116.38.65zM1452.11 444.67l2.67 249.3h113.7V444.02l-116.37.65zM1574.76 445.26l1.81 246.75h113.7l.87-247.4-116.38.65zM828.07 186.5l2.68 249.31h113.7V185.85l-116.38.65zM950.73 187.1l1.8 246.74h113.7l.87-247.4-116.37.66zM828.07 446.57l2.68 249.3h113.7V445.92l-116.38.65zM950.73 447.16l1.8 246.75h113.7l.87-247.4-116.37.65z" />
		<path style="fill:#6b5738" d="m557.79 715.78 1415.41-2.82v27.08l-1415.82.79.41-25.05z" />
		<path d="M1219.65 540.04c-4.44.16-5.59 1.76-5.59 7.78 0 6.38.3 9.24 5.59 9.12 5.91-.14 5.83-3.76 5.83-9.06s-.79-8.02-5.83-7.84Z" style="fill:#005c9d" />
		<path style="fill:#b1c4d0" d="m1218.72 542.94-.19 11h2.18v-11h-1.99z" />
		<g>
			<path d="M1344.98 540.04c-4.44.16-5.59 1.76-5.59 7.78 0 6.38.3 9.24 5.59 9.12 5.91-.14 5.83-3.76 5.83-9.06s-.79-8.02-5.83-7.84Z" style="fill:#005c9d" />
			<path style="fill:#b1c4d0" d="m1344.05 542.94-.19 11h2.17v-11h-1.98z" />
		</g>
		<g>
			<path d="M1470.31 540.04c-4.44.16-5.59 1.76-5.59 7.78 0 6.38.3 9.24 5.59 9.12 5.91-.14 5.83-3.76 5.83-9.06s-.79-8.02-5.83-7.84Z" style="fill:#005c9d" />
			<path style="fill:#b1c4d0" d="m1469.37 542.94-.19 11h2.18v-11h-1.99z" />
		</g>
		<g>
			<path d="M1595.64 540.04c-4.44.16-5.59 1.76-5.59 7.78 0 6.38.3 9.24 5.59 9.12 5.91-.14 5.83-3.76 5.83-9.06s-.79-8.02-5.83-7.84Z" style="fill:#005c9d" />
			<path d="m1607.26 560.63-1.14.11c-.16-1.65-.33-3.2-.49-4.21-.76-4.99-3.96-7.67-8.78-7.33-3.9.27-7.92 3.14-7.61 8.79.04.78.22 2.51.43 4.37l-1.71.17 2.35 20.55 19.57-2.24-2.62-20.22Zm-14.98-2.79c-.11-1.94.76-5.31 4.78-5.58 1.19-.08 4.79-.33 5.56 4.75.14.95.31 2.44.47 4.05l-10.38 1.03c-.2-1.83-.38-3.51-.42-4.24h-.01Z" style="fill:#e6eef8" />
			<path style="fill:#b1c4d0" d="m1594.7 542.94-.19 11h2.18v-11h-1.99z" />
		</g>
		<g>
			<path d="M1094.33 540.04c-4.44.16-5.59 1.76-5.59 7.78 0 6.38.3 9.24 5.59 9.12 5.91-.14 5.83-3.76 5.83-9.06s-.79-8.02-5.83-7.84Z" style="fill:#005c9d" />
			<path d="m1099.63 564.52-2.37-.15c0-.07.44-6.84.42-9.26-.04-4.02-2.85-4.22-3.78-4.29-3.14-.23-4.18 2.28-4.31 3.8-.13 1.54-.27 8.49-.27 8.56l-2.38-.05c0-.29.14-7.1.28-8.72.38-4.41 3.81-6.19 6.85-5.97 3.77.27 5.95 2.69 5.99 6.64.02 2.5-.41 9.15-.42 9.43Z" style="fill:#e58b39" />
			<path style="fill:#e58b39" d="m1085.72 558.72-.45 16.16 15.39.42.21-15.94-15.15-.64z" />
			<path style="fill:#b1c4d0" d="m1093.39 542.94-.19 11h2.18v-11h-1.99z" />
		</g>
		<g>
			<path d="M969 540.04c-4.44.16-5.59 1.76-5.59 7.78 0 6.38.3 9.24 5.59 9.12 5.91-.14 5.83-3.76 5.83-9.06s-.79-8.02-5.83-7.84Z" style="fill:#005c9d" />
			<path style="fill:#b1c4d0" d="m968.06 542.94-.18 11h2.17v-11h-1.99z" />
		</g>
		<g>
			<path d="M843.67 545.34c-4.44.16-5.59 1.76-5.59 7.78 0 6.38.3 9.24 5.59 9.12 5.91-.14 5.83-3.76 5.83-9.06s-.79-8.02-5.83-7.84Z" style="fill:#005c9d" />
			<path d="m846.91 568.56-2.04-.37c.01-.06 1.05-5.88 1.27-7.98.36-3.48-2.06-3.94-2.86-4.09-2.7-.51-3.85 1.56-4.11 2.87-.26 1.32-1.07 7.33-1.07 7.39l-2.06-.27c.03-.25.82-6.14 1.1-7.53.76-3.79 3.9-4.99 6.52-4.5 3.24.61 4.89 2.92 4.54 6.34-.23 2.17-1.25 7.89-1.29 8.13Z" style="fill:#eaba00" />
			<path style="fill:#eaba00" d="m835.52 561.37-1.97 13.95 13.29 1.88 1.74-13.79-13.06-2.04z" />
			<path style="fill:#b1c4d0" d="m842.74 548.24-.19 11.01h2.18v-11.01h-1.99z" />
		</g>
		<g>
			<path d="M1218.25 303.51c4.44.16 5.59 1.76 5.59 7.78 0 6.38-.3 9.24-5.59 9.12-5.91-.14-5.83-3.76-5.83-9.06s.79-8.02 5.83-7.84Z" style="fill:#005c9d" />
			<path style="fill:#b1c4d0" d="m1219.18 306.41.19 11.01h-2.17v-11.01h1.98z" />
		</g>
		<g>
			<path d="M1092.92 303.51c4.44.16 5.59 1.76 5.59 7.78 0 6.38-.3 9.24-5.59 9.12-5.91-.14-5.83-3.76-5.83-9.06s.79-8.02 5.83-7.84Z" style="fill:#005c9d" />
			<path style="fill:#b1c4d0" d="m1093.86 306.41.19 11.01h-2.18v-11.01h1.99z" />
		</g>
		<g>
			<path d="M967.6 303.51c4.44.16 5.59 1.76 5.59 7.78 0 6.38-.3 9.24-5.59 9.12-5.91-.14-5.83-3.76-5.83-9.06s.79-8.02 5.83-7.84Z" style="fill:#005c9d" />
			<path d="m956.44 332.03 3.04.23c0-.09.68-8.75 1.14-11.8.77-5.08 4.38-4.83 5.56-4.75 4.02.27 4.89 3.64 4.78 5.58-.11 1.97-1.19 10.81-1.2 10.9l3.02.37c.05-.37 1.1-9.02 1.22-11.09.32-5.66-3.71-8.52-7.61-8.79-4.83-.33-8.03 2.34-8.78 7.33-.48 3.17-1.14 11.67-1.16 12.03h-.01Z" style="fill:#b3993e" />
			<path style="fill:#b3993e" d="m975.28 326.01-2.35 20.55-19.57-2.24 2.61-20.22 19.31 1.91z" />
			<path style="fill:#b1c4d0" d="m968.53 306.41.19 11.01h-2.18v-11.01h1.99z" />
		</g>
		<g>
			<path d="M842.27 303.51c4.44.16 5.59 1.76 5.59 7.78 0 6.38-.3 9.24-5.59 9.12-5.91-.14-5.83-3.76-5.83-9.06s.79-8.02 5.83-7.84Z" style="fill:#005c9d" />
			<path style="fill:#b1c4d0" d="m843.2 306.41.19 11.01h-2.18v-11.01h1.99z" />
		</g>
		<g>
			<path d="M1343.58 303.51c4.44.16 5.59 1.76 5.59 7.78 0 6.38-.3 9.24-5.59 9.12-5.91-.14-5.83-3.76-5.83-9.06s.79-8.02 5.83-7.84Z" style="fill:#005c9d" />
			<path d="m1340.8 331.75 2.88-.99c-.03-.08-2.85-8.3-3.63-11.29-1.31-4.97 2.1-6.17 3.22-6.57 3.8-1.34 5.93 1.4 6.6 3.23.68 1.86 3.19 10.39 3.22 10.48l2.92-.86c-.1-.36-2.57-8.72-3.28-10.67-1.95-5.32-6.78-6.35-10.47-5.05-4.56 1.61-6.44 5.33-5.16 10.21.82 3.1 3.58 11.16 3.7 11.5Z" style="fill:#d18850" />
			<path style="fill:#d18850" d="m1355.7 318.75 6 19.79-18.86 5.71-5.62-19.6 18.48-5.9z" />
			<path style="fill:#b1c4d0" d="m1344.51 306.41.19 11.01h-2.18v-11.01h1.99z" />
		</g>
		<g>
			<path d="M1468.9 303.51c4.44.16 5.59 1.76 5.59 7.78 0 6.38-.3 9.24-5.59 9.12-5.91-.14-5.83-3.76-5.83-9.06s.79-8.02 5.83-7.84Z" style="fill:#005c9d" />
			<path style="fill:#b1c4d0" d="m1469.84 306.41.19 11.01h-2.18v-11.01h1.99z" />
		</g>
		<g>
			<path d="M1594.23 308.82c4.44.16 5.59 1.76 5.59 7.78 0 6.38-.3 9.24-5.59 9.12-5.91-.14-5.83-3.76-5.83-9.06s.79-8.02 5.83-7.84Z" style="fill:#005c9d" />
			<path style="fill:#b1c4d0" d="m1595.17 311.71.19 11.01h-2.18v-11.01h1.99z" />
		</g>
		<g>
			<path d="M1595.33 710.75s-43.68 54.96-50.52 72.92c-6.84 17.96-17.47 103.45-17.47 103.45l16.71.36s14.81-97.7 20.13-108.48c5.32-10.78 31.35-58.49 31.35-58.49l39.43-.92s22.28 48.27 26.84 57.97c4.56 9.7 22.03 110.28 22.03 110.28l16.71.36s-15.57-105.97-21.65-113.87c-6.08-7.9-44.21-64.59-44.21-64.59l-39.36 1.01h.01Z" style="fill:#009250" />
			<path d="M1490.87 814.56c-7.23 33.48 4.59 72.91 17.85 74 15.37 1.26 231.32-.87 240.66-1.61 8.36-.67 16.5-36.82 17.26-64.12s-9.12-63.22-21.27-65.38c-12.16-2.16-90.03-4.67-130.29-3.95s-96.86 4.67-105.98 8.26-14.43 35.2-18.23 52.8Z" style="fill:#272a3e" />
			<g style="clip-path:url(#b)">
				<path d="M1531.25 754.15s-2.79 7.91-3.34 13.7c-.56 5.8 1.11 14.23 18.39 13.7 17.28-.53 137.66-.98 151.87-.98s18.27-5.76 15.23-16.32c-3.05-10.56-9.14-29.76-9.14-29.76l-173.01 19.65Z" style="fill:#fbf8f6" />
				<path d="M1538.81 749.65s-3.34 13.62-3.85 17.47 1.02 9.46 16.87 9.11c15.85-.35 128.19-1.23 141.23-1.23s17.37-3.21 14.58-10.23c-2.79-7.02-5.17-22.68-5.17-22.68l-163.66 7.56Z" style="fill:#272a3e" />
			</g>
			<path style="fill:#e95b27" d="M1593.76 710.4v11.03l41.56 1.31-1.43-13-40.13.66z" />
			<path d="M1602.89 712.5s-44.41 55.36-51.25 73.33c-6.84 17.96-18.87 104.81-18.87 104.81l18.11-1s14.81-97.7 20.13-108.48c5.32-10.78 31.53-56.75 31.53-56.75l39.12-.36s22.41 45.98 26.97 55.68c4.56 9.7 22.14 108.87 22.14 108.87l17.91.13s-16.88-104.32-22.95-112.23c-6.08-7.9-45.49-63.72-45.49-63.72l-37.35-.26v-.02Z" style="fill:#009250" />
			<path style="fill:#e95b27" d="m1602.09 712.24-.55 12.47 38.74-.79-.28-11.42-37.91-.26z" />
		</g>
		<g>
			<path d="m801.33 655.85 27.41 16.87-15.91 32.31s-18.75-8.8-20.77-12.48-5.93-16.64-5.93-16.64l15.19-20.06h.01Zm-.39 21.12-3.81 3.81 2.39 7.34 8.04 2.52 3.55-5.95-10.17-7.72Z" style="fill:#f29e97" />
			<path d="M774.08 703.01s-4.29 4.35-8.56 7.04-9.55 5.46-9.55 5.46l5.11 8.05s2.43-1.69 8.35-6.27 10.6-8.83 10.6-8.83l-5.95-5.45Z" style="fill:#272a3e" />
			<path d="M846.84 638.74c-8.64-9.1-32.1-18.59-48.09-20.21-4.5-.45-12.03 2.57-18.59 8.98-6.57 6.41-11.48 12.83-11.48 12.83s11.73 8.37 14.58 11.11 4.75 4.64 1.7 8.4c-3.06 3.76-5.61 7.49-6.89 9.22s-2.94 3.62 1.39 7.66 7.15 4.36 9.44 2.55 10.29-7.91 11.86-8.91c3.78-2.41 6.63.33 11.62 4.7s7.78 5.28 5.81 9.15c-2.48 4.88-9.61 19.95-9.61 19.95l7.16 14.14 8.62 5.4s21.61-9.43 25.78-13.64 13.64-21.47 11.36-39.63c-1.34-10.71-2.52-18.89-14.67-31.69h.01Z" style="fill:#e52d87" />
			<path d="m778.37 689.13-35.27-1.1-3.04 9.73s12 12.42 20.84 17.3 27.02 6.99 27.02 6.99l1.66-7.61s-26.14-5.26-28.22-5.89-13.59-13.33-13.59-13.33l30.09-.33.51-5.75Z" style="fill:#272a3e" />
			<path d="M780.27 671.72s-3.85 3.3-8.22 10.2-6.82 10.23-6.82 10.23l10.43 21.29s28.47 3.97 30.86 3.68 11.9-6.5 11.9-6.5l-4.26-8.74s-9.03 5.68-10.51 6.28-19.6-.49-19.6-.49l-10.03-15.22s3.6-5.19 6.92-8.72 6.43-6.52 6.43-6.52l-7.1-5.5Z" style="fill:#e52d87" />
		</g>
		<g>
			<path d="M1110.75 842.24c-1.08-3.24-8.1-18-8.1-18l2.88-.9s2.52-6.66.9-12.6-4.32-15.84-5.04-22.14c-.72-6.3-1.44-10.26-2.88-13.5s-8.46-16.02-8.64-20.34 3.78-11.16 3.78-11.16h-3.24s-8.64 11.7-8.1 15.66c.54 3.96 3.6 7.92 3.6 7.92l-17.82-.36s-4.86-13.32-7.92-19.26-6.84-7.74-10.44-7.2-8.64 3.6-8.64 3.6 12.6 28.62 11.88 37.62-4.68 16.2-10.98 18.72-15.66 5.76-15.66 5.76l-1.8 5.4s-13.32 2.88-16.74 4.68-3.78 5.22-3.42 8.1c.36 2.88 3.78 8.1 3.78 8.1s-6.3 10.44-4.5 16.56 9.36 7.74 15.66 8.1c6.3.36 52.21 1.62 61.39 1.8s26.1-1.44 28.8-4.32c2.7-2.88 2.34-9 1.26-12.24h-.01Zm-69.67-.54c-.72-1.98 5.76-8.46 5.76-8.46s7.02-1.44 10.8-2.34 10.98-3.42 10.98-3.42 11.16 7.38 10.26 10.62-10.62 4.68-18.18 5.76-18.9-.18-19.62-2.16Z" style="fill:#272a3e" />
			<g style="clip-path:url(#c)">
				<path d="M997.34 827.3s14.58 3.42 34.38 4.14c19.8.72 31.14-4.14 39.78-4.68s36.54-2.7 36.54-2.7l18.9 37.8-103.15 35.28-39.24-51.13s12.96-18.72 12.78-18.72Z" style="fill:#fbf8f6" />
				<path d="M1038.56 749.53s8.1-5.94 12.42-2.88 10.8 22.68 10.8 22.68-3.96-1.08-3.96 3.96 1.98 13.5-2.16 19.08-17.82 7.2-17.82 7.2l.72-50.05Z" style="fill:#ffd500" />
				<path d="M994.82 841.88s19.8 9 31.14 9.54 59.95 1.26 65.89.54c5.94-.72 23.04-7.2 23.04-7.2l.9 25.92-134.3-10.98 13.32-17.82Z" style="fill:#272a3e" />
			</g>
			<path d="m1035.14 802.27 2.88 8.1 1.8-.72.18-7.2 4.5 5.58 1.8-.9-1.98-8.1 6.12 5.4 1.44-1.26-3.78-6.48.9-1.08 6.84 5.04 1.26-1.44-6.12-6.12 1.62-1.08 8.82 2.7.9-1.62-4.5-4.14 6.84.54v-1.8l-12.96-3.6s.18 5.4-3.6 9.36-4.32 6.12-7.2 7.2-5.76 1.62-5.76 1.62ZM1028.3 803.89l1.26 7.56 2.7-.72-.54-7.2-3.42.36z" style="fill:#fbf8f6" />
		</g>
		<g>
			<path d="M1196.65 849.71c-1.08-3.24-8.1-18-8.1-18l2.88-.9s2.52-6.66.9-12.6-4.32-15.84-5.04-22.14c-.72-6.3-1.44-10.26-2.88-13.5s-8.46-16.02-8.64-20.34 3.78-11.16 3.78-11.16h-3.24s-8.64 11.7-8.1 15.66c.54 3.96 3.6 7.92 3.6 7.92l-17.82-.36s-4.86-13.32-7.92-19.26-6.84-7.74-10.44-7.2-8.64 3.6-8.64 3.6 12.6 28.62 11.88 37.62-4.68 16.2-10.98 18.72-15.66 5.76-15.66 5.76l-1.8 5.4s-13.32 2.88-16.74 4.68-3.78 5.22-3.42 8.1 3.78 8.1 3.78 8.1-6.3 10.44-4.5 16.56 9.36 7.74 15.66 8.1 52.21 1.62 61.39 1.8 26.1-1.44 28.8-4.32c2.7-2.88 2.34-9 1.26-12.24h-.01Zm-69.67-.54c-.72-1.98 5.76-8.46 5.76-8.46s7.02-1.44 10.8-2.34 10.98-3.42 10.98-3.42 11.16 7.38 10.26 10.62-10.62 4.68-18.18 5.76-18.9-.18-19.62-2.16Z" style="fill:#272a3e" />
			<g style="clip-path:url(#d)">
				<path d="M1083.23 834.77s14.58 3.42 34.38 4.14c19.8.72 31.14-4.14 39.78-4.68s36.54-2.7 36.54-2.7l18.9 37.8-103.15 35.28-39.24-51.13s12.96-18.72 12.78-18.72Z" style="fill:#fbf8f6" />
				<path d="M1124.46 757s8.1-5.94 12.42-2.88 10.8 22.68 10.8 22.68-3.96-1.08-3.96 3.96 1.98 13.5-2.16 19.08-17.82 7.2-17.82 7.2l.72-50.05Z" style="fill:#ffd500" />
				<path d="M1080.71 849.35s19.8 9 31.14 9.54 59.95 1.26 65.89.54c5.94-.72 23.04-7.2 23.04-7.2l.9 25.92-134.3-10.98 13.32-17.82h.01Z" style="fill:#272a3e" />
			</g>
			<path d="m1121.04 809.75 2.88 8.1 1.8-.72.18-7.2 4.5 5.58 1.8-.9-1.98-8.1 6.12 5.4 1.44-1.26-3.78-6.48.9-1.08 6.84 5.04 1.26-1.44-6.12-6.12 1.62-1.08 8.82 2.7.9-1.62-4.5-4.14 6.84.54v-1.8l-12.96-3.6s.18 5.4-3.6 9.36-4.32 6.12-7.2 7.2-5.76 1.62-5.76 1.62ZM1114.2 811.37l1.26 7.56 2.7-.72-.54-7.2-3.42.36z" style="fill:#fbf8f6" />
		</g>
		<g>
			<path d="m1698.84 604.87-7.36-8.26s-338.09 296.97-348.68 306.61-31.41 24.74-63.44 20.88c-32.02-3.86-55.52-16.57-65.58-14.15-10.06 2.42-15.43 17.23-8.81 25.36 6.62 8.12 36.04 12.23 59.92 13.51 22.58 1.21 36.83 2.8 46.14-3.99s387.81-339.97 387.81-339.97Z" style="fill:#272a3e" />
			<g style="clip-path:url(#e)">
				<path style="fill:#db1f81" d="m1365.41 838.72 62.79 122.4-168.3 96.94-131.72-145.68 237.23-73.66z" />
				<path style="fill:#009634" d="m1344.04 836.58 62.79 122.4-168.3 96.94-131.72-145.68 237.23-73.66z" />
				<path style="fill:#fee608" d="m1299.95 860.4 62.79 122.39-168.3 96.94-131.72-145.68 237.23-73.65z" />
			</g>
		</g>
	</g>
	<path d="m320.83 743.91-42.85-8.99s-4.24 38.56-4.01 49.41-6.1 22.35-10.38 30.58c-4.28 8.23-2.13 39.18-1.23 43.18s8.03 6.43 10.18 10.97 6.4 9.72 19.36 18.79c12.96 9.07 18.16 13.48 18.16 13.48s8.33-5.88 8.53-12.36c.21-6.48-7.84-12.25-9.26-15.43-1.41-3.16-.11-20.78 1.34-26.71s4.41-5.2 5.36-1.64-.74 20.72 3.38 27.18c4.13 6.46 12.01 5.52 12.01 5.52s1.15-38 1.49-45.76c.35-7.76-7.97-28.94-12.19-43.21s.11-45.03.11-45.03v.02Z" style="fill:#e3b67d" />
	<path d="M374.31 374.2c-9.47-3.02-13.78-1.72-23.26 3.87-9.48 5.59-25 63.35-43.1 121.52-18.1 58.18-33.93 85.16-29.62 110.59 4.31 25.41 44.13 50.8 64.67 23.11 21.76-29.35 35.2-60.44 48.55-101.37 13.36-40.93 19.33-146.09-17.24-157.72Z" style="fill:#2e425b" />
	<path d="M360.95 600.38c4.92-14.68 14.79-26.88-19.84-40.26-34.63-13.37-43.83-16.28-61.01 26.19-17.18 42.48-16.41 122.08-18.08 147.89-1.68 25.83 10.19 19.63 10.19 19.63l-.7 28.94s8.16 5.15 23.75 4.95c15.6-.21 26.93-1.31 26.93-1.31l1.87-18.84s6.02-6.75 13.17-17.73c7.14-10.98 9.37-52.33 14.46-90.8 5.1-38.47 9.25-58.67 9.25-58.67v.02ZM508.43 314.83c-1.14 0-41.63-1.49-59.28 1.93-17.67 3.41-20.26 7.82-23.11 16.94-2.84 9.1-12.44 15.65-12.44 15.65L516.13 477.5l88.29-58.67s10.27-51.08-3.97-65.89c-14.24-14.81-45.6-38.12-92.02-38.12v.02ZM631.65 682.05 524.6 678.6s-17.26 157.12-19.85 157.12 50.07 160.58 50.94 183.02c.85 22.44-10.37 209.78-9.5 236.54.85 26.76 12.94 27.63 12.94 27.63l4.31 25.04s20.72 0 37.98.87c17.26.87 29.35-10.35 29.35-10.35s.85-15.54 3.45-36.26c2.59-20.72 16.41-179.56 19-251.22 2.59-71.64 7.76-147.62 4.31-176.97-3.46-29.35-6.91-71.66-14.68-95.83-7.78-24.17-11.22-56.11-11.22-56.11l.02-.03Z" style="fill:#2e425b" />
	<path d="m599.69 712.3-121.73-56.98s-42.29 29.35-50.07 48.35-38 81.16-39.72 121.73c-1.72 40.59-12.94 168.35-15.54 199.43-2.59 31.07-54.38 239.13-56.98 248.63s5.18 22.44 5.18 22.44l-5.18 23.31s13.81 6.91 30.22 9.5c16.41 2.58 37.13 3.45 37.13 3.45l4.31-25.9s13.81-4.31 21.59-19c7.76-14.67 41.42-192.52 42.29-207.19s24.18-55.25 34.53-86.33c10.35-31.09 113.08-278.85 113.95-281.44Z" style="fill:#2e425b" />
	<path d="m589.04 267.31-97.39-9.69s-7.41 46.13-10.83 63.22c-3.41 17.09-15.38 18.22-15.38 18.22l-22.21 13.67s106.51 56.39 108.79 56.96 19.93-33.6 19.93-33.6-7.06-24.09-3.41-43.86c3.21-17.45 20.5-64.93 20.5-64.93Z" style="fill:#e3b67d" />
	<path d="M536.63 378.95c30.76 4.57 31.96-20.88 31.96-20.88l57.47 43.67 2.84 35.31-104.8 50.69-72.26-149.82 23.11-5.01s.76 6.73 8.16 15.28 34.87 27.99 53.53 30.76Z" style="fill:#f3faf9" />
	<path d="M641.38 407.45s-24.5-17.09-38.74-26.2c-14.24-9.1-19.93-21.64-19.93-21.64s0 13.67-7.4 36.45c-7.41 22.77-30.19 48.98-30.19 48.98s-27.33-41.01-50.69-59.81c-23.34-18.79-34.74-63.79-34.74-63.79s-35.88 21.08-50.69 27.91c-14.81 6.83-44.7 16.41-64.63 37.47-19.93 21.07 28.8 162.66 39.05 199.11 10.26 36.45 3.94 106.86 7.35 124.51 3.41 17.65 16.52 12.53 16.52 12.53l.57 22.21s12.53-2.28 39.88-3.98 61.51 9.1 110.49 17.09c48.98 7.98 83.72-15.38 83.72-15.38l-7.4-25.07 9.69-9.69c5.14-5.14 7.74-16.88 10.61-35.69 2.86-18.81-2.05-38.94-22.55-61.72s-4.55-72.32 0-113.34c4.57-41.01 23.36-80.87 9.12-89.99l-.05.03Z" style="fill:#2e425b" />
	<g style="clip-path:url(#f)">
		<path d="m550.83 427.93-6.26-2.28s-10.24 47.27-4.55 70.63c5.69 23.34 13.67 79.74 17.09 99.1 3.43 19.36 11.4 108.79 9.12 121.89-2.28 13.1-7.4 14.24-7.4 25.07v22.77h9.69s-.57-10.81-.57-21.64 6.27-8.55 7.98-25.64c1.71-17.09-7.98-89.42-9.69-119.61-1.71-30.19-12.53-80.89-18.22-101.96-5.71-21.07 2.84-68.34 2.84-68.34h-.03Z" style="fill:#006ab3" />
	</g>
	<path d="M641.43 407.42c-33.03-18.79-50.69 70.06-50.69 70.06l28.53 210.63s43.04-5.93 50.43-8.77c7.41-2.86 30.22-34.66 28.51-51.18-1.71-16.52-31.17-84.03-36.29-119.93s-1.68-90.12-20.5-100.82Z" style="fill:#2e425b" />
	<path d="M521.93 158.85s34.61-.43 48.88 7.79c14.27 8.22 19.03 19.47 21.19 35.04 2.17 15.57 4.76 26.82 2.17 38.5s-4.76 28.99-4.76 28.99H475.2s-4.33-25.1-6.5-41.54c-2.17-16.45-.44-33.74 8.65-48.46 9.09-14.7 27.25-20.75 44.55-20.33h.02Z" style="fill:#e17136" />
	<path d="M539.64 204.26c7.35-.44 20.77-8.66 28.12-9.09s9.94 9.51 12.98 18.6c3.02 9.09 7.79 15.58 9.51 20.77s.43 17.73.43 17.73 2.59-1.3 8.65-2.59c6.05-1.3 2.59 32.45-1.3 40.67s-8.65 3.03-8.65 3.03.43 12.98-2.17 19.47c-2.59 6.5-12.55 20.77-18.6 26.39-6.05 5.63-26.39 8.65-35.91 6.92-9.51-1.74-26.38-9.09-32.87-18.6-6.48-9.53-12.11-29.86-12.11-29.86s-5.18 3.46-9.51 3.46-8.22-12.11-11.68-22.06c-3.46-9.94-6.5-22.06 1.72-23.79s11.68 6.5 11.68 6.5 2.59-9.09.87-19.47 9.96-10.38 9.96-10.38.43-17.75 3.89-26.39 27.15-.25 45-1.3v-.02Z" style="fill:#e3b67d" />
	<path d="M525.21 312.19c-1.98-1.74.71-5.01 2.61-6.27 3.67-2.45 9.37-3.95 11.47-3.82s4.3 1.88 5.9 1.75 3.95-2.73 7.05-3.22 14.98 7.68 14.24 9.53-2.48 1.12-5.07.62-7.79 3.82-15.35 4.82-11.13-2.1-14.6-2.72-4.85.51-6.23-.7l-.02.02Z" style="fill:#d88b46" />
	<path d="m553.13 235.65 1.61 7.43s5.56-1.12 11.02-3.22c5.44-2.12 11.02-6.07 12.38-6.94s7.55 1.98 7.55 1.98l.62-2.35s-5.09-4.46-7.68-4.95c-2.61-.51-7.18 1.47-11.89 4.2s-13.62 3.84-13.62 3.84l.02.02ZM534.33 243.73s-5.47.6-11.89-.62c-5.83-1.12-7.18-2.35-12.99-4.58-5.83-2.23-9.91 3.97-9.91 3.97l-1.98-2.72s6.07-6.69 9.53-7.68c3.48-1 8.17.87 14.98 3.59s14.11-.62 14.11-.62l-1.85 8.66h-.02Z" style="fill:#e17136" />
	<path d="M520.95 249.84c-3.7-.22-6.18 2.48-6.18 5.06.02 3.65 2.05 6.07 5.86 6.05 3.24-.02 5.6-1.31 5.94-4.82.35-3.51-2.04-6.08-5.63-6.29Z" style="fill:#204a68" />
	<path style="fill:#204a68" d="m527.44 250.63-18.19-4.03-.35 6.4 17.53 2.03 1.01-4.4zM568.36 247.76c3.54 1.03 4.98 4.41 4.11 6.83-1.23 3.43-3.97 5.03-7.55 3.73-3.03-1.09-4.82-3.11-3.97-6.53.85-3.41 3.97-5.04 7.41-4.03Z" />
	<path style="fill:#204a68" d="m559.53 248.48 17.98-5.2.24 6.42-16.42 3.81-1.8-5.03z" />
	<g>
		<path d="M537.99 147.03c7.79-.19 34.5 10.15 46.1 16.72 11.58 6.57 13.86 17.81 15.41 32.73 1.55 14.92 2.31 31.89 2.31 31.89l-7.4-1.99s-15.25-13.7-47.35-13.07c-49.17.96-76.12 26-76.12 26h-4.24s-2.26-14.6.27-33.46 14.86-40.32 23.12-46.1c8.28-5.77 27.07-12.19 47.89-12.71v-.02Z" style="fill:#5b3346" />
		<path d="M556.26 167.94c5.12.17 11.27 1.64 11.27 1.64l.66 15.03s-6.83-1.72-11.27-1.64-12.56.51-12.56.51l-1.44-15.46s8.16-.25 13.34-.08Z" style="fill:#e2007a" />
		<path d="M474.23 232.57s33.32-22.92 75.29-23.06c28.26-.09 47.79 13.47 54.53 18.4 6.8 4.98 20.31 15.5 18.03 18.32-3.21 3.95-13.43-5.78-20.4-11.05-7.16-5.42-14.3-12.12-37.14-12.45-31.77-.46-47.95 17.35-68.34 21.8-19.09 4.16-21.97-11.95-21.97-11.95Z" style="fill:#5b3346" />
	</g>
	<path d="M657.96 631.26c-4.57-1.14-5.71 0-9.69 2.84-3.98 2.84-11.96 0-11.96 0s7.98 13.1 10.83 25.64c2.84 12.53-1.99 24.34-1.99 24.34s3.7-4.39 7.11-6.69 14.24-2.86 15.38-9.12 3.41-33.74-9.69-37.02h.02Z" style="fill:#e3b67d" />
	<path d="m556.3 320.41-21.38.36s-1.8 6.01.36 11.96c2.91 7.98 3.35 16.03 3.35 16.03l10.56-.43s10.92-15.54 7.11-27.93Z" style="fill:#e17136" />
</svg>
