<?xml version="1.0" encoding="UTF-8"?>
<svg xmlns="http://www.w3.org/2000/svg" xmlns:xlink="http://www.w3.org/1999/xlink" viewBox="0 0 1920 1080">
	<defs>
		<style>
			.m{fill:none;}.n{fill:#f8dfb3;}.o{fill:#004a7c;}.p{fill:#009a95;}.q{fill:#00101f;}.r{fill:#eeeef0;}.s{fill:#f19eb0;}.t{fill:#ec7206;}.u{fill:#e6eef8;}.v{fill:#eaba00;}.w{fill:#f1f1f3;}.x{fill:#fae7c6;}.y{fill:#fee608;}.a`{fill:#fbf8f6;}.aa{fill:#e53446;}.ab{fill:#fcf6e7;}.ac{fill:#e52d87;}.ad{fill:#e2ebf4;}.ae{fill:#efe8f2;}.af{fill:#8aa195;}.ag{fill:#9d8042;}.ah{fill:#c1d3d7;}.ai{fill:#a691c0;}.aj{fill:#c3ae7b;}.ak{fill:#dedcd1;}.al{fill:#dfbe84;}.am{fill:#c9936d;}.an{fill:#11242f;}.ao{fill:#425170;}.ap{fill:#404b51;}.aq{fill:#5597c3;}.ar{fill:#62ac6d;}.as{fill:#344138;}.at{fill:#272a3e;}.au{fill:#2f2b39;}.av{fill:#776baa;}.aw{fill:#4f4e47;}.ax{clip-path:url(#c);}.ay{clip-path:url(#f);}.b`{clip-path:url(#e);}.ba{clip-path:url(#d);}.bb{clip-path:url(#l);}.bc{clip-path:url(#k);}.bd{clip-path:url(#i);}.be{clip-path:url(#h);}.bf{clip-path:url(#g);}
		</style>
		<clipPath id="c">
			<rect width="1920" height="1080" style="fill:none;" />
		</clipPath>
		<clipPath id="d">
			<polygon points="1312.92 945.2 1312.94 337.12 1778.5 335.95 1785.14 955.82 1312.92 945.2" style="fill:none;" />
		</clipPath>
		<clipPath id="e">
			<polygon points="84.28 798.74 82.19 204.89 725.71 180.75 731.11 794.1 84.28 798.74" style="fill:none;" />
		</clipPath>
		<clipPath id="f">
			<polygon points="423.15 523.97 661.05 519.36 663.91 745.3 412.17 748.32 423.15 523.97" style="fill:none;" />
		</clipPath>
		<clipPath id="g">
			<polygon points="128.36 617.22 74.54 774.29 263.24 775.14 297.53 619.92 128.36 617.22" style="fill:none;" />
		</clipPath>
		<clipPath id="h">
			<polygon points="309.3 592.1 343.63 777.5 471.81 777.5 432.9 592.1 309.3 592.1" style="fill:none;" />
		</clipPath>
		<clipPath id="i">
			<polygon points="34.8 92.1 25.14 207.03 785.37 208.17 775.69 92.06 34.8 92.1" style="fill:none;" />
		</clipPath>
		<clipPath id="k">
			<path d="M1062.6,349.95s4.95-4.37,14.75,8.69c9.8,13.07,22.82,36.7,22.82,36.7,0,0,16.16-20.61,22.69-29.76,6.53-9.15,10.31-22.83,10.31-22.83,0,0,19.75,9.58,30.53,13.83s24.33,6.19,31.8,16.21c3.41,4.58-15.87,50.29-16.85,64.34s7.97,76.23,7.95,90.61c-.02,14.6,12.2,20.86,4.49,30.01-11.11,13.19-1.62,61.7-1.62,61.7,0,0-50.72,8.09-86.98,10.7-36.27,2.61-71.92-4.97-71.92-4.97,0,0,8.19-33.68,6.59-54.52-1.59-20.67-7.82-27.78-8.48-39.21-.65-11.44,5.3-55.64,.53-84.78-3.13-19.1-30.19-68.09-20.22-77.08,5.34-4.82,14.93-9.4,24.98-11.28,12.9-2.42,28.61-8.37,28.61-8.37h.02Z" style="fill:none;" />
		</clipPath>
		<clipPath id="l">
			<path d="M1071.26,248.93c-5.59,3.86-.19,18.52-.19,18.52,0,0-3.67,.96-4.44,6.75-.77,5.79-.39,37.23,1.74,41.67,2.12,4.44,14.85,21.61,20.26,25.66s16.98,3.28,22.96-1.16,21.22-21.03,21.8-26.62,1.35-26.82,1.35-30.29-2.51-7.14-4.44-9.65c-1.93-2.51-3.47-5.02-3.47-5.02,0,0,8.49-12.35,2.7-17.94-2.59-2.5-16.59,3.67-27.97,3.28s-25.33-8.63-30.29-5.21h-.01Z" style="fill:none;" />
		</clipPath>
	</defs>
	<g id="a">
		<g id="b">
			<g style="clip-path:url(#c);">
				<g>
					<rect x="-214.6" y="-99.22" width="2302" height="1214.71" style="fill:#f8dfb3;" />
					<g>
						<polygon points="-183.12 1352.26 -197.27 654.32 2109.21 658.77 2146.51 1369.13 -183.12 1352.26" style="fill:#fae7c6;" />
						<polygon points="1292.33 937.39 1288.86 239.51 1806.2 239.73 1806.79 947.38 1292.33 937.39" style="fill:#c3ae7b;" />
						<g>
							<polygon points="1312.92 945.2 1312.94 337.12 1778.5 335.95 1785.14 955.82 1312.92 945.2" style="fill:#344138;" />
							<g style="clip-path:url(#d);">
								<g>
									<polygon points="1351.76 374.68 1352.31 498.71 1529.55 500.28 1528.62 376.18 1351.76 374.68" style="fill:#5597c3;" />
									<polygon points="1564.32 375.77 1564.87 499.79 1745.24 497.34 1744.31 373.23 1564.32 375.77" style="fill:#5597c3;" />
									<polygon points="1544.11 325.55 1547.8 1010.49 1553.95 1009.18 1549.03 321.61 1544.11 325.55" style="fill:#c3ae7b;" />
								</g>
							</g>
						</g>
						<polygon points="1349.43 510.62 1349.85 803 1529.77 804.94 1528.96 512.33 1349.43 510.62" style="fill:#5597c3;" />
						<polygon points="1564.77 512.96 1566.05 803.31 1748.01 801.69 1744.07 512.74 1564.77 512.96" style="fill:#5597c3;" />
					</g>
					<g>
						<g>
							<polygon points="1539.72 -312.75 1541.36 162.46 1854.96 164.72 1854.07 -310.83 1539.72 -312.75" style="fill:#eeeef0;" />
							<polygon points="1560.9 -289.18 1562.97 131.01 1834.89 133.08 1833.51 -287.45 1560.9 -289.18" style="fill:#c1d3d7;" />
						</g>
						<polygon points="1695.14 -291.83 1689.27 143.4 1705.39 143.97 1710.36 -292.01 1695.14 -291.83" style="fill:#eeeef0;" />
					</g>
					<g>
						<g>
							<polygon points="1001.42 -304.15 1003.06 171.06 1316.66 173.32 1315.77 -302.23 1001.42 -304.15" style="fill:#eeeef0;" />
							<polygon points="1022.6 -280.57 1024.67 139.61 1296.59 141.68 1295.21 -278.84 1022.6 -280.57" style="fill:#c1d3d7;" />
						</g>
						<polygon points="1156.84 -283.23 1150.97 152 1167.09 152.58 1172.06 -283.41 1156.84 -283.23" style="fill:#eeeef0;" />
					</g>
					<polygon points="60.04 957.53 62 151.73 745.51 149.04 751.21 966.16 60.04 957.53" style="fill:#c3ae7b;" />
					<g>
						<polygon points="84.28 798.74 82.19 204.89 725.71 180.75 731.11 794.1 84.28 798.74" style="fill:#776baa;" />
						<g style="clip-path:url(#e);">
							<g>
								<polyline points="1.13 612.82 802.08 600.62 795.74 910.53 26.64 928.87 10.62 631.8" style="fill:#425170;" />
								<g>
									<polygon points="423.15 523.97 661.05 519.36 663.91 745.3 412.17 748.32 423.15 523.97" style="fill:#62ac6d;" />
									<g style="clip-path:url(#f);">
										<polygon points="349.42 546.59 612.28 618.18 691.29 754.93 291.77 776.83 349.42 546.59" style="fill:#009a95;" />
									</g>
								</g>
								<polyline points="-58.94 194.2 746.85 30.56 753.22 308.82 13.21 518.67 -24.92 244.95" style="fill:#a691c0;" />
								<polygon points="260.89 -171.89 786 -46.71 760.11 292.51 216.28 128.99 162.67 8.86 260.89 -171.89" style="fill:#f19eb0;" />
								<g>
									<polygon points="128.36 617.22 74.54 774.29 263.24 775.14 297.53 619.92 128.36 617.22" style="fill:#efe8f2;" />
									<g style="clip-path:url(#g);">
										<polygon points="-6.54 697.67 191.71 686.62 279.3 782.07 169.88 852.19 3.48 871.44 -98.34 697.6 -6.54 697.67" style="fill:#fee608;" />
									</g>
								</g>
								<g>
									<polygon points="309.3 592.1 343.63 777.5 471.81 777.5 432.9 592.1 309.3 592.1" style="fill:#e6eef8;" />
									<g style="clip-path:url(#h);">
										<polygon points="305.14 712.5 501.68 648.76 487.38 524.03 269.59 532.53 305.14 712.5" style="fill:#f19eb0;" />
									</g>
								</g>
							</g>
						</g>
					</g>
					<g>
						<g>
							<polygon points="34.8 92.1 25.14 207.03 785.37 208.17 775.69 92.06 34.8 92.1" style="fill:#e53446;" />
							<g style="clip-path:url(#i);">
								<g>
									<polygon points="294.56 81.36 293.09 238.11 -4.83 228.2 -2.2 79.57 294.56 81.36" style="fill:#eaba00;" />
									<polygon points="825.29 63.81 836.97 224.29 522.77 208.49 525.4 59.86 825.29 63.81" style="fill:#ec7206;" />
								</g>
							</g>
						</g>
						<path d="M494.48,125.51s-44.78-.75-56.09-.59c-7.73,.12-16.65,4.96-25.11,5.61-8.47-.41-17.53-4.99-25.26-4.87-11.31,.17-56.05,2.23-56.05,2.23l.57,8.24s3.14,1.77,3.42,3.58c.29,1.81,3.81,24.65,7.51,28.96,5.37,6.25,12.37,5.59,22.49,6.22s25.42-.12,29.19-8.3c2.76-6,3.88-9.29,8.12-19.58,2.07-5.02,4.92-7.12,9.78-7.2,4.86-.07,8.52,1.94,10.74,6.89,4.55,10.16,5.76,13.41,8.7,19.33,4,8.06,19.32,8.36,29.42,7.44,10.09-.93,17.11-.47,22.29-6.88,3.57-4.42,6.42-27.35,6.66-29.17,.23-1.82,3.31-3.68,3.31-3.68l.33-8.25-.02,.02Zm-98.84,20.36c-1.39,6.87-2.38,17.25-10.69,22.01-6.29,3.61-26.3,1.59-30.81,.19-4.89-1.51-7.93-5.45-8.77-10.05-.84-4.61-2.1-12.92-2.4-15.48-.29-2.57,.2-7.74,4.75-8.54,6.68-1.18,34.6-2.37,42.34-.36,4.5,1.17,6.93,5.46,5.57,12.24h0Zm88.22-5.41c-.22,2.57-1.24,10.91-1.94,15.54-.7,4.63-3.63,8.65-8.47,10.31-4.46,1.53-24.42,4.13-30.81,.71-8.45-4.51-9.74-14.86-11.33-21.69-1.57-6.73,.74-11.09,5.21-12.39,7.67-2.24,35.62-1.86,42.33-.88,4.57,.67,5.22,5.83,5,8.4h0Z" style="fill:#fbf8f6;" />
					</g>
					<path d="M616.96,497.25c-.48-.24-1.86-.96-2.88-1.14-1.02-.18-10.24-2.2-18.94-2.14s-16.55,3.23-17.63,3.41c-.56,.09-1.44-.13-3.8-.14-2.36,0-3.13,.23-3.69,.14-1.08-.18-8.93-3.35-17.63-3.41s-17.92,1.96-18.94,2.14-2.4,.9-2.88,1.14c-.48,.24-.16,4.37,.02,4.55s2.5,.37,3.04,.43,1.02,.48,1.44,1.8c.42,1.32,1.48,11.31,4.12,14.72,2.13,2.74,5.81,3.41,10.9,3.75,5.45,.36,9.75-.21,14.08-4,5.16-4.51,6.52-11.84,6.96-14.34,.15-.85,1.09-1.19,2.63-1.22s2.48,.37,2.63,1.22c.44,2.5,1.8,9.83,6.96,14.34,4.34,3.79,8.63,4.36,14.08,4,5.09-.33,8.77-1,10.9-3.75,2.64-3.41,3.7-13.4,4.12-14.72s.9-1.74,1.44-1.8,2.86-.25,3.04-.43,.5-4.31,.02-4.55h0Z" style="fill:#272a3e;" />
					<path d="M249.82,598.51c-.48-.24-1.86-.96-2.88-1.14s-10.24-2.2-18.94-2.14-16.55,3.23-17.63,3.41c-.56,.09-1.44-.13-3.8-.14-2.36,0-3.13,.23-3.69,.14-1.08-.18-8.93-3.35-17.63-3.41s-17.92,1.96-18.94,2.14-2.4,.9-2.88,1.14c-.48,.24-.16,4.37,.02,4.55,.18,.18,2.5,.37,3.04,.43s1.02,.48,1.44,1.8,1.48,11.31,4.12,14.72c2.13,2.74,5.81,3.41,10.9,3.75,5.45,.36,9.75-.21,14.08-4,5.16-4.51,6.52-11.84,6.96-14.34,.15-.85,1.09-1.19,2.63-1.22,1.54-.03,2.48,.37,2.63,1.22,.44,2.5,1.8,9.83,6.96,14.34,4.34,3.79,8.63,4.36,14.08,4,5.09-.33,8.77-1,10.9-3.75,2.64-3.41,3.7-13.4,4.12-14.72,.42-1.32,.9-1.74,1.44-1.8,.54-.06,2.86-.25,3.04-.43s.5-4.31,.02-4.55h.01Z" style="fill:#272a3e;" />
					<path d="M411.1,572.99c-.48-.24-1.86-.96-2.88-1.14-1.02-.18-10.24-2.2-18.94-2.14s-16.55,3.23-17.63,3.41c-.56,.09-1.44-.13-3.8-.14-2.36,0-3.13,.23-3.69,.14-1.08-.18-8.93-3.35-17.63-3.41s-17.92,1.96-18.94,2.14-2.4,.9-2.88,1.14-.16,4.37,.02,4.55,2.5,.37,3.04,.43,1.02,.48,1.44,1.8,1.48,11.31,4.12,14.72c2.13,2.74,5.81,3.41,10.9,3.75,5.45,.36,9.75-.21,14.08-4,5.16-4.51,6.52-11.84,6.96-14.34,.15-.85,1.09-1.19,2.63-1.22,1.54-.03,2.48,.37,2.63,1.22,.44,2.5,1.8,9.83,6.96,14.34,4.34,3.79,8.63,4.36,14.08,4,5.09-.33,8.77-1,10.9-3.75,2.64-3.41,3.7-13.4,4.12-14.72,.42-1.32,.9-1.74,1.44-1.8s2.86-.25,3.04-.43,.5-4.31,.02-4.55h.01Z" style="fill:#e52d87;" />
					<polygon points="-181.56 908.54 2105.96 904.71 2082.58 1225.77 -149.36 1373.17 -181.56 908.54" style="fill:#dedcd1;" />
					<g>
						<polygon points="1510.89 703.08 1530.46 702.8 1530.46 714.82 1510.61 714.82 1510.89 703.08" style="fill:#8aa195;" />
						<polygon points="1512.01 621.14 1531.58 620.86 1531.58 632.88 1511.73 632.88 1512.01 621.14" style="fill:#8aa195;" />
						<polygon points="1501.92 610.55 1514.22 611.06 1514.22 725.43 1501.4 725.94 1501.92 610.55" style="fill:#dfbe84;" />
					</g>
					<g>
						<polygon points="1579.74 704.14 1560.17 703.86 1560.17 715.89 1580.02 715.89 1579.74 704.14" style="fill:#8aa195;" />
						<polygon points="1578.62 622.21 1559.05 621.93 1559.05 633.95 1578.9 633.95 1578.62 622.21" style="fill:#8aa195;" />
						<polygon points="1588.71 611.61 1576.41 612.13 1576.41 726.5 1589.23 727.01 1588.71 611.61" style="fill:#dfbe84;" />
					</g>
					<g>
						<polygon points="1326.55 267.13 1326.19 315.89 1385.26 315.39 1385.89 265.52 1326.55 267.13" style="fill:#fcf6e7;" />
						<polygon points="1336.85 280.41 1339.75 284.6 1343.33 282.47 1343.4 307.31 1350.19 307.54 1350.49 273.55 1344.55 273.32 1336.85 280.41" style="fill:#272a3e;" />
						<path d="M1354.72,280.8l3.66,4.12s3.83-5.38,6.94-3.05c4.06,3.05-8.84,16.61-8.84,16.61l.15,8.38,16.84-.23-.23-6.48-8.61-.38s8.86-10.05,8.55-17.3-5.11-9.42-9.6-9.11c-6.63,.46-8.86,7.43-8.86,7.43h0Z" style="fill:#272a3e;" />
					</g>
				</g>
			</g>
		</g>
	</g>
	<g id="j">
		<path d="M1158.76,364.02c-22.53,8.38,7.87,71.66,16.58,94.64,9.55,25.22-.35,53.33,6.93,60.44s45.72,23.7,51.14,9.9c5.42-13.8,.64-60.98-7.72-88.45-7.97-26.19-22.4-57.31-26.9-65.56s-31.77-14.04-40.03-10.97h0Z" style="fill:#f1f1f3;" />
		<path d="M1024.19,581.36s6.14,12.15,9.95,13.9c3.8,1.76,13.22,10.1,18.14,14.39,4.91,4.29,23.92,14.56,23.92,14.56,0,0-.59,6.15-7.54,4.48-6.95-1.68-12.84-5.68-12.84-5.68,0,0-2.07,9.2-12.62,12.53s-20.1,4.75-20.1,4.75c0,0-7.22-17.49-9.4-24.9-2.57-8.74-7.11-15.52-7.11-15.52l17.6-18.51Z" style="fill:#9d8042;" />
		<path d="M1036.1,358s-2.5,82.31-14.05,104c-12.67,23.8-19.93,48.11-28.05,54.24s-36.55,5.15-40.18-9.22,7.41-43.21,19.19-69.4c11.23-24.97,21.25-55.5,26.25-63.45,7.04-11.19,36.84-16.17,36.84-16.17h0Z" style="fill:#f1f1f3;" />
		<path d="M998.39,491.73s9.87,45.28,16.27,62.64,16.04,36.61,16.04,36.61c0,0-3.65,2.95-11.74,8.87-8.09,5.91-11.56,11.66-11.56,11.66l-10.17-15.01s-11.7-4.96-17.57-20.85c-5.87-15.89-18.05-43.85-21.33-50.8-3.83-8.15-9.32-21.68-4.07-29.95,5.24-8.27,39.78-19.29,44.13-3.16h0Z" style="fill:#f1f1f3;" />
		<path d="M1070.78,308.65s1.16,25.87-2.08,37.42c-3.23,11.55-10.16,30.49-10.16,30.49,0,0,38.58,53.6,38.81,52.9,.23-.69,43.89-62.84,43.43-63.53s-8.55-12.71-10.16-24.95c-1.62-12.24-2.08-26.11-2.08-26.11l-57.75-6.24v.02Z" style="fill:#9d8042;" />
		<g>
			<path d="M1062.6,349.95s4.95-4.37,14.75,8.69c9.8,13.07,22.82,36.7,22.82,36.7,0,0,16.16-20.61,22.69-29.76,6.53-9.15,10.31-22.83,10.31-22.83,0,0,19.75,9.58,30.53,13.83s24.33,6.19,31.8,16.21c3.41,4.58-15.87,50.29-16.85,64.34s7.97,76.23,7.95,90.61c-.02,14.6,12.2,20.86,4.49,30.01-11.11,13.19-1.62,61.7-1.62,61.7,0,0-50.72,8.09-86.98,10.7-36.27,2.61-71.92-4.97-71.92-4.97,0,0,8.19-33.68,6.59-54.52-1.59-20.67-7.82-27.78-8.48-39.21-.65-11.44,5.3-55.64,.53-84.78-3.13-19.1-30.19-68.09-20.22-77.08,5.34-4.82,14.93-9.4,24.98-11.28,12.9-2.42,28.61-8.37,28.61-8.37h.02Z" style="fill:#f1f1f3;" />
			<g style="clip-path:url(#k);">
				<path d="M1090.69,386.78s-.39,35.13,1.18,68.67c1.58,33.55,9.87,76.17,9.87,93.93s-2.76,51.31-2.76,51.31l16.18,.79s3.55-24.47,1.18-56.05c-2.37-31.57-9.45-72.35-10.24-88.93s-1.6-77.63-1.6-77.63l-13.81,7.89v.02Z" style="fill:#e2ebf4;" />
			</g>
		</g>
		<path d="M1100.67,223.37c-10.8-.14-34.92,11.58-37.23,20.84-2.32,9.26-.77,37.43-.77,37.43l75.62-.19s4.44-20.45-.77-33.95-21.99-23.92-36.85-24.12h0Z" style="fill:#404b51;" />
		<path d="M1132.03,282.69s6.95-8.3,10.61-6.75c3.67,1.54,.77,11.38-.58,15.82s-3.67,13.5-6.75,13.31c-3.09-.19-9.65-.19-9.65-.19l6.37-22.19Z" style="fill:#9d8042;" />
		<path d="M1068.55,279.61s-6.95-8.3-10.61-6.75c-3.67,1.54-.77,11.38,.58,15.82,1.35,4.44,3.67,13.5,6.75,13.31,3.09-.19,9.65-.19,9.65-.19l-6.37-22.19h0Z" style="fill:#9d8042;" />
		<g>
			<path d="M1071.26,248.93c-5.59,3.86-.19,18.52-.19,18.52,0,0-3.67,.96-4.44,6.75-.77,5.79-.39,37.23,1.74,41.67,2.12,4.44,14.85,21.61,20.26,25.66s16.98,3.28,22.96-1.16,21.22-21.03,21.8-26.62,1.35-26.82,1.35-30.29-2.51-7.14-4.44-9.65c-1.93-2.51-3.47-5.02-3.47-5.02,0,0,8.49-12.35,2.7-17.94-2.59-2.5-16.59,3.67-27.97,3.28s-25.33-8.63-30.29-5.21h-.01Z" style="fill:#9d8042;" />
			<g style="clip-path:url(#l);">
				<path d="M1089.47,311.6c-3.19,1.5-6.9,4.28-8.25,5.44s-2.23,2.69-3.96,2.88c-1.74,.19-.77-4.05-3.28-9.45-1.2-2.58-2.99-22.45-5.34-30.4-1.09-3.68-5.04-6.27-5.04-6.27,0,0-4.08,28.56-4.08,29.14s4.63,34.15,4.63,34.15l32.22,19.68,21.8-3.67s25.47-33.38,24.69-33.57-5.26-41.78-5.26-41.78c0,0-4.2,.56-6.13,6.54s-4.79,34.7-10.31,36.31c-2.04,.59-5.44-6.56-9.75-8.62-4.18-2-8.72,.37-11.81,.56-3.09,.19-8.48-1.71-10.12-.94h0Z" style="fill:#404b51;" />
			</g>
		</g>
		<path d="M1092.7,277.75s-12.73-2.89-15.82-3.47-6.95,4.05-6.95,4.05l1.16,2.51s3.09-2.12,7.52-.77c4.44,1.35,14.85,3.67,14.85,3.67l-.77-5.98h0Z" style="fill:#272a3e;" />
		<path d="M1103.79,278.62l1.24,5.07s14.34-5.52,16.18-5.04c1.84,.48,5.07,1.11,5.07,1.11l.51-4s-3.01-2.82-7.39-3.27c-4.38-.44-15.61,6.12-15.61,6.12h0Z" style="fill:#272a3e;" />
		<path d="M1097.22,328.22c6,.74,12.26-5.79,14.28-6.56,2.01-.77,3.11,0,3.66-1.35s-3.11-4.05-8.79-5.02-6.22,1.35-7.51,1.35-2.93-1.16-6.04-1.54c-3.11-.39-10.25,5.4-9.52,6.56s4.94,1.35,6.41,2.12,4.39,4.05,7.51,4.44Z" style="fill:#c9936d;" />
		<g>
			<path d="M1086.14,284.69c-1.73-.49-3.28,.34-3.69,2.06-.41,1.72,.5,2.72,2.03,3.25,1.8,.63,3.16-.19,3.76-1.91,.42-1.22-.32-2.9-2.1-3.4h0Z" style="fill:#2f2b39;" />
			<polygon points="1078.84 284.26 1088.19 286.35 1089.27 283.04 1078.22 280.86 1078.84 284.26" style="fill:#2f2b39;" />
		</g>
		<g>
			<path d="M1113.01,283.8c1.73-.49,3.28,.34,3.69,2.06,.41,1.72-.5,2.72-2.03,3.25-1.8,.63-3.16-.19-3.76-1.91-.42-1.22,.32-2.9,2.1-3.4h0Z" style="fill:#2f2b39;" />
			<polygon points="1120.24 283.43 1110.82 285.66 1109.75 282.35 1120.28 279.96 1120.24 283.43" style="fill:#2f2b39;" />
		</g>
		<path d="M1070.87,326.67s-.44,7.89,.84,12.93c1.52,6.03,28.49,55.67,28.49,55.67,0,0,15.4-22.17,20.25-29.57,4.85-7.39,8.94-36.57,8.94-36.57l6.71,8.44s1.68,14.97,3.99,26.75c2.31,11.78,1.35,27.43,1.35,27.43l-19.34-18.94-23.29,28.42-19.1-28.56-24.48,17.23,.33-38.54,11.52-20.99,3.79-3.69h0Z" style="fill:#e2ebf4;" />
		<path d="M1075.93,984.75s4.74,12.33,1.95,18.09-11.42,21.38-11.42,21.38l41.51-1.37,3.62-15.08-5.85-27.14-29.81,4.11h0Z" style="fill:#004a7c;" />
		<path d="M1127.64,979.6s-.02,10.14-1.02,14.83-3.47,17.09-3.47,17.09l23.79,25.99,23.71-21.16s-7.8-10.77-9.29-14.57,.57-21.4,.57-21.4l-34.3-.78h.01Z" style="fill:#004a7c;" />
		<path d="M1124.11,997.66s-2.72,16.28-3.75,23.91c-1.04,7.63-.67,14.04-.67,14.04l20.02,8.01,4.14-3.8s3.57,2.16,5.12,8,3.06,9.61,9.99,12.54c6.93,2.94,27.82,10.03,32.59,9.72,9.13-.58,16.07-3.86,16.35-6.98,.27-3.12,.59-11.43-6.62-18.33-7.21-6.91-20.49-17.98-24.32-23.07s-7.57-21.02-19.25-18.83c-3.27,.61-10.7,4.24-18.4,2.55-9.28-2.04-15.2-7.75-15.2-7.75h0Z" style="fill:#00101f;" />
		<path d="M1074.95,1005.56c.53,0,2.87-5.34,8.95-3.42,4.8,1.52,6.08,8.76,15.19,4.06,9.12-4.7,10.47-9.63,10.47-9.63,0,0,4.39,18.32,4.22,24.03-.18,5.7,.18,8.47,.18,8.47,0,0-8.61,7.61-9.14,7.43s-4.74-.52-4.74-.52c0,0-1.41,2.94-1.41,9.34s2.11,8.47,.7,11.06-18.27,16.25-35.84,14.18-14.93-11.41-14.06-16.77c.88-5.36,2.11-12.62,5.1-16.42s13.35-17.11,15.46-21.26,4.92-10.55,4.92-10.55h0Z" style="fill:#00101f;" />
		<path d="M1035.36,573.7s37.12,6.95,60.38,7.04c23.26,.08,92.08-8.91,92.08-8.91l-.48,24.68s16.89,52.79,17.96,69.97c1.07,17.18-5.25,118.44-9.22,132.76s-10.25,64.16-12.47,79.84c-2.22,15.69-13.94,107.54-13.94,107.54,0,0-5.56,16.27-13.06,16.88-7.49,.6-32.39-9.6-32.39-9.6,0,0-5.21-45.98-2.71-72.63s13.11-80.09,11.93-88.43c-1.17-8.34-4.22-69.31-9.69-93.26s-13.83-50.57-20.92-77.4c-7.1-26.83-67.49-88.47-67.49-88.47h.02Z" style="fill:#11242f;" />
		<path d="M1035.21,592.71s-12.8,28-19.05,40.64c-4.47,9.03,19.98,104.74,21.52,126.64,1.55,21.9,10.2,70.86,9.58,81.51-.62,10.64,8.35,82.42,12.06,101.88,3.71,19.46,13.91,56.57,13.91,56.57,0,0,7.11,2.74,14.53,3.35s24.11-8.21,24.11-8.21c0,0,4.02-27.37,1.55-55.35s-15.15-93.98-13.29-107.36c1.85-13.38,10.82-76.03,12.36-93.37,1.55-17.34,10.82-134.73,10.82-134.73l-66.77-24.63-20.71-6.69-.62,19.77v-.02Z" style="fill:#11242f;" />
		<path d="M1150.65,575.75s.98,7.33,1.85,12.88,.87,12.6,.87,12.6l6.29-.85s-.43-7.26-1.09-13.88c-.65-6.62-1.96-11.63-1.96-11.63l-5.96,.88h0Z" style="fill:#00101f;" />
		<path d="M1064.35,578.73s-.85,6.91-1.72,12.47c-.87,5.55-.87,12.6-.87,12.6l-6.29-.85s.43-7.26,1.09-13.88c.65-6.62,2.01-11.38,2.01-11.38l5.79,1.05h-.01Z" style="fill:#00101f;" />
		<path d="M1109.74,588.09c2.31,.15,3.53,2.04,3.5,3.3-.04,1.89-.47,3.87-3.86,3.93-2.46,.04-3.76-1.6-3.76-3.98,0-1.68,1.74-3.41,4.13-3.26h-.01Z" style="fill:#4f4e47;" />
		<path d="M1131.51,482.76s-11.02-13.73-16.55-17.13-18.79-7.69-23.48-12.19c-4.7-4.5-10.54-8.4-12.14-8.93s-23.07-15.08-23.07-15.08c0,0,2.45-6.05,7.05-3.81,4.61,2.24,18.39,10.1,19.34,10.61,.95,.51,1.8-.75,.54-1.76s-11.05-7.16-13.43-8.74-15.4-10.2-15.4-10.2c0,0,2.37-5.48,6.72-4.07s14.4,9.01,16.32,10.34c1.92,1.33,8.94,6.29,9.73,6.9s1.62,.05,.71-.56-9.94-7.48-11.41-8.45c-1.47-.97-20.54-12.21-20.54-12.21,0,0,1.33-5.62,6.72-4.18s16.73,8.51,18.65,9.84,9.28,6.42,9.96,6.79c.68,.37,1.98-.4,.86-1.48-1.12-1.08-9.37-7.35-11.06-8.56-1.7-1.21-13.77-7.14-13.77-7.14,0,0,1.58-6.19,6.04-4.67,4.46,1.53,13.36,5.39,15.85,7.21,2.49,1.81,23.94,14.4,24.96,15.13s.95-.89,.19-2.31c-.76-1.41-5.71-13.36-5.93-17.3-.22-3.94,4.8-5.63,4.8-5.63,0,0,3.04,6.22,4.98,10.68s8.74,12.65,9.11,15.43c.37,2.79,2.02,20.41,3.56,22.66,1.55,2.25,25.34,17.68,25.34,17.68,0,0-25.05,20.93-24.66,21.12h.01Z" style="fill:#9d8042;" />
		<path d="M1216.09,473.31s-29.26,.39-45.6-8.29c-16.34-8.68-37.98-21.6-37.98-21.6,0,0-6.59,4.93-13.52,12.15-6.94,7.22-11.33,10.08-11.33,10.08l18.47,14.08s5.62,11.23,20.58,19.18c14.95,7.95,44.65,28.89,52.02,31.07,7.37,2.18,20.45,9.44,31.79,2.72,11.14-6.6,.95-52.92-14.44-59.39h0Z" style="fill:#f1f1f3;" />
	</g>
</svg>
