<svg xmlns="http://www.w3.org/2000/svg" viewBox="0 0 1920 1080">
	<defs>
		<clipPath id="uuid-e7de783e-0040-427e-b7fc-0b5c37bab21b">
			<path class="uuid-c8973987-eddd-4b6f-9a77-79091719b726" d="M0 0h1920v1080H0z" />
		</clipPath>
		<clipPath id="uuid-7551c560-53e6-498a-8cde-f84665370722">
			<path class="uuid-03ef2c14-eed9-4dba-88db-5ccc6dbdb50a" d="m889.92 889.37-.48-293.32-355.08-2.04 5.16 293.47 350.4 1.89z" />
		</clipPath>
		<clipPath id="uuid-001cced0-bfaf-44fc-9cec-562e953fa85d">
			<path class="uuid-608c83d5-5cc9-43e1-b07d-bb52121373c3" d="m1797.28 543.28.67 4.75-8.83 2.89s-24.28 28.75-70.2 25.66c-45.91-3.09-59.91-39.99-59.91-39.99l2.43-2.12a3.804 3.804 0 0 1 4.86-.12c5.61 4.43 20.9 14.84 44.35 18.26 30.09 4.38 62.45-11.85 67.49-11.45 5.04.39 11.4 1.4 11.4 1.4l7.73.73Z" />
		</clipPath>
		<clipPath id="uuid-4bc1908d-8af0-4005-95ec-ab4acbe658f2">
			<path class="uuid-608c83d5-5cc9-43e1-b07d-bb52121373c3" d="m1804.38 557.47-1.06 4.67-9.28-.43s-32.91 18.24-74.73-.97c-41.82-19.21-41.78-58.68-41.78-58.68l3.03-1.12c1.72-.63 3.65.04 4.59 1.61 3.67 6.13 14.26 21.3 34.96 32.83 26.57 14.79 62.58 11.13 67.16 13.29 4.57 2.16 10.16 5.36 10.16 5.36l6.96 3.43Z" />
		</clipPath>
		<clipPath id="uuid-513cb1a2-f2dd-45a6-950f-c13df3c90b66">
			<path class="uuid-c8973987-eddd-4b6f-9a77-79091719b726" d="M1166.36 916.25s1.19 10-11.19 11.79c-8.8 1.26-13.81-9.3-17.39-13.58-3.57-4.29-7.39-6.67-10.24-6.31-2.28.29-17.27 17.02-25.96 24.17-8.99 7.38-20.73 12.14-26.2 14.18-5.47 2.03-7.26 3.81-9.05 6.31s-1.79 12.98-1.79 12.98 4.64 3.09 11.54 4.17c6.91 1.07 15.6.48 20.51.27 11.92-.5 17.87-3.6 39.23-6.95 21.35-3.35 38.27-4.38 38.27-4.38s.6-6.8-.12-15.85c-.42-5.22-.42-8.99-1.9-16.31-1.48-7.32-2.98-10.35-5.71-10.47Z" />
		</clipPath>
		<clipPath id="uuid-6ac5968c-eb60-4c85-a745-fd5e0d13a40b">
			<path class="uuid-c8973987-eddd-4b6f-9a77-79091719b726" d="M1225.59 909.96c-6.59-1.99-14.52 6.37-17.37 10.09-2.86 3.73-8.07 13.29-12.04 22.97-3.97 9.68-5.84 12.04-5.84 12.04s-1.74 1.24-2.73 3.1c-1 1.87-2.36 13.67-.63 14.53 1.73.87 25.08 2.73 35.62 1.87 10.55-.86 15.9-6.2 19.49-10.55s13.9-8.57 13.9-8.57-.38-14.78-2.98-25.45c-2.61-10.67-5.71-15.02-5.71-15.02l.25 2.48c.24 2.48.24 7.81-1.87 7.94s-13.9-13.55-20.11-15.43h.02Z" />
		</clipPath>
		<clipPath id="uuid-80c24861-2323-438b-bbb4-4f01b93bcbfe">
			<path class="uuid-c8973987-eddd-4b6f-9a77-79091719b726" d="m1188.48 236.36-50.28 7.68s5.05 24.72 6.81 29.18c2.64 6.7 8.31 13.76-5.13 24.04-13.43 10.27-23.32 13.79-23.32 13.79l-2.36 28.45 118.14 6.72-.79-57.69s-29.64-7.91-38.73-20.55c-9.09-12.64-4.34-31.61-4.34-31.61v-.03Z" />
		</clipPath>
		<clipPath id="uuid-1cceadaf-b137-4a84-a462-f00954ea69fb">
			<path class="uuid-c8973987-eddd-4b6f-9a77-79091719b726" d="M1179.87 272.94c7.07-7.65 11.22-8.7 17.45-22.9 5.27-12.01 3.98-22.49.52-34.08-1.97-6.6-6.2-7.77-6.2-7.77l-66.94 11.8s-.81 3.12-.21 10.71c1.06 13.31 2.54 20.91 12.64 31.03 4.53 4.53 13.89 12.18 23.43 15.65 4.04 1.47 15.03.18 19.3-4.43Z" />
		</clipPath>
		<style>
			.uuid-c8973987-eddd-4b6f-9a77-79091719b726{fill:none}.uuid-608c83d5-5cc9-43e1-b07d-bb52121373c3{fill:#fab600}.uuid-e1d51c2f-c2a8-4ad7-93f9-14de19131896{fill:#f8f7f1}.uuid-587dce7d-0c25-4bb2-af63-f0030f2fc15e{fill:#007585}.uuid-c6048e27-6a97-47ca-9d98-dab8157650ea{fill:#f59e19}.uuid-3485c0cb-1959-4bdd-8e69-a969cd85af57{fill:#e9b926}.uuid-56eab895-64a6-4127-a77b-dc0e969dc1d4{fill:#f0f4fa}.uuid-03fee581-c9e8-4a9d-ac1e-941057b92e4a{fill:#f1f1f3}.uuid-2db222bd-7a45-4e04-8830-7219649beff9{fill:#855b46}.uuid-9e5f1c66-ef44-4b8e-a05d-18c5dcbd90ea{fill:#a67238}.uuid-947b574e-41e6-45f8-8afc-7fdcef71c850{fill:#a8c4ce}.uuid-d901a3a4-2b6b-4fbb-b47e-44db7b11397e{fill:#aea8ae}.uuid-e6fbde57-6451-4e4b-8f2f-763b4f59aef5{fill:#a9924d}.uuid-03ef2c14-eed9-4dba-88db-5ccc6dbdb50a{fill:#dbdbe0}.uuid-096ac1bc-51bb-4333-a2bf-f59531c357c7{fill:#c5c7ca}.uuid-606ffa47-1215-460d-9dd4-f4824e14db92{fill:#e2a972}.uuid-d24b888b-f103-4a61-ab60-42124b4bfcd6{fill:#1e3728}.uuid-48a2211f-c7b5-4774-9942-037e7c115a4f{fill:#44484f}.uuid-46e549e5-b74c-45e7-9164-e0fbf2de34eb{fill:#272a3e}
		</style>
	</defs>
	<g style="clip-path:url(#uuid-e7de783e-0040-427e-b7fc-0b5c37bab21b)" id="uuid-027a3e41-ee40-44c6-b058-37d4151ac458">
		<path style="fill:#f1f1f4" d="M-176.59-177.55h2325.36V954H-176.59z" />
		<path style="fill:#ecd584" d="M-295.8 810.11h2433.77v676.64H-295.8z" />
		<path style="fill:#e3e6eb" d="M-747.82-50.39H900.01v642.75H-747.82z" />
		<path class="uuid-e1d51c2f-c2a8-4ad7-93f9-14de19131896" d="m61.32 497.8.54 41.91-83.18.27 1.35-41.91 81.29-.27zM61.77 452.16l.54 40.98-81.29-.19.39-40.51 80.36-.28zM70.66 497.82l-1.35 41.91 83.18.66-.54-41.91-81.29-.66zM71.11 452.19l-1.35 40.97 81.3.2.39-40.52-80.34-.65zM242.59 498.23l.54 41.91-83.19.27 1.35-41.91 81.3-.27zM243.03 452.59l.55 40.98-81.29-.19.39-40.51 80.35-.28zM251.93 498.25l-1.35 41.91 83.18.66-.54-41.91-81.29-.66zM252.37 452.61l-1.34 40.98 81.29.2.39-40.52-80.34-.66zM423.85 498.66l.54 41.91-83.19.27 1.36-41.91 81.29-.27zM424.3 453.02l.54 40.98-81.29-.19.39-40.51 80.36-.28zM433.19 498.68l-1.35 41.91 83.18.66-.54-41.91-81.29-.66zM433.64 453.04l-1.35 40.98 81.3.2.39-40.52-80.34-.66zM605.12 499.09l.54 41.91-83.19.27 1.35-41.91 81.3-.27zM605.56 453.45l.55 40.98-81.29-.19.39-40.51 80.35-.28zM63.53 405.79l.54 41.92-83.19.26 1.35-41.9 81.3-.28zM72.87 405.81l-1.36 41.91 83.18.67-.54-41.92-81.28-.66zM244.79 406.22l.54 41.92-83.19.26 1.35-41.9 81.3-.28zM254.13 406.24l-1.35 41.91 83.18.67-.54-41.92-81.29-.66zM426.06 406.65l.54 41.92-83.19.26 1.35-41.9 81.3-.28zM435.4 406.67l-1.36 41.91 83.18.67-.54-41.92-81.28-.66zM607.32 407.08l.54 41.92-83.19.26 1.35-41.9 81.3-.28zM699.21 498.23l.54 41.91-83.19.27 1.35-41.91 81.3-.27zM699.65 452.59l.55 40.98-81.29-.19.39-40.51 80.35-.28zM708.55 498.25l-1.35 41.91 83.18.66-.54-41.91-81.29-.66zM708.99 452.62l-1.34 40.97 81.29.2.4-40.52-80.35-.65zM880.48 498.66l.53 41.91-83.18.27 1.35-41.91 81.3-.27zM880.92 453.02l.55 40.98-81.3-.19.4-40.51 80.35-.28zM701.41 406.22l.54 41.92-83.19.26 1.36-41.9 81.29-.28zM710.75 406.24l-1.35 41.91 83.18.67-.54-41.92-81.29-.66zM882.68 406.65l.54 41.92-83.19.26 1.35-41.9 81.3-.28z" />
		<path class="uuid-947b574e-41e6-45f8-8afc-7fdcef71c850" d="m909.93 930.02-.79-367.34-1192.78.51-.01-3.93-280.47-1.08-1.46 371.25 1475.51.59z" />
		<g>
			<path class="uuid-03ef2c14-eed9-4dba-88db-5ccc6dbdb50a" d="m889.92 889.37-.48-293.32-355.08-2.04 5.16 293.47 350.4 1.89z" />
			<g style="clip-path:url(#uuid-7551c560-53e6-498a-8cde-f84665370722)">
				<path style="fill:#fbf8f7" d="M461.07 665.87h469.02l-11.73-126.05-427.97 17.59-29.32 108.46z" />
				<path style="fill:#dedee3" d="M461.07 658.5h469.02l-11.73-126.05-427.97 17.59-29.32 108.46z" />
			</g>
		</g>
		<g>
			<path class="uuid-56eab895-64a6-4127-a77b-dc0e969dc1d4" d="m512.11 889.28 1.55-294.33-174 1.24-2.07 291.2 174.52 1.89zM154.2 596.45l.42 291.93 178.08.99-1.13-292.6-177.37-.32z" />
			<path class="uuid-e6fbde57-6451-4e4b-8f2f-763b4f59aef5" d="m317.5 681.34 5.46-.03-.25-62.58-5.44.03.23 62.58zM350.65 680.47l5.46-.04-.25-62.58-5.44.04.23 62.58z" />
		</g>
		<path class="uuid-56eab895-64a6-4127-a77b-dc0e969dc1d4" d="m138.41 889.37-.48-293.32-174 1.24-.05 290.19 174.53 1.89z" />
		<g>
			<path class="uuid-d901a3a4-2b6b-4fbb-b47e-44db7b11397e" d="m75.38 561.31-.29-34.54 13.93-.29.29 11.03 16.25-.58s2.03 2.03 1.74 6.68c-.29 4.64-1.45 8.13-1.45 8.13l-16.54.29.29 9.87-14.22-.58Z" />
			<path class="uuid-d901a3a4-2b6b-4fbb-b47e-44db7b11397e" d="m100.05 540.6 1.9-18.77 2.68.32-1.27 18.6-3.31-.15zM78.61 527.98s-1.42-71.12-1.58-77.75c-.16-6.62 1.12-9.81 2.84-13.25 1.89-3.78 3.47-6.47 7.88-8.36 4.42-1.89 17.24-6.04 20.82-6.78 3.78-.79 8.97.09 11.99 6.62 2.84 6.15 3.15 17.5 3.15 17.5l-8.04.47s-.29-6.26-.47-8.2c-.47-5.05-2.21-9.46-4.42-9.3-3.19.23-18.27 5.58-20.19 6.31-3.31 1.26-4.73 5.52-5.52 9.78-1.01 5.45.79 84.05.79 84.05l-7.25-1.1Z" />
		</g>
		<g>
			<path class="uuid-608c83d5-5cc9-43e1-b07d-bb52121373c3" d="m1797.28 543.28.67 4.75-8.83 2.89s-24.28 28.75-70.2 25.66c-45.91-3.09-59.91-39.99-59.91-39.99l2.43-2.12a3.804 3.804 0 0 1 4.86-.12c5.61 4.43 20.9 14.84 44.35 18.26 30.09 4.38 62.45-11.85 67.49-11.45 5.04.39 11.4 1.4 11.4 1.4l7.73.73Z" />
			<path class="uuid-2db222bd-7a45-4e04-8830-7219649beff9" d="m1789.3 536.38 1.14 21.57 21.24-8.25-3.19-22.1-19.19 8.78z" style="clip-path:url(#uuid-001cced0-bfaf-44fc-9cec-562e953fa85d)" />
			<path class="uuid-9e5f1c66-ef44-4b8e-a05d-18c5dcbd90ea" d="M1755.18 558.19s-20.42 6.46-50.73-.4c-27.64-6.25-36.61-15.85-36.61-15.85l-.61 1.34s7.92 10.4 37.01 17.38c29.28 7.03 51.64-.97 51.64-.97l-.7-1.5Z" />
			<path class="uuid-2db222bd-7a45-4e04-8830-7219649beff9" d="M1773.73 553.25s-9.02 8.08-34.62 12.14c-23.2 3.67-38.67-.55-38.67-.55l-.56 1.44s15.02 5.71 39.95 1.61c25.12-4.13 34.95-13.57 34.95-13.57l-1.05-1.06Z" />
		</g>
		<g>
			<path class="uuid-608c83d5-5cc9-43e1-b07d-bb52121373c3" d="m1804.38 557.47-1.06 4.67-9.28-.43s-32.91 18.24-74.73-.97c-41.82-19.21-41.78-58.68-41.78-58.68l3.03-1.12c1.72-.63 3.65.04 4.59 1.61 3.67 6.13 14.26 21.3 34.96 32.83 26.57 14.79 62.58 11.13 67.16 13.29 4.57 2.16 10.16 5.36 10.16 5.36l6.96 3.43Z" />
			<path class="uuid-2db222bd-7a45-4e04-8830-7219649beff9" d="m1799.38 548.18-6.6 20.58 22.78-.16 4.88-21.8-21.06 1.38z" style="clip-path:url(#uuid-4bc1908d-8af0-4005-95ec-ab4acbe658f2)" />
			<path class="uuid-2db222bd-7a45-4e04-8830-7219649beff9" d="M1769.65 553.67s-21.33 1.97-49.49-11.17c-25.68-11.99-32.4-23.27-32.4-23.27l-.88 1.18s5.53 11.84 32.47 24.85c27.11 13.09 50.67 10.03 50.67 10.03l-.36-1.61Z" />
			<path class="uuid-9e5f1c66-ef44-4b8e-a05d-18c5dcbd90ea" d="M1780.23 556.23s-11.31 4.35-36.67-.96c-22.99-4.81-35.95-14.26-35.95-14.26l-1.03 1.15s12.01 10.68 36.77 15.71c24.95 5.07 37.49-.26 37.49-.26l-.61-1.36Z" />
		</g>
		<path d="M1650.59 567.78s2.65 14.28 7.2 20.48c6.09 8.3 13.17 17.8 13.17 17.8l115.48-1.19s16.33-13.6 19.35-20.65c3.02-7.05 5.29-16.12 5.29-16.12l-160.49-.32Z" style="fill:#73c7d3" />
		<path d="M1555.01 562.36c.31 7.53 3.68 11.68 8.7 11.68 4.68 0 6.35-3.43 7.45-4.31 1.44-1.15 2.79-.92 2.93.87.11 1.34 2.07 26.88 2.07 26.88l42.34.47 2.64-50.74c.05-.88-.52-1.68-1.37-1.92-3.11-.89-41.6-1.41-44.98-.56-1.22.31-2.17.93-2.14 2.19.01.6.14 6.83.18 7.28.15 1.8-.74 1.61-1.06 1.34-.57-.48-2.87-5.8-8.67-5.64-5.8.16-8.4 4.91-8.09 12.44Zm7.96-9.55c3.72-.26 6.7 3.88 6.93 9.14.23 5.27-3.46 9.18-6.17 9.18s-5.57-3.16-5.87-8.73c-.34-6.34 1.71-9.36 5.12-9.59Z" style="fill:#7eb971" />
		<path class="uuid-e6fbde57-6451-4e4b-8f2f-763b4f59aef5" d="m1344.5 631.37 1396.19 2.46-.35-34.78-1395.83-6.17-.01 38.49z" />
		<path class="uuid-e6fbde57-6451-4e4b-8f2f-763b4f59aef5" d="m1364.22 933.5 15.69-326.82 33.99 2.62-26.15 324.2h-23.53z" />
		<path style="fill:#9499b2" d="m672.64 607.76 85.41.54v17.95l-85.95.55.54-19.04z" />
		<path d="M787.85 623.94c4.29-.38 6.09-3.63 5.77-6.46-.37-3.29-2.54-5.63-6.47-5.52-3.71.1-6.38 3.27-5.54 7.19.7 3.24 3.04 5.06 6.24 4.78Z" style="fill:#ee6f5e" />
		<path d="M810.14 624.26c4.29-.38 6.09-3.63 5.77-6.46-.37-3.29-2.54-5.63-6.47-5.52-3.71.1-6.38 3.27-5.54 7.19.7 3.24 3.04 5.06 6.24 4.78Z" style="fill:#ffd500" />
		<g>
			<path class="uuid-e1d51c2f-c2a8-4ad7-93f9-14de19131896" d="m606.66 357.05.54 41.91-83.19.27 1.35-41.91 81.3-.27zM607.1 311.41l.55 40.98-81.29-.19.39-40.52 80.35-.27zM608.86 265.04l.54 41.91-83.19.27 1.36-41.91 81.29-.27zM700.75 356.19l.54 41.91-83.19.27 1.36-41.91 81.29-.27zM701.2 310.55l.54 40.98-81.29-.19.39-40.52 80.36-.27zM710.09 356.21l-1.35 41.91 83.18.66-.54-41.91-81.29-.66zM710.54 310.57l-1.35 40.98 81.3.19.39-40.51-80.34-.66zM882.02 356.62l.54 41.91-83.19.27 1.35-41.91 81.3-.27zM882.46 310.98l.55 40.98-81.29-.19.39-40.52 80.35-.27zM702.96 264.18l.54 41.91-83.19.27 1.35-41.91 81.3-.27zM712.3 264.2l-1.36 41.91 83.18.66-.54-41.91-81.28-.66zM884.22 264.61l.54 41.91-83.19.27 1.35-41.91 81.3-.27z" />
		</g>
		<g>
			<path class="uuid-e1d51c2f-c2a8-4ad7-93f9-14de19131896" d="m606.66 216.43.54 41.91-83.19.27 1.35-41.91 81.3-.27zM607.1 170.79l.55 40.99-81.29-.2.39-40.51 80.35-.28zM608.86 124.42l.54 41.92-83.19.27 1.36-41.91 81.29-.28zM700.75 215.57l.54 41.91-83.19.27 1.36-41.91 81.29-.27zM701.2 169.93l.54 40.99-81.29-.2.39-40.51 80.36-.28zM710.09 215.59l-1.35 41.91 83.18.66-.54-41.91-81.29-.66zM710.54 169.96l-1.35 40.97 81.3.2.39-40.52-80.34-.65zM882.02 216l.54 41.91-83.19.27 1.35-41.91 81.3-.27zM882.46 170.36l.55 40.99-81.29-.2.39-40.51 80.35-.28zM702.96 123.56l.54 41.92-83.19.27 1.35-41.91 81.3-.28zM712.3 123.59l-1.36 41.9 83.18.67-.54-41.92-81.28-.65zM884.22 123.99l.54 41.92-83.19.27 1.35-41.91 81.3-.28z" />
		</g>
		<g>
			<path class="uuid-e1d51c2f-c2a8-4ad7-93f9-14de19131896" d="m606.66 75.81.54 41.92-83.19.27 1.35-41.91 81.3-.28zM607.1 30.18l.55 40.98-81.29-.19.39-40.52 80.35-.27zM608.86-16.19l.54 41.91-83.19.27 1.36-41.91 81.29-.27zM700.75 74.95l.54 41.92-83.19.27 1.36-41.91 81.29-.28zM701.2 29.32l.54 40.98-81.29-.19.39-40.52 80.36-.27zM710.09 74.98l-1.35 41.91 83.18.66-.54-41.91-81.29-.66zM710.54 29.34l-1.35 40.98 81.3.19.39-40.51-80.34-.66zM882.02 75.38l.54 41.92-83.19.27 1.35-41.91 81.3-.28zM882.46 29.75l.55 40.98-81.29-.19.39-40.52 80.35-.27zM702.96-17.05l.54 41.91-83.19.27 1.35-41.91 81.3-.27zM712.3-17.03l-1.36 41.91 83.18.66-.54-41.91-81.28-.66zM884.22-16.62l.54 41.91-83.19.27 1.35-41.91 81.3-.27z" />
		</g>
		<path class="uuid-947b574e-41e6-45f8-8afc-7fdcef71c850" d="m-1015.65-54.73.79 444.9 1543.1 2.72-.06-444.57-1543.83-3.05z" />
		<path class="uuid-56eab895-64a6-4127-a77b-dc0e969dc1d4" d="m131.78 372.44-.48-342.72-174.04-.94v341.77l174.52 1.89z" />
		<g>
			<path class="uuid-56eab895-64a6-4127-a77b-dc0e969dc1d4" d="m508.08 368.01-.48-342.72-174.04-.94v341.77l174.52 1.89zM146.18 25.8l2.45 338.29 178.07.99-2.15-342.27-178.37 2.99z" />
			<path class="uuid-e6fbde57-6451-4e4b-8f2f-763b4f59aef5" d="m311.39 343.27 5.45-.04-.32-74.6-5.44.03.31 74.61zM342.48 342.25l5.45-.03-.32-74.61-5.44.03.31 74.61z" />
		</g>
		<path style="stroke:#97a2a5;stroke-miterlimit:10;stroke-width:2.2px;fill:none" d="M1741.34 297.42V-81.3" />
		<path d="M1741.05 288.92s-87.36 26.7-93.86 54.89c-5.92 25.66-4.64 39.07-4.64 39.07l193.37-.75s4.41-13.24-6.07-37.51c-12.94-29.97-88.8-55.71-88.8-55.71Z" style="fill:#2d2b40" />
		<g>
			<path class="uuid-c6048e27-6a97-47ca-9d98-dab8157650ea" d="m575.57 568.11-8.3-107.76 80.93 1.62s-12.16 15.86-16.19 38.31c-3.09 17.2-8.27 66.79-8.27 66.79l-48.18 1.05Z" />
			<path class="uuid-c6048e27-6a97-47ca-9d98-dab8157650ea" d="m581.52 532.1-22.67-4.69a12.464 12.464 0 0 1-9.95-11.72l-1.39-34.13c-.27-6.55 4.63-12.23 11.15-12.93l19.99-2.14.56 5.2-19.99 2.14c-3.79.41-6.64 3.71-6.49 7.52l1.39 34.13a7.265 7.265 0 0 0 5.79 6.82l22.67 4.69-1.06 5.12Z" />
		</g>
		<g>
			<path d="M696.68 489.24s1.02 4.03 3.6 10.49 7.78 12.97 7.78 12.97l87.09 3.04s5.3-7.14 7.44-12.72c2.14-5.58 3.76-12.78 3.76-12.78l-109.67-1Z" style="fill:#fdd900" />
			<path d="M696.95 490.17s-3.51-2.24-9.81-5.18c-6.31-2.94-14.55-4.11-14.55-4.11l-65.51 57.47s1.03 8.83 3.3 14.36c2.27 5.53 6.02 11.89 6.02 11.89l80.56-74.43Z" style="fill:#ef7d00" />
			<path d="M693.14 497.11s.71 4.18 2.79 11.06c2.08 6.87 6.76 14.25 6.76 14.25l86.29 18.28s5.8-6.16 8.34-11.33 4.7-12.04 4.7-12.04l-108.88-20.21Z" style="fill:#2f5354" />
			<path d="M695.25 521.52s.71 4.09 2.8 10.7c2.08 6.62 6.78 13.45 6.78 13.45l86.68 8.8s5.83-6.77 8.38-12.19c2.56-5.43 4.72-12.49 4.72-12.49l-109.37-8.26Z" style="fill:#00a59e" />
			<path d="M695.64 542.87s1.05 4.01 3.67 10.43 7.87 12.84 7.87 12.84l87.11 1.61s5.25-7.22 7.35-12.84c2.1-5.62 3.67-12.84 3.67-12.84l-109.68.8Z" style="fill:#44ab45" />
		</g>
		<g>
			<path class="uuid-587dce7d-0c25-4bb2-af63-f0030f2fc15e" d="m513.12 498.44 82.04-2.38a2.45 2.45 0 0 1 2.52 2.59l-.32 6.03a1.96 1.96 0 0 1-1.94 1.86l-81.86 1.79-.45-9.89Z" />
			<path class="uuid-587dce7d-0c25-4bb2-af63-f0030f2fc15e" d="m442.74 497.91 2.48 65.66 80.02-.09 5.24-66.76-87.74 1.19z" />
			<g>
				<path class="uuid-48a2211f-c7b5-4774-9942-037e7c115a4f" d="M441.19 497.92h89.98l-4.09-7.68c-1.01-1.41-2.76-2.26-4.63-2.25l-71.73.64c-1.88 0-3.63.87-4.63 2.3l-4.9 6.99Z" />
				<path class="uuid-48a2211f-c7b5-4774-9942-037e7c115a4f" d="M486.88 478.66c-3.9-.55-6.13 1.22-6.7 3.74-.6 2.64.25 5.89 3.9 6.78 3.72.9 7.11-1.5 7.33-4.3.21-2.66-.64-5.67-4.54-6.22Z" />
			</g>
		</g>
		<path d="M626.75 536.47c.28 6.73 3.29 10.43 7.77 10.43 4.18 0 5.67-3.06 6.66-3.85 1.29-1.02 2.49-.82 2.62.78.09 1.2 1.85 24.02 1.85 24.02l37.83.42 2.36-45.34c.04-.79-.47-1.5-1.23-1.72-2.78-.79-37.17-1.26-40.2-.5-1.09.28-1.94.83-1.91 1.96.01.53.12 6.1.16 6.51.13 1.6-.66 1.44-.95 1.2-.51-.43-2.57-5.18-7.75-5.04-5.18.14-7.51 4.39-7.22 11.12Zm7.11-8.53c3.33-.23 5.99 3.47 6.19 8.17.2 4.71-3.09 8.21-5.52 8.21-2.42 0-4.98-2.83-5.25-7.8-.31-5.67 1.53-8.36 4.57-8.57Z" style="fill:#22b9d8" />
		<path d="M250.44 534.95c.28 7.3 3.3 11.33 7.8 11.33 4.2 0 5.69-3.32 6.69-4.18 1.3-1.11 2.5-.89 2.63.85.09 1.3 1.86 26.08 1.86 26.08l37.98.46 2.37-49.22c.04-.86-.47-1.63-1.23-1.86-2.79-.86-37.32-1.37-40.35-.54-1.1.3-1.94.9-1.92 2.12.01.58.12 6.63.16 7.07.13 1.74-.67 1.57-.95 1.3-.51-.46-2.58-5.62-7.78-5.47-5.2.15-7.53 4.76-7.25 12.07Zm7.14-9.26c3.34-.25 6.01 3.76 6.21 8.87.2 5.12-3.11 8.91-5.54 8.91s-5-3.07-5.27-8.47c-.31-6.15 1.53-9.08 4.59-9.3Z" style="fill:#00a99f" />
		<g>
			<path d="M337.11 453.82c-1.17 12.12-10.23 20.29-11.15 43.23-1.17 29.36-1.55 65.07-1.55 65.07l40.85.99s.27-36.85-1.22-64.4c-1.21-22.2-10.47-28.59-12.71-43.66-1.79-12.01-2.62-23.39-2.62-23.39l-9.72.52s-.75 9.88-1.89 21.64Z" style="fill:#c3e3eb" />
			<path d="m337.64 439.96.11-7.67a2.456 2.456 0 0 1 2.39-2.42l7.22-.19a2.46 2.46 0 0 1 2.52 2.4l.17 7.74-12.41.14Z" style="fill:#0080c5" />
		</g>
		<path style="fill:#3a425f" d="m-479.09 580.36 1396.2 4.6-.37-19.06-1395.84-9.29.01 23.75z" />
	</g>
	<g id="uuid-b82d138e-1233-44e5-8569-40b40fd5a3ed">
		<path class="uuid-d24b888b-f103-4a61-ab60-42124b4bfcd6" d="M1141.12 147.37c-30.73 6.8-45.14 44.89-39.62 69.79 5.52 24.9 12.39 62.4 12.39 62.4 61.81 9.89 100.17-20.73 100.3-20.69.97.3 2.52-39.03-4.6-67.59-7.5-30.08-34.69-51.39-68.45-43.92v.02Z" />
		<path class="uuid-3485c0cb-1959-4bdd-8e69-a969cd85af57" d="m1163.04 617.61-72.49-2.35s-1.01 48-1.01 69.14 5.37 38.93 5.37 52.03 5.7 22.83 6.72 28.87c1.01 6.04 7.39 32.22 12.42 54.7 5.03 22.48 17.45 64.11 16.11 79.21-1.33 15.1-5.7 25.85-5.7 25.85l27.86 10.75 16.45-9.73s-1.07-14.14-2.05-31.21c-.63-10.92 5.82-76.5 2.13-102.01-3.7-25.51-14.18-39.65-18.87-52.06-4.7-12.42 13.09-123.18 13.09-123.18Z" />
		<path class="uuid-03fee581-c9e8-4a9d-ac1e-941057b92e4a" d="M1166.36 916.25s1.19 10-11.19 11.79c-8.8 1.26-13.81-9.3-17.39-13.58-3.57-4.29-7.39-6.67-10.24-6.31-2.28.29-17.27 17.02-25.96 24.17-8.99 7.38-20.73 12.14-26.2 14.18-5.47 2.03-7.26 3.81-9.05 6.31s-1.79 12.98-1.79 12.98 4.64 3.09 11.54 4.17c6.91 1.07 15.6.48 20.51.27 11.92-.5 17.87-3.6 39.23-6.95 21.35-3.35 38.27-4.38 38.27-4.38s.6-6.8-.12-15.85c-.42-5.22-.42-8.99-1.9-16.31-1.48-7.32-2.98-10.35-5.71-10.47Z" />
		<path class="uuid-096ac1bc-51bb-4333-a2bf-f59531c357c7" d="m1182.91 943.29.35 16.68s-105.62 18.1-106.1 18.1-16.43-10.84-16.43-10.84l6.43-20.01s2.26 2.02 5.6 3.69 15.36 3.93 30.25 1.9c14.89-2.03 38.83-5.84 48.83-7.15 10-1.32 31.08-2.39 31.08-2.39v.03Z" style="clip-path:url(#uuid-513cb1a2-f2dd-45a6-950f-c13df3c90b66)" />
		<path class="uuid-3485c0cb-1959-4bdd-8e69-a969cd85af57" d="m1243.54 628.61-58.92-.23s2.35 36.25 3.69 55.72c1.33 19.47 11.41 53.71 15.43 66.47 4.02 12.76 6.38 28.03 8.73 42.79 2.36 14.77 7.04 78.54 8.06 87.95 1.01 9.4.34 18.47-2.35 25.51-2.69 7.04-2.69 18.79-2.69 19.8s32.55 3.03 32.55 3.03-.54-22.9 2.28-32.66c4.33-14.95 15.68-47.27 15.6-80.33-.08-34.17-9.57-71.68-13.27-91.99-3.69-20.31-9.13-96.03-9.13-96.03l.02-.03Z" />
		<path class="uuid-03fee581-c9e8-4a9d-ac1e-941057b92e4a" d="M1225.59 909.96c-6.59-1.99-14.52 6.37-17.37 10.09-2.86 3.73-8.07 13.29-12.04 22.97-3.97 9.68-5.84 12.04-5.84 12.04s-1.74 1.24-2.73 3.1c-1 1.87-2.36 13.67-.63 14.53 1.73.87 25.08 2.73 35.62 1.87 10.55-.86 15.9-6.2 19.49-10.55s13.9-8.57 13.9-8.57-.38-14.78-2.98-25.45c-2.61-10.67-5.71-15.02-5.71-15.02l.25 2.48c.24 2.48.24 7.81-1.87 7.94s-13.9-13.55-20.11-15.43h.02Z" />
		<path class="uuid-096ac1bc-51bb-4333-a2bf-f59531c357c7" d="M1258.49 936.35s8.34 9.77 7.98 9.77-18.57 40.97-18.46 41.57c.13.6-64.66-3.21-64.66-3.21s-2.74-25.13-2.74-24.77 7.62-4.28 7.62-4.28 6.43 1.55 13.34 1.67 19.53-.13 26.79-1.07c7.26-.95 11.9-6.19 17.97-10.36 6.07-4.17 12.14-9.29 12.14-9.29h.02Z" style="clip-path:url(#uuid-6ac5968c-eb60-4c85-a745-fd5e0d13a40b)" />
		<path d="m1239.15 526.97-143-56.61s-23.07 73.72-21.65 95.81c2 31.1 9.43 188.86 9.43 188.86s35.73 13.88 84.89 16.86c49.15 2.98 112.87-12.44 112.87-12.44s-22.82-111.62-24.31-153.33-18.24-79.17-18.24-79.17v.02Z" style="fill:#2e425b" />
		<path class="uuid-46e549e5-b74c-45e7-9164-e0fbf2de34eb" d="M1163.32 271.23c-28.06 1.98-43.86 20.55-48.21 32.8-4.35 12.25 0 41.49 0 41.49l128.42-17.39s.78-30.82-1.98-41.1c-2.76-10.27-6.31-16.2-20.93-16.59s-57.3.79-57.3.79Z" />
		<path class="uuid-606ffa47-1215-460d-9dd4-f4824e14db92" d="m1188.48 236.36-50.28 7.68s5.05 24.72 6.81 29.18c2.64 6.7 8.31 13.76-5.13 24.04-13.43 10.27-23.32 13.79-23.32 13.79l-2.36 28.45 118.14 6.72-.79-57.69s-29.64-7.91-38.73-20.55c-9.09-12.64-4.34-31.61-4.34-31.61v-.03Z" />
		<g style="clip-path:url(#uuid-80c24861-2323-438b-bbb4-4f01b93bcbfe)">
			<path d="m1231.56 282.84 5.01 4.02-12.04 84.28-91.31 36.13-43.15-97.34 22.07-12.04s46.15 8.02 56.19 7.03c10.03-1 63.21-22.07 63.21-22.07Z" style="fill:#f8f8f0" />
		</g>
		<path class="uuid-46e549e5-b74c-45e7-9164-e0fbf2de34eb" d="M1264.96 298.25c-6.33-6.72-42.05-25.2-51.44-23.32-17.66 3.55-45.36 59.31-48.02 57.09-9.22-7.68-26.66-40.47-26.66-40.47s-36.43 15.78-47.49 30.01c-11.07 14.22-19.82 87.08-22.59 104.46-2.76 17.39-13.83 60.46-7.5 65.59s15.62 10.79 15.62 10.79l-13.64 67.05s27.66 10.28 79.03 20.15c51.36 9.88 121.87-4.45 121.87-4.45s-1.36-15.43-3.34-30.06-5.47-27.78-5.47-27.78 20.1-13.67 32.96-27.33c16.49-17.52 25.47-37.63 31-54.61 5.52-16.99-13.57-66.08-18.96-82.84-7.24-22.51-27.47-55.92-35.36-64.3Z" />
		<path class="uuid-606ffa47-1215-460d-9dd4-f4824e14db92" d="M1237.94 498.89s-3.73 1.96-6.61 3.04c-2.88 1.08-7.29 1.79-15.59.35s-29.85-1.07-29.85-1.07l7.21 45.43s9.73-2.17 17.66-4.69c7.93-2.53 20.2-9.73 23.44-13.71s12.98-6.49 12.98-6.49l-9.25-22.88ZM1083.88 481.9l-16.99 10.04s5.8 12.7 11.97 18.87 16.7 15.6 16.7 15.6l18.14-38.83s-14.15-2.91-19.96-3.99c-5.8-1.1-9.87-1.69-9.87-1.69Z" />
		<path class="uuid-46e549e5-b74c-45e7-9164-e0fbf2de34eb" d="m1202.71 464.36-84.17-7.11-36.35 66.78-3.55 23.71s29.64 10.28 69.55 18.18c39.91 7.91 80.61 1.58 80.61 1.58l-.79-16.2s-5.93-9.48-13.43-28.45-11.85-58.48-11.85-58.48h-.02Z" />
		<g>
			<path class="uuid-606ffa47-1215-460d-9dd4-f4824e14db92" d="M1179.87 272.94c7.07-7.65 11.22-8.7 17.45-22.9 5.27-12.01 3.98-22.49.52-34.08-1.97-6.6-6.2-7.77-6.2-7.77l-66.94 11.8s-.81 3.12-.21 10.71c1.06 13.31 2.54 20.91 12.64 31.03 4.53 4.53 13.89 12.18 23.43 15.65 4.04 1.47 15.03.18 19.3-4.43Z" />
			<g style="clip-path:url(#uuid-1cceadaf-b137-4a84-a462-f00954ea69fb)">
				<path class="uuid-d24b888b-f103-4a61-ab60-42124b4bfcd6" d="M1168.35 207.3s9.17-4.3 13.42-3.59c2.61.44 8.5.91 8.5.91l.64-3.49s-2.15-.61-9.11-2.44c-4.98-1.3-14.35 3.9-14.35 3.9-.39-.27.9 4.7.9 4.7ZM1147.69 203.75c.18-.44 2.13 4.46 2.13 4.46s-9.37 3.14-12.73 3.73c-2.94.51-8.61 7.19-8.61 7.19l-3.18-2.6s4.28-6.57 9.31-8.82c5.03-2.26 13.08-3.98 13.08-3.98v.02Z" />
			</g>
		</g>
		<path d="M1154.66 255.33c-.46-2.28 2.33-5.87 5.01-6.59 2.83-.76 3.27-.16 4.15-.27 1.33-.18 1.79-1.12 4.29-1.19 3.95-.12 6.9 2.83 7.24 4.8.65 3.81-3.46 9.12-8.89 10.19-5.6 1.1-11.06-3.25-11.8-6.93Z" style="fill:#ec6b37" />
		<path class="uuid-d24b888b-f103-4a61-ab60-42124b4bfcd6" d="M1180.1 211.83c-2-1.12-4.12 0-4.81 1.45-.96 2.03-.82 4.11 1.3 5.11 1.79.86 3.82.29 4.96-1.56 1.12-1.85.49-3.92-1.45-5.01Z" />
		<path class="uuid-d24b888b-f103-4a61-ab60-42124b4bfcd6" d="m1173.46 213.51 6.95-.8 7.38.94 1.41-3.85-3.67-1.73-12.44 2.4.37 3.04zM1140.37 219.92c1.34-1.85 3.76-1.73 4.98-.72 1.73 1.43 2.48 3.37.98 5.18-1.27 1.53-3.35 1.89-5.16.68s-2.1-3.35-.8-5.15Z" />
		<path class="uuid-d24b888b-f103-4a61-ab60-42124b4bfcd6" d="m1147.29 218.38-6.77 2.84-7.21 3.9-1.28-3.34 3.62-4.07 10.18-1.61 1.46 2.28z" />
	</g>
</svg>
