<?xml version="1.0" encoding="UTF-8"?>
<svg xmlns="http://www.w3.org/2000/svg" xmlns:xlink="http://www.w3.org/1999/xlink" viewBox="0 0 1920 1080">
	<defs>
		<style>
			.p{fill:none;}.q{fill:#f3e5d1;}.r{fill:#f8c4b7;}.s{fill:#f8f7f0;}.t{fill:#00a990;}.u{fill:#009250;}.v{fill:#0083c9;}.w{fill:#00101f;}.x{fill:#ed7925;}.y{fill:#f19eb0;}.a`{fill:#f0f2f4;}.aa{fill:#e6f1e2;}.ab{fill:#f6a500;}.ac{fill:#f5f2ed;}.ad{fill:#ef8227;}.ae{fill:#eed9bb;}.af{fill:#e2e6ea;}.ag{fill:#ffe01c;}.ah{fill:#ea683e;}.ai{fill:#ea6727;}.aj{fill:#fee608;}.ak{fill:#fbf8f6;}.al{fill:#80523e;}.am{fill:#bb974a;}.an{fill:#a5cedc;}.ao{fill:#d88b46;}.ap{fill:#db1f81;}.aq{fill:#cbe4e8;}.ar{fill:#d0e0e1;}.as{fill:#d0b681;}.at{fill:#d192bc;}.au{fill:#c4c7c9;}.av{fill:#e2a972;}.aw{fill:#444851;}.ax{fill:#35af91;}.ay{fill:#1c3628;}.b`{fill:#9b9599;}.ba{fill:#2e425b;}.bb{fill:#352e50;}.bc{fill:#272a3e;}.bd{fill:#5b3346;}.be{fill:#4a9055;}.bf{fill:#50892c;}.bg{clip-path:url(#c);}.bh{clip-path:url(#f);}.bi{clip-path:url(#e);}.bj{clip-path:url(#d);}.bk{clip-path:url(#n);}.bl{clip-path:url(#m);}.bm{clip-path:url(#l);}.bn{clip-path:url(#k);}.bo{clip-path:url(#j);}.bp{clip-path:url(#i);}.bq{clip-path:url(#h);}.br{clip-path:url(#g);}
		</style>
		<clipPath id="c">
			<rect width="1920" height="1080" style="fill:none;" />
		</clipPath>
		<clipPath id="d">
			<polygon points="1274.88 474.94 1277.48 874.48 1765.43 871.77 1765.43 479.67 1274.88 474.94" style="fill:none;" />
		</clipPath>
		<clipPath id="e">
			<path d="M1572.81,117.96l.46,187.46s6.18-.2,17.68-.2,22.49-.12,22.49-.12l-2.18-187.87s-11.53,1.09-19.58,1.09-18.86-.36-18.86-.36h-.01Z" style="fill:none;" />
		</clipPath>
		<clipPath id="f">
			<path d="M1715.82,118.96l.46,187.46s6.18-.2,17.68-.2,22.49-.12,22.49-.12l-2.18-187.87s-11.53,1.09-19.58,1.09-18.86-.36-18.86-.36h-.01Z" style="fill:none;" />
		</clipPath>
		<clipPath id="g">
			<path d="M1278.33,116.4l.46,187.46s6.18-.2,17.68-.2,22.49-.12,22.49-.12l-2.18-187.87s-11.53,1.09-19.58,1.09-18.86-.36-18.86-.36h-.01Z" style="fill:none;" />
		</clipPath>
		<clipPath id="h">
			<path d="M1435.26,126.51l-110.13,151.7s5.11,3.48,14.4,10.26,18.24,13.15,18.24,13.15l108.98-153.04s-9.96-5.92-16.46-10.66c-6.5-4.75-15.02-11.41-15.02-11.41h-.01Z" style="fill:none;" />
		</clipPath>
		<clipPath id="i">
			<path d="M1621.35,116.27l-6.5,187.35s7.88,2.64,19.37,3.06c11.49,.43,20.77-1.9,20.77-1.9l4.79-187.82s-11.61,.66-19.65,.36c-8.05-.3-18.79-1.06-18.79-1.06h.01Z" style="fill:none;" />
		</clipPath>
		<clipPath id="j">
			<path d="M1664.79,119.96l.58,187.46s7.3-.2,20.89-.2,26.57-.13,26.57-.13l-2.61-187.87s-13.63,1.09-23.14,1.09-22.29-.36-22.29-.36h0Z" style="fill:none;" />
		</clipPath>
		<clipPath id="k">
			<path d="M1522.17,115.93l.58,187.46s7.3-.2,20.89-.2,26.57-.13,26.57-.13l-2.61-187.87s-13.63,1.09-23.14,1.09-22.29-.36-22.29-.36h0Z" style="fill:none;" />
		</clipPath>
		<clipPath id="l">
			<path d="M1468.44,115.93l.58,187.46s7.3-.2,20.89-.2,26.57-.13,26.57-.13l-2.61-187.87s-13.63,1.09-23.14,1.09-22.29-.36-22.29-.36h0Z" style="fill:none;" />
		</clipPath>
		<clipPath id="m">
			<polygon points="1627.01 426.79 1759.81 426.24 1760.69 453.53 1626.02 452.65 1627.01 426.79" style="fill:none;" />
		</clipPath>
		<clipPath id="n">
			<polygon points="1532.69 422.67 1532.69 410.28 1621.82 409.1 1622.41 420.9 1532.69 422.67" style="fill:none;" />
		</clipPath>
	</defs>
	<g id="a">
		<g id="b">
			<g style="clip-path:url(#c);">
				<g>
					<rect x="-132.24" y="-178.23" width="2242.74" height="1501.21" style="fill:#d0e0e1;" />
					<g>
						<polygon points="409.27 -144.72 410.88 404.88 883.15 403.06 883.15 -150.18 409.27 -144.72" style="fill:#f8f7f0;" />
						<polygon points="436.95 -104.46 436.2 363.2 638.02 362.79 638 -100.94 436.95 -104.46" style="fill:#cbe4e8;" />
						<polygon points="655.58 -104.46 654.83 363.2 856.65 362.79 856.63 -100.94 655.58 -104.46" style="fill:#cbe4e8;" />
					</g>
					<rect x="-499.38" y="817.36" width="2991.09" height="952.85" style="fill:#a5cedc;" />
					<g>
						<polygon points="184.26 459.23 185.8 385.53 91.33 386.12 90.07 462.3 184.26 459.23" style="fill:#d192bc;" />
						<polygon points="192.07 472.24 192.71 408.89 86.81 407.96 95.82 461.94 192.07 472.24" style="fill:#fee608;" />
						<polygon points="182.24 459.48 167.96 370.16 82.82 383.6 94.02 471.99 182.24 459.48" style="fill:#fbf8f6;" />
						<polygon points="198.18 547.18 199.48 452.73 114.73 399.04 70.74 403.09 72.3 549.11 198.18 547.18" style="fill:#50892c;" />
					</g>
					<g>
						<polygon points="38.43 919.49 39.73 563.4 283 563.4 284.3 921.42 38.43 919.49" style="fill:#bb974a;" />
						<polygon points="276.39 586.25 188.16 592.46 139.58 592.86 47.11 585.7 46.74 649.73 276.76 651.96 276.39 586.25" style="fill:#eed9bb;" />
						<polygon points="276.01 657.53 183.22 664.76 134.65 665.16 47.86 655.86 48.61 716.55 276.76 716.55 276.01 657.53" style="fill:#eed9bb;" />
						<polygon points="276.76 721.56 184.06 730.56 135.49 730.96 48.24 721.56 47.49 778.36 277.14 778.36 276.76 721.56" style="fill:#eed9bb;" />
						<polygon points="276.01 788.98 181.4 796.26 132.83 796.66 47.49 786.76 47.86 875.85 277.14 877.52 276.01 788.98" style="fill:#eed9bb;" />
					</g>
					<g>
						<polygon points="531.67 919.49 532.97 563.4 776.23 563.4 777.54 921.42 531.67 919.49" style="fill:#bb974a;" />
						<polygon points="769.62 586.25 681.39 592.46 632.81 592.86 540.34 585.7 539.97 649.73 769.99 651.96 769.62 586.25" style="fill:#eed9bb;" />
						<polygon points="769.25 657.53 676.45 664.76 627.88 665.16 541.09 655.86 541.84 716.55 769.99 716.55 769.25 657.53" style="fill:#eed9bb;" />
						<polygon points="769.99 721.56 677.3 730.56 628.72 730.96 541.47 721.56 540.72 778.36 770.37 778.36 769.99 721.56" style="fill:#eed9bb;" />
						<polygon points="769.25 788.98 674.63 796.26 626.06 796.66 540.72 786.76 541.09 875.85 770.37 877.52 769.25 788.98" style="fill:#eed9bb;" />
					</g>
					<g>
						<polygon points="337.54 491.54 325.34 551.86 390.5 551.86 377.63 492.12 337.54 491.54" style="fill:#9b9599;" />
						<path d="M244.25,340.76c0,10.68-1.57,138.48-1.2,148.52,.31,8.57,4.68,10.83,11.42,11.12,17.48,.76,187.79,.76,202.6,.27,8.32-.27,12.36-1.9,12.36-10.8,0-15.36,1.01-143.85,.73-152.76-.3-9.75-5.6-11.39-16.37-11.39s-186.98-.88-195.72-.56c-8.48,.3-13.82,3.27-13.82,15.6h0Z" style="fill:#9b9599;" />
						<polygon points="253.49 334.82 252.7 487.85 461.83 487.72 461.81 335.96 253.49 334.82" style="fill:#f0f2f4;" />
					</g>
					<g>
						<polygon points="182.46 543.87 179.67 538.47 174.27 460.33 176.32 458.85 178.92 459.59 184.32 537.17 182.46 543.87" style="fill:#f8c4b7;" />
						<polygon points="201 540.87 197.08 535.42 178.58 450.96 180.57 449 183.54 449.4 201.95 533.25 201 540.87" style="fill:#db1f81;" />
						<polygon points="212.14 456.16 211.38 458.48 209.45 458.32 195.03 520.11 195.84 526.77 199.65 520.75 214.68 459.67 212.94 458.9 213.38 456.47 212.14 456.16" style="fill:#2e425b;" />
						<polygon points="170.62 491.99 174.94 546.76 213.69 546.2 217.71 492.62 170.62 491.99" style="fill:#f6a500;" />
					</g>
					<polygon points="-93.08 544.78 -92.5 568.49 832.02 570.84 831.44 545.57 -93.08 544.78" style="fill:#bb974a;" />
					<g>
						<g>
							<polygon points="1242.06 53.54 1247.81 974.58 1795.05 972.69 1795.05 53.54 1242.06 53.54" style="fill:#bb974a;" />
							<g>
								<polygon points="1274.88 474.94 1277.48 874.48 1765.43 871.77 1765.43 479.67 1274.88 474.94" style="fill:#d0b681;" />
								<g style="clip-path:url(#d);">
									<g>
										<polygon points="1239.83 835.69 1829.18 836.72 1830.84 859.65 1219.29 859.65 1239.83 835.69" style="fill:#f3e5d1;" />
										<polygon points="1237.91 865.43 1827.26 866.47 1828.92 889.39 1217.37 889.39 1237.91 865.43" style="fill:#f3e5d1;" />
										<polygon points="1243.25 806.02 1833.12 808.31 1834.26 829.98 1222.71 829.98 1243.25 806.02" style="fill:#f3e5d1;" />
										<polygon points="1242.71 776.21 1832.06 777.24 1833.72 800.17 1222.17 800.17 1242.71 776.21" style="fill:#f3e5d1;" />
										<polygon points="1246.13 746.54 1836 748.82 1837.14 770.5 1225.59 770.5 1246.13 746.54" style="fill:#f3e5d1;" />
										<polygon points="1242.71 717.68 1832.06 718.72 1833.72 741.64 1222.17 741.64 1242.71 717.68" style="fill:#f3e5d1;" />
										<polygon points="1246.13 688.02 1836 690.3 1837.14 711.98 1225.59 711.98 1246.13 688.02" style="fill:#f3e5d1;" />
										<polygon points="1234.07 658.2 1823.42 659.23 1825.08 682.16 1213.53 682.16 1234.07 658.2" style="fill:#f3e5d1;" />
										<polygon points="1237.49 628.53 1827.36 630.81 1828.51 652.49 1216.96 652.49 1237.49 628.53" style="fill:#f3e5d1;" />
										<polygon points="1232.15 598.71 1821.5 599.75 1823.16 622.67 1211.61 622.67 1232.15 598.71" style="fill:#f3e5d1;" />
										<polygon points="1235.57 569.05 1825.45 571.33 1826.59 593.01 1215.04 593.01 1235.57 569.05" style="fill:#f3e5d1;" />
										<polygon points="1233.11 540.19 1822.46 541.22 1824.12 564.15 1212.57 564.15 1233.11 540.19" style="fill:#f3e5d1;" />
										<polygon points="1236.53 510.52 1826.4 512.81 1827.55 534.48 1216 534.48 1236.53 510.52" style="fill:#f3e5d1;" />
										<polygon points="1240.37 482.7 1830.24 484.98 1831.38 506.66 1219.83 506.66 1240.37 482.7" style="fill:#f3e5d1;" />
									</g>
								</g>
							</g>
							<polygon points="1272.67 79.02 1271.29 305.11 1768.12 307.8 1765.43 82.21 1272.67 79.02" style="fill:#80523e;" />
							<polygon points="1272.67 324.53 1272.67 453.92 1767.01 458.35 1769.23 325.64 1272.67 324.53" style="fill:#80523e;" />
							<path d="M1527.4,497.01c-6.77-.95-10.39,2.41-11.39,6.78-1.04,4.59,.43,10.23,6.78,11.77,6.46,1.56,12.34-2.61,12.74-7.46,.37-4.63-1.36-10.14-8.13-11.09Z" style="fill:#444851;" />
						</g>
						<g>
							<path d="M1572.81,117.96l.46,187.46s6.18-.2,17.68-.2,22.49-.12,22.49-.12l-2.18-187.87s-11.53,1.09-19.58,1.09-18.86-.36-18.86-.36h-.01Z" style="fill:#ea683e;" />
							<g style="clip-path:url(#e);">
								<path d="M1568.45,176.71s13.17,.62,21.91,.62c11.18,0,24.52-2.07,24.52-2.07l2.18,49.32s-15.96,2.9-26.11,2.9-23.21-1.45-23.21-1.45l.73-49.32h-.02Z" style="fill:#f5f2ed;" />
							</g>
						</g>
						<g>
							<path d="M1715.82,118.96l.46,187.46s6.18-.2,17.68-.2,22.49-.12,22.49-.12l-2.18-187.87s-11.53,1.09-19.58,1.09-18.86-.36-18.86-.36h-.01Z" style="fill:#009250;" />
							<g style="clip-path:url(#f);">
								<path d="M1711.46,177.71s13.06,.73,21.76,1.45c9.42,.79,24.66-2.9,24.66-2.9l2.18,49.32s-15.96,2.9-26.11,2.9-23.21-1.45-23.21-1.45l.73-49.32h-.01Z" style="fill:#f5f2ed;" />
							</g>
						</g>
						<g>
							<path d="M1278.33,116.4l.46,187.46s6.18-.2,17.68-.2,22.49-.12,22.49-.12l-2.18-187.87s-11.53,1.09-19.58,1.09-18.86-.36-18.86-.36h-.01Z" style="fill:#ffe01c;" />
							<g style="clip-path:url(#g);">
								<path d="M1273.98,175.15s13.06,.73,21.76,1.45c9.42,.79,24.66-2.9,24.66-2.9l2.18,49.32s-15.96,2.9-26.11,2.9-23.21-1.45-23.21-1.45l.73-49.32h-.01Z" style="fill:#f5f2ed;" />
							</g>
						</g>
						<g>
							<path d="M1435.26,126.51l-110.13,151.7s5.11,3.48,14.4,10.26,18.24,13.15,18.24,13.15l108.98-153.04s-9.96-5.92-16.46-10.66c-6.5-4.75-15.02-11.41-15.02-11.41h-.01Z" style="fill:#00a990;" />
							<g style="clip-path:url(#h);">
								<path d="M1397.11,171.41s10.12,8.28,16.72,14c7.15,6.19,21.63,12.19,21.63,12.19l-27.31,41.13s-14.6-7.06-22.8-13.05c-8.2-5.99-17.9-14.85-17.9-14.85l29.66-39.42h0Z" style="fill:#f5f2ed;" />
							</g>
						</g>
						<g>
							<path d="M1621.35,116.27l-6.5,187.35s7.88,2.64,19.37,3.06c11.49,.43,20.77-1.9,20.77-1.9l4.79-187.82s-11.61,.66-19.65,.36c-8.05-.3-18.79-1.06-18.79-1.06h.01Z" style="fill:#c4c7c9;" />
							<g style="clip-path:url(#i);">
								<path d="M1614.82,174.82s13.58-.14,22.25,.91c9.39,1.13,24.19-.64,24.19-.64l.35,49.37s-16.05,2.31-26.2,1.93c-10.15-.38-23.14-2.31-23.14-2.31l2.55-49.26Z" style="fill:#fbf8f6;" />
							</g>
						</g>
						<g>
							<path d="M1664.79,119.96l.58,187.46s7.3-.2,20.89-.2,26.57-.13,26.57-.13l-2.61-187.87s-13.63,1.09-23.14,1.09-22.29-.36-22.29-.36h0Z" style="fill:#352e50;" />
							<g style="clip-path:url(#j);">
								<path d="M1659.66,178.72s15.43,.72,25.72,1.45c11.14,.78,29.14-2.91,29.14-2.91l2.58,49.32s-18.86,2.91-30.86,2.91-27.43-1.45-27.43-1.45l.85-49.32h0Z" style="fill:#f8f7f0;" />
							</g>
						</g>
						<g>
							<path d="M1522.17,115.93l.58,187.46s7.3-.2,20.89-.2,26.57-.13,26.57-.13l-2.61-187.87s-13.63,1.09-23.14,1.09-22.29-.36-22.29-.36h0Z" style="fill:#352e50;" />
							<g style="clip-path:url(#k);">
								<path d="M1517.04,174.68s15.43,.72,25.72,1.45c11.14,.78,29.14-2.91,29.14-2.91l2.58,49.32s-18.86,2.91-30.86,2.91-27.43-1.45-27.43-1.45l.85-49.32h0Z" style="fill:#f8f7f0;" />
							</g>
						</g>
						<g>
							<path d="M1468.44,115.93l.58,187.46s7.3-.2,20.89-.2,26.57-.13,26.57-.13l-2.61-187.87s-13.63,1.09-23.14,1.09-22.29-.36-22.29-.36h0Z" style="fill:#352e50;" />
							<g style="clip-path:url(#l);">
								<path d="M1463.31,174.68s15.43,.72,25.72,1.45c11.14,.78,29.14-2.91,29.14-2.91l2.58,49.32s-18.86,2.91-30.86,2.91-27.43-1.45-27.43-1.45l.85-49.32h0Z" style="fill:#f8f7f0;" />
							</g>
						</g>
						<g>
							<polygon points="1627.01 426.79 1759.81 426.24 1760.69 453.53 1626.02 452.65 1627.01 426.79" style="fill:#0083c9;" />
							<g style="clip-path:url(#m);">
								<polygon points="1666.45 460.9 1664.8 421.29 1706.88 421.29 1705.23 460.07 1666.45 460.9" style="fill:#35af91;" />
							</g>
						</g>
						<g>
							<polygon points="1628.8 385.77 1758.32 386.32 1759.81 422.82 1629.04 424.07 1628.8 385.77" style="fill:#f19eb0;" />
							<polygon points="1659.63 413.95 1727.1 414.78 1727.78 396 1659.63 394.87 1659.63 413.95" style="fill:#ea6727;" />
						</g>
						<polygon points="1531.54 452.27 1621.47 451.14 1621.47 424.43 1531.71 426.59 1531.54 452.27" style="fill:#4a9055;" />
						<g>
							<polygon points="1532.69 422.67 1532.69 410.28 1621.82 409.1 1622.41 420.9 1532.69 422.67" style="fill:#ed7925;" />
							<g style="clip-path:url(#n);">
								<polygon points="1569.19 422.66 1568.94 405.26 1610.95 404.26 1611.2 422.91 1569.19 422.66" style="fill:#ffe01c;" />
							</g>
						</g>
						<polygon points="1550.63 447.01 1595.86 446.2 1595.47 431.12 1550.32 432 1550.63 447.01" style="fill:#e2e6ea;" />
					</g>
				</g>
			</g>
		</g>
	</g>
	<g id="o">
		<path d="M934.54,909.66l-2.13,42.94s-5.68,1.06-4.61,5.68c1.06,4.61-3.19,14.55-7.1,17.04-3.9,2.48-38.33,.71-43.3-1.77-4.97-2.48-.71-11.71-.35-16.33,.35-4.61,4.26-9.23,7.45-18.1s7.81-19.16,8.87-24.84c1.06-5.68-7.86-23-7.86-23l49.03,18.38h0Z" style="fill:#00101f;" />
		<path d="M1032.06,895.36l-2.48,52.53s17.75,3.9,22,10.29,13.13,14.55,17.39,15.62c4.26,1.06,39.04,.71,39.75-2.48s1.77-17.39-3.55-22c-5.32-4.61-17.04-12.07-20.58-21.29-3.55-9.23-9.17-29.06-9.17-29.06l-43.36-3.59v-.02Z" style="fill:#00101f;" />
		<path d="M884.59,485.1s-4.29,21.11-9.53,82.25c-5.65,65.93-.65,107.2-2.23,143.25s5.02,107.37,6.6,141.92,2.17,66.71,2.17,66.71c0,0,12.59,9.89,31.57,8.39s27.9-4.49,27.9-4.49c0,0,6.22-163.15,7.8-187.19,1.58-24.04,18.23-115.1,20.46-115.05,5.7,.14,38.18,121.5,38.18,139.52s20.39,154.91,20.39,154.91c0,0,24.48,6.52,35.62,7.38,14.19,1.1,22.4-7.11,22.4-7.11,0,0,.72-124.29-2.03-169.68-3.24-53.36-22.87-136.32-30.33-187.79s-13.43-96.97-13.43-96.97l-155.55,23.92v.03Z" style="fill:#5b3346;" />
		<path d="M945.26,254.86c-5,5-11.67,15.1-24.02,21.62-12.36,6.52-52.5,28.83-54.57,51.89-5.92,65.8,7.47,139.08,6.79,154.19-.69,15.1-4.72,38.39-5.4,52.12-.69,13.73-2.27,34.54-2.27,34.54,0,0,77.99,23.31,114.71,19.19s92.64-20.34,92.64-20.34c0,0-9.95-81.95-9.27-113.52,.69-31.57-8.44-83.34-13.93-113.54-5.49-30.2,7.02-38.42-2.93-44.94-9.95-6.52-38.94-20.27-45.81-23.36-6.86-3.09-54.23-19.56-55.94-17.85h0Z" style="fill:#2e425b;" />
		<path d="M978.51,325.42c.26,.55,4.07,107.55,4.07,107.55l2.27,.5s1.19-25.37,3.11-53.65c1.26-18.57,8.59-70.11,7.13-80.25-2.56-17.77-1.21-35-1.88-34.74-.67,.27-41.47-17.17-42.54-17.17s-10.91,1.08-10.37,7.94c.54,6.87,35.65,64.35,38.21,69.8v.02Z" style="fill:#e6f1e2;" />
		<path d="M932.4,413.92c-4.05,3.04-16.63,14.64-16.63,14.64,0,0,.67,3.55,3.1,3.55s7.54-2.44,7.54-2.44l-3.77,5.54s4.44,3.33,7.32,1.55c2.88-1.77,5.54-3.55,5.54-3.55l-3.77,5.99s2.44,2.66,6.21,.22,15.08-11.75,17.08-10.42,14.86,11.75,22.84,13.31c7.98,1.55,34.15-2.88,34.15-2.88l-7.54-22.18s-16.19,6.21-23.06,2.22c-6.87-3.99-19.07-10.2-26.61-11.53s-17.96,2.66-22.4,5.99h0Z" style="fill:#e2a972;" />
		<path d="M984.52,419.86s2.67,5.9,3.86,13c1.18,7.1,2.75,18.69,2.75,18.69,0,0,76.43-7.23,89.14-14.33,12.71-7.1,12.5-17.21,10.73-28.45-1.77-11.24-8.61-18.97-37-15.71-28.39,3.25-36.78,15.92-47.72,18.88s-21.76,7.91-21.76,7.91h0Z" style="fill:#2e425b;" />
		<path d="M1047.01,296.06c17.25,16.14,36.69,92.08,42.22,105.9,5.53,13.82-9.13,22.17-9.13,22.17l-47.76,12.76-13.82-131.78,28.5-9.05h-.01Z" style="fill:#2e425b;" />
		<path d="M945.24,230.56s1.42,13.35-.4,19.01c-1.82,5.66,.73,8.29,.73,8.29-1.03-.22,17.58,19.34,26.89,20.58,7.8,1.04,21.94-13.34,21.94-13.34,0,0-.18-1.23,.83-9.73,1.01-8.49,6.03-22.59,6.03-22.59l-56.01-2.22h0Z" style="fill:#e2a972;" />
		<g>
			<path d="M980.43,149.91c-12.62-1.11-17.01,4.12-23.81,8.24-6.8,4.11-15.35,5.31-17.44,22.09-2.1,16.78-1.67,33.35-1.67,33.35l72.38,3.5s3.95-8.26,2.9-27.14c-1.05-18.88-8.4-37.94-32.35-40.04h-.01Z" style="fill:#c4c7c9;" />
			<path d="M980.23,154.56c-10.46-.85-21.74,3.71-29.33,10.79-5.87,5.47-2.21,21.5-2.38,26.74s-4.55,14.86-4.55,14.86c0,0-5.94-11.36-11.01-8.22-5.07,3.15-.7,27.97,4.02,29.37s4.44,1.6,4.44,1.6c0,0,.5,13.41,6.44,20.75s21.99,14.89,28.63,14.19,23.13-9.3,25.75-14.54c2.62-5.24,3.04-16.99,3.04-16.99,0,0,4.7,1.17,7.5-4.25s4.62-21.2,2.35-23.47-6.63,1.07-6.63,1.07c0,0,4.02-21.85,1.05-29.37-2.97-7.52-20.75-21.82-29.32-22.52h0Z" style="fill:#e2a972;" />
			<g>
				<path d="M967.88,205.78c-1.75,.6-2.57,2.21-1.92,3.9,.66,1.69,2.01,2,3.61,1.56,1.89-.52,2.57-2.01,2.07-3.81-.35-1.28-1.96-2.27-3.76-1.65h0Z" style="fill:#272a3e;" />
				<polygon points="962.33 206.87 972.75 207.83 973.19 204.95 963.2 202.35 962.33 206.87" style="fill:#272a3e;" />
			</g>
			<g>
				<path d="M993.93,206.82c1.75,.6,2.57,2.21,1.92,3.9-.66,1.69-2.01,2-3.61,1.56-1.89-.52-2.57-2.01-2.07-3.81,.35-1.28,1.96-2.27,3.76-1.65h0Z" style="fill:#272a3e;" />
				<polygon points="998.8 208.47 988.88 208.83 988.55 206.28 998.51 204.1 998.8 208.47" style="fill:#272a3e;" />
			</g>
			<path d="M978.67,196.65s-5.35-4.21-11.25-4.35-11.28,5.14-11.28,5.14l1.18,1.61s3.36-.28,9.02-.32c4.64-.04,10.45,2.67,10.45,2.67l1.87-4.75h.01Z" style="fill:#c4c7c9;" />
			<path d="M986.49,197.44l1.75,5.66s4.77-2.73,8.94-1.43c4.18,1.3,6.76,.73,6.76,.73l1.62-2.45s-4.53-3.95-10.72-3.8c-6.19,.14-8.35,1.3-8.35,1.3h0Z" style="fill:#c4c7c9;" />
			<g>
				<polygon points="969.91 211.67 961.08 222.67 964.42 223.86 973.88 215.19 969.91 211.67" style="fill:#d88b46;" />
				<polygon points="989 215.72 996.84 225.29 1000.49 223.38 993.53 212.94 989 215.72" style="fill:#d88b46;" />
				<polygon points="965.46 240.33 967.32 250.59 963.98 251.19 961.56 240.19 965.46 240.33" style="fill:#d88b46;" />
				<polygon points="995.03 240.7 991.63 239.4 988.47 248.83 990.97 249.55 995.03 240.7" style="fill:#d88b46;" />
			</g>
			<path d="M1013.59,206.47s-2.68-.07-4.83-1.18c-1.68-.87-2.37-3.7-8.4-5.06-6.04-1.35-11.31,1.12-13.11,2.02-1.07,.53-6.99,.59-8.76-.71-1.74-1.27-4.65-4.97-11.42-4.9-8.12,.08-9.88,1.99-13.27,2.38-2.05,.24-7.22-1.92-7.22-1.92l-1,2.49s7.77,2.93,7.77,5.42,.73,12.31,11.33,13.54c6.88,.8,10.53-1.49,13.4-5.58,2-2.86,1.84-6.48,2.58-7.17,.47-.44,3.45-.37,3.87,.29,.52,.82-.64,4.12,.72,7.52,1.69,4.24,4.32,7.4,11.46,8.02,9.7,.85,12.41-7.48,13.63-9.65,1.18-2.11,3.26-2.57,3.26-2.57v-2.94Zm-41.06,8.4c-4.02,2.35-10.9,1.47-13.59-1.81-2.7-3.28-3.69-7.29-1.71-10.08,2.31-3.25,6.75-3.94,11.21-3.49,5.22,.54,8.19,3.88,8.68,6.77s-.56,6.26-4.58,8.61h-.01Zm31.26,2.63c-3.04,2.68-10.67,2.1-13.81-1.01-3.13-3.11-3.42-6.62-2.43-9.35,.99-2.73,4.26-4.95,9.05-4.89,4.64,.06,8.84,1.92,10.27,5.57,1.23,3.13-.04,7-3.08,9.67h0Z" style="fill:#1c3628;" />
			<path d="M967.22,243.25c1.12,2.06,5.55,2.27,8.87,2.03s5.39-1.87,8.45-2.52c1.17-.25,5.17,.88,5.82-.82,1.07-2.8-8.02-5.85-14.65-5.36-6.64,.49-9.86,4.18-8.49,6.68h0Z" style="fill:#ef8227;" />
		</g>
		<path d="M973.85,247.04l-14.82,4.1s-.46,17.56,.23,22.34c.68,4.79,10.94,21.89,11.17,25.76s-2.05,16.87-2.05,16.87l25.08,5.93s-.23-11.17,1.6-14.14c1.82-2.96,3.19-4.33,3.42-10.26,.23-5.93-3.88-21.66-3.88-21.66,0,0,1.35,2.61,3.67,2.61s3.81-.66,3.81-.66c0,0-.83-3.15-.99-6.8-.17-3.65-.5-7.13-.5-7.13,0,0-3.81-5.64-6.13-7.62-2.32-1.99-7.29-.66-9.45-1.99-2.15-1.33-5.74-6.78-11.16-7.37v.02Z" style="fill:#e2a972;" />
		<path d="M979.3,313.21c-7.8,0-15.48-1.72-15.48-1.72,0,0-26.49,61.69-31.65,70.86s-10.32,34.39,5.16,43.56c15.48,9.17,25.32,16.39,42.52-12.84,17.2-29.23,14.23-53.08,18.24-69.7s4.13-22.13,4.13-22.13c0,0-10.89-8.02-22.93-8.02h.01Z" style="fill:#2e425b;" />
		<polygon points="974.18 600.57 983.85 530.03 986.12 530.53 999.13 600.66 974.18 600.57" style="fill:#5b3346;" />
	</g>
</svg>
