<?xml version="1.0" encoding="UTF-8"?>
<svg xmlns="http://www.w3.org/2000/svg" xmlns:xlink="http://www.w3.org/1999/xlink" viewBox="0 0 1920 1080">
	<defs>
		<style>
			.m{fill:none;}.n{fill:#f3eacb;}.o{fill:#f4d5b5;}.p{fill:#f3faf9;}.q{fill:#f6dec5;}.r{fill:#f2f3f4;}.s{fill:#009250;}.t{fill:#008f33;}.u{fill:#009634;}.v{fill:#ed774c;}.w{fill:#f19eb0;}.x{fill:#f5d0c4;}.y{fill:#eb6a36;}.a`{fill:#eaba00;}.aa{fill:#f6d5dc;}.ab{fill:#f6a500;}.ac{fill:#e8d797;}.ad{fill:#fdd900;}.ae{fill:#ef821b;}.af{fill:#ef8227;}.ag{fill:#ffdb00;}.ah{fill:#ea6727;}.ai{fill:#ea6343;}.aj{fill:#f2c900;}.ak{fill:#f1f1f3;}.al{fill:#e6a561;}.am{fill:#e85127;}.an{fill:#e8523b;}.ao{fill:#f0cb00;}.ap{fill:#6b562a;}.aq{fill:#998abc;}.ar{fill:#6b5738;}.as{fill:#00a39a;}.at{fill:#cebac3;}.au{fill:#cbded5;}.av{fill:#d297bf;}.aw{fill:#dfbe84;}.ax{fill:#c3e3e8;}.ay{fill:#dbd2d5;}.b`{fill:#e1e5ea;}.ba{fill:#a93985;}.bb{fill:#428a3d;}.bc{fill:#555849;}.bd{fill:#2a6196;}.be{fill:#62ac6d;}.bf{fill:#4a4025;}.bg{fill:#284f4f;}.bh{fill:#3b9bd2;}.bi{fill:#754734;}.bj{fill:#4a9055;}.bk{clip-path:url(#c);}.bl{clip-path:url(#f);}.bm{clip-path:url(#e);}.bn{clip-path:url(#d);}.bo{clip-path:url(#l);}.bp{clip-path:url(#k);}.bq{clip-path:url(#i);}.br{clip-path:url(#h);}.bs{clip-path:url(#g);}
		</style>
		<clipPath id="c">
			<rect width="1920" height="1080" style="fill:none;" />
		</clipPath>
		<clipPath id="d">
			<polygon points="1509.34 85.66 1509.55 101.8 1602.17 101.14 1602.46 85.82 1509.34 85.66" style="fill:none;" />
		</clipPath>
		<clipPath id="e">
			<polygon points="1504.17 99.64 1503.78 124.76 1615.7 124.94 1615.02 99.71 1504.17 99.64" style="fill:none;" />
		</clipPath>
		<clipPath id="f">
			<polygon points="1248.76 133.49 1252.1 911.06 1715.97 914.4 1713.74 137.51 1248.76 133.49" style="fill:none;" />
		</clipPath>
		<clipPath id="g">
			<polygon points="1569.28 186.39 1572.75 331.78 1663.86 331.78 1659.09 184.15 1569.28 186.39" style="fill:none;" />
		</clipPath>
		<clipPath id="h">
			<path d="M1338.67,214.78c-15.48,4.44-24.78,23.1-19.75,37.96,5.41,15.98,22.27,22.74,38.01,18.3,13.24-3.74,25.02-16.74,21.94-32.63-3.47-17.91-17.52-30.15-40.2-23.63" style="fill:none;" />
		</clipPath>
		<clipPath id="i">
			<polygon points="1298.6 453.56 1308.11 568.57 1394.31 561.16 1383.5 447.96 1298.6 453.56" style="fill:none;" />
		</clipPath>
		<clipPath id="k">
			<path d="M920.09,242.63c-29.66,5.94-22,24.83-45.74,45.78s-30.49,74.73-1.17,99.87c29.33,25.14,41.02,15.95,75.93,11.76s80.06-15.92,80.28-53.73c.32-53.68-36.68-60.39-47.85-79.94-11.17-19.55-27.33-30.57-61.45-23.74h0Z" style="fill:none;" />
		</clipPath>
		<clipPath id="l">
			<path d="M985.58,370.99s-3.56,9.58-26.9,15.53c-21.43,5.47-38.54-9.16-38.54-9.16l-32.7,10.62s3.98,23.07,9.91,50.86c7.36,34.45,18.94,61.27,16.85,70.73-3.78,17.08-28.11,68.35-33.66,108-11.73,83.87-11.74,161.45-11.74,161.45,0,0,39.9,21.69,110.95,18.03,70.94-3.65,97.69-21.62,97.69-21.62,0,0-.38-85.82-21.11-173.65-10.16-43.05-49.51-90.3-44.25-116.73,2-10.02,5.16-24.87,2.22-60.45-3.2-38.66-7.82-52.36-7.82-52.36l-20.91-1.24h.01Z" style="fill:none;" />
		</clipPath>
	</defs>
	<g id="a">
		<g id="b">
			<g style="clip-path:url(#c);">
				<g>
					<rect x="-174.89" y="-110.49" width="2231.29" height="1317.94" style="fill:#cbded5;" />
					<polygon points="-204.08 843.8 2139.28 850.24 2139.31 1319.13 -190.15 1337.3 -204.08 843.8" style="fill:#f2f3f4;" />
					<g>
						<g>
							<path d="M1057.06,47.1c-50.41-.78-78.71,33.47-79.97,74.25-1.33,43.07,33.99,78.03,79.6,78.03s78.8-37.53,77.61-78.35c-1.11-37.88-29.42-73.19-77.24-73.93Z" style="fill:#ffdb00;" />
							<path d="M1056.88,56.91c-43.91-.68-68.57,29.16-69.67,64.68-1.16,37.52,29.61,67.97,69.34,67.97s68.65-32.69,67.61-68.25c-.96-33-25.63-63.76-67.29-64.4h.01Z" style="fill:#eaba00;" />
						</g>
						<g>
							<path d="M1054.67,137.65c-.89,.1-1.63-.55-1.65-1.44,0,0-1.84-66.83-1.74-67.91,.14-1.6,.22-2.75,1.84-3.08,1.64-.33,2.54,.62,2.68,2.18s6.24,68.22,6.24,68.22c.07,.89-.59,1.7-1.48,1.8l-5.88,.23h-.01Z" style="fill:#4a4025;" />
							<path d="M1014.15,113.78c-.16,.88,.42,1.78,1.29,2l50.45,13.14c.86,.22,1.67-.32,1.78-1.2l1.89-6.31c.12-.89-.51-1.71-1.4-1.84l-40.43-5.26c-.88-.13-7.72-1.11-10.57-1.46-2.85-.35-3.02,.93-3.02,.93h.01Z" style="fill:#4a4025;" />
						</g>
					</g>
					<g>
						<polygon points="138.1 201.64 143.13 652.3 744.04 651.49 742.84 197.55 138.1 201.64" style="fill:#cebac3;" />
						<polygon points="149.61 213.37 154.44 638.85 733.51 637.73 728.65 213.37 149.61 213.37" style="fill:#f1f1f3;" />
						<path d="M287.89,406.57c4.51-.62,12.21,1.77,12.4,9.18,.19,7.42-5.37,10.74-9.17,10.86-5.35,.18-10.53-2.63-11.5-8.76-.84-5.32,2.77-10.52,8.27-11.29" style="fill:#008f33;" />
						<path d="M214.88,461.01c4.51-.62,12.21,1.77,12.4,9.18,.19,7.42-5.37,10.74-9.17,10.86-5.35,.18-10.53-2.63-11.5-8.76-.84-5.32,2.77-10.52,8.27-11.29" style="fill:#3b9bd2;" />
						<polygon points="175.54 505.89 248.58 497.78 256.7 589.5 184.67 602.69 175.54 505.89" style="fill:#dbd2d5;" />
						<polygon points="189.9 311.83 263.26 316.18 264.5 411.91 191.27 412.73 189.9 311.83" style="fill:#e1e5ea;" />
						<path d="M208.15,493.93c4.51-.62,12.21,1.77,12.4,9.18,.19,7.42-5.37,10.74-9.17,10.86-5.35,.18-10.53-2.63-11.5-8.76-.84-5.32,2.77-10.52,8.27-11.29" style="fill:#fdd900;" />
						<path d="M221.86,325.1c4.51-.62,12.21,1.77,12.4,9.18,.19,7.42-5.37,10.74-9.17,10.86-5.35,.18-10.53-2.63-11.5-8.76-.84-5.32,2.77-10.52,8.27-11.29" style="fill:#ea6727;" />
					</g>
					<g>
						<g>
							<polygon points="1062.81 302.94 1062.81 306.36 1062.95 454.2 1062.95 457.59 1066.34 457.61 1200.39 458.16 1203.79 458.17 1203.81 454.77 1204.92 303.11 1066.23 302.95 1062.81 302.94 1062.81 302.94" style="fill:#4a9055;" />
							<polygon points="1069.78 450.92 1197.57 451.59 1198.08 309.57 1069.64 308.87 1069.78 450.92" style="fill:#f1f1f3;" />
						</g>
						<polygon points="1084.23 321.36 1121.88 320.4 1120.28 326.49 1082.62 327.44 1084.23 321.36" style="fill:#dbd2d5;" />
						<polygon points="1083.57 336.02 1121.23 335.07 1120.75 342.22 1083.1 343.17 1083.57 336.02" style="fill:#dbd2d5;" />
						<polygon points="1084.05 352.23 1121.71 351.27 1121.23 358.42 1083.57 359.38 1084.05 352.23" style="fill:#dbd2d5;" />
						<polygon points="1087.69 414.33 1125.35 413.37 1124.8 420.73 1087.14 421.69 1087.69 414.33" style="fill:#dbd2d5;" />
						<polygon points="1087.69 398.85 1125.35 397.9 1124.8 405.26 1087.14 406.22 1087.69 398.85" style="fill:#dbd2d5;" />
						<polygon points="1149.35 367 1187.01 366.05 1186.53 373.2 1148.87 374.15 1149.35 367" style="fill:#dbd2d5;" />
						<polygon points="1148.4 384.64 1186.05 383.69 1184.44 391.43 1146.79 392.38 1148.4 384.64" style="fill:#dbd2d5;" />
					</g>
					<g>
						<polygon points="1509.34 85.66 1509.55 101.8 1602.17 101.14 1602.46 85.82 1509.34 85.66" style="fill:#ed774c;" />
						<g style="clip-path:url(#d);">
							<polygon points="1519.31 82.36 1519.53 106.32 1532.38 106.54 1532.17 81.05 1519.31 82.36" style="fill:#f6a500;" />
						</g>
					</g>
					<g>
						<polygon points="1347.35 104.93 1348.21 58.83 1453.4 58.37 1453.1 104.39 1347.35 104.93" style="fill:#f19eb0;" />
						<polygon points="1342.25 49.88 1341.98 69.27 1460.2 69.01 1459.66 49.74 1342.25 49.88" style="fill:#f19eb0;" />
						<polygon points="1387.9 77.95 1388.4 87.28 1416.32 87.15 1415.83 77.82 1387.9 77.95" style="fill:#e8523b;" />
					</g>
					<g>
						<polygon points="1504.17 99.64 1503.78 124.76 1615.7 124.94 1615.02 99.71 1504.17 99.64" style="fill:#998abc;" />
						<g style="clip-path:url(#e);">
							<polygon points="1533.89 95.55 1534.55 130.29 1572.37 130.97 1573.05 95.2 1533.89 95.55" style="fill:#a93985;" />
						</g>
					</g>
					<polygon points="1339.97 102.67 1339.29 123.03 1487.59 123.95 1487.22 103.16 1339.97 102.67" style="fill:#009250;" />
					<g>
						<g>
							<polygon points="1239.9 121.93 1242.43 944.29 1726.87 947.78 1725.5 126.14 1239.9 121.93" style="fill:#f4d5b5;" />
							<g>
								<polygon points="1248.76 133.49 1252.1 911.06 1715.97 914.4 1713.74 137.51 1248.76 133.49" style="fill:#e6a561;" />
								<g style="clip-path:url(#f);">
									<polygon points="1490.45 119.62 1489.07 935.63 1497.2 935.63 1496.64 116.84 1490.45 119.62" style="fill:#f4d5b5;" />
								</g>
							</g>
							<g>
								<polygon points="1508.37 540.57 1508.37 570.03 1530.64 570.03 1528.81 540.44 1508.37 540.57" style="fill:#f6dec5;" />
								<path d="M1513.31,545.76s.47,8.21,.47,18.52,.17,17.96,.17,17.96l6.62,.23s4.34-11.67,4.61-19.27c.27-7.6-1.4-17.44-1.4-17.44h-10.47Z" style="fill:#555849;" />
							</g>
							<g>
								<polygon points="1477.11 539.76 1477.11 569.21 1454.84 569.21 1454.56 539.35 1477.11 539.76" style="fill:#f6dec5;" />
								<path d="M1471.52,546.39s-.47,8.21-.47,18.52-.17,17.96-.17,17.96l-6.62,.23s-4.34-11.67-4.61-19.27c-.27-7.6,1.4-17.44,1.4-17.44h10.47Z" style="fill:#555849;" />
							</g>
						</g>
						<polygon points="1340.26 332.34 1344.75 426.64 1412.11 424.4 1412.11 327.85 1340.26 332.34" style="fill:#f6d5dc;" />
						<g>
							<polygon points="1569.28 186.39 1572.75 331.78 1663.86 331.78 1659.09 184.15 1569.28 186.39" style="fill:#f3faf9;" />
							<g style="clip-path:url(#g);">
								<polygon points="1685.51 197.48 1672.56 154.96 1528.86 157.2 1530.42 200.77 1685.51 197.48" style="fill:#00a39a;" />
							</g>
						</g>
						<g>
							<polygon points="1307.6 193.64 1303.11 299.17 1390.53 299.12 1388.44 193.64 1307.6 193.64" style="fill:#f3faf9;" />
							<g>
								<path d="M1338.67,214.78c-15.48,4.44-24.78,23.1-19.75,37.96,5.41,15.98,22.27,22.74,38.01,18.3,13.24-3.74,25.02-16.74,21.94-32.63-3.47-17.91-17.52-30.15-40.2-23.63" style="fill:#f5d0c4;" />
								<g style="clip-path:url(#h);">
									<g>
										<polygon points="1347.24 197.55 1347.24 240.72 1400.29 239.16 1396.13 195.47 1347.24 197.55" style="fill:#428a3d;" />
										<path d="M1359.2,283.89l-11.96-43.17,47.33-10.4-3.64,38.49s-33.29,15.08-31.73,15.08Z" style="fill:#f0cb00;" />
										<polygon points="1367 296.38 1347.24 240.72 1320.71 283.37 1367 296.38" style="fill:#e85127;" />
										<path d="M1347.76,190.79l-.52,49.93s-53.05-8.84-50.97-8.84,51.49-41.09,51.49-41.09h0Z" style="fill:#62ac6d;" />
									</g>
								</g>
							</g>
						</g>
						<path d="M1374.88,353.19s-11.37-8.47-21.54,0c-12.92,10.77,35.41,53.65,35.41,53.65,0,0,20.59-45.75,11.26-57.96-9.33-12.2-25.13,4.31-25.13,4.31Z" style="fill:#ea6343;" />
						<g>
							<g>
								<polygon points="1298.6 453.56 1308.11 568.57 1394.31 561.16 1383.5 447.96 1298.6 453.56" style="fill:#c3e3e8;" />
								<g style="clip-path:url(#i);">
									<path d="M1284,550.25s51.97-11.99,93.89-20.21l41.92-8.22,29.95-5.28-1.76,81.04-165.59,24.66,1.59-71.98h0Z" style="fill:#009634;" />
								</g>
							</g>
							<path d="M1344.32,457.81c10.75-1.48,29.06,4.22,29.51,21.86,.46,17.66-12.79,25.56-21.83,25.86-12.75,.42-25.07-6.27-27.37-20.85-2.01-12.66,6.59-25.05,19.7-26.87" style="fill:#fdd900;" />
							<polygon points="1327.5 506.83 1313.86 532.67 1317.5 535.2 1331.93 508.39 1327.5 506.83" style="fill:#fdd900;" />
							<polygon points="1338.56 513.22 1338.81 540.94 1343.34 541.14 1346.73 508.78 1338.56 513.22" style="fill:#fdd900;" />
							<polygon points="1357.66 507.75 1365.29 505.07 1378.27 535.79 1374.56 537.64 1357.66 507.75" style="fill:#fdd900;" />
							<polygon points="1323.23 497.44 1311.47 501.98 1310.03 498.88 1322.61 492.29 1323.23 497.44" style="fill:#fdd900;" />
							<path d="M1320.55,481.57l-10.93-1.44-.41-3.71h11.75s-.82,5.36-.41,5.15h0Z" style="fill:#fdd900;" />
							<path d="M1373.33,497.44l-1.65,3.5,14.23,10.72,1.24-2.89s-14.02-11.13-13.81-11.34h0Z" style="fill:#fdd900;" />
						</g>
						<polygon points="1578.29 220.3 1650.76 218.17 1652.19 223.15 1578.85 226.27 1578.29 220.3" style="fill:#dbd2d5;" />
						<polygon points="1578.55 235.11 1651.19 232.33 1651.38 237.96 1578.55 239.76 1578.55 235.11" style="fill:#dbd2d5;" />
						<polygon points="1579.34 250.3 1647.3 249.08 1647.3 254.08 1579.67 255.18 1579.34 250.3" style="fill:#dbd2d5;" />
						<polygon points="1607.31 287.82 1646.41 286.6 1646.41 291.6 1607.49 292.7 1607.31 287.82" style="fill:#dbd2d5;" />
						<polygon points="1606.95 297.38 1646.05 296.16 1646.05 301.16 1607.14 302.26 1606.95 297.38" style="fill:#dbd2d5;" />
						<polygon points="1606.17 308.03 1645.27 306.81 1645.27 311.81 1606.35 312.91 1606.17 308.03" style="fill:#dbd2d5;" />
					</g>
					<polygon points="1368.89 318.08 1371.06 338.61 1378.96 337.29 1376.49 317.23 1368.89 318.08" style="fill:#f3eacb;" />
					<polygon points="1315.22 188.33 1314.71 202.74 1322.64 203.31 1322.8 189.17 1315.22 188.33" style="fill:#e8d797;" />
					<polygon points="1375.78 188.21 1375.28 202.62 1383.21 203.19 1383.36 189.04 1375.78 188.21" style="fill:#e8d797;" />
					<g>
						<path d="M317.87-65.45l10.84,41.34c.72,3.05,3.42,5.22,6.56,5.25l4.46,.06,.74,93.16,3.64-.02-.74-93.12,4.94,.05c3.21,.03,6.01-2.18,6.72-5.31l9.43-41.38-46.58-.05v.02Z" style="fill:#284f4f;" />
						<path d="M354.23,52.06c-42.49-5.95-66.82,13.31-73.07,40.79-6.53,28.8,2.7,64.26,42.55,73.9,40.54,9.8,77.49-16.4,79.97-46.86,2.32-29.06-6.97-61.87-49.45-67.82h0Z" style="fill:#f1f1f3;" />
					</g>
				</g>
			</g>
		</g>
	</g>
	<g id="j">
		<g>
			<path d="M920.09,242.63c-29.66,5.94-22,24.83-45.74,45.78s-30.49,74.73-1.17,99.87c29.33,25.14,41.02,15.95,75.93,11.76s80.06-15.92,80.28-53.73c.32-53.68-36.68-60.39-47.85-79.94-11.17-19.55-27.33-30.57-61.45-23.74h0Z" style="fill:#6b562a;" />
			<g style="clip-path:url(#k);">
				<path d="M924.59,236.02s5.9,18.38,8.01,30.27c2.12,11.9,2.04,17.41,2.04,17.41l3.17-.17s-1.65-8.56-3.43-20.07c-1.78-11.51-8.62-29.58-8.62-29.58l-1.17,2.13h0Z" style="fill:#dfbe84;" />
			</g>
		</g>
		<path d="M899.61,397.8l51.07,24.03,53.07-35.05,1.52-10.59s-9.53-1.42-22.55-6.43-21.03-37.05-21.03-37.05l-34.69,7.37s10.74,30.96-8.67,37.92c-11.53,4.14-19.72,7.78-19.72,7.78l1,12.02h0Z" style="fill:#dfbe84;" />
		<g>
			<path d="M885.34,1008.19c-8.04-.39-21.43,1.49-24.17-8.89-2.32-8.8-1.25-20.18-2.82-39.08-1.16-14.06,2.43-32.04,18.36-30.73,15.93,1.32,12.46,20.11,15.36,37.85,2.91,17.74,10.73,28.03,9.23,34.77-1.28,5.77-8.08,6.45-15.97,6.07h.01Z" style="fill:#754734;" />
			<path d="M891.64,684.62s-5.06,58.59-10.98,78.96c-5.92,20.37-20.62,37.61-20.81,64.1-.18,24.25,8.59,88.63,4.9,105.07,0,0-1.93,7.98-2.1,21.85-.11,9.05,.14,31.7,17.09,27.74,16.15-3.77,5.17-32.88,11.24-60.98,4.36-20.16,19.1-81.15,19.1-81.15l18.06-120.76-36.5-34.83h0Z" style="fill:#eb6a36;" />
		</g>
		<g>
			<path d="M1041.9,1007.67c8.01-.76,21.47,.48,23.72-10.01,1.91-8.9-2.88-19.57-2.21-38.53,.5-14.1-3.93-31.9-19.78-29.83-15.85,2.06-11.5,20.68-13.57,38.53s-6.21,27.86-4.4,34.53c1.55,5.7,8.37,6.07,16.24,5.32h0Z" style="fill:#754734;" />
			<path d="M1054.59,684.56s-.02,58.81,4.12,79.61,17.34,44.77,15.25,71.18c-1.91,24.18-13.3,59.78-15.6,75.88-2.4,16.82-.32,28.63,.5,42.49,.53,9.04,1.35,31.67-15.77,28.51-16.3-3.01-7.81-36.15-8.35-64.89-.41-21.76-9.74-81.01-9.74-81.01l-13.21-119.35,42.8-32.42h0Z" style="fill:#eb6a36;" />
		</g>
		<g>
			<path d="M985.58,370.99s-3.56,9.58-26.9,15.53c-21.43,5.47-38.54-9.16-38.54-9.16l-32.7,10.62s3.98,23.07,9.91,50.86c7.36,34.45,18.94,61.27,16.85,70.73-3.78,17.08-28.11,68.35-33.66,108-11.73,83.87-11.74,161.45-11.74,161.45,0,0,39.9,21.69,110.95,18.03,70.94-3.65,97.69-21.62,97.69-21.62,0,0-.38-85.82-21.11-173.65-10.16-43.05-49.51-90.3-44.25-116.73,2-10.02,5.16-24.87,2.22-60.45-3.2-38.66-7.82-52.36-7.82-52.36l-20.91-1.24h.01Z" style="fill:#ef8227;" />
			<g style="clip-path:url(#l);">
				<g>
					<path d="M977.74,281.42c55.38-20.57,117.87,.39,140.99,57.7,21.56,53.43,.06,122.03-65.2,147.83-65.24,25.81-122.47-17.83-138.84-66.11-16.35-48.28,1.41-116.55,63.04-139.43h0Z" style="fill:none;" />
					<path d="M953.69,394.52c21.51-1.96,31.62-11.71,36.28-16.36,4.66-4.66,8.88-17.62,8.88-17.62l-20.95-12.1-62.38,18.16-6.05,9.78s8.38,21.41,44.22,18.16v-.02Z" style="fill:#f2c900;" />
				</g>
			</g>
		</g>
		<path d="M950.33,356.53c13.11-3.58,22.84-23.62,26.02-30.76s4.86-20.24-5.9-27.92c-17.87-12.77-23.92-23.61-35.03-22.02-11.11,1.59-10,10.81-21.78,24.32-8.43,9.67-9.01,26.54,1.31,36.06,10.32,9.53,26.65,22.7,35.39,20.32h-.01Z" style="fill:#dfbe84;" />
		<path d="M949.73,327.85c4.63-.53,7.21,4.67,7.37,6.92,.2,2.86-3.76,7.72-9.85,8.97-3.94,.81-9.37-1.38-12.13-5.1-1.49-2.01,.47-6.23,3.12-8.42s5.14-1.02,6.22-1.02c2.25,0,2.03-.98,5.27-1.36h0Zm-3.79,5.54c-3.39,.43-5.22,.72-5.16,2.49,.06,1.77,4,2.69,6.06,2.08,1.76-.52,4.91-.7,4.75-3.18-.05-.85-2.55-1.79-5.65-1.39h0Z" style="fill:#d297bf;" />
		<path d="M951,300.8c.43-.26,1.06-.45,1.73-.51l.83-3.32,1.15,.07-.72,3.39c.37,.11,.73,.32,1.08,.61l3.49-2.29,.73,.8-3.2,2.74c.13,.24,.33,.49,.4,.73l6.68-1.84,.32,1.09-6.92,1.86c-.04,1.18-.6,2.29-1.49,3.07-1.32,1.15-3.69,1.27-5.07-.57-1.84-2.45-.48-4.97,.99-5.83h0Z" style="fill:#2a6196;" />
		<path d="M923.96,304.13c-.49-.13-1.16-.16-1.83-.04l-1.73-2.98-1.1,.36,1.64,3.08c-.33,.2-.62,.5-.89,.87l-4.03-1.29-.48,.96,3.87,1.81c-.06,.27-.18,.55-.18,.81l-7.18,1.34v1.14l7.41-1.39c.37,1.13,1.22,2.05,2.31,2.57,1.61,.76,3.94,.26,4.77-1.87,1.11-2.84-.91-4.91-2.58-5.36h0Z" style="fill:#2a6196;" />
		<path d="M928.24,301.07s-7.09-2.43-10.88-2.08c-3.79,.34-8.19,.75-8.19,.75l.19-1.75s7.53-2.69,11.41-2,8.48,1.66,8.48,1.66l-1.01,3.42h0Z" style="fill:#6b5738;" />
		<path d="M945.42,297.5c.27-.15,6.59-3.45,11.47-4.79,3.69-1.01,6.91-.48,6.91-.48l-.55-1.68s-7.02-2.3-10.67-.81c-3.65,1.48-8.86,4.62-8.86,4.62l1.7,3.14h0Z" style="fill:#6b5738;" />
		<path d="M887.44,387.98c-7.43,1.78-15.58,5.17-18.61,21.8-3.02,16.64-8.6,94.42-3.82,103.99,5.47,10.94,14.73,31.79,28.24,25.84,8.54-3.76,13.06-22.53,18.19-50.73,2.87-15.79,10.05-44.51,10.05-44.51l-18.29-51.09-15.76-5.31h0Z" style="fill:#ef821b;" />
		<path d="M1030.58,561.48c-1.04-2.01,4.32-9.84,6.12-14.46,1.52-3.9,3.36-11.52,4.54-15.46,.62-2.06,22.81-12.21,38.32-23.26l-18.04-16.5c-.62,.62-7.17,6.35-12.75,10.75-10.33,8.14-19.55,12.18-23.6,17.82-4.05,5.64-13.22,24.29-15.27,30.11-.69,1.96,3.09,19.72,5.79,21.76,2.95,2.23,14.6-2.12,16.57-3.36,2.9-1.83,10.26-8.04,10.26-8.04,0,0-2.49-2.41-5.65-2.3-3.28,.11-5.29,4.88-6.29,2.94h0Z" style="fill:#dfbe84;" />
		<path d="M883.02,489.07s-7.94-23.72-13.65-37.59c-5.71-13.87-19.45-38.89-20.23-42.57-1.24-5.78-3.55-17.46-7.34-22.62-1.94-2.64-7.85-7.42-12.16-10.96-4.72-3.87-8.02-7.63-9.15-8.83-3.55-3.79-13.24-13.69-16.72-16.26-3.33-2.46-6.05,.82-6.05,.82,0,0,10.65,12.32,12.25,14.27,2.53,3.07,8.26,9.03,10.08,11.72,.53,.79,0,1.73-.78,1.31-1.88-1.01-7.17-5.74-8.55-6.61-1.38-.88-2.72,1.07-4.03,2.92-1.03,1.45,.65,4.33,0,5.61s-2.17,4.16-2.1,6.07c.07,1.91,2.91,5.02,2.26,6.29-.65,1.28-1.03,4.06-.74,5.86,.29,1.81,2.68,5.12,9.45,10.97,6.77,5.84,13.82,10.2,15.81,12.48,4.41,5.06,14.15,34.29,20.08,51.08,5.73,16.23,12.14,30.37,12.14,30.37l19.36-13.42s.61-.94,.04-.91h.03Z" style="fill:#dfbe84;" />
		<path d="M1030.1,380.54c-17.99-11.59-34.98-8.83-34.98-8.83l4.34,60.45s16.68-4.23,30.29,4.85c13.61,9.07,53.32,31.69,52.5,34.48-1.06,3.58-10.66,11.24-22.97,22.44,0,0,2,4.38,5.66,10.62,3.67,6.24,9.2,8.85,9.2,8.85,6.78-4.34,26.16-17.16,31.98-22.33,7.24-6.44,18.18-15.74,15.84-23.35-1.28-4.15-22.22-29.32-46.42-50.43-17.9-15.61-37.65-31.74-45.44-36.76h0Z" style="fill:#ef821b;" />
		<path d="M842.46,452.64s16.94,52.96,23.34,63.93c5.67,9.73,15.77,20.16,24.31,14.99,8.55-5.17,11.11-14.8,10.13-27.96s-32.82-62.81-32.82-62.81c0,0-5.73,4.76-10.86,7.25s-14.1,4.61-14.1,4.61h0Z" style="fill:#ef8227;" />
	</g>
</svg>
