<svg xmlns="http://www.w3.org/2000/svg" viewBox="0 0 1920 1080">
	<defs>
		<clipPath id="uuid-ee5ddd71-59ba-43f1-adf9-ea3146b5ea4b">
			<path style="fill:none" d="M0 0h1920v1080H0z" />
		</clipPath>
		<clipPath id="uuid-23da080a-4db4-4e24-8d13-c69ecca592d3">
			<path class="uuid-2440feae-8110-4626-8492-d35f92112139" d="M816.74 938.34 815.95 571l-1192.78.5-.01-3.92-280.46-1.08-1.47 371.25 1475.51.59z" />
		</clipPath>
		<clipPath id="uuid-63624a53-eb27-43c9-bda3-1b0b92745703">
			<path class="uuid-8f174d81-df8e-44f1-a918-ec42d3ad9565" d="m535.54 574.24-.38 385.59 289.64 3.15-6.45-389.66-282.81.92z" />
		</clipPath>
		<clipPath id="uuid-b58f15a4-0fc7-4f6b-9ef2-3409d49f2a18">
			<path class="uuid-3fe2a9a2-d574-4000-922d-78d043576671" d="M1351.54 93.59V538.4l511.49.29 1.32-444.81-512.81-.29z" />
		</clipPath>
		<clipPath id="uuid-740d86fa-bf24-4db0-aa6e-89be7e3bc663">
			<path class="uuid-dd672545-d2b8-404d-947a-9ece668906ff" d="M1261.92 185.84c-32.51 0-53.14 25.09-53.91 54.22-.74 27.66 4.56 38.78 7.44 49.41 4.65 17.17-4.77 34.3-3.81 34.3s22.48-11.26 24.49-16.02c2.39-5.67-1.03-24.42-1.03-24.42l48.31 3.63s-6.81 12.1-.13 22.13 22.77 11.1 22.77 11.1-7.29-17.9-3.95-29.24 10.39-25.14 10.39-49.11-20.96-56.01-50.55-56.01Z" />
		</clipPath>
		<clipPath id="uuid-9d932de4-34f7-4506-8f2e-5272197fb4ac">
			<path class="uuid-87038d3e-f573-400d-97d8-49143030bab2" d="M1250.72 311.93c4.49 3.12 15.88 2 19.04 0 7.45-4.74 19.01-17.06 21.96-21.78 3.93-6.29 8.73-36.69-1.3-44.89-16.68-13.63-10.83-31.16-22.18-30.82-6.49.19-12.45 15.84-22.02 24.14-7.16 6.2-19.92 10.44-21.52 16.22-2.38 8.6-1.85 28.61 4.88 37.83 7.96 10.89 13.7 14.14 21.14 19.31Z" />
		</clipPath>
		<style>
			.uuid-3fe2a9a2-d574-4000-922d-78d043576671{fill:#f6f1e8}.uuid-84e34600-9bfd-42ae-a056-957c20f2ec92{fill:#019996}.uuid-046153ce-264c-4e19-8040-d61018086e7c{fill:#006544}.uuid-2440feae-8110-4626-8492-d35f92112139{fill:#007b5c}.uuid-dd672545-d2b8-404d-947a-9ece668906ff{fill:#feca1d}.uuid-192bcf31-a39d-4209-af3e-7f10a04be82c{fill:#fcf4e2}.uuid-406ea784-3cce-42d4-a4fa-20ba45e00d33{fill:#8dabbf}.uuid-87038d3e-f573-400d-97d8-49143030bab2{fill:#d4a55f}.uuid-8f174d81-df8e-44f1-a918-ec42d3ad9565{fill:#dee6e8}.uuid-034ada45-c930-44ff-919a-d64b86aae493{fill:#a2a6b8}.uuid-486c8204-cc47-48d8-bd2a-9a143fea2629{fill:#94b6c8}.uuid-cd506a1e-1bca-4da7-aab1-6dee68a83491{fill:#284634}.uuid-b9a72784-cf6f-473a-9f4e-29338072203e{fill:#2d2b40}.uuid-39c7ed86-2afe-457a-af51-52ed46bb7188{fill:#3a425f}.uuid-a2155a28-28d6-441c-90fc-2b24aa13e2e4{fill:#4c732b}.uuid-69fd164e-2d71-4044-aa8d-2b46afd4ac67{fill:#4d495d}.uuid-28cefa62-ff80-4ad0-b1ef-18b9b03220aa{fill:#4e4932}
		</style>
	</defs>
	<g style="clip-path:url(#uuid-ee5ddd71-59ba-43f1-adf9-ea3146b5ea4b)" id="uuid-28b3ab5d-780b-4572-8209-9c252b6a9d15">
		<path style="fill:#fffdf6" d="M-202.76-170.64H2122.6V960.91H-202.76z" />
		<path style="fill:#fae5da" d="M-295.81 804.61h2433.77v676.64H-295.81z" />
		<path style="fill:#a4ccdf" d="m816.15 570.77-1646.98 20.57V-51.4H817l-.85 622.17z" />
		<path class="uuid-2440feae-8110-4626-8492-d35f92112139" d="M816.74 938.34 815.95 571l-1192.78.5-.01-3.92-280.46-1.08-1.47 371.25 1475.51.59z" />
		<g style="clip-path:url(#uuid-23da080a-4db4-4e24-8d13-c69ecca592d3)">
			<path class="uuid-8f174d81-df8e-44f1-a918-ec42d3ad9565" d="m535.54 574.24-.38 385.59 289.64 3.15-6.45-389.66-282.81.92z" />
			<g style="clip-path:url(#uuid-63624a53-eb27-43c9-bda3-1b0b92745703)">
				<path d="M518.06 641.05h327.5l-4.28 234.3-318.95 2.57s-5.13-237.72-4.28-236.86Z" style="fill:#beccd0" />
				<path class="uuid-2440feae-8110-4626-8492-d35f92112139" d="M519.9 873.18h327.5l-4.28 234.3-318.95 2.57s-5.13-237.72-4.28-236.86Z" />
				<path class="uuid-39c7ed86-2afe-457a-af51-52ed46bb7188" d="m565.94 655.58.55 9.53 225.2.73v-9.4l-225.75-.86zM579.62 687.22l.86 115.44 192.39 2.56v-118H579.62z" />
			</g>
			<path class="uuid-406ea784-3cce-42d4-a4fa-20ba45e00d33" d="M630.9 618.22c6.54-.57 9.27-5.53 8.78-9.84-.57-5.01-3.87-8.58-9.85-8.41-5.65.16-9.73 4.98-8.44 10.96 1.07 4.94 4.64 7.71 9.5 7.29ZM725.03 618.22c6.54-.57 9.27-5.53 8.78-9.84-.57-5.01-3.87-8.58-9.85-8.41-5.65.16-9.73 4.98-8.44 10.96 1.07 4.94 4.64 7.71 9.5 7.29Z" />
		</g>
		<path class="uuid-2440feae-8110-4626-8492-d35f92112139" d="m-1015.65-54.73.79 444.9 1543.1 2.72-.06-444.57-1543.83-3.05z" />
		<path class="uuid-84e34600-9bfd-42ae-a056-957c20f2ec92" d="m508.08 368.01-.48-342.72-174.04-.94v341.77l174.52 1.89zM146.18 25.8l2.45 338.29 178.07.99-2.15-342.27-178.37 2.99zM249.66 599.02l-.45 72.61 273.87 3.77-.45-74.52-272.97-1.86zM249.22 682.53l271.64 3.12.89 66.94-271.63-1.23-.9-68.83zM250.33 759.83l272.08 1.23.44 64.41-273.41-1.24.89-64.4zM250.55 832.85l.45 45.04 273.37 1.53v-45.21l-273.82-1.36z" />
		<path class="uuid-cd506a1e-1bca-4da7-aab1-6dee68a83491" d="M303.79 330.71c5.99-.52 8.49-5.07 8.04-9-.52-4.59-3.54-7.85-9.02-7.7-5.17.14-8.9 4.56-7.72 10.03.98 4.52 4.25 7.06 8.7 6.67ZM354.16 330.71c5.99-.52 8.49-5.07 8.04-9-.52-4.59-3.54-7.85-9.02-7.7-5.17.14-8.9 4.56-7.72 10.03.98 4.52 4.25 7.06 8.7 6.67Z" />
		<path class="uuid-84e34600-9bfd-42ae-a056-957c20f2ec92" d="m127.03 366.74-.48-342.72-174.04-.94v341.77l174.52 1.89z" />
		<path class="uuid-cd506a1e-1bca-4da7-aab1-6dee68a83491" d="M392.03 624.83c5.99-.52 8.49-5.07 8.04-9-.52-4.59-3.54-7.85-9.02-7.7-5.17.14-8.9 4.56-7.72 10.03.98 4.52 4.25 7.06 8.7 6.67ZM392.52 708.5c5.99-.52 8.49-5.07 8.04-9-.52-4.59-3.54-7.85-9.02-7.7-5.17.14-8.9 4.56-7.72 10.03.98 4.52 4.25 7.06 8.7 6.67ZM392.36 785.07c5.99-.52 8.49-5.07 8.04-9-.52-4.59-3.54-7.85-9.02-7.7-5.17.14-8.9 4.56-7.72 10.03.98 4.52 4.25 7.06 8.7 6.67ZM394.43 856.96c5.99-.52 8.49-5.07 8.04-9-.52-4.59-3.54-7.85-9.02-7.7-5.17.14-8.9 4.56-7.72 10.03.98 4.52 4.25 7.06 8.7 6.67Z" />
		<path style="fill:#f0f4fa" d="m628.16-69.16 1.81 344.96-101.67 94.41-.12 22.8 289.21.62v-23.07l-111.16-98.39-1.82-339.52-76.25-1.81z" />
		<path class="uuid-84e34600-9bfd-42ae-a056-957c20f2ec92" d="m229.64 881.45 3.96-282.14-174.04-.94-4.44 281.19 174.52 1.89zM-128.27 599.78l-7.24 276.4 178.08.99 7.53-280.39-178.37 3z" />
		<path class="uuid-cd506a1e-1bca-4da7-aab1-6dee68a83491" d="M82.38 634.56c5.99-.52 8.49-5.07 8.04-9-.52-4.59-3.54-7.85-9.02-7.7-5.17.14-8.9 4.56-7.72 10.03.98 4.52 4.25 7.06 8.7 6.67ZM25.03 630.34c5.99-.52 8.49-5.07 8.04-9-.52-4.59-3.54-7.85-9.02-7.7-5.17.14-8.9 4.56-7.72 10.03.98 4.52 4.25 7.06 8.7 6.67Z" />
		<path style="fill:#25382a" d="m105.5 422.39 206.91.73v6.33l-207.4-.49.49-6.57z" />
		<path d="M147.21 474.47h.12l-.09-49.83c0-1.7-1.31-3.08-2.93-3.08s-2.93 1.38-2.93 3.08l-.09 49.83h.12c-4.12 8.39-11.96 25.52-11.96 34.59 0 11.84 6.25 20.43 14.86 20.43s14.86-8.59 14.86-20.43c0-9.07-7.84-26.2-11.96-34.59Zm-11.19 34.59c0-8.69 4.67-25.49 7.2-33.94-.94 8.54-2.63 25.24-2.63 33.94 0 1.75.07 14.9 2.23 19.12-3.96-1.57-6.79-9.25-6.79-19.12Zm5.56 0c0-8.92 1.8-26.34 2.71-34.59h.04c.91 8.25 2.71 25.67 2.71 34.59 0 13.56-1.81 19.43-2.73 19.43s-2.73-5.7-2.73-19.43Zm4.23 19.12c2.16-4.23 2.23-17.37 2.23-19.12 0-8.7-1.7-25.4-2.63-33.94 2.52 8.45 7.19 25.25 7.19 33.94 0 9.87-2.83 17.56-6.79 19.12Zm-3.34-103.55c0-.54.2-1.05.56-1.43.34-.36.8-.56 1.28-.56 1.02 0 1.84.89 1.84 1.99v3.9h-3.68v-3.9Zm-12.02 84.42c0-8.57 7.47-25.1 11.61-33.61-2.58 8.65-7.05 24.89-7.05 33.61s2.12 15.66 5.39 18.72c-5.95-2.19-9.96-9.39-9.96-18.72Zm17.76 18.72c3.27-3.06 5.39-10.01 5.39-18.72s-4.47-24.96-7.05-33.62c4.14 8.51 11.61 25.05 11.61 33.62 0 9.33-4.01 16.53-9.96 18.72Z" style="fill:#e6f1e3" />
		<path class="uuid-192bcf31-a39d-4209-af3e-7f10a04be82c" d="M236.31 517.91c-1.22 8.86-5.04 14.96-7.02 17.4-1.31 1.61-6.6 2.44-8.59 0-1.98-2.44-5.8-8.55-7.02-17.4-1.22-8.86 8.55-13.74 9.31-16.95.76-3.21-2.6-65.04-2.9-72.98-.23-6.03 1.72-7.09 4.95-7.17s5.09 1.77 4.86 7.17c-.34 7.94-3.66 69.77-2.9 72.98.76 3.21 10.53 8.09 9.31 16.95Zm-11.18-89.02c1.97-.17 2.79-1.66 2.64-2.96-.17-1.51-1.16-2.58-2.96-2.53-1.7.05-2.93 1.5-2.54 3.3.32 1.49 1.4 2.32 2.86 2.19ZM209.08 503.5c-1.15 7.54-4.74 12.74-6.6 14.82-1.23 1.37-6.21 2.08-8.08 0s-5.46-7.28-6.6-14.82c-1.15-7.54 8.04-11.7 8.76-14.43.72-2.73-2.44-55.39-2.73-62.15-.22-5.13 1.62-6.04 4.65-6.1s4.79 1.51 4.57 6.1c-.32 6.76-3.45 59.42-2.73 62.15.72 2.73 9.91 6.89 8.76 14.43Zm-10.51-75.81c1.85-.15 2.62-1.42 2.49-2.52-.16-1.28-1.09-2.2-2.79-2.16-1.6.04-2.75 1.28-2.39 2.81.3 1.27 1.31 1.98 2.69 1.87Z" />
		<g>
			<path class="uuid-192bcf31-a39d-4209-af3e-7f10a04be82c" d="m293.21 456.16-1.18-49.2s-5.92 1.13-7.05 9.73-1.67 40.55-1.67 40.55l9.9-1.07Z" />
			<path class="uuid-39c7ed86-2afe-457a-af51-52ed46bb7188" d="M287.95 514.15c6.46-.6 6.03-6.25 5.89-19.36-.13-11.86-.02-34.75 0-39.01 0-.37-.32-.65-.68-.61l-10.46 1.26-.18 1.88c-.05.49.21.96.65 1.2 1.14.61 3.15 2.29 2.66 6.38-.63 5.22-1.87 17.31-2.05 22.66-.13 3.85.89 13.25.1 14.97-.65 1.42-1.84 2.01-2.59 2.24a.76.76 0 0 0-.51.9c.47 2.11 2.22 7.96 7.19 7.49Z" />
			<path class="uuid-192bcf31-a39d-4209-af3e-7f10a04be82c" d="M289.63 477.67c-1.21.11-1.71 1.02-1.62 1.81.11.92.71 1.58 1.82 1.55 1.04-.03 1.79-.92 1.56-2.02-.2-.91-.86-1.42-1.75-1.34ZM289.63 464.74c-1.21.11-1.71 1.02-1.62 1.81.11.92.71 1.58 1.82 1.55 1.04-.03 1.79-.92 1.56-2.02-.2-.91-.86-1.42-1.75-1.34Z" />
		</g>
		<g>
			<path class="uuid-3fe2a9a2-d574-4000-922d-78d043576671" d="M1351.54 93.59V538.4l511.49.29 1.32-444.81-512.81-.29z" />
			<g style="clip-path:url(#uuid-b58f15a4-0fc7-4f6b-9ef2-3409d49f2a18)">
				<path style="fill:#e9edf4" d="m1597.33 72.84 12.26 503.82 4.02 1.11-12.26-506.04-4.02 1.11z" />
			</g>
			<path style="fill:#c7e6f9" d="m1584.05 481.34-1.57-366.51h-212.35l3.98 365.15 209.94 1.36z" />
			<path style="fill:#e2e8f1" d="m1892.69 541.64.48-22.65-576.2-4-.67 25.47 576.39 1.18z" />
			<path style="fill:#c4e5f8" d="m1627.88 481.34-5.16-370.49h220.1l-3.61 369.95-211.33.54z" />
			<path class="uuid-486c8204-cc47-48d8-bd2a-9a143fea2629" d="m1583.67 305.65 4.96 45.2h8.68l2.95-45.46s-1.56-7-8.3-7c-7.28 0-8.3 7.26-8.3 7.26ZM1609.02 309.61l17.88 41.8 8.31-2.52-10.39-44.35s-3.52-6.25-9.97-4.29c-6.96 2.12-5.83 9.36-5.83 9.36Z" />
		</g>
		<path style="fill:#ffea98" d="m1332.68-68.71-3.38 219.67 550.79-5.54 1.6-229.17-549.01 15.04z" />
		<g>
			<path class="uuid-b9a72784-cf6f-473a-9f4e-29338072203e" d="m570.04 461.3-.86-13.23 16.17.13-.72 11.07-14.59 2.03zM589.63 463.57v13.54h25.01l2.59 35.76 3.74 1.04v-50.34h-31.34z" />
			<path class="uuid-034ada45-c930-44ff-919a-d64b86aae493" d="M549.05 556.71h57.02l-2.67-36.66h-51.67l-2.68 36.66zM591.79 455.68l-29.24-.46-10.61 61.92h51.24l-11.39-61.46z" />
			<path style="fill:#fcf6e7" d="m551.94 517.14-.21 2.91h51.67l-.22-2.91h-51.24z" />
		</g>
		<path style="fill:#d8c59a" d="m-572.25 572.45 1396.21 6.92-.38-23.41-1395.86-12.68.03 29.17z" />
	</g>
	<g id="uuid-4a3a543d-dfd9-4e76-9e8a-9763a25e0a72">
		<path class="uuid-dd672545-d2b8-404d-947a-9ece668906ff" d="M1261.92 185.84c-32.51 0-53.14 25.09-53.91 54.22-.74 27.66 4.56 38.78 7.44 49.41 4.65 17.17-4.77 34.3-3.81 34.3s22.48-11.26 24.49-16.02c2.39-5.67-1.03-24.42-1.03-24.42l48.31 3.63s-6.81 12.1-.13 22.13 22.77 11.1 22.77 11.1-7.29-17.9-3.95-29.24 10.39-25.14 10.39-49.11-20.96-56.01-50.55-56.01Z" />
		<path class="uuid-87038d3e-f573-400d-97d8-49143030bab2" d="M1266.85 186.23s1.85 16.5 1.85 23.05c0 6.55-.62 11.92-.62 11.92l1.74.26s1.13-2.62.82-12.7c-.31-10.08-1.54-21.87-1.54-21.87l-2.26-.65Z" style="clip-path:url(#uuid-740d86fa-bf24-4db0-aa6e-89be7e3bc663)" />
		<path class="uuid-046153ce-264c-4e19-8040-d61018086e7c" d="M1194.65 897.77s1.94 33.23-.44 47.27c-2.38 14.04-6.45 25.14-6.45 25.14l31.61 5.64 8.5-23.3s-3.77-17.74-4.78-24.45c-1.01-6.72-2-28.66-2-28.66l-26.44-1.63Z" />
		<path class="uuid-69fd164e-2d71-4044-aa8d-2b46afd4ac67" d="M1201.25 954.53c-10.82-.53-13.18 9.32-16.79 16.62-3.61 7.29-10.77 15.75-11.64 21.1-.87 5.35-2.53 11.52.11 12.29s19.29 2.77 24.78 2.52c5.49-.25 19.19-1.31 20.35-5.26 1.16-3.95 1.67-15.71 1.67-15.71l4.18 1.19 7.73-5.66s1.89-17.51.43-24.28-6.04-17.78-7.46-17.27c-1.43.51.04 16.6-2.07 20.9-2.11 4.29-4.89 8.5-4.89 8.5s-6.89-14.48-16.39-14.94Z" />
		<path class="uuid-046153ce-264c-4e19-8040-d61018086e7c" d="M1322.32 897.54s-2.42 33.2-.24 47.27c2.17 14.07 6.08 25.23 6.08 25.23l-31.68 5.18-8.16-23.42s4.03-17.68 5.13-24.38c1.1-6.7 2.41-28.63 2.41-28.63l26.46-1.25Z" />
		<path class="uuid-69fd164e-2d71-4044-aa8d-2b46afd4ac67" d="M1314.91 954.2c10.83-.37 13.04 9.51 16.54 16.86s10.54 15.91 11.34 21.27c.8 5.36 2.36 11.55-.28 12.29-2.65.74-23.02 3.83-28.5 3.5-5.48-.33-15.48-2.92-16.58-6.89-1.1-3.97-1.44-15.74-1.44-15.74l-4.19 1.13-7.65-5.77s-1.63-17.53-.08-24.28c1.55-6.75 6.29-17.69 7.71-17.16 1.42.53-.28 16.6 1.77 20.92s4.77 8.57 4.77 8.57 7.1-14.37 16.6-14.7Z" />
		<path d="M1190.61 507.94c-13.33 3.67-16.07 70.1-16.32 115.04-.26 47.79 20.16 123.83 21.3 148.4 1.78 38.21-6.21 177.7-6.21 177.7s3.12 6.1 19.81 7.05c19.74 1.12 35.29-2.89 35.29-2.89s12.91-144.74 11.8-204c-1.12-59.27-1.27-113.88 3.33-113.88 5.36 0 11.24 122.61 12.13 134.17 1.23 15.95 3.49 182.18 3.49 182.18s19.55 5.57 34.07 5.14c20.41-.6 22.55-5.64 22.55-5.64s-3.02-125.94-1.75-155.15c.66-15.12 21.06-143.78 19.42-174.34-2.16-40.4-8.01-69.87-8.89-77.46-5.59-48.08-4.53-95.52-4.53-95.52l-136.55 3.3-8.95 55.91Z" style="fill:#00a387" />
		<path class="uuid-87038d3e-f573-400d-97d8-49143030bab2" d="m1211.99 346.7 48.83 27.67 61.5-26.19 2.57-9.64s-19.58-2.04-31.99-8.34c-12.02-6.1-11.74-48.98-11.74-48.98l-46.06 3.64s3.12 44.55-15.57 51.82c-19.03 7.4-7.37-1.21-7.37-1.21l-.18 11.23Z" />
		<path class="uuid-a2155a28-28d6-441c-90fc-2b24aa13e2e4" d="M1260.44 309.73c-7.09.89-23.95-4.05-25.54-2.88-4.71 3.45-.7 16.08-6.99 18.76-6.29 2.68-34.47 5.01-47.08 11.19-10.67 5.22 3 30.6 1.86 41.33-1.14 10.74-1.72 58.32 2.85 81.94 4.57 23.63-18.14 72.72-15.66 88.83 2.69 17.46 4.9 26.07 4.99 33.7.16 13.57-1.1 21.69-1.1 21.69s57.77 23 109.14 21.52c51.37-1.48 69.17-4.61 69.17-4.61s-2.38-22.32-1.13-40.06c.73-10.35 11.92-17.13 5.21-43.95-2.99-11.97-12.64-56.24-14.02-82.05-1.55-29.05-9.82-50.34-8-60.01 3.43-18.26 24.36-36.42 15.91-45.61-12.02-13.08-50.64-21.8-55.5-25.83-4.86-4.03-5.84-15.83-7.84-17.44-2-1.61-17.71 2.4-26.28 3.47Z" />
		<path class="uuid-87038d3e-f573-400d-97d8-49143030bab2" d="M1250.72 311.93c4.49 3.12 15.88 2 19.04 0 7.45-4.74 19.01-17.06 21.96-21.78 3.93-6.29 8.73-36.69-1.3-44.89-16.68-13.63-10.83-31.16-22.18-30.82-6.49.19-12.45 15.84-22.02 24.14-7.16 6.2-19.92 10.44-21.52 16.22-2.38 8.6-1.85 28.61 4.88 37.83 7.96 10.89 13.7 14.14 21.14 19.31Z" />
		<g style="clip-path:url(#uuid-9d932de4-34f7-4506-8f2e-5272197fb4ac)">
			<path class="uuid-28cefa62-ff80-4ad0-b1ef-18b9b03220aa" d="M1252.83 241.68s-7.05-6.1-11.52-5.88c-6.24.3-11.73.91-11.73.91l.17 3.36s8.39-.1 10.68 0c3.74.15 10.78 5.45 10.78 5.45s1.99-4 1.61-3.84ZM1268.27 241.76s5.79-3.36 10.11-4.75c4.33-1.39 10.86.3 10.86.3l-.28 3.35s-7.42-.99-9.45.31c-2.33 1.49-9.76 4.7-9.76 4.7s-1.86-4.09-1.48-3.92Z" />
		</g>
		<path d="M1271.83 290.1c.36 1.51-1.48 5.78-3.88 6.67-1.52.56-3.69 1.05-8.87 1.44-5.84.44-6.81-.3-8.1-.73s-2.85-4.37-3.28-6.39c-.28-1.3 1.34-2.95 4.83-4.29 3.41-1.31 5.27.92 7.07.48s1.58-1.28 4.67-1.3c2.94-.02 7.23 2.75 7.56 4.13Z" style="fill:#ef7d00" />
		<path class="uuid-28cefa62-ff80-4ad0-b1ef-18b9b03220aa" d="m1242.87 257.01-4.96-.59.17-1.77 6.14.42s-1.18 1.93-1.34 1.93Z" />
		<path class="uuid-28cefa62-ff80-4ad0-b1ef-18b9b03220aa" d="m1243.8 256.35-3.96-4.8 1.35-1.2 3.74 4.23-1.13 1.77z" />
		<path class="uuid-28cefa62-ff80-4ad0-b1ef-18b9b03220aa" d="M1243.86 253.23c-1.74.84-2.4 2.6-1.51 4.27.89 1.67 2.33 1.83 3.94 1.18 1.9-.77 2.42-2.13 1.68-3.95-.52-1.28-2.32-2.37-4.11-1.51ZM1274.21 257.52l4.96-.59-.17-1.77-6.14.42s1.18 1.93 1.34 1.93Z" />
		<path class="uuid-28cefa62-ff80-4ad0-b1ef-18b9b03220aa" d="m1273.68 256.54 3.81-4.62-1.29-1.16-3.6 4.08 1.08 1.7z" />
		<path class="uuid-28cefa62-ff80-4ad0-b1ef-18b9b03220aa" d="M1273.1 253.39c1.74.84 2.4 2.6 1.51 4.27-.89 1.67-2.53 1.66-4.14 1.01-1.9-.77-2.22-1.97-1.48-3.78.52-1.28 2.32-2.37 4.11-1.51Z" />
		<path d="M1293.41 245.5c-.47-.66-19.51 0-24.43.15-3.37.11-6.18 2.45-10.9 2.62-4.72.17-7.67-2.05-11.04-1.94-4.92.15-23.97.68-24.4 1.37-.43.69-.27 3.38.31 3.58.57.21 1.38.75 1.52 1.53.14.79 1.83 10.71 3.47 12.56 2.38 2.69 5.43 2.35 9.84 2.55 4.41.2 11.07-.24 12.65-3.82 1.16-2.64 1.62-4.08 3.4-8.59.87-2.2 2.09-3.14 4.21-3.2 2.11-.07 3.72.78 4.73 2.93 2.05 4.39 2.6 5.8 3.92 8.36 1.8 3.48 8.47 3.5 12.86 3.03 4.39-.48 7.45-.33 9.66-3.16 1.52-1.95 2.6-11.96 2.69-12.75.09-.79.86-1.38 1.42-1.63.56-.24.56-2.94.08-3.6Zm-42.9 9.57c-.56 3-.91 7.53-4.5 9.66-2.71 1.62-11.44.88-13.42.3-2.14-.62-3.49-2.32-3.89-4.32-.4-2-1-5.61-1.15-6.72-.15-1.12.03-3.37 2.01-3.75 2.9-.56 15.05-1.28 18.44-.46 1.97.48 3.06 2.33 2.51 5.29Zm38.38-2.98c-.08 1.12-.46 4.76-.74 6.78-.27 2.02-1.52 3.79-3.61 4.55-1.93.7-10.6 1.97-13.41.53-3.71-1.91-4.35-6.4-5.08-9.37-.73-2.92.25-4.84 2.18-5.44 3.33-1.03 15.5-1.07 18.43-.68 2 .26 2.31 2.5 2.24 3.62Z" style="fill:#ab3a88" />
		<path class="uuid-a2155a28-28d6-441c-90fc-2b24aa13e2e4" d="M1100.69 444.71c3.54 12.97 25.41 26.6 36.71 21.28s68.32-62.85 68.32-62.85l12.21-69.18s-25.64-10.19-45.58 9.09c-19.95 19.28-77.64 79.71-71.65 101.65ZM1420.86 440.38c-4.12 12.8-15.51 28.35-26.59 22.57-12.93-6.75-74.92-48.15-73.07-47.24l-21.36-86.56s36.02 1.59 55.07 21.75c19.05 20.16 72.91 67.82 65.94 89.47Z" />
		<path class="uuid-87038d3e-f573-400d-97d8-49143030bab2" d="M1149.05 483.17s25.58 26.86 28.61 28.35c2.09 1.03 26.29 3.8 29.37 5.27 2.12 1.02 16.22 11.72 18.5 14.02 2.12 2.14 12.41 12.15 12.41 12.15s-2.82 3.76-6.98 1.16c-4.16-2.6-9.73-8.34-10.89-9.29-1.17-.95-11.5-7.22-11.9-7.58-.56-.51-1.23.37-.79.79.77.73 10.93 7.85 11.9 8.77.97.92 16.38 13.65 16.38 13.65s-2.46 3.52-5.94 2.33c-4.39-1.49-13.02-9.48-13.84-10.28-.83-.81-11.85-8.35-12.77-9.04-.69-.52-1.17.04-.7.75.45.67 7.47 7.18 11.19 10.42 2.61 2.27 12.93 12.15 12.93 12.15s-3.52 4.22-7.27 1.1c-3.02-2.51-9.02-8.09-10.54-9.59-1.52-1.5-9.39-7.99-9.9-8.36-.78-.57-1.12-.11-.59.6.38.51 6.05 6.7 7.08 7.67s9.06 11 9.06 11-2.13 3.22-5.14 1.59c-1.68-.91-6.66-7.11-9.02-9.35-1.65-1.57-8.51-8.18-10.35-9.21-2.36-1.33-18.54-9.08-21.21-11.12-3.3-2.52-37.73-28.9-37.73-28.9l18.13-19.05Z" />
		<path class="uuid-a2155a28-28d6-441c-90fc-2b24aa13e2e4" d="M1101.33 430.46c-5.27 11.32.13 31.91 11.85 47.81 11.72 15.89 28.04 46.77 33.66 49.64 5.62 2.87 25.01 5.7 25.01 5.7l17.49-23.01s-3.78-9.34-8.05-16.71c-4.27-7.37-26.88-49.11-31.53-67.3-3.03-11.84-27.88-22.59-27.88-22.59s-15.57 15.79-20.54 26.47Z" />
		<path class="uuid-87038d3e-f573-400d-97d8-49143030bab2" d="M1377.78 491.81s-25.84 26.61-28.89 28.07c-2.1 1.01-26.33 3.54-29.42 4.99-2.13 1-16.33 11.56-18.63 13.84-2.14 2.11-12.53 12.03-12.53 12.03s2.78 3.78 6.97 1.22c4.19-2.56 9.81-8.25 10.98-9.19 1.18-.94 11.57-7.11 11.97-7.47.57-.51 1.22.39.78.8-.78.72-11.01 7.75-11.98 8.65-.98.91-16.51 13.49-16.51 13.49s2.43 3.54 5.91 2.39c4.41-1.45 13.11-9.35 13.94-10.15.84-.8 11.93-8.24 12.85-8.92.69-.51 1.17.05.69.75-.45.67-7.54 7.11-11.29 10.31-2.63 2.24-13.05 12.02-13.05 12.02s3.48 4.25 7.26 1.17c3.04-2.48 9.1-8 10.63-9.48 1.53-1.48 9.47-7.9 9.98-8.27.78-.57 1.12-.1.59.61-.38.5-6.11 6.64-7.16 7.61-1.04.96-9.17 10.91-9.17 10.91s2.1 3.24 5.12 1.64c1.69-.89 6.73-7.04 9.11-9.26 1.66-1.55 8.59-8.1 10.44-9.11 2.37-1.3 18.63-8.9 21.32-10.92 3.33-2.49 38.01-28.53 38.01-28.53l-17.94-19.22Z" />
		<path class="uuid-a2155a28-28d6-441c-90fc-2b24aa13e2e4" d="M1427.98 431.17c6.38 10.26-2.69 27.22-12.97 51.9-7.35 17.65-16.37 39.08-21.58 42.28-5.21 3.2-31.08 11.95-31.08 11.95l-16.27-18.85s.43-11.94 3.98-19.38c3.56-7.44 23.54-45.68 26.63-63.57 2.02-11.65 21.44-35.49 21.44-35.49s22.82 19.87 29.84 31.17Z" />
	</g>
</svg>
