<svg width="56" height="54" fill="none"
  xmlns="http://www.w3.org/2000/svg">
  <g filter="url(#a)">
    <g filter="url(#b)">
      <path d="M19.834 15.913 25.65 0l10.947 15.055L52 9.111l-8.987 15.908 8.702 9.108-15.922 1.86-1.422 9.97-8.35-8.914-18.186 7.94 8.276-15.448L4 17.497l15.834-1.584Z" fill="#FED300"/>
    </g>
    <path d="M19.433 29.026c.146-1.333.285-2.634.418-3.9l.15-1.658c.061-.586.114-1.158.16-1.715.044-.566.08-1.108.11-1.625.038-.528.062-1.008.07-1.44l.833-.129c.24-.04.485-.075.735-.107.25-.04.471-.078.665-.114.183.706.35 1.38.5 2.022.07.275.143.564.216.867.082.292.159.576.23.851.07.275.14.54.21.797.068.247.134.466.198.657l.067-.68c.023-.265.05-.539.082-.823.03-.293.061-.59.09-.893.04-.303.075-.597.106-.88.083-.664.168-1.355.255-2.075l1.683-.358a130.256 130.256 0 0 0-.49 4.034c-.065.55-.129 1.103-.192 1.661-.055.558-.106 1.096-.154 1.616s-.086 1-.113 1.443c-.027.434-.047.8-.058 1.101a2.924 2.924 0 0 0-.329.1c-.182.053-.397.119-.643.196a28.12 28.12 0 0 0-.723.246c-.237.077-.414.14-.532.187a94.627 94.627 0 0 0-.397-2.13 37.49 37.49 0 0 0-.176-.883 73.78 73.78 0 0 0-.188-.87 14.91 14.91 0 0 0-.166-.772c-.05-.248-.096-.455-.139-.62-.013.17-.032.378-.058.624a55.536 55.536 0 0 0-.136 1.656c-.021.292-.048.58-.079.864-.063.67-.133 1.37-.21 2.098l-1.995.652Zm7.218-.912.396-2.86c-.035-.4-.082-.83-.141-1.294-.051-.473-.111-.946-.18-1.418l-.204-1.36c-.067-.443-.124-.831-.172-1.165a23.757 23.757 0 0 0-.128-.818l-.055-.304 2.198-1.064.149 1.702.062.711c.021.242.037.48.049.713l.057.655.045.516c.093-.326.203-.73.33-1.21.136-.48.26-.945.37-1.395.132-.526.266-1.082.402-1.665l2.204.299c-.33.835-.65 1.664-.962 2.487a93.128 93.128 0 0 1-.842 2.266l-.423 1.105c-.138.36-.263.693-.376 1.003-.026.246-.063.516-.112.81-.04.295-.081.575-.123.84-.057.315-.119.63-.185.945l-2.36.501Zm6.47-3.686c-.269.024-.538.056-.806.099l-.804.126c.188-1.169.368-2.332.538-3.49.18-1.159.368-2.323.566-3.492.174-.044.372-.09.592-.137.23-.048.46-.1.69-.158.228-.058.449-.11.66-.157.22-.047.404-.091.55-.132a57.109 57.109 0 0 0-1.07 3.663c-.306 1.217-.611 2.443-.915 3.678Zm.332 2.177c.015.177-.011.357-.08.541a1.387 1.387 0 0 1-.293.504 1.614 1.614 0 0 1-.53.356 2.184 2.184 0 0 1-.757.192 1.233 1.233 0 0 1-.54-.065 1.14 1.14 0 0 1-.416-.259 1.736 1.736 0 0 1-.26-.413 1.42 1.42 0 0 1-.126-.466 1.504 1.504 0 0 1 .04-.51c.041-.172.112-.324.213-.454.11-.14.244-.26.404-.359.17-.099.375-.16.617-.18.54-.047.955.047 1.248.284.291.228.451.504.48.83Z" fill="#0F2962"/>
  </g>
  <defs>
    <filter id="a" x="0" y="0" width="56" height="53.957" filterUnits="userSpaceOnUse" color-interpolation-filters="sRGB">
      <feFlood flood-opacity="0" result="BackgroundImageFix"/>
      <feColorMatrix in="SourceAlpha" values="0 0 0 0 0 0 0 0 0 0 0 0 0 0 0 0 0 0 127 0" result="hardAlpha"/>
      <feOffset dy="4"/>
      <feGaussianBlur stdDeviation="2"/>
      <feComposite in2="hardAlpha" operator="out"/>
      <feColorMatrix values="0 0 0 0 0 0 0 0 0 0 0 0 0 0 0 0 0 0 0.25 0"/>
      <feBlend in2="BackgroundImageFix" result="effect1_dropShadow_2462_37833"/>
      <feBlend in="SourceGraphic" in2="effect1_dropShadow_2462_37833" result="shape"/>
    </filter>
    <filter id="b" x="4" y="0" width="48" height="49.957" filterUnits="userSpaceOnUse" color-interpolation-filters="sRGB">
      <feFlood flood-opacity="0" result="BackgroundImageFix"/>
      <feColorMatrix in="SourceAlpha" values="0 0 0 0 0 0 0 0 0 0 0 0 0 0 0 0 0 0 127 0" result="hardAlpha"/>
      <feOffset dy="4"/>
      <feComposite in2="hardAlpha" operator="out"/>
      <feColorMatrix values="0 0 0 0 0.0588889 0 0 0 0 0.160936 0 0 0 0 0.382778 0 0 0 1 0"/>
      <feBlend in2="BackgroundImageFix" result="effect1_dropShadow_2462_37833"/>
      <feBlend in="SourceGraphic" in2="effect1_dropShadow_2462_37833" result="shape"/>
    </filter>
  </defs>
</svg>