<svg 
  viewBox="0 0 140 143" 
  fill="none"
  xmlns="http://www.w3.org/2000/svg"
  aria-hidden="true"
  focusable="false"
>
  <path fill-rule="evenodd" clip-rule="evenodd" d="m22 78-2 1.5 2.5893 20.9L.5 95v5.5l23 7.5-.0361-.541 2.8268 22.816L0 131.5v11h139.5V125l-100.6859 4.691L25 78h-3Z" fill="#C4C4C4"/>
  <path d="M56.7425 3.6292S46.5545 18.2903 45.797 47.9793c-.7576 29.6889 6.0391 83.8127 6.0391 83.8127l2.3081-.039.1203-1.828.7576-.039-.1699 1.965 2.0177.04.1629-2.057h.6726l.2974 2.253 1.7558.039.3398-2.679 40.4686-1.9.503 4.881 1.373.131.319-5.241 1.65-.039.092 5.168 2.52-.124.319-5.241 1.189-.046.092 5.47h2.018s15.172-49.787 16.022-85.5684c.849-35.7813-5.884-46.348-5.884-46.348L113.807 0l-7.604 17.3994-37.3963-.3931-6.3365-14.8576-5.7277 1.4805Z" fill="#E73B28"/>
  <path d="M46.1155 39.6202c-.3186 6.2169 2.0391 17.275 17.5158 18.8472 14.7688 1.4936 22.5779-7.3436 22.7266-16.646.1982-12.2176-6.3011-18.0479-18.0397-18.9978-14.6483-1.1661-21.7991 8.8569-22.2027 16.777" fill="#831F82"/>
  <path d="M85.8835 41.0616c-.3115 6.1382 2.0178 17.0652 17.3105 18.6178 14.585 1.4805 22.302-7.2519 22.45-16.4429.199-12.0669-6.223-17.8317-17.82-18.7488-14.4712-1.1465-21.5369 8.752-21.9476 16.5739" fill="#831F82"/>
  <path d="M52.6929 40.0259c-.2407 4.7691 1.5646 13.2591 13.4518 14.4645 11.3279 1.1464 17.3175-5.6338 17.4379-12.7678.1487-9.3744-4.8356-13.8488-13.8413-14.5628-11.2429-.8909-16.7227 6.7933-17.0413 12.8661" fill="#BF318A"/>
  <path d="M68.743 43.8653c-.092 1.8474.1204 5.1425 5.1967 5.5879 5.0763.4455 6.6905-2.1749 6.7401-4.9328.0566-3.6227-1.8691-5.3522-5.3525-5.6273-4.34-.3472-6.4639 2.6204-6.5843 4.9722Z" fill="#A9924D"/>
  <path d="M75.2778 45.7522a1.6717 1.6717 0 0 0 .032.8005c.0755.2612.2136.5034.404.7085.1904.2051.4283.368.696.4764.2677.1085.5583.1598.8504.1502 1.9328.1703 2.5488-.832 2.5629-1.8867 0-1.3823-.708-2.0374-2.039-2.1422a2.3593 2.3593 0 0 0-.9022.0506 2.2548 2.2548 0 0 0-.8031.3836c-.2359.1782-.429.4-.5669.6513a1.9067 1.9067 0 0 0-.2341.8078Z" fill="#1C052E"/>
  <path d="M91.4626 42.1354c-.2408 4.6577 1.5292 12.9381 13.1194 14.1173 11.058 1.1202 16.907-5.4963 16.991-12.4468.149-9.1714-4.715-13.5147-13.508-14.2091-10.9669-.8713-16.3264 6.6296-16.6308 12.5582" fill="#BF318A"/>
  <path d="M105.75 46.1119c-.099 1.9653.127 5.5093 5.565 5.9876 5.437.4782 7.172-2.3322 7.214-5.2867.064-3.8781-1.996-5.7321-5.728-6.0269-4.651-.3668-6.924 2.8104-7.08 5.326" fill="#A9924D"/>
  <path d="M111.577 47.8094c-.053.2655-.041.5387.035.7994.076.2606.214.5023.404.7071.19.2048.427.3677.694.4765.267.1089.557.161.849.1526 1.933.1704 2.549-.8319 2.57-1.8866 0-1.3823-.708-2.0374-2.039-2.1488a2.3686 2.3686 0 0 0-.905.0511c-.294.0751-.569.2062-.805.3851-.237.1788-.43.4013-.569.6534-.138.252-.218.528-.234.8102Z" fill="#1C052E"/>
  <path d="m80.4178 54.2816 9.6217-.2621-5.0905 10.475-4.5312-10.2129Z" fill="#F3DFD7"/>
  <path d="M86.188 66.414c-3.6887-.1376-8.4959-5.7649-22.9319-4.1927-14.436 1.5723-19.5336 13.8815-5.664 36.6854 13.8696 22.8043 21.9478 25.2803 26.7834 25.5483 4.8356.269 18.2235-10.874 25.2965-23.183 7.073-12.3096 15.576-30.9078 2.832-36.6858-12.7438-5.7779-19.2503 2.0964-26.3231 1.8343" fill="#00923D"/>
  <path d="M85.9401 72.9969c-2.6408-.0917-6.0745-4.0616-16.3971-2.9545-10.3225 1.1071-13.9758 9.8265-4.0497 25.8698 9.9261 16.0428 16.0077 19.8498 19.4486 20.0398 3.4408.19 12.7439-9.696 17.7991-18.3824 5.055-8.6866 11.137-21.8016 2.025-25.8632-9.1122-4.0616-13.7637 1.4805-18.8259 1.3102" fill="#0093D3"/>
</svg>