<svg 
  viewBox="0 0 1194 834" 
  fill="none"
  xmlns="http://www.w3.org/2000/svg"
  aria-hidden="true"
  focusable="false"
>
  <g clip-path="url(#a)">
    <path d="M516.658 831.127s-47.417-3.026-74.375-67.886c-26.13-62.926-.863-147.369-18.249-192.806-20.365-53.319-54.895-64.365-96.018-51.628-53.848 16.672-48.636 84.995-14.071 91.899 47.853 9.435 45.609-43.102 45.609-43.102s10.747-13.278 31.826 8.929c47.175 49.81-30.732 194.567-1.15 245.078 58.887 100.448 128.326 13.67 128.326 13.67l-1.898-4.154Z" fill="#BF318A"/>
    <path d="M516.658 831.127s-47.417-3.026-74.375-67.886c-26.13-62.926-.863-147.369-18.249-192.806-20.365-53.319-54.895-64.365-96.018-51.628-53.848 16.672-48.636 84.995-14.071 91.899 47.853 9.435 45.609-43.102 45.609-43.102s10.747-13.278 31.826 8.929c47.175 49.81-30.732 194.567-1.15 245.078 58.887 100.448 128.326 13.67 128.326 13.67l-1.921-4.131.023-.023Z" stroke="#1C052E" stroke-width=".52"/>
    <path d="M516.658 831.127s-55.712 41.56-92.117-10.436c-48.993-69.968 9.204-196.604-25.705-257.056-24.761-42.86-69.439-38.534-86.698-15.982-20.193 26.372-.84 48.256 16.109 46.081 19.894-2.588 18.835-26.855 18.835-26.855s14.785-6.443 32.447 6.076c33.862 23.944-67.851 200.308-22.943 262.441 56.069 77.585 161.568-.875 161.568-.875l-1.496-3.394Z" fill="#E94E24"/>
    <path d="M516.658 831.127s-55.712 41.56-92.117-10.436c-48.993-69.968 9.204-196.604-25.705-257.056-24.761-42.86-69.439-38.534-86.698-15.982-20.193 26.372-.84 48.256 16.109 46.081 19.894-2.588 18.835-26.855 18.835-26.855s14.785-6.443 32.447 6.076c33.862 23.944-67.851 200.308-22.943 262.441 56.069 77.585 161.568-.875 161.568-.875l-1.496-3.452v.058Z" stroke="#1C052E" stroke-width=".52"/>
    <path d="M517.578 832.773s-86.928 65.296-137.98 5.005c-69.347-81.969 29.306-208.547 8.48-264.823-13.968-37.947-59.716-36.957-73.086-9.032-6.329 13.232 4.775 25.198 14.785 21.286 10.01-3.912 9.734-17.685 9.734-17.685s30.376-5.304 26.544 30.054c-4.706 43.424-96.65 158.3-33.275 254.49 55.321 83.994 186.11-16.396 186.11-16.396l-1.312-2.899Z" fill="#7C61A7"/>
    <path d="M517.578 832.773s-86.928 65.296-137.98 5.005c-69.347-81.969 29.306-208.547 8.48-264.823-13.968-37.947-59.716-36.957-73.086-9.032-6.329 13.232 4.775 25.198 14.785 21.286 10.01-3.912 9.734-17.685 9.734-17.685s30.376-5.304 26.544 30.054c-4.706 43.424-96.65 158.3-33.275 254.49 55.321 83.994 186.11-16.396 186.11-16.396l-1.312-2.899Z" stroke="#1C052E" stroke-width=".52"/>
    <path d="M482.98 927.513s36.75 6.719 55.781-41.042c18.571-46.646-6.351-114.911 7.859-148.267 13.956-32.781 45.448-36.06 74.121-28.535 46.427 12.162 36.267 60.533 9.988 66.62-33.103 7.652-38.879-32.539-38.879-32.539s-14.647-4.177-22.61 17.455c-16.672 45.23 28.478 133.067 6.904 170.289-42.469 73.186-106.028 33.724-106.028 33.724l12.864-37.705Z" fill="#EF772A"/>
    <path d="M482.98 927.513s36.75 6.719 55.781-41.042c18.571-46.646-6.351-114.911 7.859-148.267 13.956-32.781 45.448-36.06 74.121-28.535 46.427 12.162 36.267 60.533 9.988 66.62-33.103 7.652-38.879-32.539-38.879-32.539s-14.647-4.177-22.61 17.455c-16.672 45.23 28.478 133.067 6.904 170.289-42.469 73.186-106.028 33.724-106.028 33.724l12.864-37.671v-.034Z" stroke="#1C052E" stroke-width=".52"/>
    <path d="M471.715 958.556s48.073 6.42 74.513-31.515c35.899-51.501-10.355-154.814 20.274-190.609 22.575-26.395 54.32-21.045 68.035-3.889 12.346 15.441 1.749 33.828-15.234 31.952-13.151-1.45-17.535-23.518-17.535-23.518s-8.641-4.959-21.976 4.499c-25.452 18.03 47.611 156.079 14.451 201.735-40.915 56.379-129.167 33.563-129.167 33.563l6.639-22.218Z" fill="#E73628"/>
    <path d="M471.715 958.556s48.073 6.42 74.513-31.515c35.899-51.501-10.355-154.814 20.274-190.609 22.575-26.395 54.32-21.045 68.035-3.889 12.346 15.441 1.749 33.828-15.234 31.952-13.151-1.45-17.535-23.518-17.535-23.518s-8.641-4.959-21.976 4.499c-25.452 18.03 47.611 156.079 14.451 201.735-40.915 56.379-129.167 33.563-129.167 33.563l6.639-22.218Z" stroke="#1C052E" stroke-width=".52"/>
    <path d="M466.871 971.557s74.974 24.98 112.276-18.766c51.317-60.188-30.111-174.362-1.219-210.71 15.418-19.411 41.594-22.253 51.339-3.337 5.178 10.034-3.831 17.121-11.598 14.13-7.766-2.992-7.214-11.437-7.214-11.437s-23.012 1.576-19.859 22.69c3.382 22.402 80.956 141.11 34.161 211.78-40.352 60.883-168.793 43.803-168.793 43.803l10.907-48.153Z" fill="#BF318A"/>
    <path d="M466.871 971.557s74.974 24.98 112.276-18.766c51.317-60.188-30.111-174.362-1.219-210.71 15.418-19.411 41.594-22.253 51.339-3.337 5.178 10.034-3.831 17.121-11.598 14.13-7.766-2.992-7.214-11.437-7.214-11.437s-23.012 1.576-19.859 22.69c3.382 22.402 80.956 141.11 34.161 211.78-40.352 60.883-168.793 43.803-168.793 43.803l10.919-48.153h-.012Z" stroke="#1C052E" stroke-width=".52"/>
    <path d="M392.139 954.298s51.49-4.222 77.827-68.852c25.521-62.615-5.108-142.157 11.196-187.709 17.454-48.809 61.66-66.505 98.388-55.148 50.085 15.475 46.496 83.039 12.3 90.897-43.24 9.884-49.994-39.281-49.994-39.281s-25.785 0-32.136 27.372c-15.338 66.195 37.854 174.363 8.733 224.541-57.887 99.792-128.201 12.288-128.201 12.288l1.887-4.108Z" fill="#F5C700"/>
    <path d="M392.139 954.298s51.49-4.222 77.827-68.852c25.521-62.615-5.108-142.157 11.196-187.709 17.454-48.809 61.66-66.505 98.388-55.148 50.085 15.475 46.496 83.039 12.3 90.897-43.24 9.884-49.994-39.281-49.994-39.281s-25.785 0-32.136 27.372c-15.338 66.195 37.854 174.363 8.733 224.541-57.887 99.792-128.201 12.288-128.201 12.288l1.887-4.108Z" stroke="#1C052E" stroke-width=".52"/>
    <path d="M392.139 954.299s56.127 42.146 92.049-9.47c48.325-69.473-11.115-196.753 23.219-256.803 24.347-42.572 69.036-37.855 86.514-15.084 20.147 26.36 1.38 47.37-15.671 45.92-19.722-1.691-22.897-27.476-22.897-27.476s-11.046-6.179-28.593 6.156c-33.632 23.621 81.221 200.365 36.923 262.038-55.321 77-173.005-1.899-173.005-1.899l1.461-3.382Z" fill="#02913A"/>
    <path d="M392.139 954.299s56.127 42.146 92.049-9.47c48.325-69.473-11.115-196.753 23.219-256.803 24.347-42.572 69.036-37.855 86.514-15.084 20.147 26.36 1.38 47.37-15.671 45.92-19.722-1.691-22.897-27.476-22.897-27.476s-11.046-6.179-28.593 6.156c-33.632 23.621 81.221 200.365 36.923 262.038-55.321 77-173.005-1.899-173.005-1.899l1.461-3.382Z" stroke="#1C052E" stroke-width=".52"/>
    <path d="M391.231 955.886s85.938 69.234 136.357 9.469c68.565-81.255-30.41-216.14-5.96-270.829 15.073-33.724 57.22-30.364 69.589-5.384 6.558 13.254-4.303 23.541-14.36 19.56-10.056-3.981-9.607-18.111-9.607-18.111s-30.595-3.716-26.763 31.722c3.221 29.801 88.47 187.468 26.026 283.047-54.504 83.4-176.56-46.483-176.56-46.483l1.278-2.991Z" fill="#2C6E1F"/>
    <path d="M391.231 955.886s85.938 69.234 136.357 9.469c68.565-81.255-30.41-216.14-5.96-270.829 15.073-33.724 57.22-30.364 69.589-5.384 6.558 13.254-4.303 23.541-14.36 19.56-10.056-3.981-9.607-18.111-9.607-18.111s-30.595-3.716-26.763 31.722c3.221 29.801 88.47 187.468 26.026 283.047-54.504 83.4-176.56-46.483-176.56-46.483l1.278-2.991Z" stroke="#1C052E" stroke-width=".52"/>
    <path d="M566.721 881.097s-33.368 4.304-54.079-47.243c-20.239-50.27 7.399-119.479-7.249-155.585-17.04-41.997-52.72-50.109-82.118-42.848-47.601 11.759-50.005 69.427-12.657 78.16 34.518 8.054 39.615-35.312 39.615-35.312s9.792-1.553 17.121 8.434c32.563 44.413-19.986 155.803 3.13 196.097 45.564 79.392 97.076 48.326 97.076 48.326l-.839-50.029Z" fill="#8160A6"/>
    <path d="M566.721 881.097s-33.368 4.304-54.079-47.243c-20.239-50.27 7.399-119.479-7.249-155.585-17.04-41.997-52.72-50.109-82.118-42.848-47.601 11.759-50.005 69.427-12.657 78.16 34.518 8.054 39.615-35.312 39.615-35.312s9.792-1.553 17.121 8.434c32.563 44.413-19.986 155.803 3.13 196.097 45.564 79.392 97.076 48.326 97.076 48.326l-.839-50.029Z" stroke="#1C052E" stroke-width=".52"/>
    <path d="M567.572 884.549s-48.889 37.97-77.09-3.349c-38.235-55.976 22.264-174.627-11.196-212.389-24.277-27.385-60.51-21.597-74.283-3.705-12.403 16.108.276 41.421 17.938 35.933 15.763-4.89 15.763-23.944 15.763-23.944s9.93-3.141 23.887 7.249c26.659 19.871-45.702 165.169-10.482 214.829 43.55 61.442 117.672-6.34 117.672-6.34l-2.209-8.284Z" fill="#E62D27"/>
    <path d="M567.572 884.549s-48.889 37.97-77.09-3.349c-38.235-55.976 22.264-174.627-11.196-212.389-24.277-27.385-60.51-21.597-74.283-3.705-12.403 16.108.276 41.421 17.938 35.933 15.763-4.89 15.763-23.944 15.763-23.944s9.93-3.141 23.887 7.249c26.659 19.871-45.702 165.169-10.482 214.829 43.55 61.442 117.672-6.34 117.672-6.34l-2.209-8.284Z" stroke="#1C052E" stroke-width=".52"/>
    <path d="M568.493 888.323s-64.595 58.612-104.153 10.816c-54.343-65.654 31.665-183.464 1.151-222.768-16.316-20.987-46.416-17.444-55.034-.955-5.431 10.355 4.821 20.929 12.76 17.938 7.94-2.992 7.744-14.095 7.744-14.095s25.313-3.188 20.975 24.68c-9.342 59.923-101.828 139.085-39.81 204.462 63.605 67.069 157.782-12.656 157.782-12.656l-1.415-7.422Z" fill="#0086CA"/>
    <path d="M568.493 888.323s-64.595 58.612-104.153 10.816c-54.343-65.654 31.665-183.464 1.151-222.768-16.316-20.987-46.416-17.444-55.034-.955-5.431 10.355 4.821 20.929 12.76 17.938 7.94-2.992 7.744-14.095 7.744-14.095s25.313-3.188 20.975 24.68c-9.342 59.923-101.828 139.085-39.81 204.462 63.605 67.069 157.782-12.656 157.782-12.656l-1.415-7.399v-.023Z" stroke="#1C052E" stroke-width=".52"/>
    <path d="M489.331 878.797s-34.714-1.726-50.96-39.604c-15.936-37.176.575-86.468-11.587-113.288-12-26.464-40.018-37.913-63.225-32.217-37.648 9.205-28.466 47.382-6.708 51.708 31.584 6.271 26.222-26.625 26.222-26.625s8.837-7.203 21.999 6.466c29.18 30.319-18.662 116.211-.437 145.816 35.669 57.887 93.026 50.028 93.026 50.028l-8.33-42.284Z" fill="#1C8145"/>
    <path d="M489.331 878.797s-34.714-1.726-50.96-39.604c-15.936-37.176.575-86.468-11.587-113.288-12-26.464-40.018-37.913-63.225-32.217-37.648 9.205-28.466 47.382-6.708 51.708 31.584 6.271 26.222-26.625 26.222-26.625s8.837-7.203 21.999 6.466c29.18 30.319-18.662 116.211-.437 145.816 35.669 57.887 93.026 50.028 93.026 50.028l-8.33-42.284Z" stroke="#1C052E" stroke-width=".52"/>
    <path d="M488.951 893.053s-47.485 4.453-69.508-25.612c-30.076-41.065 13.9-118.098-9.78-149.947-15.211-20.435-46.024-19.181-56.851-5.569-9.723 12.266 2.6 27.43 13.151 25.843 13.808-2.071 11.437-18.721 11.437-18.721s9.205-3.797 20.274 3.947c21.022 14.739-35.128 124.035-7.295 160.405 34.116 44.644 104.314 27.12 104.314 27.12l-5.742-17.466Z" fill="#6FB02A"/>
    <path d="M488.951 893.053s-47.485 4.453-69.508-25.612c-30.076-41.065 13.9-118.098-9.78-149.947-15.211-20.435-46.024-19.181-56.851-5.569-9.723 12.266 2.6 27.43 13.151 25.843 13.808-2.071 11.437-18.721 11.437-18.721s9.205-3.797 20.274 3.947c21.022 14.739-35.128 124.035-7.295 160.405 34.116 44.644 104.314 27.12 104.314 27.12l-5.753-17.477.011.011Z" stroke="#1C052E" stroke-width=".52"/>
    <path d="M493.059 903.293s-49.752 15.199-80.692-19.445c-42.802-48.003 5.27-123.506-10.355-159.773-8.284-19.146-36.198-22.506-43.723-7.421-3.993 7.996 2.129 15.717 8.388 13.404 6.259-2.312 6.029-10.677 6.029-10.677s18.789 1.541 16.661 18.409c-2.301 17.892-57.668 118.881-18.134 175.111 33.77 48.06 131.376 28.155 131.376 28.155l-9.55-37.763Z" fill="#41B6A5"/>
    <path d="M493.059 903.293s-49.752 15.199-80.692-19.445c-42.802-48.003 5.27-123.506-10.355-159.773-8.284-19.146-36.198-22.506-43.723-7.421-3.993 7.996 2.129 15.717 8.388 13.404 6.259-2.312 6.029-10.677 6.029-10.677s18.789 1.541 16.661 18.409c-2.301 17.892-57.668 118.881-18.134 175.111 33.77 48.06 131.376 28.155 131.376 28.155l-9.55-37.763Z" stroke="#1C052E" stroke-width=".52"/>
    <path d="M433.446 913.636s-31.906-13.174-54.699-65.273c-22.207-50.776-10.793-124.357-22.391-162.868-11.656-38.649-49.764-58.382-83.43-46.646-47.923 16.73-37.015 65.826-8.538 72.811 35.899 8.813 37.142-33.264 37.142-33.264s8.364-12.185 26.072 6.178c39.443 40.939-22.091 157.403 2.877 198.042 49.257 80.197 103.427 42.503 103.427 42.503l-.46-11.483Z" fill="#BF318A"/>
    <path d="M433.446 913.636s-31.906-13.174-54.699-65.273c-22.207-50.776-10.793-124.357-22.391-162.868-11.656-38.649-49.764-58.382-83.43-46.646-47.923 16.73-37.015 65.826-8.538 72.811 35.899 8.813 37.142-33.264 37.142-33.264s8.364-12.185 26.072 6.178c39.443 40.939-22.091 157.403 2.877 198.042 49.257 80.197 103.427 42.503 103.427 42.503l-.46-11.506v.023Z" stroke="#1C052E" stroke-width=".52"/>
    <path d="M433.101 890.578s-55.896 32.159-86.192-9.481c-41.065-56.379 20.458-175.237-15.602-212.977-23.633-24.726-58.036-23.15-72.844-1.403-11.633 17.075 3.912 36.474 17.811 34.679 13.899-1.795 14.693-25.106 14.693-25.106s12.081-5.109 26.832 5.293c28.19 19.87-43.815 167.78-6.064 217.832 46.749 61.96 122.609-6.087 122.609-6.087l-1.243-2.75Z" fill="#E73628"/>
    <path d="M433.101 890.578s-55.896 32.159-86.192-9.481c-41.065-56.379 20.458-175.237-15.602-212.977-23.633-24.726-58.036-23.15-72.844-1.403-11.633 17.075 3.912 36.474 17.811 34.679 13.899-1.795 14.693-25.106 14.693-25.106s12.081-5.109 26.832 5.293c28.19 19.87-43.815 167.78-6.064 217.832 46.749 61.96 122.609-6.087 122.609-6.087l-1.243-2.704v-.046Z" stroke="#1C052E" stroke-width=".52"/>
    <path d="M433.86 891.89s-69.082 56.897-111.366 8.768c-58.025-66.079 33.033-186.018.322-225.691-17.455-21.194-48.809-21.689-58.393-1.484-5.086 10.723 4.395 20.71 12.587 17.558 8.193-3.153 7.732-14.348 7.732-14.348s24.807 2.071 22.368 24.784c-2.589 24.162-68.001 150.66-14.394 228.061 46.3 66.85 142.238-35.324 142.238-35.324l-1.094-2.324Z" fill="#02913A"/>
    <path d="M433.86 891.89s-69.082 56.897-111.366 8.768c-58.025-66.079 33.033-186.018.322-225.691-17.455-21.194-48.809-21.689-58.393-1.484-5.086 10.723 4.395 20.71 12.587 17.558 8.193-3.153 7.732-14.348 7.732-14.348s24.807 2.071 22.368 24.784c-2.589 24.162-68.001 150.66-14.394 228.061 46.3 66.85 142.238-35.324 142.238-35.324l-1.094-2.301v-.023Z" stroke="#1C052E" stroke-width=".52"/>
    <path d="M454.192 958.66s-35.358-3.923-52.836-45.081c-17.133-40.363 2.301-94.107-10.701-123.114-12.852-28.581-39.12-36.612-63.191-30.974-38.982 9.205-31.377 59.762-8.894 65.745 28.259 7.537 26.867-28.132 26.867-28.132s10.067-8.538 23.012 7.387c18.881 23.299-17.743 124.737 1.657 157.011 37.969 63.188 79.805 7.744 79.805 7.744l4.281-10.586Z" fill="#954F9A"/>
    <path d="M454.192 958.66s-35.358-3.923-52.836-45.081c-17.133-40.363 2.301-94.107-10.701-123.114-12.852-28.581-39.12-36.612-63.191-30.974-38.982 9.205-31.377 59.762-8.894 65.745 28.259 7.537 26.867-28.132 26.867-28.132s10.067-8.538 23.012 7.387c18.881 23.299-17.743 124.737 1.657 157.011 37.969 63.188 79.805 7.744 79.805 7.744l4.327-10.597-.046.011Z" stroke="#1C052E" stroke-width=".52"/>
    <path d="M454.192 958.66s-47.946 34.702-71.338 1.818c-31.906-44.874 12.208-136.473-10.677-171.647-11.449-17.593-43.424-24.473-59.659-4.867-10.356 12.565-.575 35.83 15.43 33.241 10.953-1.772 11.632-19.906 11.632-19.906s9.527-3.912 21.114 4.603c22.08 16.281-34.749 132.848-5.305 172.625 36.175 48.873 95.109-4.902 95.109-4.902l3.694-10.965Z" fill="#F5C700"/>
    <path d="M454.192 958.66s-47.946 34.702-71.338 1.818c-31.906-44.874 12.208-136.473-10.677-171.647-11.449-17.593-43.424-24.473-59.659-4.867-10.356 12.565-.575 35.83 15.43 33.241 10.953-1.772 11.632-19.906 11.632-19.906s9.527-3.912 21.114 4.603c22.08 16.281-34.749 132.848-5.305 172.625 36.175 48.873 95.109-4.902 95.109-4.902l3.694-10.965Z" stroke="#1C052E" stroke-width=".52"/>
    <path d="M452.696 958.659s-51.628 55.911-84.305 17.938c-45.23-52.617 18.594-151.879-6.903-183.935-13.681-17.202-36.693-14.037-44.333 2.025-4.027 8.514 3.452 16.603 9.906 14.244 6.455-2.358 6.122-11.368 6.122-11.368s21.792-3.451 17.569 20.136c-5.074 28.316-63.398 128.051-11.782 180.392 52.479 53.219 110.182-26.165 110.182-26.165l3.544-13.267Z" fill="#E73B23"/>
    <path d="M452.696 958.659s-51.628 55.911-84.305 17.938c-45.23-52.617 18.594-151.879-6.903-183.935-13.681-17.202-36.693-14.037-44.333 2.025-4.027 8.514 3.452 16.603 9.906 14.244 6.455-2.358 6.122-11.368 6.122-11.368s21.792-3.451 17.569 20.136c-5.074 28.316-63.398 128.051-11.782 180.392 52.479 53.219 110.182-26.165 110.182-26.165l3.544-13.267Z" stroke="#1C052E" stroke-width=".52"/>
    <path d="M1045.96 790.735s-50.949-3.251-79.915-72.939c-28.075-67.611-.927-158.34-19.607-207.16-21.882-57.288-58.982-69.156-103.166-55.471-57.856 17.913-52.256 91.322-15.119 98.74 51.416 10.137 49.005-46.31 49.005-46.31s11.547-14.267 34.195 9.593c50.687 53.518-33.02 209.051-1.236 263.323C973.389 888.437 1048 795.198 1048 795.198l-2.04-4.463Z" fill="#BF318A"/>
    <path d="M1045.96 790.735s-50.949-3.251-79.915-72.939c-28.075-67.611-.927-158.34-19.607-207.16-21.882-57.288-58.982-69.156-103.166-55.471-57.856 17.913-52.256 91.322-15.119 98.74 51.416 10.137 49.005-46.31 49.005-46.31s11.547-14.267 34.195 9.593c50.687 53.518-33.02 209.051-1.236 263.323C973.389 888.437 1048 795.198 1048 795.198l-2.07-4.438.03-.025Z" stroke="#1C052E" stroke-width=".52"/>
    <path d="M1045.96 790.735s-59.863 44.654-98.978-11.212c-52.64-75.177 9.89-211.24-27.618-276.193-26.604-46.051-74.608-41.402-93.152-17.172-21.696 28.336-.902 51.849 17.308 49.513 21.375-2.782 20.237-28.855 20.237-28.855s15.886-6.923 34.863 6.528c36.383 25.726-72.902 215.22-24.651 281.978 60.243 83.361 173.591-.94 173.591-.94l-1.6-3.647Z" fill="#E94E24"/>
    <path d="M1045.96 790.735s-59.863 44.654-98.978-11.212c-52.64-75.177 9.89-211.24-27.618-276.193-26.604-46.051-74.608-41.402-93.152-17.172-21.696 28.336-.902 51.849 17.308 49.513 21.375-2.782 20.237-28.855 20.237-28.855s15.886-6.923 34.863 6.528c36.383 25.726-72.902 215.22-24.651 281.978 60.243 83.361 173.591-.94 173.591-.94l-1.6-3.708v.061Z" stroke="#1C052E" stroke-width=".52"/>
    <path d="M1046.95 792.504s-93.403 70.157-148.256 5.377c-74.509-88.071 31.487-224.072 9.111-284.537-15.008-40.772-64.162-39.709-78.527-9.705-6.799 14.217 5.13 27.075 15.886 22.871 10.755-4.203 10.459-19.001 10.459-19.001s32.637-5.699 28.52 32.291c-5.056 46.656-103.846 170.084-35.753 273.436 59.44 90.246 199.97-17.617 199.97-17.617l-1.41-3.115Z" fill="#7C61A7"/>
    <path d="M1046.95 792.504s-93.403 70.157-148.256 5.377c-74.509-88.071 31.487-224.072 9.111-284.537-15.008-40.772-64.162-39.709-78.527-9.705-6.799 14.217 5.13 27.075 15.886 22.871 10.755-4.203 10.459-19.001 10.459-19.001s32.637-5.699 28.52 32.291c-5.056 46.656-103.846 170.084-35.753 273.436 59.44 90.246 199.97-17.617 199.97-17.617l-1.41-3.115Z" stroke="#1C052E" stroke-width=".52"/>
    <path d="M1004.77 886.296s39.49 7.22 59.94-44.097c19.95-50.118-6.83-123.465 8.44-159.304 15-35.221 48.83-38.745 79.64-30.66 49.88 13.068 38.97 65.04 10.73 71.58-35.57 8.221-41.77-34.962-41.77-34.962s-15.74-4.487-24.3 18.754c-17.91 48.598 30.6 142.974 7.42 182.967-45.63 78.638-113.92 36.234-113.92 36.234l13.82-40.512Z" fill="#EF772A"/>
    <path d="M1004.77 886.296s39.49 7.22 59.94-44.097c19.95-50.118-6.83-123.465 8.44-159.304 15-35.221 48.83-38.745 79.64-30.66 49.88 13.068 38.97 65.04 10.73 71.58-35.57 8.221-41.77-34.962-41.77-34.962s-15.74-4.487-24.3 18.754c-17.91 48.598 30.6 142.974 7.42 182.967-45.63 78.638-113.92 36.234-113.92 36.234l13.82-40.475v-.037Z" stroke="#1C052E" stroke-width=".52"/>
    <path d="M992.669 919.651s51.651 6.898 80.061-33.861c38.57-55.335-11.13-166.339 21.78-204.799 24.26-28.36 58.37-22.611 73.1-4.179 13.27 16.591 1.88 36.346-16.37 34.331-14.13-1.557-18.84-25.269-18.84-25.269s-9.28-5.328-23.61 4.834c-27.35 19.372 51.16 167.698 15.53 216.753-43.96 60.577-138.784 36.062-138.784 36.062l7.133-23.872Z" fill="#E73628"/>
    <path d="M992.669 919.651s51.651 6.898 80.061-33.861c38.57-55.335-11.13-166.339 21.78-204.799 24.26-28.36 58.37-22.611 73.1-4.179 13.27 16.591 1.88 36.346-16.37 34.331-14.13-1.557-18.84-25.269-18.84-25.269s-9.28-5.328-23.61 4.834c-27.35 19.372 51.16 167.698 15.53 216.753-43.96 60.577-138.784 36.062-138.784 36.062l7.133-23.872Z" stroke="#1C052E" stroke-width=".52"/>
    <path d="M987.464 933.62s80.556 26.839 120.636-20.163c55.14-64.669-32.35-187.343-1.31-226.396 16.56-20.856 44.69-23.91 55.16-3.586 5.56 10.781-4.12 18.396-12.46 15.182-8.35-3.215-7.75-12.289-7.75-12.289s-24.73 1.694-21.34 24.379c3.63 24.07 86.98 151.615 36.7 227.546-43.35 65.407-181.356 47.064-181.356 47.064l11.72-51.737Z" fill="#BF318A"/>
    <path d="M987.464 933.62s80.556 26.839 120.636-20.163c55.14-64.669-32.35-187.343-1.31-226.396 16.56-20.856 44.69-23.91 55.16-3.586 5.56 10.781-4.12 18.396-12.46 15.182-8.35-3.215-7.75-12.289-7.75-12.289s-24.73 1.694-21.34 24.379c3.63 24.07 86.98 151.615 36.7 227.546-43.35 65.407-181.356 47.064-181.356 47.064l11.732-51.737h-.012Z" stroke="#1C052E" stroke-width=".52"/>
    <path d="M907.169 915.076s55.323-4.537 83.621-73.978c27.42-67.277-5.489-152.739 12.03-201.683 18.75-52.442 66.25-71.455 105.71-59.254 53.82 16.628 49.96 89.221 13.22 97.665-46.46 10.619-53.72-42.206-53.72-42.206s-27.7 0-34.53 29.411c-16.48 71.122 40.68 187.342 9.39 241.255-62.2 107.224-137.748 13.204-137.748 13.204l2.027-4.414Z" fill="#F5C700"/>
    <path d="M907.169 915.076s55.323-4.537 83.621-73.978c27.42-67.277-5.489-152.739 12.03-201.683 18.75-52.442 66.25-71.455 105.71-59.254 53.82 16.628 49.96 89.221 13.22 97.665-46.46 10.619-53.72-42.206-53.72-42.206s-27.7 0-34.53 29.411c-16.48 71.122 40.68 187.342 9.39 241.255-62.2 107.224-137.748 13.204-137.748 13.204l2.027-4.414Z" stroke="#1C052E" stroke-width=".52"/>
    <path d="M907.169 915.076s60.305 45.284 98.901-10.175c51.92-74.645-11.942-211.4 24.95-275.92 26.16-45.742 74.17-40.673 92.95-16.207 21.65 28.322 1.49 50.896-16.84 49.339-21.19-1.818-24.6-29.522-24.6-29.522s-11.87-6.639-30.72 6.614c-36.13 25.38 87.27 215.282 39.67 281.545-59.44 82.73-185.881-2.04-185.881-2.04l1.57-3.634Z" fill="#02913A"/>
    <path d="M907.169 915.076s60.305 45.284 98.901-10.175c51.92-74.645-11.942-211.4 24.95-275.92 26.16-45.742 74.17-40.673 92.95-16.207 21.65 28.322 1.49 50.896-16.84 49.339-21.19-1.818-24.6-29.522-24.6-29.522s-11.87-6.639-30.72 6.614c-36.13 25.38 87.27 215.282 39.67 281.545-59.44 82.73-185.881-2.04-185.881-2.04l1.57-3.634Z" stroke="#1C052E" stroke-width=".52"/>
    <path d="M906.193 916.782s92.336 74.385 146.507 10.174c73.67-87.304-32.67-232.231-6.4-290.99 16.19-36.235 61.48-32.625 74.77-5.786 7.04 14.242-4.63 25.294-15.43 21.016-10.81-4.277-10.32-19.458-10.32-19.458s-32.88-3.993-28.76 34.083c3.46 32.019 95.06 201.424 27.96 304.12-58.56 89.599-189.7-49.945-189.7-49.945l1.373-3.214Z" fill="#2C6E1F"/>
    <path d="M906.193 916.782s92.336 74.385 146.507 10.174c73.67-87.304-32.67-232.231-6.4-290.99 16.19-36.235 61.48-32.625 74.77-5.786 7.04 14.242-4.63 25.294-15.43 21.016-10.81-4.277-10.32-19.458-10.32-19.458s-32.88-3.993-28.76 34.083c3.46 32.019 95.06 201.424 27.96 304.12-58.56 89.599-189.7-49.945-189.7-49.945l1.373-3.214Z" stroke="#1C052E" stroke-width=".52"/>
    <path d="M1011.6 833.954s-37.302-1.854-54.758-42.552c-17.122-39.944.618-92.905-12.449-121.722-12.894-28.434-42.997-40.735-67.933-34.615-40.45 9.89-30.585 50.909-7.207 55.557 33.935 6.738 28.174-28.607 28.174-28.607s9.495-7.739 23.638 6.948c31.351 32.575-20.052 124.862-.47 156.671 38.324 62.196 99.955 53.752 99.955 53.752l-8.95-45.432Z" fill="#1C8145"/>
    <path d="M1011.6 833.954s-37.302-1.854-54.758-42.552c-17.122-39.944.618-92.905-12.449-121.722-12.894-28.434-42.997-40.735-67.933-34.615-40.45 9.89-30.585 50.909-7.207 55.557 33.935 6.738 28.174-28.607 28.174-28.607s9.495-7.739 23.638 6.948c31.351 32.575-20.052 124.862-.47 156.671 38.324 62.196 99.955 53.752 99.955 53.752l-8.95-45.432Z" stroke="#1C052E" stroke-width=".52"/>
    <path d="M1011.19 849.271s-51.022 4.785-74.684-27.519c-32.316-44.122 14.934-126.889-10.509-161.109-16.343-21.956-49.45-20.609-61.083-5.984-10.447 13.179 2.794 29.473 14.13 27.767 14.835-2.225 12.289-20.114 12.289-20.114s9.89-4.08 21.783 4.24c22.586 15.837-37.743 133.269-7.838 172.347 36.655 47.967 112.082 29.139 112.082 29.139l-6.17-18.767Z" fill="#6FB02A"/>
    <path d="M1011.19 849.271s-51.022 4.785-74.684-27.519c-32.316-44.122 14.934-126.889-10.509-161.109-16.343-21.956-49.45-20.609-61.083-5.984-10.447 13.179 2.794 29.473 14.13 27.767 14.835-2.225 12.289-20.114 12.289-20.114s9.89-4.08 21.783 4.24c22.586 15.837-37.743 133.269-7.838 172.347 36.655 47.967 112.082 29.139 112.082 29.139l-6.18-18.779.01.012Z" stroke="#1C052E" stroke-width=".52"/>
    <path d="M1015.6 860.274s-53.455 16.331-86.698-20.893c-45.988-51.577 5.662-132.7-11.126-171.667-8.901-20.571-38.893-24.181-46.978-7.974-4.29 8.592 2.287 16.888 9.013 14.403 6.725-2.485 6.478-11.473 6.478-11.473s20.188 1.657 17.901 19.781c-2.473 19.223-61.962 127.73-19.484 188.146 36.284 51.638 141.154 30.251 141.154 30.251l-10.26-40.574Z" fill="#41B6A5"/>
    <path d="M1015.6 860.274s-53.455 16.331-86.698-20.893c-45.988-51.577 5.662-132.7-11.126-171.667-8.901-20.571-38.893-24.181-46.978-7.974-4.29 8.592 2.287 16.888 9.013 14.403 6.725-2.485 6.478-11.473 6.478-11.473s20.188 1.657 17.901 19.781c-2.473 19.223-61.962 127.73-19.484 188.146 36.284 51.638 141.154 30.251 141.154 30.251l-10.26-40.574Z" stroke="#1C052E" stroke-width=".52"/>
    <path d="M973.841 919.762s-37.991-4.216-56.769-48.436c-18.408-43.368 2.472-101.114-11.498-132.28-13.809-30.709-42.032-39.338-67.895-33.28-41.884 9.89-33.713 64.211-9.556 70.64 30.362 8.097 28.866-30.227 28.866-30.227s10.818-9.173 24.726 7.937c20.287 25.034-19.064 134.023 1.78 168.7 40.796 67.895 85.747 8.32 85.747 8.32l4.599-11.374Z" fill="#954F9A"/>
    <path d="M973.841 919.762s-37.991-4.216-56.769-48.436c-18.408-43.368 2.472-101.114-11.498-132.28-13.809-30.709-42.032-39.338-67.895-33.28-41.884 9.89-33.713 64.211-9.556 70.64 30.362 8.097 28.866-30.227 28.866-30.227s10.818-9.173 24.726 7.937c20.287 25.034-19.064 134.023 1.78 168.7 40.796 67.895 85.747 8.32 85.747 8.32l4.648-11.386-.049.012Z" stroke="#1C052E" stroke-width=".52"/>
    <path d="M973.84 919.763s-51.514 37.285-76.648 1.953c-34.281-48.214 13.117-146.633-11.472-184.425-12.301-18.903-46.656-26.295-64.1-5.23-11.126 13.5-.618 38.498 16.578 35.716 11.769-1.904 12.499-21.387 12.499-21.387s10.236-4.204 22.685 4.945c23.724 17.493-37.335 142.738-5.699 185.476 38.868 52.516 102.189-5.267 102.189-5.267l3.968-11.781Z" fill="#F5C700"/>
    <path d="M973.84 919.763s-51.514 37.285-76.648 1.953c-34.281-48.214 13.117-146.633-11.472-184.425-12.301-18.903-46.656-26.295-64.1-5.23-11.126 13.5-.618 38.498 16.578 35.716 11.769-1.904 12.499-21.387 12.499-21.387s10.236-4.204 22.685 4.945c23.724 17.493-37.335 142.738-5.699 185.476 38.868 52.516 102.189-5.267 102.189-5.267l3.968-11.781Z" stroke="#1C052E" stroke-width=".52"/>
    <path d="M972.233 919.761s-55.471 60.07-90.58 19.274c-48.598-56.534 19.978-163.186-7.418-197.629-14.699-18.482-39.424-15.082-47.633 2.176-4.327 9.149 3.709 17.84 10.644 15.305 6.936-2.534 6.577-12.214 6.577-12.214s23.415-3.709 18.878 21.634c-5.452 30.425-68.118 137.584-12.659 193.821 56.385 57.182 118.384-28.112 118.384-28.112l3.807-14.255Z" fill="#E73B23"/>
    <path d="M972.233 919.761s-55.471 60.07-90.58 19.274c-48.598-56.534 19.978-163.186-7.418-197.629-14.699-18.482-39.424-15.082-47.633 2.176-4.327 9.149 3.709 17.84 10.644 15.305 6.936-2.534 6.577-12.214 6.577-12.214s23.415-3.709 18.878 21.634c-5.452 30.425-68.118 137.584-12.659 193.821 56.385 57.182 118.384-28.112 118.384-28.112l3.807-14.255Z" stroke="#1C052E" stroke-width=".52"/>
    <path d="M-57 894.402s57.4-32.17 84.54-97.51c26.3-63.28 9.06-135.9 26.56-181.66 20.49-53.63 63.29-66.51 100.77-57.68 55.22 13 56.1 86.12 16.24 96.45-43.41 11.26-50-41-50-41s-24.25 16.42-29.24 49.9c-10.17 68.33 32.34 153.52 2.51 204.33-59.27 101.09-131.92 52.51-131.92 52.51L-57 894.402Z" fill="#1C8145"/>
    <path d="M-57 894.402s57.4-32.17 84.54-97.51c26.3-63.28 9.06-135.9 26.56-181.66 20.49-53.63 63.29-66.51 100.77-57.68 55.22 13 56.1 86.12 16.24 96.45-43.41 11.26-50-41-50-41s-24.25 16.42-29.24 49.9c-10.17 68.33 32.34 153.52 2.51 204.33-59.27 101.09-131.92 52.51-131.92 52.51L-57 894.402Z" stroke="#1C052E" stroke-width=".49"/>
    <path d="M-32.79 919.331s56-.67 92.65-53c49.35-70.42-12.14-201.7 24.18-261.85 22.79-37.75 71.55-35.63 88.93-12.94 20.32 26.54.83 48.68-16.2 46.38-20.73-2.81-20.73-32.69-20.73-32.69s-30.63 4.24-32.77 49.12c-2 41.72 59.85 171.47 14.66 234-56.43 78.08-149.29 71.58-149.29 71.58l-1.43-40.6Z" fill="#6FB02A"/>
    <path d="M-32.79 919.331s56-.67 92.65-53c49.35-70.42-12.14-201.7 24.18-261.85 22.79-37.75 71.55-35.63 88.93-12.94 20.32 26.54.83 48.68-16.2 46.38-20.73-2.81-20.73-32.69-20.73-32.69s-30.63 4.24-32.77 49.12c-2 41.72 59.85 171.47 14.66 234-56.43 78.08-149.29 71.58-149.29 71.58l-1.43-40.6Z" stroke="#1C052E" stroke-width=".49"/>
    <path d="M-31.36 953.522s76.89-17.68 128.22-78.35c69.8-82.5-28.64-207.37.2-260.9 19.32-35.84 60.85-31.37 73.06-6.36 6.48 13.32-4.8 25.37-14.91 21.43-10.11-3.94-9.79-17.8-9.79-17.8s-30.21-5.38-26.68 30.25c3 30 83.92 157.94 20.15 254.75-55.68 84.51-172.39 81.91-172.39 81.91l2.14-24.93Z" fill="#0086CA"/>
    <path d="M-31.36 953.522s76.89-17.68 128.22-78.35c69.8-82.5-28.64-207.37.2-260.9 19.32-35.84 60.85-31.37 73.06-6.36 6.48 13.32-4.8 25.37-14.91 21.43-10.11-3.94-9.79-17.8-9.79-17.8s-30.21-5.38-26.68 30.25c3 30 83.92 157.94 20.15 254.75-55.68 84.51-172.39 81.91-172.39 81.91l2.14-24.93Z" stroke="#1C052E" stroke-width=".49"/>
    <path d="M320.71 897.602s-55.95 2.78-69.39-28.54c-13.18-30.74-7.14-77.11-17.2-99.28-9.93-21.87-28-28.49-47.23-23.94-34.06 8.07-29.76 47.23-7.63 52.46 22.43 5.31 26.08-19.73 26.08-19.73s14 6.4 13.5 22.08c-1.31 39-15.14 77.09-.07 101.57 29.48 47.86 70.91 22.49 70.91 22.49l31.03-27.11Z" fill="#7A6AAD"/>
    <path d="M320.71 897.602s-55.95 2.78-69.39-28.54c-13.18-30.74-7.14-77.11-17.2-99.28-9.93-21.87-28-28.49-47.23-23.94-34.06 8.07-29.76 47.23-7.63 52.46 22.43 5.31 26.08-19.73 26.08-19.73s14 6.4 13.5 22.08c-1.31 39-15.14 77.09-.07 101.57 29.48 47.86 70.91 22.49 70.91 22.49l31-27.11h.03Z" stroke="#1C052E" stroke-width=".49"/>
    <path d="M288.53 920.402s-31.54 1.81-49.76-23.05c-24.87-34 1.48-110-20.58-133.11-14.54-15.25-34.86-11-43.92 1-8.43 11.14.55 29.41 12.55 26.74 10.89-2.43 13.32-17.91 13.32-17.91s13.13 0 13.13 12.47c0 21.23-29.28 95.79-6.29 125.87 28.23 36.93 86.23 22.44 86.23 22.44l-4.68-14.45Z" fill="#C6428B"/>
    <path d="M288.53 920.402s-31.54 1.81-49.76-23.05c-24.87-34 1.48-110-20.58-133.11-14.54-15.25-34.86-11-43.92 1-8.43 11.14.55 29.41 12.55 26.74 10.89-2.43 13.32-17.91 13.32-17.91s13.13 0 13.13 12.47c0 21.23-29.28 95.79-6.29 125.87 28.23 36.93 86.23 22.44 86.23 22.44l-4.71-14.45h.03Z" stroke="#1C052E" stroke-width=".49"/>
    <path d="M291.92 928.862s-47.9 13.53-73.45-15.12c-35.4-39.69 14.68-119.63-6-143.31-10-11.44-27.7-11.59-33.85 1-3.25 6.63 0 13.6 7.12 13.17 5.95-.37 8.53-9.52 8.53-9.52s13 2.93 11.9 17c-2.11 27.58-51.8 98.61-19.12 145.11 27.93 39.75 112.8 23 112.8 23l-7.93-31.33Z" fill="#E94E24"/>
    <path d="M291.92 928.862s-47.9 13.53-73.45-15.12c-35.4-39.69 14.68-119.63-6-143.31-10-11.44-27.7-11.59-33.85 1-3.25 6.63 0 13.6 7.12 13.17 5.95-.37 8.53-9.52 8.53-9.52s13 2.93 11.9 17c-2.11 27.58-51.8 98.61-19.12 145.11 27.93 39.75 112.8 23 112.8 23l-7.9-31.23-.03-.1Z" stroke="#1C052E" stroke-width=".49"/>
    <path d="M887.935 833.402s-57.4-32.17-84.54-97.51c-26.3-63.28-9.06-135.9-26.56-181.66-20.49-53.63-63.29-66.51-100.77-57.68-55.22 13-56.1 86.12-16.24 96.45 43.41 11.26 50-41 50-41s24.25 16.42 29.24 49.9c10.17 68.33-32.34 153.52-2.51 204.33 59.27 101.09 131.92 52.51 131.92 52.51l19.46-25.34Z" fill="#1C8145"/>
    <path d="M887.935 833.402s-57.4-32.17-84.54-97.51c-26.3-63.28-9.06-135.9-26.56-181.66-20.49-53.63-63.29-66.51-100.77-57.68-55.22 13-56.1 86.12-16.24 96.45 43.41 11.26 50-41 50-41s24.25 16.42 29.24 49.9c10.17 68.33-32.34 153.52-2.51 204.33 59.27 101.09 131.92 52.51 131.92 52.51l19.46-25.34Z" stroke="#1C052E" stroke-width=".49"/>
    <path d="M863.725 858.331s-56-.67-92.65-53c-49.35-70.42 12.14-201.7-24.18-261.85-22.79-37.75-71.55-35.63-88.93-12.94-20.32 26.54-.83 48.68 16.2 46.38 20.73-2.81 20.73-32.69 20.73-32.69s30.63 4.24 32.77 49.12c2 41.72-59.85 171.47-14.66 234 56.43 78.08 149.29 71.58 149.29 71.58l1.43-40.6Z" fill="#6FB02A"/>
    <path d="M863.725 858.331s-56-.67-92.65-53c-49.35-70.42 12.14-201.7-24.18-261.85-22.79-37.75-71.55-35.63-88.93-12.94-20.32 26.54-.83 48.68 16.2 46.38 20.73-2.81 20.73-32.69 20.73-32.69s30.63 4.24 32.77 49.12c2 41.72-59.85 171.47-14.66 234 56.43 78.08 149.29 71.58 149.29 71.58l1.43-40.6Z" stroke="#1C052E" stroke-width=".49"/>
    <path d="M862.295 892.522s-76.89-17.68-128.22-78.35c-69.8-82.5 28.64-207.37-.2-260.9-19.32-35.84-60.85-31.37-73.06-6.36-6.48 13.32 4.8 25.37 14.91 21.43 10.11-3.94 9.79-17.8 9.79-17.8s30.21-5.38 26.68 30.25c-3 30-83.92 157.94-20.15 254.75 55.68 84.51 172.39 81.91 172.39 81.91l-2.14-24.93Z" fill="#0086CA"/>
    <path d="M862.295 892.522s-76.89-17.68-128.22-78.35c-69.8-82.5 28.64-207.37-.2-260.9-19.32-35.84-60.85-31.37-73.06-6.36-6.48 13.32 4.8 25.37 14.91 21.43 10.11-3.94 9.79-17.8 9.79-17.8s30.21-5.38 26.68 30.25c-3 30-83.92 157.94-20.15 254.75 55.68 84.51 172.39 81.91 172.39 81.91l-2.14-24.93Z" stroke="#1C052E" stroke-width=".49"/>
  </g>
  <defs>
    <clipPath id="a">
      <path fill="#fff" d="M0 0h1194v834H0z"/>
    </clipPath>
  </defs>
</svg>