<svg xmlns="http://www.w3.org/2000/svg" xmlns:xlink="http://www.w3.org/1999/xlink" viewBox="0 0 170.08 283.46"><defs><clipPath id="a749657c-a020-47b8-a25c-162d58f661d7"><polygon points="66.13 173.83 94.62 231.63 98.31 229.96 70 172.2 66.13 173.83" style="fill:#3f2d28"/></clipPath></defs><g id="bac418c2-e382-4e58-bca0-38f86f905926" data-name="TROLLSPÖ"><polygon points="66.13 173.83 94.62 231.63 98.31 229.96 70 172.2 66.13 173.83" style="fill:#3f2d28"/><g style="clip-path:url(#a749657c-a020-47b8-a25c-162d58f661d7)"><polygon points="64.8 183.24 77.01 176.93 69.48 163.29 59.1 166.96 64.8 183.24" style="fill:#f9f6ef"/><polygon points="95 241.88 106.29 234.04 97.05 221.5 87.23 226.48 95 241.88" style="fill:#f9f6ef"/></g><path d="M61.34,208.37s1.22-4.16,2.76-5.75c1.06-1.11,6.14-6,7.93-7.35,1.42-1.07,12.15-9.39,12.15-9.39s2.59,2,.44,4.38c-1.57,1.76-7.28,6.89-7.55,7.1s-.12,1.37.67.81c.56-.41,13.09-7.94,13.09-7.94s1.65,2.51-.11,4.18c-2.37,2.25-10.08,7.21-10.63,7.65s.09.9.56.59c.63-.41,13.37-7.72,13.37-7.72s1.81,3.39-.92,5c-2.19,1.34-9.62,6.78-10,7-.51.36-.26,1.06.54.57.35-.22,3.34-1.53,10-5,0,0,1.36,2.94-1,4.7-1,.76-9.43,4.91-11.69,6.42a33.25,33.25,0,0,1-8.08,4,25.79,25.79,0,0,0-6,3.18Z" style="fill:current"/></g></svg>