<svg xmlns="http://www.w3.org/2000/svg" xmlns:xlink="http://www.w3.org/1999/xlink" viewBox="0 0 170.08 283.46"><defs><clipPath id="fa9ef86e-4b87-42f9-b684-a2e2efaaf3f8"><path d="M42.42,84.43s27.66.23,44.59.23,40.06-1,40.06-1,.08-18.71-12-33.76S88.1,29.57,84.52,29.8c-4.33.27-23.9,8.84-32.47,19.92S42.42,84.43,42.42,84.43Z" style="fill:#fcc200"/></clipPath></defs><g id="b2a895f8-3023-42ec-a4d1-f8ca6d5a5248" data-name="VIKINGHJALM"><path d="M42.42,84.43s27.66.23,44.59.23,40.06-1,40.06-1,.08-18.71-12-33.76S88.1,29.57,84.52,29.8c-4.33.27-23.9,8.84-32.47,19.92S42.42,84.43,42.42,84.43Z" style="fill:#fcc200"/><g style="clip-path:url(#fa9ef86e-4b87-42f9-b684-a2e2efaaf3f8)"><path d="M38.36,73.6c30.5.29,30.49.3,47.6,0,21.49-.34,46.4-.44,46.4-.44L133.72,96,36.8,92.56Z" style="fill:#a9bdb1"/></g><path d="M138.48,25.19c-2.07-.08-4.34,11.89-14.85,19.77a51.06,51.06,0,0,1-8.76,5.53s-.8,2.53,0,7.72,4.42,10.93,4.42,10.93,10.61-6.41,15-15.06C141.83,39.21,140.56,25.26,138.48,25.19Z" style="fill:#a9bdb1"/><path d="M30.41,25.41c2.07-.07,4.34,11.89,14.85,19.77A50.82,50.82,0,0,0,54,50.72s.8,2.52,0,7.71-4.42,10.93-4.42,10.93S39,63,34.58,54.3C27.06,39.44,28.34,25.49,30.41,25.41Z" style="fill:#a9bdb1"/><path d="M85.75,58.59c-2.88-.66-7.17,1.06-7.28,5.32A5.94,5.94,0,0,0,84,70.12a5.84,5.84,0,0,0,1.77-11.53" style="fill:#e6f1e2"/><path d="M86,46.33c-2-.46-5,.74-5.09,3.72a4.15,4.15,0,0,0,3.85,4.33A4.08,4.08,0,0,0,86,46.33" style="fill:#1eac8d"/><path d="M85.87,35.89a3.05,3.05,0,1,0,2.38,3.39,3,3,0,0,0-2.38-3.39" style="fill:#71c8e5"/></g></svg>