<svg xmlns="http://www.w3.org/2000/svg" viewBox="0 0 170.08 283.46"><g id="aaa21b73-ae44-4c72-b559-955982b2ea4f" data-name="ASSESOARER"><path d="M42.76,84.31l1.36,11.53s22.63-2.2,39.64-2.69c17.64-.51,41.6,2.39,41.6,2.39l-.08-12.21A58.94,58.94,0,0,0,84,67.29,61.13,61.13,0,0,0,42.76,84.31Z" style="fill:#0083c9"/><path d="M83.34,90.82h-.09A9.18,9.18,0,0,1,76.65,88a11.5,11.5,0,0,1,.27-15.87,11.28,11.28,0,0,1,8.17-3.15A12.21,12.21,0,0,1,94,72.69a14.86,14.86,0,0,1,4,8.33,1.1,1.1,0,0,1-2.18.3,12.73,12.73,0,0,0-3.4-7.11,10.07,10.07,0,0,0-7.28-3.07H85a9,9,0,0,0-6.77,15.3,7,7,0,0,0,5,2.18h.07a7.34,7.34,0,0,0,5.21-2.19,6.37,6.37,0,0,0,.18-8.83,4.79,4.79,0,0,0-3.42-1.49h0a5,5,0,0,0-3.55,1.5,4.3,4.3,0,0,0-.12,6,3.13,3.13,0,0,0,2.25,1,3.37,3.37,0,0,0,2.38-1,2.79,2.79,0,0,0,.09-3.87,1.1,1.1,0,0,1,0-1.56,1.09,1.09,0,0,1,1.55,0,5,5,0,0,1-.11,6.94,5.46,5.46,0,0,1-3.9,1.64h-.06A5.29,5.29,0,0,1,80,85.08a6.51,6.51,0,0,1,.15-9,7.09,7.09,0,0,1,10.17,0A8.59,8.59,0,0,1,90.11,88,9.52,9.52,0,0,1,83.34,90.82Z" style="fill:#3bb4e7"/></g></svg>