<svg viewBox="0 0 2144 51" fill="none" xmlns="http://www.w3.org/2000/svg">
	<g filter="url(#a)">
		<path d="M0 44.162c0 2.206 1.436 3.994 3.641 4 63.352.147 932.891 2.165 998.409 2.165 57.02 0 67.56-4.264 69.47-5.642.33-.235.42-.628.42-1.03V.327H0v43.835Z" fill="url(#b)" />
	</g>
	<g filter="url(#c)">
		<path d="M2144 44.162c0 2.206-1.44 3.994-3.64 4-63.35.147-932.89 2.165-998.41 2.165-57.02 0-67.56-4.264-69.47-5.642-.33-.235-.42-.628-.42-1.03V.327H2144v43.835Z" fill="url(#d)" />
	</g>
	<defs>
		<linearGradient id="b" x1="1032.56" y1="-53.664" x2="1072.06" y2="-53.664" gradientUnits="userSpaceOnUse">
			<stop stop-color="#fff" />
			<stop offset="1" stop-color="#ECECEC" />
		</linearGradient>
		<linearGradient id="d" x1="1111.44" y1="-53.664" x2="1071.94" y2="-53.664" gradientUnits="userSpaceOnUse">
			<stop stop-color="#fff" />
			<stop offset="1" stop-color="#ECECEC" />
		</linearGradient>
		<filter id="a" x="-2" y=".327" width="1075.94" height="54" filterUnits="userSpaceOnUse" color-interpolation-filters="sRGB">
			<feFlood flood-opacity="0" result="BackgroundImageFix" />
			<feColorMatrix in="SourceAlpha" values="0 0 0 0 0 0 0 0 0 0 0 0 0 0 0 0 0 0 127 0" result="hardAlpha" />
			<feOffset dy="2" />
			<feGaussianBlur stdDeviation="1" />
			<feColorMatrix values="0 0 0 0 0 0 0 0 0 0 0 0 0 0 0 0 0 0 0.14 0" />
			<feBlend in2="BackgroundImageFix" result="effect1_dropShadow_2577_41357" />
			<feColorMatrix in="SourceAlpha" values="0 0 0 0 0 0 0 0 0 0 0 0 0 0 0 0 0 0 127 0" result="hardAlpha" />
			<feOffset dy="3" />
			<feGaussianBlur stdDeviation=".5" />
			<feColorMatrix values="0 0 0 0 0 0 0 0 0 0 0 0 0 0 0 0 0 0 0.2 0" />
			<feBlend in2="effect1_dropShadow_2577_41357" result="effect2_dropShadow_2577_41357" />
			<feBlend in="SourceGraphic" in2="effect2_dropShadow_2577_41357" result="shape" />
		</filter>
		<filter id="c" x="1070.06" y=".327" width="1075.94" height="54" filterUnits="userSpaceOnUse" color-interpolation-filters="sRGB">
			<feFlood flood-opacity="0" result="BackgroundImageFix" />
			<feColorMatrix in="SourceAlpha" values="0 0 0 0 0 0 0 0 0 0 0 0 0 0 0 0 0 0 127 0" result="hardAlpha" />
			<feOffset dy="2" />
			<feGaussianBlur stdDeviation="1" />
			<feColorMatrix values="0 0 0 0 0 0 0 0 0 0 0 0 0 0 0 0 0 0 0.14 0" />
			<feBlend in2="BackgroundImageFix" result="effect1_dropShadow_2577_41357" />
			<feColorMatrix in="SourceAlpha" values="0 0 0 0 0 0 0 0 0 0 0 0 0 0 0 0 0 0 127 0" result="hardAlpha" />
			<feOffset dy="3" />
			<feGaussianBlur stdDeviation=".5" />
			<feColorMatrix values="0 0 0 0 0 0 0 0 0 0 0 0 0 0 0 0 0 0 0.2 0" />
			<feBlend in2="effect1_dropShadow_2577_41357" result="effect2_dropShadow_2577_41357" />
			<feBlend in="SourceGraphic" in2="effect2_dropShadow_2577_41357" result="shape" />
		</filter>
	</defs>
</svg>
