<svg data-name="Layer 1"
  xmlns="http://www.w3.org/2000/svg" viewBox="0 0 170.08 283.46">
  <path d="M48.31,98.73c-1.76,20.55,2.26,31.05,12.83,37.51,10.28,6.28,18.26,11.51,24.92,11.51,6.14,0,13.17-4.22,25.13-11.85,9.14-5.83,12.47-13.07,11.89-32.45-.34-11.17-14.26-31-37.91-30.64C59.52,73.16,49.35,86.52,48.31,98.73Z" fill="current"/>
  <path d="M124.2,199.65c-1.5-18.18-1.91-27.87-8.16-35.26s-11.37-9.1-13.65-15.36-2.84-18.2-2.84-18.2h-29S70,142.77,67.68,149,60.29,157,54,164.39s-7.9,16.81-8.16,35.26c-.26,18.23-.37,32,3.61,45.08s13.83,38.73,13.83,38.73h45.06s10.26-24.06,14.24-37.14S125.68,217.56,124.2,199.65Z" fill="current"/>
</svg>
