<svg data-name="Layer 1"
  xmlns="http://www.w3.org/2000/svg" viewBox="0 0 1054.73 736.33">
  <defs>
    <clipPath id="a" transform="translate(-67.91 -52.78)">
      <path fill="none" d="m716.44 151.46 2.29 533.57 318.31 2.29-1.53-533.1-319.07-2.76z"/>
    </clipPath>
    <clipPath id="b" transform="translate(-67.91 -52.78)">
      <path fill="none" d="m936.38 187.77 1.54 107.85 69.33 1.54-9.24-110.94-61.63 1.55z"/>
    </clipPath>
    <clipPath id="c" transform="translate(-67.91 -52.78)">
      <path d="M778.14 207.24c-10.62 3-17 15.85-13.55 26 3.71 11 15.28 15.61 26.08 12.55 9.09-2.57 17.17-11.49 15.06-22.39-2.38-12.28-12-20.68-27.59-16.21" fill="none"/>
    </clipPath>
    <clipPath id="d" transform="translate(-67.91 -52.78)">
      <path fill="none" d="m754.21 372.67 2.96 77.35 59.12-.99-7.39-81.78-54.69 5.42z"/>
    </clipPath>
  </defs>
  <path d="M1042.7 736.33H13.57a12 12 0 0 1-12-12L0 12.06A12 12 0 0 1 12 0h1029.16a12 12 0 0 1 12 12l1.57 712.22a12 12 0 0 1-12.03 12.11Z" fill="#c4d6ce"/>
  <g data-name="Lager 1">
    <path d="M500.09 47.7c-28.23-.44-44.08 18.74-44.78 41.58-.74 24.12 19 43.69 44.58 43.69s44.13-21 43.46-43.87c-.58-21.21-16.44-40.98-43.26-41.4Z" fill="#ffdb00"/>
    <path d="M500.03 53.22c-24.59-.38-38.4 16.33-39 36.22-.65 21 16.58 38.07 38.83 38.07a37.56 37.56 0 0 0 37.86-38.22c-.55-18.51-14.36-35.73-37.69-36.07Z" fill="#eaba00"/>
    <g fill="#4a4025">
      <path d="M498.79 98.41a.83.83 0 0 1-.93-.81s-1-37.42-1-38c.08-.9.12-1.54 1-1.73s1.42.35 1.5 1.22l3.49 38.2a1 1 0 0 1-.83 1Z"/>
      <path d="M476.09 85.05a1 1 0 0 0 .72 1.12l28.28 7.36a.79.79 0 0 0 1-.67l1.06-3.53a.93.93 0 0 0-.78-1l-22.64-2.94c-.49-.07-4.32-.62-5.92-.82s-1.72.48-1.72.48Z"/>
    </g>
    <path fill="#cebac3" d="m108.15 150.98 3.46 309.24 412.34-.55-.82-311.5-414.98 2.81z"/>
    <path fill="#f1f1f3" d="m116.05 159.02 3.32 291.97 397.36-.77-3.34-291.2H116.05z"/>
    <path d="M210.94 291.6c3.1-.43 8.38 1.22 8.51 6.3s-3.69 7.37-6.29 7.46c-3.67.12-7.23-1.81-7.89-6a6.73 6.73 0 0 1 5.67-7.75" fill="#008f33"/>
    <path d="M160.84 328.96c3.1-.43 8.38 1.22 8.51 6.3s-3.69 7.37-6.29 7.46c-3.67.12-7.23-1.81-7.89-6a6.72 6.72 0 0 1 5.67-7.75" fill="#3b9bd2"/>
    <path fill="#d0c7cb" d="m133.85 359.76 50.12-5.57 5.57 62.94-49.43 9.05-6.26-66.42z"/>
    <path fill="#e1e5ea" d="m143.7 226.59 50.34 2.99.85 65.69-50.25.56-.94-69.24z"/>
    <path d="M156.22 351.55c3.1-.43 8.38 1.22 8.51 6.3s-3.69 7.37-6.29 7.46c-3.67.12-7.23-1.81-7.89-6a6.74 6.74 0 0 1 5.67-7.75" fill="#fdd900"/>
    <path d="M165.63 235.7c3.1-.43 8.38 1.22 8.51 6.3s-3.69 7.37-6.29 7.46c-3.67.12-7.23-1.81-7.89-6a6.75 6.75 0 0 1 5.67-7.75" fill="#ea6727"/>
    <g>
      <path fill="#299b2e" d="M533.78 202.11v2.35l.09 101.45.01 2.33 2.32.01 91.98.38 2.34.01.01-2.34.76-104.07-95.16-.11-2.35-.01z"/>
      <path fill="#f1f1f3" d="m538.56 303.66 88.37.36.35-97.46-88.81-.37.09 97.47z"/>
      <path fill="#d0c7cb" d="m546.42 214.75 25.84-.65.95 4.17-25.84.66-.95-4.18zM548.03 224.81l25.84-.65-.33 4.91-25.84.65.33-4.91zM548.35 235.94l25.84-.66-.32 4.91-25.84.65.32-4.9zM550.8 255.69l25.84-.65-.33 4.9-25.84.66.33-4.91zM593.16 246.07l25.84-.65-.32 4.91-25.84.65.32-4.91zM592.51 258.18l25.84-.66.59 10.39-25.84.65-.59-10.38z"/>
    </g>
    <g>
      <path fill="#ed774c" d="m818.53 63.63-.81 10.27 60.98 2.59.2-10.52-60.37-2.34z"/>
      <path fill="#f19eb0" d="m735.06 80.78 1.14-26.53 57.52-.27.82 26.93-59.48-.13z"/>
      <path fill="#f19eb0" d="m732.94 49.04-.15 11.29 64.65-.16-1.01-11.61-63.49.48z"/>
      <path fill="#e8523b" d="m757.91 65.38.27 5.42 15.73-.54-.27-5.43-15.73.55z"/>
      <path fill="#b390be" d="m812.12 73.04-.93 19.65 70.66.47-.47-17.32-69.26-2.8z"/>
      <path fill="#009c31" d="m731.69 79.76-.37 11.84 81.2.61-.31-12.17-80.52-.28z"/>
      <g>
        <path fill="#f4d5b5" d="m642.45 90.75 1.74 564.3 332.42 2.4-.94-563.81-333.22-2.89z"/>
        <path fill="#e6a561" d="m648.53 98.68 2.29 533.57 318.31 2.29-1.53-533.1-319.07-2.76z"/>
        <g clip-path="url(#a)">
          <path fill="#cd8d5b" d="m814.38 89.17-.95 559.94h5.58l-.39-561.85-4.24 1.91z"/>
        </g>
        <path fill="#cd8d5b" d="M827.66 375.85v24.24h15.28l-1.26-24.35-14.02.11z"/>
        <path d="M831.49 380.35s.32 5.63.32 12.71.11 12.32.11 12.32l4.54.15s3-8 3.17-13.22a70.88 70.88 0 0 0-1-12Z" fill="#4a4025"/>
        <path fill="#cd8d5b" d="M805.22 377.52v24.23h-15.27l1.25-24.34 14.02.11z"/>
        <path d="M801.39 382.02s-.32 5.63-.32 12.71-.11 12.32-.11 12.32l-4.54.15s-3-8-3.17-13.22a70.88 70.88 0 0 1 1-12Z" fill="#4a4025"/>
        <path fill="#f7d3c9" d="m711.32 235.13 3.08 64.71 46.22-1.54v-66.25l-49.3 3.08z"/>
        <path fill="#f3faf9" d="m868.47 134.99 1.54 107.85 69.33 1.54-9.24-110.94-61.63 1.55z"/>
        <g clip-path="url(#b)">
          <path fill="#00a39a" d="m947.05 147.31-7.71-33.89-98.6 1.54-.12 34.61 106.43-2.26z"/>
        </g>
        <g>
          <path fill="#f3faf9" d="m694.37 142.69-3.08 72.41 58.84-1.97-.3-70.44h-55.46z"/>
          <path d="M710.23 154.46c-10.62 3-17 15.85-13.55 26 3.71 11 15.28 15.61 26.08 12.55 9.09-2.57 17.17-11.49 15.06-22.39-2.38-12.28-12-20.68-27.59-16.21" fill="#f5d0c4"/>
          <g clip-path="url(#c)">
            <path fill="#428a3d" d="M716.11 142.64v29.63l36.4-1.07-2.85-29.98-33.55 1.42z"/>
          </g>
          <g clip-path="url(#c)">
            <path d="m724.32 201.89-8.23-29.62 32.48-7.14-2.48 26.41s-22.84 10.35-21.77 10.35Z" fill="#f0cb00"/>
          </g>
          <g clip-path="url(#c)">
            <path fill="#e85127" d="m729.67 210.46-13.56-38.19-18.2 29.26 31.76 8.93z"/>
          </g>
          <g clip-path="url(#c)">
            <path d="m716.46 138-.37 34.22s-36.39-6-35-6S716.46 138 716.46 138Z" fill="#62ac6d"/>
          </g>
        </g>
        <path d="M735.09 249.44s-7.8-5.82-14.78 0c-8.87 7.39 24.3 36.81 24.3 36.81s14.13-31.39 7.73-39.77-17.25 2.96-17.25 2.96Z" fill="#ea6343"/>
        <g>
          <path fill="#c3e3e8" d="m686.3 319.89 2.96 77.35 59.12-.99-7.39-81.78-54.69 5.42z"/>
          <g clip-path="url(#d)">
            <path d="M670.43 389.88s35.66-8.23 64.43-13.87l28.77-5.64 20.55-3.63-1.21 55.61-113.63 16.92Z" fill="#009634"/>
          </g>
          <path d="M714.09 321.22c7.37-1 19.94 2.89 20.25 15s-8.78 17.54-15 17.75c-8.75.29-17.21-4.3-18.78-14.3a16 16 0 0 1 13.53-18.45M702.56 354.87l-9.36 17.73 1.76 1.29 9.91-18.39-2.31-.63zM711.51 355.78l.18 19.02 3.11.14.96-18.73-4.25-.43zM723.26 355.5l5.23-1.84 8.91 21.08-2.54 1.27-11.6-20.51zM699.63 348.43l-8.06 3.11-.99-2.12 8.63-4.53.42 3.54zM697.79 337.53l-7.5-1-.28-2.55h8.08s-.58 3.69-.3 3.55ZM734.01 348.43l-1.13 2.41 9.76 7.36.85-2s-9.62-7.63-9.48-7.77Z" fill="#fdd900"/>
        </g>
        <path fill="#cdc3b0" d="m874.66 158.25 49.73-1.46.97 3.41-50.7 2.44v-4.39zM874.84 168.42l49.84-1.91.65 4.07-50.49 2.22v-4.38zM874.41 179.57l46.63-.84v3.43h-46.32l-.31-2.59z"/>
      </g>
    </g>
  </g>
</svg>