<svg width="1192" height="494" viewBox="0 0 1192 494" fill="none" xmlns="http://www.w3.org/2000/svg">
<path fill-rule="evenodd" clip-rule="evenodd" d="M612.808 390.192H970.902V0.452148H612.808V390.192Z" fill="#FFBFAC"/>
<path fill-rule="evenodd" clip-rule="evenodd" d="M857.107 390.151H970.46V183.827H857.107V390.151Z" fill="#EA5426"/>
<path fill-rule="evenodd" clip-rule="evenodd" d="M888.092 184.694H970.655V104.536H888.092V184.694Z" fill="#F39200"/>
<path fill-rule="evenodd" clip-rule="evenodd" d="M227.872 391.247H586.735V0H227.872V391.247Z" fill="#FFBFAC"/>
<path fill-rule="evenodd" clip-rule="evenodd" d="M227.369 116.042H297.6V77.7148H227.369V116.042Z" fill="#EA5426"/>
<path fill-rule="evenodd" clip-rule="evenodd" d="M284.439 120.515H311.273V45.3896H284.439V120.515Z" fill="#EA5426"/>
<path fill-rule="evenodd" clip-rule="evenodd" d="M315.568 145.729H352.009V70.6035H315.568V145.729Z" fill="#EA5426"/>
<path fill-rule="evenodd" clip-rule="evenodd" d="M227.388 391.351H415.286V137.703H227.388V391.351Z" fill="#EA5426"/>
<path fill-rule="evenodd" clip-rule="evenodd" d="M415.344 391.298H586.741V229.584H415.344V391.298Z" fill="#EA5426"/>
<path fill-rule="evenodd" clip-rule="evenodd" d="M612.579 390.126H643.716V230.673H612.579V390.126Z" fill="#EA5426"/>
<path fill-rule="evenodd" clip-rule="evenodd" d="M227.382 141.367H420.151V118.21H227.382V141.367Z" fill="#F39200"/>
<path fill-rule="evenodd" clip-rule="evenodd" d="M412.058 133.401H227.382V110.245H404.119C408.504 110.245 412.058 113.8 412.058 118.184V133.401Z" fill="#F39200"/>
<path fill-rule="evenodd" clip-rule="evenodd" d="M227.099 292.192H292.927V192.077H227.099V292.192Z" fill="#D60000"/>
<path fill-rule="evenodd" clip-rule="evenodd" d="M226.448 248.333H296.254V240.169H226.448V248.333Z" fill="#EA5426"/>
<path fill-rule="evenodd" clip-rule="evenodd" d="M227.019 198.175H292.762V191.925H227.019V198.175Z" fill="#EA5426"/>
<path fill-rule="evenodd" clip-rule="evenodd" d="M311.087 292.192H376.915V192.077H311.087V292.192Z" fill="#D60000"/>
<path fill-rule="evenodd" clip-rule="evenodd" d="M310.435 248.333H380.243V240.169H310.435V248.333Z" fill="#EA5426"/>
<path fill-rule="evenodd" clip-rule="evenodd" d="M311.008 198.175H376.751V191.925H311.008V198.175Z" fill="#EA5426"/>
<path fill-rule="evenodd" clip-rule="evenodd" d="M643.375 390.041H857.526V233.753H643.375V390.041Z" fill="#EA5426"/>
<path fill-rule="evenodd" clip-rule="evenodd" d="M635.443 237.447H863.055V214.29H635.443V237.447Z" fill="#F39200"/>
<path fill-rule="evenodd" clip-rule="evenodd" d="M853.821 229.482H643.123V216.449C643.123 210.858 647.655 206.326 653.247 206.326H845.882C850.268 206.326 853.821 209.88 853.821 214.264V229.482Z" fill="#F39200"/>
<path fill-rule="evenodd" clip-rule="evenodd" d="M818.448 319.207L818.571 389.796L683.588 390.032L683.464 319.444L818.448 319.207Z" fill="#EA5426"/>
<path fill-rule="evenodd" clip-rule="evenodd" d="M810.951 326.441L811.063 389.885L691.112 390.095L691 326.652L810.951 326.441Z" fill="#D60000"/>
<path fill-rule="evenodd" clip-rule="evenodd" d="M758.113 324.033L758.226 388.105L745.66 388.128L745.547 324.054L758.113 324.033Z" fill="#EA5426"/>
<path fill-rule="evenodd" clip-rule="evenodd" d="M441.605 391.242H498.763V294.334H441.605V391.242Z" fill="#EA5426"/>
<path fill-rule="evenodd" clip-rule="evenodd" d="M441.04 347.022H501.652V337.925H441.04V347.022Z" fill="#EA5426"/>
<path fill-rule="evenodd" clip-rule="evenodd" d="M441.536 300.431H498.619V294.183H441.536V300.431Z" fill="#EA5426"/>
<path fill-rule="evenodd" clip-rule="evenodd" d="M532.617 391.242H586.607V294.334H532.617V391.242Z" fill="#EA5426"/>
<path fill-rule="evenodd" clip-rule="evenodd" d="M532.05 347.022H586.771V337.925H532.05V347.022Z" fill="#EA5426"/>
<path fill-rule="evenodd" clip-rule="evenodd" d="M532.522 300.431H586.757V294.183H532.522V300.431Z" fill="#EA5426"/>
<path fill-rule="evenodd" clip-rule="evenodd" d="M228.25 375.679H294.078V319.293H228.25V375.679Z" fill="#D60000"/>
<path fill-rule="evenodd" clip-rule="evenodd" d="M227.598 371.98H297.406V367.534H227.598V371.98Z" fill="#EA5426"/>
<path fill-rule="evenodd" clip-rule="evenodd" d="M228.169 325.391H293.914V319.141H228.169V325.391Z" fill="#EA5426"/>
<path fill-rule="evenodd" clip-rule="evenodd" d="M312.239 375.679H378.067V319.293H312.239V375.679Z" fill="#D60000"/>
<path fill-rule="evenodd" clip-rule="evenodd" d="M311.586 371.98H381.395V367.534H311.586V371.98Z" fill="#EA5426"/>
<path fill-rule="evenodd" clip-rule="evenodd" d="M312.157 325.391H377.902V319.141H312.157V325.391Z" fill="#EA5426"/>
<path fill-rule="evenodd" clip-rule="evenodd" d="M873.308 311.121H328.243C326.157 311.121 324.465 309.428 324.465 307.343V289.281C324.465 287.194 326.157 285.503 328.243 285.503H873.308C875.394 285.503 877.087 287.194 877.087 289.281V307.343C877.087 309.428 875.394 311.121 873.308 311.121Z" fill="#1C8145"/>
<path fill-rule="evenodd" clip-rule="evenodd" d="M347.373 311.124H363.499L340.591 493.184H324.465L347.373 311.124Z" fill="#020100"/>
<path fill-rule="evenodd" clip-rule="evenodd" d="M854.216 311.124H838.09L860.998 493.184H877.124L854.216 311.124Z" fill="#020100"/>
<path fill-rule="evenodd" clip-rule="evenodd" d="M737.009 191.774C737.009 191.774 735.484 193.908 733.578 195.739C731.671 197.569 729.537 196.044 729.537 196.044L716.496 182.165L716.966 181.618L705.91 171.43V279.594H723.599C726.863 279.594 729.51 282.24 729.51 285.505H677.765C677.765 283.873 678.426 282.396 679.496 281.326C680.565 280.256 682.043 279.594 683.675 279.594H701.34V167.219L663.079 131.957L662.91 132.927C662.91 132.927 667.497 137.841 671.591 142.017C675.685 146.193 675.193 150.943 675.193 150.943L655.786 147.176L655.788 147.165L635.729 143.011C635.729 143.011 637.112 138.442 642.503 136.174C647.893 133.904 654.021 131.146 654.021 131.146L655.622 124.133L658.234 124.673L659.224 120.617L660.698 120.896L660.699 120.89L662.182 121.206L661.528 125.33L664.145 125.842L663.934 127.053L719.694 178.444L720.232 177.818C720.232 177.818 733.35 186.97 735.484 188.495C737.62 190.02 737.009 191.774 737.009 191.774Z" fill="#DFDFCC"/>
<path fill-rule="evenodd" clip-rule="evenodd" d="M635.729 143.012C635.729 143.012 643.835 140.701 656.071 143.354C668.307 146.006 675.193 150.944 675.193 150.944C675.193 150.944 667.111 153.194 655.215 150.969C643.321 148.745 635.729 143.012 635.729 143.012Z" fill="#F39200"/>
<path fill-rule="evenodd" clip-rule="evenodd" d="M651.896 142.607C651.896 142.607 651.67 145.613 655.426 146.663C659.182 147.715 660.009 144.335 660.009 144.335C660.009 144.335 656.394 143.286 651.896 142.607Z" fill="#F9DC4A"/>
<path fill-rule="evenodd" clip-rule="evenodd" d="M489.952 370.075C488.183 380.25 471.152 489.95 471.152 489.95C471.152 489.95 471.537 492.721 474.307 493.128C477.078 493.535 478.545 491.009 478.545 491.009L502.562 372.741L489.952 370.075Z" fill="#0A4343"/>
<path fill-rule="evenodd" clip-rule="evenodd" d="M545.842 372.673C547.711 382.83 569.787 491.627 569.787 491.627C569.787 491.627 571.109 494.093 573.849 493.514C576.589 492.935 577.088 490.056 577.088 490.056L558.594 370.8L545.842 372.673Z" fill="#0A4343"/>
<path fill-rule="evenodd" clip-rule="evenodd" d="M573.835 372.341C575.704 382.498 597.78 491.295 597.78 491.295C597.78 491.295 599.102 493.76 601.842 493.182C604.582 492.603 605.081 489.724 605.081 489.724L586.588 370.468L573.835 372.341Z" fill="#0A4343"/>
<path fill-rule="evenodd" clip-rule="evenodd" d="M588.717 374.72H486.548C482.677 374.72 479.54 371.582 479.54 367.713C479.54 363.843 482.677 360.705 486.548 360.705H588.717C592.585 360.705 595.723 363.843 595.723 367.713C595.723 371.582 592.585 374.72 588.717 374.72Z" fill="#12ACA3"/>
<path fill-rule="evenodd" clip-rule="evenodd" d="M620.388 262.135H448.377C445.382 262.135 442.954 259.707 442.954 256.713V150.678C442.954 147.682 445.382 145.254 448.377 145.254H620.388C623.385 145.254 625.813 147.682 625.813 150.678V256.713C625.813 259.707 623.385 262.135 620.388 262.135Z" fill="#D1D1D1"/>
<path fill-rule="evenodd" clip-rule="evenodd" d="M618.137 238.654H450.02V156.317C450.02 154.111 451.81 152.32 454.018 152.32H614.328C616.536 152.32 618.325 154.111 618.325 156.317V238.466C618.325 238.57 618.241 238.654 618.137 238.654Z" fill="#020100"/>
<path fill-rule="evenodd" clip-rule="evenodd" d="M625.841 237.729V258.222C625.841 260.43 624.051 262.219 621.843 262.219H561.716V276.946C566.164 277.229 569.683 280.926 569.683 285.445H500.5C500.5 283.092 501.453 280.964 502.995 279.422C504.463 277.954 506.462 277.02 508.681 276.936V262.219H446.885C444.677 262.219 442.886 260.43 442.886 258.222V237.541H625.653C625.757 237.541 625.841 237.625 625.841 237.729Z" fill="#D1D1D1"/>
<path fill-rule="evenodd" clip-rule="evenodd" d="M539.171 250.173C539.171 252.622 537.187 254.609 534.737 254.609C532.287 254.609 530.302 252.622 530.302 250.173C530.302 247.724 532.287 245.739 534.737 245.739C537.187 245.739 539.171 247.724 539.171 250.173Z" fill="#0090CF"/>
<path fill-rule="evenodd" clip-rule="evenodd" d="M607.406 160.823C607.406 161.609 606.769 162.247 605.982 162.247C605.197 162.247 604.559 161.609 604.559 160.823C604.559 160.036 605.197 159.398 605.982 159.398C606.769 159.398 607.406 160.036 607.406 160.823Z" fill="white"/>
<path fill-rule="evenodd" clip-rule="evenodd" d="M463.035 160.95C463.035 161.736 462.397 162.374 461.611 162.374C460.825 162.374 460.188 161.736 460.188 160.95C460.188 160.163 460.825 159.525 461.611 159.525C462.397 159.525 463.035 160.163 463.035 160.95Z" fill="#EA5426"/>
<path fill-rule="evenodd" clip-rule="evenodd" d="M468.842 160.887C468.842 161.674 468.204 162.311 467.418 162.311C466.631 162.311 465.993 161.674 465.993 160.887C465.993 160.1 466.631 159.463 467.418 159.463C468.204 159.463 468.842 160.1 468.842 160.887Z" fill="#FAC500"/>
<path fill-rule="evenodd" clip-rule="evenodd" d="M474.83 160.925C474.83 161.712 474.192 162.349 473.405 162.349C472.619 162.349 471.981 161.712 471.981 160.925C471.981 160.138 472.619 159.501 473.405 159.501C474.192 159.501 474.83 160.138 474.83 160.925Z" fill="#35A936"/>
<path fill-rule="evenodd" clip-rule="evenodd" d="M603.864 172.241H461.458C459.519 172.241 457.947 170.669 457.947 168.729C457.947 166.789 459.519 165.216 461.458 165.216H603.864C605.804 165.216 607.376 166.789 607.376 168.729C607.376 170.669 605.804 172.241 603.864 172.241Z" fill="white"/>
<path fill-rule="evenodd" clip-rule="evenodd" d="M603.763 232.532H522.31C520.628 232.532 519.265 231.17 519.265 229.488V179.539C519.265 177.857 520.628 176.493 522.31 176.493H603.763C605.445 176.493 606.808 177.857 606.808 179.539V229.488C606.808 231.17 605.445 232.532 603.763 232.532Z" fill="white"/>
<path fill-rule="evenodd" clip-rule="evenodd" d="M546.867 207.772H531.402C529.72 207.772 528.358 206.41 528.358 204.728V186.923C528.358 185.241 529.72 183.877 531.402 183.877H546.867C548.549 183.877 549.911 185.241 549.911 186.923V204.728C549.911 206.41 548.549 207.772 546.867 207.772Z" fill="#EECCDC"/>
<path fill-rule="evenodd" clip-rule="evenodd" d="M572.931 207.733H557.466C555.784 207.733 554.42 206.369 554.42 204.689V186.882C554.42 185.202 555.784 183.838 557.466 183.838H572.931C574.613 183.838 575.975 185.202 575.975 186.882V204.689C575.975 206.369 574.613 207.733 572.931 207.733Z" fill="#EECCDC"/>
<path fill-rule="evenodd" clip-rule="evenodd" d="M598.775 207.772H583.31C581.629 207.772 580.266 206.409 580.266 204.727V186.922C580.266 185.24 581.629 183.878 583.31 183.878H598.775C600.457 183.878 601.821 185.24 601.821 186.922V204.727C601.821 206.409 600.457 207.772 598.775 207.772Z" fill="#EECCDC"/>
<path fill-rule="evenodd" clip-rule="evenodd" d="M545.355 206.571H529.891C528.209 206.571 526.846 205.207 526.846 203.527V185.72C526.846 184.04 528.209 182.676 529.891 182.676H545.355C547.037 182.676 548.399 184.04 548.399 185.72V203.527C548.399 205.207 547.037 206.571 545.355 206.571Z" fill="#020100"/>
<path fill-rule="evenodd" clip-rule="evenodd" d="M504.033 232.365H465.535C461.35 232.365 457.958 229.227 457.958 225.356V184.365C457.958 180.493 461.35 177.355 465.535 177.355H504.033C508.218 177.355 511.611 180.493 511.611 184.365V225.356C511.611 229.227 508.218 232.365 504.033 232.365Z" fill="white"/>
<path fill-rule="evenodd" clip-rule="evenodd" d="M484.784 224.528C495.688 224.528 504.527 215.722 504.527 204.86C504.527 193.998 495.688 185.192 484.784 185.192C473.88 185.192 465.041 193.998 465.041 204.86C465.041 215.722 473.88 224.528 484.784 224.528ZM484.784 215.516C490.701 215.516 495.498 210.746 495.498 204.86C495.498 198.975 490.701 194.205 484.784 194.205C478.867 194.205 474.07 198.975 474.07 204.86C474.07 210.746 478.867 215.516 484.784 215.516Z" fill="#0090CF"/>
<path fill-rule="evenodd" clip-rule="evenodd" d="M488.853 194.906C491.791 196.102 494.074 198.567 495.023 201.62L503.623 198.96C501.878 193.317 497.667 188.76 492.249 186.549L488.853 194.906Z" fill="#EA5426"/>
<path fill-rule="evenodd" clip-rule="evenodd" d="M465.794 210.081C466.647 213.216 468.243 216.04 470.381 218.349L476.947 212.156C475.779 210.899 474.909 209.359 474.447 207.648L465.794 210.081Z" fill="#35A936"/>
<path fill-rule="evenodd" clip-rule="evenodd" d="M548.406 187.284H526.851V185.013C526.851 183.723 527.897 182.677 529.187 182.677H546.07C547.36 182.677 548.406 183.723 548.406 185.013V187.284Z" fill="#EA5426"/>
<path fill-rule="evenodd" clip-rule="evenodd" d="M571.419 206.532H555.955C554.273 206.532 552.91 205.168 552.91 203.486V185.681C552.91 184.001 554.273 182.637 555.955 182.637H571.419C573.101 182.637 574.464 184.001 574.464 185.681V203.486C574.464 205.168 573.101 206.532 571.419 206.532Z" fill="#020100"/>
<path fill-rule="evenodd" clip-rule="evenodd" d="M574.47 187.243H552.915V184.974C552.915 183.684 553.961 182.638 555.251 182.638H572.134C573.424 182.638 574.47 183.684 574.47 184.974V187.243Z" fill="#35A936"/>
<path fill-rule="evenodd" clip-rule="evenodd" d="M597.265 206.571H581.799C580.118 206.571 578.754 205.209 578.754 203.527V185.722C578.754 184.04 580.118 182.676 581.799 182.676H597.265C598.945 182.676 600.309 184.04 600.309 185.722V203.527C600.309 205.209 598.945 206.571 597.265 206.571Z" fill="#020100"/>
<path fill-rule="evenodd" clip-rule="evenodd" d="M600.314 187.284H578.76V185.013C578.76 183.723 579.806 182.677 581.097 182.677H597.978C599.268 182.677 600.314 183.723 600.314 185.013V187.284Z" fill="#0090CF"/>
<path fill-rule="evenodd" clip-rule="evenodd" d="M601.034 216.975H528.081C527.583 216.975 527.181 216.634 527.181 216.214C527.181 215.792 527.583 215.451 528.081 215.451H601.034C601.532 215.451 601.934 215.792 601.934 216.214C601.934 216.634 601.532 216.975 601.034 216.975Z" fill="#35A936"/>
<path fill-rule="evenodd" clip-rule="evenodd" d="M600.733 223.926H527.778C527.282 223.926 526.879 223.583 526.879 223.163C526.879 222.742 527.282 222.4 527.778 222.4H600.733C601.23 222.4 601.632 222.742 601.632 223.163C601.632 223.583 601.23 223.926 600.733 223.926Z" fill="#35A936"/>
<path fill-rule="evenodd" clip-rule="evenodd" d="M351.994 283.554H382.482V251.1H351.994V283.554Z" fill="#FCEBEC"/>
<path fill-rule="evenodd" clip-rule="evenodd" d="M354.726 285.713H379.893V283.482H354.726V285.713Z" fill="#EECCDC"/>
<mask id="mask0_755:13255" style="mask-type: alpha;" maskUnits="userSpaceOnUse" x="340" y="253" width="13" height="25">
<path fill-rule="evenodd" clip-rule="evenodd" d="M340.8 253.825H352.04V277.895H340.8V253.825Z" fill="white"/>
</mask>
<g mask="url(#mask0_755:13255)">
<path fill-rule="evenodd" clip-rule="evenodd" d="M351.986 274.499H346.179C344.904 274.499 343.871 273.464 343.871 272.189V259.583C343.871 258.307 344.904 257.272 346.179 257.272H351.986V274.499ZM344.177 253.825C342.312 253.825 340.8 255.339 340.8 257.204V274.516C340.8 276.382 342.312 277.895 344.177 277.895H352.04V253.825H344.177Z" fill="#FCEBEC"/>
</g>
<path fill-rule="evenodd" clip-rule="evenodd" d="M748.516 255.237C748.516 255.237 747.513 262.789 739.844 257.037C732.174 251.285 740.611 246.428 740.611 246.428C740.611 246.428 733.58 240.803 738.438 236.329C743.295 231.855 750.709 231.855 750.709 231.855C750.709 231.855 752.115 223.163 758.762 229.043C765.409 234.923 759.785 239.269 759.785 239.269C759.785 239.269 761.499 239.983 762.879 242.31C764.258 244.638 748.516 255.237 748.516 255.237Z" fill="#0090CF"/>
<mask id="mask1_755:13255" style="mask-type: alpha;" maskUnits="userSpaceOnUse" x="744" y="179" width="119" height="106">
<path fill-rule="evenodd" clip-rule="evenodd" d="M744.873 179.233H862.305V284.135H744.873V179.233Z" fill="white"/>
</mask>
<g mask="url(#mask1_755:13255)">
<path fill-rule="evenodd" clip-rule="evenodd" d="M815.389 227.125C815.389 227.125 804.907 238.885 790.335 240.547C775.763 242.209 755.822 234.028 747.258 256.653C738.694 279.278 755.95 283.88 755.95 283.88L783.049 283.752L797.621 279.789L806.058 271.353C806.058 271.353 814.238 274.804 818.201 283.624L858.082 284.135C858.082 284.135 861.918 279.022 862.3 270.202C862.683 261.382 840.954 237.607 841.721 230.193C842.488 222.779 841.849 211.275 839.419 203.989C836.991 196.703 833.284 180.597 826.254 179.574C819.224 178.552 816.028 181.619 811.298 179.574C806.569 177.529 805.163 185.071 808.231 191.973C811.298 198.876 817.434 221.629 815.389 227.125Z" fill="#0090CF"/>
</g>
<path fill-rule="evenodd" clip-rule="evenodd" d="M814.944 218.791C814.944 218.791 828.682 226.487 836.096 224.697L836.863 233.389C836.863 233.389 822.419 234.028 815.388 227.126L814.944 218.791Z" fill="#EA5426"/>
<path fill-rule="evenodd" clip-rule="evenodd" d="M829.193 236.393C829.193 239.04 827.047 241.186 824.4 241.186C821.753 241.186 819.607 239.04 819.607 236.393C819.607 233.746 821.753 231.6 824.4 231.6C827.047 231.6 829.193 233.746 829.193 236.393Z" fill="#EA5426"/>
<path fill-rule="evenodd" clip-rule="evenodd" d="M830.089 181.876C830.089 181.876 843.255 196.576 845.428 205.268C847.6 213.96 852.114 233.619 843.85 234.591C835.585 235.563 836.224 236.329 833.412 223.419C830.6 210.509 826.382 200.283 828.043 195.809C829.705 191.335 825.764 180.946 830.089 181.876Z" fill="#0090CF"/>
<path fill-rule="evenodd" clip-rule="evenodd" d="M812.832 180.661C812.832 182.32 811.487 183.665 809.828 183.665C808.169 183.665 806.824 182.32 806.824 180.661C806.824 179.002 808.169 177.657 809.828 177.657C811.487 177.657 812.832 179.002 812.832 180.661Z" fill="#204EB2"/>
<path fill-rule="evenodd" clip-rule="evenodd" d="M798.26 283.625L819.744 284.068L816.923 270.203L798.26 270.331C798.26 270.331 794.553 281.196 798.26 283.625Z" fill="#0090CF"/>
<path fill-rule="evenodd" clip-rule="evenodd" d="M815.632 194.259C812.169 194.259 809.652 193.507 808.128 192.013C806.567 190.484 806.684 188.746 806.69 188.673L807.892 188.767L807.291 188.72L807.892 188.762C807.889 188.814 807.828 190.05 808.998 191.177C810.14 192.278 812.697 193.471 818.397 192.907L818.516 194.107C817.492 194.208 816.53 194.259 815.632 194.259Z" fill="#204EB2"/>
<path fill-rule="evenodd" clip-rule="evenodd" d="M782.702 275.191C782.654 263.583 780.303 256.043 775.905 253.385C772.085 251.078 767.903 253.203 767.861 253.225L767.302 252.157C767.496 252.055 772.108 249.693 776.515 252.345C781.369 255.267 783.857 262.951 783.908 275.186L782.702 275.191Z" fill="#204EB2"/>
<path fill-rule="evenodd" clip-rule="evenodd" d="M827.589 275.858C825.229 267.203 822.527 260.762 820.676 256.882C818.671 252.679 817.205 250.494 817.19 250.472L818.189 249.797C818.25 249.887 819.707 252.056 821.749 256.33C823.625 260.259 826.364 266.782 828.753 275.541L827.589 275.858Z" fill="#204EB2"/>
<path fill-rule="evenodd" clip-rule="evenodd" d="M836.806 274.863L836.41 273.724C836.637 273.645 842.061 271.774 848.717 271.391L848.786 272.594C842.307 272.968 836.86 274.844 836.806 274.863Z" fill="#204EB2"/>
<path fill-rule="evenodd" clip-rule="evenodd" d="M817.645 283.858C813.686 274.455 797.256 265.967 797.091 265.882L797.64 264.809C797.682 264.83 801.92 267.009 806.599 270.351C812.926 274.87 817.016 279.257 818.756 283.39L817.645 283.858Z" fill="#204EB2"/>
<mask id="mask2_755:13255" style="mask-type: alpha;" maskUnits="userSpaceOnUse" x="818" y="283" width="12" height="19">
<path fill-rule="evenodd" clip-rule="evenodd" d="M818.201 283.624H829.856V301.394H818.201V283.624Z" fill="white"/>
</mask>
<g mask="url(#mask2_755:13255)">
<path fill-rule="evenodd" clip-rule="evenodd" d="M818.201 283.624C818.201 283.624 820.629 301.647 825.359 301.391C830.088 301.137 830.595 293.911 829.127 283.782L818.201 283.624Z" fill="#AEE2FF"/>
</g>
<path fill-rule="evenodd" clip-rule="evenodd" d="M836.607 274.293C836.607 274.293 840.025 278.259 839.036 283.88L829.066 283.752C829.066 283.752 822.547 279.789 828.171 275.699L836.607 274.293Z" fill="#AEE2FF"/>
<path fill-rule="evenodd" clip-rule="evenodd" d="M783.177 283.752L798.26 283.624C798.26 283.624 801.456 279.661 795.193 276.721C788.929 273.781 783.305 274.932 783.305 274.932L783.177 283.752Z" fill="#AEE2FF"/>
<path fill-rule="evenodd" clip-rule="evenodd" d="M829.056 180.637C829.056 180.637 844.533 188.65 845.044 197.47C845.556 206.29 852.074 208.335 851.435 220.734C850.796 233.133 846.557 234.189 842.86 234.428C839.165 234.667 839.036 213.832 839.036 213.832C839.036 213.832 821.631 181.955 829.056 180.637Z" fill="#0090CF"/>
<path fill-rule="evenodd" clip-rule="evenodd" d="M839.98 235.658C839.163 235.658 838.271 235.506 837.404 235.061C835.474 234.069 834.226 231.913 833.697 228.654C833.018 224.475 831.839 221.242 830.799 218.389C829.532 214.915 828.438 211.916 828.773 208.505C829.342 202.716 828.374 199.602 828.364 199.572L829.512 199.204C829.555 199.339 830.566 202.588 829.973 208.623C829.664 211.76 830.665 214.503 831.931 217.976C832.99 220.879 834.19 224.169 834.887 228.461C835.352 231.321 836.384 233.181 837.956 233.989C840.099 235.09 842.578 233.884 842.602 233.872L843.139 234.952C843.054 234.993 841.686 235.658 839.98 235.658Z" fill="#204EB2"/>
<path fill-rule="evenodd" clip-rule="evenodd" d="M1108.89 326.407C1108.89 326.407 1165.13 314.827 1185.48 267.614C1205.83 220.401 1169.03 223.973 1145.26 247.871C1121.48 271.768 1110.41 298.514 1108.89 326.407Z" fill="#FAC500"/>
<path fill-rule="evenodd" clip-rule="evenodd" d="M1096.08 387.146C1096.07 387.072 1095.62 379.671 1097.34 367.725C1098.93 356.717 1102.75 339.464 1111.91 319.778C1121.07 300.112 1131.13 285.056 1137.97 275.889C1145.38 265.948 1150.7 260.58 1150.75 260.527L1151.57 261.392C1151.51 261.444 1146.24 266.767 1138.87 276.648C1132.08 285.766 1122.07 300.74 1112.97 320.299C1103.87 339.832 1100.08 356.943 1098.5 367.86C1096.79 379.689 1097.24 386.992 1097.24 387.065L1096.08 387.146Z" fill="#020100"/>
<path fill-rule="evenodd" clip-rule="evenodd" d="M1095.65 280.798C1095.65 280.798 1145.13 255.797 1149.07 204.887C1153.02 153.978 1119.36 166.437 1104.61 195.495C1089.86 224.554 1088.05 253.283 1095.65 280.798Z" fill="#12ACA3"/>
<path fill-rule="evenodd" clip-rule="evenodd" d="M1086.66 295.521C1086.66 295.521 1033.38 251.024 1040.64 193.252C1047.9 135.481 1085.23 160.712 1096.03 197.928C1106.83 235.143 1102.23 267.601 1086.66 295.521Z" fill="#FAC500"/>
<path fill-rule="evenodd" clip-rule="evenodd" d="M1081.65 299.952C1081.65 299.952 1014.47 285.863 995.046 231.162C975.623 176.46 1020.03 181.06 1046.27 208.924C1072.51 236.788 1082.96 267.771 1081.65 299.952Z" fill="#12ACA3"/>
<path fill-rule="evenodd" clip-rule="evenodd" d="M1089.79 394.544C1089.77 394.232 1087.12 362.994 1089.98 323.761C1091.65 300.713 1094.87 279.45 1099.55 260.566C1105.4 236.935 1113.55 216.976 1123.79 201.243L1124.76 201.915C1114.6 217.531 1106.5 237.361 1100.68 260.853C1096.03 279.667 1092.82 300.856 1091.14 323.832C1088.29 362.969 1090.93 394.125 1090.96 394.436L1089.79 394.544Z" fill="#020100"/>
<path fill-rule="evenodd" clip-rule="evenodd" d="M1066.41 433.273L1065.3 432.892C1065.41 432.562 1076.04 399.34 1081.13 352.501C1084.13 324.999 1084.65 298.253 1082.69 273.006C1080.25 241.461 1073.9 212.18 1063.82 185.977L1064.91 185.532C1075.03 211.852 1081.41 241.256 1083.86 272.928C1085.82 298.255 1085.29 325.083 1082.29 352.665C1077.18 399.624 1066.51 432.943 1066.41 433.273Z" fill="#020100"/>
<path fill-rule="evenodd" clip-rule="evenodd" d="M1044.79 458.542C1044.79 477.686 1060.31 493.206 1079.45 493.206H1096.04C1115.18 493.206 1130.7 477.686 1130.7 458.542V382.734H1044.79V458.542Z" fill="#4F1E6F"/>
<path fill-rule="evenodd" clip-rule="evenodd" d="M1083.66 314.649C1083.09 304.907 1079.35 293.702 1072.55 281.345C1067.02 271.287 1059.44 260.421 1050.02 249.046C1035.18 231.116 1019.69 216.689 1013.72 211.319C1013.48 211.109 1013.33 210.974 1013.27 210.917L1014.06 210.025C1014.12 210.08 1014.26 210.209 1014.48 210.41C1020.48 215.798 1036.02 230.272 1050.91 248.263C1060.38 259.696 1068 270.626 1073.57 280.75C1080.46 293.268 1084.24 304.65 1084.82 314.577L1083.66 314.649Z" fill="#020100"/>
<mask id="mask3_755:13255" style="mask-type: alpha;" maskUnits="userSpaceOnUse" x="67" y="131" width="65" height="120">
<path fill-rule="evenodd" clip-rule="evenodd" d="M67.1921 131.69H131.113V250.967H67.1921V131.69Z" fill="white"/>
</mask>
<g mask="url(#mask3_755:13255)">
<path fill-rule="evenodd" clip-rule="evenodd" d="M108.358 250.909C108.358 250.909 85.1261 253.242 76.9813 228.305C76.9813 228.305 73.2319 218.97 77.1106 218.303C80.9891 217.637 86.8068 217.237 86.8068 216.036C86.8068 214.836 67.0092 211.319 67.1937 198.193C67.378 185.067 66.85 136.328 77.4092 131.971C87.9684 127.615 122.285 175.264 121.494 184.522C120.702 193.78 112.254 200.587 115.95 201.404C119.646 202.22 123.606 187.789 126.509 196.775C129.413 205.76 141.682 238.062 108.358 250.909Z" fill="#35A936"/>
</g>
<path fill-rule="evenodd" clip-rule="evenodd" d="M130.629 247.928C130.629 247.928 146.144 259.865 162.644 245.022C162.644 245.022 169.318 239.774 166.847 237.576C164.376 235.379 160.412 232.525 160.927 231.638C161.443 230.752 177.028 236.857 182.535 227.078C188.04 217.299 209.348 181.523 203.711 173.662C198.076 165.8 153.216 185.916 149.802 193.104C146.389 200.292 149.471 209.035 146.493 208.014C143.515 206.992 146.897 194.59 140.974 199.951C135.051 205.313 112.455 223.784 130.629 247.928Z" fill="#12ACA3"/>
<mask id="mask4_755:13255" style="mask-type: alpha;" maskUnits="userSpaceOnUse" x="0" y="201" width="78" height="55">
<path fill-rule="evenodd" clip-rule="evenodd" d="M0 201.97H77.7206V255.985H0V201.97Z" fill="white"/>
</mask>
<g mask="url(#mask4_755:13255)">
<path fill-rule="evenodd" clip-rule="evenodd" d="M74.2216 249.671C74.2216 249.671 71.3792 261.85 53.0127 252.378C34.646 242.906 36.6139 239.523 39.0191 237.493C41.4243 235.463 50.1701 229.6 43.8294 230.727C37.4886 231.855 36.6139 238.17 28.3053 234.561C19.9967 230.953 -2.96144 209.753 0.31826 204.34C3.59796 198.928 43.392 202.762 61.7585 216.068C80.1249 229.374 80.125 243.808 74.2216 249.671Z" fill="#12ACA3"/>
</g>
<path fill-rule="evenodd" clip-rule="evenodd" d="M115.991 291.462C115.991 291.462 118.643 303.641 135.778 294.169C152.912 284.697 151.077 281.314 148.833 279.284C146.589 277.254 138.429 271.391 144.345 272.518C150.261 273.646 151.077 279.961 158.828 276.352C166.579 272.744 187.998 251.544 184.939 246.131C181.879 240.719 144.753 244.553 127.618 257.859C110.483 271.165 110.483 285.599 115.991 291.462Z" fill="#35A936"/>
<path fill-rule="evenodd" clip-rule="evenodd" d="M125.319 305.441C125.319 305.441 112.865 313.356 125.194 322.179C137.522 331.003 145.447 365.518 155.887 364.609C166.329 363.7 163.687 325.683 162.682 321.141C161.675 316.6 155.007 321.79 154.504 318.806C154.001 315.822 161.423 316.211 161.423 314.134C161.423 312.059 154.631 290.13 125.319 305.441Z" fill="#12ACA3"/>
<path fill-rule="evenodd" clip-rule="evenodd" d="M40.4055 327.017C40.4055 327.017 42.7417 307.981 59.7967 294.727C76.8517 281.472 99.9809 277.617 104.42 291.353C108.859 305.088 81.057 320.511 76.1507 317.62C71.2444 314.728 63.5348 313.041 65.1702 318.824C66.8055 324.609 55.825 331.837 40.4055 327.017Z" fill="#35A936"/>
<path fill-rule="evenodd" clip-rule="evenodd" d="M83.159 272.074C83.159 272.074 39.2368 291.593 20.5464 290.629C1.85614 289.666 25.4527 270.628 48.5818 264.604C71.7113 258.579 83.159 263.399 83.159 272.074Z" fill="#35A936"/>
<path fill-rule="evenodd" clip-rule="evenodd" d="M95.1209 367.56C95.0577 366.928 93.6175 351.862 97.325 329.039C99.499 315.658 103.007 302.397 107.752 289.627C113.684 273.666 121.575 258.43 131.207 244.343C140.808 230.302 150.388 218.168 159.682 208.279C167.147 200.336 174.452 193.807 181.395 188.876C193.416 180.336 200.271 179.496 200.555 179.464L200.929 183.06C200.876 183.067 194.402 183.942 182.982 192.141C176.261 196.968 169.173 203.347 161.914 211.101C152.837 220.799 143.47 232.684 134.073 246.428C124.608 260.27 116.854 275.24 111.027 290.922C106.365 303.467 102.919 316.493 100.784 329.636C97.1538 351.981 98.5942 367.038 98.6091 367.188L95.1209 367.56Z" fill="#020100"/>
<path fill-rule="evenodd" clip-rule="evenodd" d="M128.082 390.409L124.597 390.007C124.609 389.895 125.782 378.461 123.051 359.631C121.447 348.573 118.83 337.164 115.273 325.722C110.827 311.42 104.89 297.024 97.6279 282.933C90.452 269.011 81.2872 256.45 70.3879 245.599C61.5898 236.839 51.6453 229.164 40.8309 222.787C22.5314 211.997 7.37193 208.306 5.71704 208.122C5.76482 208.127 5.8015 208.127 5.82677 208.127V204.51C6.65947 204.51 11.1413 205.569 17.1076 207.678C22.8259 209.7 31.7667 213.348 41.8865 219.246C53.0687 225.762 63.3556 233.632 72.4611 242.637C83.7863 253.836 93.2953 266.823 100.724 281.235C108.103 295.551 114.134 310.185 118.648 324.731C122.262 336.378 124.919 347.996 126.543 359.262C129.318 378.511 128.133 389.933 128.082 390.409Z" fill="#020100"/>
<path fill-rule="evenodd" clip-rule="evenodd" d="M126.891 382.119C126.836 381.596 121.244 329.216 112.316 272.94C107.076 239.913 101.73 212.032 96.4264 190.07C89.8417 162.802 83.348 144.741 77.126 136.389L79.9066 134.186C86.4246 142.935 93.1282 161.445 99.8308 189.202C105.158 211.262 110.523 239.244 115.779 272.371C124.721 328.738 130.322 381.201 130.377 381.725L126.891 382.119Z" fill="#020100"/>
<path fill-rule="evenodd" clip-rule="evenodd" d="M115.467 385.516L111.961 385.431C112.307 370.071 107.9 344.445 100.46 318.557C97.0091 306.552 93.2625 295.77 89.6247 287.379C84.6068 275.804 81.3467 272.376 79.8502 271.363C77.4175 269.716 73.2659 269.257 67.5102 269.997C62.6755 270.619 56.7896 272.091 50.0159 274.371C38.3925 278.284 28.1024 283.275 27.9998 283.325L26.5024 280.054C26.6067 280.003 37.0685 274.928 48.8962 270.943C55.8885 268.588 61.9999 267.063 67.0609 266.41C73.7665 265.546 78.5795 266.176 81.7742 268.339C85.0027 270.524 88.7212 276.434 92.8261 285.902C96.5258 294.436 100.328 305.373 103.822 317.529C111.359 343.753 115.821 369.804 115.467 385.516Z" fill="#020100"/>
<path fill-rule="evenodd" clip-rule="evenodd" d="M48.6996 322.89L46.355 320.2C46.46 320.104 57.0064 310.354 69.0618 301.851C76.1953 296.82 82.4729 293.19 87.7201 291.062C94.687 288.236 100.024 288.026 103.582 290.438L101.656 293.461C96.8922 290.232 86.0199 294.272 71.0413 304.837C59.1756 313.206 48.803 322.794 48.6996 322.89Z" fill="#020100"/>
<path fill-rule="evenodd" clip-rule="evenodd" d="M107.816 369.294H104.309C104.309 367.026 106.908 353.905 110.612 341.172C114.205 328.825 120.036 312.542 127.419 305.091C130.31 302.173 133.305 300.727 136.324 300.795C144.541 300.979 150.607 310.139 154.355 328.018C157.035 340.802 157.53 353.308 157.55 353.834L154.046 353.974C154.041 353.847 153.54 341.221 150.919 328.743C149.401 321.515 147.486 315.768 145.226 311.663C142.618 306.926 139.598 304.486 136.248 304.411C134.209 304.367 132.066 305.463 129.876 307.672C116.916 320.745 107.818 366.091 107.816 369.294Z" fill="#020100"/>
<mask id="mask5_755:13255" style="mask-type: alpha;" maskUnits="userSpaceOnUse" x="0" y="131" width="205" height="363">
<path fill-rule="evenodd" clip-rule="evenodd" d="M0 493.191H204.652V131.69H0V493.191Z" fill="white"/>
</mask>
<g mask="url(#mask5_755:13255)">
<path fill-rule="evenodd" clip-rule="evenodd" d="M47.5867 493.191H179.967V366.442H47.5867V493.191Z" fill="#F39200"/>
</g>
</svg>
