<svg xmlns="http://www.w3.org/2000/svg"
  xmlns:xlink="http://www.w3.org/1999/xlink" viewBox="0 0 1190.55 841.89" xml:space="preserve">
  <style>.st2{fill:#6195b3}.st7{fill:#eeeef0}.st8{fill:#30513f}.st12{fill:none;stroke:#e64427;stroke-width:1.6062;stroke-linecap:round;stroke-linejoin:round;stroke-miterlimit:10}</style>
  <g id="BAKGRUND">
    <defs>
      <path id="SVGID_1_" d="M12.32 17.6h1162.21v808.05H12.32z"/>
    </defs>
    <use xlink:href="#SVGID_1_" overflow="visible" fill="#f3d484"/>
    <clipPath id="SVGID_00000109711958367171993310000003567616171310438283_">
      <use xlink:href="#SVGID_1_" overflow="visible"/>
    </clipPath>
    <g clip-path="url(#SVGID_00000109711958367171993310000003567616171310438283_)">
      <path fill="#a3853f" d="m709.22 695.29-2.19-485.46 342.4-2.35 5.74 495.39z"/>
      <path class="st2" d="m730.95 256.41.84 87.21 300.58-.84-1.45-87.28z"/>
      <defs>
        <path id="XMLID_00000126302995605339881020000002467948361275397250_" d="m733.49 359.71-.56 345.18 137.75-3.87-.57-340.57z"/>
      </defs>
      <use xlink:href="#XMLID_00000126302995605339881020000002467948361275397250_" overflow="visible" fill="#6195b3"/>
      <clipPath id="XMLID_00000111162354181189073750000006571302366130436255_">
        <use xlink:href="#XMLID_00000126302995605339881020000002467948361275397250_" overflow="visible"/>
      </clipPath>
      <path clip-path="url(#XMLID_00000111162354181189073750000006571302366130436255_)" fill="#cccdcf" d="m726.91 576.63.43 152.51 152.54-1.2-.74-152.59z"/>
      <g>
        <defs>
          <path id="XMLID_00000134246305684074308540000004957131148408841127_" d="m893.58 359.88 2.85 339.9 136.75.2-3.4-342.38z"/>
        </defs>
        <use xlink:href="#XMLID_00000134246305684074308540000004957131148408841127_" overflow="visible" fill="#6195b3"/>
        <clipPath id="XMLID_00000049936624117975322250000000377327132660260543_">
          <use xlink:href="#XMLID_00000134246305684074308540000004957131148408841127_" overflow="visible"/>
        </clipPath>
        <path clip-path="url(#XMLID_00000049936624117975322250000000377327132660260543_)" fill="#cccdcf" d="m892.17 572.93.43 147.08 153.19-1.43-.73-147.18z"/>
      </g>
    </g>
    <path clip-path="url(#SVGID_00000109711958367171993310000003567616171310438283_)" fill="#ddc27c" d="m-35.92 687.99 1240.81-2.55-15.56 213.58L-14.5 997.08z"/>
    <path d="M911.52 496.99c.42 14.41-11.3 27.66-27.4 27.66-16.1 0-28.57-12.34-28.1-27.54.44-14.4 10.44-26.49 28.23-26.21 16.89.26 26.88 12.72 27.27 26.09zm-27.38-19.36c-13.34-.21-20.82 8.85-21.16 19.64-.35 11.4 8.99 20.64 21.06 20.64 12.07 0 20.85-9.93 20.53-20.73-.29-10.01-7.78-19.35-20.43-19.55z" clip-path="url(#SVGID_00000109711958367171993310000003567616171310438283_)" fill="#30513f"/>
  </g>
  <g id="BASKETKORG">
    <path id="XMLID_7_" class="st7" d="M890.11 82.35c-36.79-.57-57.45 24.43-58.37 54.2-.97 31.44 24.81 56.96 58.1 56.96 33.29 0 57.52-27.39 56.65-57.19-.81-27.65-21.48-53.43-56.38-53.97z"/>
    <path class="st8" d="m887.94 145.59 1.75-38.99 2.85-.38.91 39.16z"/>
    <path class="st8" d="m866.75 150.77 30.78-12.33-1.62-5.45-30.47 15.21zM906.92 100.04v1.52l1.86-.17.11 8.21 1.99.16-.13-10.69zM861.91 100.2v1.52l1.86-.17.11 8.21 2 .15-.14-10.69zM866.88 99.58v1.52l1.85-.17.11 8.21 2 .15-.13-10.69zM884.08 94.77v1.52l1.86-.17.11 8.21 1.79-.25-.13-10.7zM890.14 94.53s2.9-2.25 4.8-.61c1.56 1.34 1.4 2.97-.03 4.88-1.43 1.9-2.99 3.39-2.99 3.39l3.29-.11.19 1.59-5.56.18.01-1.87s1.24-1.51 2.68-3.24c1.12-1.34 1.81-2.17 1.17-3.13-.67-1.01-2.72.27-2.72.27l-.84-1.35zM920.36 112.77s2.92-2.97 5.45-1.26c2.1 1.42 1.63 3.52.03 5.65-1.6 2.13-2.97 3.64-2.97 3.64h3.62l-.11 1.88-6.2.12-.14-1.95s1.67-2.12 3.36-3.99c1.47-1.63 2.33-2.5 1.57-3.47-.99-1.25-3.77.74-3.77.74l-.84-1.36zM925.53 132.3s5.1-1.27 5.51 2.71c.29 2.8-2.57 3.29-2.57 3.29s3.11.49 3.07 3c-.07 4.03-5.78 3.45-5.78 3.45l-.09-1.64s3.97-.08 3.84-1.89c-.14-1.81-3.21-1.36-3.21-1.36l-.32-2.43s3.3-.08 3.3-2.22-3.48-1.56-3.48-1.56l-.27-1.35zM918.76 153.96l-1.21 6.92 4.57-.14.33 3.69 1.52.1-.27-10.8-1.65-.17v5.5l-2.47.03.49-5.28zM910.12 167.2h-4.44l-.12 5.06s3.79-.28 3.83 1.68c.05 2.24-3.74 1.96-3.74 1.96l.03 1.67s5.24.48 5.36-3.46c.1-3.46-3.81-3.58-3.81-3.58l.07-1.55 2.77-.12.05-1.66zM890.18 172.09s-5.11 3.64-5.11 6.64c0 3 1.28 3.94 3.77 3.8 2.06-.12 3.1-2.79 2.38-4.34-1.03-2.2-3.82-1.55-3.82-1.55l3.72-4.03-.94-.52zM846.94 146.01s5.04-4.37 4.83-7.71c-.21-3.34-1.77-4.17-4.07-4.02-2.3.15-3.26 3.33-2.34 5.01 1.3 2.38 4.37 1.46 4.37 1.46l-3.86 4.76 1.07.5zM866.62 166.92l6.97.31-1.86 11.16h-1.7l1.08-9.14-4.49-.62zM855.09 153.63c-2.34.18-3.05 1.3-3.13 3.08-.1 2.3 2.35 2.67 2.35 2.67s-2.67.9-2.51 3.07 1.38 3.18 3.39 3.18 4.02-.85 3.65-3.44c-.37-2.61-2.67-2.81-2.67-2.81s2.57-.3 2.41-2.62c-.15-2.33-1.4-3.29-3.49-3.13z"/>
    <g>
      <path class="st8" d="M846.84 117.35v1.52l1.35-.03.11 8.21 1.73-.12.13-10.41zM853.9 116.66c-2.01.14-3.16 2.66-3.02 4.96.14 2.3.58 5.17 3.66 5.24 3.09.07 3.52-3.3 3.3-5.46-.2-2.15-.77-4.95-3.94-4.74z"/>
    </g>
    <g>
      <path id="XMLID_00000053525178129842439560000007980549751664486566_" class="st7" d="m221.83 158.43.91 263.7 174.02 1.25-.49-263.89z"/>
      <path id="XMLID_00000046315162358056433930000003061415726958848164_" class="st2" d="m233.58 171.51 1.15 233.17 150.9 1.15-.77-233.36z"/>
      <path class="st7" d="m308.08 170.04-3.27 241.51 8.95.32 2.76-241.93z"/>
      <path class="st7" d="m225.65 231.36 161.52 1.17.12-8.95-161.79-.66zM228.64 292.59l161.52 1.17.12-8.95-161.79-.66zM227.15 355.32l161.51 1.17.12-8.95-161.79-.66z"/>
    </g>
    <g>
      <path id="XMLID_00000044864326644604900690000004358165717991565755_" class="st7" d="m436.94 159.87.91 263.71 174.03 1.25-.5-263.89z"/>
      <path id="XMLID_00000071519119277163475690000005246343437868392885_" class="st2" d="m448.7 172.95 1.15 233.17 150.89 1.15-.77-233.36z"/>
      <path class="st7" d="M523.19 171.48 519.93 413l8.95.32 2.76-241.94z"/>
      <path class="st7" d="m440.77 232.8 161.52 1.17.12-8.95-161.8-.66zM443.76 294.04l161.51 1.17.12-8.95-161.79-.67zM442.26 356.76l161.52 1.17.12-8.95-161.79-.66z"/>
    </g>
    <g>
      <path class="st8" d="m178.45 359.24 2.29 404.58 9.76-.17.01-403.67z"/>
      <path class="st7" d="M101.38 363.48c-.12-17.85-.52-87.31.33-102.47.33-5.9 8.44-16.98 25.48-27.37 17.8-10.86 39.2-17.09 58.71-17.09.71 0 1.42.01 2.13.02 48.01 1.08 78.92 32.07 79.74 48.59.84 16.77-.28 82.24-.6 99.53l-165.79-1.21z"/>
      <path d="M185.89 220.79c.68 0 1.36.01 2.04.02 20.44.46 40.1 6.77 55.36 17.76 13.54 9.75 19.91 20.48 20.23 26.79.78 15.5-.14 73.24-.53 95.04l-157.39-1.14c-.14-22.59-.44-83.96.34-98.01.23-4.16 7.66-14.35 23.45-23.98 17.16-10.48 37.75-16.48 56.5-16.48m0-8.5c-45.53 0-87.47 31.08-88.44 48.48-.98 17.69-.3 106.93-.3 106.93l174.19 1.27s1.66-84.37.67-104.02c-.98-19.65-34.39-51.52-83.89-52.63-.74-.03-1.49-.03-2.23-.03z" fill="#235a96"/>
      <path fill="none" stroke="#e64427" stroke-width="7.4399" stroke-miterlimit="10" d="m151.71 273.92.98 50.42 66.91-1.46-.21-50.65z"/>
      <g>
        <path fill="none" stroke="#e64427" stroke-width="8.5662" stroke-linecap="round" stroke-miterlimit="10" d="m239.27 342.85-110.96-.37"/>
        <path class="st12" d="M155.14 406.32c.37 11.06-6.55 24.65-2.09 27.63 6.64 4.42 12.12-13.69 12.12-13.69s-3.69 15.11 2.21 15.48c6.63.41 7.74-15.85 7.74-15.85s-2.65 16.96 6.27 16.96c6.27 0 5.53-15.85 5.53-15.85s-.74 16.96 7.37 15.85c6.38-.87 4.05-16.59 4.05-16.59s7 16.59 13.64 13.27c6.64-3.32-5.9-15.85-5.16-25.8s30.23-61.93 30.23-61.93l-107.27.74c.01 0 25.06 50.82 25.36 59.78z"/>
        <path class="st12" d="m165.18 420.26 17.16-73.65 16.01 73.65-51.62-73.65 40.2 74.39 33.91-74.83-45.71 73.72-45.34-73.35z"/>
        <path class="st12" d="m169.6 346.17-14.76 54.52 49.84-53.93 2.13 60.5"/>
      </g>
    </g>
  </g>
</svg>