<svg width="1165" height="543" viewBox="0 0 1165 543" fill="none" xmlns="http://www.w3.org/2000/svg">
<path fill-rule="evenodd" clip-rule="evenodd" d="M576.489 219.225H762.055V0.347656H576.489V219.225Z" fill="#E73446"/>
<path fill-rule="evenodd" clip-rule="evenodd" d="M581.558 213.976H757.529V5.41699H581.558V213.976Z" fill="#D9BBBE"/>
<path fill-rule="evenodd" clip-rule="evenodd" d="M688.19 140.835H757.529V58.6426H688.19V140.835Z" fill="#EC7070"/>
<path fill-rule="evenodd" clip-rule="evenodd" d="M702.324 133.774H711.726V68.0566H702.324V133.774Z" fill="#E73446"/>
<path fill-rule="evenodd" clip-rule="evenodd" d="M688.19 58.6426L672.802 87.0659L673.064 140.56L688.19 140.835V58.6426Z" fill="#E73446"/>
<path fill-rule="evenodd" clip-rule="evenodd" d="M581.376 213.975H642.387V132.507H581.376V213.975Z" fill="#EC7070"/>
<path fill-rule="evenodd" clip-rule="evenodd" d="M598.938 169.258H642.387V148.981H598.938V169.258Z" fill="#E73446"/>
<path fill-rule="evenodd" clip-rule="evenodd" d="M598.938 200.217H642.387V178.673H598.938V200.217Z" fill="#E73446"/>
<path fill-rule="evenodd" clip-rule="evenodd" d="M673.164 213.976H757.529V131.783H673.164V213.976Z" fill="#EC7070"/>
<path fill-rule="evenodd" clip-rule="evenodd" d="M689.108 169.62H757.571V148.981H689.108V169.62Z" fill="#E73446"/>
<path fill-rule="evenodd" clip-rule="evenodd" d="M689.289 200.76H757.751V180.121H689.289V200.76Z" fill="#E73446"/>
<path fill-rule="evenodd" clip-rule="evenodd" d="M673.164 131.783L657.775 160.207L658.038 213.7L673.164 213.976V131.783Z" fill="#E73446"/>
<path fill-rule="evenodd" clip-rule="evenodd" d="M640.396 49.2281C640.396 60.0267 631.641 68.7805 620.843 68.7805C610.044 68.7805 601.291 60.0267 601.291 49.2281C601.291 38.4296 610.044 29.6758 620.843 29.6758C631.641 29.6758 640.396 38.4296 640.396 49.2281Z" fill="#EC621D"/>
<path fill-rule="evenodd" clip-rule="evenodd" d="M724.954 133.774H734.356V68.0566H724.954V133.774Z" fill="#E73446"/>
<path fill-rule="evenodd" clip-rule="evenodd" d="M748.127 134.136H757.529V68.0566H748.127V134.136Z" fill="#E73446"/>
<path fill-rule="evenodd" clip-rule="evenodd" d="M420.919 91.7875H559.958V0H420.919V91.7875Z" fill="#E73446"/>
<path fill-rule="evenodd" clip-rule="evenodd" d="M425.26 87.2611H555.07V5.20312H425.26V87.2611Z" fill="#D9BBBE"/>
<path fill-rule="evenodd" clip-rule="evenodd" d="M443.717 26.958C442.992 32.0727 442.417 37.2081 442.005 42.3574C441.598 47.4488 441.346 52.5527 441.251 57.6593C441.197 60.533 441.194 63.4072 441.238 66.2808C441.245 66.7068 441.608 67.1154 442.053 67.0955C442.489 67.0762 442.875 66.7374 442.868 66.2808C442.788 61.1887 442.863 56.0942 443.093 51.0067C443.324 45.9192 443.709 40.8387 444.249 35.7746C444.4 34.3531 444.564 32.933 444.74 31.5144C444.828 30.8049 444.919 30.0959 445.013 29.3875C445.021 29.3283 445.029 29.2693 445.037 29.2103C445.044 29.1513 445.052 29.0923 445.06 29.0332C445.053 29.0874 445.053 29.0859 445.061 29.0283C445.085 28.8513 445.109 28.6742 445.133 28.4972C445.184 28.1284 445.235 27.7598 445.288 27.3912C445.347 26.9712 445.185 26.4952 444.719 26.389C444.334 26.3013 443.78 26.5066 443.717 26.958Z" fill="white"/>
<path fill-rule="evenodd" clip-rule="evenodd" d="M455.644 27.2069C455.391 32.0706 455.344 36.9444 455.504 41.812C455.664 46.6646 456.029 51.5105 456.598 56.3322C456.924 59.0947 457.315 61.8497 457.771 64.5938C458.032 64.25 458.295 63.9062 458.556 63.5624C458.674 63.5814 458.688 63.5798 458.598 63.5577C458.701 63.6049 458.712 63.6074 458.633 63.5651C458.559 63.5155 458.567 63.5216 458.656 63.5839C458.596 63.5184 458.599 63.5282 458.667 63.6131C458.644 63.5805 458.624 63.5463 458.605 63.511C458.645 63.6154 458.651 63.625 458.622 63.5396C458.603 63.449 458.604 63.463 458.625 63.5814C458.628 63.4892 458.624 63.5024 458.612 63.6208C458.687 63.2028 458.499 62.7225 458.043 62.6188C457.645 62.5281 457.121 62.7392 457.041 63.1878C456.959 63.6475 457.018 64.0979 457.296 64.4833C457.609 64.9167 458.028 65.1354 458.556 65.1917C458.804 65.2183 459.053 65.056 459.196 64.8707C459.365 64.6519 459.386 64.427 459.342 64.1605C459.143 62.9631 458.956 61.7637 458.782 60.5625C458.74 60.2694 458.698 59.9763 458.657 59.683C458.637 59.5366 458.617 59.3899 458.597 59.2433C458.589 59.1846 458.581 59.1258 458.573 59.0671C458.565 59.0085 458.557 58.9498 458.549 58.8912C458.556 58.9464 458.556 58.9453 458.549 58.8877C458.468 58.2861 458.391 57.6842 458.318 57.0817C458.022 54.6722 457.778 52.2562 457.585 49.8362C457.201 45.026 457.02 40.1995 457.042 35.3738C457.054 32.6503 457.132 29.9271 457.274 27.2069C457.296 26.7806 456.883 26.3732 456.459 26.3922C455.998 26.4129 455.668 26.7503 455.644 27.2069Z" fill="white"/>
<path fill-rule="evenodd" clip-rule="evenodd" d="M440.456 44.6724C443.66 44.0969 446.872 43.5653 450.091 43.0794C451.685 42.8386 453.282 42.6089 454.879 42.3904C455.333 42.3283 455.58 42.295 455.995 42.2399C456.394 42.1869 456.794 42.1344 457.194 42.0828C457.994 41.9792 458.794 41.8786 459.594 41.7808C461.417 41.5579 463.242 41.3496 465.069 41.1553C465.491 41.1104 465.904 40.813 465.883 40.3406C465.865 39.938 465.522 39.4778 465.069 39.5259C461.774 39.8764 458.484 40.2749 455.201 40.7168C451.96 41.1531 448.725 41.6347 445.498 42.1619C443.67 42.4604 441.845 42.7738 440.022 43.1013C439.602 43.1768 439.327 43.7112 439.453 44.1034C439.6 44.5547 440.005 44.7533 440.456 44.6724Z" fill="white"/>
<path fill-rule="evenodd" clip-rule="evenodd" d="M465.876 27.9248C466.253 32.8001 466.631 37.6753 467.008 42.5503C467.196 44.9805 467.384 47.4107 467.573 49.8408C467.76 52.2691 467.96 54.6978 468.072 57.1312C468.196 59.8401 468.207 62.5573 467.963 65.2601C467.913 65.8162 468.522 66.1504 468.994 66.0456C470.778 65.6502 472.572 65.3021 474.374 65.0037C476.223 64.6976 477.832 64.4778 479.674 64.2761C480.097 64.2299 480.51 63.9345 480.489 63.4614C480.471 63.0599 480.128 62.5971 479.674 62.6467C475.94 63.0555 472.229 63.6615 468.561 64.4745C468.905 64.7363 469.249 64.9983 469.592 65.2601C470.028 60.423 469.645 55.5682 469.272 50.7408C468.894 45.8656 468.517 40.9903 468.139 36.1151C467.928 33.385 467.717 30.6549 467.505 27.9248C467.472 27.501 467.154 27.0893 466.691 27.1101C466.278 27.1286 465.841 27.4699 465.876 27.9248Z" fill="white"/>
<path fill-rule="evenodd" clip-rule="evenodd" d="M465.984 28.9881L475.664 28.7536C476.09 28.7435 476.499 28.3863 476.479 27.9389C476.459 27.5064 476.12 27.1132 475.664 27.1243L465.984 27.3587C465.558 27.369 465.149 27.726 465.169 28.1734C465.188 28.6059 465.527 28.9991 465.984 28.9881Z" fill="white"/>
<path fill-rule="evenodd" clip-rule="evenodd" d="M468.701 47.2404C471.439 47.609 474.197 47.7046 476.951 47.4791C477.375 47.4445 477.787 47.1293 477.766 46.6644C477.748 46.2529 477.406 45.8126 476.951 45.8497C475.629 45.9581 474.301 45.9978 472.973 45.965C472.325 45.9489 471.677 45.9156 471.029 45.8654C470.706 45.8403 470.383 45.811 470.06 45.7773C469.884 45.7588 469.708 45.7393 469.532 45.7184C469.444 45.7079 469.357 45.6973 469.269 45.6862C469.245 45.6831 469.007 45.6522 469.135 45.6692C468.714 45.6127 468.239 45.7697 468.132 46.2382C468.045 46.6204 468.25 47.1796 468.701 47.2404Z" fill="white"/>
<path fill-rule="evenodd" clip-rule="evenodd" d="M481.304 27.8243C482.371 32.7607 483.268 37.7337 483.99 42.7322C484.079 43.3462 484.165 43.9604 484.249 44.5751C484.313 45.0459 484.399 45.7026 484.473 46.2911C484.633 47.551 484.782 48.8123 484.919 50.0747C485.192 52.5703 485.421 55.0707 485.607 57.5741C485.817 60.4018 485.971 63.2333 486.071 66.0669C486.086 66.4916 486.433 66.9022 486.886 66.8816C489.902 66.7436 492.917 66.6059 495.933 66.4681C496.788 66.429 497.643 66.3899 498.498 66.3508C498.923 66.3314 499.333 65.99 499.313 65.5361C499.294 65.1114 498.954 64.7006 498.498 64.7214C495.482 64.8594 492.467 64.9971 489.452 65.1349C488.596 65.174 487.741 65.2131 486.886 65.2522L487.701 66.0669C487.522 61.0047 487.169 55.9491 486.639 50.9117C486.104 45.8315 485.395 40.7689 484.511 35.7378C484.02 32.9452 483.474 30.1624 482.875 27.3911C482.785 26.9739 482.276 26.6919 481.873 26.8221C481.434 26.9644 481.208 27.3773 481.304 27.8243Z" fill="white"/>
<path fill-rule="evenodd" clip-rule="evenodd" d="M498.611 26.9659C499.011 30.2429 499.411 33.5201 499.811 36.7971C500.209 40.0592 500.607 43.3212 501.005 46.5834C501.405 49.8604 501.805 53.1374 502.205 56.4146C502.404 58.0456 502.603 59.6766 502.802 61.3078C502.903 62.1308 503 62.9542 503.103 63.7768C503.158 64.2061 503.226 64.5911 503.498 64.9427C503.811 65.3477 504.291 65.4732 504.781 65.4907C506.424 65.5492 508.072 65.5421 509.716 65.5678C511.352 65.5932 512.988 65.6187 514.623 65.6441C515.029 65.6504 515.434 65.6567 515.839 65.6631C516.265 65.6696 516.673 65.2836 516.654 64.8484C516.634 64.4012 516.296 64.0408 515.839 64.0337C512.628 63.9837 509.416 63.9338 506.205 63.8838C505.799 63.8775 505.394 63.8711 504.989 63.8648C504.907 63.8635 504.826 63.8633 504.745 63.8599C504.708 63.8583 504.671 63.8574 504.635 63.8534C504.711 63.8615 504.721 63.8979 504.638 63.844C504.711 63.891 504.753 63.9113 504.803 63.9879C504.793 63.9727 504.728 63.8918 504.785 63.9734C504.836 64.0476 504.778 63.9528 504.769 63.9189C504.747 63.8436 504.736 63.7676 504.721 63.691C504.755 63.8641 504.719 63.6637 504.711 63.5972C504.686 63.3878 504.66 63.1781 504.634 62.9686C504.585 62.5647 504.536 62.1607 504.486 61.7566C504.291 60.1555 504.096 58.5543 503.9 56.9532C503.509 53.751 503.118 50.5487 502.728 47.3465C502.337 44.1442 501.946 40.942 501.555 37.7398C501.166 34.5525 500.777 31.3651 500.388 28.1779C500.339 27.7738 500.289 27.3699 500.24 26.9659C500.189 26.5444 499.902 26.1298 499.426 26.1512C499.028 26.1689 498.555 26.5127 498.611 26.9659Z" fill="white"/>
<path fill-rule="evenodd" clip-rule="evenodd" d="M530.5 28.6213C528.519 26.7143 525.628 25.4383 522.844 25.7247C521.384 25.8748 520.033 26.4199 518.936 27.4073C517.801 28.4293 517.077 29.8311 516.596 31.2609C516.065 32.8374 515.807 34.5093 515.627 36.1581C515.433 37.9368 515.387 39.7293 515.438 41.5172C515.54 45.1355 515.985 48.7586 516.518 52.3364C516.776 54.0727 517.108 55.8049 517.66 57.4745C518.18 59.0477 518.882 60.5954 520.021 61.8218C521.103 62.9857 522.557 63.7318 524.063 64.1858C524.776 64.4011 525.508 64.5508 526.245 64.66C527.027 64.7757 527.817 64.8698 528.608 64.8307C529.428 64.79 530.236 64.6248 530.969 64.2447C531.665 63.8829 532.237 63.3007 532.637 62.6294C533.446 61.2696 533.606 59.6178 533.811 58.0822C534.264 54.6917 534.421 51.2628 534.286 47.8449C534.15 44.3838 533.717 40.929 533 37.5403C532.645 35.8673 532.219 34.2093 531.722 32.5731C531.476 31.7615 531.212 30.9553 530.93 30.1551C530.673 29.4223 530.427 28.6588 530.027 27.9884C529.622 27.3101 529.06 26.778 528.306 26.5195C527.902 26.3811 527.397 26.6777 527.303 27.0885C527.2 27.5413 527.44 27.9426 527.872 28.0907C527.911 28.1039 528.013 28.1497 527.854 28.076C527.882 28.0891 527.91 28.1021 527.938 28.1162C528.002 28.149 528.062 28.1872 528.124 28.2247C528.246 28.2987 528.13 28.2252 528.107 28.206C528.131 28.2258 528.154 28.2453 528.177 28.2656C528.247 28.3268 528.313 28.3925 528.375 28.4615C528.396 28.4847 528.415 28.5102 528.436 28.5325C528.516 28.6154 528.36 28.4207 528.426 28.5165C528.468 28.5781 528.512 28.638 528.552 28.701C528.64 28.838 528.719 28.9805 528.792 29.1261C528.826 29.1947 528.859 29.264 528.891 29.3337C528.909 29.3737 528.926 29.4141 528.944 29.4541C528.941 29.4463 528.892 29.324 528.925 29.4107C528.991 29.5805 529.058 29.7498 529.12 29.9207C529.259 30.2996 529.393 30.6798 529.523 31.0612C530.054 32.6136 530.52 34.1882 530.921 35.7791C531.321 37.3703 531.655 38.9779 531.923 40.5966C531.989 40.9944 532.051 41.3928 532.109 41.7919C532.123 41.8882 532.137 41.9847 532.15 42.081C532.158 42.136 532.166 42.1912 532.173 42.2463C532.176 42.2664 532.195 42.4059 532.178 42.2778C532.205 42.4845 532.232 42.6914 532.257 42.8984C532.357 43.7127 532.44 44.529 532.506 45.3468C532.772 48.6174 532.77 51.9097 532.497 55.1798C532.429 55.9972 532.343 56.8133 532.241 57.6273C532.229 57.7238 532.216 57.8203 532.204 57.9168C532.203 57.9189 532.186 58.0547 532.196 57.974C532.208 57.8834 532.185 58.054 532.183 58.0723C532.154 58.279 532.125 58.4854 532.095 58.6918C532.041 59.0526 531.986 59.4132 531.916 59.7712C531.852 60.1014 531.776 60.4296 531.679 60.7519C531.633 60.9057 531.582 61.0582 531.525 61.2084C531.504 61.2629 531.423 61.44 531.491 61.2977C531.452 61.3793 531.416 61.4617 531.375 61.5423C531.3 61.6918 531.216 61.8372 531.123 61.977C531.08 62.0418 531.035 62.1053 530.988 62.1676C531.087 62.0358 530.943 62.2156 530.903 62.2594C530.796 62.3761 530.68 62.4817 530.56 62.5845C530.676 62.4851 530.515 62.6162 530.473 62.6444C530.386 62.7022 530.298 62.756 530.207 62.8054C530.147 62.8383 530.085 62.868 530.023 62.8986C529.886 62.9665 530 62.9108 530.029 62.899C529.987 62.916 529.944 62.9325 529.901 62.9482C529.738 63.0074 529.572 63.0556 529.404 63.0949C529.324 63.1133 529.244 63.1298 529.164 63.1443C529.118 63.1526 529.072 63.16 529.026 63.1675C529.012 63.1698 528.896 63.1829 528.995 63.1722C529.102 63.1604 528.953 63.1753 528.927 63.1778C528.892 63.1812 528.857 63.1845 528.822 63.1874C528.727 63.1952 528.632 63.2008 528.537 63.2044C528.177 63.2185 527.817 63.2062 527.459 63.1772C527.293 63.1639 527.127 63.1468 526.961 63.1269C526.914 63.1213 526.867 63.1152 526.82 63.1095C526.832 63.1108 526.956 63.1287 526.859 63.1146C526.763 63.1007 526.666 63.0871 526.57 63.0724C525.858 62.9629 525.151 62.8144 524.461 62.6043C524.298 62.5545 524.136 62.5014 523.976 62.4446C523.884 62.4122 523.793 62.3787 523.703 62.3437C523.669 62.3307 523.635 62.3173 523.602 62.3039C523.542 62.2804 523.454 62.2431 523.562 62.2892C523.241 62.152 522.928 61.9969 522.627 61.822C522.471 61.732 522.319 61.6366 522.17 61.5358C522.111 61.4954 522.052 61.4541 521.994 61.4121C521.955 61.384 521.917 61.3554 521.878 61.3267C521.971 61.3962 521.893 61.3372 521.845 61.2984C521.568 61.0728 521.309 60.825 521.072 60.5578C521.013 60.4921 520.956 60.4251 520.9 60.3572C520.875 60.327 520.738 60.1455 520.818 60.2553C520.699 60.0925 520.582 59.9287 520.473 59.759C520.275 59.4503 520.097 59.1294 519.934 58.8006C519.855 58.6415 519.78 58.4803 519.709 58.3178C519.701 58.2991 519.637 58.1536 519.674 58.2401C519.708 58.3187 519.659 58.203 519.657 58.197C519.613 58.0913 519.571 57.9852 519.53 57.8786C519.387 57.5089 519.258 57.1339 519.139 56.7561C518.887 55.9532 518.683 55.1356 518.511 54.3117C518.339 53.4856 518.2 52.653 518.076 51.8182C518.047 51.62 518.019 51.4216 517.991 51.2232C517.977 51.1239 517.964 51.0247 517.95 50.9253C517.931 50.7829 517.964 51.0291 517.945 50.8866C517.935 50.8158 517.926 50.7448 517.917 50.6739C517.862 50.2584 517.809 49.8427 517.756 49.4269C517.541 47.7135 517.345 45.9969 517.214 44.2748C517.084 42.5584 517.018 40.8356 517.062 39.1143C517.084 38.2574 517.133 37.4013 517.216 36.548C517.236 36.3458 517.257 36.1436 517.281 35.9415C517.292 35.8407 517.305 35.7397 517.317 35.6388C517.323 35.5956 517.328 35.5523 517.334 35.509C517.37 35.2317 517.323 35.5822 517.346 35.4232C517.407 34.9911 517.476 34.5602 517.556 34.1309C517.688 33.4231 517.846 32.7197 518.058 32.0314C518.159 31.7046 518.271 31.3815 518.398 31.0641C518.407 31.0424 518.463 30.9046 518.424 30.9988C518.389 31.0855 518.434 30.9776 518.439 30.9667C518.472 30.892 518.505 30.8172 518.539 30.743C518.618 30.5744 518.701 30.4079 518.79 30.2444C518.95 29.9504 519.126 29.6658 519.322 29.3949C519.349 29.3576 519.377 29.3212 519.404 29.2841C519.397 29.2934 519.323 29.3841 519.382 29.3131C519.433 29.2514 519.483 29.1884 519.535 29.1274C519.655 28.988 519.78 28.8534 519.912 28.7251C520.027 28.6121 520.148 28.5035 520.273 28.4005C520.299 28.3782 520.327 28.357 520.354 28.3346C520.45 28.2542 520.247 28.4099 520.344 28.3425C520.414 28.2942 520.482 28.2428 520.553 28.1952C520.804 28.0259 521.07 27.8774 521.346 27.7514C521.383 27.7342 521.421 27.7176 521.46 27.7009C521.435 27.7114 521.297 27.7647 521.437 27.7123C521.505 27.687 521.572 27.6609 521.64 27.6372C521.786 27.5862 521.934 27.5409 522.084 27.5012C522.223 27.4645 522.365 27.4326 522.506 27.4057C522.578 27.3921 522.649 27.3798 522.72 27.3687C522.749 27.3642 522.884 27.349 522.766 27.3615C522.636 27.3752 522.837 27.3548 522.844 27.3541C523.146 27.3231 523.45 27.3128 523.753 27.3207C523.901 27.3246 524.049 27.3329 524.197 27.3454C524.271 27.3515 524.345 27.3589 524.419 27.3673C524.462 27.372 524.504 27.3774 524.546 27.3825C524.484 27.3751 524.422 27.3642 524.52 27.3803C525.164 27.4848 525.794 27.6504 526.403 27.8845C526.465 27.9082 526.526 27.9327 526.587 27.9573C526.729 28.014 526.601 27.9631 526.574 27.9515C526.615 27.9692 526.655 27.9866 526.695 28.0045C526.846 28.0719 526.995 28.143 527.142 28.2178C527.427 28.3625 527.704 28.5205 527.974 28.6914C528.104 28.7738 528.231 28.859 528.357 28.9474C528.429 28.9977 528.5 29.049 528.57 29.1011C528.596 29.1207 528.622 29.1407 528.649 29.1601C528.745 29.2311 528.547 29.0772 528.639 29.1531C528.882 29.3531 529.121 29.555 529.348 29.7735C529.655 30.0693 530.199 30.1019 530.5 29.7735C530.794 29.4534 530.828 28.9371 530.5 28.6213Z" fill="white"/>
<path fill-rule="evenodd" clip-rule="evenodd" d="M540.853 53.8921C539.468 49.4211 538.466 44.8408 537.702 40.2252C537.511 39.068 537.334 37.9082 537.17 36.7467C537.132 36.4773 537.094 36.2075 537.057 35.938C537.046 35.8527 537.034 35.7674 537.023 35.6823C537.039 35.8022 537.02 35.6595 537.018 35.643C536.995 35.4725 536.972 35.302 536.95 35.1314C536.874 34.5481 536.801 33.9644 536.73 33.3806C536.446 31.0408 536.203 28.6963 535.981 26.3499C535.731 23.7031 535.508 21.0539 535.286 18.4046C534.942 18.6665 534.598 18.9283 534.255 19.1901C537.367 19.7196 540.545 19.6061 543.607 18.8273C543.343 18.7574 543.078 18.6877 542.814 18.6178C542.953 18.7777 542.732 18.4761 542.844 18.6544C542.867 18.6904 542.891 18.7254 542.913 18.7621C542.945 18.8173 542.974 18.8745 543.003 18.9316C543.071 19.0648 543.006 18.9428 542.997 18.9153C543.077 19.1485 543.137 19.382 543.173 19.6266C543.143 19.4235 543.173 19.6539 543.175 19.6847C543.179 19.731 543.183 19.7776 543.186 19.8241C543.193 19.9411 543.197 20.0584 543.198 20.1755C543.202 20.4324 543.193 20.6893 543.181 20.946C543.122 22.2017 543.052 23.4572 542.985 24.7126C542.849 27.2375 542.705 29.7621 542.553 32.2862C542.251 37.3032 541.914 42.3184 541.545 47.331C541.441 48.7415 541.335 50.1518 541.226 51.5619C541.2 51.892 541.174 52.222 541.149 52.552L541.127 52.822C541.123 52.8779 541.132 53.0427 541.106 53.0919C541.111 53.0573 541.117 53.0229 541.122 52.9883C541.116 53.0269 541.109 53.0653 541.1 53.1035C541.087 53.1623 541.071 53.2204 541.053 53.2776C541.04 53.3173 540.959 53.5001 541.048 53.3106C541.022 53.3649 540.996 53.419 540.967 53.4715C540.944 53.5139 540.917 53.5537 540.893 53.5956C540.793 53.7681 540.977 53.528 540.872 53.6225C540.874 53.6205 540.803 53.6843 540.802 53.6911C540.909 53.614 540.928 53.5981 540.86 53.6435C540.784 53.6837 540.813 53.6723 540.946 53.6093C541.036 53.5845 541.151 53.5894 541.237 53.6158C541.372 53.6832 541.403 53.6957 541.33 53.6535C541.401 53.6899 541.457 53.7429 541.497 53.8123C541.25 53.4663 540.775 53.2666 540.382 53.5201C540.039 53.7413 539.825 54.2636 540.09 54.6345C540.284 54.9072 540.506 55.1154 540.839 55.192C541.241 55.2847 541.616 55.1319 541.919 54.8732C542.298 54.5485 542.564 54.0186 542.671 53.5367C542.813 52.9014 542.805 52.21 542.855 51.5619C542.906 50.902 542.957 50.242 543.007 49.5817C543.209 46.911 543.401 44.2396 543.584 41.5674C543.949 36.2521 544.276 30.9342 544.566 25.6143C544.647 24.1113 544.727 22.6081 544.802 21.1048C544.866 19.8313 544.848 18.4795 543.966 17.4657C543.777 17.2477 543.441 17.188 543.173 17.2562C542.459 17.4378 541.737 17.5854 541.008 17.694C540.978 17.6983 540.712 17.7356 540.839 17.7188C540.753 17.7302 540.667 17.7407 540.581 17.7508C540.41 17.7709 540.238 17.7892 540.065 17.8053C539.693 17.8401 539.319 17.8653 538.946 17.8803C538.227 17.9094 537.507 17.9026 536.789 17.8589C536.415 17.8363 536.042 17.8037 535.67 17.7613C535.584 17.7516 535.498 17.7411 535.413 17.7304C535.132 17.6954 535.566 17.7541 535.286 17.7134C535.086 17.6842 534.887 17.6529 534.688 17.619C534.422 17.5738 534.196 17.5962 533.978 17.7648C533.789 17.9105 533.636 18.1542 533.657 18.4046C534.053 23.1304 534.451 27.8574 535.003 32.5681C535.558 37.2961 536.26 42.0122 537.276 46.6648C537.839 49.2444 538.501 51.8027 539.282 54.3251C539.408 54.7318 539.856 55.0327 540.284 54.8943C540.693 54.7618 540.988 54.328 540.853 53.8921Z" fill="white"/>
<path fill-rule="evenodd" clip-rule="evenodd" d="M544.937 62.64C544.427 61.2929 543.643 59.7016 542.057 59.4432C540.329 59.1615 538.879 60.5342 538.233 62.0198C537.538 63.6207 537.338 65.6011 538.448 67.0763C538.965 67.7639 539.683 68.3247 540.55 68.4741C541.517 68.6406 542.432 68.3148 543.09 67.5866C544.401 66.1358 544.78 63.9519 544.323 62.0888C544.222 61.6746 543.732 61.3869 543.321 61.5198C542.891 61.6588 542.644 62.0781 542.752 62.5218C542.791 62.6813 542.82 62.8419 542.85 63.003C542.868 63.0979 542.848 62.988 542.847 62.9735C542.851 63.011 542.855 63.0485 542.859 63.0861C542.869 63.1864 542.876 63.2869 542.88 63.3876C542.887 63.551 542.887 63.7149 542.88 63.8784C542.876 63.9539 542.871 64.0294 542.865 64.1047C542.861 64.1421 542.855 64.1798 542.853 64.2175C542.848 64.313 542.874 64.1081 542.848 64.2631C542.795 64.5866 542.719 64.905 542.613 65.2155C542.584 65.299 542.551 65.3805 542.521 65.4632C542.489 65.5512 542.524 65.4569 542.53 65.4427C542.514 65.4773 542.499 65.5117 542.483 65.5459C542.409 65.7047 542.328 65.86 542.238 66.0107C542.197 66.08 542.154 66.1484 542.109 66.2152C542.079 66.2594 541.986 66.3847 542.072 66.2752C541.973 66.4021 541.863 66.5217 541.743 66.63C541.697 66.6718 541.58 66.7459 541.696 66.674C541.629 66.7158 541.565 66.7614 541.495 66.7996C541.466 66.8157 541.435 66.8293 541.405 66.846C541.417 66.8393 541.532 66.8045 541.444 66.829C541.401 66.8411 541.358 66.8581 541.315 66.8701C541.299 66.8744 541.153 66.9101 541.237 66.8932C541.324 66.8762 541.203 66.8963 541.192 66.8969C541.154 66.8983 541.115 66.8998 541.076 66.8998C541.025 66.8996 540.808 66.8663 540.945 66.8969C540.869 66.8798 540.793 66.8648 540.718 66.8427C540.681 66.832 540.643 66.8147 540.606 66.8067C540.506 66.7855 540.701 66.859 540.57 66.7946C540.44 66.7308 540.325 66.651 540.2 66.5797C540.123 66.5355 540.223 66.6012 540.233 66.609C540.207 66.5884 540.182 66.5674 540.157 66.546C540.098 66.496 540.042 66.4437 539.988 66.389C539.933 66.3344 539.881 66.2772 539.831 66.2183C539.81 66.193 539.789 66.1674 539.768 66.1416C539.775 66.1508 539.842 66.2505 539.796 66.1734C539.715 66.0394 539.625 65.9142 539.554 65.7742C539.527 65.7223 539.45 65.5445 539.51 65.6953C539.485 65.633 539.461 65.5704 539.44 65.507C539.39 65.3595 539.35 65.2085 539.321 65.0555C539.314 65.0158 539.307 64.976 539.301 64.936C539.278 64.8038 539.301 65.0468 539.3 64.9128C539.299 64.8328 539.287 64.7522 539.285 64.672C539.278 64.4843 539.285 64.2962 539.303 64.1092C539.307 64.069 539.311 64.0288 539.316 63.9888C539.314 64.0071 539.295 64.0987 539.316 64.0055C539.337 63.9135 539.35 63.8193 539.37 63.727C539.411 63.542 539.462 63.359 539.521 63.179C539.546 63.1017 539.573 63.0249 539.601 62.9487C539.616 62.9107 539.631 62.873 539.645 62.835C539.694 62.7076 539.602 62.9299 539.656 62.805C539.716 62.6672 539.783 62.5323 539.856 62.4011C539.929 62.2693 540.009 62.1409 540.095 62.0167C540.124 61.9753 540.252 61.8141 540.155 61.9291C540.208 61.8668 540.259 61.804 540.314 61.7435C540.414 61.6329 540.52 61.5274 540.632 61.4294C540.658 61.4072 540.685 61.3863 540.71 61.3639C540.799 61.2839 540.605 61.4314 540.705 61.3682C540.771 61.327 540.832 61.2801 540.899 61.2401C540.964 61.201 541.035 61.1705 541.1 61.1311C541.176 61.084 541.063 61.1428 541.053 61.1472C541.082 61.1352 541.112 61.1238 541.142 61.1132C541.203 61.0918 541.264 61.073 541.325 61.0572C541.366 61.0467 541.409 61.0407 541.449 61.0295C541.557 60.9993 541.309 61.034 541.422 61.0324C541.497 61.0313 541.57 61.0235 541.646 61.0263C541.69 61.0277 541.732 61.0322 541.776 61.0353C541.706 61.0304 541.663 61.0141 541.755 61.0378C541.825 61.0556 541.894 61.0735 541.962 61.0952C541.99 61.1041 542.108 61.1571 542.005 61.1084C541.902 61.0599 542.024 61.1202 542.043 61.1305C542.103 61.1646 542.163 61.1975 542.221 61.2357C542.255 61.2574 542.286 61.2815 542.319 61.3036C542.271 61.2714 542.222 61.2212 542.293 61.288C542.405 61.3921 542.513 61.4961 542.611 61.6132C542.631 61.6369 542.65 61.661 542.669 61.6849C542.63 61.636 542.602 61.5926 542.654 61.6697C542.701 61.7392 542.749 61.8082 542.794 61.8797C542.879 62.0155 542.957 62.1558 543.03 62.2986C543.103 62.4427 543.168 62.5903 543.235 62.7373C543.161 62.5743 543.255 62.786 543.275 62.8383C543.306 62.9163 543.336 62.9947 543.366 63.0733C543.517 63.4705 543.923 63.7864 544.368 63.6423C544.756 63.5166 545.099 63.0668 544.937 62.64Z" fill="white"/>
<path fill-rule="evenodd" clip-rule="evenodd" d="M472.334 219.421H559.777V113.693H472.334V219.421Z" fill="#E73446"/>
<path fill-rule="evenodd" clip-rule="evenodd" d="M477.223 213.984H555.586V172.531H477.223V213.984Z" fill="#204EB2"/>
<path fill-rule="evenodd" clip-rule="evenodd" d="M477.258 176.316H555.621V118.943H477.258V176.316Z" fill="#EE7061"/>
<path fill-rule="evenodd" clip-rule="evenodd" d="M530.449 176.094C530.449 176.173 530.449 176.254 530.446 176.333H502.209C502.207 176.254 502.207 176.173 502.207 176.094C502.207 168.296 508.53 161.973 516.328 161.973C524.125 161.973 530.449 168.296 530.449 176.094Z" fill="#F9C818"/>
<path fill-rule="evenodd" clip-rule="evenodd" d="M530.446 176.333C530.319 184.021 524.046 190.215 516.327 190.215C508.609 190.215 502.336 184.021 502.208 176.333H530.446Z" fill="#56ACF6"/>
<path d="M377.198 186.834H265.496C261.546 186.834 258.345 190.036 258.345 193.985C258.345 197.935 261.546 201.136 265.496 201.136H377.198C381.147 201.136 384.349 197.935 384.349 193.985C384.349 190.036 381.147 186.834 377.198 186.834Z" fill="#EECCDC"/>
<path fill-rule="evenodd" clip-rule="evenodd" d="M317.035 114.681L309.208 98.1065L290.411 88.0812L291.092 86.8032L310.313 97.0542L314.797 106.55L312.842 86.2443L314.283 86.1055L317.035 114.681Z" fill="#0A4343"/>
<path fill-rule="evenodd" clip-rule="evenodd" d="M328.301 117.215L332.937 62.3977L334.38 62.5198L330.687 106.189L352.709 44.293L354.074 44.7785L328.301 117.215Z" fill="#0A4343"/>
<path fill-rule="evenodd" clip-rule="evenodd" d="M343.261 70.9945L342.71 38.0301L344.158 38.0059L344.708 70.9702L343.261 70.9945Z" fill="#0A4343"/>
<path fill-rule="evenodd" clip-rule="evenodd" d="M304.944 94.54L303.497 94.466L305.416 56.9902L306.863 57.0643L304.944 94.54Z" fill="#0A4343"/>
<path fill-rule="evenodd" clip-rule="evenodd" d="M304.361 80.4352L285.303 68.687L286.063 67.4541L305.121 79.2024L304.361 80.4352Z" fill="#0A4343"/>
<mask id="mask0" style="mask-type: alpha;" maskUnits="userSpaceOnUse" x="278" y="59" width="17" height="17">
<path fill-rule="evenodd" clip-rule="evenodd" d="M278.26 59.0186H294.734V75.4932H278.26V59.0186Z" fill="white"/>
</mask>
<g mask="url(#mask0)">
<path fill-rule="evenodd" clip-rule="evenodd" d="M294.734 67.2559C294.734 71.8053 291.047 75.4932 286.497 75.4932C281.948 75.4932 278.26 71.8053 278.26 67.2559C278.26 62.7065 281.948 59.0186 286.497 59.0186C291.047 59.0186 294.734 62.7065 294.734 67.2559Z" fill="#F9C818"/>
</g>
<path fill-rule="evenodd" clip-rule="evenodd" d="M314.468 52.7725C314.468 57.3219 310.78 61.0098 306.231 61.0098C301.681 61.0098 297.993 57.3219 297.993 52.7725C297.993 48.2231 301.681 44.5352 306.231 44.5352C310.78 44.5352 314.468 48.2231 314.468 52.7725Z" fill="#F9C818"/>
<path fill-rule="evenodd" clip-rule="evenodd" d="M323.158 84.6358C323.158 89.1851 319.47 92.8731 314.92 92.8731C310.371 92.8731 306.683 89.1851 306.683 84.6358C306.683 80.0864 310.371 76.3984 314.92 76.3984C319.47 76.3984 323.158 80.0864 323.158 84.6358Z" fill="#F9C818"/>
<path fill-rule="evenodd" clip-rule="evenodd" d="M298.717 87.3516C298.717 91.901 295.03 95.5889 290.48 95.5889C285.931 95.5889 282.243 91.901 282.243 87.3516C282.243 82.8022 285.931 79.1143 290.48 79.1143C295.03 79.1143 298.717 82.8022 298.717 87.3516Z" fill="#F9C818"/>
<path fill-rule="evenodd" clip-rule="evenodd" d="M342.348 59.4717C342.348 64.0211 338.66 67.7091 334.111 67.7091C329.562 67.7091 325.874 64.0211 325.874 59.4717C325.874 54.9223 329.562 51.2344 334.111 51.2344C338.66 51.2344 342.348 54.9223 342.348 59.4717Z" fill="#F9C818"/>
<mask id="mask1" style="mask-type: alpha;" maskUnits="userSpaceOnUse" x="334" y="26" width="18" height="17">
<path fill-rule="evenodd" clip-rule="evenodd" d="M334.925 26.0693H351.4V42.544H334.925V26.0693Z" fill="white"/>
</mask>
<g mask="url(#mask1)">
<path fill-rule="evenodd" clip-rule="evenodd" d="M351.4 34.3067C351.4 38.856 347.712 42.544 343.163 42.544C338.613 42.544 334.925 38.856 334.925 34.3067C334.925 29.7573 338.613 26.0693 343.163 26.0693C347.712 26.0693 351.4 29.7573 351.4 34.3067Z" fill="#F9C818"/>
</g>
<path fill-rule="evenodd" clip-rule="evenodd" d="M364.435 46.4366C364.435 50.9859 360.747 54.6739 356.198 54.6739C351.648 54.6739 347.96 50.9859 347.96 46.4366C347.96 41.8872 351.648 38.1992 356.198 38.1992C360.747 38.1992 364.435 41.8872 364.435 46.4366Z" fill="#F9C818"/>
<path fill-rule="evenodd" clip-rule="evenodd" d="M306.321 109.348L306.502 139.943C306.502 139.943 292.019 151.711 293.105 161.849C294.191 171.988 309.71 186.814 309.71 186.814L334.817 186.585C334.817 186.585 351.581 171.807 351.219 162.392C350.857 152.978 338.184 140.487 338.184 140.487L338.003 109.71L306.321 109.348Z" fill="#3267C8"/>
<path fill-rule="evenodd" clip-rule="evenodd" d="M941.783 342.165C941.783 342.165 1009.35 328.254 1033.79 271.54C1058.23 214.827 1014.03 219.118 985.469 247.824C956.909 276.53 943.611 308.658 941.783 342.165Z" fill="#FAC500"/>
<path fill-rule="evenodd" clip-rule="evenodd" d="M926.39 415.126C926.384 415.038 925.838 406.147 927.91 391.798C929.819 378.574 934.405 357.849 945.414 334.201C956.411 310.577 968.503 292.493 976.71 281.481C985.612 269.538 992.006 263.091 992.07 263.027L993.049 264.066C992.986 264.129 986.647 270.523 977.802 282.392C969.641 293.345 957.617 311.332 946.679 334.828C935.758 358.291 931.203 378.846 929.306 391.959C927.251 406.169 927.785 414.942 927.791 415.029L926.39 415.126Z" fill="#0A4343"/>
<path fill-rule="evenodd" clip-rule="evenodd" d="M925.884 287.377C925.884 287.377 985.311 257.345 990.054 196.191C994.799 135.036 954.362 150.002 936.643 184.909C918.923 219.815 916.753 254.326 925.884 287.377Z" fill="#237978"/>
<path fill-rule="evenodd" clip-rule="evenodd" d="M915.079 305.063C915.079 305.063 851.074 251.611 859.798 182.214C868.522 112.817 913.36 143.126 926.335 187.83C939.311 232.535 933.781 271.525 915.079 305.063Z" fill="#FAC500"/>
<path fill-rule="evenodd" clip-rule="evenodd" d="M909.065 310.385C909.065 310.385 828.362 293.461 805.03 227.752C781.697 162.043 835.038 167.568 866.562 201.039C898.086 234.511 910.638 271.728 909.065 310.385Z" fill="#237978"/>
<path fill-rule="evenodd" clip-rule="evenodd" d="M918.844 424.013C918.811 423.638 915.631 386.114 919.062 338.986C921.078 311.299 924.947 285.758 930.562 263.073C937.588 234.687 947.385 210.711 959.68 191.812L960.846 192.62C948.642 211.378 938.912 235.198 931.926 263.418C926.331 286.018 922.475 311.471 920.464 339.071C917.039 386.083 920.21 423.51 920.242 423.883L918.844 424.013Z" fill="#0A4343"/>
<path fill-rule="evenodd" clip-rule="evenodd" d="M890.751 470.536L889.419 470.078C889.548 469.681 902.323 429.774 908.442 373.509C912.036 340.473 912.665 308.345 910.314 278.017C907.377 240.124 899.75 204.951 887.648 173.475L888.953 172.94C901.11 204.557 908.768 239.878 911.716 277.923C914.073 308.347 913.44 340.574 909.834 373.706C903.695 430.115 890.88 470.139 890.751 470.536Z" fill="#0A4343"/>
<path fill-rule="evenodd" clip-rule="evenodd" d="M864.781 500.89C864.781 523.886 883.424 542.53 906.421 542.53H926.347C949.343 542.53 967.986 523.886 967.986 500.89V409.827H864.781V500.89Z" fill="#732A55"/>
<path fill-rule="evenodd" clip-rule="evenodd" d="M911.47 328.041C910.786 316.338 906.299 302.878 898.134 288.034C891.488 275.953 882.383 262.899 871.071 249.235C853.24 227.697 834.63 210.367 827.456 203.916C827.176 203.664 826.996 203.502 826.923 203.434L827.868 202.362C827.938 202.427 828.11 202.583 828.379 202.824C835.576 209.297 854.247 226.684 872.139 248.295C883.509 262.029 892.665 275.158 899.355 287.319C907.627 302.356 912.175 316.029 912.872 327.954L911.47 328.041Z" fill="#0A4343"/>
<path fill-rule="evenodd" clip-rule="evenodd" d="M190.123 408.679C190.113 408.487 189.074 389.248 184.901 364.748C182.452 350.366 179.418 337.014 175.883 325.06C171.471 310.139 166.264 297.373 160.407 287.117L161.617 286.382C167.531 296.738 172.784 309.612 177.229 324.648C180.78 336.66 183.828 350.073 186.287 364.516C190.473 389.098 191.515 408.41 191.525 408.601L190.123 408.679Z" fill="#0A4343"/>
<path fill-rule="evenodd" clip-rule="evenodd" d="M175.102 277.32C174.894 286.216 167.735 293.254 159.11 293.04C150.485 292.826 143.661 285.441 143.869 276.544C144.076 267.648 151.236 260.61 159.861 260.824C168.486 261.038 175.309 268.423 175.102 277.32Z" fill="#F9C818"/>
<path fill-rule="evenodd" clip-rule="evenodd" d="M178.349 296.978C178.349 296.978 152.645 244.619 177.162 203.412C201.679 162.204 221.641 194.384 217.571 226.351C213.501 258.318 199.33 281.286 178.349 296.978Z" fill="#237978"/>
<path fill-rule="evenodd" clip-rule="evenodd" d="M170.896 306.804L169.96 305.723C175.789 300.348 180.918 292.098 185.203 281.203C188.696 272.323 191.646 261.653 193.972 249.488C197.64 230.304 198.766 212.487 199.08 205.717C199.092 205.45 199.1 205.278 199.105 205.208L200.505 205.307C200.501 205.373 200.494 205.535 200.482 205.786C200.167 212.588 199.036 230.49 195.35 249.768C193.006 262.023 190.03 272.783 186.504 281.748C182.138 292.849 176.886 301.279 170.896 306.804Z" fill="#0A4343"/>
<path fill-rule="evenodd" clip-rule="evenodd" d="M212.813 325.324C212.813 325.324 185.672 367.389 175.857 419.862C166.041 472.336 179.387 495.502 179.387 495.502L190.422 489.906C190.422 489.906 183.857 458.431 190.306 421.969C196.756 385.507 222.662 332.399 222.662 332.399L212.813 325.324Z" fill="#0A4343"/>
<path fill-rule="evenodd" clip-rule="evenodd" d="M194.443 266.018C194.443 266.018 184.701 279.164 198.454 293.994C212.206 308.823 194.292 329.807 214.023 338.771C214.023 338.771 224.538 344.377 234.142 330.711C243.746 317.044 244.89 315.08 258.181 317.278C271.471 319.474 278.046 304.963 278.046 304.963C278.046 304.963 261.852 289.848 232.735 280.524C203.619 271.2 194.443 266.018 194.443 266.018Z" fill="#FC7750"/>
<path fill-rule="evenodd" clip-rule="evenodd" d="M194.443 266.018C194.443 266.018 215.067 286.264 242.858 294.557C270.649 302.85 278.046 304.963 278.046 304.963C278.046 304.963 266.682 290.549 243.883 280.263C221.083 269.977 205.848 272.007 194.443 266.018Z" fill="#FEA78D"/>
<path fill-rule="evenodd" clip-rule="evenodd" d="M165.673 359.04C165.673 359.04 173.98 387.977 193.547 412.706C213.113 437.434 228.518 439.99 228.518 439.99L230.255 432.629C230.255 432.629 213.752 423.686 200.014 406.679C186.276 389.672 172.588 357.092 172.588 357.092L165.673 359.04Z" fill="#0A4343"/>
<path fill-rule="evenodd" clip-rule="evenodd" d="M130.875 345.206C130.875 345.206 132.989 354.845 144.845 354.019C156.701 353.192 159.17 369.695 170.708 363.795C170.708 363.795 177.224 360.969 174.826 351.197C172.428 341.422 171.993 340.131 178.057 334.688C184.121 329.244 180.188 320.579 180.188 320.579C180.188 320.579 167.271 322.451 151.981 332.651C136.691 342.851 130.875 345.206 130.875 345.206Z" fill="#EE7061"/>
<path fill-rule="evenodd" clip-rule="evenodd" d="M130.875 345.206C130.875 345.206 147.769 343.204 162.093 333.236C176.418 323.268 180.188 320.579 180.188 320.579C180.188 320.579 169.431 320.435 156.132 327.28C142.833 334.123 137.903 342.105 130.875 345.206Z" fill="#EECCDC"/>
<path fill-rule="evenodd" clip-rule="evenodd" d="M109.468 484.592C109.468 516.587 135.405 542.525 167.401 542.525H210.555C242.55 542.525 268.487 516.587 268.487 484.592V390.27H109.468V484.592Z" fill="#EE7061"/>
<path fill-rule="evenodd" clip-rule="evenodd" d="M1149.61 542.578H968.023C959.625 542.578 952.816 535.769 952.816 527.37V522.301C952.816 513.903 959.625 507.094 968.023 507.094H1149.61C1158.01 507.094 1164.81 513.903 1164.81 522.301V527.37C1164.81 535.769 1158.01 542.578 1149.61 542.578Z" fill="#E73446"/>
<path fill-rule="evenodd" clip-rule="evenodd" d="M877.05 431.043H266.334C257.653 431.043 250.616 424.006 250.616 415.325V266.807C250.616 258.126 257.653 251.089 266.334 251.089H877.05C885.729 251.089 892.766 258.126 892.766 266.807V415.325C892.766 424.006 885.729 431.043 877.05 431.043Z" fill="#0A4343"/>
<path fill-rule="evenodd" clip-rule="evenodd" d="M289.721 452.587H842.437V393.749H289.721V452.587Z" fill="#12ACA3"/>
<path fill-rule="evenodd" clip-rule="evenodd" d="M270.988 496.316L257.048 542.481L268.092 541.757L301.816 496.218L270.988 496.316Z" fill="#0A4343"/>
<path fill-rule="evenodd" clip-rule="evenodd" d="M871.369 496.316L885.309 542.481L874.266 541.757L840.542 496.218L871.369 496.316Z" fill="#0A4343"/>
<path fill-rule="evenodd" clip-rule="evenodd" d="M305.109 324.591C305.109 324.591 306.92 322.6 327.558 326.764C348.197 330.928 379.126 320.362 383.576 323.563C388.026 326.764 387.302 388.318 399.069 404.068C410.837 419.819 369.56 396.826 331.541 412.939C293.523 429.052 324.3 365.687 324.3 365.687L305.109 324.591Z" fill="#0090CF"/>
<path fill-rule="evenodd" clip-rule="evenodd" d="M283.091 306.513C283.091 306.513 276.836 355.312 314.728 401.409C352.619 447.507 337.501 365.626 315.542 334.321C293.586 303.017 283.462 294.236 283.091 306.513Z" fill="#EECCDC"/>
<path fill-rule="evenodd" clip-rule="evenodd" d="M850.584 376.731C850.218 375.708 848.773 360.98 849.678 342.514C850.584 324.048 823.176 345.324 785.228 338.531C763.802 334.695 730.818 327.269 736.709 344.687C742.863 362.876 727.476 394.654 738.339 396.283C749.201 397.913 806.591 387.412 831.755 398.637C856.92 409.861 855.834 391.395 850.584 376.731Z" fill="#0090CF"/>
<path fill-rule="evenodd" clip-rule="evenodd" d="M222.115 362.751L268.921 491.386C270.214 494.941 273.588 497.311 277.372 497.322L864.94 499.094C868.805 499.107 872.247 496.656 873.502 493.002L919.625 358.632C921.582 352.933 917.509 346.955 911.489 346.689L867.861 344.765C864.292 344.607 860.966 346.57 859.379 349.77L821.563 426.041C820.044 429.106 816.921 431.049 813.5 431.056L328.952 432.117C325.451 432.124 322.261 430.105 320.769 426.935L286.629 354.387C285.099 351.135 281.786 349.102 278.194 349.209L230.323 350.648C224.179 350.833 220.013 356.974 222.115 362.751Z" fill="#009998"/>
<path fill-rule="evenodd" clip-rule="evenodd" d="M988.502 472.729C988.502 472.729 987.298 481.8 978.085 474.891C968.872 467.981 979.006 462.146 979.006 462.146C979.006 462.146 970.561 455.39 976.396 450.016C982.231 444.642 991.137 444.642 991.137 444.642C991.137 444.642 992.826 434.201 1000.81 441.264C1008.79 448.327 1002.04 453.548 1002.04 453.548C1002.04 453.548 1004.1 454.405 1005.76 457.201C1007.41 459.997 988.502 472.729 988.502 472.729Z" fill="#0090CF"/>
<mask id="mask2" style="mask-type: alpha;" maskUnits="userSpaceOnUse" x="984" y="381" width="142" height="127">
<path fill-rule="evenodd" clip-rule="evenodd" d="M984.126 381.431H1125.19V507.442H984.126V381.431Z" fill="white"/>
</mask>
<g mask="url(#mask2)">
<path fill-rule="evenodd" clip-rule="evenodd" d="M1068.83 438.959C1068.83 438.959 1056.24 453.085 1038.74 455.082C1021.23 457.078 997.279 447.251 986.991 474.429C976.703 501.607 997.432 507.134 997.432 507.134L1029.98 506.981L1047.49 502.221L1057.62 492.087C1057.62 492.087 1067.45 496.233 1072.21 506.827L1120.12 507.442C1120.12 507.442 1124.72 501.3 1125.18 490.705C1125.64 480.11 1099.54 451.55 1100.46 442.644C1101.38 433.738 1100.62 419.919 1097.7 411.167C1094.78 402.415 1090.33 383.068 1081.88 381.839C1073.44 380.611 1069.6 384.296 1063.92 381.839C1058.24 379.382 1056.55 388.442 1060.23 396.733C1063.92 405.025 1071.29 432.356 1068.83 438.959Z" fill="#0090CF"/>
</g>
<path fill-rule="evenodd" clip-rule="evenodd" d="M1068.3 428.948C1068.3 428.948 1084.8 438.192 1093.71 436.043L1094.63 446.484C1094.63 446.484 1077.28 447.252 1068.83 438.96L1068.3 428.948Z" fill="#E73446"/>
<path fill-rule="evenodd" clip-rule="evenodd" d="M1085.42 450.093C1085.42 453.273 1082.84 455.851 1079.66 455.851C1076.48 455.851 1073.9 453.273 1073.9 450.093C1073.9 446.913 1076.48 444.335 1079.66 444.335C1082.84 444.335 1085.42 446.913 1085.42 450.093Z" fill="#E73446"/>
<path fill-rule="evenodd" clip-rule="evenodd" d="M1086.49 384.605C1086.49 384.605 1102.31 402.263 1104.92 412.704C1107.53 423.145 1112.95 446.76 1103.02 447.927C1093.09 449.095 1093.86 450.016 1090.48 434.508C1087.1 418.999 1082.04 406.716 1084.03 401.341C1086.03 395.967 1081.3 383.487 1086.49 384.605Z" fill="#0090CF"/>
<path fill-rule="evenodd" clip-rule="evenodd" d="M1065.76 383.145C1065.76 385.138 1064.15 386.754 1062.15 386.754C1060.16 386.754 1058.54 385.138 1058.54 383.145C1058.54 381.153 1060.16 379.537 1062.15 379.537C1064.15 379.537 1065.76 381.153 1065.76 383.145Z" fill="#204EB2"/>
<path fill-rule="evenodd" clip-rule="evenodd" d="M1048.26 506.829L1074.06 507.361L1070.67 490.706L1048.26 490.86C1048.26 490.86 1043.8 503.911 1048.26 506.829Z" fill="#0090CF"/>
<path fill-rule="evenodd" clip-rule="evenodd" d="M1069.12 399.481C1064.96 399.481 1061.94 398.578 1060.11 396.783C1058.24 394.946 1058.38 392.858 1058.38 392.771L1059.83 392.884L1059.1 392.827L1059.83 392.878C1059.82 392.941 1059.75 394.425 1061.15 395.779C1062.53 397.101 1065.6 398.534 1072.45 397.857L1072.59 399.298C1071.36 399.42 1070.2 399.481 1069.12 399.481Z" fill="#204EB2"/>
<path fill-rule="evenodd" clip-rule="evenodd" d="M1029.57 496.697C1029.51 482.754 1026.69 473.696 1021.4 470.504C1016.81 467.732 1011.79 470.286 1011.74 470.312L1011.07 469.029C1011.3 468.906 1016.84 466.069 1022.14 469.255C1027.97 472.764 1030.95 481.995 1031.02 496.692L1029.57 496.697Z" fill="#204EB2"/>
<path fill-rule="evenodd" clip-rule="evenodd" d="M1083.49 497.499C1080.65 487.103 1077.41 479.365 1075.18 474.705C1072.77 469.655 1071.01 467.03 1071 467.005L1072.2 466.193C1072.27 466.302 1074.02 468.908 1076.47 474.041C1078.73 478.761 1082.02 486.596 1084.89 497.118L1083.49 497.499Z" fill="#204EB2"/>
<path fill-rule="evenodd" clip-rule="evenodd" d="M1094.56 496.303L1094.08 494.936C1094.36 494.84 1100.87 492.594 1108.87 492.133L1108.95 493.579C1101.17 494.028 1094.62 496.281 1094.56 496.303Z" fill="#204EB2"/>
<path fill-rule="evenodd" clip-rule="evenodd" d="M1071.54 507.11C1066.79 495.814 1047.05 485.618 1046.85 485.516L1047.51 484.227C1047.56 484.252 1052.65 486.869 1058.27 490.885C1065.87 496.313 1070.79 501.583 1072.88 506.548L1071.54 507.11Z" fill="#204EB2"/>
<mask id="mask3" style="mask-type: alpha;" maskUnits="userSpaceOnUse" x="1072" y="506" width="15" height="23">
<path fill-rule="evenodd" clip-rule="evenodd" d="M1072.21 506.828H1086.21V528.174H1072.21V506.828Z" fill="white"/>
</mask>
<g mask="url(#mask3)">
<path fill-rule="evenodd" clip-rule="evenodd" d="M1072.21 506.828C1072.21 506.828 1075.13 528.479 1080.81 528.171C1086.49 527.865 1087.1 519.186 1085.34 507.018L1072.21 506.828Z" fill="#AEE2FF"/>
</g>
<path fill-rule="evenodd" clip-rule="evenodd" d="M1094.32 495.619C1094.32 495.619 1098.43 500.383 1097.24 507.135L1085.26 506.982C1085.26 506.982 1077.43 502.222 1084.19 497.308L1094.32 495.619Z" fill="#AEE2FF"/>
<path fill-rule="evenodd" clip-rule="evenodd" d="M1030.14 506.982L1048.26 506.829C1048.26 506.829 1052.1 502.069 1044.57 498.537C1037.05 495.006 1030.29 496.387 1030.29 496.387L1030.14 506.982Z" fill="#AEE2FF"/>
<path fill-rule="evenodd" clip-rule="evenodd" d="M1085.25 383.116C1085.25 383.116 1103.84 392.742 1104.45 403.337C1105.07 413.932 1112.9 416.389 1112.13 431.283C1111.37 446.177 1106.27 447.445 1101.83 447.732C1097.39 448.019 1097.24 422.991 1097.24 422.991C1097.24 422.991 1076.33 384.699 1085.25 383.116Z" fill="#0090CF"/>
<path fill-rule="evenodd" clip-rule="evenodd" d="M1098.37 449.21C1097.39 449.21 1096.32 449.027 1095.28 448.493C1092.96 447.301 1091.46 444.711 1090.82 440.796C1090.01 435.777 1088.59 431.893 1087.34 428.466C1085.82 424.293 1084.51 420.689 1084.91 416.593C1085.59 409.638 1084.43 405.898 1084.42 405.861L1085.8 405.42C1085.85 405.582 1087.06 409.485 1086.35 416.734C1085.98 420.503 1087.18 423.798 1088.7 427.969C1089.98 431.457 1091.42 435.409 1092.25 440.564C1092.81 444 1094.05 446.234 1095.94 447.204C1098.52 448.527 1101.49 447.079 1101.52 447.064L1102.17 448.362C1102.07 448.411 1100.42 449.21 1098.37 449.21Z" fill="#204EB2"/>
<mask id="mask4" style="mask-type: alpha;" maskUnits="userSpaceOnUse" x="0" y="102" width="147" height="441">
<path fill-rule="evenodd" clip-rule="evenodd" d="M0 102.288H146.315V542.557H0V102.288Z" fill="white"/>
</mask>
<g mask="url(#mask4)">
<path fill-rule="evenodd" clip-rule="evenodd" d="M76.6434 150.868L87.8082 139.819L73.3612 125.216L19.5994 178.813C19.5994 178.813 13.9166 184.299 11.9414 189.795C9.96628 195.291 9.96627 201.226 9.96627 201.226L9.82507 530.935L90.1853 530.978C93.3499 530.978 95.9134 533.544 95.9134 536.706V536.828C95.9134 539.99 93.3499 542.556 90.1853 542.556H5.72812C2.56535 542.556 0 539.99 0 536.828V536.706C0 534.083 1.9842 531.842 4.40109 531.165L4.35764 201.226C4.35764 201.226 4.51333 193.132 7.12393 186.683C9.35616 181.17 13.8387 176.505 16.0583 174.417C16.0927 174.383 16.1271 174.352 16.1615 174.32L69.4163 121.23L62.7051 114.448C61.6298 113.363 61.6388 111.611 62.7251 110.537L70.2545 103.086C71.3408 102.013 73.0914 102.022 74.1668 103.107L97.4649 126.652C98.2832 127.479 98.4733 128.694 98.0334 129.7L110.355 117.509L146.315 153.848L112.604 187.208L76.6434 150.868Z" fill="#0A4343"/>
</g>
</svg>
