<svg xmlns="http://www.w3.org/2000/svg" viewBox="0 0 1920 1080">
	<defs>
		<clipPath id="a">
			<path transform="rotate(-180 959 540)" style="fill:none" d="M-1 0h1920v1080H-1z" />
		</clipPath>
		<clipPath id="b">
			<path d="M1850.66 734.26c3.58 9.26 7.73 58.1 7.46 68.61-.27 10.51-1.44 76.29-12.36 91.02-2.89 3.9-30.08 5.21-42.28 4.06-12.2-1.15-55.04-12.46-61.41-18.17-7.36-6.59.45-114.45 1.93-124.37 1.48-9.92 6.52-10.3 8.67-15.66 2.15-5.36 2.77-20.61 19.02-23.42 16.25-2.82 42.84-.85 52.32-.15 9.48.7 24.75 13.18 26.65 18.08Z" style="fill:#e47837" />
		</clipPath>
		<clipPath id="c">
			<path style="fill:#c3e3eb" d="m1494.43 210.54 3.43 501.42 211.98 1.62.07-505.23-215.48 2.19z" />
		</clipPath>
	</defs>
	<g style="clip-path:url(#a)">
		<path style="fill:#cad3cd" d="m-64 1156.86 2099.44 15.76-2.82-1262.51-2099.44-15.77L-64 1156.86z" />
		<path style="fill:#e8e9dd" d="m2164.13 817.38-2331.25-.58 35.75 426.96 2270.89 140.29 24.61-566.67z" />
		<path style="fill:#b39847" d="m1440.07 200.3-400.42 1.71 1.42 50.13 395.89-.89 3.11-50.95z" />
		<path style="fill:#e3e6eb" d="m1107.95 149.75 18.47 50.69-2.84 53.54-11.84 8.05-10.42-.47-9.95-18.48 10.42-2.84 6.16 11.37 3.31-50.69-13.74-40.75-3.31 13.27-11.37-.48 6.63-22.26 18.48-.95z" />
		<path d="M1115.27 208.05c2.76.69 2.88 3.2 2.67 4.91s-1.71 2.78-3.2 2.67-2.56-1.49-2.56-4.27 1.39-3.74 3.1-3.31ZM1113.89 231.21c2.76.69 2.88 3.2 2.67 4.91s-1.71 2.78-3.2 2.67c-1.49-.11-2.56-1.49-2.56-4.27s1.39-3.74 3.1-3.31Z" style="fill:#3d3f3b" />
		<path style="fill:#e3e6eb" d="m1263.66 149.75 18.48 50.69-2.85 53.54-11.84 8.05-10.42-.47-9.95-18.48 10.42-2.84 6.16 11.37 3.32-50.69-13.74-40.75-3.32 13.27-11.37-.48 6.63-22.26 18.48-.95z" />
		<path d="M1270.98 208.05c2.76.69 2.88 3.2 2.67 4.91s-1.71 2.78-3.2 2.67-2.56-1.49-2.56-4.27 1.39-3.74 3.1-3.31ZM1269.6 231.21c2.76.69 2.88 3.2 2.67 4.91s-1.71 2.78-3.2 2.67c-1.49-.11-2.56-1.49-2.56-4.27s1.39-3.74 3.1-3.31Z" style="fill:#3d3f3b" />
		<g>
			<path style="fill:#e3e6eb" d="m1341.51 149.75 18.48 50.69-2.84 53.54-11.85 8.05-10.42-.47-9.95-18.48 10.43-2.84 6.15 11.37 3.32-50.69-13.74-40.75-3.31 13.27-11.38-.48 6.64-22.26 18.47-.95z" />
			<path d="M1348.84 208.05c2.76.69 2.88 3.2 2.67 4.91s-1.71 2.78-3.2 2.67-2.56-1.49-2.56-4.27 1.39-3.74 3.1-3.31ZM1347.45 231.21c2.76.69 2.88 3.2 2.67 4.91s-1.71 2.78-3.2 2.67c-1.49-.11-2.56-1.49-2.56-4.27s1.39-3.74 3.1-3.31Z" style="fill:#3d3f3b" />
		</g>
		<g>
			<path style="fill:#e3e6eb" d="m1185.8 149.75 18.48 50.69-2.84 53.54-11.85 8.05-10.42-.47-9.95-18.48 10.42-2.84 6.16 11.37 3.32-50.69-13.74-40.75-3.32 13.27-11.37-.48 6.64-22.26 18.47-.95z" />
			<path d="M1193.13 208.05c2.76.69 2.88 3.2 2.67 4.91s-1.71 2.78-3.2 2.67-2.56-1.49-2.56-4.27 1.39-3.74 3.1-3.31ZM1191.74 231.21c2.76.69 2.88 3.2 2.67 4.91s-1.71 2.78-3.2 2.67c-1.49-.11-2.56-1.49-2.56-4.27s1.39-3.74 3.1-3.31Z" style="fill:#3d3f3b" />
		</g>
		<g>
			<path d="M1882.02 769.44c-1.49 13.73-4.3 66.71-11.83 80.45-7.53 13.74-31.75 28.97-31.75 28.97l-3.61-9.65s22.85-14.1 30.06-28.28c3.54-6.97 6.53-62.15 7.02-75.65.49-13.5-6.47-21.44-14.28-22.16-6.06-.55-22.91 1.05-22.91 1.05l-1.8-8.66s18.86-2.73 28.41-1.56c10.96 1.33 22.33 20.33 20.69 35.48Z" style="fill:#e47837" />
			<path d="M1830.46 720.86s4.17-18.83-1.82-21.54c-5.79-2.62-26.39-3.9-29.25.9-2.86 4.8-4.92 17.03-4.92 17.03l9.77 1.27s-1.99-14.68-.02-15.52c4.29-1.81 19.31-.56 21.23.59 1.92 1.14-2.39 17.51-2.39 17.51l7.41-.24Z" style="fill:#7e3f91" />
			<path d="M1850.66 734.26c3.58 9.26 7.73 58.1 7.46 68.61-.27 10.51-1.44 76.29-12.36 91.02-2.89 3.9-30.08 5.21-42.28 4.06-12.2-1.15-55.04-12.46-61.41-18.17-7.36-6.59.45-114.45 1.93-124.37 1.48-9.92 6.52-10.3 8.67-15.66 2.15-5.36 2.77-20.61 19.02-23.42 16.25-2.82 42.84-.85 52.32-.15 9.48.7 24.75 13.18 26.65 18.08Z" style="fill:#e47837" />
			<g style="clip-path:url(#b)">
				<path d="M1743.9 742.46s7.55-1.71 31.39-.92c23.84.78 30.27 9.98 33.2 22.79 2.93 12.81-4.37 138.8-4.37 138.8l5.55-1.09s6.63-120.28 3.03-141.54c-3.6-21.26-24.85-22.89-37.42-23.17-12.57-.28-32.61-.14-32.61-.14l1.23 5.26Z" style="fill:#f6ab7c" />
				<path d="M1853.92 854.03s-37.59-3.29-45.07-3.92c-13.57-1.14-26.87-1.88-50.02-7.59-23.15-5.71-30.71-12.34-30.71-12.34l-2.2 53.75 125.16 30.31 2.83-60.21Z" style="fill:none" />
			</g>
		</g>
		<g>
			<path style="fill:#575563" d="m900.73 864.57 1.62 95.59-800.65-.4.6-115.45 798.43 20.26z" />
			<path style="fill:#f1f1f4" d="m933.09 193.65-8.96 723.53-845.06-2.97 2.39-717.72 851.63-2.84z" />
			<path style="fill:#73c7d3" d="m914.96 216.96-3.51 669.52H762.08l1.53-668.2 151.35-1.32z" />
			<path style="fill:#b690c2" d="m743.06 218.72-3.49 666.89-151.68 2.63 2.29-671.28 152.88 1.76zM575.59 218.72l-3.51 669.52H422.71V216.96l152.88 1.76z" />
			<path style="fill:#6ea562" d="m410.94 218.72-3.52 669.52H258.06V216.96l152.88 1.76z" />
			<path style="fill:#6ea462" d="m245.84 220.31-2.37 662.66H94.1l-1.14-664.42 152.88 1.76z" />
			<path d="M887.55 551.56c5.29-.85 9.07 2.29 9.89 6.04.82 3.75-.68 8.85-5.74 10.06-5.06 1.21-9.88-2.68-10.52-6.47-.64-3.79 1.08-8.78 6.37-9.63ZM605.98 551.56c5.29-.85 9.07 2.29 9.89 6.04.82 3.75-.68 8.85-5.74 10.06-5.06 1.21-9.88-2.68-10.52-6.47-.64-3.79 1.08-8.78 6.37-9.63ZM552.77 551.56c5.29-.85 9.07 2.29 9.89 6.04.82 3.75-.68 8.85-5.74 10.06-5.06 1.21-9.88-2.68-10.52-6.47-.64-3.79 1.08-8.78 6.37-9.63ZM278.79 551.56c5.29-.85 9.07 2.29 9.89 6.04.82 3.75-.68 8.85-5.74 10.06-5.06 1.21-9.88-2.68-10.52-6.47-.64-3.79 1.08-8.78 6.37-9.63ZM223.64 551.56c5.29-.85 9.07 2.29 9.89 6.04.82 3.75-.68 8.85-5.74 10.06-5.06 1.21-9.88-2.68-10.52-6.47-.64-3.79 1.08-8.78 6.37-9.63Z" style="fill:#575563" />
		</g>
	</g>
	<path style="fill:#efcb92" d="M1475.15 190.21h260.96v550.92h-260.96z" />
	<path style="fill:#c3e3eb" d="m1494.43 210.54 3.43 501.42 211.98 1.62.07-505.23-215.48 2.19z" />
	<g style="clip-path:url(#c)">
		<path style="fill:#e5f2f0" d="m1462.83 466.49 372.74-198.67 8.58 532.34-381.32 194.19V466.49z" />
		<path style="fill:#d7ebf0" d="m1417.53 238.23 372.74-198.67 8.58 532.35-381.32 194.19V238.23z" />
		<path style="fill:#c3e3eb" d="m1460.26 485.6 358.25-356.39L1846 767.57l-381.32 194.19-4.42-476.16z" />
		<path style="fill:#cee6ed" d="m1444.47 620.71 372.74-198.67 8.57 532.34-381.31 194.19V620.71z" />
	</g>
</svg>
