<svg id="a4b9707c-07ee-4b3d-8dfa-5d72c38f8254" data-name="HUVUD/HALS" xmlns="http://www.w3.org/2000/svg" viewBox="0 0 170.08 283.46"><path d="M115.52,164.39c-6.26-7.39-11.37-9.1-13.65-15.36a40.44,40.44,0,0,1-1.61-6.7h0c3-1.75,6.45-3.9,10.41-6.43,4.77-3,8-6.46,9.83-11.79a2.56,2.56,0,0,0,.75.14c2.17.1,6.51-1.06,8.19-9.63,1.8-9.19-6.61-7.88-6.61-7.88a76.86,76.86,0,0,0-.68-10.64c-1.89-11-10.34-27-38.38-26.22C58.13,70.63,49,83.12,47.92,95.33c-.26,3-.67,11.41-.67,11.41s-8.41-1.31-6.61,7.88c1.68,8.57,6,9.73,8.19,9.63a2.71,2.71,0,0,0,1.19-.34,24.65,24.65,0,0,0,10.61,12.33c2.95,1.81,5.72,3.52,8.32,5.06A44.56,44.56,0,0,1,67.17,149c-2.27,6.26-7.39,8-13.65,15.36-5.94,7-7.72,15.87-8.11,32.52h78.05C122.13,180.49,121.45,171.4,115.52,164.39Z" style="fill:current"/><path d="M66.72,122.09c-3-.67-7.06.87-7.14,4.92A5.75,5.75,0,0,0,65,133c3.1.14,6.09-1.35,6.61-4.7.47-2.9-1.71-5.54-4.86-6.23" style="fill:#f4c6b8"/><path d="M105.34,122.5c-3-.67-7.07.87-7.14,4.93a5.75,5.75,0,0,0,5.38,6c3.11.13,6.1-1.36,6.62-4.7.46-2.91-1.71-5.55-4.86-6.24" style="fill:#f4c6b8"/><path d="M85.13,132.7c-2.36,0-6.72-.49-6.89,1.76s2.64,5.06,6.23,5.36c3.44.29,7.1-1.82,6.89-4.94-.17-2.42-3.87-2.17-6.23-2.18" style="fill:#e53188"/><path d="M74.06,106.46A6,6,0,0,0,67.72,109a2.61,2.61,0,0,1,1.73-.22,2.57,2.57,0,0,1,2,2.88,2.6,2.6,0,0,1-2.82,2.24,2.41,2.41,0,0,1-2.1-1.75c0,.33-.07.68-.08,1-.11,5.42,3.56,7.81,5.74,7.9,3.07.12,6-1.93,6.6-6.41C79.3,110.82,77.17,107.34,74.06,106.46Z" style="fill:#221235"/><path d="M72.7,106.11c-7.54.34-8.4,8.32-8.4,8.32s2.31,6.8,8.32,6.95c6.38.16,8.91-6.72,8.91-6.72S79.81,105.79,72.7,106.11Zm6.12,8.6c-.56,4.48-3.53,6.53-6.6,6.41-2.18-.09-5.85-2.48-5.74-7.9,0-.36,0-.71.08-1a2.41,2.41,0,0,0,2.1,1.75,2.6,2.6,0,0,0,2.82-2.24,2.57,2.57,0,0,0-2-2.88,2.61,2.61,0,0,0-1.73.22,6,6,0,0,1,6.34-2.57C77.17,107.34,79.3,110.82,78.82,114.71Z" style="fill:#f4eadf"/><path d="M96.16,106.46A6,6,0,0,1,102.5,109a2.61,2.61,0,0,0-1.73-.22,2.56,2.56,0,0,0-2,2.88,2.59,2.59,0,0,0,2.81,2.24,2.41,2.41,0,0,0,2.1-1.75,7,7,0,0,1,.08,1c.11,5.42-3.55,7.81-5.73,7.9-3.08.12-6.05-1.93-6.61-6.41C90.92,110.82,93.05,107.34,96.16,106.46Z" style="fill:#221235"/><path d="M88.7,114.66s2.52,6.88,8.9,6.72c6-.15,8.32-6.95,8.32-6.95s-.86-8-8.4-8.32C90.41,105.79,88.7,114.66,88.7,114.66Zm7.46-8.2A6,6,0,0,1,102.5,109a2.61,2.61,0,0,0-1.73-.22,2.56,2.56,0,0,0-2,2.88,2.59,2.59,0,0,0,2.81,2.24,2.41,2.41,0,0,0,2.1-1.75,7,7,0,0,1,.08,1c.11,5.42-3.55,7.81-5.73,7.9-3.08.12-6.05-1.93-6.61-6.41C90.92,110.82,93.05,107.34,96.16,106.46Z" style="fill:#f4eadf"/></svg>