<svg id="a1005b07-812a-4d70-a3cd-5d1abf563348" data-name="HUVUD/HALS" xmlns="http://www.w3.org/2000/svg" viewBox="0 0 170.08 283.46"><path d="M115.52,164.39c-6.26-7.39-11.37-9.1-13.65-15.36a40.44,40.44,0,0,1-1.61-6.7h0c3-1.75,6.45-3.9,10.41-6.43,4.77-3,8-6.46,9.83-11.79a2.56,2.56,0,0,0,.75.14c2.17.1,6.51-1.06,8.19-9.63,1.8-9.19-6.61-7.88-6.61-7.88a76.86,76.86,0,0,0-.68-10.64c-1.89-11-10.34-27-38.38-26.22C58.13,70.63,49,83.12,47.92,95.33c-.26,3-.67,11.41-.67,11.41s-8.41-1.31-6.61,7.88c1.68,8.57,6,9.73,8.19,9.63a2.71,2.71,0,0,0,1.19-.34,24.65,24.65,0,0,0,10.61,12.33c2.95,1.81,5.72,3.52,8.32,5.06A44.56,44.56,0,0,1,67.17,149c-2.27,6.26-7.39,8-13.65,15.36-5.94,7-7.72,15.87-8.11,32.52h78.05C122.13,180.49,121.45,171.4,115.52,164.39Z" style="fill:current"/><path d="M68.72,107.5c-2.73-.63-6.79,1-6.89,5A5.61,5.61,0,0,0,67,118.4a5.52,5.52,0,0,0,1.68-10.9" style="fill:#f9f6ef"/><path d="M66.08,109.66a2.79,2.79,0,0,0-3.48,2.69,2.89,2.89,0,0,0,2.58,3.18,3,3,0,0,0,.9-5.87" style="fill:#30464c"/><path d="M84.86,129.77c-2.36,0-6.72-.49-6.89,1.76s2.64,5.06,6.23,5.36c3.44.29,7.1-1.82,6.89-4.94-.17-2.42-3.87-2.17-6.23-2.18" style="fill:#dcb8d1"/><path d="M103.56,107.5c-2.73-.63-7.08,1.15-7.18,5.18s3.52,5.65,5.5,5.72a5.52,5.52,0,0,0,1.68-10.9" style="fill:#f9f6ef"/><path d="M100.5,110A2.79,2.79,0,0,0,97,112.73a2.89,2.89,0,0,0,2.57,3.18,3,3,0,0,0,3.23-2.56A3,3,0,0,0,100.5,110" style="fill:#30464c"/></svg>