<svg id="b2773dbf-209e-4668-8fcd-82dff52e2518" data-name="HUVUD/HALS" xmlns="http://www.w3.org/2000/svg" xmlns:xlink="http://www.w3.org/1999/xlink" viewBox="0 0 170.08 283.46"><defs><clipPath id="e6707567-041a-41df-9f68-465afaa9fbd5"><path d="M115.52,164.39c-6.26-7.39-11.37-9.1-13.65-15.36a40.44,40.44,0,0,1-1.61-6.7h0c3-1.75,6.45-3.9,10.41-6.43,4.77-3,8-6.46,9.83-11.79a2.56,2.56,0,0,0,.75.14c2.17.1,6.51-1.06,8.19-9.63,1.8-9.19-6.61-7.88-6.61-7.88a76.86,76.86,0,0,0-.68-10.64c-1.89-11-10.34-27-38.38-26.22C58.13,70.63,49,83.12,47.92,95.33c-.26,3-.67,11.41-.67,11.41s-8.41-1.31-6.61,7.88c1.68,8.57,6,9.73,8.19,9.63a2.71,2.71,0,0,0,1.19-.34,24.65,24.65,0,0,0,10.61,12.33c2.95,1.81,5.72,3.52,8.32,5.06A44.56,44.56,0,0,1,67.17,149c-2.27,6.26-7.39,8-13.65,15.36-5.94,7-7.72,15.87-8.11,32.52h78.05C122.13,180.49,121.45,171.4,115.52,164.39Z" style="fill:current"/></clipPath><clipPath id="eaa02b9a-1b7a-46d9-8ad8-fc9dd86a4dfd"><path d="M102,109.81c-3.71,1.29-6.64,2.49-6.26,6.38s3.71,5.53,6.27,4.76c5.8-1.73,8.05-7.52,8-9.83-.05-3.3-4.81-2.41-8-1.31" style="fill:#f9f6ef"/></clipPath><clipPath id="e232bdd3-f86e-4924-962d-a8db112db22b"><path d="M67.46,110.54c3.71,1.29,6.64,2.49,6.26,6.38a5.07,5.07,0,0,1-6.27,4.77c-4.88-1.31-8.13-7.53-8-9.84.12-2.51,2.06-3.34,8-1.31" style="fill:#f9f6ef"/></clipPath></defs><path d="M115.52,164.39c-6.26-7.39-11.37-9.1-13.65-15.36a40.44,40.44,0,0,1-1.61-6.7h0c3-1.75,6.45-3.9,10.41-6.43,4.77-3,8-6.46,9.83-11.79a2.56,2.56,0,0,0,.75.14c2.17.1,6.51-1.06,8.19-9.63,1.8-9.19-6.61-7.88-6.61-7.88a76.86,76.86,0,0,0-.68-10.64c-1.89-11-10.34-27-38.38-26.22C58.13,70.63,49,83.12,47.92,95.33c-.26,3-.67,11.41-.67,11.41s-8.41-1.31-6.61,7.88c1.68,8.57,6,9.73,8.19,9.63a2.71,2.71,0,0,0,1.19-.34,24.65,24.65,0,0,0,10.61,12.33c2.95,1.81,5.72,3.52,8.32,5.06A44.56,44.56,0,0,1,67.17,149c-2.27,6.26-7.39,8-13.65,15.36-5.94,7-7.72,15.87-8.11,32.52h78.05C122.13,180.49,121.45,171.4,115.52,164.39Z" style="fill:current"/><g style="clip-path:url(#e6707567-041a-41df-9f68-465afaa9fbd5)"><path d="M47.14,106s4.21,15.48,15.55,19c8.07,2.49,12.41.34,12.41.34a24.56,24.56,0,0,1-11.95,4.49c-11.69,1-13.14-5.9-13.14-5.9Z" style="fill:#233438"/><path d="M52.74,128.86s8,6,14.42,5.53a14.43,14.43,0,0,0,8.77-3.65,14.61,14.61,0,0,1-6.37,7.08c-6.25,3.37-14.5.55-14.5.55Z" style="fill:#233438"/><path d="M123,105.91s-3.49,15.71-15.14,19c-8.13,2.27-12.4.34-12.4.34a19.08,19.08,0,0,0,12,4.48c11-.1,13.11-5.48,13.11-5.48Z" style="fill:#233438"/><path d="M123.65,125.67s-7.75,8-18.94,8.16a18.3,18.3,0,0,1-10.09-3.2,14.61,14.61,0,0,0,6.37,7.08c6.25,3.36,14.5.55,14.5.55Z" style="fill:#233438"/><path d="M85.59,126c-4.28.09-5.32,2.29-4.91,3.92.37,1.43,2.69,1.34,5,1.34s4,.29,4.64-1.6C90.66,128.62,89.59,125.87,85.59,126Z" style="fill:#233438"/><polygon points="84.81 129.87 85.17 137.38 86.27 137.31 85.99 130.07 84.81 129.87" style="fill:#233438"/><path d="M78.66,136.16c-.3,3.17,3.25,6.24,7.17,6.13,4.16-.12,7-4.11,6.34-6.88-.44-1.88-4.14-.67-6.65-.61S78.88,133.83,78.66,136.16Z" style="fill:#e08bb6"/><path d="M102,109.81c-3.71,1.29-6.64,2.49-6.26,6.38s3.71,5.53,6.27,4.76c5.8-1.73,8.05-7.52,8-9.83-.05-3.3-4.81-2.41-8-1.31" style="fill:#f9f6ef"/><g style="clip-path:url(#eaa02b9a-1b7a-46d9-8ad8-fc9dd86a4dfd)"><path d="M94.25,114s11.79-3.68,13.15-.77S106,120.7,106,120.7l2.9,2.64L115.93,108s-10.07-6-10.71-6.07-12.33,8.52-12.33,8.52Z" style="fill:#233438"/><path d="M106.54,111.62a3.64,3.64,0,0,0-4.54,3.51,3.76,3.76,0,0,0,3.36,4.16,3.89,3.89,0,0,0,1.18-7.67" style="fill:#233438"/></g><path d="M67.46,110.54c3.71,1.29,6.64,2.49,6.26,6.38a5.07,5.07,0,0,1-6.27,4.77c-4.88-1.31-8.13-7.53-8-9.84.12-2.51,2.06-3.34,8-1.31" style="fill:#f9f6ef"/><g style="clip-path:url(#e232bdd3-f86e-4924-962d-a8db112db22b)"><path d="M75.37,114.45S63.4,111.09,62,114s1.45,7.44,1.45,7.44l-2.9,2.63-7.08-15.33s10.07-6,10.71-6.08,12.33,8.53,12.33,8.53Z" style="fill:#233438"/><path d="M69.78,112.86a3.65,3.65,0,0,1,4.55,3.51A3.76,3.76,0,0,1,71,120.52a3.88,3.88,0,0,1-1.18-7.66" style="fill:#233438"/></g></g></svg>