<svg xmlns="http://www.w3.org/2000/svg" viewBox="0 0 170.1 283.5" style="enable-background:new 0 0 170.1 283.5" xml:space="preserve"><style>.st3{fill:#423245}.st4{fill:#f9f6ef}.st5{fill:#4b1f68}</style><g id="HUVUD_x2F_HALS"><path d="M85.8 132.6c-2.4 0-6.7-.5-6.9 1.8-.2 2.2 2.6 5.1 6.2 5.4 3.4.3 7.1-1.8 6.9-4.9-.2-2.6-3.9-2.3-6.2-2.3" style="fill:#eb6a27"/><path d="M115.5 164.4c-6.3-7.4-11.4-9.1-13.6-15.4-.7-1.9-1.2-4.3-1.6-6.7 3-1.8 6.4-3.9 10.4-6.4 4.8-3 7.9-6.5 9.8-11.8.2.1.5.1.8.1 2.2.1 6.5-1.1 8.2-9.6 1.8-9.2-6.6-7.9-6.6-7.9s0-6.4-.7-10.6c-1.9-11-10.3-27-38.4-26.2-25.7.7-34.8 13.2-35.9 25.4-.3 3-.7 11.4-.7 11.4s-8.4-1.3-6.6 7.9c1.7 8.6 6 9.7 8.2 9.6.5 0 .8-.2 1.2-.3 2.2 5.4 5.7 9.3 10.6 12.3 3 1.8 5.7 3.5 8.3 5.1-.4 2.8-1 5.6-1.8 7.7-2.3 6.3-7.4 8-13.6 15.4-5.9 7-7.7 15.9-8.1 32.5h78.1c-1.4-16.4-2-25.5-8-32.5z" style="fill:current"/><path d="M85.8 132.6c-2.4 0-6.7-.5-6.9 1.8-.2 2.2 2.6 5.1 6.2 5.4 3.4.3 7.1-1.8 6.9-4.9-.2-2.6-3.9-2.3-6.2-2.3" style="fill:#f9cec6"/><path class="st3" d="m57.8 113.4 5.6 1.9 3.9-3.3-3.6-5.4-1.9 1.6 2.3 4.5-5.2-1.6zM113.2 113.5l-5.6 1.9-3.8-3.4 3.6-5.3 1.8 1.5-2.3 4.6 5.3-1.6z"/><path class="st4" d="M69.3 111.6c-2.7-.6-6.8 1-6.9 5-.1 4 3.2 5.8 5.2 5.9 2.8.1 5.5-1.4 6-4.8.5-2.9-1.5-5.5-4.3-6.1"/><path class="st3" d="M69.9 112c-1.5-.3-3.4.5-3.5 2.7 0 2.2 1.5 3.1 2.6 3.2 1.5.1 2.9-.8 3.2-2.6.2-1.5-.8-2.9-2.3-3.3"/><path class="st4" d="M104.1 111.6c-2.7-.6-7.1 1.1-7.2 5.2-.1 4 3.5 5.6 5.5 5.7 2.8.1 5.5-1.4 6-4.8.5-2.9-1.4-5.5-4.3-6.1"/><path class="st3" d="M104.9 112.2c-1.5-.3-3.4.5-3.5 2.7 0 2.2 1.5 3.1 2.6 3.2 1.5.1 2.9-.8 3.2-2.6.3-1.5-.8-2.9-2.3-3.3"/><g><path class="st4" d="M69.3 111.6c-2.7-.6-6.8 1-6.9 5-.1 4 3.2 5.8 5.2 5.9 2.8.1 5.5-1.4 6-4.8.5-2.9-1.5-5.5-4.3-6.1"/><path class="st5" d="M69.9 112c-1.5-.3-3.4.5-3.5 2.7 0 2.2 1.5 3.1 2.6 3.2 1.5.1 2.9-.8 3.2-2.6.2-1.5-.8-2.9-2.3-3.3"/></g><g><path class="st4" d="M104.1 111.6c-2.7-.6-7.1 1.1-7.2 5.2-.1 4 3.5 5.6 5.5 5.7 2.8.1 5.5-1.4 6-4.8.5-2.9-1.4-5.5-4.3-6.1"/><path class="st5" d="M104.9 112.2c-1.5-.3-3.4.5-3.5 2.7 0 2.2 1.5 3.1 2.6 3.2 1.5.1 2.9-.8 3.2-2.6.3-1.5-.8-2.9-2.3-3.3"/></g></g></svg>