<svg xmlns="http://www.w3.org/2000/svg" xmlns:xlink="http://www.w3.org/1999/xlink" viewBox="0 0 170.08 283.46"><defs><clipPath id="bbae7eb0-8ec5-4279-a320-1b48a1fdd3f5"><path d="M-121.13,141.3a44.56,44.56,0,0,1-1.78,7.73c-2.27,6.26-7.39,8-13.65,15.36s-7.9,16.81-8.16,35.26c-.26,18.23-.37,32,3.61,45.08s13.83,38.73,13.83,38.73h45.05S-72,259.4-68,246.32s3.07-28.76,1.59-46.67c-1.5-18.18-1.91-27.87-8.16-35.26s-11.37-9.1-13.65-15.36a40.44,40.44,0,0,1-1.61-6.7c-6.1,3.53-10.61,5.42-14.71,5.42C-109.28,147.75-114.7,145.09-121.13,141.3Z" style="fill:#f1912c"/></clipPath></defs><g id="af60269a-6592-47f4-8f67-d772979ae1ff" data-name="HUVUD/HALS"><path d="M115.52,164.39c-6.26-7.39-11.37-9.1-13.65-15.36a40.44,40.44,0,0,1-1.61-6.7h0c3-1.75,6.45-3.9,10.41-6.43,4.77-3,8-6.46,9.83-11.79a2.56,2.56,0,0,0,.75.14c2.17.1,6.51-1.06,8.19-9.63,1.8-9.19-6.61-7.88-6.61-7.88a76.86,76.86,0,0,0-.68-10.64c-1.89-11-10.34-27-38.38-26.22C58.13,70.63,49,83.12,47.92,95.33c-.26,3-.67,11.41-.67,11.41s-8.41-1.31-6.61,7.88c1.68,8.57,6,9.73,8.19,9.63a2.71,2.71,0,0,0,1.19-.34,24.65,24.65,0,0,0,10.61,12.33c2.95,1.81,5.72,3.52,8.32,5.06A44.56,44.56,0,0,1,67.17,149c-2.27,6.26-7.39,8-13.65,15.36-5.94,7-7.72,15.87-8.11,32.52h78.05C122.13,180.49,121.45,171.4,115.52,164.39Z" style="fill:current"/><path d="M69.31,111.57c-2.73-.63-6.79,1-6.89,5a5.61,5.61,0,0,0,5.21,5.87,5.52,5.52,0,0,0,1.68-10.9" style="fill:#f9f6ef"/><path d="M66.88,114.82a2.79,2.79,0,0,0-3.48,2.69A2.89,2.89,0,0,0,66,120.69a3,3,0,0,0,.9-5.87" style="fill:#00722f"/><path d="M86.75,132.56c-2.36,0-6.72-.49-6.89,1.76s2.64,5.06,6.23,5.36c3.44.29,7.1-1.82,6.89-4.94-.17-2.42-3.87-2.17-6.23-2.18" style="fill:#ea683e"/><path d="M104.14,111.57c-2.73-.63-7.08,1.15-7.18,5.18s3.52,5.65,5.5,5.72a5.52,5.52,0,0,0,1.68-10.9" style="fill:#f9f6ef"/><path d="M101.91,115a2.79,2.79,0,0,0-3.48,2.69,2.89,2.89,0,0,0,2.57,3.18,3,3,0,0,0,3.23-2.56,3,3,0,0,0-2.32-3.31" style="fill:#00722f"/></g><g id="fae92e70-9be4-4935-86ab-aa48259ad990" data-name="KLÄDER"><path d="M-121.13,141.3a44.56,44.56,0,0,1-1.78,7.73c-2.27,6.26-7.39,8-13.65,15.36s-7.9,16.81-8.16,35.26c-.26,18.23-.37,32,3.61,45.08s13.83,38.73,13.83,38.73h45.05S-72,259.4-68,246.32s3.07-28.76,1.59-46.67c-1.5-18.18-1.91-27.87-8.16-35.26s-11.37-9.1-13.65-15.36a40.44,40.44,0,0,1-1.61-6.7c-6.1,3.53-10.61,5.42-14.71,5.42C-109.28,147.75-114.7,145.09-121.13,141.3Z" style="fill:#f1912c"/><g style="clip-path:url(#bbae7eb0-8ec5-4279-a320-1b48a1fdd3f5)"><path d="M-143.21,97.19s-5.07,60.76,22.78,124.05,57.22,90.13,57.22,90.13S27.42,290.1,25.9,290.1-32.83,78-32.83,78Z" style="fill:#f5cd00"/><path d="M-150.34,79.94s8.45,60.39,49.56,116,75.67,75.3,75.67,75.3,83.72-40.71,82.24-40.38-104-194-104-194Z" style="fill:#fbe98f"/></g></g></svg>