<svg id="ed10d94e-97eb-4c9a-a645-006d1310c657" data-name="HUVUD/HALS" xmlns="http://www.w3.org/2000/svg" viewBox="0 0 170.08 283.46"><path d="M115.52,164.39c-6.26-7.39-11.37-9.1-13.65-15.36a40.44,40.44,0,0,1-1.61-6.7h0c3-1.75,6.45-3.9,10.41-6.43,4.77-3,8-6.46,9.83-11.79a2.56,2.56,0,0,0,.75.14c2.17.1,6.51-1.06,8.19-9.63,1.8-9.19-6.61-7.88-6.61-7.88a76.86,76.86,0,0,0-.68-10.64c-1.89-11-10.34-27-38.38-26.22C58.13,70.63,49,83.12,47.92,95.33c-.26,3-.67,11.41-.67,11.41s-8.41-1.31-6.61,7.88c1.68,8.57,6,9.73,8.19,9.63a2.71,2.71,0,0,0,1.19-.34,24.65,24.65,0,0,0,10.61,12.33c2.95,1.81,5.72,3.52,8.32,5.06A44.56,44.56,0,0,1,67.17,149c-2.27,6.26-7.39,8-13.65,15.36-5.94,7-7.72,15.87-8.11,32.52h78.05C122.13,180.49,121.45,171.4,115.52,164.39Z" style="fill:current"/><path d="M69.43,111c-3-.69-7.47,1.1-7.58,5.54A6.17,6.17,0,0,0,67.58,123c3.07.1,6-1.57,6.59-5.24A6,6,0,0,0,69.43,111" style="fill:#112032"/><path d="M70.6,113.52a2.79,2.79,0,0,0-3.48,2.69,2.89,2.89,0,0,0,2.58,3.18,3,3,0,0,0,.9-5.87" style="fill:#fad600"/><path d="M85.56,131.6c-3.49-.11-7.5-.33-7.65,2.15-.17,2.8,3.18,5.05,7.37,5.1,4.65.05,8-2.2,7.63-4.94C92.65,131.84,89.28,131.72,85.56,131.6Z" style="fill:#cb9fc5"/><path d="M104.28,111c-3-.69-7.79,1.27-7.9,5.7s3.87,6.22,6.05,6.29a6.08,6.08,0,0,0,1.85-12" style="fill:#112032"/><path d="M101.38,113.76a2.79,2.79,0,0,0-3.48,2.69,2.89,2.89,0,0,0,2.57,3.18,3,3,0,0,0,3.23-2.56,3,3,0,0,0-2.32-3.31" style="fill:#fad600"/></svg>