<svg xmlns="http://www.w3.org/2000/svg" viewBox="0 0 170.08 283.46"><g id="a8d660bf-3674-4213-9f76-ad45f503e6b6" data-name="HUVUD/HALS"><path d="M115.52,164.39c-6.26-7.39-11.37-9.1-13.65-15.36a40.44,40.44,0,0,1-1.61-6.7h0c3-1.75,6.45-3.9,10.41-6.43,4.77-3,8-6.46,9.83-11.79a2.56,2.56,0,0,0,.75.14c2.17.1,6.51-1.06,8.19-9.63,1.8-9.19-6.61-7.88-6.61-7.88a76.86,76.86,0,0,0-.68-10.64c-1.89-11-10.34-27-38.38-26.22C58.13,70.63,49,83.12,47.92,95.33c-.26,3-.67,11.41-.67,11.41s-8.41-1.31-6.61,7.88c1.68,8.57,6,9.73,8.19,9.63a2.71,2.71,0,0,0,1.19-.34,24.65,24.65,0,0,0,10.61,12.33c2.95,1.81,5.72,3.52,8.32,5.06A44.56,44.56,0,0,1,67.17,149c-2.27,6.26-7.39,8-13.65,15.36-5.94,7-7.72,15.87-8.11,32.52h78.05C122.13,180.49,121.45,171.4,115.52,164.39Z" style="fill:current"/><path d="M85.79,132.56c-2.36,0-6.72-.49-6.89,1.76s2.64,5.06,6.23,5.36,7.1-1.82,6.89-4.94c-.17-2.42-3.87-2.17-6.23-2.18" style="fill:#eb6a39"/></g><g id="eca23977-ab40-4fd3-ab3a-82c017222fa1" data-name="HÅR"><path d="M91.32,116.19a11.14,11.14,0,0,1,8.42-6.39,8.34,8.34,0,0,1,6.85,1.87,8,8,0,0,1-5.25,5.84C96.18,119.19,91.32,116.19,91.32,116.19Z" style="fill:#f9f6ef"/><path d="M101.67,109.82a3.61,3.61,0,0,0-4.5,3.48,3.74,3.74,0,0,0,3.33,4.12,3.86,3.86,0,0,0,4.18-3.33,3.81,3.81,0,0,0-3-4.27" style="fill:#453d3d"/><path d="M77.22,116.18s-1.31-5.16-7.7-6.25A11,11,0,0,0,62,111.66s1,4.74,5.56,6A11.45,11.45,0,0,0,77.22,116.18Z" style="fill:#f9f6ef"/><path d="M69.61,110.43a3.61,3.61,0,0,1,4.51,3.48A3.74,3.74,0,0,1,70.78,118a3.85,3.85,0,0,1-1.17-7.6" style="fill:#453d3d"/></g></svg>