<svg 
  width="76" 
  height="133" 
  viewBox="0 0 76 133" 
  fill="none"
  xmlns="http://www.w3.org/2000/svg"
  aria-hidden="true"
  focusable="false"
>
  <path d="M10.1947 3.67465C10.1947 3.67465 0.756398 18.3536 0.0545921 48.0787C-0.647214 77.8037 5.64934 131.994 5.64934 131.994L7.78756 131.954L7.89905 130.124L8.60086 130.085L8.44346 132.053L10.3127 132.092L10.4636 130.033H11.0867L11.3622 132.289L12.9888 132.328L13.3036 129.646L50.7945 127.743L51.2602 132.63L52.5326 132.761L52.8278 127.514L54.356 127.475L54.4413 132.65L56.7763 132.525L57.0714 127.278L58.1733 127.232L58.2586 132.709H60.1279C60.1279 132.709 74.1837 82.8607 74.9707 47.0358C75.7578 11.2109 69.5203 0.631316 69.5203 0.631316L63.0597 0.0410156L56.0154 17.4615L21.3711 17.068L15.5009 2.19235L10.1947 3.67465Z" fill="#E73B28"/>
  <path d="M0.349798 39.7092C0.0546457 45.9336 2.2388 57.0051 16.5766 58.5792C30.2586 60.0747 37.4931 51.2267 37.6308 41.913C37.8145 29.6806 31.7934 23.8431 20.9186 22.8921C7.34821 21.7246 0.723657 31.7597 0.349798 39.6895" fill="#831F82"/>
  <path d="M37.1913 41.1522C36.9027 47.2979 39.0606 58.2382 53.2279 59.7927C66.7393 61.275 73.8886 52.5319 74.0263 43.3297C74.2099 31.2482 68.261 25.4763 57.5175 24.5581C44.111 23.4103 37.5652 33.3208 37.1848 41.1522" fill="#831F82"/>
  <path d="M6.44318 40.1168C6.22018 44.8917 7.8927 53.3921 18.9052 54.599C29.3995 55.7468 34.9483 48.9583 35.0598 41.8156C35.1976 32.4298 30.58 27.95 22.2371 27.2351C11.8215 26.3431 6.7449 34.0367 6.44975 40.1168" fill="#BF318A"/>
  <path d="M21.3119 43.9593C21.2267 45.8089 21.4234 49.108 26.1262 49.554C30.8289 50 32.3244 47.3765 32.3703 44.6151C32.4227 40.9881 30.6387 39.2565 27.4117 38.981C23.3911 38.6334 21.4234 41.6046 21.3119 43.9593Z" fill="#A9924D"/>
  <path d="M27.366 45.8492C27.3156 46.1152 27.3258 46.3892 27.3957 46.6507C27.4656 46.9123 27.5935 47.1547 27.7699 47.3601C27.9463 47.5655 28.1667 47.7285 28.4147 47.8371C28.6627 47.9457 28.9319 47.9971 29.2025 47.9874C30.9931 48.158 31.5637 47.1545 31.5768 46.0985C31.5768 44.7145 30.9209 44.0586 29.6879 43.9537C29.4088 43.9122 29.1241 43.9294 28.8521 44.0043C28.58 44.0791 28.3266 44.21 28.1081 44.3884C27.8895 44.5668 27.7106 44.7889 27.5828 45.0405C27.455 45.292 27.3812 45.5675 27.366 45.8492Z" fill="#1C052E"/>
  <path d="M42.3598 42.2288C42.1368 46.8922 43.7765 55.1827 54.5134 56.3633C64.7585 57.4849 70.1762 50.8604 70.2549 43.9014C70.3926 34.7189 65.8866 30.3703 57.7404 29.675C47.5806 28.8027 42.6155 36.3127 42.3335 42.2485" fill="#BF318A"/>
  <path d="M55.5956 46.2092C55.5038 48.1769 55.7136 51.7253 60.7509 52.2041C65.7882 52.6829 67.3951 49.8691 67.4345 46.911C67.4935 43.0281 65.5848 41.1719 62.1283 40.8768C57.8191 40.5095 55.7136 43.6906 55.5693 46.2092" fill="#A9924D"/>
  <path d="M60.9935 47.9084C60.9444 48.1743 60.9554 48.4477 61.0258 48.7087C61.0963 48.9697 61.2243 49.2117 61.4004 49.4168C61.5765 49.6218 61.7964 49.7849 62.0438 49.8939C62.2911 50.0029 62.5598 50.0551 62.83 50.0467C64.6206 50.2172 65.1912 49.2137 65.2109 48.1577C65.2109 46.7737 64.555 46.1178 63.3219 46.0063C63.042 45.9649 62.7565 45.9823 62.4836 46.0574C62.2108 46.1326 61.9567 46.264 61.7375 46.443C61.5183 46.622 61.3389 46.8449 61.2108 47.0972C61.0827 47.3495 61.0087 47.6258 60.9935 47.9084Z" fill="#1C052E"/>
  <path d="M32.1279 54.3893L41.0415 54.127L36.3256 64.6147L32.1279 54.3893Z" fill="#F3DFD7"/>
  <path d="M37.4733 66.5356C34.0561 66.3979 29.6026 60.7637 16.2289 62.3379C2.85525 63.912 -1.86718 76.2363 10.9818 99.0679C23.8307 121.9 31.3145 124.379 35.7942 124.648C40.274 124.917 52.6769 113.76 59.2293 101.436C65.7817 89.1115 73.659 70.4906 61.8529 64.7057C50.0468 58.9207 44.0191 66.8045 37.4668 66.5422" fill="#00923D"/>
  <path d="M37.2436 73.1277C34.7971 73.0359 31.6161 69.0612 22.0531 70.1696C12.4902 71.2781 9.10577 80.008 18.3014 96.0708C27.497 112.134 33.1312 115.944 36.3188 116.135C39.5065 116.325 48.1249 106.427 52.808 97.7303C57.4911 89.0331 63.1252 75.9021 54.6838 71.8356C46.2425 67.7691 41.9333 73.3179 37.2436 73.1474" fill="#0093D3"/>
</svg>
