<svg xmlns="http://www.w3.org/2000/svg" viewBox="0 0 170.08 283.46"><g id="e06bae42-1a0a-49c0-970c-d86b43dffa9e" data-name="CLOTHES"><path d="M69,141.3A44.56,44.56,0,0,1,67.17,149c-2.27,6.26-7.39,8-13.65,15.36s-7.9,16.81-8.16,35.26c-.26,18.23-.37,32,3.61,45.08S62.8,283.46,62.8,283.46h45.05s10.26-24.06,14.24-37.14,3.07-28.76,1.59-46.67c-1.5-18.18-1.91-27.87-8.16-35.26s-11.37-9.1-13.65-15.36a40.44,40.44,0,0,1-1.61-6.7c-6.1,3.53-10.61,5.42-14.71,5.42C80.8,147.75,75.38,145.09,69,141.3Z" style="fill:current"/></g><g id="e232cae3-41e9-4994-9087-9c8ba8cb95c0" data-name="HALSBAND"><path d="M65.65,152.41a2.2,2.2,0,1,0-.66,4.32,2.19,2.19,0,0,0,.66-4.32" style="fill:#06aea2"/><path d="M104.12,157.31a3.07,3.07,0,0,0-3.82,2.79,3.11,3.11,0,0,0,2.89,3.26,3.07,3.07,0,0,0,.93-6.05" style="fill:#06aea2"/><path d="M105.94,152.6a2,2,0,1,0,1.57,2.23,2,2,0,0,0-1.57-2.23" style="fill:#06aea2"/><path d="M81.72,166.09a3.07,3.07,0,1,0,2.39,3.41,3.06,3.06,0,0,0-2.39-3.41" style="fill:#06aea2"/><path d="M68.93,157.23A3.08,3.08,0,0,0,65.1,160,3.12,3.12,0,0,0,68,163.28a3.08,3.08,0,0,0,3.33-2.65,3,3,0,0,0-2.39-3.4" style="fill:#06aea2"/><path d="M90,166.28a3.07,3.07,0,1,0,2.39,3.41A3.06,3.06,0,0,0,90,166.28" style="fill:#06aea2"/><path d="M74.28,162.69c-1.85-.42-4.59.68-4.66,3.4a3.78,3.78,0,0,0,3.52,4,3.74,3.74,0,0,0,1.14-7.37" style="fill:#06aea2"/><path d="M97.87,162.11c-1.85-.42-4.59.68-4.66,3.4a3.79,3.79,0,0,0,3.52,4,3.73,3.73,0,0,0,1.14-7.37" style="fill:#06aea2"/></g></svg>