<svg xmlns="http://www.w3.org/2000/svg" xmlns:xlink="http://www.w3.org/1999/xlink" viewBox="0 0 170.08 283.46"><defs><clipPath id="ad9d6216-0169-4ce2-a2e4-6e6eae72f7ee"><path d="M49,244.73c4,13.08,13.83,38.73,13.83,38.73h45.05s10.26-24.06,14.24-37.14,3.07-28.76,1.59-46.67c-1.32-16.05-1.8-25.48-6.19-32.55h-66c-4.61,7-5.92,16.27-6.14,32.55C45.1,217.88,45,231.65,49,244.73Z" style="fill:#0080bb"/></clipPath></defs><g id="be4c6da2-a772-41ed-8175-08b2e983f024" data-name="CLOTHES"><path d="M49,244.73c4,13.08,13.83,38.73,13.83,38.73h45.05s10.26-24.06,14.24-37.14,3.07-28.76,1.59-46.67c-1.32-16.05-1.8-25.48-6.19-32.55h-66c-4.61,7-5.92,16.27-6.14,32.55C45.1,217.88,45,231.65,49,244.73Z" style="fill:#0080bb"/><g style="clip-path:url(#ad9d6216-0169-4ce2-a2e4-6e6eae72f7ee)"><polygon points="31.24 158.51 30.53 247.73 140.96 247.48 138.28 158.51 31.24 158.51" style="fill:current"/><path d="M70.1,175.25a4.83,4.83,0,0,0-6,4.65c-.08,3.74,2.61,5.42,4.45,5.49a5.14,5.14,0,0,0,1.56-10.14" style="fill:#e75441"/><path d="M71.7,187.38a7.37,7.37,0,0,0-9.2,7.11c-.14,5.74,4,8.3,6.82,8.41,4,.13,7.8-2,8.52-6.8a7.81,7.81,0,0,0-6.14-8.72" style="fill:#093"/><path d="M81.67,178.55a1.58,1.58,0,0,0-2,1.52,1.63,1.63,0,0,0,1.45,1.79,1.68,1.68,0,0,0,.51-3.31" style="fill:#fad600"/><path d="M86.58,178.48a1.56,1.56,0,0,0-2,1.51,1.62,1.62,0,0,0,1.45,1.79,1.67,1.67,0,0,0,.51-3.3" style="fill:#fad600"/><path d="M91.72,178.19a1.57,1.57,0,0,0-2,1.51,1.62,1.62,0,0,0,1.45,1.79,1.67,1.67,0,0,0,.51-3.3" style="fill:#fad600"/><polygon points="96.53 215.09 96.72 234.07 98.62 234.07 98.43 215.09 96.53 215.09" style="fill:#a9bdb1"/><polygon points="99.58 215.09 99.77 234.07 101.67 234.07 101.48 215.09 99.58 215.09" style="fill:#a9bdb1"/><polygon points="102.63 215.09 102.82 234.07 104.72 234.07 104.53 215.09 102.63 215.09" style="fill:#a9bdb1"/><polygon points="87.38 215.09 87.57 234.07 89.47 234.07 89.28 215.09 87.38 215.09" style="fill:#a9bdb1"/><polygon points="90.43 215.09 90.62 234.07 92.52 234.07 92.33 215.09 90.43 215.09" style="fill:#a9bdb1"/><polygon points="93.48 215.09 93.67 234.07 95.57 234.07 95.38 215.09 93.48 215.09" style="fill:#a9bdb1"/><polygon points="84.4 187.06 84.94 210.96 106.08 210.66 105.77 186.85 84.4 187.06" style="fill:#7e683b"/><path d="M86.68,197.89l0,2.22a8.63,8.63,0,0,0,8.76,8.53h0a8.64,8.64,0,0,0,8.53-8.76l0-2.21a8.65,8.65,0,0,0-8.74-8.54h0A8.65,8.65,0,0,0,86.68,197.89Z" style="fill:#005e33"/></g></g></svg>