<svg xmlns="http://www.w3.org/2000/svg" viewBox="0 0 170.08 283.46"><g id="b1c85a71-8a65-4f20-bfa1-f049020073b4" data-name="CLOTHES"><path d="M69,141.3A44.56,44.56,0,0,1,67.17,149c-2.27,6.26-7.39,8-13.65,15.36s-7.9,16.81-8.16,35.26c-.26,18.23-.37,32,3.61,45.08S62.8,283.46,62.8,283.46h45.05s10.26-24.06,14.24-37.14,3.07-28.76,1.59-46.67c-1.5-18.18-1.91-27.87-8.16-35.26s-11.37-9.1-13.65-15.36a40.44,40.44,0,0,1-1.61-6.7c-6.1,3.53-10.61,5.42-14.71,5.42C80.8,147.75,75.38,145.09,69,141.3Z" style="fill:current"/><path d="M109.4,176.05s.54-3.57-2.86-3.39-2,6.08-2,6.08l-2.95,2.61c-3.54-3.34-8.93-5-17.86-4.82S69.68,179,66.57,183l-2.84-2.52s1.43-5.91-2-6.09-2.86,3.4-2.86,3.4-4.29.9-3,3.4S61.05,183,61.05,183l3.56,3.28c-1.52,3.23-2.41,7.23-3.26,11.93-1.76,9.64,5.05,12.16,9.5,14.61l-4.32,4s-3.94-.72-5.19,1.79,3,3.4,3,3.4-.53,3.58,2.87,3.4,2-6.09,2-6.09l4.69-4.16a3.12,3.12,0,0,1,.48,1c1.22,4.9,3,14.15,3,14.15l16.23-.15s2.12-11.6,2.68-14.74a3.11,3.11,0,0,1,.86-1.52l4.61,4.1s-1.43,5.9,2,6.08,2.86-3.4,2.86-3.4,4.29-.89,3-3.39-5.19-1.79-5.19-1.79l-4.32-4c4.31-3,10.41-7,8.37-15.31-1.16-4.78-2.41-8.81-4.46-12l3.24-3s3.94.72,5.19-1.79S109.4,176.05,109.4,176.05ZM75.69,203.2c-2-.07-6.5-1.2-6.4-5.32s6.33-6.93,9.55-6.47,3.5,3.56,3,6.92A5.65,5.65,0,0,1,75.69,203.2ZM78,215l2.7,0,.39,4.72-2.61,0Zm.94,9.95-.42-4L81,221l.34,4Zm5.46-9.82.15,4.7-2.59,0-.26-4.71ZM82.13,225l-.22-4,2.48,0,.14,4Zm5.61,0-2.4,0,0-4,2.48,0Zm.25-5.22-2.59-.05,0-4.72,2.69.06Zm3.07,5-2.4,0,.18-4,2.48,0Zm.4-4.82-2.58,0,.21-4.69,2.68.06Zm1-17.34a5.65,5.65,0,0,1-6.13-4.88c-.51-3.36-.24-6.46,3-6.92s9.45,2.34,9.56,6.47S94.47,202.59,92.44,202.66Z" style="fill:#e6f1e2"/></g></svg>