<svg xmlns="http://www.w3.org/2000/svg" viewBox="0 0 170.08 283.46"><g id="f195893a-ffa7-4109-aad0-c45b7cdee629" data-name="CLOTHES"><path d="M123.68,199.65c-1.5-18.18-1.91-27.87-8.16-35.26-5.9-7-10.79-8.89-13.23-14.35a72,72,0,0,1-17.58,2A59.28,59.28,0,0,1,67,149.42c-2.34,5.94-7.36,7.73-13.48,15-6.26,7.39-7.9,16.81-8.16,35.26-.26,18.23-.37,32,3.61,45.08S62.8,283.46,62.8,283.46h45.05s10.26-24.06,14.24-37.14S125.16,217.56,123.68,199.65Z" style="fill:current"/><path d="M84.49,179.23c-3-.1-9.67-9.67-20.55-2.82s-4.43,23,4.44,29.42,14.91,7.65,14.91,7.65,10.21-2.4,17.48-8,15.5-20.93,5.27-29.07C96.85,169.1,87.55,179.32,84.49,179.23Z" style="fill:#0083c9"/><path d="M83.39,185.88c-2.08-.07-6.57-6.57-14-1.92s-3,15.61,3,20,10.14,5.2,10.14,5.2,6.94-1.63,11.88-5.43S105,189.5,98,184C91.78,179,85.46,185.94,83.39,185.88Z" style="fill:#06aea2"/></g></svg>