<svg xmlns="http://www.w3.org/2000/svg" viewBox="0 0 170.08 283.46"><g id="e253d94c-34cf-45c0-b33c-766d16bf9cde" data-name="CLOTHES"><path d="M69,141.3A44.56,44.56,0,0,1,67.17,149c-2.27,6.26-7.39,8-13.65,15.36s-7.9,16.81-8.16,35.26c-.26,18.23-.37,32,3.61,45.08S62.8,283.46,62.8,283.46h45.05s10.26-24.06,14.24-37.14,3.07-28.76,1.59-46.67c-1.5-18.18-1.91-27.87-8.16-35.26s-11.37-9.1-13.65-15.36a40.44,40.44,0,0,1-1.61-6.7c-6.1,3.53-10.61,5.42-14.71,5.42C80.8,147.75,75.38,145.09,69,141.3Z" style="fill:current"/></g></svg>