<svg xmlns="http://www.w3.org/2000/svg" xmlns:xlink="http://www.w3.org/1999/xlink" viewBox="0 0 170.08 283.46"><defs><clipPath id="af095dba-0fa1-47a1-be5c-dfea97e8b4bb"><path d="M123.68,199.65c-1.5-18.18-1.91-27.87-8.16-35.26s-11.37-9.1-13.65-15.36c-.08-.24-.16-.51-.24-.77L85.21,159,67.54,147.89c-.12.39-.24.78-.37,1.14-2.27,6.26-7.39,8-13.65,15.36s-7.9,16.81-8.16,35.26c-.26,18.23-.37,32,3.61,45.08S62.8,283.46,62.8,283.46h45.05s10.26-24.06,14.24-37.14S125.16,217.56,123.68,199.65Z" style="fill:current"/></clipPath></defs><g id="a228c846-461b-4617-9ee3-1550f0aa2667" data-name="CLOTHES"><path d="M123.68,199.65c-1.5-18.18-1.91-27.87-8.16-35.26s-11.37-9.1-13.65-15.36c-.08-.24-.16-.51-.24-.77L85.21,159,67.54,147.89c-.12.39-.24.78-.37,1.14-2.27,6.26-7.39,8-13.65,15.36s-7.9,16.81-8.16,35.26c-.26,18.23-.37,32,3.61,45.08S62.8,283.46,62.8,283.46h45.05s10.26-24.06,14.24-37.14S125.16,217.56,123.68,199.65Z" style="fill:current"/><g style="clip-path:url(#af095dba-0fa1-47a1-be5c-dfea97e8b4bb)"><polygon points="85.29 160.24 74.71 168.86 58.46 149.81 65.04 140.22 110.11 139.87 112.05 149.94 95.67 169.35 85.29 160.24" style="fill:#f9f6ef"/></g></g></svg>