<svg xmlns="http://www.w3.org/2000/svg" viewBox="0 0 170.08 283.46"><g id="bcd5b8b2-1a05-43f6-8b1d-0ced41c6de42" data-name="HÅR"><path d="M43.4,100.16C43,105.6,46.05,114,46.05,114l3-.11s0-10.74,2-15.7C54,90.9,59.92,84.37,59.92,84.37s12.76,2.55,22,2.43C92.55,86.67,107.17,82,107.17,82s9.14,9.68,11,16.83A62.58,62.58,0,0,1,120,113.21l3.22.63s3-4.45,1-14.43-6.72-18.8-7-23.29c-.58-8.74,9.62-20.52,1.8-26.52-6.41-4.94-10.8,1.6-15.75.57S99,44.05,91.39,42.87s-9.67,5.34-13.2,5.26-8.1-7.94-15.88-4S58.31,53,55.87,54s-9.11-4.1-13.56,1.84c-3.74,5,5.66,14.32,5.58,20.1C47.83,80.1,43.77,95.06,43.4,100.16Z" style="fill:current"/></g></svg>