<?xml version="1.0" encoding="utf-8"?>
<!-- Generator: Adobe Illustrator 26.3.1, SVG Export Plug-In . SVG Version: 6.00 Build 0)  -->
<svg version="1.1" id="HÅR" xmlns="http://www.w3.org/2000/svg" xmlns:xlink="http://www.w3.org/1999/xlink" x="0px" y="0px"
	 viewBox="0 0 170.1 283.5" style="enable-background:new 0 0 170.1 283.5;" xml:space="preserve">
<style type="text/css">
	.st0{fill:current;}
</style>
<path class="st0" d="M58.5,93.1c-7.1,1.5-7.1,11.5-6.7,20.2c0.4,9.1,7.9,39.1,7.9,39.1l-4.3-1.4c0,0-24.3-30.3-13.5-61.4
	c6-17.3,17.2-30.8,40.6-31.3c24.1-0.5,38.8,13.3,44.5,28.2c12.4,32.5-11.4,62.1-11.4,62.1l-5.2,2.4c0,0,4.9-24,5.8-34.9
	c0.8-9.2,2.2-22.9-5.6-24c-8-1.2-10.6,11.2-24.6,11.1C72.1,103.1,69.3,90.8,58.5,93.1z"/>
</svg>
