<svg xmlns="http://www.w3.org/2000/svg" viewBox="0 0 170.08 283.46"><g id="a8b9a163-0c9a-4a3c-92bb-48dadc852dba" data-name="HÅR"><path d="M83.65,55.34c-23,.5-28.82,8-35,17.22-9,13.34-4.07,17.81-9.9,21.12S11.47,88.51,4.4,109.23c-5.8,17,3.79,35.8,22.93,36.91,14.9.86,27-7.18,26-26C52.44,101.65,60.4,98.87,84,98.87c27.14,0,33.92,2.37,33.47,18.94-.43,15.56-.54,27.81,24.2,29.4,18.86,1.22,32.88-20.23,23.5-40.93-8.62-19-30.3-9.27-35.67-12.82-5.12-3.39-1.4-8.85-9.25-21.79-6.88-11.33-15.94-16.77-36.58-16.33" style="fill:current"/><polygon points="37.02 93.21 55.47 108.81 60.05 103.52 41.44 88.07 37.02 93.21" style="fill:#f4c200"/><polygon points="127.16 89.46 111.55 103.7 115.73 108.24 131.68 93.53 127.16 89.46" style="fill:#7b408e"/></g></svg>