<svg xmlns="http://www.w3.org/2000/svg" viewBox="0 0 170.08 283.46"><g id="e048f54a-c839-4cc6-b46c-c5620a044334" data-name="HÅR"><path d="M87.58,80.59s-3.17,7.23-8.77,11.11-13.15,4.65-13.15,4.65l3.65-10.6s-7,4.8-9.54,12.35c-2.16,6.27.14,13.42.14,13.42-.25-.08-4.38-1-6.55-3.59A39.71,39.71,0,0,0,50,104.21l1.05,19.26s-10.5-10.19-8.55-25.69A31.13,31.13,0,0,1,56.89,75.42L46.66,78.26S49.23,61.32,69,58.73s28.86-3,40.55,6.51c8.92,7.29,10.34,21.34,15.21,23.66a13.7,13.7,0,0,0,9.54.73l-8.87,10.43s3.34,4.63,1.39,12.12S120,122.79,120,122.79l-1.77-23.34s-11.45.77-18-4.14S87.58,80.59,87.58,80.59Z" style="fill:current"/></g></svg>