<svg xmlns="http://www.w3.org/2000/svg" viewBox="0 0 170.08 283.46"><g id="bced0ee4-8b9e-45b4-bc85-99bc05110bc1" data-name="HÅR"><path d="M90.08,99.34c-5-1.65-7.09-5.92-11-4.87-6.63,1.81-1.34,5.08-8.51,10.1-3.83,2.69-7.16.83-9.17,2.53-2.69,2.28-.62,6.19-1.51,9.58-1,3.85-4.64,5.78-5.32,8.2-1.1,3.91,2.23,6.76,1,10.32-.74,2.22-2.29,4.38-7.12,3.09-6.76-1.81-5.59-7.42-9.14-11.07C37.22,125,29,122,29,111.65c0-7.37,4.82-10.43,5.92-18,.46-3.09-3.55-13.29,3.48-20s15-4,17.8-6.76S62.13,55.46,71.85,54,86,58.31,90.18,58.73s10.33-4,18.6-1.06c13.56,4.82,12,13.68,14.06,16.77,1.93,2.89,10.28,7.25,10.56,14.83.32,8.38-3,9.72-3.3,13.42-.3,4,8,6.25,6.19,15.15s-6.54,10.95-9.39,12.38c-3.9,1.95-2.91,7.22-9,7.83-4.29.44-6.72-1.39-5.89-5.75.46-2.43,1.9-2.49,2.51-7.4s-6.68-7.34-5.11-13.79c1.17-4.82-.24-9.6-5.15-10.83S95.61,101.18,90.08,99.34Z" style="fill:current"/></g></svg>