<svg width="200" height="300" viewBox="0 0 200 300" fill="none" xmlns="http://www.w3.org/2000/svg">
<path d="M0 10C0 4.47716 4.47715 0 10 0H190C195.523 0 200 4.47715 200 10V290C200 295.523 195.523 300 190 300H10C4.47716 300 0 295.523 0 290V10Z" fill="#D9BBBE"/>
<path d="M69.1754 225.376C69.2227 224.025 69.4796 159.133 69.6216 148.993C69.723 141.828 70.0814 135.292 69.7907 134.798C69.1145 133.629 64.3814 142.234 54.7123 140.807C46.5172 139.631 40.9862 132.872 42.156 124.199C43.3257 115.527 51.0204 111.782 57.8361 112.816C67.5323 114.289 68.9319 122.8 70.0746 122.117C70.5344 121.84 70.3654 116.709 70.2707 111.707C70.1761 106.705 70.1355 101.94 69.5472 101.244C68.3775 99.8307 57.8835 95.9845 57.3425 87.3188C56.8557 79.5047 61.8052 70.1021 74.3683 70.8457C88.4459 71.6839 89.7847 83.4117 88.1146 89.8874C85.6534 99.4455 75.0715 101.02 73.8544 102.007C73.1782 102.562 73.1782 106.901 73.1309 111.606C73.0836 116.311 72.9889 121.191 73.6853 121.745C75.0918 122.915 78.1953 114.127 87.5872 114.891C97.6485 115.709 100.434 120.299 100.84 128.316C101.178 135.014 95.5389 141.213 87.878 141.341C78.8309 141.497 74.1925 134.379 73.1715 134.629C72.8063 134.724 72.8401 141.585 72.7725 149.155C72.6711 159.471 72.1437 224.653 72.0964 225.708C72.0724 225.9 72.0108 226.085 71.9151 226.254C71.8194 226.422 71.6914 226.57 71.5385 226.689C71.3856 226.808 71.2108 226.896 71.024 226.947C70.8372 226.998 70.6422 227.013 70.4499 226.989C70.2577 226.965 70.072 226.903 69.9036 226.807C69.7352 226.712 69.5872 226.584 69.4683 226.431C69.3493 226.278 69.2616 226.103 69.2102 225.917C69.1587 225.73 69.1446 225.535 69.1686 225.343" fill="#DFDFCC"/>
<path d="M85.5251 118.244C89.866 117.642 97.2835 119.947 97.4728 127.092C97.6622 134.237 92.2935 137.434 88.6287 137.549C83.4695 137.725 78.4862 135.014 77.5464 129.12C77.3458 127.881 77.3938 126.614 77.6876 125.394C77.9814 124.174 78.515 123.024 79.2576 122.012C80.0001 121 80.9366 120.145 82.0127 119.498C83.0887 118.851 84.2826 118.425 85.5251 118.244" fill="#EC621D"/>
<path d="M85.978 120.414C89.3249 119.947 95.0588 121.725 95.2008 127.241C95.3428 132.757 91.2047 135.231 88.3716 135.353C84.389 135.481 80.5349 133.392 79.8181 128.836C79.6627 127.88 79.6993 126.902 79.9259 125.959C80.1525 125.017 80.5644 124.129 81.1378 123.348C81.7112 122.566 82.4345 121.907 83.2655 121.408C84.0965 120.909 85.0186 120.58 85.978 120.441" fill="#4C732B"/>
<path d="M86.5391 123.118C88.6555 122.834 92.2594 123.949 92.3473 127.424C92.4352 130.898 89.832 132.453 88.0469 132.513C85.5316 132.601 83.1109 131.283 82.6376 128.41C82.5397 127.808 82.5628 127.191 82.7056 126.597C82.8483 126.003 83.1079 125.444 83.4691 124.951C83.8303 124.459 84.286 124.043 84.8096 123.728C85.3332 123.413 85.9142 123.206 86.5188 123.118" fill="#EDCA00"/>
<path d="M71.1971 75.699C75.6665 75.0839 83.3206 77.443 83.4829 84.7974C83.6452 92.1518 78.1548 95.4302 74.3953 95.5519C69.0807 95.7277 63.9554 92.9427 62.9952 86.8794C62.7898 85.6057 62.8397 84.304 63.142 83.0498C63.4444 81.7956 63.9931 80.614 64.7562 79.5737C65.5194 78.5334 66.4818 77.6551 67.5875 76.9899C68.6932 76.3247 69.9202 75.8859 71.1971 75.699" fill="#E6AA00"/>
<path d="M53.9686 115.743C58.8167 115.067 67.0997 117.649 67.3093 125.619C67.5189 133.588 61.5213 137.164 57.4306 137.306C51.6697 137.489 46.0981 134.467 45.0636 127.89C44.836 126.505 44.8868 125.089 45.2129 123.723C45.5391 122.358 46.134 121.072 46.963 119.939C47.7921 118.806 48.8386 117.85 50.0414 117.126C51.2442 116.402 52.5793 115.925 53.9686 115.723" fill="#009B99"/>
<path d="M54.7872 119.663C57.8367 119.244 63.0499 120.867 63.1852 125.889C63.3204 130.911 59.5339 133.162 56.9645 133.243C53.3335 133.358 49.8242 131.459 49.1683 127.315C49.0282 126.443 49.0629 125.552 49.2703 124.694C49.4778 123.835 49.8538 123.026 50.3766 122.314C50.8994 121.602 51.5586 121.001 52.3158 120.546C53.0729 120.091 53.913 119.791 54.7872 119.663Z" fill="#007BC4"/>
<path d="M107.588 221.943C107.588 221.943 108.305 152.42 108.136 152.143C107.737 151.467 105.046 156.395 99.5489 155.57C94.8834 154.894 91.7257 151.021 92.3951 146.107C93.0645 141.193 97.446 139.036 101.327 139.624C106.851 140.463 107.649 145.309 108.298 144.924C108.562 144.762 108.467 141.855 108.407 138.989C108.346 136.123 108.332 133.426 108.001 133.027C107.325 132.229 101.354 130.033 101.043 125.098C100.766 120.65 103.592 115.29 110.746 115.716C118.765 116.196 119.536 122.874 118.576 126.531C117.17 131.979 111.138 132.878 110.462 133.439C110.077 133.757 110.077 136.224 110.056 138.908C110.036 141.591 109.975 144.37 110.367 144.701C111.172 145.377 112.937 140.361 118.285 140.794C124.019 141.26 125.98 144.214 125.933 148.804C125.892 151.893 123.296 155.665 118.454 155.861C113.302 156.07 110.658 151.893 110.077 152.042C109.867 152.089 111.111 221.99 111.111 221.99L107.588 221.943Z" fill="#A9924D"/>
<path d="M116.974 142.085C119.725 141.706 124.411 143.167 124.54 147.682C124.668 152.197 121.26 154.232 118.941 154.306C115.675 154.414 112.518 152.698 111.929 148.966C111.802 148.183 111.831 147.381 112.017 146.609C112.202 145.837 112.539 145.109 113.009 144.469C113.478 143.828 114.071 143.288 114.751 142.878C115.432 142.469 116.187 142.199 116.974 142.085" fill="#EA5040"/>
<path d="M117.264 143.545C119.381 143.254 123.012 144.377 123.1 147.871C123.188 151.366 120.571 152.921 118.779 152.981C116.257 153.063 113.823 151.744 113.37 148.858C113.272 148.253 113.296 147.634 113.439 147.037C113.583 146.441 113.844 145.879 114.207 145.385C114.57 144.89 115.028 144.473 115.554 144.157C116.08 143.841 116.664 143.633 117.271 143.545" fill="#00A99F"/>
<path d="M117.676 145.465C118.88 145.303 120.936 145.945 120.99 147.919C121.044 148.628 120.817 149.329 120.358 149.872C119.898 150.415 119.243 150.755 118.535 150.819C117.821 150.895 117.105 150.696 116.534 150.261C115.963 149.825 115.581 149.188 115.465 148.48C115.411 148.136 115.425 147.786 115.506 147.448C115.588 147.11 115.736 146.791 115.942 146.511C116.147 146.231 116.406 145.994 116.704 145.814C117.002 145.635 117.332 145.516 117.676 145.465" fill="#F18700"/>
<path d="M108.812 117.831C111.638 117.446 116.466 118.947 116.588 123.591C116.71 128.234 113.207 130.35 110.834 130.397C107.453 130.512 104.228 128.748 103.619 124.909C103.49 124.102 103.521 123.279 103.713 122.485C103.905 121.691 104.252 120.943 104.735 120.285C105.218 119.626 105.828 119.07 106.527 118.649C107.227 118.228 108.004 117.95 108.812 117.831" fill="#239F38"/>
<path d="M99.1298 141.267C101.889 140.889 106.601 142.356 106.723 146.898C106.845 151.441 103.43 153.468 101.097 153.55C97.8181 153.658 94.6401 151.934 94.0519 148.182C93.9252 147.394 93.9565 146.589 94.144 145.813C94.3314 145.037 94.6712 144.306 95.1437 143.663C95.6162 143.019 96.2119 142.476 96.8962 142.065C97.5805 141.654 98.3398 141.383 99.1298 141.267Z" fill="#00A99F"/>
<path d="M99.5014 143.072C101.435 142.808 104.735 143.836 104.816 147.013C104.867 147.577 104.805 148.147 104.635 148.687C104.464 149.228 104.187 149.73 103.821 150.163C103.455 150.596 103.007 150.952 102.502 151.211C101.997 151.47 101.446 151.626 100.881 151.67C98.5818 151.744 96.364 150.541 95.9516 147.912C95.8623 147.36 95.8837 146.797 96.0143 146.254C96.145 145.711 96.3825 145.199 96.7128 144.749C97.0432 144.298 97.4599 143.918 97.9386 143.63C98.4173 143.342 98.9486 143.152 99.5014 143.072" fill="#EA5040"/>
<path d="M100.043 144.958C101.097 144.816 102.896 145.37 102.943 147.101C102.971 147.409 102.937 147.72 102.844 148.015C102.751 148.31 102.6 148.584 102.399 148.821C102.199 149.057 101.954 149.251 101.679 149.392C101.403 149.533 101.102 149.618 100.793 149.642C100.168 149.715 99.5391 149.545 99.0358 149.168C98.5325 148.791 98.1934 148.234 98.0884 147.614C98.0395 147.314 98.0509 147.007 98.1219 146.711C98.193 146.415 98.3223 146.136 98.5024 145.891C98.6824 145.645 98.9095 145.438 99.1704 145.282C99.4314 145.125 99.721 145.022 100.022 144.978" fill="#3F2B3E"/>
<path d="M125.77 214.162C125.838 212.391 126.176 139.205 126.372 125.767C126.5 116.257 126.974 107.584 126.595 106.942C125.655 105.387 119.387 116.838 106.587 114.911C95.7216 113.269 88.3852 104.326 89.9336 92.8278C91.482 81.3298 101.692 76.3547 110.732 77.7337C123.579 79.6872 125.452 90.969 126.96 90.0699C127.569 89.6982 127.352 82.9251 127.224 76.2533C127.082 69.7236 127.041 63.302 126.264 62.3759C124.715 60.5103 110.786 55.4068 110.036 43.9088C109.434 33.5463 116 21.0681 132.681 22.055C151.356 23.1704 153.128 38.7242 150.937 47.3156C147.671 59.9898 133.634 62.0853 132.004 63.3966C131.098 64.1267 131.098 69.8858 131.044 76.1249C130.99 82.2085 130.855 88.8397 131.781 89.6441C133.647 91.192 137.772 79.5047 150.22 80.5524C163.568 81.6407 167.286 87.7176 167.8 98.3842C168.247 107.273 160.748 115.466 150.585 115.641C138.59 115.844 132.43 106.401 131.078 106.739C130.598 106.861 130.639 115.959 130.551 126.004C130.415 139.685 129.719 213.277 129.651 214.676C129.523 217.109 125.635 217.224 125.757 214.189" fill="#3F2B3E"/>
<path d="M147.461 84.9261C153.222 84.1285 163.053 87.1906 163.304 96.6675C163.554 106.144 156.44 110.389 151.613 110.565C144.77 110.795 138.15 107.185 136.913 99.3781C136.648 97.7349 136.713 96.0554 137.103 94.4373C137.493 92.8191 138.201 91.2947 139.185 89.9525C140.17 88.6103 141.412 87.4771 142.838 86.6189C144.265 85.7606 145.848 85.1944 147.495 84.9532" fill="#CBBC3E"/>
<path d="M148.056 87.8055C152.505 87.1904 160.105 89.5495 160.295 96.8633C160.484 104.177 154.994 107.456 151.234 107.584C145.953 107.76 140.842 104.982 139.888 98.9385C139.684 97.6702 139.733 96.3739 140.035 95.125C140.336 93.8761 140.882 92.6995 141.642 91.6636C142.402 90.6277 143.361 89.7532 144.462 89.0909C145.563 88.4285 146.785 87.9916 148.056 87.8055" fill="#4C732B"/>
<path d="M148.807 91.3949C151.613 91.0164 156.394 92.4967 156.515 97.1067C156.637 101.717 153.175 103.778 150.809 103.866C147.475 103.974 144.263 102.23 143.655 98.4587C143.522 97.6581 143.55 96.8389 143.738 96.0494C143.926 95.2599 144.27 94.516 144.751 93.8616C145.231 93.2071 145.837 92.6553 146.534 92.2386C147.23 91.822 148.003 91.5489 148.807 91.4355" fill="#0083CB"/>
<path d="M105.634 81.6136C112.064 80.7281 123.045 84.1416 123.322 94.7136C123.599 105.286 115.647 110.031 110.225 110.213C102.584 110.457 95.1936 106.455 93.8142 97.7216C93.5177 95.8864 93.5892 94.0105 94.0247 92.2031C94.4601 90.3958 95.2508 88.693 96.3507 87.194C97.4506 85.695 98.8377 84.4297 100.431 83.4716C102.025 82.5136 103.793 81.882 105.634 81.6136" fill="#C48EBF"/>
<path d="M106.689 86.8188C110.746 86.2578 117.649 88.4073 117.825 95.0655C118.001 101.724 112.991 104.718 109.576 104.826C104.755 104.982 100.11 102.461 99.2306 96.9582C99.0454 95.8033 99.0913 94.6231 99.3659 93.4861C99.6405 92.3491 100.138 91.2779 100.83 90.3347C101.522 89.3915 102.394 88.595 103.397 87.9914C104.399 87.3879 105.511 86.9893 106.668 86.8188" fill="#EDCA00"/>
<path d="M128.461 28.497C134.384 27.679 144.499 30.8223 144.749 40.556C145 50.2898 137.69 54.6633 132.68 54.8255C125.641 55.0621 118.839 51.3714 117.561 43.3342C117.289 41.6448 117.357 39.9182 117.758 38.2549C118.16 36.5916 118.889 35.0247 119.902 33.6454C120.915 32.2661 122.192 31.1018 123.659 30.2203C125.126 29.3388 126.754 28.7576 128.447 28.5105" fill="#F39D99"/>
</svg>
