<svg xmlns="http://www.w3.org/2000/svg" xmlns:xlink="http://www.w3.org/1999/xlink" width="200" height="300" viewBox="0 0 200 300">
  <defs>
    <clipPath id="27c-clip-Kort_-_artikel_27c">
      <rect width="200" height="300"/>
    </clipPath>
  </defs>
  <g id="27c-Kort_-_artikel_27c" data-name="27c-Kort - artikel 27c" clip-path="url(#27c-clip-Kort_-_artikel_27c)">
    <rect width="200" height="300" fill="#96b096"/>
    <g id="27c-Group_2" data-name="27c-Group 2" transform="translate(-287.986 -381.042)">
      <g id="27c-Group_3" data-name="27c-Group 3" transform="translate(292.69 427.014)">
        <path id="27c-Path_1" data-name="27c-Path 1" d="M305.17,427.735l-5.771,98.1,19.476-.721-1.443-98.1Z" transform="translate(-294.56 -427.014)" fill="#fe480c"/>
        <path id="27c-Path_2" data-name="27c-Path 2" d="M330.4,460.061l5.771,122.63h45.445L368.631,457.176Z" transform="translate(-303.198 -435.418)" fill="#15822e"/>
        <path id="27c-Path_3" data-name="27c-Path 3" d="M402.732,487.347l1.443,75.021,19.476-1.443,3.607-72.857Z" transform="translate(-323.353 -443.825)" fill="#7b9814"/>
        <path id="27c-Path_4" data-name="27c-Path 4" d="M437.4,506.793l5.771,87.924h12.022l-3.607-87.282Z" transform="translate(-333.013 -449.244)" fill="#57a479"/>
        <path id="27c-Path_5" data-name="27c-Path 5" d="M475.121,463.227,474.4,568.545l56.63-.721,2.885-111.81Z" transform="translate(-343.323 -435.094)" fill="#b9a8a8"/>
        <path id="27c-Path_6" data-name="27c-Path 6" d="M406.477,606.314l.28,52.945H433.09l-7.564-53.225Z" transform="translate(-324.397 -476.897)" fill="#a4da9b"/>
        <path id="27c-Path_7" data-name="27c-Path 7" d="M292.69,570.693l6.723,59.39,17.929,1.12-.56-60.51Z" transform="translate(-292.69 -467.05)" fill="#ff8001"/>
        <path id="27c-Path_8" data-name="27c-Path 8" d="M353.691,529.488c-10.281,1.922-14.586,4.362-14.506,19.179s10.858,15.286,20.276,13.647,17.471-6.446,16.055-19.138S365.351,527.307,353.691,529.488Z" transform="translate(-305.646 -455.391)" fill="#33a138"/>
        <path id="27c-Path_9" data-name="27c-Path 9" d="M348.473,481.72c-10.281,1.922-14.587,4.362-14.506,19.178s10.857,15.286,20.275,13.647,17.471-6.446,16.055-19.138S360.132,479.539,348.473,481.72Z" transform="translate(-304.192 -442.081)" fill="#33a138"/>
        <path id="27c-Path_10" data-name="27c-Path 10" d="M311.933,531.16c-4.281-.253-6.237.237-7.137,5.914-.974,6.136,3.9,7.133,8.077,7.117,3.989-.015,7.34-1.368,7.095-6.275C319.736,533.276,316.545,531.433,311.933,531.16Z" transform="translate(-296.029 -456.02)" fill="#fa4e56"/>
        <path id="27c-Path_11" data-name="27c-Path 11" d="M305.463,581.7c-5.608.3-8.084,1.252-8.455,9.014-.4,8.388,6.078,9,11.517,8.35,5.19-.619,9.361-2.937,8.349-9.492C315.917,583.368,311.5,581.37,305.463,581.7Z" transform="translate(-293.889 -470.106)" fill="#e49d02"/>
        <path id="27c-Path_12" data-name="27c-Path 12" d="M417.709,645.345c-5.607.3-8.083,1.251-8.454,9.014-.4,8.389,6.077,9,11.517,8.35,5.191-.618,9.361-2.937,8.349-9.493C428.165,647.017,423.751,645.02,417.709,645.345Z" transform="translate(-325.166 -487.842)" fill="#86c4af"/>
        <path id="27c-Path_13" data-name="27c-Path 13" d="M416.666,623.837c-4.607.248-6.641,1.029-6.947,7.408-.33,6.892,4.994,7.392,9.464,6.861,4.265-.509,7.692-2.413,6.859-7.8C425.257,625.212,421.63,623.571,416.666,623.837Z" transform="translate(-325.296 -481.851)" fill="#86c4af"/>
        <path id="27c-Path_14" data-name="27c-Path 14" d="M308.67,609.69c-5.016.124-7.265.977-7.918,8.544-.706,8.177,5.05,8.967,9.93,8.5,4.657-.448,8.474-2.585,7.843-9.014C317.928,611.638,314.073,609.554,308.67,609.69Z" transform="translate(-294.92 -477.914)" fill="#e49d02"/>
        <path id="27c-Path_15" data-name="27c-Path 15" d="M310.8,505.531c-4.281-.253-6.237.237-7.137,5.914-.974,6.137,3.9,7.133,8.077,7.117,3.989-.015,7.34-1.368,7.094-6.275C318.6,507.647,315.41,505.8,310.8,505.531Z" transform="translate(-295.712 -448.878)" fill="#fa4e56"/>
        <path id="27c-Path_16" data-name="27c-Path 16" d="M310.214,483.614c-3.61-.214-5.26.2-6.02,4.988-.821,5.176,3.286,6.017,6.813,6,3.364-.013,6.191-1.153,5.984-5.293C316.8,485.4,314.1,483.844,310.214,483.614Z" transform="translate(-295.866 -442.773)" fill="#fa4e56"/>
        <path id="27c-Path_17" data-name="27c-Path 17" d="M356.237,580.794c-10.281,1.922-14.586,4.362-14.506,19.178s10.858,15.287,20.276,13.648,17.47-6.445,16.055-19.138S367.9,578.614,356.237,580.794Z" transform="translate(-306.355 -469.688)" fill="#33a138"/>
        <path id="27c-Path_18" data-name="27c-Path 18" d="M500.691,542.732c-14.516,2.233-20.608,5.122-20.608,22.85s15.195,18.361,28.492,16.461,24.69-7.6,22.793-22.793S517.152,540.2,500.691,542.732Z" transform="translate(-344.907 -459.058)" fill="#d1cee1"/>
        <path id="27c-Path_19" data-name="27c-Path 19" d="M502.608,484.046C488.092,486.278,482,489.169,482,506.9s15.195,18.361,28.492,16.462,24.69-7.6,22.793-22.793S519.069,481.513,502.608,484.046Z" transform="translate(-345.441 -442.705)" fill="#d1cee1"/>
        <path id="27c-Path_20" data-name="27c-Path 20" d="M478.22,615.537l-7.9,10.741.632,20.22,10.741,5.371,32.54-.633,9.161-8.214-2.211-18.955-7.9-8.846Z" transform="translate(-342.187 -479.457)" fill="#fd4b26"/>
        <path id="27c-Path_21" data-name="27c-Path 21" d="M512.4,621.352H483.647l-6.319,8.215.316,15.8,9.794,4.424,25.273-1.579,7.583-6.319-1.58-13.269Z" transform="translate(-344.139 -481.166)" fill="#c99082"/>
        <path id="27c-Path_22" data-name="27c-Path 22" d="M488.709,627.678l-5.371,5.055-.316,10.109,5.371,4.74,21.483-1.9,7.266-3.159L516.51,632.1l-5.055-5.055Z" transform="translate(-345.726 -482.752)" fill="#100a1c"/>
        <path id="27c-Path_23" data-name="27c-Path 23" d="M491.508,631.62,487.4,635.1l.632,6.318,4.107,4.107,18.324-1.262,5.054-3.16v-6.95l-4.423-3.159Z" transform="translate(-346.946 -483.851)" fill="#c3d414"/>
        <path id="27c-Path_24" data-name="27c-Path 24" d="M494.706,634.135l-3.625,2.551.47,4.163,3.223,3.222,15.307-1.141,3.962-2.282.671-5.3-4.029-2.685Z" transform="translate(-347.972 -484.316)" fill="#b2b816"/>
        <path id="27c-Path_25" data-name="27c-Path 25" d="M496.662,636.21h0l-2.417,1.612.135,3.021,3.021,2.081,12.958-1.074,3.424-1.746.269-3.626L511.03,634.8Z" transform="translate(-348.853 -484.913)" fill="#d1cee1"/>
        <path id="27c-Path_26" data-name="27c-Path 26" d="M350.283,642.3l-4.686,6.372.375,12,6.372,3.187,19.305-.375,5.435-4.873-1.312-11.246-4.686-5.248Z" transform="translate(-307.433 -486.951)" fill="#100a1c"/>
        <path id="27c-Path_27" data-name="27c-Path 27" d="M370.559,645.752H353.5l-3.749,4.872.188,9.372,5.81,2.623,14.994-.937,4.5-3.748-.938-7.873Z" transform="translate(-308.591 -487.965)" fill="#748e0b"/>
        <path id="27c-Path_28" data-name="27c-Path 28" d="M356.506,649.5l-3.186,3-.187,6,3.186,2.811,12.745-1.124,4.311-1.874L373,652.128l-3-3Z" transform="translate(-309.532 -488.906)" fill="#33a138"/>
        <path id="27c-Path_29" data-name="27c-Path 29" d="M358.167,651.842,355.73,653.9l.375,3.748,2.436,2.437,10.871-.75,3-1.875v-4.122l-2.624-1.875Z" transform="translate(-310.256 -489.557)" fill="#fe3910"/>
        <path id="27c-Path_30" data-name="27c-Path 30" d="M360.036,653.652l-2.122,1.458.275,2.377,1.887,1.841,8.962-.652,2.32-1.3.393-3.029-2.359-1.534Z" transform="translate(-310.865 -489.931)" fill="#fb4e3c"/>
        <path id="27c-Path_31" data-name="27c-Path 31" d="M361.176,654.813h0l-1.386.916.077,1.716,1.733,1.183,7.431-.61,1.963-.992.154-2.06-1.733-.954Z" transform="translate(-311.388 -490.266)" fill="#caaeb7"/>
      </g>
    </g>
  </g>
</svg>
