<svg xmlns="http://www.w3.org/2000/svg" xmlns:xlink="http://www.w3.org/1999/xlink" width="200" height="300" viewBox="0 0 200 300">
  <defs>
    <clipPath id="31a-clip-path">
      <rect id="31a-Rectangle_3" data-name="31a-Rectangle 3" width="250" height="250" fill="none"/>
    </clipPath>
    <clipPath id="31a-clip-path-2">
      <path id="31a-Path_8" data-name="31a-Path 8" d="M342.881,315.435c-4.038,0-11.7,20.306-38.526,47.926-24.221,24.94-85.073,60.052-86.217,64.387s-51.667,180.834-48.812,184.085S525.919,624,527.061,619.673s-46.955-190.3-50.378-194.094-57.512-27.09-81.586-48.408C369.417,354.424,346.876,315.435,342.881,315.435Z" transform="translate(-169.209 -315.435)" fill="none"/>
    </clipPath>
    <clipPath id="31a-clip-path-3">
      <path id="31a-Path_16" data-name="31a-Path 16" d="M235.356,428.423c1.139,3.971,16.682.916,35.192,8.19,20.627,8.1,34.6,21.685,39.142,22.641,3.426.72,28.381-13.228,58.631-12.146s54.9,12.182,58.658,11.1,13.284-13.008,34.388-20.859c17.573-6.538,41.266-8.112,43-10.731s-48.718-30.417-77.826-54.785-59.6-58.544-63.043-58.453c-4.036.108-22.955,24.372-56.813,57.37C277.455,399.227,234.212,424.451,235.356,428.423Z" transform="translate(-235.334 -313.378)" fill="#d59bb3"/>
    </clipPath>
    <clipPath id="31a-clip-Kort_-_artikel_31">
      <rect width="200" height="300"/>
    </clipPath>
  </defs>
  <g id="31a-Kort_-_artikel_31" data-name="31a-Kort - artikel 31" clip-path="url(#31a-clip-Kort_-_artikel_31)">
    <rect width="200" height="300" fill="#89b396"/>
    <g id="31a-Group_8" data-name="31a-Group 8" transform="translate(-263.809 -360.016)">
      <g id="31a-Group_7" data-name="31a-Group 7" transform="translate(238.809 360.016)" clip-path="url(#31a-clip-path)">
        <rect id="31a-Rectangle_1" data-name="31a-Rectangle 1" width="332.22" height="276.707" transform="translate(-53.16 -5.973)" fill="#89b396"/>
        <g id="31a-Group_6" data-name="31a-Group 6" transform="translate(-190.044 -31.287)">
          <g id="31a-Group_5" data-name="31a-Group 5" transform="translate(0)">
            <rect id="31a-Rectangle_2" data-name="31a-Rectangle 2" width="198.605" height="176.272" transform="translate(209.326 117.539)" fill="#221537"/>
            <g id="31a-Group_2" data-name="31a-Group 2" transform="translate(143.354 1.38)">
              <g id="31a-Group_1" data-name="31a-Group 1" clip-path="url(#31a-clip-path-2)">
                <path id="31a-Path_1" data-name="31a-Path 1" d="M338.063,700.947s10-62.565,20.84-105.891,33.836-74,36.724-74.21,29.042,41.664,38.253,77.271c11.4,44.056,20.757,102.282,20.757,102.282l62.081-39.716-26.826-208.5L326.66,457.594l-8.086,233.495Z" transform="translate(-218.374 -360.446)" fill="#5ea036"/>
                <path id="31a-Path_2" data-name="31a-Path 2" d="M307.517,482.675s-2.978,52.753-4.422,86.938c-.983,23.293-5.524,123.037-5.524,123.037l-86.852-14.133-8.559-214.46Z" transform="translate(-180.055 -364.356)" fill="#aa96ab"/>
                <path id="31a-Path_3" data-name="31a-Path 3" d="M250.957,437.152s-5.924,62.331-7.367,96.514c-.982,23.294-8.919,107.608-8.919,107.608l-80.512-8.281L145.6,418.535Z" transform="translate(-161.438 -349.371)" fill="#82027e"/>
                <path id="31a-Path_4" data-name="31a-Path 4" d="M501.99,465.992s3.037,60.861,5.891,100.937S513.408,675.6,513.408,675.6l117.9-19.976L618.18,438.455Z" transform="translate(-278.747 -355.928)" fill="#269480"/>
                <path id="31a-Path_5" data-name="31a-Path 5" d="M566.539,447.755s1.823,65.439,4.678,105.515,9.59,91.615,9.59,91.615L690.962,634.6,677.833,417.428Z" transform="translate(-299.994 -349.007)" fill="#202226"/>
                <path id="31a-Path_6" data-name="31a-Path 6" d="M278.976,696.776s-7.686-55.961-13.768-114.319c-5.12-49.111-8.034-83.964-12.962-85.62-1.916-.645-24.992,43.37-43.9,86.152-18.272,41.34-46.264,106.194-46.264,106.194S278.121,695.963,278.976,696.776Z" transform="translate(-166.862 -375.143)" fill="#f0ce01"/>
                <path id="31a-Path_7" data-name="31a-Path 7" d="M522.875,674.052s14.63-72.667,17.949-97.228c5.313-39.327,10.963-84.261,13.968-84.691,3.868-.553,18.117,37.7,38.111,80.438C612.1,613.6,642.1,676.691,642.1,676.691S523.73,673.24,522.875,674.052Z" transform="translate(-285.622 -373.595)" fill="#d61a8a"/>
              </g>
            </g>
            <path id="31a-Path_9" data-name="31a-Path 9" d="M303.159,524.095,212.578,696.431l2.88-.809,89.656-173.288Z" transform="translate(-40.13 -382.158)" fill="#937b32"/>
            <path id="31a-Path_10" data-name="31a-Path 10" d="M150.266,481.561-44.209,652.995l-.275,3.129L149.607,483.416Z" transform="translate(44.484 -368.737)" fill="#937b32"/>
            <path id="31a-Path_11" data-name="31a-Path 11" d="M522.742,519.847l90.582,172.337-2.786-.534L520.879,518.362Z" transform="translate(-141.611 -380.85)" fill="#937b32"/>
            <path id="31a-Path_12" data-name="31a-Path 12" d="M627.357,478,821.832,649.434l.084,3.168L627.82,479.893Z" transform="translate(-176.659 -367.565)" fill="#937b32"/>
            <g id="31a-Group_4" data-name="31a-Group 4" transform="translate(187.713)">
              <path id="31a-Path_13" data-name="31a-Path 13" d="M235.356,428.423c1.139,3.971,16.682.916,35.192,8.19,20.627,8.1,34.6,21.685,39.142,22.641,3.426.72,28.381-13.228,58.631-12.146s54.9,12.182,58.658,11.1,13.284-13.008,34.388-20.859c17.573-6.538,41.266-8.112,43-10.731s-48.718-30.417-77.826-54.785-59.6-58.544-63.043-58.453c-4.036.108-22.955,24.372-56.813,57.37C277.455,399.227,234.212,424.451,235.356,428.423Z" transform="translate(-235.334 -313.378)" fill="#d59bb3"/>
              <g id="31a-Group_3" data-name="31a-Group 3" clip-path="url(#31a-clip-path-3)">
                <path id="31a-Path_14" data-name="31a-Path 14" d="M357.715,282.853S344.914,336.9,332.389,373C322.36,401.917,297.5,451.98,297.5,451.98l-93.636-33.892L326.572,274.573Z" transform="translate(-224.975 -300.605)" fill="#dfe3c2"/>
                <path id="31a-Path_15" data-name="31a-Path 15" d="M489.219,448.838s-27-48.616-40.821-82.2c-15.2-36.925-28.75-81.385-28.75-81.385l32.17-10.682L587.084,405.632Z" transform="translate(-296.003 -300.605)" fill="#fd4d21"/>
              </g>
            </g>
          </g>
        </g>
      </g>
    </g>
  </g>
</svg>
