<svg xmlns="http://www.w3.org/2000/svg" xmlns:xlink="http://www.w3.org/1999/xlink" width="200" height="300" viewBox="0 0 200 300">
  <defs>
    <clipPath id="37b-clip-path">
      <rect id="37b-Rectangle_3" data-name="37b-Rectangle 3" width="294.69" height="290.403" fill="none"/>
    </clipPath>
    <clipPath id="37b-clip-Kort_-_artikel_37b">
      <rect width="200" height="300"/>
    </clipPath>
  </defs>
  <g id="37b-Kort_-_artikel_37b" data-name="37b-Kort - artikel 37b" clip-path="url(#37b-clip-Kort_-_artikel_37b)">
    <rect width="200" height="300" fill="#94bfb9"/>
    <g id="37b-Group_4" data-name="37b-Group 4" transform="translate(-328.46 -102.045)">
      <rect id="37b-Rectangle_1" data-name="37b-Rectangle 1" width="294.69" height="290.403" transform="translate(300.984 111.642)" fill="#efda00"/>
      <g id="37b-Group_2" data-name="37b-Group 2" transform="translate(300.984 111.642)">
        <g id="37b-Group_1" data-name="37b-Group 1" clip-path="url(#37b-clip-path)">
          <rect id="37b-Rectangle_2" data-name="37b-Rectangle 2" width="583.925" height="389.306" transform="translate(-102.584 -29.907)" fill="none" stroke="#9c7e39" stroke-miterlimit="10" stroke-width="0.7"/>
          <path id="37b-Path_1" data-name="37b-Path 1" d="M755.4,322.151s-113.009-83.985-214.876-71.788c-115.677,13.853-62.141,115.715-101.845,170.524C397,478.428,298.633,488.8,245.422,482.021,180.5,473.746,67.769,438.65,67.769,438.65L.686,530.163l751.873,6.083Z" transform="translate(-235.888 -141.451)" fill="#957c2f"/>
          <path id="37b-Path_2" data-name="37b-Path 2" d="M755.4,322.151s-113.009-83.985-214.876-71.788c-115.677,13.853-62.141,115.715-101.845,170.524C397,478.428,298.633,488.8,245.422,482.021,180.5,473.746,67.769,438.65,67.769,438.65L.686,530.163l751.873,6.083Z" transform="translate(-235.888 -141.451)" fill="none" stroke="#9c7e39" stroke-miterlimit="10" stroke-width="0.7"/>
          <path id="37b-Path_3" data-name="37b-Path 3" d="M109.951,366.613s69.118,36.2,149.819,29.787c135-10.725,144.135-91.828,179.036-143.252,34.02-50.124,59.164-55.318,101.36-58.3,65.941-4.657,225.983,6.693,225.983,6.693l-4.593-47.114L220.679,100.054Z" transform="translate(-259.573 -109.13)" fill="#49aa86"/>
          <path id="37b-Path_4" data-name="37b-Path 4" d="M109.951,366.613s69.118,36.2,149.819,29.787c135-10.725,144.135-91.828,179.036-143.252,34.02-50.124,59.164-55.318,101.36-58.3,65.941-4.657,225.983,6.693,225.983,6.693l-4.593-47.114L220.679,100.054Z" transform="translate(-259.573 -109.13)" fill="none" stroke="#9c7e39" stroke-width="0.7"/>
          <path id="37b-Path_5" data-name="37b-Path 5" d="M134.269,302.053s68.173,17.713,134.757,10.382c85.372-9.4,111.739-59.753,152.73-95.82C448.2,193.351,485.464,171.7,553.267,175.32c69.7,3.717,132.107,68.236,132.107,68.236l107.281-67.827L208.572,88.688Z" transform="translate(-264.845 -106.666)" fill="#00722d"/>
          <path id="37b-Path_6" data-name="37b-Path 6" d="M134.269,302.053s68.173,17.713,134.757,10.382c85.372-9.4,111.739-59.753,152.73-95.82C448.2,193.351,485.464,171.7,553.267,175.32c69.7,3.717,132.107,68.236,132.107,68.236l107.281-67.827L208.572,88.688Z" transform="translate(-264.845 -106.666)" fill="none" stroke="#9c7e39" stroke-width="0.7"/>
          <path id="37b-Path_7" data-name="37b-Path 7" d="M340.187,224.067c55.883-21.343,71.775-48.948,140.538-61.385,73.229-13.245,278.893,38.9,278.893,38.9l4.919-62.458L226.785,96.187,163.337,235.539s90.731,21.42,176.85-11.472" transform="translate(-271.146 -108.292)" fill="#244242"/>
          <path id="37b-Path_8" data-name="37b-Path 8" d="M340.187,224.067c55.883-21.343,71.775-48.948,140.538-61.385,73.229-13.245,278.893,38.9,278.893,38.9l4.919-62.458L226.785,96.187,163.337,235.539S254.068,256.959,340.187,224.067Z" transform="translate(-271.146 -108.292)" fill="none" stroke="#9c7e39" stroke-width="0.7"/>
          <path id="37b-Path_9" data-name="37b-Path 9" d="M182.05,144.132s43.795,14.8,127.812,10.572c42.948-2.163,80.19-16.339,104.665-24.1,34.97-11.087,81.022-18.111,155.037-4.8,108.227,19.469,187.221,41.72,187.221,41.72l2.127-123.781L286.328.367Z" transform="translate(-275.202 -87.521)" fill="#94bfb9"/>
          <path id="37b-Path_10" data-name="37b-Path 10" d="M182.05,144.132s43.795,14.8,127.812,10.572c42.948-2.163,80.19-16.339,104.665-24.1,34.97-11.087,81.022-18.111,155.037-4.8,108.227,19.469,187.221,41.72,187.221,41.72l2.127-123.781L286.328.367Z" transform="translate(-275.202 -87.521)" fill="none" stroke="#9c7e39" stroke-miterlimit="10" stroke-width="0.7"/>
          <path id="37b-Path_11" data-name="37b-Path 11" d="M316.8,245.324c-6.959,26.027-1.9,43.605,58.234,46.264,55.467,2.453,62.939-4.807,66.015-30.529,3.008-25.144-7.654-35.353-59.123-40.3-55.474-5.331-59.225,2.487-65.126,24.563" transform="translate(-303.893 -134.947)" fill="#efda00"/>
          <path id="37b-Path_12" data-name="37b-Path 12" d="M316.8,245.324c-6.959,26.027-1.9,43.605,58.234,46.264,55.467,2.453,62.939-4.807,66.015-30.529,3.008-25.144-7.654-35.353-59.123-40.3C326.449,215.43,322.7,223.248,316.8,245.324Z" transform="translate(-303.893 -134.947)" fill="none" stroke="#9c7e39" stroke-miterlimit="10" stroke-width="0.7"/>
          <path id="37b-Path_13" data-name="37b-Path 13" d="M329.815,252.079c-4.142,20.271,2.232,26.793,40.362,29.456,35.107,2.454,40.443-2.765,43.222-20.726,2.733-17.667-9.042-22.671-36.517-26.757-28.535-4.245-42.016-6.7-47.066,18.027" transform="translate(-306.996 -137.589)" fill="#00722d"/>
          <path id="37b-Path_14" data-name="37b-Path 14" d="M329.815,252.079c-4.142,20.271,2.232,26.793,40.362,29.456,35.107,2.454,40.443-2.765,43.222-20.726,2.733-17.667-9.042-22.671-36.517-26.757C348.346,229.807,334.865,227.357,329.815,252.079Z" transform="translate(-306.996 -137.589)" fill="none" stroke="#9c7e39" stroke-miterlimit="10" stroke-width="0.7"/>
          <path id="37b-Path_15" data-name="37b-Path 15" d="M371.91,246.972c-10.792-.829-28.523-4.5-30.319,10.058-1.818,14.741,6.589,14.6,25.907,17.483,18.836,2.81,27.824.179,29.251-12.063,1.411-12.115-12.857-13.731-24.839-15.478" transform="translate(-309.734 -140.756)" fill="#244242"/>
          <path id="37b-Path_16" data-name="37b-Path 16" d="M371.91,246.972c-10.792-.829-28.523-4.5-30.319,10.058-1.818,14.741,6.589,14.6,25.907,17.483,18.836,2.81,27.824.179,29.251-12.063C398.16,250.335,383.892,248.72,371.91,246.972Z" transform="translate(-309.734 -140.756)" fill="none" stroke="#9c7e39" stroke-miterlimit="10" stroke-width="0.7"/>
          <path id="37b-Path_17" data-name="37b-Path 17" d="M355.233,260.448c-.894,3.912-.18,6.5,8.9,7.005,8.969.5,10.248-.629,10.859-4.743s-1.193-5.732-9.737-6.291c-8.644-.566-9.374,1.188-10.022,4.029" transform="translate(-312.681 -143.003)" fill="#49aa86"/>
          <path id="37b-Path_18" data-name="37b-Path 18" d="M355.233,260.448c-.894,3.912-.18,6.5,8.9,7.005,8.969.5,10.248-.629,10.859-4.743s-1.193-5.732-9.737-6.291C356.611,255.852,355.881,257.607,355.233,260.448Z" transform="translate(-312.681 -143.003)" fill="none" stroke="#9c7e39" stroke-miterlimit="10" stroke-width="0.7"/>
        </g>
      </g>
    </g>
  </g>
</svg>
