<svg width="200" height="300" viewBox="0 0 200 300" fill="none" xmlns="http://www.w3.org/2000/svg">
<g clip-path="url(#clip0_1901_34028)">
<rect width="200" height="300" fill="#929B9E"/>
<path d="M196.679 64.9401C198.004 58.9439 199.731 53.0439 201.849 47.2801L211.019 50.6201L202.529 45.3401C205.139 38.0101 207.619 31.2001 209.169 27.4701C212.219 20.1101 218.579 21.0501 220.749 28.0801C221.279 29.7701 222.039 32.8801 222.749 36.7301L217.039 38.8201L222.979 37.9201C223.659 41.6001 224.309 45.8701 224.729 50.2101L215.319 51.7101L224.889 52.0301C225.439 58.8601 226.609 66.5601 225.129 71.5001C221.449 83.7801 210.749 85.1201 210.749 85.1201L207.929 111.51L206.739 111.36L209.539 85.1301C209.539 85.1301 194.189 78.4301 196.679 64.9401" fill="#A4C7BF"/>
<path d="M97.3796 103.671C90.8596 92.8312 79.2696 77.9112 67.1196 63.3212L46.7896 80.7012L63.4996 59.0012C49.7496 42.7012 36.6396 27.3312 29.0896 19.2512C14.1696 3.2512 -1.07036 12.1012 0.0896407 32.2512C0.449641 37.0812 1.44964 45.7812 3.20964 56.4112L19.8796 56.2512L3.76964 59.6612C5.55964 69.7712 7.99964 81.3412 11.1096 92.9012L36.6896 87.7012L12.4496 97.7312C17.6196 115.731 22.0096 136.731 30.5696 147.911C51.9096 175.911 80.6896 169.001 80.6896 169.001L113.33 234.001L116.23 232.451L83.8096 167.841C83.8096 167.841 116.74 135.841 97.3796 103.641" fill="#A4C7BF"/>
<path d="M9.28974 15.6016C4.44974 18.0016 2.08974 23.2116 2.97974 31.9016C3.86974 40.5916 4.91974 52.2316 4.91974 52.2316L24.2797 52.0016L9.28974 15.6016Z" fill="#EA5040"/>
<path d="M11.3203 15.0018L22.7903 38.2118L32.7003 27.7518C32.7003 27.7518 27.4703 19.7518 20.9003 16.6718C14.3303 13.5918 11.3203 15.0018 11.3203 15.0018Z" fill="#EC6726"/>
<path d="M22.2402 38.5004L25.9702 45.9004L38.4202 33.6104L32.8802 27.6504L22.2402 38.5004Z" fill="#E73446"/>
<path d="M25.6797 45.5817L33.3697 59.0917L49.3197 45.8717L38.1397 33.7617L25.6797 45.5817Z" fill="#E60080"/>
<path d="M32.8594 59.2408L39.7094 72.4908L55.0194 52.8008L48.7194 46.3008L32.8594 59.2408Z" fill="#00A13A"/>
<path d="M39.709 72.4916L44.139 80.5016L60.259 59.9116L53.209 51.3516L39.709 72.4916Z" fill="#806A3C"/>
<path d="M25.8495 56.8203L32.2395 71.1803L10.3895 76.0003L6.68945 62.4903L25.8495 56.8203Z" fill="#75487E"/>
<path d="M37.6098 82.601L32.4798 70.541L11.0898 75.991L14.3498 88.681L37.6098 82.601Z" fill="#F39200"/>
<path d="M33.9794 75.301L11.1594 79.441L8.85938 71.441L30.8594 65.791C30.8594 65.791 34.0894 75.471 33.9694 75.251" fill="#D292C0"/>
<path d="M-16.94 160.411C-11.46 151.291 -1.72 138.761 8.49 126.501L25.57 141.111L11.57 122.871C23.12 109.171 34.79 96.2809 41.14 89.4909C53.67 76.0709 65.82 83.4909 64.83 100.371C64.59 104.451 63.73 111.761 62.23 120.691L48.23 120.561L61.76 123.431C60.26 131.921 58.21 141.641 55.6 151.351L34.05 147.001L54.45 155.421C50.11 170.571 46.45 188.151 39.23 197.581C21.3 221.081 -2.89 215.301 -2.89 215.301L-22.89 255.121H-26L-5.55 214.341C-5.55 214.341 -33.22 187.481 -16.95 160.411" fill="#A4C7BF"/>
<path d="M57.0692 86.4004C61.1492 88.4004 63.1292 92.7904 62.3792 100.09C61.6292 107.39 60.7492 117.18 60.7492 117.18L44.4492 117L57.0692 86.4004Z" fill="#E73446"/>
<path d="M55.3792 85.8916L45.7392 105.402L37.4492 96.6116C37.4492 96.6116 41.8392 89.8816 47.3592 87.3016C52.8792 84.7216 55.4192 85.8916 55.4192 85.8916" fill="#877D23"/>
<path d="M46.1894 105.641L43.0594 111.861L32.6094 101.531L37.2594 96.5215L46.1894 105.641Z" fill="#F39200"/>
<path d="M43.3092 111.59L36.8492 122.94L23.4492 111.83L32.8292 101.65L43.3092 111.59Z" fill="#1C8145"/>
<path d="M37.2702 123.071L31.5202 134.201L18.6602 117.661L23.9402 112.191L37.2702 123.071Z" fill="#0090CF"/>
<path d="M31.52 134.201L27.79 140.931L14.25 123.631L20.17 116.441L31.52 134.201Z" fill="#39A188"/>
<path d="M43.1706 121.041L38.8906 129.681L56.1506 137.151L59.2706 125.801L43.1706 121.041Z" fill="#D292C0"/>
<path d="M33.2793 142.701L37.5993 132.561L55.5693 137.141L52.8293 147.811L33.2793 142.701Z" fill="#C8D419"/>
<path d="M36.3308 136.571L55.5108 140.001L57.4508 133.361L38.9508 128.611C38.9508 128.611 36.2308 136.751 36.3308 136.611" fill="#EC621D"/>
<path d="M226.569 136.6C219.569 121.3 210.489 103.75 200.999 86.35L164.449 106.94L196.739 78.6C180.509 49.31 165.739 21.39 156.139 6.91C154.543 4.48098 152.771 2.17153 150.839 0L113.389 0C110.076 5.52972 107.986 11.7049 107.259 18.11C106.259 25.68 105.159 39.39 104.679 56.29L130.389 61.11L104.559 61.48C104.239 77.58 104.479 96.14 105.759 114.88L146.759 114.64L106.379 122.74C108.849 152.09 109.259 185.62 119.039 205.5C143.409 255.05 189.819 253.21 189.819 253.21L190.349 255.12H195.709L194.959 252.41C207.413 243.76 218.14 232.86 226.589 220.27L226.569 136.6Z" fill="#A4C7BF"/>
<path d="M118.52 0C114.89 3.89 112.52 10 111.76 18.47C110.49 32.12 108.58 50.37 108.58 50.37L138.45 55.86L127.38 0H118.52Z" fill="#1C8145"/>
<path d="M131.1 0L140.36 34.22L158.79 21.11C158.79 21.11 153.18 7.19 144 0.48L143.33 0H131.1Z" fill="#00A13B"/>
<path d="M139.43 34.4998L142.91 47.0298L165.82 31.8798L159.1 21.0098L139.43 34.4998Z" fill="#39A188"/>
<path d="M142.568 46.4495L150.308 69.5795L178.878 54.0595L165.348 32.0195L142.568 46.4495Z" fill="#877D23"/>
<path d="M149.479 69.6608L155.999 92.1408L185.549 66.4708L177.839 54.5508L149.479 69.6608Z" fill="#C8D419"/>
<path d="M156 92.1395L160.4 105.829L191.46 79.0195L183.21 63.6895L156 92.1395Z" fill="#EFCD00"/>
<path d="M139.409 63.8105L144.879 85.7405L109.779 88.6506L108.189 66.7105L139.409 63.8105Z" fill="#0090CF"/>
<path d="M150.149 106.841L145.909 86.7109L110.859 88.8309L112.029 109.381L150.149 106.841Z" fill="#EC621D"/>
<path d="M146.329 94.7305L109.929 94.1705L108.789 81.2305L144.409 79.2305C144.409 79.2305 146.409 95.1205 146.329 94.7505" fill="#009998"/>
</g>
<defs>
<clipPath id="clip0_1901_34028">
<rect width="200" height="300" fill="white"/>
</clipPath>
</defs>
</svg>
