<svg xmlns="http://www.w3.org/2000/svg" xmlns:xlink="http://www.w3.org/1999/xlink" width="200" height="300" viewBox="0 0 200 300">
  <defs>
    <clipPath id="32-clip-path">
      <rect id="32-Rectangle_2" data-name="32-Rectangle 2" width="335" height="332" transform="translate(0 0.366)" fill="none"/>
    </clipPath>
    <clipPath id="32-clip-Kort_-_artikel_32">
      <rect width="200" height="300"/>
    </clipPath>
  </defs>
  <g id="32-Kort_-_artikel_32" data-name="32-Kort - artikel 32" clip-path="url(#32-clip-Kort_-_artikel_32)">
    <rect width="200" height="300" fill="#9a8584"/>
    <g id="32-Group_3" data-name="32-Group 3" transform="translate(-106.54 -39.361)">
      <rect id="32-Rectangle_1" data-name="32-Rectangle 1" width="335" height="332" transform="translate(28.54 7.361)" fill="#9a8584"/>
      <path id="32-Path_1" data-name="32-Path 1" d="M278.68,160.366,317.333,361.44H392.02V142.3l-82.607-.988Z" transform="translate(-28.018 -22.079)" fill="#ab1d78"/>
      <path id="32-Path_2" data-name="32-Path 2" d="M166.817,153.723,152.68,200.437l36.265,1.23,9.22,1.229,33.192,54.091,66.384,53.476L284.833,202.9l-15.367-15.367-2.458-31.348,11.678-7.376,2.459-37.494L245.494,115l-.833,7.44L206.77,132.824Z" transform="translate(-14.566 -19.739)" fill="#6caf81"/>
      <g id="32-Group_2" data-name="32-Group 2" transform="translate(28.54 6.995)">
        <g id="32-Group_1" data-name="32-Group 1" transform="translate(0 0)" clip-path="url(#32-clip-path)">
          <path id="32-Path_3" data-name="32-Path 3" d="M20.457,163.479c3-.594,126.58-6.168,126.58-6.168l5.395,11.878L136.847,207.2S121.2,385.9,121.2,384.121,13.564,371.513,13.564,371.513Z" transform="translate(-26.998 -23.376)" fill="#ebd200"/>
          <path id="32-Path_4" data-name="32-Path 4" d="M129.013,370.321c3.6-59.384,40.76-156.185,40.76-156.185l24.576-4.158,14.985,27.32,99.424,148.248Z" transform="translate(-38.645 -29.126)" fill="#276f34"/>
          <path id="32-Path_5" data-name="32-Path 5" d="M289.587,377.541,281.368,222.73l-8.19-11.934V187.881l.963-25.779h7.227l3.373,21.96h2.892l.962-22.438,5.3-.477,4.336,23.391h7.227l3.854,3.82L315.1,191.7l4.818,19.1-3.856,11.458,31.517,155.288Z" transform="translate(-53.19 -23.795)" fill="#9c8139"/>
          <path id="32-Path_6" data-name="32-Path 6" d="M372.673,370.063,238.844,253.2l-8.8-17.589-30.5-32.807-5.518,6.319,10.329,12.822-5.216,6.931,1.57,6.026-5.857,3.007-1.784,8.442-5.326,7.906,14.931,17.733,19.489,11.5,77.684,87.91Z" transform="translate(-44.571 -28.343)" fill="#e64d2d"/>
          <path id="32-Path_7" data-name="32-Path 7" d="M75.439,369.927l57.038-143.782-16.434-27.778,3.866-9.578,14.5,12.452,21.27-36.4,8.7,3.831-11.6,25.861,2.445,1.043,19.2-23.535,6.508,2.579-13.992,23.535,1.952.967,16.92-20.632,5.207,2.256L179.3,202.026l1.952.967,9.762-13.862,4.23,2.9-26.03,46.422L136.126,371.263Z" transform="translate(-33.241 -24.199)" fill="#de2218"/>
          <path id="32-Path_8" data-name="32-Path 8" d="M10.074,128.79l155.393,4.95,18.547-6.907,44.893-3.352-.317,8.35-16.384,2.387-.964,8.593-5.3,3.342,2.211,6.159-4.512,7.376-1.555,9.379-23.129,2.864-22.164-4.774L0,176.071Z" transform="translate(-25.63 -19.683)" fill="#e2b9af"/>
          <path id="32-Path_9" data-name="32-Path 9" d="M407.832,113.954l-90.588-5.242L295.458,84.819l-10.383.768,7.616,17.452-41.437,9.133,1.067,9.374,28.384-3.171.267,2.624-28.432,11.05.522,6.925,26.865-6.132.343,2.136-24.954,9.772.6,5.6,24.007-4.659.342,2.136-16.281,5.047,1.518,4.871,52.52-10.613,77.031,3.48Z" transform="translate(-50.978 -15.461)" fill="#120723"/>
          <path id="32-Path_10" data-name="32-Path 10" d="M241.581,186.672l-12.33,8.62,1.147,3.978,7.457-1.989-.573,25.573,4.588.569,4.015-13.639,3.155,13.923,4.588-.567-.86-26.71,7.745.568.573-2.273-11.639-8.392Z" transform="translate(-48.758 -26.545)" fill="#120723"/>
          <path id="32-Path_11" data-name="32-Path 11" d="M245.918,169.719c-4.323.306-7.339,3.044-7.047,7.588.272,4.225,4.289,6.678,7.353,6.678s7.047-1.822,7.353-6.678a6.906,6.906,0,0,0-7.659-7.588" transform="translate(-49.727 -24.729)" fill="#120723"/>
          <path id="32-Path_12" data-name="32-Path 12" d="M246.494,195.612c-2.8.2-4.749,1.97-4.56,4.911a4.849,4.849,0,0,0,4.758,4.322,4.545,4.545,0,0,0,4.759-4.322,4.47,4.47,0,0,0-4.957-4.911" transform="translate(-50.036 -27.556)" fill="#e64d2d"/>
          <path id="32-Path_13" data-name="32-Path 13" d="M246.881,197.429a2.813,2.813,0,0,0-2.88,3.1,3.062,3.062,0,0,0,3.007,2.73,2.871,2.871,0,0,0,3.006-2.73,2.825,2.825,0,0,0-3.132-3.1" transform="translate(-50.245 -27.755)" fill="#348f3e"/>
        </g>
      </g>
    </g>
  </g>
</svg>
