<svg width="200" height="300" viewBox="0 0 200 300" fill="none" xmlns="http://www.w3.org/2000/svg">
<g clip-path="url(#clip0_491_10958)">
<path d="M0 10C0 4.47716 4.47715 0 10 0H190C195.523 0 200 4.47715 200 10V290C200 295.523 195.523 300 190 300H10C4.47716 300 0 295.523 0 290V10Z" fill="#1F3537"/>
<path d="M212.108 0H0V67.1341H212.108V0Z" fill="#E75798"/>
<path d="M0 164.156L218.934 169.41V128.853L0 128.691V164.156Z" fill="#A9924D"/>
<path d="M0 158.994L218.934 164.054V123.352L0 123.479V158.994Z" fill="#0083C7"/>
<path d="M0 141.364L218.934 145.532V97.3269L0 102.242V141.364Z" fill="#12ACA3"/>
<path d="M0 114.915C8.68817 114.915 147.774 114.821 212.108 115.127V74.8584L0 81.3095V114.915Z" fill="#00A451"/>
<path d="M0 78.7207C5.03831 78.7207 150.717 76.9721 212.108 76.0893V45.9219L0 47.4498V78.7207Z" fill="#EA592E"/>
<path d="M0 95.9774C16.7611 95.8585 33.0317 95.7312 47.0408 95.5954C84.6951 95.2389 159.679 94.9927 212.108 94.8569V66.6078L0 65.8948V95.9774Z" fill="#E3D0D0"/>
<path d="M0 67.9489C12.9145 67.7396 27.2645 67.5245 43.0501 67.3038C94.7468 66.6078 163.08 66.5484 212.108 66.6332V54.1045C163.354 54.2403 95.7943 54.5374 47.2736 55.1825C31.1361 55.4032 15.0983 55.539 0 55.6154L0 67.9489Z" fill="#A9924D"/>
<path d="M44.2477 93.8494C30.8981 93.8494 24.2421 103.25 23.6866 112.996C23.0935 123.569 29.5801 134.142 43.7676 134.142C56.9478 134.142 63.9615 125.799 64.3193 114.015C64.5923 104.24 57.8045 93.8494 44.2477 93.8494Z" fill="#1F3537"/>
<path d="M57.7949 123.127L46.8836 112.621L46.4599 96.9154C50.4331 97.294 54.1112 99.2192 56.7317 102.292C59.3521 105.364 60.7138 109.349 60.5345 113.419C60.5125 116.853 59.5646 120.215 57.7949 123.136V123.127ZM46.7894 129.865V121.214L53.9067 127.231C51.7719 128.642 49.3511 129.539 46.8271 129.855L46.7894 129.865ZM40.9054 120.416V129.903C38.1641 129.609 35.5388 128.618 33.2703 127.019L40.9054 120.416ZM26.9721 112.621C27.3863 105.422 31.8299 98.4533 40.6418 97.05L40.3123 112.246L29.1845 122.54C27.473 119.53 26.6828 116.065 26.9156 112.592L26.9721 112.621ZM43.9557 91.5713C29.288 91.5713 21.9636 101.904 21.3611 112.621C20.7021 124.222 27.8382 135.833 43.4379 135.833C57.9832 135.833 65.6465 126.654 66.0325 113.726C66.362 103.009 58.8964 91.6194 43.9557 91.6194" fill="#12ACA3"/>
<path d="M104.34 58.4587C86.3488 58.4587 77.3674 71.1271 76.6237 84.2759C75.814 98.511 84.56 112.746 103.69 112.746C121.578 112.746 130.926 101.491 131.416 85.6024C131.82 72.4631 122.66 58.4587 104.34 58.4587Z" fill="#EB5B50"/>
<path d="M126.342 84.8334C126.316 89.4639 125.039 93.9973 122.651 97.9342L107.936 83.7665L107.362 62.6206C120.241 64.2161 126.652 74.8468 126.342 84.8622V84.8334ZM108.068 106.969L107.852 95.4352L117.351 103.471C114.55 105.326 111.379 106.521 108.068 106.969ZM99.4917 94.5701L100.207 107.123C96.3578 106.778 92.6624 105.417 89.4842 103.173L99.4917 94.5701ZM81.0395 83.7376C81.5855 74.0298 87.6296 64.6294 99.4729 62.7359L99.0304 83.2282L84.0991 97.1557C81.7802 93.0851 80.7141 88.3965 81.0395 83.6992V83.7376ZM104.02 55.3445C84.2498 55.3445 74.3552 69.2815 73.5362 83.728C72.5947 99.3856 82.2728 115.034 103.305 115.034C122.915 115.034 133.252 102.663 133.788 85.2371C134.231 70.8194 124.158 55.3925 104.02 55.3925" fill="#00A451"/>
<path d="M74.0064 29.0276C65.3169 29.0276 60.9768 35.1503 60.6191 41.5229C60.2237 48.3953 64.4508 55.2677 73.6957 55.2677C82.3099 55.2677 86.8759 49.8371 87.0925 42.1573C87.2808 35.8135 82.8654 29.0468 74.0064 29.0468" fill="#EDCA00"/>
<path d="M82.8465 48.059L75.7387 41.2154L75.4562 30.9885C78.0514 31.2307 80.4548 32.4865 82.165 34.494C83.8752 36.5015 84.7602 39.1057 84.6353 41.7633C84.6143 43.9894 83.9956 46.167 82.8465 48.059ZM75.5221 52.4515L75.588 46.7518L80.2952 50.7118C78.862 51.6631 77.2306 52.2589 75.5315 52.4515H75.5221ZM71.8317 46.3192L72.02 52.49C70.1462 52.3697 68.3457 51.7025 66.8326 50.5676L71.8317 46.3192ZM62.7468 41.2346C62.8077 38.7392 63.7378 36.3477 65.37 34.4893C67.0022 32.6309 69.2297 31.4272 71.6528 31.0942L71.4457 40.9943L64.2248 47.7226C63.1142 45.7569 62.5998 43.4989 62.7468 41.2346ZM73.8558 27.5378C64.2907 27.5378 59.527 34.2661 59.1222 41.2538C58.6985 48.8183 63.3493 56.3731 73.5074 56.3731C82.9784 56.3731 87.9774 50.3946 88.2316 41.9555C88.4481 34.9774 83.5809 27.5378 73.8558 27.5378Z" fill="#EA592E"/>
<path d="M150.705 134.69C136.97 134.69 130.116 144.369 129.542 154.403C128.92 165.274 135.604 176.145 150.253 176.145C163.867 176.145 171.05 167.552 171.417 155.422C171.728 145.388 164.733 134.69 150.705 134.69Z" fill="#12ACA3"/>
<path d="M164.328 165.947L153.087 155.124L152.654 138.957C156.742 139.35 160.526 141.332 163.223 144.494C165.92 147.655 167.323 151.753 167.143 155.941C167.121 159.478 166.144 162.941 164.319 165.947H164.328ZM152.598 172.896L152.673 163.727L160.271 170.138C157.963 171.665 155.333 172.611 152.598 172.896ZM146.733 163.285L147.119 172.896C144.197 172.626 141.394 171.586 138.985 169.878L146.733 163.285ZM132.545 155.124C132.959 147.714 137.535 140.534 146.61 139.092L146.29 154.749L134.889 165.322C133.124 162.223 132.311 158.653 132.555 155.076L132.545 155.124ZM150.094 133.421C135.031 133.421 127.452 144.061 126.821 155.095C126.143 167.052 133.487 179 149.557 179C164.526 179 172.415 169.552 172.83 156.21C173.168 145.176 165.477 133.421 150.094 133.421Z" fill="#0083C7"/>
</g>
<defs>
<clipPath id="clip0_491_10958">
<path d="M0 10C0 4.47716 4.47715 0 10 0H190C195.523 0 200 4.47715 200 10V290C200 295.523 195.523 300 190 300H10C4.47716 300 0 295.523 0 290V10Z" fill="white"/>
</clipPath>
</defs>
</svg>
