<svg xmlns="http://www.w3.org/2000/svg" xmlns:xlink="http://www.w3.org/1999/xlink" width="200" height="300" viewBox="0 0 200 300">
  <defs>
    <clipPath id="36-clip-path">
      <rect id="36-Rectangle_1" data-name="36-Rectangle 1" width="299.998" height="300" fill="none"/>
    </clipPath>
    <clipPath id="36-clip-Kort_-_artikel_36">
      <rect width="200" height="300"/>
    </clipPath>
  </defs>
  <g id="36-Kort_-_artikel_36" data-name="36-Kort - artikel 36" clip-path="url(#36-clip-Kort_-_artikel_36)">
    <rect width="200" height="300" fill="#3c2b43"/>
    <g id="36-Group_2" data-name="36-Group 2" transform="translate(-84.519 -144.878)">
      <g id="36-Group_1" data-name="36-Group 1" transform="translate(72.519 144.878)" clip-path="url(#36-clip-path)">
        <path id="36-Path_1" data-name="36-Path 1" d="M422.519,288.574c.13,26.514,2.425,132.25,1.857,157.562s-6.731,42.2-21.987,43.488-49.055,1.847-65.5.979c-14.564-.774-22.369-14.5-22.5-41.013s9.4-142.751,10.677-165.655,6.107-27.745,17.89-29.007,47.868-.237,58.973.914,20.467,8.624,20.586,32.732" transform="translate(-119.682 -166.224)" fill="#99823a"/>
        <path id="36-Path_2" data-name="36-Path 2" d="M273.191,300.09c6-8.462-4.878-236.02-16.481-260.507-6.264-13.226-93.271-13.823-100.36-.619-8.5,15.839,8.2,273.176,13.647,280.91s95.425-8.833,103.193-19.784" transform="translate(-88.403 -122.352)" fill="#e64d2d"/>
        <path id="36-Path_3" data-name="36-Path 3" d="M363.371,276.951c.135-21.919,2.467-109.341,1.893-130.271s-6.8-34.916-22.221-36.007-51.913,2.669-66.639,2.578-22.195,8.415-22.329,30.332,9.488,118.055,10.775,136.992,6.171,22.956,18.083,24.026,48.393.3,59.62-.629,20.7-7.091,20.818-27.021" transform="translate(-107.921 -138.169)" fill="#287241"/>
        <path id="36-Path_4" data-name="36-Path 4" d="M311.377,467.925c5.613-6.653,1.95-151.749-2.079-197.663-.666-7.572-.813-10.117-3.973-14.555s-5.3-4.564-12.572-5.961c-19.3-3.716-52.008-1.472-69.365,2.445-5.313,1.2-9,2.764-10.765,6.079s-2.063,5.214-2.1,14.691c-.19,50.174,16.144,194.111,20.741,198.764,5.465,5.533,74.57,2.767,80.111-3.8" transform="translate(-99.429 -164.957)" fill="#c27eb3"/>
        <path id="36-Path_5" data-name="36-Path 5" d="M171.79,296.523c.149-24.2,3.553-120.7,2.6-143.8s-10.763-38.564-34.952-39.812-77.782-1.947-103.853-1.239C12.495,112.3.15,124.788,0,148.984S15.222,279.329,17.291,300.24s9.745,25.358,28.435,26.572,75.89.467,93.494-.522,32.435-7.771,32.571-29.767" transform="translate(-75.279 -139.084)" fill="#7c0e6f"/>
        <path id="36-Path_6" data-name="36-Path 6" d="M277.816,434.288c1.953-36.258-11.262-105.712-103.593-115.082S61.768,365.8,60.61,420.08c-1.519,71.287,33.378,105.531,96.723,111.357,79.045,7.27,118-50.969,120.483-97.148" transform="translate(-70.188 -178.669)" fill="#3c2b43"/>
        <path id="36-Path_7" data-name="36-Path 7" d="M251.7,503.722c3.616-5.536-18.361-215.832-22.743-218.419s-79.858-1.186-79.235,76.486.126,108.207,24.251,120.3,74.4,26.727,77.728,21.628" transform="translate(-87.573 -172.132)" fill="#7ac0c2"/>
        <path id="36-Path_8" data-name="36-Path 8" d="M473.616,194.678c1.2,22.873-1.072,63.828-59.316,69.663s-77-26.633-77.691-60.873c-.9-44.961,21.135-66.529,61.09-70.154,49.864-4.525,74.388,32.237,75.916,61.364" transform="translate(-180.009 -198.979)" fill="#6aa331"/>
      </g>
    </g>
  </g>
</svg>
