<svg xmlns="http://www.w3.org/2000/svg" xmlns:xlink="http://www.w3.org/1999/xlink" width="200" height="300" viewBox="0 0 200 300">
  <defs>
    <clipPath id="13a-clip-path">
      <rect id="13a-Rectangle_3" data-name="13a-Rectangle 3" width="200" height="225.999" transform="translate(0 -26)" fill="none"/>
    </clipPath>
    <clipPath id="13a-clip-path-2">
      <path id="13a-Path_11" data-name="13a-Path 11" d="M167.4,368.3c-2.671,11.575,24.932,52.532,70.342,51.641,48.148-.944,70.343-42.737,67.671-50.751C302.012,358.989,170.072,356.729,167.4,368.3Z" transform="translate(-167.223 -360.539)" fill="#9d1d83"/>
    </clipPath>
    <clipPath id="13a-clip-Kort_-_artikel_X">
      <rect width="200" height="300"/>
    </clipPath>
  </defs>
  <g id="13a-Kort_-_artikel_X" data-name="13a-Kort - artikel X" clip-path="url(#13a-clip-Kort_-_artikel_X)">
    <rect width="200" height="300" fill="#ff571b"/>
    <g id="13a-Group_9" data-name="13a-Group 9" transform="translate(-112.005 -203.2)">
      <g id="13a-Group_4" data-name="13a-Group 4" transform="translate(112.005 229.2)" clip-path="url(#13a-clip-path)">
        <rect id="13a-Rectangle_1" data-name="13a-Rectangle 1" width="262.969" height="209.91" transform="translate(-29.438 14.448)" fill="#ff5700"/>
        <rect id="13a-Rectangle_2" data-name="13a-Rectangle 2" width="277.459" height="126.118" transform="translate(-38.73 -26.118)" fill="#15822e"/>
        <g id="13a-Group_3" data-name="13a-Group 3" transform="translate(-3.11 55.31)">
          <path id="13a-Path_1" data-name="13a-Path 1" d="M106.21,351.849s33.163-3.314,52.729-9.768c17.762-5.859,22.39-9.682,22.39-9.682s18.158,4.817,29.117,4.616c10.867-.2,25.765-4.755,25.765-4.755a80.94,80.94,0,0,0,23.15,10.685c15.059,4.375,53.948,8.867,53.948,8.867-30.047,27.981-29.893,27.857-49.348,45.919-11.1,10.307-27.367,31.105-53.788,31.688-27.432.6-47.415-21.076-57.347-31.609S106.21,351.849,106.21,351.849Z" transform="translate(-106.21 -332.26)" fill="#d01613"/>
          <g id="13a-Group_2" data-name="13a-Group 2" transform="translate(32.744 15.177)">
            <path id="13a-Path_2" data-name="13a-Path 2" d="M167.4,368.3c-2.671,11.575,24.932,52.532,70.342,51.641,48.148-.944,70.343-42.737,67.671-50.751C302.012,358.989,170.072,356.729,167.4,368.3Z" transform="translate(-167.223 -360.539)" fill="#9d1d83"/>
            <g id="13a-Group_1" data-name="13a-Group 1" clip-path="url(#13a-clip-path-2)">
              <path id="13a-Path_3" data-name="13a-Path 3" d="M243.619,341.75s.28,20.992.419,24.623c.144,3.721,1.444,4.8,4.051,5.167s15.641,1.217,17.5,1.117c2.607-.14,4.142.279,4.7-3.351.484-3.145.885-33.513.885-33.513Z" transform="translate(-202.619 -349.073)" fill="#d8cdc1"/>
              <path id="13a-Path_4" data-name="13a-Path 4" d="M326.872,343.232s-.279,20.992-.419,24.623c-.143,3.72-1.444,4.794-4.05,5.166s-15.643,1.217-17.5,1.117c-2.605-.139-4.141.28-4.7-3.352-.485-3.144-.886-33.512-.886-33.512Z" transform="translate(-228.425 -349.76)" fill="#d8cdc1"/>
              <path id="13a-Path_5" data-name="13a-Path 5" d="M394.427,339.259s-.239,17.95-.358,21.054c-.122,3.181-1.235,4.1-3.462,4.418s-13.377,1.041-14.965.955c-2.228-.119-3.542.239-4.019-2.865-.414-2.689-.757-28.655-.757-28.655Z" transform="translate(-261.576 -348.319)" fill="#d8cdc1"/>
              <path id="13a-Path_6" data-name="13a-Path 6" d="M177.119,339.9s.243,18.267.365,21.427c.125,3.237,1.257,4.172,3.524,4.5s13.612,1.059,15.23.972c2.268-.121,3.6.243,4.089-2.917.422-2.736.772-29.162.772-29.162Z" transform="translate(-171.808 -348.576)" fill="#d8cdc1"/>
              <path id="13a-Path_7" data-name="13a-Path 7" d="M324.484,472.306s-.328-17.657-.46-20.71c-.137-3.129-1.235-4.027-3.43-4.329s-13.163-.954-14.726-.863c-2.191.129-3.486-.217-3.939,2.84-.393,2.647-.6,28.194-.6,28.194Z" transform="translate(-229.359 -400.319)" fill="#d8cdc1"/>
              <path id="13a-Path_8" data-name="13a-Path 8" d="M253.642,472.913s.142-17.659.244-20.713c.1-3.131,1.194-4.04,3.383-4.365s13.155-1.091,14.718-1.016c2.192.106,3.481-.253,3.967,2.8.422,2.643.893,28.186.893,28.186Z" transform="translate(-207.263 -400.513)" fill="#d8cdc1"/>
              <path id="13a-Path_9" data-name="13a-Path 9" d="M205.671,463.026s3.026-14.794,3.613-17.34c.6-2.61,1.667-3.193,3.557-3.1s11.218,1.247,12.516,1.568c1.823.45,2.965.362,2.87,3-.083,2.286-3.89,23.8-3.89,23.8Z" transform="translate(-185.037 -398.548)" fill="#d8cdc1"/>
              <path id="13a-Path_10" data-name="13a-Path 10" d="M371.418,463.992s-3.343-15-3.987-17.58c-.661-2.644-1.753-3.218-3.675-3.1s-11.391,1.472-12.708,1.821c-1.847.491-3.009.421-2.865,3.106.124,2.325,4.385,24.144,4.385,24.144Z" transform="translate(-251.061 -398.885)" fill="#d8cdc1"/>
            </g>
          </g>
        </g>
      </g>
    </g>
  </g>
</svg>
