<svg xmlns="http://www.w3.org/2000/svg" xmlns:xlink="http://www.w3.org/1999/xlink" width="200" height="300" viewBox="0 0 200 300">
  <defs>
    <clipPath id="14a-clip-Kortform">
      <rect width="200" height="300"/>
    </clipPath>
  </defs>
  <g id="14a-Kortform" clip-path="url(#14a-clip-Kortform)">
    <rect width="200" height="300" fill="#1a1b21"/>
    <path id="14a-Path_1" data-name="14a-Path 1" d="M76.356,48.241c-11.6,16.873-19.392,57.983,3.042,96.016,13.676,23.186,79.25,17.2,94.3,5.622s10.421-38.476,19.676-38.771c7.592-.243,16.795,13.05,33.156,20.889,11.3,5.413,32.325,13.549,33.4,11.93,1.364-2.046-16.151-6.637-29.313-16.7-23.176-17.725-36.906-46.074-41.678-60.39-5.069-15.213-12.922-29.8-31.441-32.118S89.085,29.723,76.356,48.241" transform="translate(-60.997 5.819)" fill="#6ec5a5"/>
    <path id="14a-Path_2" data-name="14a-Path 2" d="M82.6,99.475c0,4.477-.52,22.33-.316,26.6S84.324,133.2,88.8,133.4s14.389.272,19.209.113c4.273-.143,6.542-2.469,6.542-6.945s-2.965-24.092-3.371-27.956-1.831-4.68-5.29-4.884-14.037,0-17.293.2S82.6,95.406,82.6,99.475" transform="translate(-57.973 16.475)" fill="#296278"/>
    <path id="14a-Path_3" data-name="14a-Path 3" d="M87.023,102.785c0,3.334-.33,16.629-.2,19.812s1.3,5.3,4.151,5.453,9.6-.452,12.325-.452,4.095-1.3,4.095-4.634-1.89-17.943-2.151-20.822-1.168-3.484-3.371-3.637-8.95,0-11.025.153-3.823,1.1-3.823,4.128" transform="translate(-57.172 17.318)" fill="#3285bb"/>
    <path id="14a-Path_4" data-name="14a-Path 4" d="M110.9,93.565c-1.2,1.442.14,37.621.991,39.068,1.607,2.732,15.895,1.421,17.522,0s-2.683-38.84-3.7-39.856-13.8-.428-14.813.791" transform="translate(-53.015 16.23)" fill="#b770b5"/>
    <path id="14a-Path_5" data-name="14a-Path 5" d="M114.871,97.544c-.415,1.262.9,30.128,1.645,31.174.937,1.315,6.692.535,7.274-.721S121.8,98.007,121.36,97.15s-6.137-.675-6.489.394" transform="translate(-52.246 16.996)" fill="#1b9080"/>
    <path id="14a-Path_6" data-name="14a-Path 6" d="M128.253,112.127c-.319,6.71.407,18.72,17.5,20.345s22.544-7.921,22.7-17.963c.2-13.189-6.295-19.482-18.018-20.487-14.633-1.255-21.772,9.561-22.179,18.106" transform="translate(-49.887 16.523)" fill="#469423"/>
    <path id="14a-Path_7" data-name="14a-Path 7" d="M140.964,110.5c-.086,1.785.109,4.981,4.657,5.414s6-2.108,6.038-4.779c.054-3.509-1.676-5.185-4.794-5.452a5.162,5.162,0,0,0-5.9,4.817" transform="translate(-47.644 18.589)" fill="#937b32"/>
    <path id="14a-Path_8" data-name="14a-Path 8" d="M143.161,110.108a2.358,2.358,0,0,0,2.4,2.787c2.342.226,3.09-1.084,3.111-2.462a2.437,2.437,0,0,0-2.471-2.807,2.658,2.658,0,0,0-3.039,2.482" transform="translate(-47.256 18.932)" fill="#288ebf"/>
    <path id="14a-Path_9" data-name="14a-Path 9" d="M79.779,49.79c-1.1,1.572,1.172,43.653,3.346,48.168,1.174,2.439,17.268,2.451,18.566,0,1.555-2.939-1.351-48.2-2.949-50.6-.971-1.458-17.538.394-18.962,2.427" transform="translate(-58.456 8.241)" fill="#299580"/>
    <path id="14a-Path_10" data-name="14a-Path 10" d="M83.123,52.961c-.609,1.075,1.415,36.4,2.613,39.479.649,1.665,9.52,1.673,10.235,0,.857-2.008-1.373-39.429-2.676-41.093-.694-.888-9.387.225-10.172,1.613" transform="translate(-57.837 8.977)" fill="#937b32"/>
    <path id="14a-Path_11" data-name="14a-Path 11" d="M98.9,48.711c-.661,1.326,3.727,49.027,4.54,49.637s15.6.21,15.4-18.3-.406-27.465-4.881-30.314S99.513,47.491,98.9,48.711" transform="translate(-55.054 8.39)" fill="#f5dc01"/>
    <path id="14a-Path_12" data-name="14a-Path 12" d="M144.195,100.822c21.971,0,25.635-16.277,25.837-27.264s-4.07-22.991-23.8-23.8S118.2,61.677,118.15,73.152c-.062,13.317,4.07,27.671,26.044,27.671" transform="translate(-51.655 8.747)" fill="#d8e7c2"/>
    <path id="14a-Path_13" data-name="14a-Path 13" d="M142.8,92.307c15.736,0,18.36-11.657,18.507-19.525s-2.917-16.463-17.05-17.046-20.068,8.536-20.11,16.756c-.045,9.537,2.915,19.816,18.653,19.816" transform="translate(-50.6 9.801)" fill="#2d2b3d"/>
    <path id="14a-Path_14" data-name="14a-Path 14" d="M141.762,85.866c10.48,0,12.23-7.762,12.325-13s-1.94-10.966-11.355-11.354-13.367,5.687-13.393,11.162c-.031,6.35,1.94,13.2,12.422,13.2" transform="translate(-49.687 10.818)" fill="#fc2d22"/>
  </g>
</svg>
