<svg width="200" height="300" viewBox="0 0 200 300" fill="none" xmlns="http://www.w3.org/2000/svg">
<g clip-path="url(#clip0_1031:24965)">
<path d="M0 10C0 4.47716 4.47715 0 10 0H190C195.523 0 200 4.47715 200 10V290C200 295.523 195.523 300 190 300H10C4.47716 300 0 295.523 0 290V10Z" fill="#827F32"/>
<path d="M101.614 67.3103C83.7599 66.4063 59.0089 54.2026 33.9868 68.7928C2.56444 87.1255 4.15545 125.102 22.6599 176.366C40.2694 225.181 60.4644 222.93 73.9065 222.243C85.5227 221.647 91.5974 216.584 99.5253 216.584C107.453 216.584 110.247 221.945 122.17 222.84C142.058 224.332 158.971 211.088 172.712 177.135C185.322 145.975 199.93 100.396 175.197 76.8563C147.771 50.7584 113.826 67.925 101.614 67.3284" fill="#006028"/>
<path d="M98.3954 92.215C86.725 91.9347 64.8668 71.767 39.4198 87.3877C13.9727 103.008 21.7741 133.97 44.5092 160.945C66.4668 186.979 91.5161 208.955 97.5004 208.955C103.485 208.955 131.626 185.659 149.931 162.373C166.592 141.129 188.079 113.694 162.587 92.3867C139.273 72.8788 110.075 92.4952 98.4044 92.215" fill="#00A03B"/>
<path d="M98.4764 74.4337C97.2289 70.6912 88.6592 51.8342 85.4591 45.8679C82.259 39.9016 92.0852 32.8415 96.1983 42.2068C100.311 51.572 103.096 67.3917 104.642 73.9726C105.545 77.8597 99.8504 78.5468 98.4764 74.4337" fill="#334536"/>
<path d="M101.189 99.6999C91.7423 99.2388 78.6526 92.7664 65.4093 100.495C48.7851 110.186 49.6439 130.327 59.425 157.392C68.736 183.228 79.421 182.025 86.5444 181.664C92.7005 181.347 95.9096 178.672 100.104 178.672C104.299 178.672 105.772 181.51 112.082 181.98C122.622 182.767 131.544 175.77 138.822 157.799C145.493 141.31 153.213 117.201 140.132 104.744C125.669 90.9403 107.67 100.016 101.207 99.6999" fill="#81B73C"/>
<path d="M100.565 118.476C94.7435 118.34 83.8505 108.279 71.1677 116.071C58.4849 123.863 62.3539 139.294 73.6988 152.745C84.646 165.727 97.139 176.683 100.122 176.683C103.105 176.683 117.135 165.067 126.238 153.46C134.546 142.865 145.222 129.188 132.566 118.566C120.941 108.839 106.351 118.62 100.556 118.476" fill="#DBD9D2"/>
<path d="M100.963 123.89C96.5332 123.673 90.3952 120.636 84.1849 124.261C76.3926 128.781 76.7903 138.227 81.3735 150.946C85.7487 163.06 90.7568 162.499 94.0925 162.328C96.9762 162.183 98.4768 160.926 100.42 160.926C102.364 160.926 103.078 162.255 106.034 162.481C110.979 162.852 115.164 159.561 118.572 151.136C121.709 143.407 125.325 132.098 119.196 126.259C112.389 119.777 103.964 124.035 100.936 123.89" fill="#E73446"/>
<path d="M100.519 130.842C98.1058 130.779 93.5949 126.593 88.3247 129.82C83.0545 133.048 84.6546 139.448 89.3462 145.034C93.8661 150.458 99.055 154.978 100.284 154.978C101.514 154.978 107.354 150.178 111.132 145.36C114.585 140.975 119.051 135.307 113.79 130.896C108.981 126.846 102.942 130.896 100.51 130.833" fill="#CD2285"/>
<path d="M104.732 76.3229C102.336 74.2709 101.948 51.2284 117.559 32.8325C129.112 19.2185 152.39 6.94248 157.705 11.0827C162.731 14.9879 158.266 35.6167 145.438 51.7618C131.155 69.7781 108.637 79.6405 104.759 76.2958" fill="#334536"/>
<path d="M129.52 24.8142C124.44 30.5545 124.729 37.9129 130.27 43.2011C135.812 48.4894 142.863 47.721 148.413 42.6949C153.963 37.6688 155.211 28.8459 148.657 23.8017C142.103 18.7575 135.314 18.2603 129.52 24.8142" fill="#CD2285"/>
<path d="M111.928 46.148C108.312 50.2069 108.538 55.4229 112.461 59.1653C116.385 62.9078 121.375 62.3745 125.298 58.8038C129.221 55.233 130.107 49.0046 125.479 45.4339C120.85 41.8632 116.032 41.5106 111.919 46.148" fill="#E73446"/>
<path d="M131.472 49.9901C131.058 50.4142 130.735 50.9184 130.522 51.4718C130.31 52.0252 130.212 52.6161 130.236 53.2085C130.26 53.8009 130.404 54.3822 130.66 54.9168C130.916 55.4515 131.279 55.9282 131.725 56.3179C133.642 58.1259 136.074 57.8728 137.981 56.1371C139.888 54.4015 140.322 51.3641 138.071 49.6285C135.82 47.8928 133.461 47.712 131.472 49.972" fill="#00A03B"/>
<path d="M108.556 63.7486C108.057 64.2576 107.667 64.8636 107.411 65.5292C107.155 66.1948 107.038 66.9058 107.068 67.6183C107.098 68.3308 107.273 69.0296 107.583 69.6716C107.894 70.3137 108.333 70.8852 108.873 71.351C111.16 73.5477 114.079 73.2313 116.367 71.1431C118.654 69.0549 119.187 65.4209 116.475 63.3327C113.763 61.2445 110.952 61.0366 108.556 63.7486" fill="#006028"/>
<path d="M148.042 15.1595C147.66 15.5487 147.362 16.0122 147.167 16.5212C146.971 17.0302 146.882 17.5739 146.905 18.1187C146.928 18.6635 147.062 19.1978 147.3 19.6886C147.537 20.1794 147.873 20.6162 148.286 20.9721C150.031 22.6445 152.264 22.4094 154.018 20.8094C155.771 19.2093 156.16 16.4341 154.09 14.8431C152.02 13.2521 149.877 13.0984 148.042 15.1595" fill="#827F32"/>
</g>
<defs>
<clipPath id="clip0_1031:24965">
<path d="M0 10C0 4.47716 4.47715 0 10 0H190C195.523 0 200 4.47715 200 10V290C200 295.523 195.523 300 190 300H10C4.47716 300 0 295.523 0 290V10Z" fill="white"/>
</clipPath>
</defs>
</svg>
