<svg width="200" height="300" viewBox="0 0 200 300" fill="none" xmlns="http://www.w3.org/2000/svg">
<g clip-path="url(#clip0_1901_34016)">
<rect width="200" height="300" fill="#FDD200"/>
<path d="M122.454 8.64465L13.5449 111.789L116.689 220.698L225.599 117.554L122.454 8.64465Z" fill="#FDD200"/>
<path d="M59.8183 47.1047C75.255 45.0869 94.1366 10.756 126.398 15.0439C162.165 19.7931 187.649 54.8684 168.465 128.037C158.12 167.508 131.095 214.815 115.603 219.922C104.116 223.707 65.9774 209.023 26.954 183.126C-15.9264 154.669 -50.2808 109.878 -18.1498 68.3033C6.03945 37.0283 51.9753 48.1102 59.8183 47.1047" fill="#0081C7"/>
<path d="M68.0919 72.3448C79.3458 70.7249 103.963 29.6743 133.274 44.0935C149.43 52.0448 161.288 87.7063 146.083 124.953C132.843 157.399 114.616 186.016 105.282 190.167C98.3006 193.28 39.6011 166.677 18.6252 145.239C-4.99732 121.091 -12.6695 94.2369 6.96219 77.6043C22.5788 64.3774 49.2993 75.0949 68.0959 72.349" fill="#00A23A"/>
<path d="M68.0919 72.3448C79.3458 70.7249 103.963 29.6743 133.274 44.0935C149.43 52.0448 161.288 87.7063 146.083 124.953C132.843 157.399 114.616 186.016 105.282 190.167C98.3006 193.28 39.6011 166.677 18.6252 145.239C-4.99732 121.091 -12.6695 94.2369 6.96219 77.6043C22.5788 64.3774 49.2993 75.0949 68.0959 72.349L68.0919 72.3448Z" stroke="#A9924D" stroke-width="0.69" stroke-miterlimit="10"/>
<path d="M73.9619 96.9645C80.7237 95.973 98.9737 62.7121 116.499 70.8442C128.603 76.4467 128.975 94.4763 120.376 117.354C110.825 142.766 97.0561 159.756 93.6842 160.609C89.224 161.712 65.7987 152.399 51.9032 141.342C33.7957 126.919 23.6658 114.505 30.5209 103.592C41.4584 86.188 62.6357 98.5975 73.9619 96.9645Z" fill="#E63812"/>
<path d="M201.302 187.396C201.302 187.396 172.16 152.204 161.104 146.234C154.103 142.45 151.161 141.883 142.998 138.276C134.634 134.575 129.995 128.975 115.899 121.891C108.566 118.21 104.977 117.576 104.052 115.65C102.654 112.746 107.083 108.511 115.482 110.308C123.881 112.104 132.925 119.105 138.231 111.821C142.072 106.563 138.822 98.0437 136.714 90.6449C134.383 82.4538 130.141 67.8925 129.544 63.9788C128.948 60.0652 125.915 52.741 130.361 50.7572C134.808 48.7733 136.864 54.9978 138.573 60.385C140.155 65.3654 141.235 69.3962 143.79 76.8571C145.802 82.7268 145.797 85.1933 147.083 84.883C148.368 84.5727 145.901 79.2313 144.911 74.9534C143.368 68.1939 141.324 61.8533 140.058 57.1727C138.618 51.8468 134.764 42.7492 140.027 41.1494C145.06 39.6225 147.711 48.6042 149.641 54.2761C151.571 59.9481 153.93 67.7156 155.318 72.3372C157.012 77.957 157.625 81.4509 159.023 81.2602C160.272 81.082 158.491 77.7143 157.055 71.7854C155.492 65.1668 153.625 59.5173 152.076 54.3507C150.528 49.1841 148.402 42.6374 153.243 41.2592C157.339 40.0935 159.5 45.959 161.316 51.6985C162.982 56.9557 165.425 63.1948 167.228 69.3916C168.407 73.4584 169.439 78.6359 170.826 77.9623C171.765 77.5261 170.217 72.3512 169.239 67.9322C168.261 63.5132 167.308 59.7354 166.321 55.3078C165.335 50.8802 164.277 46.9831 168.135 45.5323C172.123 44.0144 173.896 49.7944 175.884 55.1518C177.958 60.7112 182.606 77.043 187.703 90.3007C191.179 99.3506 193.374 103.695 195.94 111.655C198.953 120.95 200.02 125.746 208.336 134.74C211.928 138.627 231.128 156.403 231.128 156.403L201.302 187.396Z" fill="#673B56"/>
<path d="M164.385 104.047C165.598 103.444 169.018 97.2187 171.642 97.7841C174.502 98.3952 175.158 102.037 174.527 106.881C173.823 112.331 171.752 116.482 171.112 116.795C170.284 117.18 166.783 116.778 161.915 114.115C157.819 111.877 155.008 109.356 155.886 106.963C157.313 103.171 163.147 104.675 164.355 104.075" fill="#E6007E"/>
</g>
<defs>
<clipPath id="clip0_1901_34016">
<rect width="200" height="300" fill="white"/>
</clipPath>
</defs>
</svg>
