<svg xmlns="http://www.w3.org/2000/svg" xmlns:xlink="http://www.w3.org/1999/xlink" width="200" height="300" viewBox="0 0 200 300">
  <defs>
    <clipPath id="6b-clip-path">
      <path id="6b-Path_9" data-name="6b-Path 9" d="M21.9,169.865,47.581,155.49l-1.973-9.7-11.926-6.522L9.231,135.392Z" fill="none"/>
    </clipPath>
    <clipPath id="6b-clip-path-2">
      <path id="6b-Path_12" data-name="6b-Path 12" d="M25.041,170.061l-4.018,12.812,12.031,22.783,24.74-14.84s-2.035-21.5-1.978-21.659-7.88-9.569-7.88-9.569Z" fill="none"/>
    </clipPath>
    <clipPath id="6b-clip-path-3">
      <path id="6b-Path_16" data-name="6b-Path 16" d="M47.15,121.7,44.893,146.75l7.609,5.695,32.56-12.65L58.3,106.728Z" fill="none"/>
    </clipPath>
    <clipPath id="6b-clip-path-4">
      <path id="6b-Path_19" data-name="6b-Path 19" d="M52.167,155.814s1.89,14.041,2.05,14.1,21.757,14.06,21.757,14.06l20.9-8.477L89.677,157.91,71.5,139.292s-19.066,16.8-19.329,16.522" fill="none"/>
    </clipPath>
    <clipPath id="6b-clip-path-5">
      <path id="6b-Path_29" data-name="6b-Path 29" d="M223.471,125.06l-4.869,5.8.939,5.434,16.243,2.261-.407-20.46Z" fill="none"/>
    </clipPath>
    <clipPath id="6b-clip-path-6">
      <path id="6b-Path_32" data-name="6b-Path 32" d="M218.035,145.056c.061.072,3.36,11.643,3.36,11.643l15.846,2.694,1.632-14.264-4.68-5.837-14-.8s-2.215,6.491-2.153,6.562" fill="none"/>
    </clipPath>
    <clipPath id="6b-clip-path-7">
      <path id="6b-Path_36" data-name="6b-Path 36" d="M196.908,135.738l19.462-.029,2.795-4.494-6.243-12.547-8.819-5.515Z" fill="none"/>
    </clipPath>
    <clipPath id="6b-clip-path-8">
      <path id="6b-Path_39" data-name="6b-Path 39" d="M198.181,146.076l-.172,10.584,12.563.169s8.373-11.643,8.446-11.705-1.792-7.733-1.792-7.733c-.08.2-13.381-4.663-13.381-4.663Z" fill="none"/>
    </clipPath>
    <clipPath id="6b-clip-path-9">
      <path id="6b-Path_29-2" data-name="6b-Path 29" d="M227.366,130.632l-8.764,10.44,1.69,9.781,29.237,4.07-.733-36.827Z" transform="translate(-218.602 -118.095)" fill="none"/>
    </clipPath>
    <clipPath id="6b-clip-path-10">
      <path id="6b-Path_32-2" data-name="6b-Path 32" d="M218.036,150.305c.11.13,6.048,20.957,6.048,20.957l28.522,4.849,2.938-25.675L247.12,139.93l-25.208-1.436s-3.987,11.684-3.875,11.811" transform="translate(-218.034 -138.494)" fill="none"/>
    </clipPath>
    <clipPath id="6b-clip-path-11">
      <path id="6b-Path_36-2" data-name="6b-Path 36" d="M196.908,153.805l35.031-.052,5.031-8.089L225.733,123.08l-15.874-9.927Z" transform="translate(-196.908 -113.153)" fill="none"/>
    </clipPath>
    <clipPath id="6b-clip-path-12">
      <path id="6b-Path_39-2" data-name="6b-Path 39" d="M198.319,156.754l-.31,19.051,22.613.3s15.071-20.957,15.2-21.068-3.226-13.919-3.226-13.919c-.144.356-24.085-8.393-24.085-8.393Z" transform="translate(-198.009 -132.728)" fill="none"/>
    </clipPath>
    <clipPath id="6b-clip-Artboard_1">
      <rect width="200" height="300"/>
    </clipPath>
  </defs>
  <g id="6b-Artboard_1" data-name="6b-Artboard – 1" clip-path="url(#6b-clip-Artboard_1)">
    <rect width="200" height="300" fill="#cfddbf"/>
    <g id="6b-fjäril_vänster" data-name="6b-fjäril vänster" transform="translate(-4.231 -90.263)">
      <path id="6b-Path_7" data-name="6b-Path 7" d="M45.608,145.79l-11.926-6.522-24.45-3.876L21.9,169.866l25.681-14.375Z" fill="#d8ab9f"/>
      <g id="6b-Group_2" data-name="6b-Group 2">
        <g id="6b-Group_1" data-name="6b-Group 1" clip-path="url(#6b-clip-path)">
          <path id="6b-Path_8" data-name="6b-Path 8" d="M15.133,148.643c6.7-4.377,20.736-6.354,26.614,5.286s-.482,21.118-6.433,24.17c-8.384,4.308-18.73,3.729-24.868-5.28a17.281,17.281,0,0,1,4.687-24.176" fill="#fcb39a"/>
        </g>
      </g>
      <path id="6b-Path_10" data-name="6b-Path 10" d="M47.936,159.589l-22.9,10.473-4.018,12.812,12.031,22.783,24.739-14.84s-2.035-21.5-1.977-21.66-7.88-9.568-7.88-9.568" fill="#e4af03"/>
      <g id="6b-Group_4" data-name="6b-Group 4">
        <g id="6b-Group_3" data-name="6b-Group 3" clip-path="url(#6b-clip-path-2)">
          <path id="6b-Path_11" data-name="6b-Path 11" d="M34.514,156.585c5.822-3.806,19.358-4.318,24.466,5.8s-1.753,17.148-6.924,19.8c-7.288,3.741-16.282,3.24-21.618-4.594a15.02,15.02,0,0,1,4.076-21.012" fill="#fb4e47"/>
        </g>
      </g>
      <path id="6b-Path_13" data-name="6b-Path 13" d="M27.452,152.863l10.477,19.768,14.034-6.121-5.607-14.1Z" fill="#99b07a"/>
      <path id="6b-Path_14" data-name="6b-Path 14" d="M44.893,146.75,47.15,121.7,58.3,106.728,85.061,139.8,52.5,152.445Z" fill="#58967c"/>
      <g id="6b-Group_6" data-name="6b-Group 6">
        <g id="6b-Group_5" data-name="6b-Group 5" clip-path="url(#6b-clip-path-3)">
          <path id="6b-Path_15" data-name="6b-Path 15" d="M49.95,117.68c-5.21,1.634-12.336,8.182-8.745,16.323s11.346,8.9,15.536,7.082c5.9-2.556,10.081-8.261,7.99-15.4a11.793,11.793,0,0,0-14.781-8" fill="#c8dadf"/>
        </g>
      </g>
      <path id="6b-Path_17" data-name="6b-Path 17" d="M52.167,155.815c.264.277,19.329-16.523,19.329-16.523l18.181,18.619L96.87,175.5l-20.9,8.478s-21.6-14-21.757-14.061-2.05-14.1-2.05-14.1" fill="#917d31"/>
      <g id="6b-Group_8" data-name="6b-Group 8">
        <g id="6b-Group_7" data-name="6b-Group 7" clip-path="url(#6b-clip-path-4)">
          <path id="6b-Path_18" data-name="6b-Path 18" d="M80.033,145.826c-6.636,2.082-15.626,12.216-11.049,22.587s14.363,9.531,19.7,7.221c7.518-3.256,12.839-10.523,10.175-19.618a15.02,15.02,0,0,0-18.823-10.19" fill="#fc1a1d"/>
        </g>
      </g>
      <path id="6b-Path_20" data-name="6b-Path 20" d="M57.54,130.874l10.7,17.513-.928,11.069-14.84,5-7.319-15.29Z" fill="#fe4d11"/>
      <path id="6b-Path_21" data-name="6b-Path 21" d="M40.457,138.57c.954-.623,2.957-.9,3.795.755a2.507,2.507,0,0,1-.918,3.446,2.638,2.638,0,0,1-3.545-.752,2.466,2.466,0,0,1,.668-3.449" fill="#090e10"/>
      <path id="6b-Path_22" data-name="6b-Path 22" d="M41.458,140.86a16.822,16.822,0,0,1,3.191,8.023c.727,4.6.26,7.961,3.462,15.5s11.555,14.31,12.854,13.51c.933-.575,1.418-9.8-3.626-18.153-3.7-6.135-7.825-8.812-10.6-12.208a35.977,35.977,0,0,1-4.4-7.091Z" fill="#090e10"/>
      <path id="6b-Path_23" data-name="6b-Path 23" d="M43.249,140.376a35.325,35.325,0,0,1-1.268-6.053,46.866,46.866,0,0,1,.1-8.227l-.345.023a49.361,49.361,0,0,0-.2,8.591,43,43,0,0,0,1.009,5.806Z" fill="#090e10"/>
      <path id="6b-Path_24" data-name="6b-Path 24" d="M41.621,124.374a1.648,1.648,0,0,0-1.149,2.144,1.579,1.579,0,0,0,2.042.93,1.657,1.657,0,0,0,1.049-2.024,1.546,1.546,0,0,0-1.942-1.05" fill="#090e10"/>
      <path id="6b-Path_25" data-name="6b-Path 25" d="M41.187,141.352a35.476,35.476,0,0,0-3.874-4.826,47.022,47.022,0,0,0-6.423-5.139l.238-.253a49.557,49.557,0,0,1,6.763,5.3,42.982,42.982,0,0,1,3.843,4.465Z" fill="#090e10"/>
      <path id="6b-Path_26" data-name="6b-Path 26" d="M29.854,129.936a1.65,1.65,0,0,1,2.387.471,1.579,1.579,0,0,1-.577,2.168,1.66,1.66,0,0,1-2.231-.471,1.549,1.549,0,0,1,.421-2.168" fill="#090e10"/>
    </g>
    <g id="6b-fjäril_höger" data-name="6b-fjäril höger" transform="translate(-48.052 -54.263)">
      <path id="6b-Path_27" data-name="6b-Path 27" d="M218.6,130.86l4.869-5.8,11.906-6.964.407,20.46-16.242-2.26Z" fill="#d8ab9f"/>
      <g id="6b-Group_10" data-name="6b-Group 10">
        <g id="6b-Group_9" data-name="6b-Group 9" clip-path="url(#6b-clip-path-5)">
          <path id="6b-Path_28" data-name="6b-Path 28" d="M235,126.17c-4.363-.916-12.051.9-12.744,8.134s4.527,10.862,8.235,11.243c5.224.536,10.476-1.858,11.838-7.778A9.626,9.626,0,0,0,235,126.17" fill="#fcb39a"/>
        </g>
      </g>
      <path id="6b-Path_30" data-name="6b-Path 30" d="M220.188,138.494l14,.8,4.682,5.837-1.633,14.264L221.4,156.7s-3.3-11.572-3.36-11.644,2.153-6.562,2.153-6.562" fill="#e4af03"/>
      <g id="6b-Group_12" data-name="6b-Group 12">
        <g id="6b-Group_11" data-name="6b-Group 11" clip-path="url(#6b-clip-path-6)">
          <path id="6b-Path_31" data-name="6b-Path 31" d="M226.547,134.218c-3.794-.8-10.923,1.678-11.525,7.964s4.382,8.547,7.6,8.877c4.541.468,9.108-1.614,10.292-6.76a8.367,8.367,0,0,0-6.371-10.081" fill="#fb4e47"/>
        </g>
      </g>
      <path id="6b-Path_33" data-name="6b-Path 33" d="M229.458,130.856l-1.434,12.382L219.5,142.9l.057-8.454Z" fill="#99b07a"/>
      <path id="6b-Path_34" data-name="6b-Path 34" d="M219.166,131.215l-6.243-12.546-8.819-5.515-7.195,22.584,19.461-.028Z" fill="#58967c"/>
      <g id="6b-Group_14" data-name="6b-Group 14">
        <g id="6b-Group_13" data-name="6b-Group 13" clip-path="url(#6b-clip-path-7)">
          <path id="6b-Path_35" data-name="6b-Path 35" d="M210.654,117.148c3.036-.206,8.062,1.748,7.846,6.7s-4.089,6.916-6.629,6.822c-3.582-.132-6.906-2.247-7.267-6.377a6.571,6.571,0,0,1,6.05-7.147" fill="#c8dadf"/>
        </g>
      </g>
      <path id="6b-Path_37" data-name="6b-Path 37" d="M217.226,137.392c-.08.2-13.38-4.663-13.38-4.663l-5.665,13.348-.172,10.584,12.563.169s8.373-11.643,8.446-11.706-1.792-7.732-1.792-7.732" fill="#917d31"/>
      <g id="6b-Group_16" data-name="6b-Group 16">
        <g id="6b-Group_15" data-name="6b-Group 15" clip-path="url(#6b-clip-path-8)">
          <path id="6b-Path_38" data-name="6b-Path 38" d="M200.74,137.851c3.866-.263,10.584,3.177,10.309,9.486s-5.524,7.856-8.762,7.736c-4.561-.167-8.794-2.861-9.254-8.121a8.368,8.368,0,0,1,7.707-9.1" fill="#fc1a1d"/>
        </g>
      </g>
      <path id="6b-Path_40" data-name="6b-Path 40" d="M209.386,125.534l-2.008,11.258,2.724,5.557,8.717-.409.7-9.419Z" fill="#fe4d11"/>
      <path id="6b-Path_41" data-name="6b-Path 41" d="M219.813,126.069a1.462,1.462,0,0,0-1.816,1.16,1.4,1.4,0,0,0,1.174,1.6,1.468,1.468,0,0,0,1.687-1.109,1.374,1.374,0,0,0-1.045-1.654" fill="#090e10"/>
      <path id="6b-Path_42" data-name="6b-Path 42" d="M219.757,127.461a9.384,9.384,0,0,0-.03,4.811c.554,2.536,1.475,4.184,1.339,8.745s-3.1,9.768-3.936,9.616c-.6-.108-2.72-4.8-1.791-10.156.679-3.935,2.275-6.161,3.027-8.483a20.073,20.073,0,0,0,.845-4.573Z" fill="#090e10"/>
      <path id="6b-Path_43" data-name="6b-Path 43" d="M218.729,127.572a19.747,19.747,0,0,0-.566-3.4,26.123,26.123,0,0,0-1.72-4.249l.184-.058a27.67,27.67,0,0,1,1.84,4.42,23.943,23.943,0,0,1,.654,3.218Z" fill="#090e10"/>
      <path id="6b-Path_44" data-name="6b-Path 44" d="M216.334,118.937a.918.918,0,0,1,1.031.881.88.88,0,0,1-.871.895.924.924,0,0,1-.955-.838.86.86,0,0,1,.795-.938" fill="#090e10"/>
      <path id="6b-Path_45" data-name="6b-Path 45" d="M220,127.662a19.862,19.862,0,0,1,1.034-3.29,26.153,26.153,0,0,1,2.292-3.967l-.174-.083a27.631,27.631,0,0,0-2.435,4.12,24.083,24.083,0,0,0-1.091,3.1Z" fill="#090e10"/>
      <path id="6b-Path_46" data-name="6b-Path 46" d="M223.568,119.441a.917.917,0,0,0-1.142.727.877.877,0,0,0,.736,1.008.925.925,0,0,0,1.065-.695.864.864,0,0,0-.659-1.04" fill="#090e10"/>
    </g>
    <g id="6b-fjäril_höger-2" data-name="6b-fjäril höger" transform="translate(-138.874 -0.143)">
      <path id="6b-Path_27-2" data-name="6b-Path 27" d="M218.6,141.071l8.764-10.442,21.43-12.535.733,36.827-29.235-4.068Z" transform="translate(17.354 3.953)" fill="#fcb39a"/>
      <g id="6b-Group_10-2" data-name="6b-Group 10" transform="translate(235.957 122.048)">
        <g id="6b-Group_9-2" data-name="6b-Group 9" clip-path="url(#6b-clip-path-9)">
          <path id="6b-Path_28-2" data-name="6b-Path 28" d="M245.242,126.345c-7.853-1.649-21.691,1.622-22.939,14.641s8.148,19.551,14.823,20.237c9.4.965,18.856-3.344,21.308-14a17.327,17.327,0,0,0-13.192-20.878" transform="translate(-215.731 -111.81)" fill="#d8ab9f"/>
        </g>
      </g>
      <path id="6b-Path_30-2" data-name="6b-Path 30" d="M221.911,138.494l25.207,1.436,8.427,10.506-2.939,25.675-28.522-4.847s-5.938-20.829-6.048-20.959,3.875-11.811,3.875-11.811" transform="translate(16.899 20.272)" fill="#e4af03"/>
      <g id="6b-Group_12-2" data-name="6b-Group 12" transform="translate(234.933 158.766)">
        <g id="6b-Group_11-2" data-name="6b-Group 11" clip-path="url(#6b-clip-path-10)">
          <path id="6b-Path_31-2" data-name="6b-Path 31" d="M238.544,134.368c-7.726-1.625-22.244,3.417-23.47,16.218s8.924,17.405,15.485,18.077c9.247.953,18.548-3.287,20.959-13.766a17.039,17.039,0,0,0-12.974-20.529" transform="translate(-220.483 -142.031)" fill="#fb4e47"/>
        </g>
      </g>
      <path id="6b-Path_33-2" data-name="6b-Path 33" d="M237.426,130.856l-2.581,22.287-15.346-.6.1-15.217Z" transform="translate(18.071 14.162)" fill="#99b07a"/>
      <path id="6b-Path_34-2" data-name="6b-Path 34" d="M236.971,145.663l-11.237-22.582-15.874-9.927L196.909,153.8l35.029-.05Z" transform="translate(0.001 0.001)" fill="#58967c"/>
      <g id="6b-Group_14-2" data-name="6b-Group 14" transform="translate(196.908 113.153)">
        <g id="6b-Group_13-2" data-name="6b-Group 13" clip-path="url(#6b-clip-path-11)">
          <path id="6b-Path_35-2" data-name="6b-Path 35" d="M215.514,117.16c5.465-.371,14.511,3.146,14.122,12.063s-7.36,12.449-11.932,12.279c-6.447-.238-12.431-4.044-13.08-11.478a11.827,11.827,0,0,1,10.89-12.864" transform="translate(-190.772 -109.969)" fill="#c8dadf"/>
        </g>
      </g>
      <path id="6b-Path_37-2" data-name="6b-Path 37" d="M232.6,141.122c-.144.356-24.083-8.393-24.083-8.393l-10.2,24.026-.31,19.051,22.613.3s15.071-20.957,15.2-21.07-3.226-13.917-3.226-13.917" transform="translate(0.881 15.66)" fill="#917d31"/>
      <g id="6b-Group_16-2" data-name="6b-Group 16" transform="translate(198.89 148.387)">
        <g id="6b-Group_15-2" data-name="6b-Group 15" clip-path="url(#6b-clip-path-12)">
          <path id="6b-Path_38-2" data-name="6b-Path 38" d="M206.931,137.862c6.959-.473,19.051,5.718,18.556,17.074s-9.943,14.14-15.771,13.924c-8.21-.3-15.829-5.15-16.657-14.617a15.062,15.062,0,0,1,13.872-16.381" transform="translate(-202.015 -122.641)" fill="#fe4d11"/>
        </g>
      </g>
      <path id="6b-Path_40-2" data-name="6b-Path 40" d="M210.993,125.534,207.378,145.8l4.9,10,15.69-.736,1.264-16.954Z" transform="translate(8.376 9.904)" fill="#fc1a1d"/>
      <path id="6b-Path_41-2" data-name="6b-Path 41" d="M221.273,126.094c-1.116-.234-3.091.232-3.269,2.088a2.51,2.51,0,0,0,2.113,2.885,2.643,2.643,0,0,0,3.036-2,2.474,2.474,0,0,0-1.881-2.977" transform="translate(16.863 10.307)" fill="#090e10"/>
      <path id="6b-Path_42-2" data-name="6b-Path 42" d="M223.477,127.493a16.892,16.892,0,0,0-.054,8.66c1,4.565,2.655,7.531,2.41,15.741s-5.576,17.582-7.085,17.308c-1.08-.194-4.9-8.64-3.224-18.28,1.222-7.083,4.095-11.09,5.448-15.269a36.128,36.128,0,0,0,1.521-8.231Z" transform="translate(14.558 11.414)" fill="#090e10"/>
      <path id="6b-Path_43-2" data-name="6b-Path 43" d="M220.558,133.737a35.546,35.546,0,0,0-1.019-6.12,47.021,47.021,0,0,0-3.1-7.648l.331-.1a49.807,49.807,0,0,1,3.312,7.956,43.094,43.094,0,0,1,1.177,5.792Z" transform="translate(15.627 5.369)" fill="#090e10"/>
      <path id="6b-Path_44-2" data-name="6b-Path 44" d="M216.973,118.939a1.652,1.652,0,0,1,1.856,1.586,1.584,1.584,0,0,1-1.568,1.611,1.664,1.664,0,0,1-1.719-1.508,1.548,1.548,0,0,1,1.431-1.688" transform="translate(14.901 4.625)" fill="#090e10"/>
      <path id="6b-Path_45-2" data-name="6b-Path 45" d="M220.3,133.534a35.752,35.752,0,0,1,1.861-5.922,47.076,47.076,0,0,1,4.125-7.14l-.313-.149a49.734,49.734,0,0,0-4.383,7.416,43.347,43.347,0,0,0-1.964,5.571Z" transform="translate(18.171 5.735)" fill="#090e10"/>
      <path id="6b-Path_46-2" data-name="6b-Path 46" d="M224.486,119.457a1.65,1.65,0,0,0-2.056,1.309,1.578,1.578,0,0,0,1.325,1.814,1.665,1.665,0,0,0,1.917-1.251,1.556,1.556,0,0,0-1.186-1.872" transform="translate(20.409 5.014)" fill="#090e10"/>
    </g>
  </g>
</svg>
