<svg xmlns="http://www.w3.org/2000/svg" xmlns:xlink="http://www.w3.org/1999/xlink" width="200" height="300" viewBox="0 0 200 300">
  <defs>
    <clipPath id="9a-clip-Artboard_1">
      <rect width="200" height="300"/>
    </clipPath>
  </defs>
  <g id="9a-Artboard_1" data-name="9a-Artboard – 1" clip-path="url(#9a-clip-Artboard_1)">
    <rect width="200" height="300" fill="#ced7a4"/>
    <g id="9a-orange_blomma" data-name="9a-orange blomma" transform="translate(-26.134 -12)">
      <path id="9a-Path_1" data-name="9a-Path 1" d="M67.691,54.776C45.658,69.318,26.861,102.7,39.9,139.625c16.125,45.65,69.138,69.157,113.383,40.286S198.229,108,176.6,73.383C155.007,38.8,99.723,33.635,67.691,54.776" fill="#fe330f"/>
      <path id="9a-Path_2" data-name="9a-Path 2" d="M143.012,174.813c22.367-8.733,3.892-38.614,7.516-44.323,2.868-4.516,28-6.925,25.731-25.376C173.93,86.226,147.536,90.686,142.7,86.486c-6.586-5.723,7.6-34.309-19.482-39.116-23.83-4.229-24.493,24.9-34.442,28.316-8.958,3.076-33.7-12.85-42.624,8.389-8.547,20.339,19.352,28.933,21.687,38.265,1.77,7.065-18.588,25.772-3.965,39.563,15.836,14.93,32.714-9.145,41.013-7.6,8.561,1.6,14.272,29.823,38.121,20.509" fill="#fc0017"/>
      <path id="9a-Path_3" data-name="9a-Path 3" d="M105.144,85.182C91.07,87.622,82.385,96.258,82.813,111.4s10.733,24.186,23.973,25.277c17.438,1.436,33.236-9.643,29.953-28.928-3.074-18.064-16.208-25.234-31.6-22.567" fill="#018837"/>
    </g>
    <path id="9a-grön_blomma" data-name="9a-grön blomma" d="M215.4,243.687s-15.779-60.358-18-68.241c-2.2-7.8-5.615-20.266-6.339-20.281-1.766-.037-.291,2.386-3.474,6.006-3.669,4.174-11.017-1.141-6.649-5.039,3.253-2.906,6.5-3.5,5.919-4.649-.637-1.258-4.438,1.76-8.547.229-5.809-2.167-2.779-8.367,2.614-8.051,3.4.2,6.291,4.3,7.575,3.64,1.985-1.02-1.389-2.962.09-8.363,1.371-4.992,9.2-4.1,8.119,1.214-.578,2.853-4.015,6.585-3.212,7.158.945.672,2.966-1.942,6.235-3.061,6.7-2.29,8.309,4.552,3.309,5.535-3.28.648-6.256.06-6.611.711-.519.949,2.558,1.716,4.41,2.674,5.309,2.748-.1,9.795-3.692,6-2.957-3.123-2.991-5.338-3.966-4.771-.384.225,2.26,9.206,5.385,20.717,3.764,13.874,18.086,68.114,18.086,68.114Z" transform="translate(-26.134 -12)" fill="#018837"/>
    <g id="9a-rosa_blomma" data-name="9a-rosa blomma" transform="translate(-26.134 -12)">
      <path id="9a-Path_4" data-name="9a-Path 4" d="M159.436,59.493c-2.094,8.629,3.145,16.022,10.35,17.7,7.738,1.8,15.371-.821,18.243-9.173,2.153-6.263-.474-16.67-8.989-18.661-10.388-2.43-17.915,3.179-19.6,10.135" fill="#f0047f"/>
      <path id="9a-Path_5" data-name="9a-Path 5" d="M178.992,74.6c4.2-1.285,1.239-6.985,1.979-7.975.584-.784,5.2-.878,5.038-4.271-.166-3.475-5.037-3.025-5.861-3.857-1.121-1.133,1.857-6.148-3.013-7.4-4.286-1.1-4.806,4.2-6.667,4.688-1.674.437-5.965-2.805-7.883.943-1.837,3.59,3.13,5.539,3.427,7.272.226,1.313-3.742,4.442-1.266,7.156,2.682,2.938,6.088-1.216,7.58-.822,1.539.408,2.191,5.632,6.666,4.262" fill="#ced7a4"/>
      <path id="9a-Path_6" data-name="9a-Path 6" d="M173.318,58.22c-2.572.446-4.16,2.023-4.082,4.792a4.546,4.546,0,0,0,4.382,4.619c3.187.264,6.076-1.761,5.476-5.286a4.643,4.643,0,0,0-5.776-4.125" fill="#fc0017"/>
    </g>
  </g>
</svg>
