<svg width="200" height="300" viewBox="0 0 200 300" fill="none" xmlns="http://www.w3.org/2000/svg">
<rect width="200" height="300" fill="#0083CB"/>
<g clip-path="url(#clip0_1968_33815)">
<path d="M81.0774 119.788C86.9434 119.142 87.9847 106.416 104.878 92.2754C123.53 76.6574 139.576 67.1059 147.926 47.9577C156.094 29.1967 148.954 8.08013 124.494 4.45959C96.9746 0.380836 87.0793 21.1554 81.0774 20.8972C72.7989 20.5423 57.4644 -6.95705 32.4026 2.01363C13.8731 8.6416 5.17428 24.6017 12.2433 42.7947C18.5362 58.9871 35.7981 70.7071 52.562 88.7388C64.5981 101.685 74.3899 120.53 81.0774 119.788" fill="#E8461D"/>
<path d="M81.0774 119.788C86.9434 119.142 87.9847 106.416 104.878 92.2754C123.53 76.6574 139.576 67.1059 147.926 47.9577C156.094 29.1967 148.954 8.08013 124.494 4.45959C96.9746 0.380836 87.0793 21.1554 81.0774 20.8972C72.7989 20.5423 57.4644 -6.95705 32.4026 2.01363C13.8731 8.6416 5.17428 24.6017 12.2433 42.7947C18.5362 58.9871 35.7981 70.7071 52.562 88.7388C64.5981 101.685 74.3899 120.53 81.0774 119.788V119.788Z" stroke="#831F82" stroke-width="0.66"/>
<path d="M80.6248 95.3214C84.7188 95.3214 85.9735 87.4156 96.0434 78.9871C107.168 69.6743 116.74 63.9822 121.713 52.5655C126.583 41.3812 122.328 28.79 107.743 26.628C91.3351 24.195 85.4367 36.5861 81.873 36.4312C76.9189 36.2183 67.7803 19.8193 52.8338 25.1695C41.7872 29.1192 36.5938 38.6255 40.8171 49.4807C44.5683 59.1612 54.8646 66.1248 64.8569 76.8767C72.0294 84.6212 76.6149 95.3214 80.6248 95.3214Z" fill="#F18700"/>
<path d="M80.6248 95.3214C84.7188 95.3214 85.9735 87.4156 96.0434 78.9871C107.168 69.6743 116.74 63.9822 121.713 52.5655C126.583 41.3812 122.328 28.79 107.743 26.628C91.3351 24.195 85.4367 36.5861 81.873 36.4312C76.9189 36.2183 67.7803 19.8193 52.8338 25.1695C41.7872 29.1192 36.5938 38.6255 40.8171 49.4807C44.5683 59.1612 54.8646 66.1248 64.8569 76.8767C72.0294 84.6212 76.6149 95.3214 80.6248 95.3214Z" stroke="#831F82" stroke-width="0.66"/>
<path d="M81.1816 80.4973C83.1865 80.2779 83.5422 75.9281 89.3178 71.0942C95.6948 65.757 101.179 62.4979 104.031 55.9473C106.825 49.5388 104.381 42.3235 96.0181 41.1038C86.6143 39.7098 83.2318 46.8089 81.1816 46.7185C78.3553 46.5959 73.1166 37.1993 64.5471 40.2648C58.2153 42.53 55.2338 48.0092 57.6591 54.2048C59.8064 59.7357 65.7112 63.7434 71.435 69.9067C75.5484 74.2953 78.905 80.749 81.1816 80.4973Z" fill="#F8C2C2"/>
<path d="M81.1816 80.4973C83.1865 80.2779 83.5422 75.9281 89.3178 71.0942C95.6948 65.757 101.179 62.4979 104.031 55.9473C106.825 49.5388 104.381 42.3235 96.0181 41.1038C86.6143 39.7098 83.2318 46.8089 81.1816 46.7185C78.3553 46.5959 73.1166 37.1993 64.5471 40.2648C58.2153 42.53 55.2338 48.0092 57.6591 54.2048C59.8064 59.7357 65.7112 63.7434 71.435 69.9067C75.5484 74.2953 78.905 80.749 81.1816 80.4973Z" stroke="#831F82" stroke-width="0.66"/>
<path d="M79.6479 216.768C85.5139 216.122 86.5552 203.395 103.448 189.262C122.107 173.644 138.153 164.092 146.496 144.944C154.671 126.183 147.525 105.073 123.064 101.44C95.5451 97.3672 85.6498 118.142 79.6479 117.884C71.3694 117.529 56.0413 90.0229 30.9731 99C12.4436 105.628 3.72538 121.588 10.8138 139.775C17.1067 155.973 34.3751 167.693 51.1325 185.725C63.1686 198.671 72.9604 217.516 79.6479 216.768Z" fill="#00923D"/>
<path d="M79.6479 216.768C85.5139 216.122 86.5552 203.395 103.448 189.262C122.107 173.644 138.153 164.092 146.496 144.944C154.671 126.183 147.525 105.073 123.064 101.44C95.5451 97.3672 85.6498 118.142 79.6479 117.884C71.3694 117.529 56.0413 90.0229 30.9731 99C12.4436 105.628 3.72538 121.588 10.8138 139.775C17.1067 155.973 34.3751 167.693 51.1325 185.725C63.1686 198.671 72.9604 217.516 79.6479 216.768Z" stroke="#831F82" stroke-width="0.66"/>
<path d="M79.2856 192.592C82.9333 192.192 84.285 184.338 94.7754 175.554C106.365 165.874 116.332 159.93 121.512 148.029C126.589 136.38 122.159 123.266 106.96 121.014C89.873 118.484 83.7223 131.385 79.997 131.224C74.8553 131.004 65.3222 113.921 49.8001 119.471C38.2943 123.595 32.8745 133.489 37.2724 144.802C41.1853 154.864 50.9125 163.15 62.3212 173.341C71.4469 181.492 75.1658 193.037 79.3179 192.573" fill="#E9511D"/>
<path d="M79.2856 192.592C82.9333 192.192 84.285 184.338 94.7754 175.554C106.365 165.874 116.332 159.93 121.512 148.029C126.589 136.38 122.159 123.266 106.96 121.014C89.873 118.484 83.7223 131.385 79.997 131.224C74.8553 131.004 65.3222 113.921 49.8001 119.471C38.2943 123.595 32.8745 133.489 37.2724 144.802C41.1853 154.864 50.9125 163.15 62.3212 173.341C71.4469 181.492 75.1658 193.037 79.3179 192.573L79.2856 192.592Z" stroke="#831F82" stroke-width="0.66"/>
</g>
<defs>
<clipPath id="clip0_1968_33815">
<rect width="165" height="217" fill="white"/>
</clipPath>
</defs>
</svg>
