<svg width="200" height="300" viewBox="0 0 200 300" fill="none" xmlns="http://www.w3.org/2000/svg">
<g clip-path="url(#clip0_1031:25115)">
<path d="M0 10C0 4.47716 4.47715 0 10 0H190C195.523 0 200 4.47715 200 10V290C200 295.523 195.523 300 190 300H10C4.47716 300 0 295.523 0 290V10Z" fill="#ED6B6C"/>
<path d="M98.6134 6.33154C165.787 6.33154 209.845 53.4907 210.947 114.749C212.228 186.442 165.566 234.27 90.6094 236C29.6452 234.393 -23.5027 204.792 -25.8525 123.544C-25.6159 57.0154 31.0485 6.33154 98.6134 6.33154" fill="#A9924D"/>
<path d="M205.252 121.504C206.378 71.3915 175.455 12.7851 97.4956 13.7153C33.6104 14.4822 -13.2632 57.1947 -18.2402 115.858C-22.8501 195.262 31.9704 229.579 91.0907 229.171C157.546 228.706 203.791 186.915 205.252 121.537" fill="#E73B23"/>
<path d="M175.26 123.587C175.431 83.0659 150.505 43.8462 99.2512 44.1717C47.9977 44.4972 18.5819 76.3367 16.447 119.568C15.7707 177.746 51.3467 200.407 95.1933 200.172C139.195 199.952 175.089 164.109 175.26 123.587Z" fill="#BE1D2B"/>
<path d="M100.895 79.8911C127.748 80.3929 139.294 98.1421 139.546 119.137C139.814 142.228 120.858 161.305 98.6357 161.636C76.4132 161.968 55.1982 148.42 54.9707 123.386C54.7432 98.3526 74.0488 79.3893 100.895 79.8911" fill="#E8308A"/>
<mask id="mask0_1031:25115" style="mask-type:alpha" maskUnits="userSpaceOnUse" x="-26" y="0" width="237" height="230">
<path d="M98.6134 0C165.787 0 209.845 47.1592 210.947 108.417C212.228 180.111 165.566 227.939 90.6094 229.668C29.6452 228.061 -23.5027 198.46 -25.8525 117.213C-25.6159 50.6839 31.0485 0 98.6134 0" fill="#A9924D"/>
<path d="M205.252 115.173C206.378 65.0602 175.455 6.45385 97.4956 7.38398C33.6104 8.15093 -13.2632 50.8634 -18.2402 109.527C-22.8501 188.931 31.9704 223.247 91.0907 222.839C157.546 222.374 203.791 180.584 205.252 115.206" fill="#E73B23"/>
</mask>
<g mask="url(#mask0_1031:25115)">
<path d="M131.705 121.945C125.358 122.296 122.184 129.525 117.231 135.048C112.817 139.944 109.178 143.942 106.624 151.293C101.533 165.743 102.308 193.557 102.545 207.362C102.765 221.836 107.555 262.321 107.555 262.321H157.219C157.219 262.321 162.734 224.985 162.856 206.897C162.954 193.108 162.326 163.336 158.075 151.13C155.717 144.366 151.638 139.968 147.575 134.983C142.875 129.206 138.999 121.545 131.762 121.929" fill="#00893C"/>
<path d="M130.703 86.9751C119.508 86.4529 107.857 91.8705 107.082 100.511C105.842 114.993 108.673 122.385 116.122 126.938C123.368 131.368 128.989 135.048 133.681 135.048C138.005 135.048 142.957 132.078 151.394 126.701C157.831 122.622 160.181 117.49 159.765 103.856C159.528 95.9827 148.489 87.8236 130.703 86.9996" fill="#F8C1B6"/>
<path d="M132.261 74.1492C116.123 74.4918 112.035 79.7871 107.67 86.2327C101.331 95.5911 104.814 98.7323 100.727 101.058C96.6391 103.383 81.602 97.4269 76.6332 111.966C72.5537 123.887 79.293 137.096 92.7228 137.879C103.183 138.483 111.644 132.837 110.991 119.619C110.354 106.655 115.943 104.697 132.498 104.697C151.549 104.697 157.049 106.279 156.73 117.906C156.428 128.831 155.817 136.133 173.187 137.251C186.421 138.083 197.607 124.784 190.541 108.711C184.659 95.2892 168.202 103.407 164.432 100.911C160.851 98.5365 163.453 94.6936 157.905 85.6126C153.075 77.6576 146.719 73.8391 132.229 74.19" fill="#48312F"/>
<path d="M118.121 116.698C115.983 116.225 113.16 117.31 113.103 120.15C113.065 121.205 113.437 122.234 114.141 123.021C114.846 123.808 115.828 124.29 116.881 124.368C119.068 124.466 121.164 123.421 121.532 121.104C121.858 119.065 120.332 117.212 118.121 116.731" fill="#E99FB0"/>
<path d="M151.402 115.94C149.264 115.467 146.441 116.552 146.392 119.399C146.354 120.455 146.726 121.484 147.43 122.271C148.135 123.057 149.117 123.54 150.17 123.617C152.348 123.715 154.445 122.663 154.821 120.313C155.139 118.281 153.613 116.429 151.402 115.94" fill="#E99FB0"/>
<path d="M122.275 109.527C120.349 109.086 117.493 110.228 117.42 113.076C117.368 114.109 117.724 115.121 118.411 115.894C119.097 116.668 120.06 117.141 121.092 117.213C122.094 117.306 123.093 117.008 123.881 116.382C124.668 115.755 125.183 114.848 125.318 113.851C125.456 112.878 125.219 111.889 124.653 111.086C124.088 110.282 123.237 109.725 122.275 109.527" fill="#00893C"/>
<path d="M123.04 111.158C122.75 111.085 122.448 111.079 122.155 111.14C121.863 111.202 121.588 111.329 121.352 111.512C121.117 111.695 120.925 111.93 120.794 112.198C120.662 112.466 120.593 112.761 120.592 113.06C120.563 113.325 120.587 113.595 120.662 113.851C120.737 114.108 120.863 114.347 121.031 114.555C121.2 114.763 121.408 114.936 121.643 115.063C121.879 115.19 122.137 115.269 122.404 115.295C122.935 115.343 123.464 115.186 123.883 114.857C124.303 114.529 124.582 114.052 124.663 113.525C124.744 112.999 124.621 112.461 124.32 112.021C124.018 111.581 123.561 111.273 123.04 111.158" fill="#48312F"/>
<path d="M146.726 108.89C144.8 108.45 141.733 109.706 141.659 112.546C141.654 113.591 142.058 114.597 142.783 115.35C143.508 116.102 144.498 116.542 145.543 116.576C146.545 116.67 147.544 116.372 148.332 115.745C149.12 115.119 149.635 114.212 149.769 113.215C149.908 112.242 149.67 111.253 149.105 110.449C148.539 109.646 147.688 109.088 146.726 108.89Z" fill="#00893C"/>
<path d="M147.624 110.628C147.335 110.555 147.033 110.549 146.741 110.61C146.45 110.671 146.175 110.797 145.94 110.979C145.704 111.162 145.513 111.395 145.38 111.662C145.248 111.93 145.178 112.223 145.176 112.521C145.146 112.788 145.169 113.058 145.243 113.316C145.318 113.573 145.444 113.814 145.612 114.022C145.781 114.231 145.989 114.404 146.225 114.532C146.461 114.659 146.72 114.739 146.988 114.765C147.519 114.813 148.048 114.656 148.467 114.327C148.887 113.999 149.166 113.522 149.247 112.995C149.328 112.468 149.205 111.93 148.904 111.491C148.602 111.051 148.145 110.743 147.624 110.628" fill="#48312F"/>
<path d="M133.494 125.681C131.862 125.681 128.762 125.339 128.639 126.93C128.517 128.521 130.499 130.495 133.029 130.707C135.558 130.92 138.038 129.418 137.924 127.224C137.81 125.518 135.199 125.69 133.535 125.681" fill="#E73B23"/>
<path d="M99.5352 100.731L111.741 111.893L114.956 108.172L102.636 97.1169L99.5352 100.731Z" fill="#F4C200"/>
<path d="M162.752 98.3162L152.888 108.107L155.703 111.33L166.154 101.139L162.752 98.3162Z" fill="#713E91"/>
<path d="M48.7389 128.081C40.6941 128.211 37.2102 134.51 31.0501 140.148C26.016 144.733 20.6637 150.094 18.4444 158.375C13.9243 175.248 13.9407 191.696 12.7331 207.329C11.444 224.463 21.9039 262.337 21.9039 262.337L76.9202 260.812C76.9202 260.812 87.7635 225.483 86.0828 204.27C84.8508 188.686 84.9079 168.443 78.9192 156.246C75.4189 149.115 71.2905 145.174 66.4032 140.295C60.3737 134.265 57.4283 127.95 48.7144 128.097" fill="#EA5425"/>
<path d="M46.9113 92.1807C35.7253 91.6585 24.066 97.0761 23.2991 105.716C22.0589 120.199 25.396 128.178 32.8451 132.731C40.0904 137.164 45.8017 139.402 49.9791 139.446C54.6379 139.495 59.1988 137.284 67.6271 131.907C74.0646 127.827 76.4144 122.695 76.0064 109.062C75.7616 101.196 64.7306 93.0292 46.9358 92.2051" fill="#A9924D"/>
<path d="M38.255 113.451C36.5252 113.051 33.947 114.079 33.8817 116.641C33.8389 117.57 34.1603 118.478 34.7776 119.173C35.3948 119.868 36.2591 120.295 37.1861 120.362C38.0811 120.458 38.9787 120.205 39.6924 119.657C40.4061 119.108 40.8811 118.306 41.0187 117.417C41.1563 116.527 40.9459 115.619 40.4312 114.88C39.9165 114.142 39.1371 113.63 38.255 113.451" fill="#0093D3"/>
<path d="M36.9327 114.226C36.672 114.161 36.4 114.155 36.1369 114.21C35.8739 114.265 35.6267 114.379 35.4139 114.543C35.2011 114.707 35.0283 114.917 34.9084 115.158C34.7885 115.398 34.7246 115.663 34.7216 115.931C34.6956 116.171 34.7173 116.413 34.7853 116.645C34.8534 116.876 34.9665 117.091 35.1182 117.279C35.2699 117.466 35.4571 117.621 35.6691 117.736C35.881 117.851 36.1136 117.922 36.3534 117.947C36.8335 117.994 37.3136 117.856 37.6948 117.56C38.076 117.265 38.3292 116.834 38.4025 116.357C38.4757 115.88 38.3632 115.394 38.0883 114.997C37.8133 114.601 37.3968 114.325 36.9245 114.226" fill="#48312F"/>
<path d="M62.6905 112.79C60.9608 112.391 58.2031 113.517 58.1378 116.054C58.131 116.995 58.4926 117.9 59.1453 118.577C59.798 119.254 60.6898 119.649 61.6299 119.677C62.5231 119.768 63.4173 119.513 64.1276 118.964C64.8379 118.414 65.31 117.613 65.4462 116.726C65.5824 115.838 65.3724 114.932 64.8595 114.195C64.3466 113.458 63.5701 112.947 62.6905 112.766" fill="#0093D3"/>
<path d="M61.2624 113.607C61.0021 113.539 60.7298 113.533 60.4665 113.587C60.2031 113.641 59.9557 113.755 59.7431 113.919C59.5305 114.084 59.3583 114.295 59.2398 114.536C59.1214 114.778 59.0597 115.043 59.0595 115.312C59.0335 115.551 59.0552 115.794 59.1232 116.025C59.1913 116.256 59.3044 116.472 59.4561 116.659C59.6077 116.846 59.795 117.002 60.0069 117.116C60.2189 117.231 60.4515 117.303 60.6913 117.327C61.1776 117.373 61.6629 117.229 62.0449 116.925C62.4269 116.62 62.6759 116.18 62.7392 115.695C62.8048 115.225 62.6887 114.747 62.4143 114.359C62.1399 113.97 61.728 113.702 61.2624 113.607Z" fill="#48312F"/>
<path d="M50.3881 129.443C48.3973 129.443 45.6722 129.174 45.4927 130.357C45.3132 131.54 46.3086 133.106 49.8006 133.196C53.2927 133.286 54.6961 132.143 54.7369 130.495C54.8021 129.157 52.3544 129.451 50.3554 129.443" fill="#F4C200"/>
<path d="M56.4576 94.9873C51.6417 99.7519 46.0906 103.711 40.0171 106.712C31.3441 110.971 27.3869 111.428 27.3869 111.428L25.8938 116.715L23.3482 117.27C21.5912 111.155 21.2481 104.721 22.3446 98.4549C24.6373 86.045 32.7964 78.5224 49.1144 78.1716C65.922 77.8371 73.2244 85.9879 76.6185 94.6446C79.6129 102.184 76.0392 116.054 76.0392 116.054L73.102 115.899C73.102 115.899 66.0118 107.805 62.4952 103.489C60.3318 100.765 58.3164 97.9273 56.4576 94.9873" fill="#F4C200"/>
</g>
</g>
<defs>
<clipPath id="clip0_1031:25115">
<path d="M0 10C0 4.47716 4.47715 0 10 0H190C195.523 0 200 4.47715 200 10V290C200 295.523 195.523 300 190 300H10C4.47716 300 0 295.523 0 290V10Z" fill="white"/>
</clipPath>
</defs>
</svg>
