<svg width="200" height="300" viewBox="0 0 200 300" fill="none" xmlns="http://www.w3.org/2000/svg">
<g clip-path="url(#clip0_1976_33805)">
<rect width="200" height="300" fill="#A9924D"/>
<path d="M0 10C0 4.47716 4.47715 0 10 0H190C195.523 0 200 4.47715 200 10V290C200 295.523 195.523 300 190 300H10C4.47716 300 0 295.523 0 290V10Z" fill="#A9924D"/>
<mask id="mask0_1976_33805" style="mask-type:alpha" maskUnits="userSpaceOnUse" x="-9" y="8" width="218" height="218">
<path d="M209 8H-9V226H209V8Z" fill="#A9924D"/>
</mask>
<g mask="url(#mask0_1976_33805)">
<path d="M-64.0117 -3.35889C-64.0117 -3.35889 -31.2152 39.6194 10.9861 40.1321C38.856 40.4686 61.9433 27.3147 95.5089 30.6152C124.925 33.5231 268.336 37.128 268.336 37.128L272.061 112.951L-54.4788 98.5715L-64.0117 -3.35889Z" fill="#EC663E"/>
<path d="M262.121 55.7773C262.121 55.7773 228.563 103.041 179.609 104.692C151.755 105.645 129.893 91.0172 96.2958 94.3337C66.8799 97.2336 -63.2168 96.817 -63.2168 96.817V175.94L259.622 177.542L262.121 55.7773Z" fill="#0095DB"/>
<path d="M-72.2305 109.218C-72.2305 109.218 -32.4565 160.183 10.5699 159.798C38.4398 159.542 61.5351 146.981 95.0927 150.281C124.509 153.189 270.819 152.685 270.819 152.685L275.81 263.347L-70.9888 257.13L-72.2305 109.218Z" fill="#EBE6D4"/>
<path d="M88.2435 206.285C111.988 204.25 129.387 187.86 145.169 187.812C160.95 187.764 169.938 199.74 169.938 199.74C173.255 203.281 177.356 201.158 173.808 195.038L170.603 189.294C167.815 184.351 167.399 175.988 169.594 170.725L172.918 162.85C175.65 156.746 171.549 154.423 168.432 158.404C168.432 158.404 159.476 171.069 147.139 171.181C134.803 171.294 115.232 153.269 88.2595 151.435C50.1758 148.855 19.1016 171.462 19.1016 178.864C19.1016 186.266 50.2479 209.546 88.2595 206.285" fill="#00A13B"/>
<path d="M44.0228 161.857C52.6105 160.551 64.5387 164.829 64.8511 177.294C65.1635 189.759 55.8148 195.342 49.4221 195.551C40.4179 195.847 31.7181 191.121 30.0919 180.827C29.7539 178.666 29.8465 176.46 30.3641 174.335C30.8818 172.211 31.8144 170.209 33.1084 168.446C34.4023 166.683 36.032 165.194 37.9037 164.063C39.7755 162.932 41.8523 162.182 44.0148 161.857" fill="#EBE6D4"/>
<path d="M44.8083 165.638C51.5054 164.38 60.6539 167.929 60.9022 177.542C61.1505 187.155 53.9247 191.473 48.99 191.641C42.0366 191.866 35.3155 188.221 34.0577 180.274C32.9683 173.369 37.7187 166.952 44.8083 165.622" fill="#EB5E25"/>
<path d="M46.124 171.734C49.5366 170.933 54.0708 172.936 54.1989 177.974C54.3271 183.013 50.6982 185.272 48.2228 185.36C44.7301 185.481 41.3575 183.566 40.7327 179.4C40.4867 177.676 40.9076 175.923 41.9093 174.499C42.9111 173.074 44.4184 172.086 46.124 171.734Z" fill="#4D0E50"/>
<path d="M46.124 171.734C49.5366 170.933 54.0708 172.936 54.1989 177.974C54.3271 183.013 50.6982 185.272 48.2228 185.36C44.7301 185.481 41.3575 183.566 40.7327 179.4C40.4867 177.676 40.9076 175.923 41.9093 174.499C42.9111 173.074 44.4184 172.086 46.124 171.734Z" stroke="#A9924D" stroke-width="0.62" stroke-miterlimit="10"/>
<path d="M87.3141 86.555C111.05 84.5122 128.45 68.13 144.231 68.0819C160.013 68.0338 169.001 80.0021 169.001 80.0021C172.326 83.5509 176.427 81.428 172.87 75.2997L169.666 69.5639C166.878 64.6132 166.462 56.2579 168.665 50.9947L171.989 43.112C174.713 37.0077 170.611 34.6846 167.503 38.674C167.503 38.674 158.539 51.3392 146.202 51.4433C133.865 51.5475 114.279 33.539 87.3141 31.7446C49.2224 29.1571 18.1562 51.7718 18.1562 59.1738C18.1562 66.5759 49.2945 89.8555 87.3141 86.5951" fill="#E2342B"/>
<path d="M43.0877 42.1583C51.6833 40.8526 63.6035 45.1384 63.9159 57.5953C64.2284 70.0522 54.8877 75.6038 48.495 75.804C39.4988 76.1004 30.791 71.382 29.1648 61.088C28.8336 58.9306 28.9313 56.7291 29.4521 54.6094C29.9729 52.4898 30.9067 50.4937 32.1999 48.7354C33.4932 46.9771 35.1205 45.4911 36.9888 44.3625C38.857 43.234 40.9296 42.4849 43.0877 42.1583Z" fill="#EBE6D4"/>
<path d="M43.8808 45.8996C50.5459 44.6499 59.7183 48.1987 59.9667 57.8198C60.215 67.4408 52.9892 71.7587 48.0545 71.9189C41.1011 72.1512 34.3799 68.4983 33.1222 60.5515C32.0327 53.6461 36.7832 47.2374 43.8808 45.8996Z" fill="#437C29"/>
<path d="M45.1856 51.9958C48.5982 51.1947 53.1324 53.2054 53.2606 58.2443C53.3887 63.2831 49.7598 65.5422 47.2844 65.6223C43.7917 65.7425 40.4191 63.8359 39.7943 59.6702C39.5501 57.9455 39.9715 56.1925 40.9728 54.7672C41.9741 53.3419 43.4803 52.351 45.1856 51.9958Z" fill="#4D0E50"/>
<path d="M45.1856 51.9958C48.5982 51.1947 53.1324 53.2054 53.2606 58.2443C53.3887 63.2831 49.7598 65.5422 47.2844 65.6223C43.7917 65.7425 40.4191 63.8359 39.7943 59.6702C39.5501 57.9455 39.9715 56.1925 40.9728 54.7672C41.9741 53.3419 43.4803 52.351 45.1856 51.9958Z" stroke="#A9924D" stroke-width="0.62" stroke-miterlimit="10"/>
<path d="M105.083 149.905C81.3466 147.862 63.947 131.48 48.1575 131.432C32.3681 131.384 23.3959 143.352 23.3959 143.352C20.0714 146.901 15.9698 144.778 19.5267 138.65L22.731 132.914C25.5108 127.963 25.9354 119.608 23.7324 114.345L20.4078 106.462C17.6841 100.358 21.7857 98.0426 24.8939 102.024C24.8939 102.024 33.8501 114.689 46.1949 114.793C58.5396 114.897 78.0942 96.889 105.067 95.0545C143.159 92.475 174.225 115.082 174.225 122.484C174.225 129.886 143.086 153.165 105.067 149.905" fill="#E14290"/>
<path d="M149.311 105.444C140.715 104.139 128.795 108.416 128.482 120.873C128.17 133.33 137.527 138.922 143.911 139.138C152.915 139.426 161.623 134.708 163.249 124.414C163.587 122.252 163.494 120.045 162.975 117.92C162.457 115.794 161.523 113.792 160.227 112.029C158.932 110.266 157.3 108.776 155.427 107.646C153.553 106.516 151.474 105.768 149.311 105.444Z" fill="#EBE6D4"/>
<path d="M148.518 109.25C141.853 108 132.68 111.557 132.432 121.178C132.184 130.799 139.41 135.109 144.344 135.277C151.298 135.501 158.019 131.856 159.268 123.909C160.366 116.996 155.607 110.587 148.518 109.25Z" fill="#E10728"/>
<path d="M147.205 115.346C143.8 114.545 139.258 116.556 139.138 121.594C139.018 126.633 142.638 128.892 145.114 128.972C148.599 129.093 151.971 127.186 152.604 123.02C152.846 121.295 152.423 119.542 151.42 118.117C150.417 116.692 148.91 115.701 147.205 115.346Z" fill="#4D0E50"/>
<path d="M147.205 115.346C143.8 114.545 139.258 116.556 139.138 121.594C139.018 126.633 142.638 128.892 145.114 128.972C148.599 129.093 151.971 127.186 152.604 123.02C152.846 121.295 152.423 119.542 151.42 118.117C150.417 116.692 148.91 115.701 147.205 115.346Z" stroke="#A9924D" stroke-width="0.62" stroke-miterlimit="10"/>
</g>
</g>
<defs>
<clipPath id="clip0_1976_33805">
<rect width="200" height="300" fill="white"/>
</clipPath>
</defs>
</svg>
