<svg xmlns="http://www.w3.org/2000/svg" xmlns:xlink="http://www.w3.org/1999/xlink" width="200" height="300" viewBox="0 0 200 300">
  <defs>
    <clipPath id="11a-clip-path">
      <path id="11a-Path_37" data-name="11a-Path 37" d="M0,0V238.57H238.57V0Z" fill="none"/>
    </clipPath>
    <clipPath id="11a-clip-path-2">
      <rect id="11a-Rectangle_1" data-name="11a-Rectangle 1" width="238.57" height="238.57" fill="none"/>
    </clipPath>
    <clipPath id="11a-clip-Artboard_1">
      <rect width="200" height="300"/>
    </clipPath>
  </defs>
  <g id="11a-Artboard_1" data-name="11a-Artboard – 1" clip-path="url(#11a-clip-Artboard_1)">
    <rect width="200" height="300" fill="#d9a7a9"/>
    <g id="11a-grönt_träd" data-name="11a-grönt träd" transform="translate(-27.642)">
      <g id="11a-Group_1" data-name="11a-Group 1" clip-path="url(#11a-clip-path)">
        <path id="11a-Path_1" data-name="11a-Path 1" d="M21.282-3.457C-20.992,5-41.3,42.561-39.463,92.262s41.416,85.6,108.6,76.392,72.71-50.622,71.788-104.924S85.708-16.342,21.282-3.457" transform="translate(2.567 0.436)" fill="#5fb473"/>
        <path id="11a-Path_2" data-name="11a-Path 2" d="M80.781,235.743s-4.445-29.205-9.046-66.941-13.019-59.565-13.019-59.565l5.656-3.02S74.5,125.544,80.939,158.678s17.2,77.358,17.2,77.358Z" transform="translate(-3.809 -6.89)" fill="#937b32"/>
        <path id="11a-Path_3" data-name="11a-Path 3" d="M36.643,98.633-9.044,74.717l.118-1.658L37.419,95.644Z" transform="translate(0.587 -4.739)" fill="#937b32"/>
        <path id="11a-Path_4" data-name="11a-Path 4" d="M28.425,96.38,23.372,108.6,5.511,101.537,12.7,88.3Z" transform="translate(-0.357 -5.728)" fill="#026e3f"/>
        <path id="11a-Path_5" data-name="11a-Path 5" d="M9.265,86.88,2.139,99.865l-14.3-13.559,6.308-7.426Z" transform="translate(0.789 -5.117)" fill="#026e3f"/>
        <path id="11a-Path_6" data-name="11a-Path 6" d="M37.888,92.744,35.269,78.76,16.187,70.376l1.6,13.08Z" transform="translate(-1.05 -4.565)" fill="#026e3f"/>
        <path id="11a-Path_7" data-name="11a-Path 7" d="M14.68,80.977l-1.8-12.333-11.259-4.8L-1.43,74.394Z" transform="translate(0.093 -4.141)" fill="#026e3f"/>
        <path id="11a-Path_8" data-name="11a-Path 8" d="M-4.346,72.94l3.065-9.39-14.844-.627-2.093,5.652Z" transform="translate(1.182 -4.082)" fill="#026e3f"/>
        <path id="11a-Path_9" data-name="11a-Path 9" d="M62.97,96.411,30.693,13.246l-2.73.685,30,84.82Z" transform="translate(-1.814 -0.859)" fill="#937b32"/>
        <path id="11a-Path_10" data-name="11a-Path 10" d="M60.44,80.674,81.171,67.429,72.284,34.294,49.579,52.013Z" transform="translate(-3.216 -2.224)" fill="#026e3f"/>
        <path id="11a-Path_11" data-name="11a-Path 11" d="M47.778,45.763,70.066,28.241,50.034,3.867l-13.079,14.4Z" transform="translate(-2.397 -0.251)" fill="#026e3f"/>
        <path id="11a-Path_12" data-name="11a-Path 12" d="M35.1,13.671,46.966,1.02,33.446-11.6,26.434-5.954Z" transform="translate(-1.715 0.752)" fill="#026e3f"/>
        <path id="11a-Path_13" data-name="11a-Path 13" d="M53.159,100.461,30.692,99.128,19.835,63.954l21.142-.414Z" transform="translate(-1.287 -4.122)" fill="#026e3f"/>
        <path id="11a-Path_14" data-name="11a-Path 14" d="M37.356,57.941l-19.891-.17L11.3,36.977,29,28.111Z" transform="translate(-0.733 -1.823)" fill="#026e3f"/>
        <path id="11a-Path_15" data-name="11a-Path 15" d="M26.983,22.876,11.18,31.45,12.369,2.482,21.92-3.166Z" transform="translate(-0.725 0.205)" fill="#026e3f"/>
        <path id="11a-Path_16" data-name="11a-Path 16" d="M49.43,103.449l-56.788,56.02.924,2.4,58.363-54.35Z" transform="translate(0.477 -6.71)" fill="#937b32"/>
        <path id="11a-Path_17" data-name="11a-Path 17" d="M37.926,111.907l-13-15.8L1.7,114.629l16.617,16.332Z" transform="translate(-0.11 -6.234)" fill="#026e3f"/>
        <path id="11a-Path_18" data-name="11a-Path 18" d="M14.053,134.659-2.355,118.666l-15.03,26.519L-4.7,153.324Z" transform="translate(1.128 -7.697)" fill="#026e3f"/>
        <path id="11a-Path_19" data-name="11a-Path 19" d="M53.74,112.679l2.442,21.874L31.737,155.576,28.2,135.5Z" transform="translate(-1.829 -7.309)" fill="#026e3f"/>
        <path id="11a-Path_20" data-name="11a-Path 20" d="M24.634,141.284l2.912,19.06-14.49,12.187L3.773,158.3Z" transform="translate(-0.245 -9.164)" fill="#026e3f"/>
        <path id="11a-Path_21" data-name="11a-Path 21" d="M1.455,162.571l7.137,10.171A90.8,90.8,0,0,1,0,168.3Z" transform="translate(0 -10.545)" fill="#026e3f"/>
        <path id="11a-Path_22" data-name="11a-Path 22" d="M73.365,87.648l-9.9-14.387,2.673-4.47L78.7,78.221s-5.559,9.758-5.336,9.427" transform="translate(-4.116 -4.462)" fill="#026e3f"/>
        <path id="11a-Path_23" data-name="11a-Path 23" d="M74.807,86.019,108.883,28.91l1.618.608L77.6,87.9Z" transform="translate(-4.852 -1.875)" fill="#937b32"/>
        <path id="11a-Path_24" data-name="11a-Path 24" d="M79.7,74.983,68.728,64.7,79.786,41.76,91.28,55.29Z" transform="translate(-4.458 -2.709)" fill="#026e3f"/>
        <path id="11a-Path_25" data-name="11a-Path 25" d="M93.478,51,82.216,37.627,98.9,21.378l5.934,10.75Z" transform="translate(-5.333 -1.387)" fill="#026e3f"/>
        <path id="11a-Path_26" data-name="11a-Path 26" d="M107.455,28.993,102,19.532l10.637-8.268,3.522,4.3Z" transform="translate(-6.616 -0.731)" fill="#026e3f"/>
        <path id="11a-Path_27" data-name="11a-Path 27" d="M98.341,60.047l12.638.8,7.313-14.366-9.77-7.063Z" transform="translate(-6.379 -2.557)" fill="#026e3f"/>
        <path id="11a-Path_28" data-name="11a-Path 28" d="M111.149,35.842l8.618,6.768,3.986-20.464-5.131-4.42Z" transform="translate(-7.21 -1.15)" fill="#026e3f"/>
        <path id="11a-Path_29" data-name="11a-Path 29" d="M67.57,95.276l7.363-26.691,5.982-.46L80,93.9s-12.885,1.38-12.425,1.38" transform="translate(-4.382 -4.419)" fill="#026e3f"/>
        <path id="11a-Path_30" data-name="11a-Path 30" d="M66.349,98.713l76.391-5.982.46,2.761-76.851,8.744Z" transform="translate(-4.304 -6.015)" fill="#937b32"/>
        <path id="11a-Path_31" data-name="11a-Path 31" d="M82.1,93.084l2.761-24.39,28.991-5.982-5.522,28.071Z" transform="translate(-5.325 -4.068)" fill="#026e3f"/>
        <path id="11a-Path_32" data-name="11a-Path 32" d="M114.083,89.831l5.523-27.611,26.23,7.822-6.442,17.948Z" transform="translate(-7.4 -4.036)" fill="#026e3f"/>
        <path id="11a-Path_33" data-name="11a-Path 33" d="M144.594,88.168l5.522-16.107,2.822,1.323-.108,14.578Z" transform="translate(-9.379 -4.674)" fill="#026e3f"/>
        <path id="11a-Path_34" data-name="11a-Path 34" d="M69.3,108.159l9.2,19.788,31.293-5.063-7.363-19.327Z" transform="translate(-4.495 -6.717)" fill="#026e3f"/>
        <path id="11a-Path_35" data-name="11a-Path 35" d="M108.67,104.682l7.363,17.947,18.407-3.222.46-19.787Z" transform="translate(-7.049 -6.462)" fill="#026e3f"/>
        <path id="11a-Path_36" data-name="11a-Path 36" d="M140.1,99.867l-.92,17.947,11.655-7.041L152.2,96.34Z" transform="translate(-9.028 -6.249)" fill="#026e3f"/>
      </g>
    </g>
    <g id="11a-rosa_träd" data-name="11a-rosa träd" transform="translate(-37.642 -1)">
      <g id="11a-Group_2" data-name="11a-Group 2" clip-path="url(#11a-clip-path-2)">
        <path id="11a-Path_38" data-name="11a-Path 38" d="M223.216-9.046l-79.751,187.06s22.524,11.627,59.481,17.276c38.749,5.924,65.9,1.975,65.9,1.975L225.515-8.127Z" transform="translate(-9.306 0.587)" fill="#d13397"/>
        <path id="11a-Path_39" data-name="11a-Path 39" d="M221.3,39.493,171.441,173.264s19.269,6.611,31.931,8.324,42.112,1.549,42.112,1.549Z" transform="translate(-11.12 -2.562)" fill="#fc3429"/>
        <path id="11a-Path_40" data-name="11a-Path 40" d="M215.836,102.309,193.8,162.717s5.791,2.429,17.842,4.168a134.707,134.707,0,0,0,19.992,1.569Z" transform="translate(-12.571 -6.636)" fill="#937b32"/>
        <path id="11a-Path_41" data-name="11a-Path 41" d="M200.947,202.6l-8.392,34.553,11.353,1.48,4.443-35.541Z" transform="translate(-12.49 -13.142)" fill="#937b32"/>
      </g>
    </g>
  </g>
</svg>
