<svg width="200" height="300" viewBox="0 0 200 300" fill="none" xmlns="http://www.w3.org/2000/svg">
<g clip-path="url(#clip0_1901_35053)">
<rect width="200" height="300" fill="#A3CBBC"/>
<path d="M25.2182 130.911C5.45778 130.113 -13.3638 142.704 -13.6561 164.581C-13.9749 188.035 4.35063 199.138 20.7187 199.572C37.0868 200.006 58.9907 187.858 58.6275 164.129C58.2821 141.03 42.4454 131.637 25.2182 130.946" fill="#FDC100"/>
<path d="M24.9612 140.852C12.198 140.852 -3.14268 149.446 -3.38183 165.351C-3.61211 182.434 9.73568 190.515 21.6575 190.843C33.5793 191.171 49.7614 182.78 49.5045 165.493C49.2565 148.658 37.4941 140.852 24.9346 140.852" fill="#EB5B29"/>
<path d="M24.7661 148.959C16.1126 148.959 5.56372 154.275 5.42201 165.085C5.26258 176.666 14.2792 182.142 22.3924 182.355C30.5056 182.567 41.6479 177.747 41.4619 166.033C41.2937 154.63 33.2779 148.959 24.7661 148.959" fill="#D4103B"/>
<path d="M24.3591 156.695C19.9305 156.695 14.6162 159.416 14.501 164.909C14.4213 170.81 19.027 173.601 23.1545 173.717C27.282 173.832 32.9594 171.368 32.8974 165.396C32.8088 159.575 28.7257 156.695 24.3857 156.695" fill="#E72484"/>
<path d="M32.6133 215.698C32.6133 215.698 42.0551 113.181 120.618 51.83C187.047 -0.0400999 295.991 3.03454 295.991 3.03454L284.955 37.3606C284.955 37.3606 172.132 38.9023 140.432 82.7181C108.732 126.534 81.5227 212.163 81.5227 212.163L32.6133 215.698Z" fill="#508B36"/>
<path d="M52.9492 218.365C52.9492 218.365 61.2484 119.906 129.591 66.8482C198.074 13.7554 282.076 20.2945 282.076 20.2945L285.008 57.2344C285.008 57.2344 178.42 58.6433 148.465 100.04C118.51 141.437 92.7535 197.507 92.7535 197.507L52.9492 218.365Z" fill="#EB5B29"/>
<path d="M109.475 200.98C109.475 200.98 111.654 144.272 158.89 103.221C201.652 66.0063 271.642 67.5835 271.642 67.5835L279.755 38.7422C279.755 38.7422 189.296 38.9017 137.801 82.7706C79.4228 132.514 74.4805 216.114 74.4805 216.114L109.475 200.98Z" fill="#FDC100"/>
<path d="M88.7324 217.399C88.7324 217.399 95.9599 141.623 148.271 96.8942C205.311 48.1608 279.136 56.4455 279.136 56.4455L276.647 76.3642C276.647 76.3642 213.947 72.5718 163.186 108.404C115.632 141.995 113.223 209.336 113.223 209.336L88.7324 217.399Z" fill="#E72484"/>
<path d="M109.413 228.979C109.413 228.979 104.099 155.587 160.422 109.91C213.981 66.4933 271.553 73.5818 271.553 73.5818L273.697 103.247C273.697 103.247 222.121 95.2372 178.623 133.71C140.856 167.097 135.223 227.89 135.223 227.89L109.413 228.979Z" fill="#D4103B"/>
<path d="M131.928 223.044C131.928 223.044 127.5 162.048 174.319 124.089C218.835 87.9908 266.682 93.9629 266.682 93.9629L268.453 118.622C268.453 118.622 225.593 111.941 189.429 143.91C158.057 171.617 153.389 222.141 153.389 222.141L131.928 223.044Z" fill="#0070BA"/>
<path d="M-21.9824 198.774C4.17289 191.686 36.8471 165.99 74.2333 166.876C115.233 167.762 144.586 187.716 173.762 193.458C183.655 195.365 193.646 196.716 203.69 197.507L203.938 250.963H-21.9824V198.774Z" fill="#0070BA"/>
<path d="M-21.6895 198.695C4.44814 191.544 36.9098 166.026 74.234 166.796C115.234 167.682 144.587 187.637 173.762 193.378C183.654 195.312 193.646 196.69 203.691 197.507V250.671H-21.6806L-21.6895 198.695Z" stroke="#A9924D" stroke-width="0.66" stroke-miterlimit="10"/>
<path d="M-21.9824 188.646C-12.6026 184.739 -0.672003 181.381 16.9893 180.078C55.0752 177.278 93.852 197.799 126.473 201.104C156.224 204.126 188.934 209.655 203.894 212.313V250.928H-21.9824V188.646Z" fill="#00151D"/>
<path d="M-21.707 188.566C-12.3273 184.65 -0.724328 181.416 16.9901 180.113C55.076 177.313 93.8528 197.834 126.474 201.139C156.296 204.17 188.696 209.646 203.611 212.295V250.688L-21.6805 250.67L-21.707 188.566Z" stroke="#A9924D" stroke-width="0.66" stroke-miterlimit="10"/>
<path d="M-21.9557 243.793C-18.2342 244.367 -14.6988 244.661 -11.2166 244.661C41.336 244.661 54.4232 197.837 105.425 191.597C145.635 186.684 180.448 213.38 204 224.042V302H-22L-21.9557 243.793Z" fill="#EFE5E6"/>
<path d="M-21.9911 244.086C-18.2866 244.662 -14.9553 244.925 -11.4906 244.925C41.1983 244.925 54.3194 197.873 105.454 191.603C145.777 186.666 180.387 213.36 204 224.09V302H-22L-21.9911 244.086Z" stroke="#A9924D" stroke-width="0.66" stroke-miterlimit="10"/>
</g>
<defs>
<clipPath id="clip0_1901_35053">
<rect width="200" height="300" fill="white"/>
</clipPath>
</defs>
</svg>
