<svg xmlns="http://www.w3.org/2000/svg" xmlns:xlink="http://www.w3.org/1999/xlink" width="200" height="300" viewBox="0 0 200 300">
  <defs>
    <clipPath id="2d-clip-path">
      <rect id="2d-Rectangle_2" data-name="2d-Rectangle 2" width="467.9" height="467.901" fill="none"/>
    </clipPath>
    <clipPath id="2d-clip-path-2">
      <path id="2d-Path_4" data-name="2d-Path 4" d="M481.962,222.266l-84.355,40.164s4.564,4.936-3.92,27.96-55.926,28.821-152.87,54.267c-56.193,14.75-78.395,51.929-87.13,80.578H589.914V364.4c-26.818-5.475-52.287-9.811-61.966-29.169-15.753-31.507,9.757-46.321.061-81.462-8.033-29.121-34.37-31.615-43.161-31.615-1.817,0-2.887.107-2.887.107" transform="translate(-153.688 -222.159)" fill="none"/>
    </clipPath>
    <clipPath id="2d-clip-path-4">
      <path id="2d-Path_8" data-name="2d-Path 8" d="M227.858,261.53s.418,8.892-13.811,27.308c-10.845,14.037-35.9,23.487-85.585,37.261V424.02H504.048c-8.307-17.639-21.963-34.532-43.913-47.294-37.156-21.6-92.449-19.044-107.142-51.061-11.618-25.314,3.18-34.463-5.02-66.962-7.507-29.75-48.945-31.793-48.945-31.793Z" transform="translate(-128.462 -226.911)" fill="none"/>
    </clipPath>
    <clipPath id="2d-clip-Kort_-_artikel_2d">
      <rect width="200" height="300"/>
    </clipPath>
  </defs>
  <g id="2d-Kort_-_artikel_2d" data-name="2d-Kort - artikel 2d" clip-path="url(#2d-clip-Kort_-_artikel_2d)">
    <rect width="200" height="300" fill="#c389bb"/>
    <g id="2d-Group_12" data-name="2d-Group 12" transform="translate(-173.091 -179.135)">
      <g id="2d-Group_2" data-name="2d-Group 2" transform="translate(128.462 11.234)">
        <g id="2d-Group_1" data-name="2d-Group 1" clip-path="url(#2d-clip-path)">
          <path id="2d-Path_1" data-name="2d-Path 1" d="M149.243,462.3s-4.225-92.2,92.718-117.643,144.388-31.243,152.871-54.268,3.92-27.96,3.92-27.96l84.354-40.162s36.353-3.635,46.048,31.507-15.816,49.956-.063,81.462,73.324,23.218,110.48,44.819c77.09,44.819,73.5,122.808,73.5,122.808Z" transform="translate(-123.159 42.667)" fill="#168bcf"/>
        </g>
      </g>
      <g id="2d-Group_4" data-name="2d-Group 4" transform="translate(160.134 276.06)">
        <g id="2d-Group_3" data-name="2d-Group 3" transform="translate(0 0)" clip-path="url(#2d-clip-path-2)">
          <path id="2d-Path_2" data-name="2d-Path 2" d="M462.023,220.728s26.732,14.332,18.664,45.706-34.275,48.548-17.242,79.028,66.332,27.789,98.6,55.577,39.442,100.395,39.442,100.395l-436.544,12.55,26.891-222.307L333.466,261.2Z" transform="translate(-150.812 -222.525)" fill="#004a8b"/>
          <path id="2d-Path_3" data-name="2d-Path 3" d="M444.717,231.169s16.328.875,7.2,32.046-53.05,32.068-53.946,76.888S458.931,391.2,479.547,416.3s17.033,50.2,17.033,50.2l-324.5,5.378,22.41-160.456Z" transform="translate(-148.987 -219.857)" fill="#244242"/>
        </g>
      </g>
      <g id="2d-Group_6" data-name="2d-Group 6" transform="translate(128.462 11.234)">
        <g id="2d-Group_5" data-name="2d-Group 5" clip-path="url(#2d-clip-path)">
          <path id="2d-Path_5" data-name="2d-Path 5" d="M.028,461.98S-4.2,369.786,92.746,344.34s139.128-36.087,154.131-55.5c14.229-18.416,13.811-27.308,13.811-27.308l71.169-34.62s41.438,2.043,48.945,31.794c8.2,32.5-6.6,41.648,5.021,66.962,14.691,32.016,69.984,29.456,107.141,51.061,77.089,44.819,51.9,140.621,51.9,140.621Z" transform="translate(-161.29 43.881)" fill="#c7dfd5"/>
        </g>
      </g>
      <g id="2d-Group_8" data-name="2d-Group 8" transform="translate(128.462 282.026)">
        <g id="2d-Group_7" data-name="2d-Group 7" clip-path="url(#2d-clip-path-4)">
          <path id="2d-Path_6" data-name="2d-Path 6" d="M321.476,220.776S343.6,228.465,343.6,263.62c0,32.394-44.653,51.551-27.622,82.03S388.068,374.7,421.5,401.086C465.8,436.049,460.941,501.48,460.941,501.48L24.4,514.031,51.287,291.723l141.629-30.476Z" transform="translate(-155.056 -228.479)" fill="#0086d4"/>
          <path id="2d-Path_7" data-name="2d-Path 7" d="M295.5,231.883s18.271,2.748,9.145,33.921-59.37,31.348-60.266,76.169,65.335,49.939,85.951,75.038,17.031,50.2,17.031,50.2l-324.5,5.38,22.41-160.457Z" transform="translate(-155.446 -225.64)" fill="#007589"/>
        </g>
      </g>
      <g id="2d-Group_10" data-name="2d-Group 10" transform="translate(128.462 11.234)">
        <g id="2d-Group_9" data-name="2d-Group 9" clip-path="url(#2d-clip-path)">
          <path id="2d-Path_9" data-name="2d-Path 9" d="M219.206,219.984c-.336.084-1.468-1.215-3.39-1.6-2.669-.526-6.572-.486-8.559-4.263-1.46-2.771,1.036-5.641,3.75-5.776,2.144-.107,3.529,1.286,3.768,1.173a5.672,5.672,0,0,1,2.9-3.607c2.448-1.214,5.625-.036,6.121,2.481.7,3.554-2.29,5.9-3.656,8.682-.869,1.77-.619,2.82-.938,2.905" transform="translate(-108.437 38.393)" fill="#0086d4"/>
          <path id="2d-Path_10" data-name="2d-Path 10" d="M305.168,235.377c-.409.108-1.8-1.488-4.156-1.951-3.277-.647-8.063-.6-10.5-5.232-1.793-3.4,1.271-6.919,4.6-7.084,2.63-.131,4.332,1.577,4.629,1.439.264-.124.341-2.825,3.559-4.427,3-1.49,6.9-.043,7.512,3.047.859,4.359-2.811,7.236-4.49,10.647-1.065,2.173-.757,3.459-1.15,3.561" transform="translate(-87.187 41.484)" fill="#007589"/>
          <path id="2d-Path_11" data-name="2d-Path 11" d="M224.794,238.984c-.6.159-2.639-2.18-6.093-2.861-4.8-.947-11.818-.876-15.392-7.666-2.622-4.984,1.866-10.141,6.744-10.382,3.853-.19,6.348,2.309,6.78,2.109.392-.183.5-4.142,5.217-6.486,4.4-2.186,10.113-.069,11.007,4.462,1.261,6.389-4.116,10.608-6.578,15.609-1.561,3.185-1.11,5.069-1.685,5.216" transform="translate(-109.533 40.283)" fill="#eaa700"/>
          <path id="2d-Path_12" data-name="2d-Path 12" d="M259.037,280.514c-.815.217-3.58-2.963-8.264-3.887-6.521-1.286-16.046-1.187-20.9-10.406-3.561-6.765,2.529-13.768,9.15-14.091,5.233-.26,8.616,3.135,9.206,2.86.532-.246.678-5.625,7.081-8.805,5.983-2.969,13.728-.094,14.945,6.062,1.709,8.67-5.588,14.394-8.927,21.182-2.123,4.322-1.514,6.882-2.293,7.085" transform="translate(-102.816 48.505)" fill="#c7dfd5"/>
          <path id="2d-Path_13" data-name="2d-Path 13" d="M223.856,273.283c-.561.149-2.447-2.019-5.65-2.651-4.452-.883-10.96-.816-14.276-7.113-2.433-4.627,1.729-9.408,6.25-9.631,3.574-.18,5.886,2.146,6.289,1.954.362-.166.462-3.842,4.84-6.013,4.088-2.03,9.379-.063,10.208,4.138,1.169,5.926-3.816,9.837-6.1,14.475-1.445,2.956-1.03,4.7-1.562,4.84" transform="translate(-109.36 49.532)" fill="#c7dfd5"/>
          <path id="2d-Path_14" data-name="2d-Path 14" d="M211.3,292.179c-.726.193-3.183-2.633-7.347-3.453-5.8-1.145-14.267-1.058-18.581-9.257-3.166-6.017,2.25-12.239,8.135-12.528,4.653-.229,7.663,2.787,8.187,2.542.471-.219.6-5,6.3-7.827,5.318-2.643,12.205-.087,13.285,5.388,1.519,7.71-4.964,12.8-7.938,18.836-1.886,3.846-1.343,6.118-2.036,6.3" transform="translate(-114.157 52.492)" fill="#eaa700"/>
          <path id="2d-Path_15" data-name="2d-Path 15" d="M252.751,250.964c-.737.193-3.251-2.691-7.508-3.529-5.921-1.168-14.573-1.08-18.98-9.453-3.234-6.15,2.3-12.507,8.309-12.8,4.757-.239,7.832,2.846,8.366,2.6.486-.226.614-5.108,6.428-8,5.439-2.7,12.471-.085,13.577,5.5,1.553,7.877-5.077,13.078-8.1,19.242-1.932,3.927-1.374,6.253-2.088,6.438" transform="translate(-103.714 41.786)" fill="#c7dfd5"/>
          <path id="2d-Path_16" data-name="2d-Path 16" d="M453.752,236.23c-.318.083-1.4-1.163-3.242-1.523-2.558-.5-6.29-.466-8.2-4.083-1.392-2.655,1-5.4,3.593-5.527,2.052-.1,3.377,1.228,3.609,1.121a5.408,5.408,0,0,1,2.779-3.453c2.344-1.164,5.381-.036,5.86,2.378.67,3.4-2.193,5.644-3.5,8.307-.834,1.7-.594,2.7-.9,2.78" transform="translate(-48.364 42.704)" fill="#c7dfd5"/>
          <path id="2d-Path_17" data-name="2d-Path 17" d="M258.407,227.041c-.584.154-2.566-2.126-5.929-2.791-4.673-.919-11.508-.848-14.989-7.46-2.551-4.855,1.818-9.875,6.565-10.11,3.753-.185,6.182,2.25,6.6,2.053.383-.177.486-4.033,5.076-6.314,4.291-2.129,9.846-.069,10.719,4.344,1.225,6.224-4.005,10.326-6.4,15.2-1.518,3.1-1.079,4.937-1.641,5.082" transform="translate(-100.793 37.406)" fill="#db1778"/>
          <path id="2d-Path_18" data-name="2d-Path 18" d="M211.186,255.986c-.645.171-2.829-2.337-6.526-3.067-5.148-1.016-12.671-.939-16.5-8.22-2.815-5.34,1.994-10.867,7.223-11.124,4.131-.2,6.8,2.475,7.268,2.257.418-.192.535-4.438,5.591-6.952,4.725-2.344,10.839-.073,11.8,4.786,1.348,6.845-4.412,11.365-7.05,16.726-1.675,3.414-1.193,5.43-1.808,5.593" transform="translate(-113.419 44.147)" fill="#004a8b"/>
          <path id="2d-Path_19" data-name="2d-Path 19" d="M270.245,222.823c-.449.117-1.97-1.633-4.555-2.143-3.592-.711-8.836-.654-11.513-5.735-1.964-3.729,1.392-7.585,5.04-7.763,2.888-.144,4.751,1.725,5.075,1.574.292-.137.373-3.1,3.9-4.853,3.3-1.637,7.565-.051,8.233,3.339.944,4.782-3.077,7.935-4.921,11.675-1.165,2.384-.826,3.792-1.259,3.906" transform="translate(-96.485 37.836)" fill="#c7dfd5"/>
          <path id="2d-Path_20" data-name="2d-Path 20" d="M230.848,219.425c-.305.08-1.333-1.1-3.079-1.448-2.431-.481-5.98-.442-7.783-3.878-1.325-2.521.939-5.13,3.4-5.251,1.95-.1,3.214,1.17,3.433,1.067a5.153,5.153,0,0,1,2.638-3.278c2.227-1.11,5.115-.039,5.57,2.256.634,3.233-2.087,5.362-3.328,7.892-.793,1.61-.562,2.564-.854,2.639" transform="translate(-105.173 38.588)" fill="#c7dfd5"/>
          <path id="2d-Path_21" data-name="2d-Path 21" d="M223.506,286.506c-.224.059-.981-.814-2.262-1.066-1.788-.35-4.4-.324-5.729-2.848-.973-1.854.694-3.775,2.506-3.863a5.584,5.584,0,0,1,2.526.785,3.775,3.775,0,0,1,1.937-2.409c1.64-.816,3.767-.029,4.094,1.655.471,2.377-1.528,3.946-2.443,5.806-.581,1.184-.416,1.886-.629,1.941" transform="translate(-106.29 56.625)" fill="#c7dfd5"/>
          <path id="2d-Path_22" data-name="2d-Path 22" d="M231.6,278.672c-.531.136-2.344-1.945-5.416-2.55-4.274-.846-10.519-.778-13.7-6.823-2.329-4.438,1.657-9.025,6-9.237,3.429-.175,5.645,2.052,6.033,1.876.353-.164.448-3.691,4.646-5.774,3.919-1.946,8.993-.063,9.794,3.974,1.119,5.684-3.664,9.439-5.852,13.888-1.392,2.83-.991,4.511-1.5,4.647" transform="translate(-107.166 51.159)" fill="#c7dfd5"/>
          <path id="2d-Path_23" data-name="2d-Path 23" d="M230.215,247.393c-.584.151-2.568-2.126-5.929-2.789-4.678-.924-11.507-.853-14.989-7.467-2.554-4.853,1.816-9.87,6.563-10.1,3.757-.188,6.184,2.249,6.607,2.05.378-.177.483-4.032,5.077-6.317,4.289-2.129,9.846-.067,10.716,4.348,1.225,6.22-4.006,10.323-6.4,15.2-1.523,3.1-1.087,4.933-1.645,5.081" transform="translate(-107.998 42.606)" fill="#db1778"/>
          <path id="2d-Path_24" data-name="2d-Path 24" d="M196.388,256.089c-.368.1-1.617-1.332-3.733-1.755-2.947-.579-7.246-.532-9.437-4.7-1.607-3.052,1.141-6.212,4.135-6.361,2.36-.114,3.89,1.416,4.153,1.292.241-.112.305-2.536,3.2-3.974,2.7-1.342,6.2-.044,6.747,2.736.771,3.911-2.525,6.5-4.034,9.566-.954,1.952-.678,3.109-1.032,3.2" transform="translate(-114.591 47.241)" fill="#6ca218"/>
          <path id="2d-Path_25" data-name="2d-Path 25" d="M232.845,268.176c-.737.195-3.252-2.693-7.507-3.532-5.926-1.166-14.576-1.078-18.984-9.452-3.233-6.148,2.3-12.5,8.314-12.8,4.756-.239,7.828,2.846,8.363,2.6.48-.223.614-5.109,6.431-8,5.431-2.7,12.47-.087,13.572,5.5,1.551,7.879-5.075,13.078-8.11,19.246-1.929,3.924-1.371,6.25-2.08,6.435" transform="translate(-108.801 46.184)" fill="#0086d4"/>
          <path id="2d-Path_26" data-name="2d-Path 26" d="M207.436,266.351c-.441.118-1.944-1.608-4.49-2.109-3.541-.7-8.711-.645-11.345-5.655-1.935-3.671,1.372-7.473,4.967-7.648,2.844-.144,4.682,1.7,5,1.551.285-.133.365-3.052,3.843-4.779,3.247-1.613,7.457-.053,8.112,3.286.928,4.712-3.033,7.819-4.846,11.507-1.151,2.345-.822,3.735-1.244,3.847" transform="translate(-112.473 49.033)" fill="#e64d2d"/>
          <path id="2d-Path_27" data-name="2d-Path 27" d="M254.227,257.62c-.566.147-2.495-2.069-5.767-2.716-4.551-.9-11.194-.827-14.582-7.263-2.487-4.723,1.763-9.6,6.384-9.833,3.654-.182,6.015,2.187,6.426,2,.37-.173.471-3.922,4.941-6.145,4.173-2.074,9.581-.068,10.426,4.226,1.2,6.054-3.893,10.051-6.229,14.784-1.478,3.02-1.051,4.8-1.6,4.949" transform="translate(-101.711 45.395)" fill="#eaa700"/>
          <path id="2d-Path_28" data-name="2d-Path 28" d="M282.766,254.49c-.816.212-3.577-2.961-8.264-3.888-6.52-1.286-16.043-1.186-20.9-10.408-3.559-6.761,2.53-13.763,9.152-14.088,5.232-.257,8.617,3.136,9.2,2.86.531-.249.675-5.622,7.079-8.8,5.984-2.968,13.732-.094,14.942,6.061,1.711,8.67-5.585,14.391-8.924,21.184-2.124,4.322-1.513,6.882-2.293,7.085" transform="translate(-96.751 41.855)" fill="#6ca218"/>
          <path id="2d-Path_29" data-name="2d-Path 29" d="M296.986,251.31c-.573.148-2.5-2.067-5.769-2.715-4.554-.893-11.2-.827-14.584-7.26-2.485-4.722,1.764-9.607,6.384-9.838,3.655-.18,6.013,2.191,6.423,2,.372-.173.471-3.922,4.943-6.143,4.176-2.072,9.58-.067,10.426,4.227,1.2,6.05-3.895,10.048-6.227,14.784-1.479,3.016-1.052,4.8-1.6,4.946" transform="translate(-90.786 43.784)" fill="#db1778"/>
          <path id="2d-Path_30" data-name="2d-Path 30" d="M271.859,260.4c-.581.151-2.569-2.126-5.934-2.79-4.669-.924-11.5-.851-14.982-7.464-2.554-4.855,1.813-9.871,6.563-10.107,3.753-.188,6.184,2.247,6.6,2.053.387-.18.486-4.035,5.077-6.315,4.291-2.131,9.847-.069,10.721,4.347,1.225,6.221-4.009,10.323-6.4,15.195-1.523,3.1-1.084,4.933-1.646,5.082" transform="translate(-97.356 45.932)" fill="#de2218"/>
          <path id="2d-Path_31" data-name="2d-Path 31" d="M268.919,235.658c-.4.106-1.738-1.434-4.008-1.883-3.163-.624-7.779-.576-10.138-5.045-1.723-3.283,1.229-6.677,4.44-6.834,2.54-.124,4.182,1.519,4.465,1.386.257-.122.329-2.726,3.434-4.269,2.9-1.44,6.659-.044,7.247,2.939.827,4.2-2.711,6.982-4.33,10.273-1.026,2.1-.731,3.336-1.109,3.433" transform="translate(-96.314 41.717)" fill="#eaa700"/>
          <path id="2d-Path_32" data-name="2d-Path 32" d="M244.441,232.426c-.422.114-1.866-1.543-4.315-2.024-3.4-.67-8.371-.621-10.9-5.433-1.861-3.528,1.321-7.184,4.774-7.352,2.731-.136,4.5,1.633,4.8,1.493.279-.131.354-2.935,3.7-4.6,3.121-1.549,7.165-.048,7.8,3.164.893,4.525-2.917,7.512-4.659,11.054-1.107,2.256-.79,3.592-1.2,3.7" transform="translate(-102.853 40.556)" fill="#007589"/>
          <path id="2d-Path_33" data-name="2d-Path 33" d="M292.693,228.27c-.573.152-2.506-2.065-5.774-2.712-4.554-.9-11.2-.829-14.584-7.262-2.485-4.721,1.763-9.606,6.388-9.835,3.65-.182,6.01,2.187,6.421,2,.374-.176.476-3.924,4.943-6.146,4.176-2.074,9.584-.068,10.429,4.23,1.2,6.049-3.9,10.047-6.229,14.784-1.479,3.015-1.052,4.8-1.593,4.942" transform="translate(-91.884 37.896)" fill="#004a8b"/>
          <path id="2d-Path_34" data-name="2d-Path 34" d="M278.289,230.654c-.387.1-1.7-1.4-3.919-1.841-3.091-.613-7.609-.566-9.906-4.934-1.69-3.21,1.2-6.53,4.334-6.683,2.482-.123,4.086,1.49,4.367,1.357.251-.118.319-2.667,3.357-4.173,2.836-1.411,6.507-.045,7.084,2.873.81,4.113-2.648,6.828-4.231,10.042-1,2.05-.716,3.267-1.086,3.36" transform="translate(-93.835 40.536)" fill="#c7dfd5"/>
          <path id="2d-Path_35" data-name="2d-Path 35" d="M191.768,269.2c-.387.1-1.691-1.4-3.9-1.836-3.081-.608-7.571-.56-9.859-4.912-1.68-3.193,1.191-6.5,4.314-6.651,2.467-.121,4.068,1.482,4.343,1.351.254-.117.321-2.652,3.341-4.15,2.82-1.406,6.479-.048,7.052,2.858.8,4.089-2.639,6.789-4.215,10-1,2.036-.709,3.243-1.077,3.344" transform="translate(-115.927 50.407)" fill="#0086d4"/>
          <path id="2d-Path_36" data-name="2d-Path 36" d="M240.485,277.011c-.326.085-1.424-1.171-3.283-1.541-2.589-.512-6.367-.471-8.293-4.131-1.415-2.683,1-5.463,3.63-5.6,2.078-.1,3.42,1.249,3.655,1.14a5.473,5.473,0,0,1,2.812-3.5c2.37-1.176,5.447-.035,5.929,2.406.678,3.443-2.219,5.714-3.546,8.411-.839,1.714-.6,2.729-.9,2.809" transform="translate(-102.9 53.083)" fill="#004a8b"/>
          <path id="2d-Path_37" data-name="2d-Path 37" d="M353.681,225.51c.394-.235.237-2.507,1.677-4.658,2-2.987,5.684-6.6,4.013-11.983-1.227-3.952-6.241-4.3-8.9-1.892-2.1,1.907-2.1,4.5-2.426,4.619-.3.113-2.411-1.892-6.084-.657-3.423,1.153-5.291,5.222-3.4,8.039,2.666,3.974,7.653,3.372,11.53,4.694,2.465.841,3.212,2.054,3.59,1.837" transform="translate(-74.965 38.4)" fill="#0086d4"/>
          <path id="2d-Path_38" data-name="2d-Path 38" d="M389.119,222.514c.613-.357.369-3.893,2.607-7.233,3.111-4.638,8.835-10.248,6.238-18.615-1.91-6.145-9.7-6.683-13.829-2.939-3.263,2.958-3.261,6.992-3.772,7.18-.465.167-3.748-2.943-9.448-1.026-5.322,1.792-8.221,8.112-5.285,12.491,4.145,6.176,11.889,5.241,17.915,7.29,3.833,1.311,4.991,3.2,5.573,2.851" transform="translate(-68.154 34.799)" fill="#eaa700"/>
          <path id="2d-Path_39" data-name="2d-Path 39" d="M441.608,236.362c.752-.439.451-4.8,3.21-8.914,3.841-5.728,10.893-12.641,7.69-22.961-2.352-7.576-11.952-8.238-17.047-3.62-4.03,3.649-4.023,8.621-4.656,8.85-.566.207-4.62-3.627-11.649-1.263-6.565,2.206-10.137,10-6.515,15.4,5.11,7.612,14.658,6.46,22.089,8.987,4.725,1.612,6.153,3.939,6.877,3.517" transform="translate(-56.21 36.483)" fill="#c7dfd5"/>
          <path id="2d-Path_40" data-name="2d-Path 40" d="M405.761,287.624c.835-.485.5-5.285,3.534-9.812,4.224-6.305,11.994-13.916,8.469-25.28-2.59-8.333-13.161-9.071-18.768-3.985-4.435,4.017-4.425,9.488-5.121,9.743-.629.232-5.089-3.994-12.829-1.389-7.227,2.431-11.157,11.009-7.17,16.96,5.622,8.379,16.138,7.108,24.315,9.892,5.2,1.778,6.78,4.333,7.571,3.871" transform="translate(-66.154 48.593)" fill="#c7dfd5"/>
          <path id="2d-Path_41" data-name="2d-Path 41" d="M419.044,257.122c.5-.289.3-3.168,2.124-5.89,2.535-3.785,7.2-8.356,5.081-15.176-1.557-5.011-7.9-5.448-11.267-2.4-2.662,2.408-2.656,5.7-3.075,5.85-.375.137-3.054-2.4-7.7-.831-4.34,1.46-6.7,6.608-4.305,10.179,3.375,5.033,9.688,4.274,14.6,5.941,3.121,1.072,4.068,2.608,4.543,2.325" transform="translate(-59.342 45.115)" fill="#c7dfd5"/>
          <path id="2d-Path_43" data-name="2d-Path 43" d="M377.654,263.139c.752-.439.451-4.8,3.213-8.914,3.837-5.723,10.892-12.638,7.688-22.958-2.354-7.577-11.95-8.241-17.047-3.626-4.033,3.649-4.024,8.624-4.654,8.857-.575.207-4.62-3.628-11.649-1.268-6.565,2.215-10.137,10-6.516,15.408,5.108,7.611,14.657,6.457,22.08,8.99,4.732,1.608,6.157,3.937,6.885,3.512" transform="translate(-72.553 43.326)" fill="#c7dfd5"/>
          <path id="2d-Path_45" data-name="2d-Path 45" d="M413.754,237.116c.658-.383.4-4.17,2.792-7.747,3.336-4.976,9.472-10.989,6.681-19.958-2.039-6.584-10.385-7.162-14.813-3.149-3.5,3.17-3.494,7.492-4.045,7.693-.493.181-4.016-3.151-10.128-1.1-5.705,1.922-8.81,8.693-5.662,13.393,4.438,6.615,12.742,5.611,19.2,7.809,4.109,1.4,5.349,3.424,5.976,3.056" transform="translate(-62.311 37.96)" fill="#c7dfd5"/>
          <path id="2d-Path_47" data-name="2d-Path 47" d="M366.686,221.164c.309-.18.183-1.969,1.315-3.654,1.574-2.352,4.47-5.185,3.151-9.415-.963-3.107-4.9-3.384-6.987-1.493-1.652,1.5-1.651,3.541-1.91,3.635-.239.088-1.9-1.487-4.777-.517-2.694.9-4.16,4.1-2.676,6.32,2.1,3.121,6.015,2.644,9.061,3.684,1.941.659,2.525,1.616,2.822,1.44" transform="translate(-70.773 38.388)" fill="#c7dfd5"/>
          <path id="2d-Path_48" data-name="2d-Path 48" d="M424.954,204.356c.23-.132.136-1.448.967-2.688,1.161-1.725,3.291-3.816,2.325-6.922-.712-2.285-3.607-2.49-5.143-1.1-1.217,1.1-1.215,2.6-1.4,2.673a4.32,4.32,0,0,0-3.511-.379c-1.981.665-3.065,3.018-1.97,4.642,1.542,2.3,4.422,1.951,6.662,2.716,1.425.482,1.859,1.185,2.074,1.057" transform="translate(-55.039 35.158)" fill="#c7dfd5"/>
          <path id="2d-Path_49" data-name="2d-Path 49" d="M389.138,243.013c.592-.348.357-3.789,2.534-7.039,3.032-4.524,8.6-9.98,6.073-18.131-1.858-5.98-9.439-6.5-13.458-2.858-3.184,2.88-3.177,6.809-3.677,6.99-.448.163-3.645-2.865-9.2-1-5.183,1.743-8,7.9-5.143,12.165,4.037,6.01,11.572,5.1,17.441,7.1,3.732,1.272,4.861,3.1,5.432,2.773" transform="translate(-67.984 40.247)" fill="#db1778"/>
          <path id="2d-Path_50" data-name="2d-Path 50" d="M451.791,229.206c.379-.218.229-2.381,1.595-4.431,1.913-2.848,5.424-6.283,3.824-11.415-1.168-3.764-5.935-4.1-8.474-1.8-2,1.814-2,4.286-2.309,4.4-.286.105-2.3-1.8-5.794-.623-3.262,1.1-5.04,4.969-3.237,7.656,2.534,3.782,7.286,3.207,10.981,4.467,2.345.8,3.058,1.959,3.414,1.746" transform="translate(-49.699 39.589)" fill="#6ca218"/>
          <path id="2d-Path_51" data-name="2d-Path 51" d="M425.573,241.384c.448-.261.269-2.869,1.92-5.327,2.293-3.425,6.511-7.557,4.593-13.726-1.4-4.529-7.143-4.927-10.185-2.166-2.413,2.18-2.407,5.154-2.787,5.292-.339.124-2.76-2.168-6.962-.752-3.925,1.318-6.064,5.978-3.9,9.2,3.057,4.551,8.765,3.86,13.2,5.375,2.826.964,3.682,2.35,4.114,2.1" transform="translate(-57.184 41.714)" fill="#e64d2d"/>
          <path id="2d-Path_52" data-name="2d-Path 52" d="M383.412,269.762c.576-.34.344-3.686,2.461-6.849,2.952-4.4,8.372-9.709,5.91-17.639-1.807-5.822-9.182-6.332-13.1-2.784-3.1,2.8-3.091,6.624-3.574,6.8-.438.158-3.549-2.785-8.949-.972-5.047,1.7-7.791,7.683-5.007,11.833,3.925,5.851,11.26,4.968,16.967,6.906,3.635,1.242,4.727,3.028,5.288,2.7" transform="translate(-69.282 47.292)" fill="#eaa700"/>
          <path id="2d-Path_53" data-name="2d-Path 53" d="M349.556,260.641c.4-.235.244-2.56,1.714-4.756,2.049-3.057,5.814-6.749,4.111-12.26-1.26-4.04-6.382-4.4-9.1-1.934-2.15,1.951-2.15,4.6-2.487,4.727-.306.108-2.466-1.937-6.217-.673-3.5,1.178-5.413,5.344-3.477,8.225,2.723,4.062,7.826,3.446,11.788,4.795,2.522.864,3.285,2.1,3.67,1.876" transform="translate(-76.11 47.262)" fill="#6ca218"/>
          <path id="2d-Path_54" data-name="2d-Path 54" d="M367.1,242.308c.434-.247.26-2.751,1.849-5.118,2.2-3.286,6.256-7.261,4.412-13.188-1.347-4.352-6.865-4.736-9.789-2.082-2.316,2.1-2.31,4.951-2.673,5.085-.329.118-2.657-2.085-6.695-.727-3.772,1.271-5.827,5.749-3.743,8.852,2.934,4.376,8.42,3.711,12.689,5.163,2.715.929,3.538,2.26,3.95,2.015" transform="translate(-71.945 42.179)" fill="#007589"/>
          <path id="2d-Path_55" data-name="2d-Path 55" d="M409,221.651c.584-.339.355-3.689,2.471-6.852,2.952-4.4,8.371-9.712,5.909-17.639-1.807-5.818-9.181-6.333-13.1-2.782-3.091,2.8-3.085,6.621-3.568,6.8-.444.161-3.553-2.787-8.955-.971-5.045,1.7-7.792,7.684-5,11.837,3.919,5.848,11.262,4.961,16.969,6.907,3.627,1.239,4.73,3.023,5.278,2.7" transform="translate(-62.742 34.997)" fill="#004a8b"/>
          <path id="2d-Path_56" data-name="2d-Path 56" d="M422.439,214.239c.3-.176.176-1.882,1.262-3.5,1.505-2.245,4.275-4.964,3.018-9.01-.927-2.971-4.692-3.236-6.7-1.424-1.574,1.435-1.576,3.384-1.821,3.475a5.614,5.614,0,0,0-4.574-.495c-2.58.871-3.981,3.925-2.558,6.044,2,2.991,5.752,2.535,8.672,3.526,1.849.637,2.414,1.551,2.7,1.384" transform="translate(-56.388 36.791)" fill="#de2218"/>
          <path id="2d-Path_57" data-name="2d-Path 57" d="M366.128,273.164c.59-.347.354-3.792,2.536-7.045,3.025-4.515,8.6-9.975,6.069-18.124-1.861-5.983-9.437-6.508-13.461-2.86-3.183,2.876-3.176,6.808-3.672,6.991-.458.164-3.652-2.866-9.2-1-5.187,1.746-8.007,7.9-5.145,12.166,4.034,6.013,11.575,5.1,17.441,7.1,3.729,1.271,4.854,3.11,5.433,2.774" transform="translate(-73.865 47.952)" fill="#de2218"/>
          <path id="2d-Path_58" data-name="2d-Path 58" d="M441.861,264.867c.743-.432.444-4.7,3.146-8.722,3.755-5.6,10.663-12.375,7.525-22.478-2.3-7.415-11.7-8.063-16.684-3.546-3.942,3.573-3.937,8.441-4.559,8.665-.554.2-4.517-3.552-11.4-1.234-6.426,2.161-9.923,9.787-6.376,15.078,5,7.45,14.346,6.325,21.622,8.8,4.624,1.583,6.025,3.857,6.728,3.443" transform="translate(-55.981 43.975)" fill="#eaa700"/>
          <path id="2d-Path_59" data-name="2d-Path 59" d="M407.623,260.959c.755-.438.452-4.8,3.21-8.914,3.841-5.728,10.9-12.642,7.694-22.961-2.354-7.573-11.953-8.238-17.047-3.618-4.033,3.649-4.024,8.622-4.658,8.85-.568.206-4.618-3.63-11.648-1.263-6.567,2.207-10.14,10-6.515,15.4,5.111,7.614,14.659,6.46,22.089,8.991,4.726,1.608,6.153,3.937,6.874,3.514" transform="translate(-64.895 42.769)" fill="#0086d4"/>
        </g>
      </g>
    </g>
  </g>
</svg>
