<svg xmlns="http://www.w3.org/2000/svg" xmlns:xlink="http://www.w3.org/1999/xlink" width="200" height="300" viewBox="0 0 200 300">
  <defs>
    <clipPath id="34-clip-path">
      <path id="34-Path_20" data-name="34-Path 20" d="M147.171,41.387c-1.687,10.122.575,48.687.575,52.905s-5.126,4.905-5.628-.264c-.566-5.837-3-37.764-4.435-46.6-1.726-10.64-15.813-10.352-17.251,2.012-1,8.576.951,33.518,2.389,55.083.833,12.487,1.7,21.382-4.916,26.27-4.811,3.556-11.734,4.081-19.324-6.883s-22.6-18.63-27.6-8.626c-1.725,3.451,7.193,10.4,15.527,27.315,5.788,11.747,17.713,28.53,26.286,36.155,16.793,14.934,57.662,25.17,82.634-.6,15.694-16.193,17.295-34.006,18.528-60.43.914-19.565,4.2-51.794,3.666-61.1-.576-10.063-14.186-11.765-15.873-.8s-4.511,37.157-5.06,40.488c-.661,4-5.613,4.189-5.52-1.448.109-6.657.837-42.771,0-50.317-1.151-10.35-16.1-12.363-16.964-.862-.966,12.866-2.3,43.417-2.3,49.454,0,5.335-5.107,5.007-5.4.315-.381-6.095-1.918-45.649-2.65-52.357-.6-5.5-4.045-7.991-7.661-7.991-3.962,0-8.134,2.987-9.016,8.278" transform="translate(-70.759 -33.109)" fill="none"/>
    </clipPath>
    <clipPath id="34-clip-path-2">
      <path id="34-Path_40" data-name="34-Path 40" d="M48.652,22.07c-.421,3.851-1.3,26.551-1.52,30.05-.169,2.692-3.1,2.881-3.1-.181,0-3.464-.766-21-1.321-28.384-.495-6.6-9.075-5.446-9.735.5-.483,4.33-.064,25.057,0,28.878.053,3.235-2.788,3.127-3.169.831-.316-1.911-1.935-16.942-2.9-23.236s-8.781-5.317-9.11.459c-.3,5.338,1.579,23.835,2.1,35.064.706,15.166,1.625,25.389,10.632,34.683,14.333,14.79,37.788,8.915,47.426.344,4.921-4.377,11.765-14.01,15.086-20.751,4.783-9.709,9.9-13.7,8.91-15.677C99.083,58.9,90.469,63.3,86.111,69.6S77.78,75.588,75.02,73.548c-3.8-2.806-3.3-7.911-2.822-15.078.826-12.377,1.945-26.692,1.372-31.613-.826-7.1-8.91-7.262-9.9-1.155-.823,5.073-2.222,23.4-2.547,26.745-.287,2.967-3.23,2.574-3.23.153s1.3-24.556.33-30.363a5.413,5.413,0,0,0-5.174-4.752c-2.076,0-4.051,1.429-4.4,4.586" transform="translate(-17.76 -17.484)" fill="none"/>
    </clipPath>
    <clipPath id="34-clip-Artboard_1">
      <rect width="200" height="300"/>
    </clipPath>
  </defs>
  <g id="34-Artboard_1" data-name="34-Artboard – 1" clip-path="url(#34-clip-Artboard_1)">
    <rect width="200" height="300" fill="#fff"/>
    <g id="34-Group_6" data-name="34-Group 6" transform="translate(-10.639)">
      <rect id="34-bg" width="200" height="300" transform="translate(10.639)" fill="#c09f9b"/>
      <path id="34-Path_1" data-name="34-Path 1" d="M120.431,49.439c-1,8.576.951,33.518,2.389,55.083.832,12.486,1.7,21.383-4.917,26.27-4.81,3.557-11.734,4.08-19.324-6.883s-22.6-18.63-27.6-8.626c-1.726,3.451,7.192,10.4,15.526,27.315,5.788,11.747,17.713,28.53,26.286,36.155,16.793,14.934,57.662,25.17,82.634-.6,15.694-16.194,17.294-34.008,18.527-60.43.915-19.564,4.2-51.794,3.667-61.1-.576-10.063-14.186-11.765-15.873-.8s-4.511,37.157-5.06,40.487c-.661,4-5.614,4.19-5.52-1.447.11-6.658.838-42.772,0-50.318-1.151-10.35-16.1-12.363-16.963-.862-.967,12.866-2.3,43.417-2.3,49.454,0,5.335-5.107,5.007-5.4.315-.381-6.095-1.918-45.649-2.65-52.357-1.262-11.525-14.991-9.834-16.677.287s.574,48.688.574,52.905-5.126,4.9-5.627-.264c-.566-5.837-3-37.764-4.436-46.6-1.726-10.639-15.813-10.351-17.251,2.013" transform="translate(-12.337 -5.772)" fill="#e4c903"/>
      <g id="34-Group_2" data-name="34-Group 2" transform="translate(58.423 27.337)">
        <g id="34-Group_1" data-name="34-Group 1" clip-path="url(#34-clip-path)">
          <path id="34-Path_2" data-name="34-Path 2" d="M85.433,225.148c-4.643-.316-20.783,4.831-35.884-4.795-18.936-12.064-12.449-28.071-13.173-40.7-.387-6.8-9.012-20.5-1.849-35.356,7.388-15.332,19.551-13.292,28.33-19.267,5.852-3.985,18.894-16.243,35.4-14.145,19.457,2.47,26,18.13,30.458,21.806,5.74,4.731,19.836,9.21,24.176,28.4,4.652,20.539-8.523,27.943-12.505,34.192s-2.927,23.269-16.6,30.742c-12.536,6.849-33.711-.561-38.353-.876" transform="translate(-63.948 -46.627)" fill="#0b4da0"/>
          <path id="34-Path_3" data-name="34-Path 3" d="M85.433,225.148c-4.643-.316-20.783,4.831-35.884-4.795-18.936-12.064-12.449-28.071-13.173-40.7-.387-6.8-9.012-20.5-1.849-35.356,7.388-15.332,19.551-13.292,28.33-19.267,5.852-3.985,18.894-16.243,35.4-14.145,19.457,2.47,26,18.13,30.458,21.806,5.74,4.731,19.836,9.21,24.176,28.4,4.652,20.539-8.523,27.943-12.505,34.192s-2.927,23.269-16.6,30.742c-12.536,6.849-33.711-.561-38.353-.876Z" transform="translate(-63.948 -46.627)" fill="none" stroke="#937b32" stroke-width="0.689"/>
          <path id="34-Path_4" data-name="34-Path 4" d="M100.206,143.478c-10.266-.281-16.379,4.369-22.064,7.854s-13.857,2.91-18.428,11.067c-4.519,8.047.389,18.213,2.345,24.958,2.033,7.008.8,15.957,9.175,22.093,6.149,4.5,13.763,2.17,20.5,2.529,6.719.345,14.593,4.533,24.789-1.711,6.756-4.137,7.026-11.728,9.716-17.766,2.34-5.256,10.693-10.742,7.582-20.887-2.556-8.328-12.434-13.234-15.636-16.144s-7.285-11.7-17.981-11.994" transform="translate(-68.51 -52.349)" fill="#320162"/>
          <path id="34-Path_5" data-name="34-Path 5" d="M100.206,143.478c-10.266-.281-16.379,4.369-22.064,7.854s-13.857,2.91-18.428,11.067c-4.519,8.047.389,18.213,2.345,24.958,2.033,7.008.8,15.957,9.175,22.093,6.149,4.5,13.763,2.17,20.5,2.529,6.719.345,14.593,4.533,24.789-1.711,6.756-4.137,7.026-11.728,9.716-17.766,2.34-5.256,10.693-10.742,7.582-20.887-2.556-8.328-12.434-13.234-15.636-16.144s-7.285-11.7-17.981-11.994Z" transform="translate(-68.51 -52.349)" fill="none" stroke="#937b32" stroke-width="0.689"/>
          <path id="34-Path_6" data-name="34-Path 6" d="M105.431,172.883c-3.919-2.257-10.842-1.947-13.9,2.329s-2.974,10.976.962,14.494c5.387,4.813,13.692,3.132,16.549-1.271s3.584-11.407-3.608-15.552" transform="translate(-74.004 -57.236)" fill="#961787"/>
          <path id="34-Path_7" data-name="34-Path 7" d="M105.431,172.883c-3.919-2.257-10.842-1.947-13.9,2.329s-2.974,10.976.962,14.494c5.387,4.813,13.692,3.132,16.549-1.271s3.584-11.407-3.608-15.552Z" transform="translate(-74.004 -57.236)" fill="none" stroke="#937b32" stroke-width="0.689"/>
          <path id="34-Path_8" data-name="34-Path 8" d="M184.091,232.127c-4.869-.316-24.439,7.685-40.263-2.15-19.841-12.325-10.378-31.432-11.115-44.366-.395-6.968-9.418-20.984-1.878-36.217,7.778-15.717,20.532-13.65,29.752-19.786,6.145-4.092,19.847-16.673,37.162-14.554,20.4,2.5,27.246,18.528,31.912,22.286,6.012,4.836,20.79,9.4,25.309,29.048,4.842,21.031-8.99,28.637-13.178,35.046s-3.11,23.842-17.468,31.522c-13.163,7.038-35.364-.517-40.232-.83" transform="translate(-80.711 -47.354)" fill="#fd1918"/>
          <path id="34-Path_9" data-name="34-Path 9" d="M184.091,232.127c-4.869-.316-24.439,7.685-40.263-2.15-19.841-12.325-10.378-31.432-11.115-44.366-.395-6.968-9.418-20.984-1.878-36.217,7.778-15.717,20.532-13.65,29.752-19.786,6.145-4.092,19.847-16.673,37.162-14.554,20.4,2.5,27.246,18.528,31.912,22.286,6.012,4.836,20.79,9.4,25.309,29.048,4.842,21.031-8.99,28.637-13.178,35.046s-3.11,23.842-17.468,31.522c-13.163,7.038-35.364-.517-40.232-.83Z" transform="translate(-80.711 -47.354)" fill="none" stroke="#937b32" stroke-width="0.689"/>
          <path id="34-Path_10" data-name="34-Path 10" d="M200.4,145.284c-10.639-.291-16.973,4.527-22.865,8.139s-14.361,3.015-19.1,11.469c-4.681,8.34.4,18.874,2.432,25.864,2.1,7.264.826,16.535,9.507,22.9,6.371,4.659,14.262,2.247,21.246,2.618,6.964.358,15.124,4.7,25.692-1.773,7-4.288,7.281-12.154,10.068-18.411,2.425-5.447,11.084-11.131,7.858-21.645-2.649-8.63-12.886-13.716-16.2-16.731s-7.548-12.125-18.635-12.429" transform="translate(-85.71 -52.664)" fill="#2a893e"/>
          <path id="34-Path_11" data-name="34-Path 11" d="M200.4,145.284c-10.639-.291-16.973,4.527-22.865,8.139s-14.361,3.015-19.1,11.469c-4.681,8.34.4,18.874,2.432,25.864,2.1,7.264.826,16.535,9.507,22.9,6.371,4.659,14.262,2.247,21.246,2.618,6.964.358,15.124,4.7,25.692-1.773,7-4.288,7.281-12.154,10.068-18.411,2.425-5.447,11.084-11.131,7.858-21.645-2.649-8.63-12.886-13.716-16.2-16.731s-7.548-12.125-18.635-12.429Z" transform="translate(-85.71 -52.664)" fill="none" stroke="#937b32" stroke-width="0.689"/>
          <path id="34-Path_12" data-name="34-Path 12" d="M207.358,178.455c-4.065-2.34-11.238-2.018-14.409,2.413s-3.082,11.373,1,15.021c5.583,4.986,14.191,3.246,17.148-1.317s3.716-11.821-3.735-16.118" transform="translate(-91.672 -58.199)" fill="#070e10"/>
          <path id="34-Path_13" data-name="34-Path 13" d="M207.358,178.455c-4.065-2.34-11.238-2.018-14.409,2.413s-3.082,11.373,1,15.021c5.583,4.986,14.191,3.246,17.148-1.317s3.716-11.821-3.735-16.118Z" transform="translate(-91.672 -58.199)" fill="none" stroke="#937b32" stroke-width="0.689"/>
          <path id="34-Path_14" data-name="34-Path 14" d="M142.691,136.874c-2.083-1.226-10.762-2.647-15.55-10.561-6.007-9.917.7-15.7,3.27-21.626,1.389-3.19.542-11.447,7.293-16.547,6.966-5.265,12.141-1.5,17.593-2.171,3.635-.45,12.515-3,19.694,1.815,8.462,5.667,7.889,14.333,9.11,17.048,1.57,3.5,7.081,8.828,4.672,18.588-2.576,10.448-10.4,10.745-13.688,12.666s-6.726,9.924-14.794,10.138c-7.4.2-15.519-8.124-17.6-9.35" transform="translate(-80.165 -42.138)" fill="#fe410c"/>
          <path id="34-Path_15" data-name="34-Path 15" d="M142.691,136.874c-2.083-1.226-10.762-2.647-15.55-10.561-6.007-9.917.7-15.7,3.27-21.626,1.389-3.19.542-11.447,7.293-16.547,6.966-5.265,12.141-1.5,17.593-2.171,3.635-.45,12.515-3,19.694,1.815,8.462,5.667,7.889,14.333,9.11,17.048,1.57,3.5,7.081,8.828,4.672,18.588-2.576,10.448-10.4,10.745-13.688,12.666s-6.726,9.924-14.794,10.138c-7.4.2-15.519-8.124-17.6-9.35Z" transform="translate(-80.165 -42.138)" fill="none" stroke="#937b32" stroke-width="0.689"/>
          <path id="34-Path_16" data-name="34-Path 16" d="M172.149,98.228c-5.064-2.73-9.293-1.945-13.015-1.636s-7.664-2.041-12.008.886c-4.29,2.886-4.4,9.209-5.122,13.073-.751,4.018-3.625,8.181-.986,13.365,1.941,3.8,6.338,4.557,9.618,6.434s6.155,5.95,12.829,5.4c4.422-.365,6.471-4.091,9.341-6.434,2.5-2.039,8.058-2.674,9.059-8.535.824-4.809-2.879-9.756-3.747-12.018s-.691-7.688-5.969-10.534" transform="translate(-82.818 -44.072)" fill="#961787"/>
          <path id="34-Path_17" data-name="34-Path 17" d="M172.149,98.228c-5.064-2.73-9.293-1.945-13.015-1.636s-7.664-2.041-12.008.886c-4.29,2.886-4.4,9.209-5.122,13.073-.751,4.018-3.625,8.181-.986,13.365,1.941,3.8,6.338,4.557,9.618,6.434s6.155,5.95,12.829,5.4c4.422-.365,6.471-4.091,9.341-6.434,2.5-2.039,8.058-2.674,9.059-8.535.824-4.809-2.879-9.756-3.747-12.018s-.691-7.688-5.969-10.534Z" transform="translate(-82.818 -44.072)" fill="none" stroke="#937b32" stroke-width="0.689"/>
          <path id="34-Path_18" data-name="34-Path 18" d="M168.472,113.439c-1.712-2.607-6.069-4.563-9.281-2.882s-5.236,5.832-3.906,9.22c1.821,4.634,7.455,6.178,10.579,4.354s5.748-5.909,2.608-10.693" transform="translate(-85.424 -46.503)" fill="#2a893e"/>
          <path id="34-Path_19" data-name="34-Path 19" d="M168.472,113.439c-1.712-2.607-6.069-4.563-9.281-2.882s-5.236,5.832-3.906,9.22c1.821,4.634,7.455,6.178,10.579,4.354s5.748-5.909,2.608-10.693Z" transform="translate(-85.424 -46.503)" fill="none" stroke="#937b32" stroke-width="0.689"/>
        </g>
      </g>
      <path id="34-Path_21" data-name="34-Path 21" d="M73.57,26.856c.573,4.922-.546,19.237-1.371,31.613-.478,7.168-.974,12.272,2.822,15.078,2.759,2.04,6.734,2.342,11.09-3.952S99.083,58.9,101.954,64.645c.99,1.98-4.127,5.968-8.91,15.677-3.322,6.741-10.166,16.374-15.086,20.75-9.639,8.572-33.094,14.446-47.427-.343C21.522,91.435,20.6,81.211,19.9,66.047c-.526-11.229-2.409-29.727-2.1-35.065.329-5.776,8.14-6.752,9.11-.459s2.588,21.326,2.9,23.236c.381,2.3,3.222,2.405,3.168-.831-.063-3.821-.481-24.548,0-28.878.661-5.941,9.242-7.1,9.736-.5.555,7.385,1.321,24.919,1.321,28.384,0,3.062,2.932,2.873,3.1.181.216-3.5,1.1-26.2,1.52-30.049.723-6.615,8.6-5.644,9.57.165s-.329,27.943-.329,30.363,2.942,2.815,3.229-.152c.325-3.35,1.724-21.673,2.547-26.747.991-6.1,9.076-5.94,9.9,1.156" transform="translate(-3.096 -3.048)" fill="#e4c903"/>
      <g id="34-Group_4" data-name="34-Group 4" transform="translate(14.664 14.436)">
        <g id="34-Group_3" data-name="34-Group 3" clip-path="url(#34-clip-path-2)">
          <path id="34-Path_22" data-name="34-Path 22" d="M99.745,117.873c2.291-.156,10.264,2.386,17.72-2.368,9.352-5.958,6.149-13.863,6.506-20.1.191-3.358,4.45-10.123.913-17.459-3.649-7.57-9.656-6.565-13.991-9.516-2.89-1.966-9.33-8.021-17.483-6.985C83.8,62.666,80.569,70.4,78.369,72.215c-2.834,2.337-9.795,4.549-11.938,14.024-2.3,10.142,4.208,13.8,6.175,16.885s1.445,11.491,8.2,15.181c6.19,3.382,16.648-.277,18.94-.433" transform="translate(-26.161 -25.128)" fill="#0b4da0"/>
          <path id="34-Path_23" data-name="34-Path 23" d="M99.745,117.873c2.291-.156,10.264,2.386,17.72-2.368,9.352-5.958,6.149-13.863,6.506-20.1.191-3.358,4.45-10.123.913-17.459-3.649-7.57-9.656-6.565-13.991-9.516-2.89-1.966-9.33-8.021-17.483-6.985C83.8,62.666,80.569,70.4,78.369,72.215c-2.834,2.337-9.795,4.549-11.938,14.024-2.3,10.142,4.208,13.8,6.175,16.885s1.445,11.491,8.2,15.181c6.19,3.382,16.648-.277,18.94-.433Z" transform="translate(-26.161 -25.128)" fill="none" stroke="#937b32" stroke-width="0.689"/>
          <path id="34-Path_24" data-name="34-Path 24" d="M102.442,72.634c5.07-.138,8.089,2.157,10.9,3.879s6.842,1.437,9.1,5.465c2.231,3.974-.194,8.995-1.159,12.325-1,3.462-.394,7.88-4.53,10.911-3.036,2.221-6.8,1.071-10.125,1.248s-7.205,2.238-12.242-.845c-3.335-2.043-3.469-5.79-4.8-8.773-1.156-2.6-5.281-5.3-3.744-10.314,1.262-4.113,6.14-6.536,7.722-7.973s3.6-5.778,8.88-5.923" transform="translate(-29.57 -27.098)" fill="#f0047f"/>
          <path id="34-Path_25" data-name="34-Path 25" d="M102.442,72.634c5.07-.138,8.089,2.157,10.9,3.879s6.842,1.437,9.1,5.465c2.231,3.974-.194,8.995-1.159,12.325-1,3.462-.394,7.88-4.53,10.911-3.036,2.221-6.8,1.071-10.125,1.248s-7.205,2.238-12.242-.845c-3.335-2.043-3.469-5.79-4.8-8.773-1.156-2.6-5.281-5.3-3.744-10.314,1.262-4.113,6.14-6.536,7.722-7.973s3.6-5.778,8.88-5.923Z" transform="translate(-29.57 -27.098)" fill="none" stroke="#937b32" stroke-width="0.689"/>
          <path id="34-Path_26" data-name="34-Path 26" d="M105.59,87.154c1.935-1.115,5.354-.961,6.866,1.151s1.467,5.419-.475,7.158c-2.66,2.375-6.762,1.546-8.172-.628s-1.77-5.633,1.781-7.68" transform="translate(-32.586 -29.511)" fill="#070e10"/>
          <path id="34-Path_27" data-name="34-Path 27" d="M105.59,87.154c1.935-1.115,5.354-.961,6.866,1.151s1.467,5.419-.475,7.158c-2.66,2.375-6.762,1.546-8.172-.628s-1.77-5.633,1.781-7.68Z" transform="translate(-32.586 -29.511)" fill="none" stroke="#937b32" stroke-width="0.689"/>
          <path id="34-Path_28" data-name="34-Path 28" d="M36.582,130c2.793-.182,14.025,4.411,23.107-1.235,11.388-7.073,5.956-18.039,6.381-25.462.225-4,5.4-12.042,1.077-20.786C62.682,73.5,55.362,74.685,50.071,71.163c-3.527-2.348-11.391-9.569-21.328-8.353C17.031,64.243,13.1,73.444,10.427,75.6,6.976,78.376-1.506,80.994-4.1,92.272c-2.779,12.07,5.16,16.436,7.564,20.115S5.25,126.07,13.49,130.478c7.556,4.039,20.3-.3,23.092-.476" transform="translate(-13.847 -25.363)" fill="#fe410c"/>
          <path id="34-Path_29" data-name="34-Path 29" d="M36.582,130c2.793-.182,14.025,4.411,23.107-1.235,11.388-7.073,5.956-18.039,6.381-25.462.225-4,5.4-12.042,1.077-20.786C62.682,73.5,55.362,74.685,50.071,71.163c-3.527-2.348-11.391-9.569-21.328-8.353C17.031,64.243,13.1,73.444,10.427,75.6,6.976,78.376-1.506,80.994-4.1,92.272c-2.779,12.07,5.16,16.436,7.564,20.115S5.25,126.07,13.49,130.478c7.556,4.039,20.3-.3,23.092-.476Z" transform="translate(-13.847 -25.363)" fill="none" stroke="#937b32" stroke-width="0.689"/>
          <path id="34-Path_30" data-name="34-Path 30" d="M33.124,80.159c6.106-.167,9.74,2.6,13.123,4.671s8.242,1.732,10.961,6.583c2.688,4.788-.232,10.834-1.4,14.845-1.208,4.169-.475,9.49-5.457,13.142-3.657,2.673-8.186,1.29-12.193,1.5s-8.681,2.7-14.747-1.018c-4.016-2.46-4.177-6.975-5.777-10.566-1.392-3.126-6.361-6.388-4.51-12.423,1.52-4.953,7.4-7.872,9.3-9.6s4.332-6.959,10.695-7.134" transform="translate(-16.881 -28.41)" fill="#2a893e"/>
          <path id="34-Path_31" data-name="34-Path 31" d="M33.124,80.159c6.106-.167,9.74,2.6,13.123,4.671s8.242,1.732,10.961,6.583c2.688,4.788-.232,10.834-1.4,14.845-1.208,4.169-.475,9.49-5.457,13.142-3.657,2.673-8.186,1.29-12.193,1.5s-8.681,2.7-14.747-1.018c-4.016-2.46-4.177-6.975-5.777-10.566-1.392-3.126-6.361-6.388-4.51-12.423,1.52-4.953,7.4-7.872,9.3-9.6s4.332-6.959,10.695-7.134Z" transform="translate(-16.881 -28.41)" fill="none" stroke="#937b32" stroke-width="0.689"/>
          <path id="34-Path_32" data-name="34-Path 32" d="M38.568,97.722c2.333-1.343,6.448-1.158,8.269,1.385s1.77,6.528-.571,8.621c-3.2,2.862-8.143,1.862-9.842-.757s-2.133-6.784,2.144-9.25" transform="translate(-20.802 -31.329)" fill="#070e10"/>
          <path id="34-Path_33" data-name="34-Path 33" d="M38.568,97.722c2.333-1.343,6.448-1.158,8.269,1.385s1.77,6.528-.571,8.621c-3.2,2.862-8.143,1.862-9.842-.757s-2.133-6.784,2.144-9.25Z" transform="translate(-20.802 -31.329)" fill="none" stroke="#937b32" stroke-width="0.689"/>
          <path id="34-Path_34" data-name="34-Path 34" d="M68.85,81.855c1.059-.625,5.476-1.347,7.911-5.374,3.058-5.046-.352-7.988-1.662-11-.707-1.623-.277-5.825-3.71-8.42-3.545-2.678-6.178-.761-8.953-1.1-1.849-.229-6.368-1.524-10.022.923-4.3,2.884-4.014,7.294-4.635,8.676-.8,1.778-3.6,4.49-2.378,9.457,1.311,5.316,5.292,5.467,6.964,6.445s3.423,5.05,7.528,5.159c3.765.1,7.9-4.133,8.956-4.757" transform="translate(-22.526 -24.096)" fill="#9273ae"/>
          <path id="34-Path_35" data-name="34-Path 35" d="M68.85,81.855c1.059-.625,5.476-1.347,7.911-5.374,3.058-5.046-.352-7.988-1.662-11-.707-1.623-.277-5.825-3.71-8.42-3.545-2.678-6.178-.761-8.953-1.1-1.849-.229-6.368-1.524-10.022.923-4.3,2.884-4.014,7.294-4.635,8.676-.8,1.778-3.6,4.49-2.378,9.457,1.311,5.316,5.292,5.467,6.964,6.445s3.423,5.05,7.528,5.159c3.765.1,7.9-4.133,8.956-4.757Z" transform="translate(-22.526 -24.096)" fill="none" stroke="#937b32" stroke-width="0.689"/>
          <path id="34-Path_36" data-name="34-Path 36" d="M56.289,62.19c2.578-1.39,4.729-.99,6.623-.833s3.9-1.039,6.11.451c2.183,1.468,2.238,4.686,2.606,6.652.383,2.044,1.845,4.163.5,6.8-.987,1.935-3.223,2.318-4.894,3.275s-3.131,3.028-6.528,2.746c-2.248-.185-3.291-2.081-4.752-3.274-1.27-1.037-4.1-1.361-4.61-4.343-.419-2.446,1.466-4.962,1.906-6.114s.352-3.912,3.037-5.36" transform="translate(-23.605 -25.08)" fill="#b71889"/>
          <path id="34-Path_37" data-name="34-Path 37" d="M56.289,62.19c2.578-1.39,4.729-.99,6.623-.833s3.9-1.039,6.11.451c2.183,1.468,2.238,4.686,2.606,6.652.383,2.044,1.845,4.163.5,6.8-.987,1.935-3.223,2.318-4.894,3.275s-3.131,3.028-6.528,2.746c-2.248-.185-3.291-2.081-4.752-3.274-1.27-1.037-4.1-1.361-4.61-4.343-.419-2.446,1.466-4.962,1.906-6.114s.352-3.912,3.037-5.36Z" transform="translate(-23.605 -25.08)" fill="none" stroke="#937b32" stroke-width="0.689"/>
          <path id="34-Path_38" data-name="34-Path 38" d="M61.066,69.93c.872-1.326,3.089-2.322,4.723-1.466a3.969,3.969,0,0,1,1.988,4.691,4.033,4.033,0,0,1-5.382,2.216,3.659,3.659,0,0,1-1.328-5.441" transform="translate(-25.185 -26.317)" fill="#2a893e"/>
          <path id="34-Path_39" data-name="34-Path 39" d="M61.066,69.93c.872-1.326,3.089-2.322,4.723-1.466a3.969,3.969,0,0,1,1.988,4.691,4.033,4.033,0,0,1-5.382,2.216,3.659,3.659,0,0,1-1.328-5.441Z" transform="translate(-25.185 -26.317)" fill="none" stroke="#937b32" stroke-width="0.689"/>
        </g>
      </g>
    </g>
  </g>
</svg>
