<svg xmlns="http://www.w3.org/2000/svg" xmlns:xlink="http://www.w3.org/1999/xlink" width="200" height="300" viewBox="0 0 200 300">
  <defs>
    <clipPath id="37c-clip-path">
      <rect id="37c-Rectangle_2" data-name="37c-Rectangle 2" width="372.668" height="372.667" transform="translate(102.154 116.596)" fill="none"/>
    </clipPath>
    <clipPath id="37c-clip-Kort_-_artikel_37c">
      <rect width="200" height="300"/>
    </clipPath>
  </defs>
  <g id="37c-Kort_-_artikel_37c" data-name="37c-Kort - artikel 37c" clip-path="url(#37c-clip-Kort_-_artikel_37c)">
    <rect width="200" height="300" fill="#8e5096"/>
    <g id="37c-Group_3" data-name="37c-Group 3" transform="translate(-245.488 -218.263)">
      <rect id="37c-Rectangle_1" data-name="37c-Rectangle 1" width="372.668" height="372.667" transform="translate(102.154 116.596)" fill="#8e5096"/>
      <g id="37c-Group_2" data-name="37c-Group 2">
        <g id="37c-Group_1" data-name="37c-Group 1" clip-path="url(#37c-clip-path)">
          <path id="37c-Path_1" data-name="37c-Path 1" d="M297.814,406.228c0,24.219,6.889,45.751,43.209,48.366s61.367-17.644,58.863-46.4-18.793-49.128-54.48-48.366c-30.685.652-47.592,20.914-47.592,46.4" fill="#008c87"/>
          <path id="37c-Path_2" data-name="37c-Path 2" d="M302.75,405.88c0,21.748,6.186,41.086,38.8,43.432s55.107-15.846,52.859-41.671-16.875-44.115-48.923-43.431c-27.553.588-42.736,18.781-42.736,41.67" fill="#9b7a37"/>
          <path id="37c-Path_3" data-name="37c-Path 3" d="M338.777,418.507c1.48,1.669,3.264,2.735,5.893.722s3.1-4.92,1.169-6.747-4.479-2.439-6.859-.23a4.3,4.3,0,0,0-.2,6.255" fill="#005027"/>
          <path id="37c-Path_4" data-name="37c-Path 4" d="M330.755,408.658c0,2.23.626,4.214,3.928,4.453s5.581-1.624,5.352-4.271-1.729-4.795-4.975-4.725a4.3,4.3,0,0,0-4.3,4.543" fill="#005027"/>
          <path id="37c-Path_5" data-name="37c-Path 5" d="M331.522,399.411c0,2.23.626,4.212,3.929,4.451s5.581-1.622,5.353-4.269-1.733-4.8-4.977-4.726a4.3,4.3,0,0,0-4.3,4.544" fill="#005027"/>
          <path id="37c-Path_6" data-name="37c-Path 6" d="M339.363,393.362c0,2.23.625,4.212,3.93,4.451s5.579-1.623,5.351-4.271-1.729-4.794-4.977-4.725a4.3,4.3,0,0,0-4.3,4.545" fill="#005027"/>
          <path id="37c-Path_7" data-name="37c-Path 7" d="M348.723,393.511c0,2.23.625,4.213,3.928,4.452s5.582-1.623,5.353-4.271-1.731-4.794-4.977-4.725a4.3,4.3,0,0,0-4.3,4.544" fill="#005027"/>
          <path id="37c-Path_8" data-name="37c-Path 8" d="M354.531,400.586c0,2.229.626,4.21,3.929,4.45s5.581-1.623,5.353-4.269-1.733-4.8-4.977-4.727a4.3,4.3,0,0,0-4.3,4.546" fill="#005027"/>
          <path id="37c-Path_9" data-name="37c-Path 9" d="M354.414,409.9c0,2.232.626,4.214,3.928,4.453s5.582-1.622,5.354-4.271-1.733-4.8-4.976-4.725a4.3,4.3,0,0,0-4.306,4.543" fill="#005027"/>
          <path id="37c-Path_10" data-name="37c-Path 10" d="M346.921,415.766c0,2.231.626,4.213,3.928,4.453s5.584-1.623,5.352-4.271-1.73-4.795-4.976-4.726a4.3,4.3,0,0,0-4.3,4.544" fill="#005027"/>
          <path id="37c-Path_11" data-name="37c-Path 11" d="M337.744,404.523c0,4.878,1.369,9.213,8.594,9.737s12.207-3.551,11.708-9.341-3.787-10.488-10.886-10.335c-6.1.131-9.416,4.807-9.416,9.939" fill="#d475ac"/>
          <path id="37c-Path_12" data-name="37c-Path 12" d="M340.8,404.47c0,3.438.965,6.495,6.059,6.864s8.606-2.5,8.255-6.585-2.67-7.393-7.675-7.287c-4.3.093-6.639,3.39-6.639,7.008" fill="#e44218"/>
          <path id="37c-Path_13" data-name="37c-Path 13" d="M221.144,525.7s53-79,80-142,49-277,49-277l-274-12-21,416Z" fill="#d8006b"/>
          <path id="37c-Path_14" data-name="37c-Path 14" d="M166,513.48s53-79,80-142,49-277,49-277l-274-12-21,416Z" fill="#009774"/>
          <path id="37c-Path_15" data-name="37c-Path 15" d="M154.716,510.906s53-79,80-142,49-277,49-277l-274-12,2.6,418.416Z" fill="#e44218"/>
          <path id="37c-Path_16" data-name="37c-Path 16" d="M341.839,169.134s22.5,168,36,190c27,44,93,122,93,122l71,3,8-327Z" fill="#f27c00"/>
          <path id="37c-Path_17" data-name="37c-Path 17" d="M353.576,163.517s22.5,168,36,190c27,44,93,122,93,122l71,3,8-327Z" fill="#d475ac"/>
          <path id="37c-Path_18" data-name="37c-Path 18" d="M372.891,161.733s20.828,155.5,33.321,175.863c24.992,40.726,86.08,112.922,86.08,112.922L558.01,453.3l7.4-302.669Z" fill="#e44218"/>
        </g>
      </g>
    </g>
  </g>
</svg>
