<svg width="200" height="300" viewBox="0 0 200 300" fill="none" xmlns="http://www.w3.org/2000/svg">
<g clip-path="url(#clip0_1901_35162)">
<rect width="200" height="300" fill="#E5CFD2"/>
<path d="M137.794 -2.56735C141.286 -4.76849 148.8 6.60872 152.599 29.7439C155.283 46.1271 154.846 65.8259 157.623 83.0821C170.384 162.546 208.965 178.112 200.531 223.416C189.386 283.172 127.912 310.348 74.7042 296.416C19.6571 282.011 -38.0555 233.252 -11.2053 165.174C12.6079 104.806 105.817 117.669 131.256 61.9066C147.713 25.8803 133.113 0.358222 137.757 -2.56735" fill="#E0007B"/>
<path d="M111.574 -41.4548C113.729 -43.9624 119.06 -37.9627 130.539 -20.4929C137.969 -9.18995 142.957 11.8091 148.511 24.9231C174.061 85.2919 208.527 110.508 211.387 148.363C216.421 215.131 160.241 227.846 117.871 228.32C74.0526 228.821 0.226136 207.961 12.2442 134.98C20.798 83.0722 117.88 54.8382 125.552 4.96422C130.502 -27.2542 108.704 -38.1206 111.574 -41.4734" fill="#E95125"/>
<path d="M119.322 -21.5808C120.846 -23.3826 126.52 -18.1352 131.981 -5.62488C135.854 3.22612 138.557 14.464 142.606 23.798C161.181 66.8084 183.973 69.474 186.257 96.5006C189.285 132.137 159.184 163.965 129.037 166.677C79.126 171.163 54.1054 137.598 58.6563 100.29C63.3001 62.3783 120.288 51.6791 125.471 16.0057C128.814 -7.03658 117.279 -19.1754 119.313 -21.5808" fill="#E0007B"/>
<path d="M50.4903 105.289C51.8555 103.376 52.9886 109.162 56.1742 116.434C58.4311 121.598 65.9354 128.796 68.248 134.248C77.4148 155.423 86.3029 160.002 87.9561 179.543C89.7207 200.329 76.4024 212.049 55.2641 211.854C36.9955 211.659 18.727 202.27 23.4915 174.193C27.2065 152.228 46.4874 142.616 48.6421 126.335C50.4253 112.859 49.3758 106.757 50.4438 105.262" fill="#9A902E"/>
<path d="M57.1696 108.781C55.3121 108.92 55.7393 113.564 61.1632 122.712C65.0082 129.214 75.5031 137.572 79.5711 144.362C95.3598 170.933 90.2888 184.298 110.22 201.433C131.414 219.665 154.317 213.201 168.545 194.301C183.266 174.741 188.839 142.04 154.614 125.183C127.829 111.995 97.7467 132.919 78.373 122.49C62.3427 113.861 59.6215 108.558 57.1696 108.735" fill="#E40521"/>
<path d="M161.718 37.814C147.787 30.7462 132.258 33.5882 124.986 50.5937C122.626 55.7818 121.598 61.4768 121.996 67.1626C116.767 56.2683 104.749 54.9495 95.0618 59.4725C84.5762 64.367 76.9698 75.1313 87.5204 89.7591C95.777 101.201 109.736 100.105 115.504 108.752C120.287 115.913 120.807 119.591 120.918 121.866C121.03 124.141 123.045 125.135 123.277 121.996C123.444 119.748 122.116 116.572 129.119 106.774C137.58 94.923 158.839 96.1675 170.913 80.518C186.321 60.522 176.151 45.1326 161.709 37.7955" fill="#9A902E"/>
<path d="M50.696 90.1309C49.9437 89.7315 48.7364 92.2577 48.5878 97.1987C48.4763 100.7 49.08 104.852 48.9778 108.529C48.5785 122.86 42.9409 128.711 46.4981 140.358C50.2688 152.747 60.8473 155.896 71.1007 152.023C81.7163 148.02 89.9543 138.092 80.7318 122.981C73.5154 111.176 58.5997 110.443 53.603 101.555C49.4608 94.2267 51.6898 90.6974 50.696 90.1309Z" fill="#0091D3"/>
<path d="M17.1579 54.5213C16.7772 54.0755 15.384 55.3664 14.0373 58.4406C13.1086 60.6232 12.4213 63.3816 11.4275 65.6756C7.56394 74.6009 2.5394 76.8206 1.84283 85.105C1.09983 93.8446 6.96954 98.4884 14.4088 98.6555C22.1082 98.8134 29.8075 94.6155 27.8014 82.7925C26.2318 73.5049 17.0093 69.307 16.1085 62.4435C15.3562 56.7688 17.6502 55.1064 17.1579 54.5213" fill="#67BEA1"/>
<path d="M18.5502 27.7182C27.4569 26.3623 39.8093 30.8017 40.153 43.6928C40.4966 56.5838 30.7819 62.4257 24.1599 62.6486C14.8724 62.9551 5.79845 58.0605 4.11741 47.3892C3.76648 45.1491 3.86193 42.8616 4.39826 40.6585C4.9346 38.4554 5.90124 36.3801 7.24258 34.5519C8.58392 32.7238 10.2735 31.1789 12.2141 30.0061C14.1547 28.8333 16.308 28.0558 18.5502 27.7182V27.7182Z" fill="#9A902E" stroke="#9A902E" stroke-width="0.56" stroke-miterlimit="10"/>
<path d="M18.923 30.2061C26.7852 29.0111 37.6888 32.9233 37.9922 44.2835C38.2955 55.6436 29.7201 60.7916 23.8748 60.9881C15.6765 61.2582 7.66683 56.9449 6.18295 47.5409C5.87317 45.5668 5.95743 43.5511 6.43086 41.6096C6.90429 39.6681 7.75757 37.8393 8.94159 36.2282C10.1256 34.6172 11.617 33.2557 13.33 32.2222C15.043 31.1887 16.9438 30.5035 18.923 30.2061" fill="#67BEA1"/>
<path d="M125.153 132.017C134.96 130.531 148.576 135.416 148.947 149.663C149.319 163.91 138.629 170.272 131.301 170.514C121.01 170.857 111.082 165.461 109.215 153.703C108.828 151.232 108.933 148.708 109.526 146.277C110.118 143.847 111.186 141.557 112.668 139.541C114.149 137.525 116.015 135.822 118.158 134.531C120.301 133.24 122.678 132.385 125.153 132.017" fill="#E95125"/>
<path d="M125.153 132.017C134.96 130.531 148.576 135.416 148.947 149.663C149.319 163.91 138.629 170.272 131.301 170.514C121.01 170.857 111.082 165.461 109.215 153.703C108.828 151.232 108.933 148.708 109.526 146.277C110.118 143.847 111.186 141.557 112.668 139.541C114.149 137.525 116.015 135.822 118.158 134.531C120.301 133.24 122.678 132.385 125.153 132.017V132.017Z" stroke="#9A902E" stroke-width="0.56" stroke-miterlimit="10"/>
<path d="M107.461 122.517C113.785 121.588 122.553 124.699 122.794 133.866C123.036 143.033 116.144 147.147 111.445 147.296C104.823 147.519 98.4424 144.036 97.2258 136.466C96.9802 134.881 97.0498 133.262 97.4305 131.703C97.8113 130.144 98.4957 128.676 99.4446 127.382C100.394 126.088 101.588 124.994 102.961 124.162C104.333 123.33 105.856 122.778 107.442 122.535" fill="#001D23"/>
<path d="M107.461 122.517C113.785 121.588 122.553 124.699 122.794 133.866C123.036 143.033 116.144 147.147 111.445 147.296C104.823 147.519 98.4424 144.036 97.2258 136.466C96.9802 134.881 97.0498 133.262 97.4305 131.703C97.8113 130.144 98.4957 128.676 99.4446 127.382C100.394 126.088 101.588 124.994 102.961 124.162C104.333 123.33 105.856 122.778 107.442 122.535L107.461 122.517Z" stroke="#9A902E" stroke-width="0.56" stroke-miterlimit="10"/>
<path d="M95.7493 112.514C100.653 111.586 107.396 114.205 107.582 121.282C107.767 128.359 102.446 131.498 98.8234 131.656C93.706 131.823 88.7651 129.139 87.8363 123.297C87.4827 120.823 88.1134 118.309 89.5929 116.295C91.0723 114.28 93.2827 112.926 95.7493 112.524" fill="#E0007B"/>
<path d="M95.7493 112.514C100.653 111.586 107.396 114.205 107.582 121.282C107.767 128.359 102.446 131.498 98.8234 131.656C93.706 131.823 88.7651 129.139 87.8363 123.297C87.4827 120.823 88.1134 118.309 89.5929 116.295C91.0723 114.28 93.2827 112.926 95.7493 112.524V112.514Z" stroke="#9A902E" stroke-width="0.56" stroke-miterlimit="10"/>
<path d="M46.0134 75.6329C50.945 74.4905 57.5113 77.3696 57.6971 84.6696C57.8828 91.9696 52.6168 95.2295 49.0411 95.3503C43.9887 95.5267 39.1127 92.759 38.2026 86.7407C37.8354 84.237 38.4399 81.6876 39.8922 79.6154C41.3446 77.5431 43.5346 76.1049 46.0134 75.5957" fill="#0091D3"/>
<path d="M46.0134 75.6329C50.945 74.4905 57.5113 77.3696 57.6971 84.6696C57.8828 91.9696 52.6168 95.2295 49.0411 95.3503C43.9887 95.5267 39.1127 92.759 38.2026 86.7407C37.8354 84.237 38.4399 81.6876 39.8922 79.6154C41.3446 77.5431 43.5346 76.1049 46.0134 75.5957V75.6329Z" stroke="#9A902E" stroke-width="0.56" stroke-miterlimit="10"/>
<path d="M108.232 111.8C109.141 111.569 110.091 111.548 111.01 111.738C111.928 111.929 112.791 112.326 113.533 112.9C114.275 113.473 114.877 114.209 115.293 115.05C115.708 115.891 115.927 116.815 115.931 117.753C116.043 122.564 112.588 124.719 110.229 124.793C106.904 124.914 103.681 123.084 103.087 119.119C102.845 117.472 103.243 115.795 104.2 114.434C105.158 113.072 106.601 112.13 108.232 111.8" fill="#E40521"/>
<path d="M108.232 111.8C109.141 111.569 110.091 111.548 111.01 111.738C111.928 111.929 112.791 112.326 113.533 112.9C114.275 113.473 114.877 114.209 115.293 115.05C115.708 115.891 115.927 116.815 115.931 117.753C116.043 122.564 112.588 124.719 110.229 124.793C106.904 124.914 103.681 123.084 103.087 119.119C102.845 117.472 103.243 115.795 104.2 114.434C105.158 113.072 106.601 112.13 108.232 111.8V111.8Z" stroke="#9A902E" stroke-width="0.56" stroke-miterlimit="10"/>
<path d="M101.174 106.524C103.709 106.041 107.201 107.397 107.303 111.065C107.361 111.717 107.288 112.373 107.091 112.996C106.893 113.619 106.574 114.197 106.151 114.696C105.729 115.195 105.212 115.606 104.63 115.904C104.049 116.202 103.414 116.382 102.762 116.434C100.115 116.517 97.5515 115.124 97.0778 112.096C96.8932 110.816 97.2191 109.514 97.9853 108.472C98.7514 107.429 99.8965 106.73 101.174 106.524Z" fill="#E40521"/>
<path d="M101.174 106.524C103.709 106.041 107.201 107.397 107.303 111.065C107.361 111.717 107.288 112.373 107.091 112.996C106.893 113.619 106.574 114.197 106.151 114.696C105.729 115.195 105.212 115.606 104.63 115.904C104.049 116.202 103.414 116.382 102.762 116.434C100.115 116.517 97.5515 115.124 97.0778 112.096C96.8932 110.816 97.2191 109.514 97.9853 108.472C98.7514 107.429 99.8965 106.73 101.174 106.524Z" stroke="#9A902E" stroke-width="0.56" stroke-miterlimit="10"/>
<path d="M41.4732 90.4839C44.8167 89.8523 49.4233 91.6355 49.544 96.4557C49.6648 101.276 46.0427 103.449 43.5722 103.533C40.0801 103.644 36.7087 101.815 36.0864 97.8303C35.8427 96.1442 36.2706 94.4297 37.278 93.0558C38.2854 91.6819 39.7918 90.7584 41.4732 90.4839" fill="#E40521"/>
<path d="M41.4732 90.4839C44.8167 89.8523 49.4233 91.6355 49.544 96.4557C49.6648 101.276 46.0427 103.449 43.5722 103.533C40.0801 103.644 36.7087 101.815 36.0864 97.8303C35.8427 96.1442 36.2706 94.4297 37.278 93.0558C38.2854 91.6819 39.7918 90.7584 41.4732 90.4839V90.4839Z" stroke="#9A902E" stroke-width="0.56" stroke-miterlimit="10"/>
</g>
<defs>
<clipPath id="clip0_1901_35162">
<rect width="200" height="300" fill="white"/>
</clipPath>
</defs>
</svg>
