<svg width="200" height="300" viewBox="0 0 200 300" fill="none" xmlns="http://www.w3.org/2000/svg">
<g clip-path="url(#clip0_843:27221)">
<path d="M0 10C0 4.47716 4.47715 0 10 0H190C195.523 0 200 4.47715 200 10V290C200 295.523 195.523 300 190 300H10C4.47716 300 0 295.523 0 290V10Z" fill="#4C2635"/>
<path d="M200.656 -3H0V177H200.656V-3Z" fill="#4C2635"/>
<path d="M190.129 85.7089C186.153 80.545 183.098 82.0942 180.959 78.9295C176.894 72.9098 181.431 48.3663 165.858 33.7229C151.621 20.3409 133.665 11.4221 107.83 11.2229C83.4345 11.0311 60.4992 13.5983 39.364 31.7606C22.8984 45.9098 23.4148 71.3753 20.2943 76.0966C18.0812 79.4606 12.4378 79.1803 10.1878 84.4696C7.97464 89.6335 9.33202 97.2466 12.2091 105.42C15.0861 113.594 19.9992 117.047 22.5812 118.352C27.4427 120.809 30.696 118.825 33.2705 120.315C39.9763 124.217 46.8517 145.588 75.8509 149.557C91.8664 151.77 92.191 155.702 102.873 155.702C112.751 155.702 114.514 150.834 127.298 148.075C167.872 139.296 169.532 123.804 171.428 121.96C173.744 119.702 177.241 120.816 180.723 118.566C186.433 114.878 187.038 112.576 189.922 104.41C192.807 96.2434 193.227 89.6999 190.129 85.7089" fill="#E82D88"/>
<path d="M81.575 118.05C83.1685 117.747 85.3595 118.596 85.4185 120.89C85.4548 121.298 85.4098 121.71 85.286 122.101C85.1622 122.491 84.962 122.854 84.6972 123.167C84.4323 123.48 84.108 123.737 83.743 123.923C83.378 124.11 82.9796 124.222 82.5709 124.254C81.7437 124.342 80.914 124.111 80.2516 123.608C79.5892 123.105 79.1443 122.367 79.0078 121.547C78.8929 120.744 79.0974 119.928 79.5774 119.274C80.0574 118.62 80.7746 118.181 81.575 118.05" fill="#4C2635"/>
<path d="M81.575 118.05C83.1685 117.747 85.3595 118.596 85.4185 120.89C85.4548 121.298 85.4098 121.71 85.286 122.101C85.1622 122.491 84.962 122.854 84.6972 123.167C84.4323 123.48 84.108 123.737 83.743 123.923C83.378 124.11 82.9796 124.222 82.5709 124.254C81.7437 124.342 80.914 124.111 80.2516 123.608C79.5892 123.105 79.1443 122.367 79.0078 121.547C78.8929 120.744 79.0974 119.928 79.5774 119.274C80.0574 118.62 80.7746 118.181 81.575 118.05V118.05Z" stroke="#A9924D" stroke-width="0.72" stroke-miterlimit="10"/>
<path d="M103.412 140.712C105.02 140.712 108.76 139.908 109.845 141.576C111.069 143.435 106.975 147.558 103.987 147.617C100.999 147.676 96.0347 144.386 97.2003 142.092C98.1151 140.292 101.745 140.683 103.412 140.712" fill="#EB6209"/>
<path d="M123.588 118.05C125.181 117.747 127.365 118.596 127.424 120.89C127.461 121.298 127.417 121.709 127.294 122.1C127.171 122.491 126.972 122.853 126.707 123.166C126.443 123.479 126.119 123.737 125.755 123.923C125.39 124.11 124.992 124.222 124.584 124.254C123.756 124.342 122.927 124.111 122.264 123.608C121.602 123.105 121.157 122.367 121.021 121.547C120.906 120.744 121.11 119.928 121.59 119.274C122.07 118.62 122.787 118.181 123.588 118.05Z" fill="#4C2635"/>
<path d="M123.588 118.05C125.181 117.747 127.365 118.596 127.424 120.89C127.461 121.298 127.417 121.709 127.294 122.1C127.171 122.491 126.972 122.853 126.707 123.166C126.443 123.479 126.119 123.737 125.755 123.923C125.39 124.11 124.992 124.222 124.584 124.254C123.756 124.342 122.927 124.111 122.264 123.608C121.602 123.105 121.157 122.367 121.021 121.547C120.906 120.744 121.11 119.928 121.59 119.274C122.07 118.62 122.787 118.181 123.588 118.05Z" stroke="#A9924D" stroke-width="0.72" stroke-miterlimit="10"/>
<path d="M133.245 20.2745C122.334 17.7663 106.009 14.9556 81.6054 18.9023C62.9341 21.9195 53.5726 26.0433 44.1226 34.8515C37.5866 40.9523 37.6825 53.7294 53.8899 56.9236C73.4981 60.7818 102.947 57.9195 103.264 65.8351C103.537 72.6663 95.253 75.6835 97.289 78.0663C99.3251 80.449 131.961 73.7064 149.319 62.0286C167.666 49.7015 158.91 26.1761 133.267 20.2745" fill="#008B3F"/>
<path d="M129.114 26.2427C121.205 24.5976 101.951 22.2444 84.3348 25.0919C70.8717 27.2681 58.5152 31.1411 51.7357 37.4927C47.0291 41.9189 49.8176 50.2402 61.5693 52.1214C72.7086 53.9066 103.191 53.4935 109.277 60.3616C112.965 64.5296 108.155 67.6648 108.982 69.605C109.808 71.5452 132.588 63.6665 142.304 57.3665C155.708 48.6837 150.699 30.7353 129.114 26.2427" fill="#E73639"/>
<path d="M97.5986 30.1377C81.2879 31.1114 60.1305 36.1205 61.1707 41.5868C62.4912 48.5065 94.7363 43.1508 112.353 53.5746C117.568 56.6582 115.303 59.218 116.484 60.686C117.664 62.1541 142.097 53.5377 141.293 43.409C140.356 31.2664 112.958 29.2229 97.5764 30.1303" fill="#0093D3"/>
</g>
<defs>
<clipPath id="clip0_843:27221">
<path d="M0 10C0 4.47716 4.47715 0 10 0H190C195.523 0 200 4.47715 200 10V290C200 295.523 195.523 300 190 300H10C4.47716 300 0 295.523 0 290V10Z" fill="white"/>
</clipPath>
</defs>
</svg>
