<svg xmlns="http://www.w3.org/2000/svg" xmlns:xlink="http://www.w3.org/1999/xlink" width="200" height="300" viewBox="0 0 200 300">
  <defs>
    <clipPath id="23a-clip-Artboard_1">
      <rect width="200" height="300"/>
    </clipPath>
  </defs>
  <g id="23a-Artboard_1" data-name="23a-Artboard – 1" clip-path="url(#23a-clip-Artboard_1)">
    <rect width="200" height="300" fill="#6f3294"/>
    <g id="23a-Group_2" data-name="23a-Group 2" transform="translate(-49 -2.134)">
      <path id="23a-Path_1" data-name="23a-Path 1" d="M118.136,54.941c-.519-2.558,7.071-15.887,23.125-19.658,12.146-2.85,26.468.528,27.444,3.1,1.229,3.237-7.839,15.09-19.736,18.77-12.282,3.8-30.07,1.558-30.834-2.213" transform="translate(11.545 0)" fill="#2a8227"/>
      <path id="23a-Path_2" data-name="23a-Path 2" d="M125.818,50.153c.214,1.459,9.817,2.108,17.208-.213s14.268-7.539,14.015-9.278-9.48-2.827-17.244-.626c-7.474,2.119-14.232,8.378-13.978,10.117" transform="translate(13.472 1.153)" fill="#3ead7a"/>
      <path id="23a-Path_3" data-name="23a-Path 3" d="M125.818,50.153c.214,1.459,9.817,2.108,17.208-.213s14.268-7.539,14.015-9.278-9.48-2.827-17.244-.626c-7.474,2.119-14.232,8.378-13.978,10.117Z" transform="translate(13.472 1.153)" fill="none" stroke="#937b32" stroke-miterlimit="10" stroke-width="0.274"/>
      <path id="23a-Path_4" data-name="23a-Path 4" d="M175.641,83.863c-6.949-2.243-10.055.04-17.31.963-1.2-3.354-3.5-8.238-10.3-15.82-8.628-9.587-14.672-10.653-17.176-13.95-1.87-2.458-2.693-6.819-3.753-10.762-.558-2.069-5-2.123-5.157.758-.231,4.4,1.593,9.869,1.183,10.63-1.435,2.71-10.867,8.054-16.44,15.6a51.952,51.952,0,0,0-7.92,16.248c-4.476-.071-7.777-2.75-15.727.093-7.932,2.914-12.372,11.109-10.739,21.8,2.2,14.426,11.692,26.778,27.349,26.09,13.762-.623,25.261-11.229,27.514-22.729,1.907-9.859.579-23.21-9.2-26.332-5.026-1.63-8.04-.873-12.093.014A43.511,43.511,0,0,1,114,72.864c4.578-5.381,9.8-9.413,13.35-9.589,4.432-.19,11.035,3.516,17.269,10.4a28.72,28.72,0,0,1,6.429,10.552,21.623,21.623,0,0,0-7.672-.278c-8.371,1.123-15.052,12.238-13.413,22.89,2.2,14.437,13.636,25.71,27.369,26.133,13.788.451,26.8-9.969,29.036-21.515,1.909-9.847-.97-24.441-10.727-27.591" transform="translate(0 2.154)" fill="#ff3900"/>
      <path id="23a-Path_5" data-name="23a-Path 5" d="M81.064,87.588c-8.455,8.176,1.843,28.173,15.6,28.391,20.051.316,24.058-21.781,18.639-28.174s-11.588-1.662-17.665-1.516c-4.551.108-12.429-2.712-16.579,1.3" transform="translate(1.51 12.577)" fill="#fac202"/>
      <path id="23a-Path_6" data-name="23a-Path 6" d="M81.064,87.588c-8.455,8.176,1.843,28.173,15.6,28.391,20.051.316,24.058-21.781,18.639-28.174s-11.588-1.662-17.665-1.516c-4.551.108-12.429-2.712-16.579,1.3Z" transform="translate(1.51 12.577)" fill="none" stroke="#937b32" stroke-miterlimit="10" stroke-width="0.274"/>
      <path id="23a-Path_7" data-name="23a-Path 7" d="M85.341,92.752c-3.734,3.491.624,15.416,11.461,14.657,10.815-.756,14.852-12.684,10.837-16.145-3.142-2.709-8.291.206-11.812.433-3.359.216-7.389-1.839-10.485,1.055" transform="translate(3.018 13.991)" fill="#3ead7a"/>
      <path id="23a-Path_8" data-name="23a-Path 8" d="M85.341,92.752c-3.734,3.491.624,15.416,11.461,14.657,10.815-.756,14.852-12.684,10.837-16.145-3.142-2.709-8.291.206-11.812.433-3.359.216-7.389-1.839-10.485,1.055Z" transform="translate(3.018 13.991)" fill="none" stroke="#937b32" stroke-miterlimit="10" stroke-width="0.274"/>
      <path id="23a-Path_9" data-name="23a-Path 9" d="M128.093,85.2c-8.455,8.176,1.842,28.333,15.6,28.392,21.436.09,24.056-21.782,18.638-28.173S150.726,83.34,144.673,83.9c-5,.464-12.432-2.71-16.58,1.3" transform="translate(13.276 11.949)" fill="#de037f"/>
      <path id="23a-Path_10" data-name="23a-Path 10" d="M128.093,85.2c-8.455,8.176,1.842,28.333,15.6,28.392,21.436.09,24.056-21.782,18.638-28.173S150.726,83.34,144.673,83.9c-5,.464-12.432-2.71-16.58,1.3Z" transform="translate(13.276 11.949)" fill="none" stroke="#937b32" stroke-miterlimit="10" stroke-width="0.274"/>
      <path id="23a-Path_11" data-name="23a-Path 11" d="M132.425,89.773c-3.734,3.489,1.135,15.149,11.971,14.39,10.814-.756,14.265-11.854,10.25-15.316-3.143-2.709-7.7-.624-11.226-.4-3.359.216-7.9-1.573-11,1.323" transform="translate(14.815 13.328)" fill="#346017"/>
      <path id="23a-Path_12" data-name="23a-Path 12" d="M132.425,89.773c-3.734,3.489,1.135,15.149,11.971,14.39,10.814-.756,14.265-11.854,10.25-15.316-3.143-2.709-7.7-.624-11.226-.4-3.359.216-7.9-1.573-11,1.323Z" transform="translate(14.815 13.328)" fill="none" stroke="#937b32" stroke-miterlimit="10" stroke-width="0.274"/>
    </g>
  </g>
</svg>
