<svg width="200" height="300" viewBox="0 0 200 300" fill="none" xmlns="http://www.w3.org/2000/svg">
<g clip-path="url(#clip0_1031:25235)">
<path d="M0 10C0 4.47716 4.47715 0 10 0H190C195.523 0 200 4.47715 200 10V290C200 295.523 195.523 300 190 300H10C4.47716 300 0 295.523 0 290V10Z" fill="#75B0A3"/>
<g clip-path="url(#clip1_1031:25235)">
<path d="M52.0641 -20.8287C43.9422 -19.1155 47.4645 0.543094 32.469 32.1083C17.4734 63.6734 -22.7341 96.4206 -25.8375 141.34C-28.4023 178.336 -0.420322 216.839 44.9681 217.148C85.7741 217.422 120.271 186.739 115.671 134.547C112.021 93.1057 79.6528 66.8085 69.8125 33.4702C59.502 -1.51271 63.0158 -23.1586 52.0641 -20.8287Z" fill="#D17AB0"/>
<path d="M49.2596 14.2056C43.5657 14.197 45.1217 29.5556 34.8625 51.2015C24.6033 72.8474 -2.9683 95.2899 -5.10563 126.093C-6.8155 151.456 11.292 178.884 42.8476 179.518C70.821 180.083 95.0755 157.247 91.9208 121.433C89.4158 93.02 67.2303 74.9888 60.5105 52.1009C53.4146 28.185 57.2276 14.2227 49.2596 14.2056Z" fill="#733E91"/>
<path d="M48.542 36.905C44.1818 37.1277 45.7977 44.7256 37.9152 60.4354C30.0327 76.1452 8.15493 91.3752 6.522 113.724C5.17121 132.132 19.0297 151.362 43.7373 151.413C65.179 151.49 83.3122 136.286 80.8927 110.297C78.9691 89.6706 62.7852 76.3079 56.7836 59.9814C51.4402 45.4195 53.5263 36.5966 48.5762 36.8536" fill="#512F73"/>
<path d="M38.3765 87.872C51.4143 85.1652 69.4106 92.883 70.7614 110.743C72.2575 130.444 57.8605 140.809 44.9595 141.366C32.3236 141.923 18.9524 134.179 16.3876 117.895C14.1477 103.745 23.9281 90.87 38.3765 87.9148" fill="#E73446"/>
<path d="M39.9924 95.9066C48.3109 94.7503 62.5114 99.1788 62.8619 112.876C63.2124 126.572 52.9789 132.731 45.977 132.954C36.0939 133.279 26.5443 128.089 24.7575 116.773C24.3737 114.399 24.4646 111.972 25.0248 109.633C25.5849 107.294 26.6033 105.09 28.0207 103.148C29.438 101.207 31.2262 99.5673 33.2814 98.3241C35.3365 97.0809 37.6177 96.2592 39.9924 95.9066" fill="#457929"/>
<path d="M41.1982 100.995C47.1827 100.138 57.3222 103.342 57.5787 113.158C57.8352 122.975 50.4742 127.343 45.4558 127.549C38.3684 127.78 31.5289 124.063 30.2551 115.951C29.9796 114.247 30.0451 112.506 30.4478 110.828C30.8506 109.15 31.5824 107.569 32.6009 106.177C33.6193 104.785 34.9039 103.61 36.3799 102.72C37.8559 101.831 39.4938 101.244 41.1982 100.995" fill="#A9924D"/>
<path d="M42.1557 104.318C46.5159 103.71 53.9538 106.031 54.1248 113.218C54.2958 120.405 48.9268 123.617 45.2506 123.737C40.0697 123.908 35.0597 121.167 34.1364 115.257C33.9362 114.01 33.9853 112.737 34.2808 111.509C34.5762 110.282 35.1123 109.126 35.8576 108.108C36.603 107.09 37.5429 106.231 38.6226 105.581C39.7024 104.93 40.9004 104.501 42.1471 104.318" fill="#00A18F"/>
<path d="M132.42 20.4758C128.521 21.0754 130.992 28.5877 125.52 40.0916C120.049 51.5956 105.421 63.5107 104.292 79.8714C104.049 83.4102 104.536 86.9613 105.723 90.3033C106.909 93.6453 108.77 96.7066 111.189 99.2966C113.608 101.887 116.533 103.95 119.783 105.358C123.033 106.765 126.537 107.488 130.077 107.479C144.936 107.582 157.503 96.4035 155.828 77.3959C154.503 62.3029 142.713 52.7263 139.122 40.5628C135.369 27.851 136.6 19.8505 132.42 20.4758Z" fill="#EDCA00"/>
<path d="M131.641 33.573C129.581 33.8471 130.145 39.1665 126.401 47.0471C122.656 54.9277 112.662 63.1081 111.807 74.3293C111.166 83.5633 119.339 93.0286 129.487 93.2599C139.635 93.4911 148.295 85.6619 147.15 72.6333C146.235 62.2857 138.147 55.7157 135.694 47.3811C133.18 38.6525 134.437 33.2047 131.641 33.573Z" fill="#E73639"/>
<path d="M131.376 42.0446C129.794 42.1903 130.949 44.8028 127.76 50.3278C124.571 55.8528 116.757 60.8638 116.081 69.8237C115.577 76.5307 120.638 83.529 129.641 83.529C137.446 83.529 144.055 78.0212 143.174 68.5645C142.473 61.0523 136.275 56.2896 134.394 50.2336C132.419 43.9034 133.283 41.8219 131.385 42.0104" fill="#A9924D"/>
<path d="M127.675 60.4096C132.479 59.4674 139.473 62.1228 139.644 69.301C139.815 76.4792 134.514 79.58 130.436 79.837C127.894 80.0704 125.36 79.3199 123.354 77.7396C121.347 76.1593 120.021 73.8692 119.647 71.3397C119.294 68.8306 119.934 66.2827 121.431 64.2403C122.928 62.198 125.162 60.8231 127.657 60.4096" fill="#1C8145"/>
<path d="M128.281 63.3049C131.701 62.6282 136.48 64.5041 136.608 69.4895C136.737 74.4748 133.394 76.5563 130.444 76.8047C126.854 77.0959 123.365 75.0316 122.75 70.9028C122.507 69.1646 122.948 67.3998 123.98 65.9818C125.013 64.5638 126.555 63.6038 128.281 63.3049" fill="#F8C1B6"/>
<path d="M128.708 65.1725C129.369 65.0285 130.052 65.0231 130.715 65.1564C131.377 65.2898 132.005 65.5591 132.559 65.9475C133.113 66.3358 133.58 66.8347 133.932 67.4129C134.284 67.991 134.513 68.6359 134.604 69.3069C134.695 69.9779 134.646 70.6606 134.461 71.3119C134.276 71.9632 133.959 72.5692 133.529 73.0916C133.099 73.614 132.565 74.0416 131.962 74.3475C131.359 74.6534 130.7 74.831 130.025 74.869C129.395 74.9414 128.757 74.8878 128.148 74.7111C127.539 74.5344 126.971 74.2382 126.477 73.8397C125.983 73.4413 125.573 72.9485 125.27 72.3899C124.968 71.8314 124.78 71.2182 124.716 70.5861C124.543 69.336 124.863 68.0675 125.608 67.0502C126.354 66.0329 127.466 65.347 128.708 65.1382" fill="#594696"/>
<path d="M158.136 99.6414C153.306 99.6414 154.451 111.745 145.731 130.093C137.011 148.441 113.654 167.466 111.85 193.566C110.362 215.066 126.623 237.449 152.998 237.62C176.714 237.783 196.762 219.949 194.086 189.651C191.966 165.564 173.157 150.248 167.438 130.89C161.453 110.58 164.873 99.6756 158.136 99.6671" fill="#457929"/>
<path d="M156.613 121.373C153.305 121.493 154.228 130.299 148.252 142.873C142.276 155.448 126.263 168.502 125.024 186.396C123.998 201.138 136.993 216.24 153.236 216.6C169.48 216.959 183.74 204.316 181.902 183.518C180.449 167.012 167.052 156.699 163.094 143.396C158.982 129.476 160.529 121.236 156.571 121.373" fill="#E94E24"/>
<path d="M156.323 134.607C153.758 134.693 154.725 137.939 150.142 147.071C145.56 156.202 133.283 165.658 132.334 178.644C131.556 189.343 139.609 200.513 153.964 200.564C166.429 200.564 176.961 191.776 175.559 176.691C174.439 164.699 164.556 157.101 161.547 147.447C158.401 137.348 159.35 134.504 156.323 134.599" fill="#C9182C"/>
<path d="M151.014 161.855C159.563 160.407 169.823 165.975 170.105 176.691C170.378 188.152 161.812 193.292 155.947 193.48C147.688 193.754 139.703 189.411 138.207 179.946C136.908 171.723 142.559 163.277 151.031 161.855" fill="#8E4896"/>
<path d="M151.698 166.772C158.204 165.282 165.026 169.068 165.231 177.051C165.436 185.034 159.469 188.581 155.4 188.718C149.654 188.906 144.106 185.891 143.063 179.295C142.647 176.5 143.308 173.65 144.911 171.325C146.515 168.999 148.941 167.372 151.698 166.772Z" fill="#DB428B"/>
<path d="M152.741 169.753C156.204 169.273 162.145 171.115 162.256 176.82C162.368 182.525 158.136 185.077 155.212 185.18C151.1 185.317 147.124 183.15 146.38 178.439C146.22 177.449 146.258 176.437 146.492 175.462C146.727 174.487 147.152 173.569 147.744 172.76C148.336 171.952 149.083 171.27 149.941 170.753C150.799 170.237 151.751 169.897 152.741 169.753" fill="#F8C1B6"/>
<path d="M224.607 79.4089C224.017 79.1862 222.701 79.546 222.53 80.0428C222.068 81.3705 222.53 81.7559 220.375 81.8502C218.221 81.9444 192.692 81.8502 191.188 80.1884C189.683 78.5266 191.991 73.507 191.017 72.0508C190.213 70.8345 187.905 70.6632 187.597 69.7381C187.289 68.813 187.597 65.1896 187.366 64.3673C187.135 63.545 185.827 62.9282 185.656 61.7975C185.571 61.0951 185.374 57.8401 185.246 55.5787C188.05 56.0327 193.077 56.8465 193.958 56.9493C195.189 57.0863 195.667 50.9532 194.009 51.2358C192.35 51.5185 183.989 52.2123 183.006 52.2123C181.792 52.2123 173.208 50.3707 172.234 50.5934C170.738 50.9446 171.105 55.9214 172.063 56.1955C172.712 56.3839 177.663 55.8871 180.792 55.553C180.834 57.9857 180.843 61.9003 180.475 62.4057C179.798 63.0688 179.222 63.8278 178.765 64.6585C178.372 66.1147 179.125 69.1385 178.518 69.798C177.791 70.6546 175.619 70.7745 174.85 72.4706C173.995 74.3808 176.56 78.8264 173.585 80.3854C171.661 81.379 162.693 80.0342 157.341 85.9789C153.921 89.7993 153.921 98.3651 154.178 99.0847C154.434 99.8042 155.734 100.352 158.153 100.412C160.718 100.481 163.411 100.035 163.684 98.3908C163.958 96.7462 163.137 91.7523 168.352 91.7009C174.243 91.6409 177.398 94.9559 182.886 94.8189C188.375 94.6818 189.563 92.6774 193.599 92.1635C197.634 91.6495 219.007 92.883 220.503 93.3455C221.555 93.671 221.871 94.6989 222.555 95.1101C223.239 95.5213 224.462 95.9667 224.744 95.2472C225.026 94.5276 225.18 79.5888 224.598 79.3746" fill="#E6F1E3"/>
</g>
</g>
<defs>
<clipPath id="clip0_1031:25235">
<path d="M0 10C0 4.47716 4.47715 0 10 0H190C195.523 0 200 4.47715 200 10V290C200 295.523 195.523 300 190 300H10C4.47716 300 0 295.523 0 290V10Z" fill="white"/>
</clipPath>
<clipPath id="clip1_1031:25235">
<rect width="251" height="272" fill="white" transform="translate(-26 -21)"/>
</clipPath>
</defs>
</svg>
