<svg xmlns="http://www.w3.org/2000/svg" xmlns:xlink="http://www.w3.org/1999/xlink" width="200" height="300" viewBox="0 0 200 300">
  <defs>
    <clipPath id="31c-clip-path">
      <rect id="31c-Rectangle_3" data-name="31c-Rectangle 3" width="256" height="256" fill="none"/>
    </clipPath>
    <clipPath id="31c-clip-path-2">
      <path id="31c-Path_16" data-name="31c-Path 16" d="M197.268,159.462c-11.23,34.1,7.225,71.137,38.559,81.784s68.18,1.55,81.185-38.168-4-70.724-36.929-83.586a66.807,66.807,0,0,0-23.831-4.534c-27.212,0-50.271,18.023-58.985,44.5" transform="translate(-193.958 -114.959)" fill="none"/>
    </clipPath>
    <clipPath id="31c-clip-Kort_-_artikel_31c">
      <rect width="200" height="300"/>
    </clipPath>
  </defs>
  <g id="31c-Kort_-_artikel_31c" data-name="31c-Kort - artikel 31c" clip-path="url(#31c-clip-Kort_-_artikel_31c)">
    <rect width="200" height="300" fill="#92bab0"/>
    <g id="31c-Group_5" data-name="31c-Group 5" transform="translate(-93.522 -21.41)">
      <rect id="31c-Rectangle_1" data-name="31c-Rectangle 1" width="256" height="256" transform="translate(37.522 43.41)" fill="#92bab0"/>
      <g id="31c-Group_2" data-name="31c-Group 2" transform="translate(37.522 43.41)">
        <g id="31c-Group_1" data-name="31c-Group 1" clip-path="url(#31c-clip-path)">
          <path id="31c-Path_1" data-name="31c-Path 1" d="M182.724,125.233c0-13.993-8.647-27.51-26.317-27.318s-27.772,11.218-28.448,26.148c-.154,20.092,12.146,27.867,27.262,27.725,15.179-.138,27.5-12.563,27.5-26.555" transform="translate(-65.834 -60.473)" fill="#f1bd00"/>
          <rect id="31c-Rectangle_2" data-name="31c-Rectangle 2" width="288.044" height="27.082" transform="translate(-25.775 179.329)" fill="#f1bd00"/>
          <path id="31c-Path_2" data-name="31c-Path 2" d="M10.491,241.471s51.158.662,108.09,2.748S297.224,248.7,297.224,248.7l-2.559-24.992s-105.361,1.852-149.674.158-131.282,1.978-131.282,1.978Z" transform="translate(-29.06 -99.764)" fill="#388527"/>
          <path id="31c-Path_3" data-name="31c-Path 3" d="M29.791,296.565s82.845,2.162,144.007,3.784,120.038,3.736,120.038,3.736l1.877,9.974s-122.364-2.228-155.057-2.878-110.6-4.916-110.6-4.916Z" transform="translate(-35.102 -122.663)" fill="#e99e00"/>
          <path id="31c-Path_4" data-name="31c-Path 4" d="M25.178,299.147s82.183,2.481,141.727,4.053,125.874,3.575,125.874,3.575l-1.437-12.89s-96.076-3.464-140.376-5.478S22.09,287,22.09,287Z" transform="translate(-32.691 -119.641)" fill="#ccb7bf"/>
          <path id="31c-Path_5" data-name="31c-Path 5" d="M15.7,280.225s89.342,1.682,154.056,3.636S289.2,286.34,289.2,286.34l3.282-17.593s-91.536-3.551-147.527-4.9-128.218-1.617-128.218-1.617-1.025,17.887-1.03,18" transform="translate(-30.691 -111.912)" fill="#b86ca8"/>
          <path id="31c-Path_6" data-name="31c-Path 6" d="M12.234,264.888s82.547,1.478,147.911,3.337S290.9,271.16,290.9,271.16l.041-9.239s-103.821-4.262-154.637-5.345-123.388-.907-123.388-.907-.691,9.332-.686,9.22" transform="translate(-29.605 -109.856)" fill="#e64910"/>
          <path id="31c-Path_7" data-name="31c-Path 7" d="M4.8,254.995s92.519,3.328,151.726,5.248,128.184,2.467,128.184,2.467l.953-7.723s-135.915-3.7-174.736-5.008S3.467,247.738,3.467,247.738Z" transform="translate(-26.861 -107.377)" fill="#987d18"/>
          <path id="31c-Path_8" data-name="31c-Path 8" d="M235.828,241.245c31.331,10.644,68.18,1.55,81.185-38.167s-4-70.724-36.929-83.586c-36.864-14.044-71.64,6.009-82.816,39.97-11.23,34.1,7.225,71.138,38.559,81.784" transform="translate(-86.496 -65.809)" fill="#f1bd00"/>
        </g>
      </g>
      <g id="31c-Group_4" data-name="31c-Group 4" transform="translate(144.984 92.56)">
        <g id="31c-Group_3" data-name="31c-Group 3" clip-path="url(#31c-clip-path-2)">
          <path id="31c-Path_9" data-name="31c-Path 9" d="M308.447,173.022s-57.983-18.93-100.776-32.955-83.623-28.643-83.623-28.643l5.162-20.389s86.273,26.02,109.289,33.08,76.084,29.353,76.084,29.353Z" transform="translate(-172.072 -107.469)" fill="#2a382b"/>
          <path id="31c-Path_10" data-name="31c-Path 10" d="M299.078,161.717s-57.3-19.456-98.967-33.1S112.2,99.274,112.2,99.274l-7.378,26.179s66.622,23.877,97.071,35.724c31.584,12.289,35.817,20.574,95.75,34Z" transform="translate(-166.052 -110.049)" fill="#37a894"/>
          <path id="31c-Path_11" data-name="31c-Path 11" d="M311.328,201.305s-62.955-19.11-108.075-34.429-84.015-26.008-84.015-26.008l-13.829,34.808s63.308,23.256,102.568,35.829,90.871,25.821,90.871,25.821,12.405-35.794,12.48-36.02" transform="translate(-166.237 -123.07)" fill="#d4dad3"/>
          <path id="31c-Path_12" data-name="31c-Path 12" d="M283.782,220.211s-58.217-17.5-103.866-32.749-91.834-28.914-91.834-28.914l-6.055,18.576s71.653,26.844,107.378,37.965,87.872,23.545,87.872,23.545,6.582-18.65,6.5-18.423" transform="translate(-158.917 -128.605)" fill="#e64910"/>
          <path id="31c-Path_13" data-name="31c-Path 13" d="M276.218,243.038s-63.911-23.712-105.042-38.181-90.948-25.594-90.948-25.594L70.892,205.28s95.213,30.817,122.132,40.46,76.05,22.045,76.05,22.045Z" transform="translate(-155.431 -135.09)" fill="#987d18"/>
          <path id="31c-Path_14" data-name="31c-Path 14" d="M284.285,267.472s-36.1-10.748-75.659-24.68-125.066-40.7-125.066-40.7l-9.775,36.938s75.849,17.447,106.6,28.393,94.358,22.223,94.358,22.223Z" transform="translate(-156.336 -142.237)" fill="#de1d2a"/>
          <path id="31c-Path_15" data-name="31c-Path 15" d="M297.089,293.872s-36.468-9.443-76.5-21.945-126.45-36.179-126.45-36.179L85.7,273.013s76.427,14.71,107.554,24.544,95.1,18.817,95.1,18.817Z" transform="translate(-160.067 -152.773)" fill="#ccb7bf"/>
        </g>
      </g>
    </g>
  </g>
</svg>
