<svg xmlns="http://www.w3.org/2000/svg" xmlns:xlink="http://www.w3.org/1999/xlink" width="200" height="300" viewBox="0 0 200 300">
  <defs>
    <clipPath id="39-clip-path">
      <rect id="39-Rectangle_2" data-name="39-Rectangle 2" width="399.277" height="399.279" fill="none"/>
    </clipPath>
    <clipPath id="39-clip-Kort_-_artikel_39">
      <rect width="200" height="300"/>
    </clipPath>
  </defs>
  <g id="39-Kort_-_artikel_39" data-name="39-Kort - artikel 39" clip-path="url(#39-clip-Kort_-_artikel_39)">
    <rect width="200" height="300" fill="#f8bc00"/>
    <g id="39-Group_3" data-name="39-Group 3" transform="translate(-210.633 -76.028)">
      <path id="39-Path_1" data-name="39-Path 1" d="M298.672,92.874l49.077,38.8-39.178,6.832Z" transform="translate(18.183 5.725)" fill="#001116"/>
      <path id="39-Path_2" data-name="39-Path 2" d="M310.913,138.063l-10.207-45.19L270.2,145.868Z" transform="translate(16.15 5.725)" fill="#00822c"/>
      <path id="39-Path_3" data-name="39-Path 3" d="M347.068,129.088l-25.642,84.724L308.2,135.477Z" transform="translate(18.864 8.311)" fill="#de1a35"/>
      <path id="39-Path_4" data-name="39-Path 4" d="M324.2,213.476l-53.967-70.632,40.678-7.792Z" transform="translate(16.153 8.737)" fill="#c7bfd2"/>
      <g id="39-Group_2" data-name="39-Group 2" transform="translate(44.022 12.694)">
        <g id="39-Group_1" data-name="39-Group 1" clip-path="url(#39-clip-path)">
          <path id="39-Path_5" data-name="39-Path 5" d="M333.821,207.883s2.659,19.286-18.162,35.652C293.4,261.024,268.916,258.218,228.2,283.4c-89.573,55.393-93.748,153.031-93.748,153.031" transform="translate(-37.565 1.244)" fill="none" stroke="#001116" stroke-linecap="round" stroke-width="0.7"/>
          <path id="39-Path_6" data-name="39-Path 6" d="M319.862,220.553l8.007-1.474-2.721,8.675-5.807-5.5-7.034,1.9,1.651-8.676Z" transform="translate(-24.865 1.786)" fill="#9c8139"/>
          <path id="39-Path_7" data-name="39-Path 7" d="M311.543,234.388l7.907,1.949-6.045,6.788-3.037-7.4-7.193-1.155,5.07-7.231Z" transform="translate(-25.517 2.633)" fill="#00050c"/>
          <path id="39-Path_8" data-name="39-Path 8" d="M299.35,245.273l6.526,4.875-8.219,3.9.091-7.995-6.176-3.87,7.489-4.682Z" transform="translate(-26.345 3.358)" fill="#229576"/>
          <path id="39-Path_9" data-name="39-Path 9" d="M284.976,252.787l5.459,6.046-8.818,2.233,1.635-7.829-5.309-4.991L286.2,245.1Z" transform="translate(-27.319 3.901)" fill="#de1a35"/>
        </g>
      </g>
    </g>
  </g>
</svg>
