<svg width="200" height="300" viewBox="0 0 200 300" fill="none" xmlns="http://www.w3.org/2000/svg">
<rect width="200" height="300" fill="#35A936"/>
<g clip-path="url(#clip0_1968_33815)">
<path d="M1.04257 113.781C-0.387591 126.67 34.2652 172.912 97.5786 173.986C150.53 174.888 201.072 131.74 200 119.889C198.927 108.039 164.753 60 99.1589 60C48.7385 60 3.18782 94.4485 1.04257 113.781Z" fill="#E6007E"/>
<path d="M10.4742 115.185C9.22279 126.47 41.8591 166.174 97.4209 167.119C143.901 167.907 191.297 130.272 190.381 119.896C189.466 109.521 156.429 67.0459 98.8511 67.0459C54.5875 67.0459 12.3834 98.2078 10.4956 115.185" fill="#EA5426"/>
<path d="M91.9162 77.901C112.26 74.8077 140.499 84.9611 141.257 114.512C142.015 144.063 119.847 157.316 104.709 157.818C83.3852 158.534 62.7694 147.313 58.9438 122.904C58.1462 117.78 58.3672 112.548 59.5941 107.51C60.8211 102.471 63.0298 97.7249 66.0934 93.5435C69.1571 89.362 73.0153 85.8277 77.4467 83.1433C81.8781 80.4589 86.7953 78.6774 91.9162 77.901" fill="#008CCD"/>
<path d="M118.037 120.533C117.408 116.423 114.948 107.996 114.197 105.618C113.446 103.241 111.951 101.587 109.842 99.4534C107.325 96.8972 105.051 95.0212 105.144 94.033C105.237 93.0449 109.077 91.3551 108.805 86.5433C108.455 80.414 102.97 77.8291 98.7439 78.4736C97.6759 78.626 96.649 78.9906 95.7236 79.5457C94.7981 80.1009 93.9927 80.8356 93.3546 81.7066C92.7165 82.5777 92.2586 83.5676 92.0077 84.6182C91.7568 85.6689 91.7179 86.7591 91.8935 87.825C92.7015 92.1642 95.9408 92.9232 95.9909 93.9972C96.0409 95.0713 93.3451 96.6179 90.8995 98.9379C88.8901 100.85 87.1382 103.299 86.516 105.712C85.8939 108.125 83.7344 116.33 83.0979 120.44C82.5116 124.214 87.8103 124.794 88.4682 121.479C89.1261 118.163 90.07 112.736 90.5133 110.974C90.7994 109.829 91.872 109.865 91.8148 111.275C91.7576 112.686 88.9116 149.068 88.4325 149.941C87.9534 150.815 87.1954 151.23 87.1239 152.268C86.9379 155.032 91.6074 154.509 94.482 154.509C97.3567 154.509 98.844 153.944 99.1658 152.025C99.3231 151.101 99.8809 137.876 99.9381 135.406C99.9381 134.539 100.081 133.973 100.553 134.038C101.025 134.102 101.154 134.539 101.168 135.406C101.168 137.876 101.776 151.101 101.933 152.025C102.255 153.944 103.735 154.509 106.617 154.509C109.499 154.509 114.161 155.032 113.975 152.268C113.904 151.23 113.139 150.836 112.667 149.941C112.195 149.046 109.349 112.664 109.291 111.275C109.234 109.886 110.3 109.843 110.586 110.974C111.029 112.736 112.016 118.264 112.667 121.572C113.317 124.88 118.623 124.307 118.037 120.533" fill="#A9924D"/>
<path d="M103.535 100.305C104.114 100.305 106.717 98.7015 108.691 100.441C110.078 101.673 109.921 104.022 108.026 106.234C105.745 108.891 103.428 109.771 103.02 109.743C102.441 109.743 100.246 108.719 98.3509 105.769C96.7634 103.284 97.2067 101.107 98.501 100.098C100.775 98.322 102.97 100.32 103.571 100.305" fill="#E6007E"/>
<path d="M103.536 101.745C103.98 101.745 105.953 100.255 107.24 101.394C108.149 102.196 108.034 103.821 106.797 105.26C105.82 106.467 104.55 107.402 103.107 107.974C102.728 107.974 100.962 106.807 99.7249 104.874C98.6881 103.255 98.7167 102.067 99.5533 101.401C101.205 100.076 103.129 101.759 103.536 101.759" fill="#EA5426"/>
</g>
<defs>
<clipPath id="clip0_1968_33815">
<rect width="199" height="114" fill="white" transform="translate(1 60)"/>
</clipPath>
</defs>
</svg>
