<svg width="200" height="300" viewBox="0 0 200 300" fill="none" xmlns="http://www.w3.org/2000/svg">
<g clip-path="url(#clip0_1901_35228)">
<rect width="200" height="300" fill="#3F2B3E"/>
<path d="M131.716 54.4369C129.036 52.4369 97.4858 40.9469 91.1058 38.9469C80.3958 35.5869 75.7058 31.4069 73.6658 29.0669C71.6258 26.7269 69.5858 26.3069 65.9058 25.9069C64.4924 25.7378 63.0687 25.6709 61.6458 25.7069C61.5858 24.1769 61.5458 22.1969 61.6458 20.7769C61.6458 20.3269 61.9658 19.9469 62.7758 19.3269C63.0077 19.1621 63.2518 19.0151 63.5058 18.8869C65.2232 18.0467 66.6851 16.7629 67.7399 15.1683C68.7948 13.5737 69.4044 11.7262 69.5058 9.81688C69.8458 6.00688 68.0058 1.18688 61.5458 0.156878C57.1058 -0.553122 53.6658 1.14688 51.3158 5.25688L51.2458 5.37688C50.7881 6.03638 50.1681 6.56678 49.4458 6.91688C49.2324 7.04422 49.0741 7.24643 49.0017 7.48409C48.9293 7.72176 48.948 7.97788 49.0541 8.20254C49.1602 8.4272 49.3461 8.60433 49.5756 8.69941C49.8052 8.79449 50.0619 8.80072 50.2958 8.71688C51.375 8.18763 52.2933 7.3798 52.9558 6.37688L53.0358 6.24688C53.7405 4.74033 54.9347 3.5169 56.4238 2.77598C57.9129 2.03507 59.609 1.82037 61.2358 2.16688C66.3258 2.97688 67.7958 6.56688 67.4758 9.66688C66.9658 14.6669 64.1758 16.2669 62.4758 17.2069C62.1281 17.382 61.7939 17.5825 61.4758 17.8069C60.9637 18.1179 60.5279 18.5399 60.2008 19.0418C59.8737 19.5438 59.6635 20.1128 59.5858 20.7069C59.4958 22.1669 59.5358 24.1069 59.5858 25.6469C58.1896 25.6258 56.7935 25.6926 55.4058 25.8469C51.7258 26.2569 49.6858 26.6669 47.6458 29.0069C45.6058 31.3469 40.9158 35.5369 30.2058 38.8969C23.8258 40.8969 -7.72424 52.3869 -10.4042 54.3869C-14.0742 57.1369 -11.2142 66.3869 -3.87424 64.1769C3.27576 61.9869 16.5758 56.1069 29.6858 51.5369C44.8958 46.2369 56.8458 45.1169 60.6858 45.1169C64.5258 45.1169 76.4158 46.2569 91.6158 51.5869C104.736 56.1569 118.036 62.0469 125.186 64.2569C132.526 66.4969 135.386 57.2569 131.716 54.4669" fill="#A9924D"/>
<path d="M255.559 272.367C269.699 241.017 267.929 185.797 220.389 158.267C175.859 132.417 117.049 142.417 91.0094 182.407C50.6794 244.407 83.6394 304.797 135.119 322.167C192.119 341.387 234.319 319.487 255.559 272.367" fill="#DE007E"/>
<path d="M230.748 264.067C241.098 241.497 239.878 201.537 205.338 181.927C173.268 163.697 131.468 171.347 113.198 199.927C85.1985 243.747 109.878 284.107 144.898 297.927C178.128 311.077 215.258 297.787 230.748 264.027" fill="#E73B23"/>
<path d="M205.388 254.018C211.648 240.588 210.958 216.748 190.258 205.258C171.258 194.688 146.728 199.538 136.168 216.398C120.148 242.018 134.388 265.448 154.648 273.678C174.108 281.578 196.128 273.978 205.418 254.018" fill="#A9924D"/>
<path d="M22.7955 38.7165C22.7955 38.7165 26.5455 75.7165 17.8555 94.2465C14.2037 102.131 9.80708 109.648 4.72555 116.696L-1.81445 172.056V251.476C17.0302 253.369 35.9683 254.174 54.9055 253.886C97.5655 253.496 147.106 247.656 147.106 247.656L117.986 112.846C117.986 112.846 104.776 94.5465 99.9855 82.4565C93.2856 65.3965 94.3055 35.8665 94.3055 35.8665L86.1955 34.6465C86.1955 34.6465 81.1955 67.0965 61.0555 67.8665C40.9155 68.6365 29.6355 36.9265 29.6355 36.9265L22.7955 38.7165Z" fill="#EBE6D4"/>
<mask id="mask0_1901_35228" style="mask-type:alpha" maskUnits="userSpaceOnUse" x="-2" y="34" width="150" height="220">
<path d="M22.7955 38.7165C22.7955 38.7165 26.5455 75.7165 17.8555 94.2465C14.2037 102.131 9.80708 109.648 4.72555 116.696L-1.81445 172.056V251.476C17.0302 253.369 35.9683 254.174 54.9055 253.886C97.5655 253.496 147.106 247.656 147.106 247.656L117.986 112.846C117.986 112.846 104.776 94.5465 99.9855 82.4565C93.2856 65.3965 94.3055 35.8665 94.3055 35.8665L86.1955 34.6465C86.1955 34.6465 81.1955 67.0965 61.0555 67.8665C40.9155 68.6365 29.6355 36.9265 29.6355 36.9265L22.7955 38.7165Z" fill="#EBE6D4"/>
</mask>
<g mask="url(#mask0_1901_35228)">
<path d="M-3.26418 213.257C-0.35418 186.997 21.8658 168.567 45.6558 171.257C76.0658 174.747 91.2458 194.917 91.5058 219.117C91.8458 249.997 68.5058 266.117 38.3458 263.117C10.3958 260.327 -6.26418 240.307 -3.26418 213.257Z" fill="#13A538"/>
<path d="M18.7756 241.397C10.0656 231.927 6.63564 212.087 19.4456 197.397C29.5056 185.827 52.0656 182.167 65.7856 194.657C82.2456 209.657 77.3756 230.907 65.7856 241.857C50.9256 255.947 31.5456 255.397 18.7856 241.447" fill="#A6944E"/>
<path d="M82.1854 84.4969C66.9854 83.3069 62.6154 95.2569 53.9454 99.9969C45.2754 104.737 35.9454 98.8069 28.5954 110.507C21.2454 122.207 35.7654 129.777 34.9454 140.157C34.1254 150.537 28.5054 162.417 40.4154 172.157C49.1854 179.257 58.7454 169.707 68.6854 170.747C78.6254 171.787 82.9554 187.437 98.5154 178.997C108.835 173.397 107.575 156.617 109.625 151.317C112.695 143.317 129.835 143.847 127.105 128.377C124.355 112.737 109.025 114.157 104.495 109.607C99.9654 105.057 97.9354 85.7469 82.1854 84.4969Z" fill="#E22414"/>
<path d="M77.9258 111.728C71.3358 111.208 69.4458 116.398 65.6858 118.448C61.9258 120.498 57.8858 117.928 54.6858 123.008C51.4858 128.088 57.7958 131.368 57.4358 135.868C57.0758 140.368 54.6458 145.528 59.8158 149.738C63.6058 152.828 67.7658 148.738 72.0758 149.138C76.3858 149.538 78.2658 156.388 85.0758 152.718C89.5458 150.288 88.9958 143.008 89.8858 140.718C91.2258 137.268 98.6458 137.478 97.4758 130.768C96.3058 124.058 89.6258 124.598 87.6658 122.628C85.7058 120.658 84.7658 112.258 77.9258 111.728Z" fill="#D02185"/>
<path d="M31.6151 190.818C48.0651 183.818 50.7651 197.628 53.4651 198.618C55.4651 199.348 65.8751 191.138 72.3751 204.858C79.8451 220.618 64.4551 225.658 63.7551 227.318C63.0551 228.978 69.8951 240.878 53.9251 247.218C36.6651 254.068 33.7651 239.038 32.0551 238.218C30.1051 237.278 19.1751 243.458 13.7051 231.138C7.94515 218.138 21.8651 213.908 22.2451 212.218C22.6251 210.528 14.7551 197.998 31.6151 190.838" fill="#B29CCB"/>
<path d="M47.3358 209.257C51.4258 210.767 54.5858 216.607 52.3358 221.427C51.8039 222.636 51.0379 223.727 50.082 224.638C49.1261 225.549 47.9992 226.262 46.7664 226.735C45.5336 227.208 44.2193 227.433 42.8993 227.395C41.5793 227.358 40.2798 227.059 39.0758 226.517C35.0758 224.757 32.4058 220.637 34.2958 214.717C35.5958 210.667 41.3458 207.047 47.2958 209.257" fill="#877D23"/>
</g>
</g>
<defs>
<clipPath id="clip0_1901_35228">
<rect width="200" height="300" fill="white"/>
</clipPath>
</defs>
</svg>
