<svg width="200" height="300" viewBox="0 0 200 300" fill="none" xmlns="http://www.w3.org/2000/svg">
<g clip-path="url(#clip0_1901_35113)">
<rect width="200" height="300" fill="#D7C3BE"/>
<path d="M109.054 211.67C103.07 233.186 110.827 271.955 149.313 277.275C187.798 282.594 208.508 257.451 211.495 239.064C215.662 213.168 204.19 186.377 172.895 178.078C145.695 170.871 116.368 185.384 109.063 211.67" fill="#877D23"/>
<path d="M113.841 213.08C108.433 232.504 115.446 267.514 150.19 272.293C184.934 277.071 203.623 254.411 206.318 237.815C210.086 214.436 199.722 190.216 171.467 182.76C146.919 176.244 120.437 189.356 113.841 213.08" fill="#8EB2B4"/>
<path d="M127.344 217.346C123.559 230.937 128.479 255.467 152.788 258.783C177.098 262.099 190.201 246.265 192.089 234.651C194.749 218.277 187.47 201.352 167.691 196.104C150.492 191.556 131.972 200.732 127.344 217.381" fill="#EC621D"/>
<path d="M141.326 222.841C139.26 230.252 141.937 243.595 155.182 245.421C168.427 247.247 175.573 238.603 176.593 232.273C178.038 223.346 174.075 214.126 163.294 211.271C153.932 208.789 143.79 213.789 141.317 222.841" fill="#E2162A"/>
<path d="M4.67987 6.70001C-21.961 20.0426 -54.6571 61.489 -28.2378 102.226C-1.81858 142.963 40.5852 140.286 61.6054 126.881C91.1187 107.98 108.717 73.617 91.2429 36.9669C76.0473 5.11308 37.2163 -9.59482 4.67987 6.70001Z" fill="#877D23"/>
<path d="M6.40027 11.2036C-18.1838 23.5089 -48.3444 61.737 -23.973 99.3269C0.398303 136.917 39.5307 134.425 58.9108 122.067C86.19 104.628 102.352 72.9165 86.2609 39.1122C72.2711 9.73188 36.4189 -3.84124 6.40027 11.2036" fill="#00923D"/>
<path d="M13.4038 27.977C-3.79535 36.5765 -24.9042 63.3504 -7.87349 89.6633C9.15718 115.976 36.5783 114.23 50.1425 105.621C69.2743 93.3691 80.5956 71.1787 69.3186 47.4811C59.5045 26.9131 34.4328 17.427 13.4038 27.977Z" fill="#00A18F"/>
<path d="M19.5199 46.3209C10.1491 51.0285 -1.34951 65.5945 7.94156 79.9301C17.2326 94.2656 32.1622 93.3082 39.556 88.6006C49.9641 81.9426 56.1346 69.85 49.9907 56.9595C48.7062 54.2447 46.8946 51.8124 44.6613 49.8043C42.4281 47.7961 39.8177 46.2521 36.9822 45.2621C34.1467 44.2721 31.1426 43.8558 28.1447 44.0376C25.1469 44.2194 22.2151 44.9955 19.5199 46.3209" fill="#EC6726"/>
<path d="M244.494 15.2988C225.512 24.9888 107.246 122.359 92.0066 129.309C82.4318 133.662 62.8833 132.794 53.149 131.969C44.1327 131.278 34.3807 125.497 32.0313 129.044C29.6819 132.59 31.6057 135.781 35.8789 139.558C43.1664 145.986 51.0833 143.725 51.7659 149.044C52.5816 155.498 14.7878 168.85 9.21142 171.447C2.43816 174.612 4.43291 185.747 13.7417 182.972C24.4424 179.816 40.4181 173.761 42.7586 172.91C45.0991 172.059 46.1895 174.089 43.8313 175.268C39.8596 177.272 16.3482 189.24 12.6158 191.226C4.69886 195.473 8.75042 206.493 17.7312 202.751C30.0454 197.654 46.8899 190.606 49.2038 189.772C51.6684 188.886 52.9805 191.209 50.4095 192.68C48.1931 193.939 28.3432 206.289 23.9282 209.09C16.7737 213.629 21.0558 224.295 30.6039 220.013C42.271 214.773 55.4895 207.601 57.7945 206.227C60.5606 204.533 62.3514 206.83 59.6651 208.647C56.7306 210.651 46.8722 217.663 41.4287 221.165C35.3115 225.093 39.1858 235.35 47.0849 231.165C55.8884 226.449 70.1353 217.814 79.8874 211.83C86.8114 207.61 118.488 183.159 132.194 177.591C148.072 171.137 176.894 161.305 203.189 146.916C244.857 124.114 283.963 95.718 283.963 95.718L244.494 15.2988Z" fill="#48312F"/>
<mask id="mask0_1901_35113" style="mask-type:alpha" maskUnits="userSpaceOnUse" x="5" y="15" width="279" height="218">
<path d="M244.494 15.2988C225.512 24.9888 107.246 122.359 92.0066 129.309C82.4318 133.662 62.8833 132.794 53.149 131.969C44.1327 131.278 34.3807 125.497 32.0313 129.044C29.6819 132.59 31.6057 135.781 35.8789 139.558C43.1664 145.986 51.0833 143.725 51.7659 149.044C52.5816 155.498 14.7878 168.85 9.21142 171.447C2.43816 174.612 4.43291 185.747 13.7417 182.972C24.4424 179.816 40.4181 173.761 42.7586 172.91C45.0991 172.059 46.1895 174.089 43.8313 175.268C39.8596 177.272 16.3482 189.24 12.6158 191.226C4.69886 195.473 8.75042 206.493 17.7312 202.751C30.0454 197.654 46.8899 190.606 49.2038 189.772C51.6684 188.886 52.9805 191.209 50.4095 192.68C48.1931 193.939 28.3432 206.289 23.9282 209.09C16.7737 213.629 21.0558 224.295 30.6039 220.013C42.271 214.773 55.4895 207.601 57.7945 206.227C60.5606 204.533 62.3514 206.83 59.6651 208.647C56.7306 210.651 46.8722 217.663 41.4287 221.165C35.3115 225.093 39.1858 235.35 47.0849 231.165C55.8884 226.449 70.1353 217.814 79.8874 211.83C86.8114 207.61 118.488 183.159 132.194 177.591C148.072 171.137 176.894 161.305 203.189 146.916C244.857 124.114 283.963 95.718 283.963 95.718L244.494 15.2988Z" fill="#48312F"/>
</mask>
<g mask="url(#mask0_1901_35113)">
<path d="M147.779 66.0002C132.885 73.4561 114.604 96.6305 129.383 119.406C144.162 142.182 167.859 140.683 179.606 133.183C196.131 122.615 205.946 103.404 196.176 82.9422C187.7 65.1402 165.971 56.913 147.779 66.0267" fill="#877D23"/>
<path d="M150.35 70.7005C137.54 77.1191 121.812 97.0488 134.561 116.633C147.309 136.217 167.638 134.949 177.736 128.504C191.921 119.417 200.405 102.882 191.992 85.2488C184.695 69.9292 166.007 62.8545 150.324 70.7005" fill="#008639"/>
<path d="M154.011 79.4407C145.039 83.9355 134.037 97.8898 142.929 111.605C151.822 125.32 166.113 124.415 173.179 119.912C183.135 113.546 189.039 101.968 183.161 89.6271C181.932 87.0299 180.2 84.7028 178.063 82.7812C175.927 80.8597 173.43 79.382 170.718 78.4342C168.005 77.4863 165.132 77.0871 162.263 77.2599C159.395 77.4327 156.59 78.174 154.011 79.4407" fill="#00A18F"/>
<path d="M157.195 89.0077C152.293 91.4546 146.317 99.0612 151.167 106.535C156.016 114.009 163.818 113.512 167.648 111.056C173.073 107.59 176.291 101.304 173.082 94.5576C172.412 93.1425 171.467 91.8748 170.303 90.828C169.138 89.7813 167.778 88.9763 166.299 88.46C164.821 87.9436 163.255 87.7261 161.692 87.8202C160.129 87.9142 158.601 88.3179 157.195 89.0077Z" fill="#502069"/>
</g>
</g>
<defs>
<clipPath id="clip0_1901_35113">
<rect width="200" height="300" fill="white"/>
</clipPath>
</defs>
</svg>
