<svg xmlns="http://www.w3.org/2000/svg" xmlns:xlink="http://www.w3.org/1999/xlink" width="200" height="300" viewBox="0 0 200 300">
  <defs>
    <clipPath id="31b-clip-path">
      <path id="31b-Path_25" data-name="31b-Path 25" d="M80.817,66.357V309.524H323.984V66.453l-3.754-.1Z" transform="translate(-80.817 -66.357)" fill="none"/>
    </clipPath>
    <clipPath id="31b-clip-path-2">
      <path id="31b-Path_27" data-name="31b-Path 27" d="M80.817,66.357V211.21L202.067,201,202.5,66.357Z" transform="translate(-80.817 -66.357)" fill="none"/>
    </clipPath>
    <clipPath id="31b-clip-path-4">
      <rect id="31b-Rectangle_2" data-name="31b-Rectangle 2" width="243.167" height="243.167" fill="none"/>
    </clipPath>
    <clipPath id="31b-clip-Kort_-_artikel_31b">
      <rect width="200" height="300"/>
    </clipPath>
  </defs>
  <g id="31b-Kort_-_artikel_31b" data-name="31b-Kort - artikel 31b" clip-path="url(#31b-clip-Kort_-_artikel_31b)">
    <rect width="200" height="300" fill="#018837"/>
    <g id="31b-Group_20" data-name="31b-Group 20" transform="translate(-114.817 -66.357)">
      <path id="31b-Path_18" data-name="31b-Path 18" d="M80.817,358.012H222.054L237.886,214.6,80.817,205.892Z" transform="translate(0 -48.488)" fill="#1f2e27"/>
      <path id="31b-Path_19" data-name="31b-Path 19" d="M259.61,66.357l4.1,134.476,122.4-19.207V66.453l-3.754-.1Z" transform="translate(-62.13)" fill="#00777d"/>
      <g id="31b-Group_12" data-name="31b-Group 12" transform="translate(80.817 66.357)">
        <g id="31b-Group_11" data-name="31b-Group 11" transform="translate(0 0)" clip-path="url(#31b-clip-path)">
          <path id="31b-Path_20" data-name="31b-Path 20" d="M158.262,370.62c-2.349-25.78,14.786-63.862,60.122-66.194,45.992-2.366,63.812,35.19,63.349,56.752-.709,30.448-19.533,58.52-57.239,61.344-32.78,2.405-63.393-20.37-66.231-51.9" transform="translate(-107.656 -149.048)" fill="#179389"/>
          <path id="31b-Path_21" data-name="31b-Path 21" d="M282.851,149.248c-1.788-20.68,11.761-54.409,47.408-51.842C365.924,100,380.406,126.751,380,144.02c-.6,24.318-15.468,46.446-45.125,47.973-25.784,1.336-49.845-17.472-52.027-42.744" transform="translate(-150.97 -77.098)" fill="#179389"/>
          <path id="31b-Path_22" data-name="31b-Path 22" d="M310.036,156.854c-1.136-13.023,7.392-34.256,29.86-32.65,22.47,1.635,31.584,18.495,31.333,29.355-.382,15.338-9.741,29.262-28.427,30.24-16.248.824-31.394-11.019-32.766-26.945" transform="translate(-160.436 -86.429)" fill="#126329"/>
          <path id="31b-Path_23" data-name="31b-Path 23" d="M325.355,160.622c-.754-8.627,4.9-22.7,19.783-21.63,14.887,1.083,20.926,12.251,20.76,19.447-.254,10.163-6.454,19.387-18.834,20.034-10.763.546-20.8-7.3-21.709-17.851" transform="translate(-165.77 -91.577)" fill="#cebec0"/>
          <path id="31b-Path_24" data-name="31b-Path 24" d="M188.545,0l-.572,177.939L40.259,190.38,48.441,8.344Z" transform="translate(-66.723 -43.298)" fill="#00862f"/>
        </g>
      </g>
      <g id="31b-Group_14" data-name="31b-Group 14" transform="translate(80.817 66.357)">
        <g id="31b-Group_13" data-name="31b-Group 13" transform="translate(0 0)" clip-path="url(#31b-clip-path-2)">
          <path id="31b-Path_26" data-name="31b-Path 26" d="M35.789,147.152c-2.016-27.789,15.674-73.876,61.021-72.1,45.38,1.779,63.475,37.1,62.713,60.368-1.045,32.81-20.258,63.3-58.064,66.807-32.848,3.024-63.192-21.161-65.671-55.073" transform="translate(-65.117 -69.36)" fill="#82a115"/>
        </g>
      </g>
      <g id="31b-Group_16" data-name="31b-Group 16" transform="translate(80.817 66.357)">
        <g id="31b-Group_15" data-name="31b-Group 15" transform="translate(0 0)" clip-path="url(#31b-clip-path)">
          <path id="31b-Path_28" data-name="31b-Path 28" d="M420.2,234.807l-22.28,152.718-131.6-12.375.7-116.02Z" transform="translate(-145.278 -124.893)" fill="#cebec0"/>
        </g>
      </g>
      <g id="31b-Group_18" data-name="31b-Group 18" transform="translate(80.817 66.357)">
        <g id="31b-Group_17" data-name="31b-Group 17" transform="translate(0 0)" clip-path="url(#31b-clip-path-4)">
          <path id="31b-Path_30" data-name="31b-Path 30" d="M235.921,120.352c-.078,3.06,3.664,5.846,9.341,7.486.822,1.041,1.71,2.256,2.666,3.681,5.541,8.254,3.69,49.543,3.816,64.983.03,3.831.08,8.213.137,12.954H250.6a.741.741,0,0,0-.742.74v1.31a.742.742,0,0,1-.742.74l-2.963,0a.745.745,0,0,1-.741-.745v-.476a.744.744,0,0,0-.745-.741l-.608,0a.746.746,0,0,0-.74.744v5.055a.743.743,0,0,0,.74.741h.609a.745.745,0,0,0,.743-.741v-.478a.745.745,0,0,1,.74-.745l2.964,0a.743.743,0,0,1,.742.742v1.309a.747.747,0,0,0,.743.742l1.39,0c0,.171.007.343.007.51h-1.387a.743.743,0,0,0-.741.741v1.31a.743.743,0,0,1-.739.741h-2.965a.746.746,0,0,1-.742-.743v-.48a.743.743,0,0,0-.741-.739h-.609a.745.745,0,0,0-.744.74l0,5.056a.743.743,0,0,0,.742.741l.609,0a.748.748,0,0,0,.743-.744l0-.48a.744.744,0,0,1,.742-.739h2.963a.743.743,0,0,1,.741.743v1.308a.741.741,0,0,0,.741.74h1.5c0,.119,0,.236,0,.356l-1.518,0a.743.743,0,0,0-.742.74v1.311a.744.744,0,0,1-.742.742h-2.964a.743.743,0,0,1-.739-.742l0-.479a.741.741,0,0,0-.741-.74h-.609a.743.743,0,0,0-.74.742v5.054a.742.742,0,0,0,.74.741l.612,0a.744.744,0,0,0,.741-.742v-.479a.742.742,0,0,1,.743-.742h2.96a.749.749,0,0,1,.744.741v1.31a.741.741,0,0,0,.74.742h1.636c.008.713.02,1.426.029,2.143l-.49,18.957a13.156,13.156,0,0,0,.806,4.893c.286,17.374,1.024,24.525,1,26.113-.021,1.7-1.573,1.707-1.605,2.932l-.054,3.088c-.052,2.02,1.544,2.706,3.569,2.758s3.708-.731,3.762-2.753l.044-2.9c.041-1.587-2.091-1.883-2.333-3.5-.317-2.118.034,0,.034,0s.178-8.054.421-19.445a13.157,13.157,0,0,0,7.221,2.376l.775.02a13.211,13.211,0,0,0,13.549-12.868l.051-1.988a4.468,4.468,0,0,0,1.227-2.99l.348-18.335,6.583.012a2.747,2.747,0,1,0,.007-5.493l-6.488-.01.048-2.534,6.639.01a2.747,2.747,0,0,0,.007-5.494l-6.543-.009.055-2.952,6.7.012a2.747,2.747,0,1,0,.008-5.494l-6.6-.009.729-38.65a4.449,4.449,0,0,0-.54-2.2l.192-7.461a13.213,13.213,0,0,0-12.867-13.547l-.776-.02a13.144,13.144,0,0,0-6.947,1.766c.567-8.267,1.178-14.78,1.721-17.338a14.009,14.009,0,0,1,2.584-5.371c6.359-1.264,10.74-3.98,10.824-7.231.12-4.7-8.737-8.729-19.784-9.013s-20.1,3.285-20.22,7.978m22.357,105,12.523.019-.048,2.532-12.525-.02c.017-.852.031-1.694.049-2.532m12.625-5.476-12.521-.019c.022-1,.04-1.984.057-2.951l12.522.018Zm1.071,43.054a8.992,8.992,0,0,1-6.45,2.48l-.772-.021a8.99,8.99,0,0,1-6.316-2.807,9.382,9.382,0,0,1-.9-1.112c.181-8.635.388-18.541.579-28.092l12.529.016-.344,18.166a4.8,4.8,0,0,0,4.483,4.742l-.006.315a8.988,8.988,0,0,1-2.809,6.314m-10.79-106.7a9,9,0,0,1,6.451-2.477l.775.02a9.028,9.028,0,0,1,8.791,9.256l-.129,5.018c-.074,0-.144-.014-.219-.014a4.831,4.831,0,0,0-5.058,4.581l-.459,24.362a5.055,5.055,0,1,0-.044,2.434l-.23,12.029-12.522-.021c.087-4.906.158-9.159.2-12.373.159-11.763.846-28.356,1.681-41.991a9.035,9.035,0,0,1,.762-.825m8.714,41.961a3.487,3.487,0,1,1-3.395-3.574,3.492,3.492,0,0,1,3.395,3.574" transform="translate(-134.715 -82.342)" fill="#1f2e27"/>
        </g>
      </g>
    </g>
  </g>
</svg>
