<svg xmlns="http://www.w3.org/2000/svg" xmlns:xlink="http://www.w3.org/1999/xlink" width="200" height="300" viewBox="0 0 200 300">
  <defs>
    <clipPath id="30c-clip-Kort_-_artikel_30c">
      <rect width="200" height="300"/>
    </clipPath>
  </defs>
  <g id="30c-Kort_-_artikel_30c" data-name="30c-Kort - artikel 30c" clip-path="url(#30c-clip-Kort_-_artikel_30c)">
    <rect width="200" height="300" fill="#e0c2b7"/>
    <g id="30c-Group_2" data-name="30c-Group 2" transform="translate(18.813 73.325)">
      <path id="30c-Path_1" data-name="30c-Path 1" d="M320.363,386.4c-3.624.383-7.548-.536-8.638-4.494s.349-9.447,7.042-9.8c6.39-.34,7.93,4.342,7.816,7.6A7.567,7.567,0,0,1,320.363,386.4Z" transform="translate(-187.594 -359.348)" fill="#fc3429"/>
      <g id="30c-Group_1" data-name="30c-Group 1" transform="translate(0)">
        <path id="30c-Path_2" data-name="30c-Path 2" d="M257.412,391.4c-3.624.383-7.548-.533-8.638-4.494s.349-9.447,7.042-9.8c6.39-.335,7.93,4.342,7.816,7.6A7.567,7.567,0,0,1,257.412,391.4Z" transform="translate(-230.747 -355.924)" fill="#25992f"/>
        <path id="30c-Path_3" data-name="30c-Path 3" d="M251.412,399.9c-3.624.383-7.548-.533-8.638-4.494s.349-9.447,7.042-9.8c6.39-.335,7.93,4.342,7.816,7.6A7.567,7.567,0,0,1,251.412,399.9Z" transform="translate(-234.86 -350.097)" fill="#fc3429"/>
        <path id="30c-Path_4" data-name="30c-Path 4" d="M247.412,409.9c-3.624.383-7.548-.533-8.638-4.494s.349-9.447,7.042-9.8c6.39-.335,7.93,4.342,7.816,7.6A7.567,7.567,0,0,1,247.412,409.9Z" transform="translate(-237.602 -343.242)" fill="#fc3429"/>
        <path id="30c-Path_5" data-name="30c-Path 5" d="M246.912,419.9c-3.624.383-7.548-.533-8.638-4.494s.349-9.447,7.042-9.8c6.39-.335,7.93,4.342,7.816,7.6A7.567,7.567,0,0,1,246.912,419.9Z" transform="translate(-237.944 -336.387)" fill="#fd1a16"/>
        <path id="30c-Path_6" data-name="30c-Path 6" d="M247.912,429.9c-3.624.383-7.548-.533-8.638-4.494s.349-9.447,7.042-9.8c6.39-.335,7.93,4.342,7.816,7.6A7.567,7.567,0,0,1,247.912,429.9Z" transform="translate(-237.259 -329.532)" fill="#fc3429"/>
        <path id="30c-Path_7" data-name="30c-Path 7" d="M250.912,439.9c-3.624.383-7.548-.533-8.638-4.494s.349-9.447,7.042-9.8c6.39-.335,7.93,4.342,7.816,7.6A7.567,7.567,0,0,1,250.912,439.9Z" transform="translate(-235.202 -322.677)" fill="#494309"/>
        <path id="30c-Path_8" data-name="30c-Path 8" d="M256.412,447.9c-3.624.383-7.548-.533-8.638-4.494s.349-9.447,7.042-9.8c6.39-.335,7.93,4.342,7.816,7.6A7.567,7.567,0,0,1,256.412,447.9Z" transform="translate(-231.432 -317.194)" fill="#dfe3c2"/>
        <path id="30c-Path_9" data-name="30c-Path 9" d="M263.062,454.342c-3.624.383-7.548-.533-8.638-4.494s.351-9.447,7.042-9.8c6.39-.335,7.93,4.342,7.816,7.6A7.564,7.564,0,0,1,263.062,454.342Z" transform="translate(-226.874 -312.774)" fill="#fd1a16"/>
        <path id="30c-Path_10" data-name="30c-Path 10" d="M272.062,458.842c-3.624.383-7.548-.533-8.638-4.494s.351-9.447,7.042-9.8c6.39-.335,7.93,4.342,7.816,7.6A7.564,7.564,0,0,1,272.062,458.842Z" transform="translate(-220.704 -309.689)" fill="#fc3429"/>
        <path id="30c-Path_11" data-name="30c-Path 11" d="M282.562,460.842c-3.624.383-7.548-.533-8.638-4.493s.351-9.447,7.042-9.8c6.39-.335,7.93,4.342,7.816,7.6A7.564,7.564,0,0,1,282.562,460.842Z" transform="translate(-213.507 -308.318)" fill="#612990"/>
        <path id="30c-Path_12" data-name="30c-Path 12" d="M294.562,461.342c-3.624.383-7.548-.533-8.638-4.494s.351-9.447,7.042-9.8c6.39-.335,7.93,4.342,7.816,7.6A7.563,7.563,0,0,1,294.562,461.342Z" transform="translate(-205.281 -307.976)" fill="#249380"/>
        <path id="30c-Path_13" data-name="30c-Path 13" d="M306.062,458.842c-3.624.383-7.548-.533-8.638-4.494s.351-9.447,7.042-9.8c6.39-.335,7.93,4.342,7.816,7.6A7.563,7.563,0,0,1,306.062,458.842Z" transform="translate(-197.397 -309.689)" fill="#ff8001"/>
        <path id="30c-Path_14" data-name="30c-Path 14" d="M316.062,453.342c-3.624.383-7.548-.533-8.638-4.494s.351-9.447,7.042-9.8c6.39-.335,7.93,4.342,7.816,7.6A7.563,7.563,0,0,1,316.062,453.342Z" transform="translate(-190.543 -313.46)" fill="#fd1a16"/>
        <path id="30c-Path_15" data-name="30c-Path 15" d="M324.062,446.842c-3.624.383-7.548-.533-8.638-4.493s.351-9.447,7.042-9.8c6.39-.335,7.93,4.342,7.816,7.6A7.563,7.563,0,0,1,324.062,446.842Z" transform="translate(-185.059 -317.915)" fill="#fc3429"/>
        <path id="30c-Path_16" data-name="30c-Path 16" d="M329.562,437.842c-3.624.383-7.548-.533-8.638-4.493s.351-9.447,7.042-9.8c6.39-.335,7.93,4.342,7.816,7.6A7.563,7.563,0,0,1,329.562,437.842Z" transform="translate(-181.288 -324.085)" fill="#fc3429"/>
        <path id="30c-Path_17" data-name="30c-Path 17" d="M333.562,428.342c-3.624.383-7.548-.533-8.638-4.494s.351-9.447,7.042-9.8c6.39-.335,7.93,4.342,7.816,7.6A7.564,7.564,0,0,1,333.562,428.342Z" transform="translate(-178.546 -330.597)" fill="#386534"/>
        <path id="30c-Path_18" data-name="30c-Path 18" d="M334.562,416.842c-3.624.383-7.548-.533-8.638-4.494s.351-9.447,7.042-9.8c6.39-.335,7.93,4.342,7.816,7.6A7.564,7.564,0,0,1,334.562,416.842Z" transform="translate(-177.861 -338.48)" fill="#fc3429"/>
        <path id="30c-Path_19" data-name="30c-Path 19" d="M332.062,404.842c-3.624.383-7.548-.533-8.638-4.494s.351-9.447,7.042-9.8c6.39-.335,7.93,4.342,7.816,7.6A7.564,7.564,0,0,1,332.062,404.842Z" transform="translate(-179.575 -346.706)" fill="#bab62b"/>
        <path id="30c-Path_20" data-name="30c-Path 20" d="M327.062,394.342c-3.624.383-7.548-.533-8.638-4.494s.351-9.447,7.042-9.8c6.39-.335,7.93,4.342,7.816,7.6A7.563,7.563,0,0,1,327.062,394.342Z" transform="translate(-183.002 -353.904)" fill="#ff7300"/>
        <path id="30c-Path_21" data-name="30c-Path 21" d="M309.562,381.342c-3.624.383-7.548-.533-8.638-4.493s.351-9.447,7.042-9.8c6.39-.335,7.93,4.342,7.816,7.6A7.564,7.564,0,0,1,309.562,381.342Z" transform="translate(-194.998 -362.815)" fill="#3ead78"/>
        <path id="30c-Path_22" data-name="30c-Path 22" d="M298.062,378.842c-3.624.383-7.548-.533-8.638-4.494s.351-9.447,7.042-9.8c6.39-.335,7.93,4.342,7.816,7.6A7.564,7.564,0,0,1,298.062,378.842Z" transform="translate(-202.881 -364.529)" fill="#ff8001"/>
        <path id="30c-Path_23" data-name="30c-Path 23" d="M286.992,379.237c-3.624.379-7.548-.536-8.638-4.5s.349-9.447,7.042-9.8c6.39-.34,7.93,4.338,7.816,7.6A7.571,7.571,0,0,1,286.992,379.237Z" transform="translate(-210.47 -364.258)" fill="#bab62b"/>
        <path id="30c-Path_24" data-name="30c-Path 24" d="M276.49,380.035c-3.624.378-7.548-.536-8.638-4.494s.349-9.452,7.045-9.8c6.386-.339,7.93,4.34,7.816,7.6A7.569,7.569,0,0,1,276.49,380.035Z" transform="translate(-217.668 -363.713)" fill="#fc3429"/>
        <path id="30c-Path_25" data-name="30c-Path 25" d="M265.549,384.188c-3.625.383-7.549-.536-8.638-4.494s.349-9.447,7.044-9.8c6.388-.339,7.932,4.342,7.816,7.6A7.565,7.565,0,0,1,265.549,384.188Z" transform="translate(-225.169 -360.864)" fill="#326aa9"/>
      </g>
    </g>
    <g id="30c-Group_4" data-name="30c-Group 4" transform="translate(86.133 118.169)">
      <path id="30c-Path_26" data-name="30c-Path 26" d="M300.73,458.508c-1.52,2.441-1.423,2.331-4.089,2.832s-6.034.32-6.718-.02c-2.469-1.22-3.036-4.141-4.151-8.756-1.468-6.051-1.205-11.867-2.555-15s-4.384-8.427-5.277-12.555c-.484-2.2,2.434-10.769,3.892-12.149a37.972,37.972,0,0,1,4.473-4.131c.573-.411.511-1.02.089-1.268-.691-.4-2.007-1.02-2.712-1.49a5.836,5.836,0,0,1-1.792-2.3c-.573-1.05-.2-2.9.211-5.351.922-5.528,3.622-6.845,7.19-7.152,3.634-.315,7.388,2.269,7.95,5.132.625,3.164,1.409,5.989,1.033,7.1-.587,1.738-2.021,2.377-3.16,2.983-.964.512-.386,1.04-.007,1.347.678.556,2.255,2.751,3.819,4.059,1.431,1.192,5.271,7.2,5,12.473-.128,2.714-1.234,8.908-1.372,11.18a48.753,48.753,0,0,0,.391,10.148C303.776,450.525,301.662,457.008,300.73,458.508Zm-16.806-37.172c-.332.263-.605,2.353-.5,3.565s.721,2.96,1.529,2.891.391-1.021.233-2.9S284.307,421.033,283.924,421.336Zm14.222-1.5c-.5-.079-.6,1.554-.442,3.3s.359,2.818,1.229,2.742.73-1.047.772-2.629S298.751,419.934,298.146,419.834Z" transform="translate(-277.885 -391.135)" fill="#1f0b24"/>
      <g id="30c-Group_3" data-name="30c-Group 3" transform="translate(7.445 7.572)">
        <path id="30c-Path_27" data-name="30c-Path 27" d="M283.9,395.679c-.947.2-1.313,2.156-1.524,3.423a3.49,3.49,0,0,0,1.139,3.5,7.459,7.459,0,0,0,3.893,1.342,8.5,8.5,0,0,0,3.7-1.78c1.316-.974,1.271-2.442.905-3.826-.4-1.507-1.758-1.6-2.687-1.675S285.417,395.361,283.9,395.679Z" transform="translate(-282.302 -395.627)" fill="#917d31"/>
      </g>
    </g>
  </g>
</svg>
