<svg xmlns="http://www.w3.org/2000/svg" xmlns:xlink="http://www.w3.org/1999/xlink" width="200" height="300" viewBox="0 0 200 300">
  <defs>
    <clipPath id="30a-clip-path">
      <path id="30a-Intersection_1" data-name="30a-Intersection 1" d="M36.2,300c1.228-36.5,2.359-76.15,2.316-97.156-.076-36.514-.078-71.719-.076-85.478a2.248,2.248,0,0,1-1.858-1.61c-.469-2.27.429-7.093-1.242-10.635C33,100.152,1.024,73.128.025,39.733-.416,24.91,4.906,9.37,16.069,0H63.04C74.966,10.627,81.385,29.286,79.47,46.482c-2.983,26.8-33.842,55.04-35.87,58.045-2.413,3.574-1.236,7.426-1.666,11.038a2.061,2.061,0,0,1-1.5,1.7c.053,15.587.18,56.826.1,85.551C40.486,220.1,39.21,261.522,37.9,300Z" fill="none"/>
    </clipPath>
    <clipPath id="30a-clip-path-2">
      <path id="30a-Intersection_2" data-name="30a-Intersection 2" d="M69.356,300c-.74-42.367-1.33-78.6-1.6-95.616a3.827,3.827,0,0,1-3.212-2.69c-.861-3.86.533-12.107-2.414-18.1C57.991,175.184,2.728,129.988.1,73.075-1.187,45.093,9.553,15.418,32.762,0h69.155c23.465,16.859,36.823,50.92,33.84,82.383-4.348,45.784-56.185,94.785-59.559,99.968-4.017,6.161-1.9,12.7-2.532,18.866a3.522,3.522,0,0,1-2.508,2.935c.362,18.3,1.119,57.325,1.767,95.848Z" fill="none"/>
    </clipPath>
    <clipPath id="30a-clip-path-3">
      <path id="30a-Intersection_3" data-name="30a-Intersection 3" d="M48.54,221.707c-.152-30.359-.211-54-.232-68.578a2.512,2.512,0,0,1-1.831-2.054c-.544-4.388.867-9.076-2.086-13.4C41.9,134.028,4.232,99.893.444,67.336-3.23,35.755,16.22,0,47.138,0h.31A47.516,47.516,0,0,1,69.726,5.416v114.7c-7.643,9.407-14.192,15.867-15.29,18.226-2.01,4.315-.891,10.173-1.446,12.934a2.725,2.725,0,0,1-2.251,1.964c.068,13.407.215,34.174.335,68.467Z" fill="none"/>
    </clipPath>
    <clipPath id="30a-clip-path-4">
      <path id="30a-Intersection_4" data-name="30a-Intersection 4" d="M27.155,279.785c-.569-19.561-.978-38.852-.9-52.208.176-30.9.7-75.264.9-92.031a2.223,2.223,0,0,1-1.6-1.838c-.427-3.889.876-8.022-1.686-11.89C22.585,119.873,10.306,108.143,0,92.857V13.087C7.1,5.131,16.493,0,27.478,0c.25,0,.5,0,.751.008,29.892.636,44.08,27.582,43.12,52.511-1.384,35.915-36.028,64.69-38.594,70.013-1.83,3.8-.911,8.993-1.436,11.43a2.418,2.418,0,0,1-2.014,1.712c-.125,14.8-.455,52.673-.877,91.955-.167,15.5.113,34.051.572,52.155Z" fill="none"/>
    </clipPath>
    <clipPath id="30a-clip-path-5">
      <path id="30a-Intersection_5" data-name="30a-Intersection 5" d="M35.975,207.6c.033-3.212.049-6.329.043-9.314-.053-34.22-.041-67.212-.032-80.108a2.1,2.1,0,0,1-1.741-1.507c-.441-2.128.405-6.647-1.16-9.971C30.894,102.04.94,76.7.023,45.4-.617,23.677,11.957.319,38,0l.376,0c23.756,0,38.81,27.446,36.095,51.762-2.809,25.116-31.742,51.566-33.644,54.384-2.261,3.348-1.159,6.958-1.563,10.342a1.93,1.93,0,0,1-1.4,1.59c.041,14.588.142,53.239.051,80.173-.01,2.834-.047,5.972-.108,9.345Z" fill="none"/>
    </clipPath>
    <clipPath id="30a-clip-Artboard_1">
      <rect width="200" height="300"/>
    </clipPath>
  </defs>
  <g id="30a-Artboard_1" data-name="30a-Artboard – 1" clip-path="url(#30a-clip-Artboard_1)">
    <rect width="200" height="300" fill="#451735"/>
    <g id="30a-mörkgrön_ballong" data-name="30a-mörkgrön ballong" transform="translate(32.153)">
      <g id="30a-Group_1" data-name="30a-Group 1" transform="translate(0)" clip-path="url(#30a-clip-path)">
        <path id="30a-Path_1" data-name="30a-Path 1" d="M106.047,204.119c.082-28.724-.044-69.964-.1-85.551a2.063,2.063,0,0,0,1.5-1.7c.429-3.611-.749-7.464,1.665-11.037,2.027-3.007,32.886-31.243,35.871-58.046,2.9-26.083-13.36-55.533-38.944-55.211-27.788.35-41.193,25.284-40.5,48.462,1,33.394,32.97,60.419,35.312,65.389,1.671,3.543.774,8.364,1.242,10.635a2.248,2.248,0,0,0,1.859,1.609c0,13.758,0,48.964.076,85.478.1,45.319-5.286,177.431-5.286,177.431l1.754-.011s5.447-141.357,5.553-177.452" transform="translate(-65.51 -1.306)" fill="#2d400b"/>
        <path id="30a-Path_2" data-name="30a-Path 2" d="M145.327-29.63C169.645-26.8,189.616-3.519,183.22,25.8c-6.124,28.076-31.364,40.153-55.374,34.815-23.87-5.309-41.725-26.324-36.52-54.123,4.7-25.134,22.332-39.806,54-36.122" transform="translate(-61.128 -5.312)" fill="#c78eb4"/>
        <path id="30a-Path_3" data-name="30a-Path 3" d="M81.6,38.375c8.214,1.234,19.117,8.7,15.635,21.783S82.281,76.184,75.556,74.44C66.085,71.986,58.472,64.4,59.936,53.172c1.275-9.754,11.633-16.305,21.665-14.8" transform="translate(-66.523 6.713)" fill="#222b31"/>
      </g>
    </g>
    <g id="30a-turkos_ballong" data-name="30a-turkos ballong" transform="translate(90.521)">
      <g id="30a-Group_2" data-name="30a-Group 2" transform="translate(0)" clip-path="url(#30a-clip-path-2)">
        <path id="30a-Path_5" data-name="30a-Path 5" d="M182.965-9.079c-47.376,1.366-69.537,44.251-67.715,83.757,2.625,56.914,57.887,102.108,62.022,110.516,2.947,5.995,1.552,14.242,2.413,18.1a3.829,3.829,0,0,0,3.213,2.692c.275,17.013.867,53.248,1.605,95.616h3.569c-.648-38.525-1.405-77.551-1.766-95.849a3.517,3.517,0,0,0,2.506-2.934c.632-6.172-1.485-12.7,2.533-18.867,3.375-5.182,55.21-54.184,59.558-99.968,4.224-44.557-24.318-94.325-67.938-93.064" transform="translate(-115.146 -1.601)" fill="#4f927b"/>
        <path id="30a-Path_6" data-name="30a-Path 6" d="M190.748,13.091C228.021-7.532,278.1-1.561,296.388,47.1c18.269,48.689-7.109,78.246-36.768,92.429-36.917,17.653-74.954,9.184-97.12-28.208-20.194-34.063-9.5-77.341,28.248-98.235" transform="translate(-108.581 0.334)" fill="#c1d1ba"/>
        <path id="30a-Path_7" data-name="30a-Path 7" d="M86.137,80.477c29.564-16.764,75.9-14.53,92.248,28.974,16.334,43.527-5.786,69.481-31.759,82.4-30.073,14.958-68.122,6.745-86.4-27.543-15.9-29.786-4.39-66.652,25.913-83.832" transform="translate(-126.065 12.455)" fill="#19706a"/>
        <path id="30a-Path_8" data-name="30a-Path 8" d="M142.828-58.876c21.438-11.822,51.218-4.472,63.042,23.112,11.323,26.411-2.207,50.9-24.852,60.5C158.5,34.281,131.76,27.548,119.851,1.9c-10.77-23.194-4.944-45.376,22.976-60.772" transform="translate(-115.21 -11.314)" fill="#1c7756"/>
        <path id="30a-Path_9" data-name="30a-Path 9" d="M203.551,12.218c6.669-3.394,18.569-3.624,22.865,7.792s-2.58,19.577-8.424,21.819c-8.232,3.155-17.788,1.572-22.584-7.424-4.17-7.82,0-18.043,8.143-22.187" transform="translate(-101.314 1.791)" fill="#25992f"/>
      </g>
    </g>
    <g id="30a-orange_ballong" data-name="30a-orange ballong" transform="translate(155.194 54.293)">
      <g id="30a-Group_3" data-name="30a-Group 3" transform="translate(0 0)" clip-path="url(#30a-clip-path-3)">
        <path id="30a-Path_11" data-name="30a-Path 11" d="M236.3,44.412c-31.1-.24-50.689,35.651-47,67.336,3.786,32.556,41.459,66.692,43.944,70.334,2.955,4.33,1.544,9.017,2.088,13.405a2.511,2.511,0,0,0,1.831,2.054c.019,13.084.068,41.036.188,68.578h2.543c-.113-30.334-.239-56.3-.3-68.466a2.727,2.727,0,0,0,2.251-1.966c.556-2.761-.563-8.619,1.447-12.934,2.817-6.052,41.513-39.091,42.527-79.683.7-28.175-15.739-58.4-49.515-58.659" transform="translate(-188.852 -44.411)" fill="#f83b1a"/>
        <path id="30a-Path_12" data-name="30a-Path 12" d="M231.793,99.368c-17.941,14.332-21.8,36.262-9.952,54.67,13.318,20.689,40.957,25.835,62.593,8.82,19.971-15.708,18.785-41.719,7.258-56.3-14.863-18.8-37.75-24.877-59.9-7.188" transform="translate(-187.484 -42.092)" fill="#f96577"/>
        <path id="30a-Path_13" data-name="30a-Path 13" d="M189.169,51.752c-11.022,8.8-13.387,22.27-6.113,33.577,8.179,12.705,25.155,15.865,38.441,5.416a24.726,24.726,0,0,0,4.457-34.577c-9.129-11.544-23.184-15.28-36.785-4.416" transform="translate(-189.372 -44.366)" fill="#3282a0"/>
      </g>
    </g>
    <g id="30a-gul_ballong" data-name="30a-gul ballong" transform="translate(-15.883 20.215)">
      <g id="30a-Group_4" data-name="30a-Group 4" clip-path="url(#30a-clip-path-4)">
        <path id="30a-Path_15" data-name="30a-Path 15" d="M73.515,69.71C74.475,44.782,60.287,17.835,30.4,17.2c-27.521-.583-45.29,30.947-42.409,59.034,2.96,28.86,35.9,59.522,38.052,62.776,2.562,3.868,1.258,8,1.686,11.89a2.216,2.216,0,0,0,1.6,1.837c-.2,16.769-.724,61.131-.9,92.034-.076,13.356.332,32.645.9,52.207h1.843c-.459-18.1-.738-36.658-.573-52.155.423-39.281.754-77.154.878-91.955a2.416,2.416,0,0,0,2.013-1.712c.526-2.437-.394-7.633,1.436-11.43,2.567-5.323,37.211-34.1,38.6-70.014" transform="translate(-2.167 -17.191)" fill="#e0c501"/>
        <path id="30a-Path_16" data-name="30a-Path 16" d="M74.917-11.077C47.357-11.135,27.266,6.5,24.534,32.629,21.456,62,43.47,87.587,76.505,87.909c30.5.293,49.836-26.023,50-48.331.21-28.764-17.562-50.573-51.588-50.655" transform="translate(4.266 -22.164)" fill="#95880e"/>
        <path id="30a-Path_17" data-name="30a-Path 17" d="M11.492,66.228C4.527,66.212-.552,70.666-1.243,77.27-2.02,84.7,3.542,91.158,11.89,91.239A12.641,12.641,0,0,0,24.524,79.028c.055-7.268-4.436-12.78-13.032-12.8" transform="translate(-0.231 -8.564)" fill="#9669b1"/>
        <path id="30a-Path_18" data-name="30a-Path 18" d="M41.372,83.324c-18.12-.04-31.33,11.549-33.129,28.73C6.217,131.369,20.689,148.181,42.41,148.4c20.051.192,32.757-17.107,32.866-31.772.142-18.909-11.542-33.247-33.9-33.3" transform="translate(1.417 -5.556)" fill="#e6c6d0"/>
      </g>
    </g>
    <g id="30a-grön_ballong" data-name="30a-grön ballong" transform="translate(14.923 92.404)">
      <g id="30a-Group_5" data-name="30a-Group 5" transform="translate(0)" clip-path="url(#30a-clip-path-5)">
        <path id="30a-Path_20" data-name="30a-Path 20" d="M88.859,78.582c-26.044.316-38.619,23.675-37.979,45.4.916,31.3,30.872,56.639,33.064,61.3,1.565,3.322.718,7.842,1.159,9.97a2.1,2.1,0,0,0,1.742,1.508c-.009,12.9-.022,45.887.032,80.108,0,2.986-.011,6.1-.044,9.315h1.83c.06-3.373.1-6.511.107-9.344.092-26.936-.009-65.586-.051-80.175a1.929,1.929,0,0,0,1.4-1.59c.4-3.384-.7-6.994,1.563-10.341,1.9-2.818,30.838-29.268,33.646-54.383,2.73-24.445-12.5-52.051-36.471-51.761" transform="translate(-50.858 -78.58)" fill="#167754"/>
        <path id="30a-Path_21" data-name="30a-Path 21" d="M117.323,113.566c13.982-1.036,30.481,7.719,30.15,27.244-.3,17.94-14.743,26.331-26.843,26.128-14.117-.236-27.433-9.244-28.4-25.545-.842-14.166,10.5-26.744,25.093-27.827" transform="translate(-43.587 -72.439)" fill="#5b7214"/>
        <path id="30a-Path_22" data-name="30a-Path 22" d="M50.789,57.382c24.458-1.818,53.327,13.5,52.747,47.663-.528,31.393-25.792,46.073-46.965,45.718-24.7-.417-47.994-16.175-49.688-44.69-1.472-24.792,18.36-46.8,43.906-48.69" transform="translate(-58.608 -82.335)" fill="#c482be"/>
      </g>
    </g>
  </g>
</svg>
