<svg width="200" height="300" viewBox="0 0 200 300" fill="none" xmlns="http://www.w3.org/2000/svg">
<g clip-path="url(#clip0_1901_34252)">
<rect width="200" height="300" fill="#D2C3C4"/>
<path d="M98.0273 118.197L80.8728 206.285L10.9056 157.671V137.999L83.2172 102.135L98.0273 118.197Z" fill="#0076C0"/>
<path d="M78.4436 0L99.0469 82.4276L84.3677 90.7096L29.7556 0H78.4436Z" fill="#C380B5"/>
<path d="M92.3652 98.0308L89.7307 104.806L10.9056 51.7736V46.621L45.6568 7.38672L92.3652 98.0308Z" fill="#EA5425"/>
<path d="M94.1562 89.5745L15.5495 44.5254L22.4051 103.752L93.4066 101.248L94.1562 89.5745Z" fill="#A9924D"/>
<path d="M88.0632 111.524L10.9048 183.741V104.115L90.0137 101.619L88.0632 111.524Z" fill="#00AA95"/>
<path d="M105.341 0L145.15 21.462L103.187 87.3182L95.8438 94.2102L74.2144 0H105.341Z" fill="#EF7B00"/>
<path d="M169.377 40.9277C187.44 43.0674 189.027 57.6665 192.899 62.7245C196.392 67.3022 200.315 69.8422 199.98 71.0575C199.383 73.2409 188.874 74.4417 185.286 79.325C180.396 85.9842 178.401 111.027 166.859 130.597C154.836 150.974 130.157 160.756 104.627 155.188C66.6083 146.913 33.8585 105.503 33.8585 105.503L-14.8222 109.018L-9.8006 71.6252L38.7564 95.7145C38.7564 95.7145 86.28 80.9334 97.5969 77.3964C113.659 72.3821 128.418 70.65 139.808 55.949C148.337 44.9814 155.353 39.2757 169.377 40.9277Z" fill="#001D23"/>
<path d="M89.8709 49.0566C110.292 49.0566 128.399 63.1682 129.302 87.5486C130.299 114.578 106.588 126.659 86.0865 126.659C67.1644 126.659 49.807 111.965 49.807 88.1744C49.807 64.3835 64.9519 49.0566 89.8345 49.0566" fill="#00843E"/>
<path d="M86.0198 85.9453C95.3353 85.9453 103.603 92.3861 104.018 103.514C104.469 115.85 93.6468 121.366 84.2877 121.366C75.6417 121.366 67.7308 114.656 67.7308 103.798C67.7308 92.9392 74.6447 85.9453 86.0198 85.9453Z" fill="#6FB02A"/>
<path d="M7.05795 37.0098C27.4793 37.0098 45.6299 51.1213 46.4887 75.5017C47.493 102.531 23.7749 114.612 3.27352 114.612C-15.6486 114.612 -32.9987 99.9185 -32.9987 76.1276C-32.9987 52.3367 -17.861 37.0098 7.02884 37.0098" fill="#6FB02A"/>
<path d="M14.5252 92.9766C23.848 92.9766 32.1082 99.4174 32.523 110.545C32.9815 122.881 22.1595 128.39 12.7931 128.39C4.15444 128.39 -3.76373 121.687 -3.76373 110.829C-3.76373 99.9705 3.15012 92.9766 14.5252 92.9766" fill="#EC663E"/>
<path d="M171.392 50.7638C172.08 50.7443 172.765 50.8632 173.407 51.1136C174.048 51.364 174.632 51.7407 175.125 52.2213C175.618 52.7019 176.009 53.2767 176.275 53.9114C176.542 54.5462 176.678 55.228 176.676 55.9164C176.807 59.5553 173.634 61.1564 170.854 61.1564C170.191 61.1524 169.536 61.0139 168.928 60.7494C168.32 60.4848 167.773 60.0997 167.318 59.6173C166.864 59.1349 166.512 58.5652 166.284 57.9429C166.056 57.3205 165.957 56.6583 165.992 55.9965C165.992 52.8161 168.023 50.7638 171.356 50.7638" fill="#A9924D"/>
<path d="M173.439 54.0376C173.734 54.0249 174.028 54.0719 174.304 54.1759C174.58 54.2799 174.832 54.4387 175.044 54.6427C175.257 54.8467 175.427 55.0917 175.542 55.363C175.658 55.6342 175.717 55.9261 175.717 56.221C175.775 57.7784 174.407 58.4771 173.221 58.4771C172.628 58.4481 172.071 58.1849 171.673 57.7455C171.274 57.306 171.067 56.7262 171.096 56.1336C171.125 55.5411 171.388 54.9843 171.827 54.5857C172.267 54.1872 172.846 53.9796 173.439 54.0085" fill="#E6007E"/>
<path d="M87.3066 100.28L82.7945 58.6445L60.7357 62.3198L85.2471 100.935L87.3066 100.28Z" fill="#0076C0"/>
<path d="M33.5813 130.206L85.2168 104.923L84.5109 102.623L19.8118 103.999L33.5813 130.206Z" fill="#C380B5"/>
<path d="M84.6777 103.642L27.2856 106.895L34.3741 87.0195L84.6195 102.303L84.6777 103.642Z" fill="#EA5425"/>
<path d="M84.7363 103.214L28.8434 85.9368L58.8276 82.3926L84.6927 101.919L84.7363 103.214Z" fill="#A9924D"/>
<path d="M84.7361 101.963L45.4073 73.791L70.4499 75.8724L85.8496 100.682L84.7361 101.963Z" fill="#00AA95"/>
<path d="M86.3008 105.294L57.954 148.669L21.8128 128.088L85.2164 104.566L86.3008 105.294Z" fill="#EF7B00"/>
</g>
<defs>
<clipPath id="clip0_1901_34252">
<rect width="200" height="300" fill="white"/>
</clipPath>
</defs>
</svg>
