<svg width="200" height="300" viewBox="0 0 200 300" fill="none" xmlns="http://www.w3.org/2000/svg">
<g clip-path="url(#clip0_538_9124)">
<path d="M0 10C0 4.47716 4.47715 0 10 0H190C195.523 0 200 4.47715 200 10V290C200 295.523 195.523 300 190 300H10C4.47716 300 0 295.523 0 290V10Z" fill="#A49447"/>
<path d="M138.376 26.1524C139.327 33.7217 141.178 43.3076 140.537 50.3151C140.217 53.9301 139.423 57.4873 138.174 60.8949C137.015 63.7757 136.172 69.1988 136.172 73.34C136.172 76.5593 136.086 79.5193 136.604 81.8672C136.849 82.9547 138.822 84.4311 140.068 84.5535C141.314 84.676 142.791 84.2727 143.439 84.3807C144.757 84.5967 145.045 86.6205 147.04 86.6205C149.035 86.6205 150.317 85.9939 150.871 85.9939C151.426 85.9939 152.175 86.6061 153.608 87.5928C155.041 88.5795 157.324 88.7235 158.311 88.0609C159.298 87.3983 159.247 87.0454 160.472 87.3911C161.79 87.7656 161.372 96.264 161.811 101.075C162.251 105.886 161.581 108.997 164.771 109.141C168.452 109.285 168.063 103.38 168.286 100.16C168.509 96.941 169.049 89.4509 169.87 84.5031C170.245 82.2633 169.1 76.4081 170.778 76.264C171.707 76.1848 174.804 80.9597 177.749 83.6821C180.068 85.8427 183.511 84.8776 183.95 83.6821C184.267 82.7314 181.84 79.9658 180.407 76.156C179.255 73.0807 174.991 62.7098 173.5 60.614C171.498 57.8053 169.265 51.093 168.963 49.2709C168.048 43.7685 168.66 38.5399 169.568 17.0707C170.569 -6.69599 170.05 -49.2239 170.05 -49.2239L134.451 -46.3431C134.451 -46.3431 135.092 -0.495053 138.419 26.1164" fill="#C69BC5"/>
<path d="M13.3924 29.5446C14.3719 37.33 16.2732 47.1895 15.6178 54.3988C15.2795 58.1188 14.4513 61.7779 13.1547 65.281C11.9664 68.2554 11.0949 73.8154 11.0949 78.079C11.0949 81.3919 11.0085 84.4312 11.5415 86.851C11.7935 87.9745 13.8245 89.487 15.1065 89.6094C16.3884 89.7318 17.908 89.3213 18.5706 89.4366C19.9246 89.6598 20.2199 91.7412 22.2581 91.7412C24.2962 91.7412 25.6358 91.093 26.1976 91.093C26.7593 91.093 27.5443 91.7196 29.0136 92.7351C30.4828 93.7506 32.8378 93.9018 33.8533 93.2248C34.8688 92.5478 34.8184 92.1805 36.0139 92.5046C37.3679 92.8935 36.943 101.637 37.3967 106.592C37.8504 111.547 37.159 114.766 40.4431 114.896C44.2242 115.04 43.8281 108.94 44.0442 105.655C44.2602 102.371 44.8292 94.6436 45.679 89.5518C46.0607 87.2471 44.8868 81.2263 46.6081 81.0822C47.5659 80.9958 50.7492 85.9076 53.8101 88.7092C56.194 90.9058 59.7734 89.9407 60.1839 88.7092C60.5152 87.7297 58.0233 84.8849 56.5829 80.967C55.3945 77.8053 51.0085 67.1391 49.4745 64.9857C47.4219 62.1049 45.1173 55.191 44.8076 53.3185C43.8641 47.6577 44.4979 42.2778 45.427 20.1892C46.464 -4.23285 46.248 -50.8947 46.248 -50.8947L8.99197 -49.6488C8.99197 -49.6488 9.97143 2.14814 13.3924 29.5158" fill="#DE2784"/>
<path d="M123.346 -4.45602C122.136 5.20187 119.745 17.4237 120.587 26.3614C120.999 30.9727 122.014 35.5102 123.605 39.858C125.045 43.5454 126.162 50.4449 126.162 55.7024C126.162 59.8075 126.27 63.5814 125.6 66.5774C125.297 67.9674 122.777 69.8472 121.185 69.9984C119.593 70.1496 117.714 69.6383 116.864 69.7823C115.178 70.0632 114.811 72.6631 112.29 72.6631C109.77 72.6631 108.099 71.8637 107.4 71.8637C106.702 71.8637 105.737 72.6415 103.907 73.9091C102.078 75.1766 99.1756 75.3495 97.908 74.5069C96.6404 73.6642 96.7197 73.2105 95.1928 73.6498C93.5148 74.1251 94.0477 84.9642 93.4788 91.1147C92.9098 97.2652 93.8173 101.248 89.7409 101.414C85.0452 101.594 85.5493 94.0315 85.2613 89.9624C84.9732 85.8932 84.289 76.2785 83.2375 69.9912C82.7622 67.1104 84.2242 59.6635 82.0852 59.4835C80.8969 59.3826 76.9501 65.4683 73.1907 68.9397C70.2379 71.6693 65.7942 70.4737 65.2685 68.9397C64.8652 67.7298 67.9692 64.2008 69.7841 59.3394C71.2245 55.4215 76.6909 42.1986 78.5994 39.5195C81.1489 35.9185 84.0009 27.3841 84.361 25.0578C85.5277 18.0359 84.7499 11.374 83.5904 -15.9936C82.3085 -46.2421 82.8198 -74.9998 82.8198 -74.9998L127.17 -69.9584C127.214 -48.0672 125.937 -26.1933 123.346 -4.45602Z" fill="#EB5B29"/>
<path d="M96.8557 167.197C79.7653 167.197 58.9443 156.66 58.685 135.371C58.3753 112.512 76.2435 101.694 92.2032 101.262C108.163 100.83 130.194 110.366 129.827 133.499C129.488 156.019 113.651 167.197 96.8341 167.197" fill="#A3CBBC"/>
<path d="M75.5518 142.688C75.7895 142.688 76.0343 142.688 76.272 142.688C74.7966 143.556 73.5846 144.809 72.7653 146.312C71.9459 147.815 71.5499 149.512 71.6195 151.223C71.7275 158.49 76.6105 162.098 81.7959 162.098C85.6346 162.098 90.0638 160.29 92.2389 156.667C93.1895 162.472 97.5756 165.367 102.214 165.367C107.486 165.367 113.91 161.968 113.996 155.097C114.081 152.839 113.476 150.608 112.26 148.702C113.415 149.121 114.633 149.336 115.861 149.336C121.133 149.336 127.558 145.929 127.651 139.058C127.745 131.676 122.235 128.191 117.309 128.047C116.956 128.047 116.589 128.047 116.229 128.047C117.599 127.187 118.731 125.994 119.518 124.58C120.304 123.167 120.722 121.577 120.73 119.959C120.824 112.577 115.314 109.091 110.388 108.947C106.866 108.853 102.401 110.387 100.168 113.988C99.2968 108.047 94.4067 105.202 89.9774 105.079C85.0585 104.943 78.2453 108.018 78.3534 115.486C78.3279 117.759 78.9445 119.994 80.1323 121.932C79.113 121.595 78.0507 121.406 76.9778 121.37C72.0588 121.233 65.2457 124.309 65.3537 131.777C65.4546 139.044 70.3447 142.652 75.5302 142.652" fill="#23A59D"/>
<path d="M95.0554 153.815C103.748 153.815 114.342 148.205 114.501 136.883C114.659 124.719 105.57 118.965 97.4537 118.734C89.3371 118.504 78.1235 123.581 78.2964 135.89C78.4692 147.867 86.5211 153.815 95.0699 153.815" fill="#35A936"/>
<path d="M109.985 137.877C108.724 137.877 107.19 137.064 107.169 135.421C107.149 135.084 107.198 134.747 107.313 134.43C107.429 134.112 107.607 133.822 107.838 133.576C108.07 133.33 108.348 133.134 108.658 132.999C108.968 132.864 109.301 132.794 109.639 132.793C109.987 132.762 110.337 132.803 110.668 132.913C110.999 133.024 111.304 133.201 111.564 133.434C111.824 133.667 112.033 133.95 112.179 134.268C112.325 134.585 112.404 134.928 112.412 135.277C112.438 135.611 112.394 135.946 112.284 136.262C112.173 136.577 111.998 136.867 111.77 137.111C111.542 137.356 111.265 137.55 110.958 137.682C110.65 137.814 110.319 137.88 109.985 137.877Z" fill="#508B36"/>
<path d="M107.543 131.302C106.283 131.302 104.756 130.488 104.727 128.846C104.708 128.509 104.757 128.172 104.872 127.854C104.987 127.537 105.166 127.246 105.397 127C105.628 126.754 105.907 126.558 106.217 126.423C106.526 126.289 106.86 126.219 107.198 126.217C107.546 126.187 107.896 126.228 108.228 126.338C108.56 126.448 108.865 126.625 109.125 126.858C109.386 127.091 109.596 127.375 109.743 127.692C109.889 128.009 109.969 128.353 109.978 128.702C110.003 129.036 109.958 129.371 109.847 129.687C109.735 130.003 109.56 130.292 109.331 130.536C109.102 130.78 108.825 130.975 108.517 131.106C108.21 131.238 107.878 131.305 107.543 131.302Z" fill="#508B36"/>
<path d="M102.603 127.161C101.342 127.161 99.8083 126.354 99.7867 124.712C99.7661 124.376 99.8145 124.038 99.9288 123.721C100.043 123.404 100.221 123.113 100.452 122.867C100.682 122.621 100.961 122.425 101.27 122.29C101.579 122.155 101.913 122.085 102.25 122.084C102.598 122.052 102.949 122.092 103.281 122.202C103.613 122.312 103.919 122.489 104.18 122.722C104.441 122.955 104.651 123.239 104.797 123.557C104.943 123.874 105.022 124.219 105.03 124.568C105.056 124.901 105.012 125.236 104.902 125.552C104.791 125.867 104.616 126.156 104.388 126.4C104.159 126.643 103.883 126.837 103.575 126.968C103.268 127.099 102.937 127.165 102.603 127.161Z" fill="#508B36"/>
<path d="M96.3224 125.9C95.0621 125.9 93.5281 125.094 93.5065 123.452C93.4909 123.117 93.5432 122.783 93.6603 122.47C93.7773 122.156 93.9567 121.87 94.1876 121.627C94.4184 121.385 94.696 121.192 95.0035 121.06C95.311 120.928 95.6421 120.86 95.9767 120.859C96.3249 120.826 96.676 120.866 97.0081 120.975C97.3403 121.085 97.6461 121.262 97.9065 121.495C98.167 121.728 98.3763 122.013 98.5214 122.331C98.6664 122.649 98.7441 122.994 98.7495 123.344C98.7756 123.677 98.7319 124.012 98.6214 124.327C98.5108 124.642 98.3358 124.931 98.1075 125.175C97.8791 125.419 97.6025 125.613 97.2951 125.744C96.9878 125.875 96.6565 125.94 96.3224 125.936" fill="#508B36"/>
<path d="M90.0422 127.903C88.7818 127.903 87.2478 127.089 87.2262 125.454C87.2056 125.117 87.2541 124.779 87.3689 124.461C87.4837 124.143 87.6623 123.852 87.8936 123.606C88.125 123.36 88.4043 123.164 88.7143 123.029C89.0244 122.895 89.3586 122.826 89.6965 122.825C90.0446 122.792 90.3958 122.832 90.7279 122.941C91.06 123.051 91.3659 123.228 91.6263 123.461C91.8867 123.695 92.096 123.979 92.2411 124.297C92.3862 124.616 92.4638 124.96 92.4692 125.31C92.4953 125.643 92.4516 125.978 92.3411 126.293C92.2305 126.609 92.0555 126.897 91.8272 127.141C91.5988 127.385 91.3222 127.579 91.0149 127.71C90.7075 127.841 90.3763 127.907 90.0422 127.903Z" fill="#508B36"/>
<path d="M84.9504 132.188C83.6901 132.188 82.156 131.374 82.1344 129.732C82.1138 129.395 82.1622 129.058 82.2765 128.741C82.3909 128.423 82.5688 128.133 82.7994 127.887C83.03 127.64 83.3084 127.444 83.6176 127.309C83.9268 127.175 84.2602 127.104 84.5975 127.103C84.9456 127.072 85.2962 127.113 85.6278 127.224C85.9593 127.334 86.2648 127.511 86.5253 127.744C86.7858 127.976 86.9959 128.26 87.1424 128.577C87.289 128.895 87.369 129.238 87.3775 129.588C87.4035 129.921 87.3598 130.256 87.2493 130.572C87.1389 130.888 86.964 131.177 86.7357 131.421C86.5075 131.666 86.2309 131.86 85.9236 131.992C85.6162 132.124 85.2848 132.191 84.9504 132.188Z" fill="#508B36"/>
<path d="M82.8762 138.245C81.6158 138.245 80.0818 137.431 80.0602 135.789C80.0406 135.452 80.0899 135.114 80.2051 134.797C80.3203 134.48 80.4989 134.189 80.7301 133.943C80.9612 133.697 81.2401 133.501 81.5496 133.366C81.8592 133.232 82.1929 133.162 82.5305 133.16C82.8782 133.13 83.2285 133.171 83.5596 133.281C83.8908 133.391 84.1958 133.568 84.4558 133.801C84.7157 134.034 84.9251 134.318 85.0709 134.635C85.2166 134.952 85.2957 135.296 85.3033 135.645C85.3292 135.978 85.2856 136.313 85.1751 136.629C85.0646 136.945 84.8897 137.234 84.6615 137.479C84.4333 137.723 84.1567 137.917 83.8494 138.049C83.542 138.181 83.2106 138.248 82.8762 138.245Z" fill="#508B36"/>
<path d="M83.9136 144.294C82.6533 144.294 81.1193 143.488 81.0976 141.846C81.0771 141.509 81.1254 141.172 81.2398 140.854C81.3541 140.537 81.532 140.247 81.7626 140C81.9932 139.754 82.2717 139.558 82.5809 139.423C82.89 139.288 83.2235 139.218 83.5607 139.217C83.9088 139.186 84.2594 139.227 84.591 139.338C84.9226 139.448 85.228 139.625 85.4886 139.858C85.7491 140.09 85.9591 140.374 86.1057 140.691C86.2522 141.009 86.3322 141.352 86.3407 141.702C86.3679 142.035 86.325 142.37 86.2149 142.686C86.1047 143.002 85.9298 143.291 85.7012 143.535C85.4726 143.78 85.1955 143.973 84.8877 144.104C84.5798 144.235 84.248 144.3 83.9136 144.294Z" fill="#508B36"/>
<path d="M87.7522 149.617C86.4918 149.617 84.9578 148.803 84.9362 147.161C84.9166 146.824 84.9659 146.486 85.0811 146.169C85.1962 145.852 85.3749 145.561 85.606 145.315C85.8372 145.069 86.1161 144.873 86.4256 144.738C86.7352 144.604 87.0689 144.533 87.4065 144.532C87.7542 144.501 88.1045 144.542 88.4356 144.653C88.7668 144.763 89.0718 144.94 89.3318 145.173C89.5917 145.406 89.8011 145.69 89.9468 146.007C90.0926 146.324 90.1717 146.668 90.1792 147.017C90.2052 147.35 90.1616 147.685 90.0511 148.001C89.9406 148.317 89.7657 148.606 89.5375 148.85C89.3093 149.095 89.0327 149.289 88.7254 149.421C88.418 149.553 88.0866 149.62 87.7522 149.617Z" fill="#508B36"/>
<path d="M93.8166 152.425C92.5563 152.425 91.0222 151.612 91.0006 149.97C90.98 149.632 91.0286 149.294 91.1434 148.977C91.2581 148.659 91.4367 148.368 91.6681 148.122C91.8995 147.875 92.1788 147.679 92.4888 147.545C92.7988 147.411 93.1331 147.341 93.4709 147.341C93.8186 147.31 94.1689 147.351 94.5001 147.461C94.8313 147.572 95.1363 147.749 95.3962 147.982C95.6562 148.215 95.8655 148.499 96.0113 148.816C96.1571 149.133 96.2362 149.477 96.2437 149.826C96.2697 150.159 96.226 150.494 96.1155 150.81C96.0051 151.126 95.8302 151.415 95.6019 151.659C95.3737 151.904 95.0971 152.098 94.7898 152.23C94.4825 152.362 94.1511 152.428 93.8166 152.425Z" fill="#508B36"/>
<path d="M100.161 152.051C98.901 152.051 97.3669 151.244 97.3453 149.602C97.3247 149.265 97.3733 148.927 97.488 148.609C97.6028 148.291 97.7814 148.001 98.0128 147.754C98.2442 147.508 98.5234 147.312 98.8335 147.178C99.1435 147.043 99.4777 146.974 99.8156 146.973C100.164 146.942 100.514 146.982 100.846 147.092C101.178 147.202 101.483 147.379 101.743 147.612C102.003 147.845 102.213 148.129 102.358 148.447C102.504 148.765 102.582 149.109 102.588 149.458C102.614 149.791 102.571 150.126 102.46 150.441C102.35 150.757 102.175 151.046 101.946 151.289C101.718 151.533 101.441 151.727 101.134 151.858C100.827 151.989 100.495 152.055 100.161 152.051Z" fill="#508B36"/>
<path d="M105.628 149.026C104.368 149.026 102.834 148.212 102.812 146.57C102.793 146.234 102.842 145.897 102.956 145.58C103.071 145.263 103.249 144.973 103.48 144.727C103.71 144.481 103.988 144.285 104.297 144.15C104.605 144.015 104.938 143.944 105.275 143.941C105.623 143.911 105.974 143.952 106.306 144.062C106.637 144.172 106.943 144.349 107.203 144.582C107.464 144.815 107.674 145.099 107.82 145.416C107.967 145.733 108.047 146.077 108.055 146.426C108.081 146.76 108.038 147.095 107.927 147.41C107.817 147.726 107.642 148.015 107.413 148.26C107.185 148.504 106.909 148.699 106.601 148.831C106.294 148.962 105.963 149.029 105.628 149.026Z" fill="#508B36"/>
<path d="M109.315 144.302C108.055 144.302 106.52 143.488 106.499 141.846C106.479 141.509 106.529 141.171 106.644 140.854C106.759 140.537 106.938 140.246 107.169 140C107.4 139.754 107.679 139.558 107.988 139.423C108.298 139.289 108.632 139.218 108.969 139.217C109.317 139.186 109.668 139.227 109.999 139.338C110.331 139.448 110.636 139.625 110.897 139.858C111.157 140.09 111.368 140.374 111.514 140.691C111.661 141.009 111.741 141.352 111.749 141.702C111.774 142.036 111.729 142.371 111.618 142.687C111.507 143.002 111.331 143.291 111.102 143.536C110.874 143.78 110.597 143.974 110.289 144.106C109.981 144.238 109.65 144.305 109.315 144.302Z" fill="#508B36"/>
<path d="M106.694 137.978C106.159 138.016 105.631 137.84 105.226 137.489C104.821 137.138 104.572 136.64 104.533 136.106C104.518 135.848 104.556 135.59 104.644 135.348C104.732 135.106 104.869 134.884 105.045 134.696C105.222 134.508 105.435 134.358 105.671 134.255C105.907 134.152 106.162 134.098 106.42 134.096C106.685 134.073 106.953 134.104 107.205 134.187C107.458 134.271 107.691 134.406 107.89 134.584C108.088 134.761 108.248 134.978 108.36 135.22C108.471 135.462 108.531 135.724 108.537 135.99C108.557 136.245 108.524 136.501 108.44 136.742C108.356 136.983 108.223 137.204 108.049 137.391C107.875 137.578 107.664 137.726 107.429 137.828C107.195 137.929 106.942 137.98 106.686 137.978" fill="#508B36"/>
<path d="M104.828 132.958C104.294 132.996 103.766 132.82 103.361 132.469C102.956 132.118 102.706 131.62 102.668 131.086C102.653 130.828 102.691 130.571 102.779 130.328C102.867 130.086 103.003 129.864 103.18 129.676C103.356 129.488 103.569 129.338 103.806 129.235C104.042 129.132 104.297 129.078 104.555 129.076C104.821 129.053 105.089 129.084 105.342 129.168C105.595 129.253 105.828 129.388 106.027 129.566C106.226 129.745 106.385 129.962 106.496 130.205C106.607 130.448 106.667 130.711 106.672 130.978C106.692 131.232 106.659 131.488 106.575 131.728C106.491 131.969 106.357 132.19 106.183 132.376C106.009 132.562 105.798 132.71 105.563 132.811C105.329 132.911 105.076 132.961 104.821 132.958" fill="#508B36"/>
<path d="M101.019 129.797C100.484 129.834 99.9563 129.658 99.5512 129.307C99.1462 128.956 98.8969 128.459 98.8582 127.924C98.8424 127.667 98.8796 127.409 98.9673 127.167C99.0551 126.924 99.1916 126.702 99.3684 126.515C99.5452 126.327 99.7586 126.178 99.9954 126.076C100.232 125.974 100.487 125.922 100.745 125.922C101.011 125.897 101.278 125.928 101.532 126.011C101.785 126.094 102.018 126.229 102.217 126.407C102.416 126.585 102.576 126.802 102.687 127.044C102.798 127.287 102.858 127.55 102.862 127.816C102.883 128.07 102.849 128.326 102.765 128.567C102.681 128.807 102.548 129.028 102.373 129.214C102.199 129.401 101.988 129.549 101.754 129.649C101.519 129.749 101.267 129.8 101.012 129.797" fill="#508B36"/>
<path d="M96.2576 128.839C95.9927 128.859 95.7265 128.826 95.4743 128.742C95.2221 128.658 94.9889 128.526 94.7881 128.352C94.5873 128.178 94.4229 127.966 94.3043 127.728C94.1857 127.49 94.1153 127.232 94.097 126.966C94.0813 126.71 94.1183 126.453 94.2056 126.211C94.2929 125.969 94.4287 125.747 94.6048 125.56C94.7808 125.372 94.9933 125.223 95.2293 125.12C95.4652 125.018 95.7196 124.965 95.9768 124.964C96.2426 124.94 96.5108 124.97 96.7645 125.053C97.0182 125.137 97.252 125.271 97.4513 125.449C97.6506 125.627 97.8112 125.844 97.923 126.086C98.0349 126.329 98.0956 126.591 98.1014 126.858C98.1203 127.113 98.0862 127.369 98.0012 127.61C97.9161 127.85 97.782 128.071 97.6073 128.257C97.4327 128.443 97.2212 128.591 96.9864 128.691C96.7516 128.791 96.4985 128.842 96.2432 128.839" fill="#508B36"/>
<path d="M91.4612 130.366C90.9265 130.403 90.3987 130.227 89.9936 129.876C89.5886 129.525 89.3393 129.028 89.3006 128.493C89.2849 128.236 89.3218 127.979 89.4091 127.736C89.4963 127.494 89.632 127.272 89.808 127.084C89.9839 126.896 90.1963 126.746 90.4323 126.643C90.6683 126.539 90.9228 126.485 91.1803 126.484C91.446 126.46 91.7137 126.491 91.9669 126.575C92.2202 126.659 92.4535 126.794 92.6526 126.971C92.8517 127.149 93.0123 127.365 93.1245 127.607C93.2367 127.849 93.2981 128.111 93.3049 128.378C93.3249 128.633 93.2916 128.89 93.207 129.131C93.1225 129.373 92.9885 129.594 92.8137 129.781C92.6389 129.968 92.4271 130.117 92.1918 130.217C91.9564 130.318 91.7027 130.369 91.4468 130.366" fill="#508B36"/>
<path d="M87.5725 133.635C87.0378 133.673 86.51 133.497 86.105 133.146C85.6999 132.795 85.4506 132.297 85.4119 131.763C85.3962 131.506 85.4331 131.248 85.5204 131.006C85.6076 130.764 85.7434 130.542 85.9193 130.354C86.0952 130.166 86.3077 130.015 86.5436 129.912C86.7796 129.809 87.0341 129.755 87.2916 129.753C87.5573 129.73 87.825 129.761 88.0782 129.845C88.3315 129.928 88.5648 130.063 88.7639 130.241C88.963 130.418 89.1236 130.635 89.2358 130.877C89.348 131.119 89.4094 131.381 89.4162 131.648C89.4362 131.903 89.4029 132.159 89.3183 132.401C89.2338 132.643 89.0998 132.864 88.925 133.051C88.7503 133.238 88.5385 133.386 88.3031 133.487C88.0678 133.588 87.8141 133.638 87.5581 133.635" fill="#508B36"/>
<path d="M85.9953 138.259C85.4606 138.297 84.9329 138.121 84.5278 137.77C84.1227 137.419 83.8735 136.921 83.8347 136.387C83.8201 136.129 83.8579 135.872 83.946 135.629C84.0341 135.387 84.1705 135.165 84.347 134.977C84.5235 134.789 84.7364 134.639 84.9727 134.536C85.209 134.433 85.4638 134.379 85.7217 134.377C85.9874 134.355 86.2549 134.387 86.5077 134.471C86.7606 134.556 86.9934 134.692 87.1918 134.87C87.3902 135.048 87.55 135.265 87.6613 135.507C87.7727 135.749 87.8331 136.012 87.8391 136.279C87.8591 136.533 87.8259 136.788 87.7417 137.029C87.6575 137.27 87.5241 137.49 87.35 137.677C87.1759 137.863 86.9649 138.011 86.7304 138.111C86.4959 138.212 86.2431 138.262 85.9881 138.259" fill="#508B36"/>
<path d="M86.7805 142.883C86.2458 142.92 85.718 142.744 85.313 142.393C84.9079 142.042 84.6587 141.545 84.6199 141.01C84.6042 140.753 84.6413 140.494 84.729 140.252C84.8167 140.009 84.9531 139.786 85.1298 139.598C85.3065 139.41 85.5198 139.26 85.7566 139.157C85.9934 139.055 86.2487 139.001 86.5069 139.001C86.772 138.978 87.0389 139.01 87.2913 139.094C87.5436 139.178 87.7761 139.313 87.9744 139.491C88.1727 139.668 88.3327 139.884 88.4444 140.126C88.5562 140.367 88.6174 140.629 88.6242 140.895C88.6442 141.15 88.6109 141.407 88.5264 141.648C88.4418 141.89 88.3078 142.111 88.1331 142.298C87.9583 142.485 87.7465 142.634 87.5111 142.734C87.2758 142.835 87.0221 142.885 86.7661 142.883" fill="#508B36"/>
<path d="M89.7112 146.945C89.4459 146.963 89.1795 146.929 88.9272 146.845C88.675 146.761 88.4419 146.627 88.2412 146.453C88.0406 146.278 87.8763 146.066 87.7578 145.828C87.6393 145.59 87.5689 145.33 87.5506 145.065C87.5359 144.808 87.5738 144.551 87.6619 144.309C87.7501 144.067 87.8866 143.845 88.0632 143.658C88.2398 143.47 88.4528 143.321 88.6891 143.219C88.9253 143.116 89.18 143.063 89.4375 143.063C89.703 143.038 89.9708 143.068 90.2241 143.152C90.4774 143.235 90.7108 143.37 90.9095 143.548C91.1083 143.726 91.2682 143.943 91.3793 144.185C91.4903 144.428 91.5501 144.69 91.5549 144.957C91.5749 145.212 91.5416 145.469 91.457 145.71C91.3724 145.952 91.2385 146.173 91.0637 146.36C90.8889 146.547 90.6771 146.696 90.4418 146.796C90.2064 146.897 89.9527 146.948 89.6968 146.945" fill="#508B36"/>
<path d="M94.342 149.084C93.8073 149.121 93.2795 148.945 92.8745 148.594C92.4694 148.243 92.2202 147.746 92.1814 147.211C92.1668 146.954 92.2046 146.696 92.2927 146.454C92.3808 146.211 92.5172 145.989 92.6937 145.801C92.8702 145.614 93.0831 145.463 93.3194 145.36C93.5557 145.257 93.8105 145.203 94.0684 145.202C94.334 145.179 94.6016 145.211 94.8544 145.296C95.1073 145.38 95.3401 145.516 95.5385 145.694C95.7369 145.872 95.8967 146.089 96.008 146.332C96.1193 146.574 96.1798 146.836 96.1857 147.103C96.2058 147.357 96.1726 147.613 96.0884 147.854C96.0042 148.094 95.8708 148.315 95.6967 148.501C95.5226 148.687 95.3115 148.836 95.0771 148.936C94.8426 149.036 94.5898 149.086 94.3348 149.084" fill="#508B36"/>
<path d="M99.1894 148.803C98.6547 148.841 98.1269 148.664 97.7219 148.313C97.3168 147.962 97.0676 147.465 97.0288 146.93C97.0142 146.673 97.052 146.415 97.1401 146.173C97.2282 145.931 97.3646 145.709 97.5411 145.521C97.7176 145.333 97.9305 145.183 98.1668 145.08C98.4031 144.976 98.6579 144.923 98.9158 144.921C99.1776 144.899 99.4411 144.931 99.6903 145.014C99.9395 145.097 100.169 145.23 100.366 145.404C100.562 145.579 100.722 145.791 100.834 146.028C100.946 146.266 101.009 146.524 101.019 146.786C101.039 147.041 101.006 147.296 100.921 147.537C100.837 147.778 100.704 147.998 100.53 148.184C100.356 148.371 100.145 148.519 99.9101 148.619C99.6756 148.719 99.4228 148.77 99.1678 148.767" fill="#508B36"/>
<path d="M103.359 146.491C102.824 146.529 102.296 146.353 101.891 146.002C101.486 145.651 101.237 145.153 101.198 144.619C101.182 144.362 101.219 144.104 101.307 143.862C101.394 143.619 101.53 143.397 101.706 143.209C101.881 143.021 102.094 142.871 102.33 142.768C102.566 142.665 102.82 142.611 103.078 142.609C103.347 142.58 103.619 142.607 103.877 142.689C104.135 142.771 104.373 142.906 104.576 143.084C104.78 143.263 104.943 143.482 105.057 143.728C105.171 143.973 105.233 144.24 105.238 144.511C105.259 144.765 105.225 145.022 105.141 145.263C105.056 145.504 104.922 145.725 104.747 145.911C104.572 146.098 104.36 146.246 104.125 146.345C103.89 146.445 103.636 146.495 103.38 146.491" fill="#508B36"/>
<path d="M106.182 142.883C105.648 142.92 105.12 142.744 104.715 142.393C104.31 142.042 104.06 141.545 104.022 141.01C104.007 140.753 104.045 140.495 104.133 140.253C104.221 140.01 104.357 139.788 104.534 139.601C104.71 139.413 104.923 139.263 105.16 139.159C105.396 139.056 105.651 139.002 105.909 139.001C106.174 138.977 106.441 139.008 106.694 139.092C106.947 139.176 107.18 139.311 107.378 139.488C107.577 139.666 107.737 139.882 107.848 140.124C107.96 140.366 108.02 140.629 108.026 140.895C108.047 141.15 108.015 141.406 107.931 141.648C107.847 141.889 107.714 142.111 107.54 142.298C107.366 142.485 107.154 142.634 106.919 142.734C106.684 142.835 106.431 142.886 106.175 142.883" fill="#508B36"/>
<path d="M103.705 137.503C103.295 137.53 102.892 137.394 102.582 137.124C102.273 136.854 102.084 136.472 102.056 136.062C102.042 135.865 102.069 135.667 102.135 135.48C102.201 135.294 102.305 135.123 102.44 134.978C102.576 134.833 102.739 134.718 102.921 134.64C103.102 134.561 103.298 134.521 103.496 134.521C103.699 134.502 103.904 134.525 104.098 134.589C104.292 134.652 104.471 134.754 104.624 134.889C104.777 135.024 104.901 135.188 104.989 135.373C105.076 135.557 105.124 135.758 105.131 135.962C105.143 136.158 105.114 136.355 105.047 136.539C104.98 136.724 104.876 136.893 104.741 137.036C104.606 137.18 104.443 137.293 104.263 137.371C104.082 137.449 103.887 137.489 103.691 137.488" fill="#508B36"/>
<path d="M102.272 133.643C101.863 133.668 101.46 133.532 101.151 133.262C100.842 132.992 100.652 132.611 100.623 132.202C100.609 132.005 100.636 131.807 100.702 131.62C100.768 131.433 100.872 131.263 101.007 131.118C101.142 130.973 101.306 130.858 101.488 130.779C101.669 130.701 101.865 130.661 102.063 130.661C102.266 130.641 102.471 130.663 102.665 130.726C102.859 130.789 103.038 130.891 103.191 131.027C103.344 131.162 103.467 131.327 103.553 131.512C103.639 131.697 103.686 131.898 103.691 132.101C103.703 132.298 103.674 132.494 103.607 132.679C103.54 132.864 103.436 133.033 103.301 133.176C103.166 133.319 103.003 133.433 102.822 133.511C102.642 133.589 102.447 133.629 102.25 133.628" fill="#508B36"/>
<path d="M99.369 131.208C98.9586 131.236 98.5538 131.1 98.2434 130.83C97.933 130.56 97.7421 130.178 97.7126 129.768C97.6977 129.57 97.7239 129.371 97.7896 129.183C97.8552 128.996 97.959 128.824 98.0942 128.679C98.2295 128.533 98.3934 128.417 98.5756 128.338C98.7578 128.259 98.9544 128.219 99.153 128.219C99.3553 128.203 99.559 128.227 99.7517 128.291C99.9443 128.355 100.122 128.458 100.274 128.592C100.426 128.727 100.549 128.891 100.636 129.074C100.724 129.258 100.773 129.457 100.781 129.66C100.792 129.856 100.764 130.053 100.697 130.237C100.63 130.422 100.525 130.592 100.391 130.735C100.256 130.878 100.093 130.992 99.9121 131.069C99.7315 131.147 99.5369 131.187 99.3402 131.187" fill="#508B36"/>
<path d="M95.6821 130.474C95.2721 130.5 94.8684 130.363 94.5584 130.093C94.2484 129.824 94.057 129.443 94.0257 129.033C94.0108 128.835 94.037 128.636 94.1027 128.449C94.1684 128.261 94.2721 128.09 94.4074 127.944C94.5426 127.799 94.7065 127.683 94.8887 127.604C95.0709 127.525 95.2675 127.484 95.4661 127.485C95.6692 127.466 95.8741 127.489 96.068 127.552C96.262 127.616 96.441 127.718 96.5941 127.853C96.7472 127.987 96.8711 128.152 96.9582 128.337C97.0454 128.521 97.0939 128.721 97.1009 128.925C97.1127 129.122 97.0842 129.318 97.0171 129.503C96.95 129.688 96.8458 129.857 96.7109 130C96.5759 130.143 96.4131 130.257 96.2325 130.335C96.0518 130.413 95.8572 130.452 95.6605 130.452" fill="#508B36"/>
<path d="M91.9872 131.662C91.5767 131.69 91.172 131.554 90.8616 131.284C90.5511 131.014 90.3603 130.632 90.3307 130.222C90.3169 130.024 90.3438 129.826 90.41 129.639C90.4762 129.453 90.5801 129.282 90.7152 129.137C90.8504 128.993 91.0139 128.877 91.1956 128.799C91.3772 128.72 91.5732 128.68 91.7711 128.68C91.9739 128.662 92.1784 128.685 92.372 128.748C92.5655 128.811 92.7441 128.913 92.8966 129.048C93.0491 129.183 93.1724 129.348 93.2587 129.533C93.3451 129.717 93.3928 129.917 93.3988 130.121C93.4106 130.317 93.3821 130.514 93.315 130.699C93.2479 130.883 93.1437 131.053 93.0087 131.196C92.8738 131.339 92.711 131.453 92.5303 131.53C92.3497 131.608 92.155 131.648 91.9584 131.648" fill="#508B36"/>
<path d="M88.9913 134.161C88.5816 134.189 88.1777 134.053 87.8684 133.783C87.5591 133.512 87.3698 133.131 87.3421 132.721C87.3272 132.523 87.3534 132.324 87.4191 132.136C87.4848 131.949 87.5885 131.777 87.7238 131.632C87.859 131.486 88.0229 131.37 88.2051 131.291C88.3873 131.212 88.5839 131.172 88.7825 131.172C88.9854 131.155 89.1898 131.178 89.3834 131.242C89.5769 131.306 89.7555 131.408 89.9083 131.543C90.0612 131.677 90.1851 131.842 90.2726 132.026C90.3601 132.209 90.4093 132.409 90.4173 132.613C90.4291 132.809 90.4006 133.006 90.3335 133.191C90.2664 133.375 90.1622 133.545 90.0273 133.688C89.8923 133.831 89.7295 133.945 89.5489 134.022C89.3682 134.1 89.1736 134.14 88.9769 134.14" fill="#508B36"/>
<path d="M87.7808 137.719C87.3703 137.747 86.9656 137.611 86.6551 137.341C86.3447 137.071 86.1538 136.689 86.1243 136.279C86.1094 136.081 86.1356 135.882 86.2013 135.694C86.267 135.507 86.3707 135.335 86.506 135.19C86.6413 135.044 86.8051 134.928 86.9873 134.849C87.1695 134.77 87.3661 134.73 87.5647 134.73C87.7676 134.713 87.9721 134.736 88.1656 134.8C88.3591 134.863 88.5377 134.966 88.6906 135.1C88.8434 135.235 88.9673 135.399 89.0548 135.583C89.1423 135.767 89.1916 135.967 89.1996 136.171C89.2114 136.367 89.1828 136.564 89.1157 136.748C89.0487 136.933 88.9444 137.102 88.8095 137.246C88.6745 137.389 88.5117 137.502 88.3311 137.58C88.1505 137.658 87.9558 137.698 87.7592 137.698" fill="#508B36"/>
<path d="M88.3866 141.277C87.9761 141.304 87.5714 141.168 87.261 140.899C86.9505 140.629 86.7597 140.247 86.7301 139.836C86.7163 139.639 86.7433 139.441 86.8094 139.254C86.8756 139.068 86.9795 138.897 87.1146 138.752C87.2498 138.607 87.4133 138.492 87.595 138.414C87.7767 138.335 87.9726 138.295 88.1705 138.295C88.3733 138.276 88.5778 138.299 88.7714 138.363C88.965 138.426 89.1435 138.528 89.296 138.663C89.4485 138.798 89.5718 138.963 89.6581 139.147C89.7445 139.332 89.7922 139.532 89.7982 139.736C89.81 139.932 89.7815 140.128 89.7144 140.313C89.6473 140.498 89.5431 140.667 89.4081 140.81C89.2732 140.953 89.1104 141.067 88.9297 141.145C88.7491 141.223 88.5544 141.263 88.3578 141.262" fill="#508B36"/>
<path d="M90.6401 144.402C90.2304 144.43 89.8265 144.294 89.5172 144.024C89.2079 143.753 89.0186 143.372 88.9909 142.962C88.976 142.764 89.0022 142.565 89.0679 142.377C89.1336 142.19 89.2373 142.018 89.3726 141.873C89.5078 141.727 89.6717 141.611 89.8539 141.532C90.0361 141.453 90.2327 141.413 90.4313 141.413C90.6339 141.396 90.8379 141.419 91.031 141.483C91.2242 141.547 91.4023 141.649 91.5546 141.784C91.7069 141.919 91.8301 142.083 91.9168 142.267C92.0035 142.451 92.0519 142.651 92.0589 142.854C92.0707 143.05 92.0422 143.247 91.9751 143.432C91.908 143.616 91.8038 143.786 91.6689 143.929C91.5339 144.072 91.3711 144.186 91.1905 144.263C91.0098 144.341 90.8152 144.381 90.6185 144.381" fill="#508B36"/>
<path d="M94.1984 146.066C93.7887 146.094 93.3847 145.958 93.0754 145.687C92.7661 145.417 92.5768 145.035 92.5491 144.626C92.5342 144.428 92.5604 144.229 92.6261 144.041C92.6918 143.854 92.7955 143.682 92.9308 143.537C93.0661 143.391 93.2299 143.275 93.4121 143.196C93.5943 143.117 93.7909 143.077 93.9895 143.077C94.1925 143.06 94.3969 143.083 94.5904 143.147C94.7839 143.21 94.9625 143.313 95.1154 143.447C95.2682 143.582 95.3921 143.746 95.4796 143.93C95.5671 144.114 95.6164 144.314 95.6244 144.518C95.6362 144.714 95.6076 144.911 95.5406 145.095C95.4735 145.28 95.3692 145.449 95.2343 145.592C95.0993 145.736 94.9365 145.849 94.7559 145.927C94.5753 146.005 94.3806 146.045 94.184 146.044" fill="#508B36"/>
<path d="M97.9364 145.836C97.5259 145.863 97.1212 145.727 96.8108 145.457C96.5003 145.187 96.3095 144.805 96.2799 144.395C96.265 144.197 96.2913 143.998 96.3569 143.811C96.4226 143.623 96.5264 143.451 96.6616 143.306C96.7969 143.161 96.9608 143.045 97.143 142.966C97.3252 142.887 97.5217 142.846 97.7203 142.847C97.9227 142.83 98.1264 142.855 98.319 142.919C98.5117 142.983 98.6894 143.085 98.8415 143.22C98.9936 143.354 99.1168 143.518 99.2039 143.702C99.2909 143.885 99.3399 144.084 99.348 144.287C99.3598 144.483 99.3313 144.68 99.2642 144.865C99.1971 145.05 99.0929 145.219 98.9579 145.362C98.823 145.505 98.6602 145.619 98.4795 145.697C98.2989 145.774 98.1042 145.814 97.9076 145.814" fill="#508B36"/>
<path d="M101.148 144.057C100.737 144.084 100.333 143.948 100.022 143.679C99.7119 143.409 99.521 143.027 99.4915 142.616C99.4766 142.418 99.5028 142.219 99.5685 142.032C99.6342 141.844 99.7379 141.673 99.8732 141.527C100.008 141.382 100.172 141.266 100.355 141.187C100.537 141.108 100.733 141.067 100.932 141.068C101.135 141.05 101.339 141.074 101.533 141.138C101.726 141.201 101.905 141.303 102.058 141.438C102.211 141.573 102.335 141.737 102.422 141.921C102.51 142.105 102.559 142.305 102.567 142.508C102.579 142.705 102.55 142.901 102.483 143.086C102.416 143.271 102.312 143.44 102.177 143.583C102.042 143.726 101.879 143.84 101.698 143.918C101.518 143.996 101.323 144.036 101.126 144.035" fill="#508B36"/>
<path d="M103.316 141.277C102.906 141.304 102.501 141.168 102.191 140.899C101.88 140.629 101.689 140.247 101.66 139.836C101.646 139.639 101.673 139.441 101.739 139.254C101.805 139.068 101.909 138.897 102.044 138.752C102.179 138.607 102.343 138.492 102.525 138.414C102.706 138.335 102.902 138.295 103.1 138.295C103.303 138.276 103.507 138.299 103.701 138.363C103.895 138.426 104.073 138.528 104.226 138.663C104.378 138.798 104.501 138.963 104.588 139.147C104.674 139.332 104.722 139.532 104.728 139.736C104.74 139.932 104.711 140.128 104.644 140.313C104.577 140.498 104.473 140.667 104.338 140.81C104.203 140.953 104.04 141.067 103.859 141.145C103.679 141.223 103.484 141.263 103.287 141.262" fill="#508B36"/>
<path d="M165.16 171.179C181.256 171.179 199.73 162.069 199.996 142.026C200.291 120.492 184.036 109.926 169.027 109.516C154.018 109.105 133.788 117.654 134.119 139.44C134.429 160.65 149.351 171.179 165.181 171.179" fill="#EAE0D5"/>
<path d="M148.877 148.111C149.093 148.111 149.316 148.111 149.539 148.111C148.208 148.895 147.115 150.024 146.375 151.38C145.636 152.736 145.278 154.267 145.34 155.81C145.434 162.364 149.842 165.619 154.516 165.619C157.98 165.619 161.977 163.992 163.936 160.722C164.793 165.958 168.754 168.572 172.931 168.572C177.692 168.572 183.489 165.504 183.569 159.303C183.639 157.268 183.092 155.26 181.999 153.542C183.054 153.912 184.165 154.094 185.283 154.082C190.036 154.082 195.834 151.007 195.913 144.806C195.999 138.151 191.03 135.004 186.55 134.881C186.226 134.863 185.902 134.863 185.578 134.881C186.815 134.106 187.836 133.031 188.545 131.755C189.254 130.48 189.628 129.045 189.633 127.586C189.719 120.924 184.75 117.776 180.27 117.654C177.094 117.568 173.068 118.972 171.052 122.227C170.267 116.876 165.852 114.305 161.862 114.19C157.418 114.075 151.282 116.847 151.376 123.552C151.352 125.603 151.909 127.618 152.982 129.364C152.062 129.064 151.104 128.894 150.137 128.86C145.693 128.738 139.55 131.511 139.651 138.223C139.744 144.777 144.152 148.032 148.826 148.032" fill="#732A55"/>
<path d="M166.363 151.684C171.116 151.684 176.914 148.616 176.993 142.422C177.079 135.76 172.11 132.613 167.63 132.49C163.151 132.368 157.051 135.141 157.144 141.853C157.238 148.414 161.646 151.669 166.327 151.662" fill="#E72484"/>
<path d="M177.187 142.393C176.67 142.428 176.159 142.257 175.768 141.917C175.376 141.577 175.136 141.095 175.099 140.578C175.083 140.328 175.119 140.077 175.203 139.841C175.288 139.606 175.42 139.39 175.592 139.207C175.763 139.024 175.97 138.878 176.2 138.778C176.43 138.678 176.678 138.627 176.928 138.626C177.186 138.603 177.446 138.634 177.692 138.716C177.938 138.798 178.164 138.929 178.358 139.102C178.551 139.274 178.706 139.485 178.815 139.72C178.923 139.956 178.982 140.211 178.988 140.47C179.007 140.717 178.974 140.965 178.892 141.199C178.81 141.433 178.68 141.647 178.511 141.828C178.342 142.008 178.136 142.152 177.909 142.249C177.681 142.347 177.435 142.396 177.187 142.393Z" fill="#D4A1BF"/>
<path d="M175.38 137.524C174.861 137.558 174.351 137.385 173.96 137.044C173.568 136.703 173.328 136.22 173.291 135.702C173.275 135.453 173.311 135.202 173.396 134.967C173.481 134.731 173.613 134.516 173.784 134.334C173.956 134.151 174.163 134.006 174.393 133.907C174.622 133.808 174.87 133.757 175.12 133.758C175.378 133.734 175.637 133.763 175.883 133.845C176.128 133.926 176.354 134.056 176.547 134.229C176.74 134.401 176.895 134.611 177.002 134.846C177.11 135.081 177.168 135.336 177.173 135.594C177.193 135.841 177.161 136.09 177.08 136.324C176.999 136.558 176.87 136.773 176.701 136.954C176.532 137.136 176.328 137.28 176.1 137.378C175.873 137.476 175.627 137.526 175.38 137.524Z" fill="#D4A1BF"/>
<path d="M171.714 134.456C171.195 134.49 170.685 134.317 170.294 133.976C169.902 133.634 169.662 133.152 169.625 132.634C169.609 132.384 169.645 132.134 169.73 131.899C169.815 131.663 169.947 131.448 170.118 131.266C170.29 131.083 170.497 130.938 170.727 130.839C170.956 130.74 171.204 130.689 171.454 130.69C171.712 130.666 171.971 130.695 172.217 130.776C172.462 130.857 172.688 130.988 172.881 131.161C173.074 131.333 173.229 131.543 173.336 131.778C173.444 132.013 173.502 132.268 173.507 132.526C173.527 132.773 173.495 133.022 173.414 133.256C173.333 133.49 173.204 133.704 173.035 133.886C172.866 134.068 172.662 134.212 172.434 134.31C172.207 134.408 171.961 134.458 171.714 134.456Z" fill="#D4A1BF"/>
<path d="M167.054 133.527C166.536 133.559 166.026 133.386 165.636 133.045C165.245 132.704 165.004 132.222 164.965 131.705C164.95 131.456 164.987 131.206 165.072 130.971C165.157 130.736 165.289 130.521 165.461 130.339C165.632 130.157 165.839 130.012 166.068 129.912C166.297 129.813 166.544 129.761 166.794 129.761C167.053 129.737 167.313 129.767 167.559 129.848C167.806 129.929 168.033 130.061 168.226 130.234C168.419 130.407 168.575 130.618 168.683 130.854C168.791 131.089 168.849 131.345 168.854 131.604C168.873 131.851 168.841 132.1 168.758 132.333C168.676 132.567 168.546 132.781 168.377 132.962C168.208 133.143 168.003 133.287 167.775 133.384C167.547 133.481 167.301 133.53 167.054 133.527Z" fill="#D4A1BF"/>
<path d="M162.395 135.004C161.878 135.035 161.369 134.862 160.979 134.521C160.59 134.179 160.35 133.698 160.313 133.182C160.299 132.932 160.335 132.682 160.42 132.447C160.505 132.212 160.638 131.997 160.809 131.815C160.98 131.633 161.187 131.488 161.416 131.389C161.645 131.289 161.893 131.238 162.143 131.237C162.403 131.213 162.665 131.243 162.913 131.326C163.161 131.409 163.388 131.542 163.582 131.717C163.776 131.893 163.931 132.106 164.038 132.345C164.144 132.583 164.2 132.841 164.202 133.102C164.22 133.35 164.187 133.598 164.104 133.832C164.021 134.066 163.89 134.28 163.72 134.46C163.55 134.641 163.345 134.785 163.117 134.882C162.889 134.979 162.643 135.028 162.395 135.025" fill="#D4A1BF"/>
<path d="M158.635 138.144C158.117 138.177 157.608 138.005 157.217 137.663C156.827 137.321 156.588 136.839 156.553 136.322C156.538 136.073 156.573 135.823 156.657 135.588C156.742 135.353 156.873 135.138 157.044 134.956C157.215 134.774 157.421 134.628 157.65 134.529C157.879 134.429 158.126 134.378 158.375 134.377C158.634 134.352 158.895 134.381 159.142 134.462C159.388 134.543 159.616 134.674 159.809 134.848C160.003 135.021 160.158 135.232 160.266 135.469C160.374 135.705 160.431 135.961 160.435 136.221C160.454 136.468 160.422 136.716 160.339 136.95C160.257 137.184 160.127 137.398 159.958 137.579C159.789 137.759 159.584 137.903 159.356 138C159.128 138.098 158.882 138.147 158.635 138.144Z" fill="#D4A1BF"/>
<path d="M157.086 142.667C156.569 142.7 156.06 142.529 155.669 142.189C155.278 141.849 155.036 141.368 154.998 140.852C154.978 140.599 155.01 140.345 155.093 140.105C155.176 139.866 155.307 139.646 155.479 139.459C155.651 139.273 155.859 139.124 156.091 139.021C156.323 138.919 156.573 138.865 156.827 138.864C157.085 138.84 157.346 138.87 157.592 138.951C157.838 139.033 158.065 139.164 158.259 139.337C158.452 139.51 158.607 139.721 158.716 139.957C158.824 140.193 158.882 140.448 158.887 140.708C158.907 140.955 158.875 141.204 158.793 141.438C158.712 141.672 158.582 141.887 158.412 142.068C158.243 142.249 158.037 142.393 157.809 142.49C157.58 142.586 157.334 142.635 157.086 142.631" fill="#D4A1BF"/>
<path d="M157.857 147.161C157.337 147.198 156.824 147.028 156.43 146.688C156.036 146.348 155.793 145.865 155.754 145.346C155.739 145.096 155.776 144.846 155.861 144.61C155.946 144.375 156.078 144.16 156.249 143.977C156.42 143.794 156.627 143.648 156.856 143.548C157.086 143.448 157.333 143.396 157.583 143.394C157.841 143.371 158.101 143.402 158.346 143.484C158.592 143.566 158.818 143.697 159.01 143.87C159.203 144.043 159.358 144.253 159.465 144.489C159.573 144.724 159.631 144.979 159.636 145.238C159.656 145.485 159.624 145.733 159.543 145.967C159.462 146.201 159.333 146.416 159.164 146.598C158.995 146.779 158.791 146.924 158.563 147.022C158.336 147.12 158.09 147.17 157.842 147.168" fill="#D4A1BF"/>
<path d="M160.702 151.107C160.185 151.141 159.675 150.969 159.284 150.63C158.893 150.29 158.652 149.809 158.613 149.292C158.597 149.042 158.633 148.792 158.718 148.556C158.802 148.32 158.935 148.104 159.106 147.921C159.277 147.739 159.484 147.593 159.714 147.493C159.944 147.393 160.192 147.341 160.442 147.341C160.7 147.318 160.961 147.348 161.206 147.43C161.452 147.512 161.679 147.643 161.872 147.816C162.065 147.989 162.22 148.2 162.329 148.435C162.437 148.67 162.496 148.925 162.502 149.184C162.52 149.431 162.487 149.679 162.404 149.912C162.322 150.146 162.192 150.359 162.023 150.54C161.853 150.72 161.649 150.864 161.421 150.962C161.194 151.059 160.949 151.109 160.702 151.107Z" fill="#D4A1BF"/>
<path d="M165.188 153.182C164.671 153.215 164.161 153.042 163.771 152.701C163.381 152.359 163.142 151.877 163.107 151.36C163.091 151.11 163.127 150.861 163.211 150.626C163.296 150.391 163.427 150.176 163.598 149.994C163.769 149.811 163.975 149.666 164.204 149.567C164.433 149.467 164.679 149.416 164.929 149.415C165.187 149.391 165.448 149.421 165.694 149.502C165.941 149.584 166.167 149.715 166.361 149.888C166.554 150.061 166.71 150.272 166.818 150.508C166.926 150.744 166.984 150.999 166.989 151.259C167.008 151.506 166.975 151.754 166.893 151.988C166.811 152.222 166.681 152.436 166.512 152.616C166.342 152.797 166.137 152.941 165.91 153.038C165.682 153.136 165.436 153.184 165.188 153.182Z" fill="#D4A1BF"/>
<path d="M169.898 152.908C169.381 152.94 168.871 152.766 168.48 152.425C168.089 152.084 167.849 151.603 167.81 151.086C167.795 150.836 167.832 150.585 167.917 150.35C168.003 150.114 168.136 149.899 168.308 149.717C168.48 149.535 168.687 149.39 168.918 149.291C169.148 149.192 169.396 149.141 169.646 149.141C169.904 149.119 170.164 149.149 170.409 149.231C170.655 149.313 170.881 149.444 171.073 149.617C171.266 149.79 171.421 150.001 171.528 150.236C171.636 150.471 171.694 150.726 171.699 150.985C171.718 151.232 171.685 151.48 171.603 151.714C171.521 151.948 171.391 152.162 171.222 152.343C171.052 152.524 170.847 152.667 170.62 152.764C170.392 152.862 170.146 152.911 169.898 152.908Z" fill="#D4A1BF"/>
<path d="M173.954 150.661C173.436 150.697 172.926 150.525 172.534 150.185C172.143 149.845 171.902 149.363 171.865 148.846C171.849 148.596 171.885 148.345 171.97 148.109C172.054 147.874 172.187 147.658 172.358 147.475C172.529 147.292 172.736 147.146 172.966 147.046C173.196 146.946 173.444 146.895 173.694 146.894C173.952 146.872 174.212 146.902 174.458 146.984C174.704 147.066 174.931 147.197 175.124 147.37C175.317 147.543 175.472 147.753 175.581 147.988C175.689 148.224 175.748 148.479 175.754 148.738C175.772 148.985 175.739 149.233 175.656 149.466C175.574 149.699 175.444 149.913 175.275 150.093C175.105 150.274 174.901 150.418 174.673 150.515C174.446 150.613 174.201 150.663 173.954 150.661Z" fill="#D4A1BF"/>
<path d="M176.69 147.161C176.172 147.194 175.662 147.022 175.27 146.68C174.879 146.339 174.639 145.857 174.602 145.339C174.587 145.089 174.623 144.839 174.709 144.604C174.794 144.369 174.926 144.154 175.097 143.972C175.269 143.79 175.475 143.645 175.705 143.546C175.934 143.446 176.181 143.395 176.431 143.394C176.689 143.369 176.949 143.398 177.196 143.478C177.442 143.559 177.669 143.69 177.862 143.862C178.056 144.034 178.212 144.245 178.32 144.481C178.428 144.716 178.486 144.971 178.491 145.231C178.51 145.478 178.477 145.726 178.395 145.961C178.313 146.195 178.183 146.409 178.014 146.591C177.845 146.772 177.64 146.916 177.412 147.014C177.184 147.113 176.938 147.162 176.69 147.161Z" fill="#D4A1BF"/>
<path d="M172.679 142.119C172.408 142.129 172.143 142.034 171.942 141.852C171.74 141.671 171.617 141.418 171.598 141.147C171.592 141.015 171.612 140.882 171.657 140.757C171.703 140.633 171.773 140.519 171.864 140.422C171.955 140.325 172.064 140.247 172.186 140.194C172.307 140.14 172.438 140.112 172.571 140.11C172.708 140.097 172.847 140.113 172.979 140.156C173.11 140.199 173.231 140.268 173.335 140.36C173.438 140.452 173.521 140.564 173.579 140.69C173.638 140.815 173.669 140.951 173.673 141.09C173.682 141.222 173.663 141.354 173.619 141.479C173.574 141.603 173.504 141.718 173.414 141.814C173.323 141.911 173.214 141.988 173.092 142.04C172.971 142.093 172.84 142.12 172.708 142.119" fill="#D4A1BF"/>
<path d="M171.72 139.519C171.445 139.539 171.172 139.449 170.963 139.268C170.753 139.087 170.624 138.83 170.604 138.554C170.597 138.42 170.618 138.286 170.665 138.159C170.712 138.033 170.784 137.918 170.877 137.821C170.97 137.724 171.082 137.647 171.206 137.595C171.33 137.542 171.464 137.516 171.598 137.517C171.736 137.504 171.875 137.52 172.006 137.563C172.137 137.606 172.258 137.676 172.362 137.767C172.465 137.859 172.549 137.971 172.607 138.097C172.665 138.222 172.697 138.358 172.7 138.497C172.709 138.628 172.691 138.759 172.647 138.883C172.602 139.007 172.533 139.12 172.443 139.216C172.354 139.312 172.245 139.389 172.124 139.441C172.004 139.493 171.874 139.52 171.742 139.519" fill="#D4A1BF"/>
<path d="M169.769 137.892C169.492 137.909 169.22 137.817 169.011 137.635C168.802 137.453 168.673 137.196 168.653 136.919C168.646 136.786 168.666 136.653 168.712 136.528C168.758 136.403 168.829 136.288 168.921 136.191C169.012 136.095 169.122 136.017 169.245 135.964C169.367 135.911 169.499 135.883 169.632 135.882C169.769 135.871 169.907 135.889 170.037 135.932C170.167 135.976 170.287 136.046 170.389 136.138C170.491 136.229 170.574 136.341 170.632 136.465C170.69 136.59 170.722 136.725 170.727 136.862C170.737 136.993 170.719 137.126 170.676 137.25C170.632 137.375 170.563 137.489 170.473 137.586C170.383 137.683 170.274 137.76 170.153 137.812C170.032 137.865 169.901 137.892 169.769 137.892Z" fill="#D4A1BF"/>
<path d="M167.278 137.424C167.002 137.443 166.729 137.353 166.52 137.172C166.311 136.991 166.182 136.734 166.161 136.459C166.154 136.325 166.173 136.192 166.219 136.066C166.264 135.94 166.335 135.826 166.427 135.728C166.519 135.631 166.629 135.554 166.752 135.501C166.875 135.448 167.007 135.421 167.141 135.421C167.278 135.409 167.417 135.424 167.548 135.467C167.679 135.51 167.799 135.58 167.902 135.672C168.005 135.764 168.088 135.876 168.145 136.002C168.202 136.127 168.233 136.263 168.236 136.401C168.246 136.532 168.228 136.664 168.184 136.789C168.141 136.913 168.072 137.027 167.981 137.123C167.891 137.219 167.782 137.295 167.661 137.347C167.54 137.399 167.409 137.425 167.278 137.424Z" fill="#D4A1BF"/>
<path d="M164.807 138.144C164.534 138.17 164.262 138.087 164.05 137.913C163.838 137.739 163.704 137.488 163.676 137.215C163.669 137.082 163.688 136.949 163.733 136.824C163.778 136.699 163.849 136.584 163.94 136.487C164.031 136.39 164.14 136.313 164.262 136.259C164.384 136.206 164.516 136.178 164.649 136.178C164.786 136.165 164.925 136.18 165.057 136.223C165.188 136.266 165.309 136.336 165.412 136.428C165.516 136.52 165.599 136.632 165.657 136.757C165.715 136.883 165.747 137.019 165.751 137.157C165.754 137.284 165.733 137.411 165.687 137.529C165.642 137.648 165.573 137.756 165.485 137.848C165.398 137.94 165.292 138.013 165.176 138.064C165.06 138.115 164.934 138.142 164.807 138.144Z" fill="#D4A1BF"/>
<path d="M162.797 139.872C162.522 139.89 162.252 139.799 162.044 139.618C161.836 139.437 161.708 139.182 161.688 138.907C161.679 138.774 161.698 138.641 161.743 138.515C161.788 138.39 161.858 138.275 161.949 138.177C162.04 138.08 162.15 138.003 162.273 137.95C162.395 137.897 162.527 137.87 162.66 137.87C162.799 137.856 162.939 137.871 163.072 137.915C163.204 137.958 163.326 138.029 163.429 138.123C163.533 138.217 163.615 138.331 163.671 138.459C163.727 138.586 163.756 138.725 163.755 138.864C163.765 138.995 163.748 139.127 163.704 139.252C163.66 139.376 163.591 139.49 163.501 139.586C163.411 139.682 163.302 139.758 163.181 139.81C163.06 139.862 162.929 139.888 162.797 139.887" fill="#D4A1BF"/>
<path d="M161.984 142.263C161.708 142.279 161.436 142.187 161.228 142.005C161.019 141.823 160.89 141.567 160.868 141.291C160.861 141.158 160.881 141.025 160.927 140.9C160.973 140.775 161.044 140.66 161.136 140.563C161.227 140.466 161.337 140.389 161.46 140.336C161.582 140.283 161.714 140.255 161.847 140.254C161.986 140.241 162.126 140.257 162.258 140.3C162.39 140.344 162.512 140.414 162.616 140.506C162.72 140.599 162.804 140.712 162.862 140.838C162.921 140.965 162.953 141.102 162.956 141.241C162.966 141.372 162.949 141.504 162.905 141.628C162.861 141.753 162.792 141.866 162.702 141.963C162.612 142.059 162.503 142.135 162.382 142.187C162.261 142.239 162.13 142.265 161.998 142.263" fill="#D4A1BF"/>
<path d="M162.394 144.626C162.118 144.643 161.845 144.551 161.636 144.369C161.427 144.187 161.298 143.93 161.278 143.653C161.272 143.393 161.37 143.141 161.549 142.952C161.729 142.763 161.976 142.652 162.236 142.645C162.374 142.632 162.512 142.648 162.644 142.691C162.775 142.734 162.896 142.803 163 142.895C163.103 142.987 163.186 143.099 163.245 143.225C163.303 143.35 163.335 143.486 163.338 143.624C163.344 143.753 163.324 143.881 163.279 144.001C163.234 144.121 163.166 144.231 163.078 144.325C162.99 144.418 162.884 144.493 162.767 144.544C162.649 144.596 162.523 144.624 162.394 144.626Z" fill="#D4A1BF"/>
<path d="M163.907 146.75C163.632 146.768 163.361 146.677 163.153 146.496C162.946 146.315 162.818 146.06 162.797 145.785C162.787 145.652 162.805 145.518 162.85 145.392C162.894 145.266 162.964 145.151 163.056 145.053C163.147 144.956 163.258 144.878 163.381 144.826C163.504 144.773 163.636 144.747 163.77 144.748C163.907 144.735 164.046 144.751 164.177 144.794C164.308 144.837 164.428 144.907 164.531 144.999C164.634 145.091 164.716 145.203 164.774 145.328C164.831 145.454 164.862 145.59 164.864 145.728C164.874 145.859 164.857 145.991 164.813 146.115C164.77 146.24 164.7 146.353 164.61 146.45C164.52 146.546 164.411 146.622 164.29 146.674C164.169 146.726 164.038 146.752 163.907 146.75Z" fill="#D4A1BF"/>
<path d="M166.298 147.859C166.022 147.875 165.75 147.782 165.542 147.601C165.333 147.419 165.204 147.163 165.182 146.887C165.175 146.754 165.195 146.621 165.241 146.496C165.287 146.371 165.358 146.256 165.45 146.159C165.541 146.062 165.652 145.985 165.774 145.932C165.896 145.879 166.028 145.851 166.161 145.85C166.3 145.836 166.441 145.851 166.574 145.894C166.707 145.937 166.83 146.007 166.935 146.1C167.04 146.192 167.124 146.305 167.183 146.432C167.242 146.559 167.274 146.697 167.278 146.837C167.288 146.968 167.27 147.1 167.226 147.224C167.183 147.349 167.114 147.462 167.023 147.559C166.933 147.655 166.824 147.731 166.703 147.783C166.582 147.835 166.451 147.861 166.32 147.859" fill="#D4A1BF"/>
<path d="M168.804 147.715C168.529 147.733 168.257 147.641 168.049 147.459C167.841 147.276 167.714 147.019 167.695 146.743C167.686 146.61 167.705 146.477 167.75 146.351C167.795 146.226 167.865 146.111 167.956 146.013C168.047 145.916 168.158 145.839 168.28 145.786C168.402 145.733 168.534 145.706 168.668 145.706C168.805 145.694 168.943 145.711 169.073 145.754C169.204 145.798 169.324 145.867 169.427 145.959C169.529 146.051 169.612 146.163 169.67 146.288C169.727 146.413 169.759 146.548 169.762 146.685C169.773 146.817 169.757 146.95 169.713 147.075C169.67 147.201 169.601 147.315 169.511 147.412C169.421 147.509 169.311 147.586 169.19 147.638C169.068 147.691 168.937 147.717 168.804 147.715Z" fill="#D4A1BF"/>
<path d="M172.42 144.625C172.143 144.641 171.872 144.549 171.663 144.367C171.455 144.185 171.325 143.929 171.303 143.653C171.297 143.52 171.317 143.387 171.363 143.262C171.409 143.137 171.48 143.022 171.571 142.925C171.663 142.828 171.773 142.751 171.895 142.698C172.018 142.645 172.15 142.617 172.283 142.616C172.42 142.604 172.558 142.621 172.689 142.664C172.819 142.708 172.939 142.777 173.042 142.869C173.144 142.961 173.227 143.073 173.285 143.198C173.343 143.323 173.374 143.458 173.378 143.596C173.389 143.728 173.372 143.86 173.329 143.985C173.285 144.111 173.216 144.225 173.126 144.322C173.036 144.419 172.927 144.496 172.805 144.548C172.683 144.601 172.552 144.627 172.42 144.625Z" fill="#D4A1BF"/>
<path d="M170.958 146.52C170.682 146.536 170.412 146.443 170.204 146.261C169.997 146.079 169.869 145.823 169.849 145.547C169.842 145.415 169.862 145.282 169.908 145.158C169.953 145.033 170.023 144.919 170.114 144.822C170.205 144.725 170.314 144.648 170.436 144.594C170.557 144.541 170.688 144.512 170.821 144.51C170.958 144.499 171.096 144.515 171.227 144.558C171.357 144.602 171.477 144.672 171.58 144.764C171.683 144.855 171.765 144.967 171.823 145.092C171.881 145.217 171.912 145.352 171.916 145.49C171.927 145.622 171.91 145.755 171.867 145.88C171.824 146.005 171.755 146.12 171.664 146.217C171.574 146.314 171.465 146.391 171.343 146.443C171.221 146.495 171.09 146.521 170.958 146.52Z" fill="#D4A1BF"/>
<path d="M26.6074 165.979C40.3921 165.979 57.1872 157.481 57.4176 140.312C57.6697 121.874 43.2585 113.153 30.3813 112.807C17.5041 112.461 -0.27771 120.146 0.00316857 138.799C0.276841 156.963 13.046 165.979 26.6074 165.979Z" fill="#EB5B29"/>
<path d="M51.6992 135.263C51.7856 129.415 46.4489 127.009 42.5958 127.11C41.7532 127.137 40.9188 127.285 40.1183 127.549C41.05 126.034 41.5343 124.287 41.5155 122.508C41.6019 116.66 36.2652 114.255 32.4122 114.355C30.4647 114.363 28.5854 115.073 27.1195 116.355C25.6535 117.637 24.6994 119.405 24.4323 121.334C22.6822 118.504 19.1821 117.287 16.4237 117.366C12.5634 117.474 8.2494 120.203 8.32142 126.008C8.32924 127.275 8.65678 128.52 9.27368 129.626C9.89058 130.733 10.7769 131.666 11.8504 132.339C11.5623 132.339 11.2742 132.339 11.0006 132.339C9.89109 132.342 8.79389 132.571 7.7764 133.013C6.7589 133.456 5.84259 134.102 5.08377 134.911C4.32495 135.72 3.73965 136.676 3.36382 137.72C2.98799 138.764 2.82958 139.874 2.89831 140.981C2.97033 146.368 8.00453 149.033 12.1313 149.033C13.0988 149.033 14.0589 148.865 14.9689 148.536C14.0168 150.027 13.5419 151.773 13.6077 153.542C13.6725 158.929 18.7067 161.593 22.8407 161.593C24.7679 161.63 26.6389 160.943 28.0852 159.669C29.5315 158.394 30.4482 156.625 30.6549 154.708C32.3545 157.546 35.8259 158.957 38.8292 158.957C42.8911 158.957 46.7514 156.134 46.8018 150.437C46.8556 149.098 46.5451 147.769 45.9034 146.592C45.2617 145.415 44.3127 144.434 43.1576 143.754C43.3448 143.754 43.5393 143.754 43.7265 143.754C47.7885 143.754 51.6487 140.931 51.6992 135.234" fill="#F29295"/>
<path d="M28.0476 148.947C23.2006 148.947 17.295 145.814 17.2446 139.498C17.1509 132.713 22.2212 129.508 26.7512 129.415C31.2813 129.321 37.5543 132.116 37.4318 138.979C37.3382 145.663 32.8513 148.983 28.0692 148.983" fill="#EA5B0C"/>
<path d="M35.0413 139.995C34.6347 140.018 34.2353 139.88 33.9303 139.61C33.6254 139.34 33.4396 138.961 33.4136 138.554C33.4029 138.359 33.4321 138.163 33.4997 137.979C33.5672 137.795 33.6716 137.626 33.8065 137.484C33.9413 137.342 34.1038 137.229 34.2839 137.151C34.464 137.074 34.658 137.034 34.854 137.035C35.0561 137.016 35.2599 137.039 35.4527 137.102C35.6455 137.166 35.8231 137.268 35.9745 137.403C36.1259 137.539 36.2478 137.703 36.3326 137.888C36.4174 138.072 36.4632 138.272 36.4673 138.475C36.4761 138.67 36.4453 138.864 36.3768 139.046C36.3084 139.229 36.2037 139.395 36.069 139.536C35.9344 139.676 35.7726 139.788 35.5935 139.865C35.4144 139.941 35.2216 139.98 35.0269 139.98" fill="#508B36"/>
<path d="M33.6291 136.185C33.4276 136.197 33.2256 136.17 33.0346 136.105C32.8436 136.039 32.6674 135.936 32.5162 135.803C32.365 135.669 32.2417 135.506 32.1534 135.325C32.065 135.143 32.0134 134.946 32.0015 134.744C31.9907 134.549 32.02 134.353 32.0875 134.169C32.1551 133.985 32.2595 133.816 32.3943 133.674C32.5291 133.532 32.6916 133.419 32.8717 133.341C33.0519 133.264 33.2459 133.224 33.4419 133.225C33.6434 133.207 33.8464 133.231 34.0383 133.295C34.2303 133.359 34.407 133.461 34.5576 133.596C34.7082 133.731 34.8294 133.896 34.9138 134.08C34.9981 134.264 35.0438 134.463 35.0479 134.665C35.064 134.858 35.0395 135.053 34.976 135.236C34.9125 135.419 34.8113 135.587 34.6791 135.729C34.5468 135.87 34.3864 135.983 34.208 136.059C34.0297 136.135 33.8374 136.173 33.6435 136.17" fill="#508B36"/>
<path d="M30.7631 133.787C30.5616 133.799 30.3595 133.772 30.1685 133.706C29.9776 133.641 29.8014 133.538 29.6502 133.404C29.499 133.27 29.3757 133.108 29.2873 132.927C29.199 132.745 29.1474 132.548 29.1355 132.346C29.1237 132.15 29.1522 131.953 29.2193 131.768C29.2864 131.583 29.3906 131.414 29.5255 131.271C29.6605 131.128 29.8233 131.014 30.0039 130.937C30.1846 130.859 30.3792 130.819 30.5759 130.819C30.7777 130.802 30.9811 130.825 31.1734 130.889C31.3657 130.953 31.5429 131.056 31.6941 131.191C31.8452 131.325 31.9672 131.49 32.0523 131.674C32.1374 131.858 32.184 132.057 32.1891 132.26C32.2044 132.456 32.1782 132.653 32.1121 132.838C32.046 133.023 31.9416 133.192 31.8056 133.335C31.6697 133.477 31.5052 133.588 31.3231 133.663C31.141 133.737 30.9452 133.772 30.7487 133.765" fill="#508B36"/>
<path d="M27.1264 133.059C26.9249 133.072 26.7228 133.045 26.5318 132.979C26.3408 132.913 26.1647 132.811 26.0135 132.677C25.8622 132.543 25.7389 132.381 25.6506 132.199C25.5623 132.018 25.5107 131.82 25.4987 131.619C25.4869 131.423 25.5155 131.226 25.5825 131.041C25.6496 130.856 25.7539 130.687 25.8888 130.544C26.0238 130.401 26.1866 130.287 26.3672 130.209C26.5478 130.132 26.7425 130.092 26.9391 130.092C27.141 130.074 27.3444 130.098 27.5367 130.162C27.729 130.226 27.9062 130.328 28.0574 130.463C28.2085 130.598 28.3304 130.763 28.4156 130.947C28.5007 131.13 28.5473 131.33 28.5524 131.532C28.5677 131.728 28.5415 131.926 28.4754 132.111C28.4093 132.296 28.3049 132.465 28.1689 132.607C28.0329 132.749 27.8685 132.861 27.6864 132.935C27.5043 133.009 27.3085 133.044 27.112 133.038" fill="#508B36"/>
<path d="M23.4892 134.211C23.2877 134.224 23.0857 134.197 22.8947 134.131C22.7037 134.066 22.5275 133.963 22.3763 133.829C22.2251 133.695 22.1018 133.533 22.0134 133.351C21.9251 133.17 21.8735 132.973 21.8616 132.771C21.8508 132.575 21.8801 132.379 21.9476 132.195C22.0152 132.011 22.1196 131.843 22.2544 131.701C22.3892 131.559 22.5517 131.445 22.7318 131.368C22.912 131.291 23.106 131.251 23.302 131.251C23.5051 131.227 23.7112 131.246 23.9064 131.307C24.1016 131.368 24.2816 131.471 24.4342 131.607C24.5868 131.743 24.7087 131.91 24.7916 132.097C24.8746 132.285 24.9167 132.487 24.9152 132.692C24.9295 132.887 24.9025 133.083 24.8359 133.268C24.7693 133.452 24.6647 133.62 24.5289 133.762C24.393 133.903 24.229 134.014 24.0474 134.088C23.8658 134.162 23.6707 134.196 23.4748 134.19" fill="#508B36"/>
<path d="M20.5366 136.703C20.335 136.716 20.133 136.689 19.942 136.623C19.751 136.558 19.5748 136.455 19.4236 136.321C19.2724 136.187 19.1491 136.025 19.0608 135.843C18.9724 135.662 18.9208 135.464 18.9089 135.263C18.8971 135.067 18.9256 134.87 18.9927 134.685C19.0598 134.5 19.164 134.331 19.299 134.188C19.4339 134.045 19.5967 133.931 19.7774 133.853C19.958 133.776 20.1527 133.736 20.3493 133.736C20.5512 133.718 20.7545 133.742 20.9468 133.806C21.1392 133.87 21.3164 133.972 21.4675 134.107C21.6187 134.242 21.7406 134.407 21.8257 134.591C21.9109 134.774 21.9574 134.974 21.9626 135.176C21.9779 135.373 21.9516 135.57 21.8855 135.755C21.8195 135.94 21.715 136.109 21.5791 136.251C21.4431 136.393 21.2787 136.505 21.0966 136.579C20.9144 136.653 20.7187 136.688 20.5221 136.682" fill="#508B36"/>
<path d="M19.3401 140.204C19.1383 140.217 18.9359 140.191 18.7445 140.125C18.5531 140.06 18.3766 139.958 18.2251 139.824C18.0737 139.69 17.9504 139.527 17.8624 139.345C17.7744 139.163 17.7234 138.965 17.7124 138.763C17.7006 138.567 17.7291 138.37 17.7962 138.185C17.8633 138 17.9675 137.831 18.1025 137.688C18.2374 137.545 18.4002 137.431 18.5809 137.354C18.7615 137.276 18.9562 137.236 19.1528 137.236C19.3543 137.219 19.5573 137.242 19.7493 137.306C19.9412 137.37 20.1179 137.473 20.2685 137.608C20.4191 137.743 20.5404 137.908 20.6247 138.091C20.7091 138.275 20.7547 138.474 20.7589 138.677C20.775 138.87 20.7505 139.064 20.6869 139.248C20.6234 139.431 20.5223 139.599 20.39 139.74C20.2577 139.882 20.0973 139.995 19.919 140.071C19.7406 140.147 19.5483 140.185 19.3545 140.182" fill="#508B36"/>
<path d="M19.9379 143.711C19.7364 143.724 19.5343 143.696 19.3434 143.631C19.1524 143.565 18.9762 143.462 18.825 143.329C18.6738 143.195 18.5505 143.032 18.4621 142.851C18.3738 142.669 18.3222 142.472 18.3103 142.27C18.2985 142.074 18.327 141.878 18.3941 141.693C18.4612 141.508 18.5654 141.339 18.7003 141.196C18.8353 141.053 18.9981 140.939 19.1787 140.861C19.3594 140.783 19.554 140.743 19.7507 140.744C19.9525 140.726 20.1559 140.75 20.3482 140.813C20.5405 140.877 20.7177 140.98 20.8689 141.115C21.02 141.25 21.142 141.414 21.2271 141.598C21.3122 141.782 21.3588 141.981 21.3639 142.184C21.3792 142.38 21.353 142.577 21.2869 142.762C21.2208 142.948 21.1164 143.117 20.9804 143.259C20.8445 143.401 20.6801 143.513 20.4979 143.587C20.3158 143.661 20.1201 143.696 19.9235 143.689" fill="#508B36"/>
<path d="M22.1642 146.786C21.7576 146.81 21.3582 146.672 21.0533 146.402C20.7483 146.132 20.5625 145.752 20.5366 145.346C20.5258 145.15 20.5551 144.954 20.6226 144.77C20.6901 144.586 20.7945 144.418 20.9294 144.276C21.0642 144.133 21.2267 144.02 21.4068 143.943C21.5869 143.866 21.781 143.826 21.977 143.826C22.1796 143.803 22.3848 143.823 22.5792 143.884C22.7735 143.946 22.9525 144.049 23.1044 144.185C23.2562 144.321 23.3774 144.488 23.4599 144.674C23.5424 144.861 23.5844 145.063 23.583 145.267C23.5995 145.463 23.5741 145.66 23.5084 145.846C23.4428 146.032 23.3384 146.202 23.2022 146.344C23.066 146.486 22.9011 146.598 22.7184 146.672C22.5357 146.746 22.3395 146.78 22.1426 146.772" fill="#508B36"/>
<path d="M25.6707 148.414C25.4689 148.427 25.2665 148.401 25.0751 148.336C24.8837 148.27 24.7071 148.168 24.5557 148.034C24.4043 147.9 24.281 147.737 24.193 147.555C24.105 147.373 24.054 147.175 24.043 146.973C24.0322 146.778 24.0615 146.582 24.129 146.398C24.1966 146.214 24.301 146.045 24.4358 145.903C24.5707 145.761 24.7331 145.648 24.9133 145.57C25.0934 145.493 25.2874 145.453 25.4834 145.454C25.686 145.43 25.8913 145.45 26.0856 145.512C26.28 145.574 26.459 145.676 26.6108 145.812C26.7626 145.948 26.8838 146.115 26.9663 146.302C27.0488 146.488 27.0908 146.69 27.0895 146.894C27.1049 147.09 27.0786 147.287 27.0125 147.472C26.9463 147.656 26.8418 147.825 26.7057 147.967C26.5696 148.108 26.4051 148.219 26.223 148.293C26.0408 148.366 25.8452 148.4 25.6491 148.392" fill="#508B36"/>
<path d="M29.3518 148.227C29.1503 148.239 28.9482 148.212 28.7572 148.147C28.5662 148.081 28.3901 147.978 28.2389 147.844C28.0876 147.711 27.9643 147.548 27.876 147.367C27.7877 147.185 27.7361 146.988 27.7241 146.786C27.7134 146.591 27.7426 146.395 27.8102 146.211C27.8777 146.027 27.9821 145.858 28.117 145.716C28.2518 145.574 28.4143 145.461 28.5944 145.383C28.7745 145.306 28.9685 145.266 29.1645 145.267C29.3671 145.243 29.5724 145.263 29.7667 145.325C29.9611 145.387 30.1401 145.489 30.2919 145.625C30.4438 145.761 30.5649 145.928 30.6475 146.115C30.73 146.301 30.7719 146.503 30.7706 146.707C30.7867 146.9 30.7622 147.095 30.6986 147.278C30.6351 147.461 30.534 147.629 30.4017 147.771C30.2695 147.912 30.109 148.025 29.9307 148.101C29.7523 148.177 29.5601 148.215 29.3662 148.212" fill="#508B36"/>
<path d="M32.5207 146.448C32.3186 146.461 32.1157 146.435 31.9239 146.37C31.7321 146.305 31.5551 146.202 31.4031 146.068C31.2511 145.934 31.1271 145.772 31.0383 145.589C30.9496 145.407 30.8977 145.21 30.8858 145.007C30.875 144.812 30.9043 144.616 30.9719 144.432C31.0394 144.248 31.1438 144.079 31.2786 143.937C31.4135 143.795 31.5759 143.682 31.7561 143.604C31.9362 143.527 32.1302 143.487 32.3262 143.488C32.5288 143.464 32.7341 143.484 32.9284 143.546C33.1228 143.608 33.3018 143.71 33.4536 143.846C33.6055 143.982 33.7266 144.149 33.8091 144.336C33.8917 144.522 33.9336 144.724 33.9323 144.928C33.9476 145.124 33.9213 145.321 33.8553 145.506C33.7892 145.692 33.6848 145.861 33.5488 146.003C33.4128 146.145 33.2484 146.257 33.0663 146.331C32.8841 146.405 32.6884 146.44 32.4919 146.433" fill="#508B36"/>
<path d="M34.6522 143.711C34.4506 143.724 34.2486 143.696 34.0576 143.631C33.8666 143.565 33.6904 143.462 33.5392 143.329C33.388 143.195 33.2647 143.032 33.1764 142.851C33.088 142.669 33.0364 142.472 33.0245 142.27C33.0137 142.075 33.043 141.879 33.1105 141.695C33.1781 141.511 33.2825 141.343 33.4173 141.2C33.5522 141.058 33.7146 140.945 33.8947 140.868C34.0749 140.79 34.2689 140.751 34.4649 140.751C34.6675 140.727 34.8727 140.747 35.0671 140.809C35.2615 140.871 35.4405 140.973 35.5923 141.109C35.7441 141.246 35.8653 141.412 35.9478 141.599C36.0303 141.785 36.0723 141.987 36.071 142.191C36.0863 142.387 36.06 142.584 35.9939 142.77C35.9279 142.955 35.8234 143.124 35.6875 143.266C35.5515 143.408 35.3871 143.52 35.2049 143.594C35.0228 143.668 34.8271 143.703 34.6305 143.696" fill="#508B36"/>
<path d="M32.3902 139.951C32.1391 139.967 31.892 139.883 31.703 139.717C31.514 139.551 31.3986 139.316 31.3819 139.065C31.3751 138.945 31.3929 138.824 31.4342 138.71C31.4756 138.596 31.5396 138.492 31.6225 138.404C31.7053 138.315 31.8053 138.245 31.9162 138.197C32.0271 138.148 32.1467 138.123 32.2678 138.122C32.3926 138.111 32.5183 138.126 32.6371 138.166C32.7559 138.205 32.8653 138.269 32.9585 138.353C33.0517 138.437 33.1267 138.539 33.1788 138.652C33.231 138.766 33.2592 138.89 33.2616 139.015C33.2717 139.135 33.2565 139.256 33.2172 139.37C33.1778 139.483 33.1151 139.588 33.033 139.676C32.951 139.764 32.8514 139.834 32.7407 139.881C32.63 139.929 32.5106 139.953 32.3902 139.951Z" fill="#508B36"/>
<path d="M31.5115 137.589C31.2604 137.605 31.0133 137.521 30.8243 137.355C30.6354 137.189 30.5199 136.954 30.5032 136.703C30.4964 136.582 30.5142 136.462 30.5555 136.348C30.5969 136.234 30.661 136.13 30.7438 136.042C30.8267 135.953 30.9266 135.883 31.0375 135.834C31.1484 135.786 31.268 135.761 31.3891 135.76C31.5145 135.748 31.6409 135.762 31.7606 135.801C31.8803 135.841 31.9906 135.904 32.0845 135.988C32.1785 136.072 32.2542 136.174 32.3068 136.289C32.3594 136.403 32.3878 136.527 32.3902 136.653C32.3991 136.773 32.383 136.894 32.3428 137.008C32.3026 137.122 32.2392 137.226 32.1566 137.314C32.074 137.402 31.974 137.472 31.8629 137.519C31.7519 137.567 31.6322 137.591 31.5115 137.589Z" fill="#508B36"/>
<path d="M29.7189 136.098C29.4678 136.116 29.2198 136.034 29.0295 135.869C28.8391 135.704 28.7218 135.471 28.7034 135.22C28.6966 135.099 28.7144 134.978 28.7557 134.864C28.7971 134.75 28.8611 134.646 28.944 134.558C29.0268 134.47 29.1267 134.399 29.2377 134.351C29.3486 134.302 29.4682 134.277 29.5893 134.276C29.7146 134.264 29.8411 134.279 29.9608 134.318C30.0805 134.357 30.1907 134.42 30.2847 134.504C30.3787 134.588 30.4544 134.691 30.5069 134.805C30.5595 134.919 30.5879 135.043 30.5903 135.169C30.5993 135.289 30.5834 135.409 30.5435 135.522C30.5037 135.635 30.4408 135.738 30.3589 135.826C30.2769 135.913 30.1777 135.982 30.0676 136.029C29.9574 136.076 29.8387 136.1 29.7189 136.098Z" fill="#508B36"/>
<path d="M27.4793 135.652C27.2282 135.668 26.9811 135.583 26.7921 135.417C26.6031 135.251 26.4877 135.017 26.471 134.766C26.4642 134.645 26.482 134.524 26.5233 134.411C26.5647 134.297 26.6287 134.193 26.7116 134.104C26.7944 134.016 26.8944 133.946 27.0053 133.897C27.1162 133.849 27.2358 133.823 27.3569 133.823C27.482 133.812 27.6081 133.827 27.7273 133.866C27.8465 133.906 27.9563 133.969 28.0501 134.053C28.1438 134.137 28.2195 134.239 28.2724 134.353C28.3254 134.467 28.3545 134.59 28.3579 134.716C28.3669 134.836 28.3508 134.957 28.3106 135.071C28.2704 135.185 28.207 135.289 28.1244 135.377C28.0417 135.465 27.9417 135.535 27.8307 135.582C27.7197 135.63 27.6 135.653 27.4793 135.652Z" fill="#508B36"/>
<path d="M25.2247 136.365C24.9741 136.381 24.7272 136.298 24.5373 136.133C24.3473 135.969 24.2295 135.736 24.2093 135.486C24.2024 135.365 24.2204 135.243 24.2622 135.129C24.304 135.015 24.3687 134.91 24.4523 134.822C24.5359 134.733 24.6367 134.663 24.7485 134.615C24.8603 134.567 24.9807 134.542 25.1023 134.543C25.2271 134.532 25.3528 134.547 25.4716 134.586C25.5905 134.626 25.6999 134.69 25.793 134.774C25.8862 134.857 25.9612 134.959 26.0134 135.073C26.0655 135.187 26.0937 135.31 26.0962 135.436C26.1052 135.555 26.0892 135.675 26.0494 135.788C26.0096 135.901 25.9467 136.004 25.8647 136.092C25.7828 136.179 25.6836 136.249 25.5734 136.296C25.4632 136.343 25.3445 136.366 25.2247 136.365Z" fill="#508B36"/>
<path d="M23.3957 137.906C23.145 137.922 22.8981 137.839 22.7082 137.674C22.5183 137.51 22.4005 137.278 22.3802 137.027C22.3734 136.906 22.3912 136.785 22.4324 136.671C22.4737 136.557 22.5376 136.452 22.6204 136.363C22.7031 136.274 22.803 136.203 22.914 136.154C23.0249 136.105 23.1447 136.078 23.266 136.077C23.3912 136.066 23.5173 136.081 23.6365 136.12C23.7557 136.16 23.8655 136.224 23.9593 136.307C24.053 136.391 24.1287 136.493 24.1816 136.607C24.2346 136.721 24.2637 136.844 24.2671 136.97C24.2761 137.09 24.2601 137.21 24.2204 137.323C24.1806 137.437 24.1178 137.54 24.036 137.628C23.9541 137.716 23.855 137.786 23.7448 137.834C23.6347 137.882 23.5158 137.906 23.3957 137.906Z" fill="#508B36"/>
<path d="M22.6458 140.081C22.5219 140.09 22.3974 140.074 22.2795 140.035C22.1617 139.995 22.0528 139.933 21.9591 139.851C21.8654 139.77 21.7888 139.67 21.7336 139.559C21.6784 139.448 21.6458 139.326 21.6375 139.202C21.6296 139.081 21.6467 138.96 21.6877 138.846C21.7286 138.732 21.7926 138.627 21.8757 138.538C21.9588 138.45 22.0591 138.38 22.1705 138.332C22.2819 138.283 22.402 138.259 22.5234 138.259C22.6488 138.247 22.7752 138.261 22.8949 138.3C23.0146 138.34 23.1249 138.403 23.2189 138.487C23.3128 138.571 23.3885 138.673 23.4411 138.788C23.4937 138.902 23.522 139.026 23.5245 139.152C23.5324 139.272 23.5155 139.392 23.4748 139.505C23.4342 139.618 23.3706 139.721 23.2881 139.809C23.2056 139.896 23.1059 139.965 22.9954 140.012C22.8849 140.059 22.7659 140.082 22.6458 140.081Z" fill="#508B36"/>
<path d="M23.0206 142.256C22.77 142.272 22.5231 142.189 22.3332 142.025C22.1432 141.86 22.0254 141.628 22.0052 141.377C21.9983 141.256 22.0163 141.134 22.0581 141.02C22.0999 140.906 22.1646 140.801 22.2482 140.713C22.3318 140.625 22.4326 140.554 22.5444 140.506C22.6562 140.458 22.7766 140.434 22.8982 140.434C23.023 140.423 23.1487 140.438 23.2675 140.478C23.3864 140.517 23.4958 140.581 23.5889 140.665C23.6821 140.749 23.7571 140.851 23.8093 140.964C23.8614 141.078 23.8896 141.202 23.8921 141.327C23.9011 141.446 23.8851 141.566 23.8453 141.679C23.8055 141.792 23.7426 141.896 23.6606 141.983C23.5787 142.071 23.4795 142.14 23.3693 142.187C23.2591 142.234 23.1404 142.257 23.0206 142.256Z" fill="#508B36"/>
<path d="M24.4035 144.172C24.1517 144.188 23.9038 144.104 23.7136 143.938C23.5235 143.772 23.4065 143.538 23.388 143.286C23.3812 143.165 23.399 143.044 23.4403 142.931C23.4817 142.817 23.5457 142.713 23.6286 142.624C23.7114 142.536 23.8114 142.466 23.9223 142.417C24.0332 142.369 24.1528 142.343 24.2738 142.343C24.3992 142.331 24.5257 142.345 24.6454 142.384C24.7651 142.423 24.8753 142.487 24.9693 142.571C25.0633 142.654 25.139 142.757 25.1915 142.871C25.2441 142.986 25.2725 143.11 25.2749 143.236C25.2839 143.355 25.2679 143.476 25.2282 143.589C25.1884 143.702 25.1256 143.806 25.0438 143.894C24.962 143.982 24.8628 144.052 24.7526 144.1C24.6425 144.148 24.5236 144.172 24.4035 144.172Z" fill="#508B36"/>
<path d="M26.5787 145.18C26.3273 145.194 26.0804 145.109 25.8907 144.944C25.701 144.778 25.5835 144.545 25.5632 144.294C25.5563 144.173 25.5741 144.052 25.6155 143.939C25.6569 143.825 25.7209 143.721 25.8038 143.633C25.8866 143.544 25.9865 143.474 26.0975 143.425C26.2084 143.377 26.328 143.352 26.449 143.351C26.5742 143.34 26.7003 143.355 26.8195 143.394C26.9387 143.434 27.0485 143.498 27.1423 143.581C27.236 143.665 27.3117 143.767 27.3646 143.881C27.4176 143.995 27.4467 144.118 27.4501 144.244C27.4602 144.364 27.445 144.485 27.4056 144.598C27.3663 144.712 27.3036 144.817 27.2215 144.905C27.1395 144.993 27.0399 145.063 26.9292 145.11C26.8185 145.158 26.6991 145.182 26.5787 145.18Z" fill="#508B36"/>
<path d="M28.8615 145.043C28.6104 145.061 28.3624 144.979 28.1721 144.814C27.9817 144.649 27.8644 144.416 27.846 144.165C27.8391 144.043 27.8571 143.922 27.8989 143.807C27.9407 143.693 28.0054 143.589 28.089 143.5C28.1727 143.412 28.2734 143.342 28.3852 143.294C28.497 143.246 28.6174 143.221 28.739 143.221C28.8638 143.21 28.9895 143.225 29.1084 143.265C29.2272 143.305 29.3366 143.368 29.4298 143.452C29.5229 143.536 29.5979 143.638 29.6501 143.752C29.7022 143.866 29.7304 143.989 29.7329 144.114C29.7419 144.234 29.726 144.354 29.6861 144.467C29.6463 144.58 29.5834 144.683 29.5015 144.77C29.4195 144.858 29.3203 144.927 29.2101 144.974C29.1 145.021 28.9812 145.045 28.8615 145.043Z" fill="#508B36"/>
<path d="M30.8206 143.956C30.5707 143.972 30.3246 143.888 30.1358 143.724C29.9471 143.559 29.8308 143.327 29.8123 143.077C29.8044 142.956 29.8215 142.835 29.8625 142.72C29.9035 142.606 29.9675 142.502 30.0505 142.413C30.1336 142.325 30.2339 142.254 30.3453 142.206C30.4567 142.158 30.5768 142.133 30.6982 142.134C30.8236 142.122 30.95 142.136 31.0697 142.175C31.1894 142.214 31.2997 142.278 31.3937 142.362C31.4876 142.446 31.5633 142.548 31.6159 142.662C31.6685 142.777 31.6969 142.901 31.6993 143.027C31.7072 143.147 31.6903 143.267 31.6496 143.38C31.609 143.493 31.5454 143.596 31.4629 143.683C31.3804 143.77 31.2807 143.84 31.1702 143.887C31.0597 143.934 30.9407 143.957 30.8206 143.956Z" fill="#508B36"/>
<path d="M32.1525 142.256C31.9014 142.274 31.6535 142.191 31.4631 142.027C31.2727 141.862 31.1554 141.629 31.137 141.378C31.1302 141.257 31.148 141.136 31.1893 141.022C31.2307 140.908 31.2947 140.804 31.3776 140.716C31.4604 140.628 31.5604 140.557 31.6713 140.509C31.7822 140.46 31.9018 140.435 32.0228 140.434C32.1482 140.422 32.2747 140.436 32.3944 140.475C32.5141 140.515 32.6243 140.578 32.7183 140.662C32.8123 140.746 32.888 140.848 32.9406 140.963C32.9931 141.077 33.0215 141.201 33.0239 141.327C33.0329 141.447 33.017 141.567 32.9771 141.679C32.9373 141.792 32.8744 141.896 32.7925 141.983C32.7105 142.071 32.6113 142.14 32.5012 142.187C32.391 142.234 32.2723 142.257 32.1525 142.256Z" fill="#508B36"/>
</g>
<defs>
<clipPath id="clip0_538_9124">
<path d="M0 10C0 4.47716 4.47715 0 10 0H190C195.523 0 200 4.47715 200 10V290C200 295.523 195.523 300 190 300H10C4.47716 300 0 295.523 0 290V10Z" fill="white"/>
</clipPath>
</defs>
</svg>
