<svg xmlns="http://www.w3.org/2000/svg" xmlns:xlink="http://www.w3.org/1999/xlink" width="200" height="300" viewBox="0 0 200 300">
  <defs>
    <clipPath id="13c-clip-path">
      <rect id="13c-Rectangle_2" data-name="13c-Rectangle 2" width="286.333" height="286.333" fill="none"/>
    </clipPath>
    <clipPath id="13c-clip-Kort_-_artikel_13c">
      <rect width="200" height="300"/>
    </clipPath>
  </defs>
  <g id="13c-Kort_-_artikel_13c" data-name="13c-Kort - artikel 13c" clip-path="url(#13c-clip-Kort_-_artikel_13c)">
    <rect width="200" height="300" fill="#f1d3c8"/>
    <g id="13c-Group_10" data-name="13c-Group 10" transform="translate(-273.037 -376.529)">
      <g id="13c-Group_8" data-name="13c-Group 8" transform="translate(229.87 376.529)" clip-path="url(#13c-clip-path)">
        <rect id="13c-Rectangle_1" data-name="13c-Rectangle 1" width="386.069" height="308.189" transform="translate(-27.098 -30.292)" fill="#cd87c1"/>
        <path id="13c-Path_1" data-name="13c-Path 1" d="M597.568,502.76s-31.512-22.227-77.7-21.228c-45.469.983-49.389,2.606-94.751,15.407-42.718,12.054-76.921,27.7-127.544,9.732s-76.6-42.188-76.6-42.188l.313-121.393,394.919,2.27Z" transform="translate(-227.809 -368.783)" fill="#293122"/>
        <g id="13c-Group_7" data-name="13c-Group 7" transform="translate(60.565 58.253)">
          <path id="13c-Path_2" data-name="13c-Path 2" d="M384.068,627.8l3.085-57.922-41.7-5.375.8-7.962,39.711-.1,1.592-11.147-34.933-32.545,6.768-6.768,31.051,25.877-2.388-39.811,8.36-1.99,5.176,31.45,54.539-18.711,2.389,6.768-52.152,25.877-1.592,13.834,41.8-8.261,1.592,9.157L427.316,556.6l18.44,29.2-7.683,4.61-22.026-28.172-12.173,3.463,6.867,64.79Z" transform="translate(-317.211 -461.082)" fill="#5d300e"/>
          <g id="13c-Group_1" data-name="13c-Group 1" transform="translate(96.887 5.464)">
            <path id="13c-Path_3" data-name="13c-Path 3" d="M459,460.007c15.111-2.7,36.362,4.316,37.507,26.3S481.375,518.6,470.1,519.264c-15.888.936-31.473-7.006-34.816-25.111A29.313,29.313,0,0,1,459,460.007Z" transform="translate(-434.797 -459.458)" fill="#0390bf"/>
            <path id="13c-Path_4" data-name="13c-Path 4" d="M462.7,468.647c11.719-2.516,28.081,3.335,28.962,20.315s-11.686,24.933-20.393,25.447c-12.268.721-24.3-5.414-26.886-19.394C442.141,482.87,450.242,471.327,462.7,468.647Z" transform="translate(-436.932 -461.458)" fill="#64be84"/>
            <path id="13c-Path_5" data-name="13c-Path 5" d="M464.578,483.162c6.893-1.775,16.226,2.029,16.747,12.27s-6.737,15.026-11.769,15.33c-7.086.426-14.041-3.28-15.546-11.711A13.943,13.943,0,0,1,464.578,483.162Z" transform="translate(-439.198 -464.852)" fill="none"/>
          </g>
          <g id="13c-Group_2" data-name="13c-Group 2" transform="translate(114.865 64.495)">
            <path id="13c-Path_6" data-name="13c-Path 6" d="M469.552,538.548c9.277-4.29,24.152-3.359,28.6,10.612s-4.3,23.354-11.449,25.686c-10.077,3.285-21.456.8-26.667-10.3A19.522,19.522,0,0,1,469.552,538.548Z" transform="translate(-458.194 -536.288)" fill="#937b32"/>
            <path id="13c-Path_7" data-name="13c-Path 7" d="M468.289,543.748c6.576-3.324,17.217-2.393,20.388,7.565s-3.063,16.648-8.16,18.311c-7.183,2.34-15.3.568-19.01-7.341A14.1,14.1,0,0,1,468.289,543.748Z" transform="translate(-458.662 -537.616)" fill="#3ead7a"/>
            <path id="13c-Path_8" data-name="13c-Path 8" d="M466.965,552.188c4.151-2.313,10.818-1.437,12.887,5.086s-1.806,10.84-5,11.888c-4.5,1.474-9.62.259-12.018-4.93A9.305,9.305,0,0,1,466.965,552.188Z" transform="translate(-459.074 -539.703)" fill="#fa1b31" stroke="#937b32" stroke-miterlimit="10" stroke-width="0.7"/>
          </g>
          <g id="13c-Group_3" data-name="13c-Group 3" transform="translate(8.774 88.344)">
            <path id="13c-Path_9" data-name="13c-Path 9" d="M341.334,567.63c14.014-1.859,31.7,4.724,32.185,23.439s-14.463,26.851-24.06,27.168c-13.523.444-26.594-6.649-29.036-22.11C318.3,582.695,327.424,569.475,341.334,567.63Z" transform="translate(-320.116 -567.328)" fill="#fe4110"/>
            <path id="13c-Path_10" data-name="13c-Path 10" d="M344.333,575c10.014-1.882,24.429,3.471,24.806,17.921s-11.124,20.913-18.533,21.159c-10.443.342-20.537-5.138-22.422-17.075C326.545,586.637,333.683,577.005,344.333,575Z" transform="translate(-321.931 -569.022)" fill="#fb0022"/>
            <path id="13c-Path_11" data-name="13c-Path 11" d="M350.769,574.976c6.4-1.473,14.919,2.26,15.157,11.721s-6.575,13.7-11.223,13.862c-6.552.225-12.88-3.361-14.063-11.178A12.864,12.864,0,0,1,350.769,574.976Z" transform="translate(-324.837 -569.027)" fill="none"/>
          </g>
          <g id="13c-Group_4" data-name="13c-Group 4" transform="translate(52.928)">
            <path id="13c-Path_12" data-name="13c-Path 12" d="M395.315,452.726c11.021-1.918,26.481,3.261,27.247,19.288s-11.13,23.48-19.35,23.929c-11.58.63-22.912-5.208-25.291-18.412A21.363,21.363,0,0,1,395.315,452.726Z" transform="translate(-377.583 -452.347)" fill="#4f9621"/>
            <path id="13c-Path_13" data-name="13c-Path 13" d="M396.442,466.081c7.869-1.656,18.828,2.319,19.372,13.715s-7.915,16.692-13.756,17.012c-8.234.449-16.289-3.7-17.982-13.089C382.606,475.563,388.074,467.841,396.442,466.081Z" transform="translate(-379.032 -455.445)" fill="#293122"/>
            <path id="13c-Path_14" data-name="13c-Path 14" d="M396.436,477.145c4.145-1.048,10.379,1.258,10.666,7.411s-3.923,8.9-7.747,9.181c-4.254.307-8.428-2.006-9.307-7.076A8.374,8.374,0,0,1,396.436,477.145Z" transform="translate(-380.442 -458.035)" fill="#ffdb13" stroke="#937b32" stroke-miterlimit="10" stroke-width="0.7"/>
          </g>
          <g id="13c-Group_5" data-name="13c-Group 5" transform="translate(0 15.248)">
            <path id="13c-Path_15" data-name="13c-Path 15" d="M342.891,472.2c18.917-.441,39.63,13.017,35.954,37.833s-24.065,31.371-36.922,30.841c-20.309-.838-33.565-14.922-33.22-35.894C309,486.764,324.092,472.64,342.891,472.2Z" transform="translate(-308.696 -472.192)" fill="#3eaf89"/>
            <path id="13c-Path_16" data-name="13c-Path 16" d="M351.44,482.441c13.4-.168,30.037,9.869,27.25,28.675s-18.329,24.741-27.983,23.379c-13.609-1.925-25.442-11.311-25.18-27.206C325.756,493.479,337.188,482.618,351.44,482.441Z" transform="translate(-312.594 -474.566)" fill="#018837"/>
            <path id="13c-Path_17" data-name="13c-Path 17" d="M362.853,494.711c8.628-.456,19.377,6.645,17.539,18.959s-12.186,15.924-18.243,15.078c-8.538-1.2-15.925-7.275-15.685-17.671C346.671,502.045,353.918,495.182,362.853,494.711Z" transform="translate(-317.444 -477.404)" fill="#5fad20" stroke="#937b32" stroke-miterlimit="10" stroke-width="0.7"/>
          </g>
          <g id="13c-Group_6" data-name="13c-Group 6" transform="translate(101.523 103.316)">
            <path id="13c-Path_18" data-name="13c-Path 18" d="M455.453,587.128c9.089-1.581,21.84,2.689,22.472,15.908s-9.18,19.363-15.958,19.734c-9.552.519-18.895-4.295-20.858-15.183A17.617,17.617,0,0,1,455.453,587.128Z" transform="translate(-440.829 -586.814)" fill="#f21d8c"/>
            <path id="13c-Path_19" data-name="13c-Path 19" d="M463.614,596.2c6.25-1.314,14.956,1.843,15.387,10.894s-6.287,13.26-10.927,13.513c-6.54.356-12.939-2.941-14.283-10.4A12.223,12.223,0,0,1,463.614,596.2Z" transform="translate(-443.788 -588.924)" fill="#fc1a1c"/>
            <path id="13c-Path_20" data-name="13c-Path 20" d="M468.121,604.739a6.283,6.283,0,0,1,7.965,5.889c.227,4.888-3.246,7.156-5.647,7.292-3.382.188-6.694-1.594-7.392-5.621A6.65,6.65,0,0,1,468.121,604.739Z" transform="translate(-445.953 -590.922)" fill="#f394a6" stroke="#937b32" stroke-miterlimit="10" stroke-width="0.7"/>
          </g>
        </g>
        <path id="13c-Path_21" data-name="13c-Path 21" d="M183.224,623.282s29.539,24.335,75.613,27.766c49.678,3.7,49.347-1.707,95.635-10.6,43.588-8.374,79.6-15.112,128.51,7.095s72.212,45.933,72.212,45.933L550.239,747.8,156.947,711.926Z" transform="translate(-212.976 -433.693)" fill="#f1d3c8"/>
        <path id="13c-Path_22" data-name="13c-Path 22" d="M395.3,647.518,390,687.856l35.973-2.787-7.29-41.885Z" transform="translate(-266.966 -438.304)" fill="#ffdb13"/>
      </g>
    </g>
  </g>
</svg>
