<svg xmlns="http://www.w3.org/2000/svg" xmlns:xlink="http://www.w3.org/1999/xlink" width="200" height="300" viewBox="0 0 200 300">
  <defs>
    <clipPath id="8-clip-path">
      <rect id="8-Rectangle_1" data-name="8-Rectangle 1" width="301.477" height="301.784" fill="none"/>
    </clipPath>
    <clipPath id="8-clip-path-2">
      <path id="8-Intersection_1" data-name="8-Intersection 1" d="M82.688,301.532l7.048-6.778s93.518-75.447,55.01-153.249c-13.681-27.638-36.468-44.365-56.9-54.349l9.752,32.5c1.409,4.694-.735,6.254-4.766,3.462L64.055,103.2c-5.5-3.958-9.651-3.343-14.653,0L20.624,123.124c-4.029,2.791-6.174,1.232-4.766-3.462L25.919,86.133c1.556-5.976.941-9.976-4.529-13.934L0,55.9V45.278l30.36-.688c6.963-.285,9.889-2.13,11.855-8.614L53.783,2.94A7,7,0,0,1,55.493,0h2.472a7,7,0,0,1,1.71,2.94l11.57,33.037c1.932,6.175,5.931,8.638,11.852,8.614l34.995.792c4.9.111,5.718,2.633,1.819,5.6L100.732,65.6c36.647,3.167,85.505,15.337,125.746,53.116,77.018,72.3,62.389,176.038,62.389,176.038l-.922,6.778Z" fill="none"/>
    </clipPath>
    <clipPath id="8-clip-Artboard_1">
      <rect width="200" height="300"/>
    </clipPath>
  </defs>
  <g id="8-Artboard_1" data-name="8-Artboard – 1" clip-path="url(#8-clip-Artboard_1)">
    <rect width="200" height="300" fill="#15832f"/>
    <g id="8-blå_stjärna" data-name="8-blå stjärna" transform="translate(-14 -0.479)">
      <g id="8-Group_1" data-name="8-Group 1" transform="translate(0 0)" clip-path="url(#8-clip-path)">
        <path id="8-Path_1" data-name="8-Path 1" d="M227.851,118.8c-40.241-37.779-89.1-49.95-125.748-53.116l19.182-14.613c3.9-2.97,3.081-5.491-1.82-5.6l-34.993-.793c-5.923.022-9.922-2.44-11.854-8.614L61.046,3.022c-1.618-4.626-4.272-4.626-5.892,0L43.587,36.058c-1.968,6.482-4.891,8.329-11.855,8.614l-35,.793c-4.9.111-5.718,2.632-1.82,5.6L22.761,72.279c5.472,3.961,6.087,7.96,4.529,13.936L17.23,119.743C15.822,124.437,17.966,126,22,123.2l28.778-19.927c5-3.343,9.156-3.958,14.654,0L94.207,123.2c4.029,2.792,6.173,1.233,4.764-3.462l-9.752-32.5c20.431,9.983,43.22,26.708,56.9,54.349,38.507,77.8-55.011,153.248-55.011,153.248H290.24S304.868,191.1,227.851,118.8" transform="translate(-1.057 -0.603)" fill="#2c4386"/>
      </g>
    </g>
    <g id="8-mönster" transform="translate(-13.684 -1)">
      <g id="8-Group_2" data-name="8-Group 2" transform="translate(0)" clip-path="url(#8-clip-path-2)">
        <path id="8-Path_2" data-name="8-Path 2" d="M110.984,41.467c-51,25.55-99.869,112.646-77.276,175.135,10.089,27.92,24.848,54.085,44.859,74.912.819.852-4.263,5.1-3.426,5.938,2.772,2.765,11.552,2.021,14.52,4.574,32.672,28.112,77.282,42.916,135.774,32.488C326.822,316.436,358.522,231.592,344.986,152.2c-14.8-86.82-120.25-167.714-234-110.735" transform="translate(5.101 4.08)" fill="#f1d5bb"/>
        <path id="8-Path_3" data-name="8-Path 3" d="M149.75,78.573c-48,13.008-76.684,67.975-61.308,114.124,16.5,49.634,60.061,77.478,113.971,66.391,58.8-12.091,79.116-69.157,65.837-115.079-13.033-45.074-62.741-80.542-118.5-65.437" transform="translate(15.332 13.652)" fill="#e81d8c"/>
        <path id="8-Path_4" data-name="8-Path 4" d="M151.6,109.43c-31.381,12.41-46.552,44.5-35.255,73.293,15.846,40.4,51.5,47.508,81.643,36.185,33.02-12.408,48.514-50.582,35.233-78.8C220.087,112.2,185.809,95.9,151.6,109.43" transform="translate(20.489 19.028)" fill="#fd1215"/>
        <path id="8-Path_5" data-name="8-Path 5" d="M162.617,131.788c-15.228,4.371-24.379,22.725-19.422,37.347,5.321,15.724,21.909,22.372,37.39,18,13.026-3.679,24.608-16.469,21.583-32.1-3.412-17.617-17.233-29.655-39.552-23.25" transform="translate(25.806 23.659)" fill="#017a7c"/>
      </g>
    </g>
  </g>
</svg>
