<svg width="200" height="300" viewBox="0 0 200 300" fill="none" xmlns="http://www.w3.org/2000/svg">
<g clip-path="url(#clip0_1968_33815)">
<rect width="200" height="300" fill="#98A793"/>
<path d="M210.672 12.3307L208.966 87.1486L103.063 91.2424L108.529 11.6484L210.672 12.3307Z" fill="#EA5040"/>
<path d="M210.672 12.3307L154.991 45.13L108.529 11.6484L210.672 12.3307Z" fill="#C3057F"/>
<path d="M221.045 150.31L128.983 157.101L125.311 81.7712L221.045 79.2207V150.31Z" fill="#EA5040"/>
<path d="M221.045 80.4554L174.924 143.877L125.311 81.7712L221.045 79.2207V80.4554Z" fill="#4C374F"/>
<path d="M110.121 95.6763L11.7313 98.0725L9.67629 147.263L106.701 149.992L110.121 95.6763Z" fill="#D183B6"/>
<path d="M110.121 95.6763L11.7313 98.0725L61.6045 116.86L110.121 95.6763Z" fill="#3F2B3E"/>
<path d="M121.135 210.799L0.00155203 213.999V144.071L119.762 142.723L121.135 210.799Z" fill="#008B4C"/>
<path d="M52.4674 186.407L0.00317201 148.669V144.071L119.764 142.723L52.4674 186.407Z" fill="#00A99F"/>
<path d="M114.125 88.0097L0.00163648 91.6405V7.54659L112.76 6.01953L114.125 88.0097Z" fill="#39A188"/>
<path d="M114.125 88.0097L0.00163648 91.6405V76.9223L49.1112 26.1069L114.125 88.0097Z" fill="#A1C5BE"/>
<path d="M45.4554 58.6295L0.00101119 19.2509V7.5461L112.76 6.01904L45.4554 58.6295Z" fill="#3F2B3E"/>
<path d="M58.233 73.2505L118.113 74.7044L117.926 106.562L60.3124 106.31L58.233 73.2505Z" fill="#E6D1CB"/>
<path d="M58.233 73.2505L118.113 74.7044L88.9367 92.6961L58.233 73.2505Z" fill="#BDCBA5"/>
<path d="M113.126 56.8181L168.157 53.8208L171.975 89.9341L114.929 90.7302L113.126 56.8181Z" fill="#00A99F"/>
<path d="M140.881 64.7861L172.08 90.0314L114.929 90.7299L140.881 64.7861Z" fill="#C8D419"/>
<path d="M113.125 56.8181L168.156 53.8208L140.166 70.5535L113.125 56.8181Z" fill="#3F2B3E"/>
<path d="M60.801 1.85197L61.2559 31.256L0.00287793 32.4744V0L60.801 1.85197Z" fill="#A1C5BE"/>
<path d="M60.8008 1.85197L23.5421 25.7488L0.0026757 0.438624V0L60.8008 1.85197Z" fill="#88AE9F"/>
</g>
<defs>
<clipPath id="clip0_1968_33815">
<rect width="200" height="300" fill="white"/>
</clipPath>
</defs>
</svg>
