<svg xmlns="http://www.w3.org/2000/svg" xmlns:xlink="http://www.w3.org/1999/xlink" width="200" height="300" viewBox="0 0 200 300">
  <defs>
    <clipPath id="19a-clip-path">
      <rect id="19a-Rectangle_2" data-name="19a-Rectangle 2" width="236.365" height="236.365" fill="none"/>
    </clipPath>
    <clipPath id="19a-clip-Rityta_1">
      <rect width="200" height="300"/>
    </clipPath>
  </defs>
  <g id="19a-Rityta_1" data-name="19a-Rityta 1" clip-path="url(#19a-clip-Rityta_1)">
    <rect width="200" height="300" fill="#0c171e"/>
    <g id="19a-Group_5" data-name="19a-Group 5" transform="translate(-249.333 -367.837)">
      <g id="19a-Group_6" data-name="19a-Group 6" transform="translate(241.333 359.333)" clip-path="url(#19a-clip-path)">
        <rect id="19a-Rectangle_1" data-name="19a-Rectangle 1" width="265.699" height="244.473" transform="translate(-17.035 -2.295)" fill="#0c171e"/>
        <path id="19a-Path_1" data-name="19a-Path 1" d="M446.933,586.183c-.639-1.661-2.966-1.863-4.258-1.381-.79.3-2.072.826-2.276,2.2-.7.343-1.507.755-2.417,1.249-3.442,1.872-5.709,6.127-5.709,6.127-.084.159-.206.151-.271-.017l-1.118-2.767a1.093,1.093,0,0,1-.037-.617,18.986,18.986,0,0,1,3.059-6.1,12.376,12.376,0,0,1,1.187-1.152c.952,1.214,2.472,1.631,4.846,1.534,3.868-.157,7.012-2.463,6.335-7.073s-3.489-5.633-7.1-5.1a6.233,6.233,0,0,0-5.274,7.329,8.314,8.314,0,0,0,.781,2.672c-.4.338-.83.726-1.26,1.165a16.52,16.52,0,0,0-3.178,5.417c-.057.17-.171.179-.252.018,0,0-.386-.769-.672-1.291-2.028-3.7-6.4-9.793-6.4-9.793a.672.672,0,0,1-.071-.57s.309-.786.779-1.752c3.115,2.044,7.328.792,9.342-1.227,2.48-2.484,4.409-6.44,2.382-10.332s-7.542-4.613-11.074-2.2c-4.4,3.005-5.585,7.243-2.589,11.795a7.1,7.1,0,0,0,1.134,1.33,11.469,11.469,0,0,0-.651,1.526c-.054.171-.193.2-.309.062l-4.31-5.126a3.66,3.66,0,0,0,.523-2.677c-.405-2.4-2.224-2.9-4.232-2.722-1.836.167-2.885,2.307-2.83,3.5a3.445,3.445,0,0,0,3.856,3.335,3.314,3.314,0,0,0,2.1-.783c.84.96,2.045,2.362,3.029,3.6,1.693,2.132,3.466,4.87,3.466,4.87.111.142.057.228-.119.19a10.593,10.593,0,0,0-2.5-.151c-.571.028-1.137.085-1.668.154-.643-3.373-3.479-4.294-6.186-3.941-2.763.362-4.4,3.491-4.23,5.32.3,3.283,2.577,4.993,5.787,4.893a4.927,4.927,0,0,0,4.713-5.716c.433-.051.891-.1,1.359-.132a10.4,10.4,0,0,1,3.389.472,1.1,1.1,0,0,1,.491.374s3.032,4.581,4.176,6.846a47.09,47.09,0,0,1,5.062,16.792.241.241,0,0,0,.33.226l.715-.229a.407.407,0,0,0,.266-.425l-2.519-9.981a1.029,1.029,0,0,1,.07-.61s2.222-4.371,5.647-6.32c.706-.4,1.445-.783,2.162-1.13a4.136,4.136,0,0,0,.127.586c.74,2.491,3.287,2.475,5.085,1.716S447.572,587.844,446.933,586.183Z" transform="translate(-302.565 -433.138)" fill="#3ead7a"/>
        <path id="19a-Path_2" data-name="19a-Path 2" d="M429.061,590.236c-20.184,7.42-35.892,28.726-35.892,28.726-.587.8-1.243.657-1.458-.309l-3.865-15.924a5.939,5.939,0,0,1,.287-3.378s9.048-20.026,21.479-30.68c7.264-6.227,21.223-13.155,21.223-13.155a1.717,1.717,0,1,0-1.35-3.154,90.952,90.952,0,0,0-21.987,12.5c-12.894,9.839-21.581,26.891-21.581,26.891-.448.881-1.07.834-1.381-.105,0,0-1.484-4.484-2.62-7.548-8.061-21.74-26.984-58.3-26.984-58.3A3.694,3.694,0,0,1,355,522.65s9.233-16.14,17.4-22.9c12.263-10.148,25.56-18.886,25.56-18.886.826-.543,1.122-1.368.656-1.833a2.52,2.52,0,0,0-2.5-.141,116.317,116.317,0,0,0-27.944,17.9,73.879,73.879,0,0,0-16.163,20.624c-.431.891-1.209.932-1.731.091l-23.772-38.488a1.641,1.641,0,0,0-2.421-.316l-1.043.869a2.1,2.1,0,0,0-.412,2.666s10.713,16.135,18.213,29.069,14.942,29.223,14.942,29.223c.49.859.133,1.278-.793.932a58.237,58.237,0,0,0-13.458-2.81,142.061,142.061,0,0,0-26.12.218,2.251,2.251,0,0,0-2,1.473c-.115.7.6,1.213,1.582,1.145a200.019,200.019,0,0,1,24.845.124c8.692.621,18.031,5.264,18.031,5.264a6.032,6.032,0,0,1,2.374,2.428s12.823,27.3,17.228,40.512c17.855,53.566,14.115,95.249,14.115,95.249a1.324,1.324,0,0,0,1.613,1.5l4.064-.677a2.225,2.225,0,0,0,1.789-2.094l-5.727-56.228a5.61,5.61,0,0,1,.863-3.256s15.559-21.971,35.715-29.837c17.335-6.765,37.564-11.045,37.564-11.045a2.64,2.64,0,0,0,1.971-2.063,1.514,1.514,0,0,0-1.587-1.692S457.814,579.664,429.061,590.236Z" transform="translate(-267.692 -402.847)" fill="#937b32"/>
        <g id="19a-Group_1" data-name="19a-Group 1" transform="translate(144.51 100.559)">
          <path id="19a-Path_3" data-name="19a-Path 3" d="M503.666,517.88c-18.947,0-34.49,14.464-34.49,35.6s7.787,28.927,28.927,31.153,42.315-7.792,42.315-33.381S523.693,517.88,503.666,517.88Z" transform="translate(-469.176 -517.88)" fill="#d8c3c3"/>
          <path id="19a-Path_4" data-name="19a-Path 4" d="M512.772,542.088c-13.248,0-24.116,10.112-24.116,24.891s5.444,20.227,20.226,21.783,28-5.446,28-23.337S526.773,542.088,512.772,542.088Z" transform="translate(-476.301 -526.734)" fill="#fc372a" stroke="#0c171e" stroke-width="0.6"/>
          <path id="19a-Path_5" data-name="19a-Path 5" d="M513.4,570.708c-6.867,0-12.5,5.242-12.5,12.9s2.823,10.485,10.485,11.291,14.517-2.822,14.517-12.1S520.659,570.708,513.4,570.708Z" transform="translate(-480.778 -537.202)" fill="#d61d0b" stroke="#0c171e" stroke-width="0.6"/>
        </g>
        <g id="19a-Group_2" data-name="19a-Group 2" transform="translate(1.674 23.33)">
          <path id="19a-Path_6" data-name="19a-Path 6" d="M269.552,399.806c19.141-9.173,40.171-.936,46.824,21.339,6.279,21.021.854,31.6-18.688,41.876-18.712,9.843-40.924,8.833-50.23-14.087C237.517,424.452,250.07,409.142,269.552,399.806Z" transform="translate(-243.972 -396.117)" fill="#d8c3c3"/>
          <path id="19a-Path_7" data-name="19a-Path 7" d="M280.5,421.62c13.909-6.412,29.169-.512,34.231,15.421,4.867,15.317,1,23.123-13.427,30.8-13.995,7.449-29.226,6.088-35.97-11.187C258.273,438.564,266.173,428.224,280.5,421.62Z" transform="translate(-250.825 -404.513)" fill="#0868ac" stroke="#0c171e" stroke-width="0.64"/>
          <path id="19a-Path_8" data-name="19a-Path 8" d="M302.323,450.078c7.087-3.122,14.792-.178,17.413,7.775,2.569,7.793.616,11.825-6.866,15.846-7.366,3.958-15.4,3.254-18.738-5.841C290.71,458.541,294.929,453.336,302.323,450.078Z" transform="translate(-261.877 -415.406)" fill="#213735" stroke="#0c171e" stroke-width="0.64"/>
        </g>
        <g id="19a-Group_3" data-name="19a-Group 3" transform="translate(17.411 108.244)">
          <path id="19a-Path_9" data-name="19a-Path 9" d="M268.881,555.519c-.985,18.071,5.432,28.708,27.534,31.2,16.545,1.905,30.224-10.6,30.224-28.793,0-20.046-15.13-27.681-30.536-27.924C280.8,529.758,269.429,545.454,268.881,555.519Z" transform="translate(-268.785 -529.997)" fill="#287c40"/>
          <path id="19a-Path_10" data-name="19a-Path 10" d="M291.523,562.634c-1.159,11.509,6.3,19.709,18.286,21.19,11.521,1.422,20.977-7.31,20.7-19.814-.295-13.36-9.885-17.606-20.818-18.155S292.182,556.084,291.523,562.634Z" transform="translate(-277.058 -535.789)" fill="#4ba424" stroke="#0c171e" stroke-width="0.6"/>
          <path id="19a-Path_11" data-name="19a-Path 11" d="M308.737,565.358c-1.056,7.49,3.393,11.4,10.4,12.305,6.833.878,12.435-4.323,12.174-11.658-.271-7.65-6.643-10.406-13.539-9.739C312.169,556.808,309.256,561.672,308.737,565.358Z" transform="translate(-283.34 -539.57)" fill="#cac612" stroke="#0c171e" stroke-width="0.6"/>
        </g>
        <g id="19a-Group_4" data-name="19a-Group 4" transform="translate(75.591 44.994)">
          <path id="19a-Path_12" data-name="19a-Path 12" d="M383.994,433.323c-21.334,10.391-29.29,28.3-19.033,50.279s39.465,21.483,51.992,12.144,22.585-24.353,16.173-42.812S401.109,424.987,383.994,433.323Z" transform="translate(-360.514 -430.274)" fill="#182763"/>
          <path id="19a-Path_13" data-name="19a-Path 13" d="M393.414,465.76c-13.442,6.547-18.455,17.83-11.992,31.684s23.12,12.539,31.014,6.653,14.862-16.078,10.821-27.71S404.2,460.507,393.414,465.76Z" transform="translate(-367.136 -442.439)" fill="#0868ac" stroke="#0c171e" stroke-width="0.6"/>
          <path id="19a-Path_14" data-name="19a-Path 14" d="M403.306,486.992c-7.806,3.8-10.716,10.351-6.962,18.395s13.422,7.278,18,3.862,8.626-9.334,6.283-16.088S409.566,483.943,403.306,486.992Z" transform="translate(-373.023 -450.546)" fill="#3ead7a" stroke="#0c171e" stroke-width="0.6"/>
        </g>
        <g id="19a-Group_5-2" data-name="19a-Group 5" transform="translate(174.814 171.315)">
          <path id="19a-Path_15" data-name="19a-Path 15" d="M532.523,629.794c-7.577,1.457-17.327,4.7-15.3,18.819s13.588,18.8,23.857,15.748c11.734-3.488,14.836-13.406,12.691-22.941S540.768,628.209,532.523,629.794Z" transform="translate(-516.955 -629.438)" fill="#287e4b"/>
          <path id="19a-Path_16" data-name="19a-Path 16" d="M532.024,643c-3.735.8-10.546,2.526-9.251,11.525s10.121,10.237,16.73,8.524,7.926-7.033,6.559-13.109S536.74,641.981,532.024,643Z" transform="translate(-519.024 -634.301)" fill="#345b15" stroke="#0c171e" stroke-width="0.6"/>
          <path id="19a-Path_17" data-name="19a-Path 17" d="M532.75,648.034c-2.215.477-6.256,1.5-5.488,6.837s6,6.073,9.925,5.056,4.7-4.171,3.89-7.775S535.548,647.433,532.75,648.034Z" transform="translate(-520.69 -636.183)" fill="#213735" stroke="#0c171e" stroke-width="0.6"/>
        </g>
        <path id="19a-Path_18" data-name="19a-Path 18" d="M370.959,642.241c-4.5-.59-9.224.943-10.292,6.556-.884-.115-1.825-.21-2.776-.256a17.662,17.662,0,0,0-4.159.25c-.292.063-.382-.078-.2-.315,0,0,2.949-4.556,5.767-8.1,1.942-2.446,4.408-5.279,5.753-6.8l.074.037c1.851.814,4.605.844,5.628-2,1.1-3.076-1.7-4.137-2.876-4.542a3.226,3.226,0,0,0-4.1,2.15,3.829,3.829,0,0,0,.124,3.436l-7.707,9.169c-.193.229-.426.182-.515-.1a18.972,18.972,0,0,0-1.079-2.531,11.811,11.811,0,0,0,1.883-2.222c4.986-7.573,3.015-14.624-4.308-19.624-5.877-4.01-15.053-2.812-18.426,3.666s-.162,13.058,3.963,17.19c3.353,3.36,10.362,5.444,15.546,2.044.782,1.607,1.3,2.915,1.3,2.915a1.122,1.122,0,0,1-.119.95s-7.283,10.128-10.656,16.292c-.476.868-1.118,2.148-1.118,2.148-.134.268-.323.254-.419-.03a27.479,27.479,0,0,0-5.287-9.013c-.715-.732-1.425-1.376-2.095-1.94a13.855,13.855,0,0,0,1.3-4.445,10.369,10.369,0,0,0-8.776-12.193c-6.005-.881-10.685.818-11.81,8.491s4.1,11.507,10.541,11.77c3.949.161,6.479-.533,8.063-2.553a20.5,20.5,0,0,1,1.976,1.917c3.258,3.743,5.091,10.145,5.091,10.145a1.809,1.809,0,0,1-.063,1.026l-1.86,4.6c-.108.28-.31.292-.451.029,0,0-3.772-7.08-9.5-10.194-1.514-.823-2.849-1.508-4.022-2.078-.339-2.284-2.472-3.166-3.786-3.658-2.148-.8-6.021-.467-7.084,2.3s-.81,5.359,2.181,6.622,7.23,1.289,8.461-2.855a7.079,7.079,0,0,0,.212-.974c1.193.577,2.423,1.21,3.6,1.878,5.7,3.246,9.4,10.517,9.4,10.517a1.7,1.7,0,0,1,.116,1.015l-4.191,16.609a.675.675,0,0,0,.444.706l1.189.382a.4.4,0,0,0,.549-.377s.712-12.664,8.423-27.94c1.9-3.768,6.948-11.389,6.948-11.389a1.834,1.834,0,0,1,.818-.623,17.284,17.284,0,0,1,5.639-.786c.781.058,1.541.135,2.262.22-.544,5.241,2.936,9.36,7.84,9.512,5.341.166,9.128-2.681,9.629-8.143C378.276,648.048,375.558,642.842,370.959,642.241Z" transform="translate(-267.879 -452.851)" fill="#f33296"/>
      </g>
    </g>
  </g>
</svg>
