<svg width="200" height="300" viewBox="0 0 200 300" fill="none" xmlns="http://www.w3.org/2000/svg">
<rect width="200" height="300" fill="#D292C0"/>
<g clip-path="url(#clip0_1968_33815)">
<path d="M155 41.9351H11V185.804H155V41.9351Z" fill="#D292C0"/>
<path d="M54.7444 210.25C52.0915 206.866 42.084 123.338 42.7613 119.305C43.4386 115.273 65.7735 109.719 87.3013 109.719C110.246 109.719 128.048 114.151 128.72 118.854C129.392 123.557 116.997 208.293 114.699 210.774C111.358 214.333 97.9918 217.175 85.2975 217.006C71.6212 216.819 57.2336 213.442 54.7444 210.238" fill="#0093D3"/>
<path d="M48.0215 122.903C48.0215 125.672 70.5991 128.875 88.1927 128.429C107.35 127.944 124.018 124.245 124.684 121.561C125.35 118.877 108.908 114.185 87.9951 114.63C67.0826 115.076 48.0441 118.2 48.0441 122.903" fill="#00060C"/>
<path d="M81.5551 121.335C81.5156 118.115 81.9785 109.532 81.9785 100.933C81.9785 96.799 82.1196 90.0319 80.5279 89.3214C77.9201 88.1935 68.3529 93.6298 60.4902 92.8798C52.6276 92.1297 41.6323 86.3833 40.8816 83.3945C40.1309 80.4057 51.9954 75.0935 61.3595 75.0935C70.7235 75.0935 79.7546 84.8325 81.256 84.1164C82.7574 83.4002 82.3849 67.6554 81.6285 63.5387C80.8722 59.4221 72.795 50.3823 74.2908 37.3049C75.3463 27.8366 84.9756 15.9941 87.6229 15.9941C91.4385 15.9941 98.5109 30.4588 96.6539 42.4253C94.7969 54.3918 86.3755 59.5518 85.9973 64.4184C85.6191 69.2851 85.3877 81.8437 86.5109 83.3381C87.6342 84.8325 95.4573 79.5373 107.068 79.5373C118.678 79.5373 129.38 86.0845 129.121 89.0394C128.821 92.423 118.594 98.0058 108.479 97.6336C98.3642 97.2615 89.2993 89.6259 87.2673 90.4323C85.828 90.9962 86.1384 117.411 86.1384 120.777C86.1384 124.144 81.5834 124.014 81.5495 121.341" fill="#00923D"/>
<path d="M86.9504 24.4531C84.4387 24.4531 80.5723 33.2955 80.5723 39.4987C80.5723 45.7018 82.8808 54.0197 84.3879 54.0197C85.8949 54.0197 90.1903 46.7282 91.0483 39.8539C91.6974 34.6997 89.355 24.4644 86.9504 24.4644" fill="#0093D3"/>
<path d="M86.9504 24.4531C84.4387 24.4531 80.5723 33.2955 80.5723 39.4987C80.5723 45.7018 82.8808 54.0197 84.3879 54.0197C85.8949 54.0197 90.1903 46.7282 91.0483 39.8539C91.6974 34.6997 89.355 24.4644 86.9504 24.4644V24.4531Z" stroke="#00060C" stroke-width="0.69"/>
<path d="M49.1895 83.9586C49.1895 85.718 55.7426 88.7858 62.2958 88.47C68.8489 88.1542 73.4999 86.0959 73.5055 84.686C73.5112 83.2762 68.1603 80.1746 62.2958 79.8532C56.4312 79.5318 49.1895 81.5788 49.1895 83.9868" fill="#F8C900"/>
<path d="M49.1895 83.9586C49.1895 85.718 55.7426 88.7858 62.2958 88.47C68.8489 88.1542 73.4999 86.0959 73.5055 84.686C73.5112 83.2762 68.1603 80.1746 62.2958 79.8532C56.4312 79.5318 49.1895 81.5788 49.1895 83.9868V83.9586Z" stroke="#00060C" stroke-width="0.69"/>
<path d="M96.4387 87.4045C96.3258 88.8368 104.341 92.5193 108.89 92.6941C113.44 92.8689 122.307 90.8501 122.307 89.4741C122.307 88.0981 114.151 84.6074 109.325 84.5341C104.284 84.4551 96.5459 86.0341 96.4387 87.4045Z" fill="#E73446"/>
<path d="M96.4387 87.4045C96.3258 88.8368 104.341 92.5193 108.89 92.6941C113.44 92.8689 122.307 90.8501 122.307 89.4741C122.307 88.0981 114.151 84.6074 109.325 84.5341C104.284 84.4551 96.5459 86.0341 96.4387 87.4045Z" stroke="#00060C" stroke-width="0.69"/>
</g>
<defs>
<clipPath id="clip0_1968_33815">
<rect width="144" height="201" fill="white" transform="translate(11 16)"/>
</clipPath>
</defs>
</svg>
