<svg xmlns="http://www.w3.org/2000/svg" xmlns:xlink="http://www.w3.org/1999/xlink" width="200" height="300" viewBox="0 0 200 300">
  <defs>
    <clipPath id="29c-clip-path">
      <rect id="29c-Rectangle_1" data-name="29c-Rectangle 1" width="344" height="344" transform="translate(0.407 0.407)" fill="none"/>
    </clipPath>
    <clipPath id="29c-clip-Kortform">
      <rect width="200" height="300"/>
    </clipPath>
  </defs>
  <g id="29c-Kortform" clip-path="url(#29c-clip-Kortform)">
    <rect width="200" height="300" fill="#ff4818"/>
    <g id="29c-Group_9" data-name="29c-Group 9" transform="translate(-235.333 -367)">
      <g id="29c-Group_33" data-name="29c-Group 33" transform="translate(190.926 344.594)" clip-path="url(#29c-clip-path)">
        <path id="29c-Path_1" data-name="29c-Path 1" d="M639.081,772.982l-425.508,1.013V287.462l425.508-1.013Z" transform="translate(-233.683 -371.982)" fill="#ff480b"/>
        <g id="29c-Group_2" data-name="29c-Group 2" transform="translate(234.887 88.684)">
          <g id="29c-Group_1" data-name="29c-Group 1">
            <path id="29c-Path_2" data-name="29c-Path 2" d="M514.295,545.045c-2.827-1.516-14.406-2.955-21.168-13.2-8.476-12.848.116-20.857,3.229-28.852,1.675-4.3.131-15.211,8.819-22.318,8.969-7.343,16.024-2.614,23.222-3.788,4.794-.781,16.441-4.616,26.214,1.391,11.51,7.086,11.2,18.609,12.957,22.144,2.266,4.558,9.851,11.344,7.155,24.413-2.879,13.984-13.238,14.788-17.5,17.5s-8.406,13.509-19.1,14.207C528.318,557.181,517.12,546.567,514.295,545.045Z" transform="translate(-489.493 -474.961)" fill="#856f35"/>
          </g>
          <path id="29c-Path_3" data-name="29c-Path 3" d="M544.977,508.866c-2.807-3.927-9.663-6.7-14.531-3.9s-7.749,9.34-5.487,14.5c3.1,7.061,11.9,9.113,16.628,6.1S550.121,516.079,544.977,508.866Z" transform="translate(-492.123 -477.15)" fill="#a1d9b0"/>
        </g>
        <g id="29c-Group_5" data-name="29c-Group 5" transform="translate(218.543 95.757)">
          <g id="29c-Group_4" data-name="29c-Group 4">
            <g id="29c-Group_3" data-name="29c-Group 3">
              <path id="29c-Path_4" data-name="29c-Path 4" d="M497.605,534.361c-2.132-.053-9.434,2.564-16.517-1.489-8.878-5.082-6.184-12.41-6.733-18.086-.3-3.053-4.479-9.062-1.456-15.887,3.121-7.041,8.722-6.351,12.641-9.206,2.613-1.9,8.374-7.668,15.971-7.03,8.954.753,12.225,7.683,14.326,9.254,2.71,2.026,9.244,3.778,11.56,12.341,2.482,9.161-3.422,12.741-5.139,15.63s-.938,10.535-7.072,14.154C509.563,537.359,499.737,534.418,497.605,534.361Z" transform="translate(-471.809 -482.615)" fill="#f32f90"/>
            </g>
            <path id="29c-Path_5" data-name="29c-Path 5" d="M504.373,504.807c-2.842-1.487-7.738-1.076-9.789,2.039s-1.8,7.864,1.086,10.247c3.953,3.263,9.8,1.841,11.7-1.36S509.588,507.546,504.373,504.807Z" transform="translate(-473.434 -484.235)"/>
          </g>
        </g>
        <g id="29c-Group_8" data-name="29c-Group 8" transform="translate(112.927 29.94)">
          <g id="29c-Group_6" data-name="29c-Group 6">
            <path id="29c-Path_6" data-name="29c-Path 6" d="M403.624,486.98c-6.778,0-8.98-3.87-13.881-5.493s-12.334,3.268-22.027-4.034-5-17.779-6.321-24.516S353.8,440,360.725,430.027c6.014-8.659,12.117-7.739,18.946-9.543s10.51-9.918,22.053-9.018,14.083,11.565,19.8,16.165,13.512,5.8,15.341,17.519c1.942,12.548-8.173,15.456-11.022,20.638s-3.193,14.185-12.095,18.642a22.484,22.484,0,0,1-10.124,2.55Z" transform="translate(-357.526 -411.397)" fill="#fb232a"/>
          </g>
          <g id="29c-Group_7" data-name="29c-Group 7" transform="translate(19.206 19.562)">
            <path id="29c-Path_7" data-name="29c-Path 7" d="M401.647,470.832c-3.431,0-4.548-1.958-7.028-2.782s-6.246,1.653-11.151-2.042-2.53-9-3.2-12.412-3.843-6.55-.339-11.6c3.045-4.382,6.134-3.915,9.594-4.828s5.32-5.022,11.164-4.567,7.128,5.855,10.023,8.184,6.842,2.935,7.769,8.871c.983,6.352-4.14,7.823-5.58,10.445s-1.615,7.185-6.125,9.441a11.391,11.391,0,0,1-5.124,1.291Z" transform="translate(-378.307 -432.564)" fill="#f32f90"/>
          </g>
        </g>
        <g id="29c-Group_11" data-name="29c-Group 11" transform="translate(263.024 148.417)">
          <g id="29c-Group_9-2" data-name="29c-Group 9">
            <path id="29c-Path_8" data-name="29c-Path 8" d="M547.8,614.218c-5.962-3.555-5.867-8.113-9.328-12.113s-12.561-3.6-17.256-15.105,4.933-18.259,7.3-24.879.106-15.356,11.427-20.5c9.832-4.461,14.715-.452,21.668,1.546s14.448-3.211,24.13,3.637,6.319,17.558,8.93,24.6,8.847,12.189,4.306,23.457c-4.873,12.056-15.3,9.306-20.517,12.37s-10.25,10.8-20.419,10.052a23.032,23.032,0,0,1-10.244-3.067Z" transform="translate(-519.94 -539.596)" fill="#ff7b00"/>
          </g>
          <g id="29c-Group_10" data-name="29c-Group 10" transform="translate(20.747 19.906)">
            <path id="29c-Path_9" data-name="29c-Path 9" d="M556.494,598.916c-3.018-1.8-2.969-4.108-4.723-6.134s-6.358-1.822-8.737-7.646,2.5-9.245,3.7-12.6.055-7.773,5.787-10.377c4.976-2.259,7.451-.229,10.972.783s7.315-1.627,12.216,1.841,3.2,8.889,4.521,12.454,4.479,6.172,2.179,11.877c-2.468,6.1-7.745,4.712-10.39,6.263s-5.188,5.467-10.337,5.09a11.706,11.706,0,0,1-5.185-1.554Z" transform="translate(-542.39 -561.136)" fill="#856f35"/>
          </g>
        </g>
        <g id="29c-Group_14" data-name="29c-Group 14" transform="translate(23.975 129.423)">
          <g id="29c-Group_13" data-name="29c-Group 13">
            <g id="29c-Group_12" data-name="29c-Group 12">
              <path id="29c-Path_10" data-name="29c-Path 10" d="M295.88,605.633c-3.562-.948-16.9.512-27.173-9.155-12.882-12.12-5.4-23.357-4.035-33.123.733-5.252-3.881-17.047,3.952-27.3,8.079-10.587,17.227-7.169,24.964-10.39,5.158-2.145,17.168-9.52,29.685-5.388,14.757,4.869,17.458,17.841,20.363,21.327,3.741,4.5,14.022,10.079,14.468,25.41.487,16.4-10.885,20.047-14.935,24.209s-5.825,17.341-17.593,20.956C314.782,615.491,299.442,606.589,295.88,605.633Z" transform="translate(-261.275 -519.044)" fill="#ff7b00"/>
            </g>
            <path id="29c-Path_11" data-name="29c-Path 11" d="M320.874,556.658c-4.179-3.65-12.579-4.929-17.283-.515s-6.194,12.5-2.3,17.667c5.334,7.077,15.73,7.035,20.215,2.421S328.536,563.362,320.874,556.658Z" transform="translate(-264.14 -521.644)"/>
          </g>
        </g>
        <g id="29c-Group_15" data-name="29c-Group 15" transform="translate(68.361 60.483)">
          <path id="29c-Path_12" data-name="29c-Path 12" d="M348.578,444.669c-19.706-2.251-18.231,13.3-20.786,15.206-1.873,1.4-15.576-4.064-18.157,12.608-2.971,19.136,14.991,19.657,16.262,21.208s-2.251,16.373,16.731,18.09c20.537,1.855,18.881-15.071,20.44-16.5,1.774-1.616,15.352,1.505,17.278-13.329,2.04-15.658-14.106-15.777-15.046-17.452s3.477-17.521-16.721-19.829" transform="translate(-309.304 -444.447)" fill="#856f35"/>
          <path id="29c-Path_13" data-name="29c-Path 13" d="M350.249,466.232c-5.67-1.352-14.118,1.573-16.338,7.985s-2.245,14.393,6.516,17.57,18.078-1.157,19.994-7.65.247-15.419-10.172-17.9" transform="translate(-311.075 -446.074)" fill="#f32f90"/>
        </g>
        <g id="29c-Group_17" data-name="29c-Group 17" transform="translate(142.953 95.635)">
          <g id="29c-Group_16" data-name="29c-Group 16">
            <path id="29c-Path_14" data-name="29c-Path 14" d="M416.762,482.927c-12.265-2.63-12.292,7.247-14.019,8.289-1.267.764-9.553-3.514-12.206,6.818-3.047,11.869,8.225,13.3,8.931,14.352s-2.421,10.173,9.427,12.421c12.813,2.43,12.808-8.328,13.875-9.132,1.218-.91,9.577,1.895,11.7-7.331,2.249-9.731-7.914-10.8-8.4-11.913S429.337,485.62,416.762,482.927Z" transform="translate(-390.016 -482.483)" fill="#856f35"/>
            <path id="29c-Path_15" data-name="29c-Path 15" d="M408.785,499.635a6.658,6.658,0,0,0-1.85,9.063,6.991,6.991,0,0,0,9.815,1.751c2.5-1.747,3.817-4.95,1.724-8.779C417.038,499.051,412.6,497.321,408.785,499.635Z" transform="translate(-391.218 -483.701)" fill="#f32f90"/>
          </g>
        </g>
        <g id="29c-Group_20" data-name="29c-Group 20" transform="translate(24.905 73.466)">
          <g id="29c-Group_18" data-name="29c-Group 18">
            <path id="29c-Path_16" data-name="29c-Path 16" d="M300.756,537.829c-6.983-1.672-8.294-6.2-12.944-9.085s-13.515.322-21.7-9.594-.761-19.551-.462-26.818-4.631-15.2,4.963-23.768c8.332-7.438,14.39-4.984,21.874-5.153s13.275-7.627,24.948-3.851,11.656,15.387,16.406,21.539,12.493,9.307,11.486,21.836c-1.1,13.407-12.236,13.906-16.448,18.541S322.09,535.3,311.816,537.7a23.8,23.8,0,0,1-11.06.13Z" transform="translate(-262.282 -458.494)"/>
          </g>
          <g id="29c-Group_19" data-name="29c-Group 19" transform="translate(19.645 18.573)">
            <path id="29c-Path_17" data-name="29c-Path 17" d="M303.019,518.759c-3.539-.847-4.2-3.141-6.557-4.6s-6.84.163-10.984-4.857-.384-9.9-.236-13.578-2.341-7.695,2.515-12.034c4.218-3.765,7.285-2.523,11.073-2.611s6.723-3.86,12.632-1.948,5.9,7.791,8.305,10.9,6.327,4.713,5.813,11.056c-.554,6.789-6.193,7.042-8.327,9.389s-3.436,7-8.637,8.214a12.1,12.1,0,0,1-5.6.065Z" transform="translate(-283.538 -478.592)" fill="#f32f90"/>
          </g>
        </g>
        <g id="29c-Group_21" data-name="29c-Group 21" transform="translate(186.959 112.886)">
          <path id="29c-Path_18" data-name="29c-Path 18" d="M464.532,555.106c-5.684-.872-9.837,2.675-17.222-1.551-9.258-5.3-6.447-12.941-7.02-18.859-.308-3.183-4.672-9.449-1.518-16.563,3.254-7.344,9.1-6.624,13.181-9.6,2.724-1.981,8.732-7.994,16.654-7.332,9.337.787,12.745,8.013,14.937,9.65,2.825,2.113,9.64,3.939,12.053,12.869,2.589,9.55-3.565,13.285-5.356,16.3s-.98,10.987-7.379,14.76C477,558.233,466.729,555.445,464.532,555.106Z" transform="translate(-437.633 -501.149)" fill="#fb232a"/>
          <path id="29c-Path_19" data-name="29c-Path 19" d="M468.731,511.267c-5.293.064-8.344,2.584-11.2,4.491s-7.074,1.781-9.261,6.071c-2.164,4.239.567,9.373,1.712,12.8,1.191,3.567.737,8.2,5.174,11.194,3.257,2.188,7.132.834,10.609.883s7.606,2.037,12.729-1.383c3.394-2.271,3.378-6.181,4.64-9.345,1.1-2.757,5.291-5.75,3.48-10.911-1.485-4.235-6.672-6.559-8.38-8S474.246,511.2,468.731,511.267Z" transform="translate(-438.378 -501.916)" fill="#f32f90"/>
          <path id="29c-Path_20" data-name="29c-Path 20" d="M473.506,523.267c-2.965-1.553-9.851-1.285-11.989,1.964s-2.006,9.306,1.006,11.789c4.122,3.4,10.212,1.919,12.193-1.419S478.941,526.122,473.506,523.267Z" transform="translate(-439.334 -502.757)" fill="#aedfba"/>
        </g>
        <g id="29c-Group_23" data-name="29c-Group 23" transform="translate(213.977 181.05)">
          <path id="29c-Path_21" data-name="29c-Path 21" d="M500.616,642.6c-7.134-1.1-12.343,3.352-21.608-1.948-11.615-6.649-8.089-16.234-8.806-23.658-.388-4-5.862-11.859-1.9-20.782,4.08-9.212,11.411-8.309,16.537-12.043,3.417-2.489,10.953-10.032,20.891-9.2,11.716.986,15.989,10.051,18.742,12.107,3.54,2.649,12.092,4.943,15.12,16.142,3.249,11.986-4.476,16.669-6.722,20.445s-1.229,13.785-9.253,18.519C516.257,646.521,503.37,643.025,500.616,642.6Z" transform="translate(-466.868 -574.907)" fill="#fb232a"/>
          <g id="29c-Group_22" data-name="29c-Group 22" transform="translate(17.817 18.027)">
            <path id="29c-Path_22" data-name="29c-Path 22" d="M507.309,629.11c-3.112,0-4.122-1.777-6.374-2.521s-5.661,1.5-10.108-1.852-2.3-8.164-2.9-11.256-3.484-5.938-.308-10.514c2.764-3.974,5.563-3.553,8.7-4.382s4.826-4.551,10.124-4.139,6.465,5.309,9.086,7.421,6.2,2.661,7.043,8.041c.893,5.76-3.752,7.094-5.058,9.475s-1.467,6.513-5.554,8.558a10.3,10.3,0,0,1-4.646,1.171Z" transform="translate(-486.146 -594.413)" fill="#856f35"/>
          </g>
        </g>
        <g id="29c-Group_25" data-name="29c-Group 25" transform="translate(198.161 165.185)">
          <g id="29c-Group_24" data-name="29c-Group 24">
            <g id="29c-Path_23" data-name="29c-Path 23" transform="translate(-449.754 -557.739)" fill="#a1d9b0">
              <path d="M 483.1373596191406 606.913818359375 C 480.3182067871094 606.913818359375 477.4747619628906 606.4052734375 475.5931701660156 606.0687866210938 C 474.6485900878906 605.8998413085938 473.9024963378906 605.7664184570312 473.5067138671875 605.755615234375 C 473.4910583496094 605.7552490234375 473.4737548828125 605.7550659179688 473.4563293457031 605.7550659179688 C 473.0601806640625 605.7550659179688 472.4509887695312 605.8535766601562 471.6797180175781 605.978271484375 C 470.3773498535156 606.1888427734375 468.5936584472656 606.4772338867188 466.5809020996094 606.477294921875 C 463.4085083007812 606.477294921875 460.6441040039062 605.7778930664062 458.1296997070312 604.3389892578125 C 451.5470886230469 600.5717163085938 451.68017578125 595.4639892578125 451.7975769042969 590.95751953125 C 451.8301696777344 589.7066040039062 451.8609619140625 588.5250854492188 451.7530517578125 587.408935546875 C 451.6821899414062 586.6776733398438 451.3410034179688 585.711669921875 450.9459228515625 584.5932006835938 C 449.856201171875 581.5079345703125 448.3637390136719 577.282470703125 450.4414367675781 572.6009521484375 C 451.3349609375 570.5831298828125 452.5310363769531 569.0541381835938 454.0978698730469 567.9266967773438 C 455.4774169921875 566.93408203125 456.9612731933594 566.3692016601562 458.3963012695312 565.8229370117188 C 459.7673950195312 565.3009643554688 461.0624389648438 564.8079833984375 462.1988525390625 563.9798583984375 C 462.5404663085938 563.7308959960938 462.9431457519531 563.4076538085938 463.4093933105469 563.0333862304688 C 466.0393371582031 560.9224853515625 470.4410095214844 557.3894653320312 476.0431213378906 557.3894653320312 C 476.4100036621094 557.3894653320312 476.7813720703125 557.4049682617188 477.1469421386719 557.4356079101562 C 479.9920654296875 557.675048828125 482.4689331054688 558.5791015625 484.7192687988281 560.199462890625 C 486.6097106933594 561.5606689453125 487.9251098632812 563.126220703125 488.9820251464844 564.3841552734375 C 489.5813903808594 565.0974731445312 490.0990295410156 565.7135009765625 490.522216796875 566.0292358398438 C 491.0249328613281 566.4051513671875 491.6803894042969 566.7730712890625 492.4393920898438 567.1990356445312 C 493.8795166015625 568.0073852539062 495.6718139648438 569.013427734375 497.3064880371094 570.6063232421875 C 499.2289733886719 572.479736328125 500.5349426269531 574.762939453125 501.2990417480469 577.5865478515625 C 502.115478515625 580.5967407226562 502.0528259277344 583.2326049804688 501.107421875 585.6445922851562 C 500.3011169433594 587.7017211914062 498.9838562011719 589.2322998046875 497.9253845214844 590.462158203125 C 497.3490905761719 591.1318359375 496.8513793945312 591.7101440429688 496.5284729003906 592.2534790039062 C 496.0662536621094 593.0318603515625 495.8041076660156 594.2505493164062 495.5005493164062 595.6616821289062 C 495.1544799804688 597.2703857421875 494.7622375488281 599.0936889648438 493.9555358886719 600.8271484375 C 493.0107727050781 602.8572387695312 491.6803588867188 604.3577270507812 489.88818359375 605.4142456054688 C 488.2019348144531 606.4092407226562 485.9305725097656 606.913818359375 483.1373596191406 606.913818359375 Z" stroke="none"/>
              <path d="M 483.1373596191406 606.5638427734375 C 485.4896240234375 606.5638427734375 487.8505249023438 606.2102661132812 489.71044921875 605.1127319335938 C 495.3616943359375 601.7811279296875 494.6482543945312 594.734375 496.2276000976562 592.0746459960938 C 497.8088989257812 589.4139404296875 503.2494506835938 586.1146850585938 500.961181640625 577.677978515625 C 498.826416015625 569.7892456054688 492.8082275390625 568.1756591796875 490.3129272460938 566.3097534179688 C 488.3740844726562 564.8634033203125 485.364013671875 558.4783935546875 477.1177368164062 557.7843627929688 C 470.1185913085938 557.1986694335938 464.810546875 562.5095825195312 462.4049682617188 564.2626953125 C 458.7969970703125 566.8920288085938 453.6346435546875 566.2543334960938 450.7613525390625 572.742919921875 C 447.97314453125 579.025390625 451.8287963867188 584.5620727539062 452.1014404296875 587.375244140625 C 452.60693359375 592.6041870117188 450.122802734375 599.3533325195312 458.3035278320312 604.0352172851562 C 464.7617797851562 607.7310180664062 471.4217529296875 605.405029296875 473.4563293457031 605.405029296875 C 473.4766540527344 605.405029296875 473.4968566894531 605.4052734375 473.5162353515625 605.40576171875 C 474.7750549316406 605.4400634765625 478.9430236816406 606.5638427734375 483.1373596191406 606.5638427734375 M 483.1373596191406 607.2638549804688 C 480.2871704101562 607.2638549804688 477.42529296875 606.7520141601562 475.5315246582031 606.413330078125 C 474.6382141113281 606.2535400390625 473.8667297363281 606.1155395507812 473.4971618652344 606.10546875 C 473.4853820800781 606.105224609375 473.4709167480469 606.1050415039062 473.4563293457031 606.1050415039062 C 473.0882873535156 606.1050415039062 472.46142578125 606.2064208984375 471.735595703125 606.3237915039062 C 470.4214782714844 606.5362548828125 468.6217651367188 606.8272705078125 466.5809326171875 606.8272705078125 C 463.3458862304688 606.8273315429688 460.5245971679688 606.1127319335938 457.9558410644531 604.6427612304688 C 454.93994140625 602.916748046875 453.0302124023438 600.7530517578125 452.1175842285156 598.0280151367188 C 451.3249206542969 595.6611938476562 451.3873291015625 593.2653198242188 451.4476928710938 590.9483642578125 C 451.4800109863281 589.70849609375 451.5105285644531 588.5374145507812 451.4046936035156 587.442626953125 C 451.3379516601562 586.7539672851562 451.0033569335938 585.806640625 450.6159057617188 584.7097778320312 C 450.0848693847656 583.2062377929688 449.4239501953125 581.3350219726562 449.1664733886719 579.27294921875 C 448.8607788085938 576.82470703125 449.1731872558594 574.5958251953125 450.1215515136719 572.458984375 C 452.1776428222656 567.8157348632812 455.415283203125 566.583251953125 458.2717895507812 565.495849609375 C 459.620361328125 564.9824829101562 460.8941650390625 564.49755859375 461.9927062988281 563.6969604492188 C 462.3277282714844 563.4528198242188 462.7274780273438 563.1319580078125 463.1903381347656 562.7604370117188 C 465.8561401367188 560.6207275390625 470.3179016113281 557.0394287109375 476.0431213378906 557.0394287109375 C 476.4196472167969 557.0394287109375 476.8008728027344 557.0553588867188 477.1761474609375 557.0867919921875 C 483.7743835449219 557.6421508789062 487.2020568847656 561.7216186523438 489.25 564.1589965820312 C 489.8353576660156 564.8556518554688 490.3408813476562 565.457275390625 490.7314758300781 565.7486572265625 C 491.2161865234375 566.1111450195312 491.8624267578125 566.473876953125 492.6106872558594 566.8938598632812 C 495.5017700195312 568.5166015625 499.870849609375 570.9689331054688 501.6369018554688 577.4951171875 C 502.4736328125 580.5802612304688 502.4070739746094 583.287841796875 501.4332885742188 585.7723388671875 C 500.6052551269531 587.8848876953125 499.2664489746094 589.4404907226562 498.190673828125 590.6904907226562 C 497.6250915527344 591.3477172851562 497.1366271972656 591.915283203125 496.829345703125 592.4322509765625 C 496.3963928222656 593.161376953125 496.1398315429688 594.3541870117188 495.8427124023438 595.7352905273438 C 495.1591186523438 598.9130249023438 494.222900390625 603.2650756835938 490.0659484863281 605.7157592773438 C 488.3251953125 606.742919921875 485.9939880371094 607.2638549804688 483.1373596191406 607.2638549804688 Z" stroke="none" fill="#937b32"/>
            </g>
          </g>
          <path id="29c-Path_24" data-name="29c-Path 24" d="M479.754,578.184c-2.619-1.371-7.13-.992-9.021,1.877s-1.658,7.245,1,9.439c3.639,3.006,9.021,1.7,10.773-1.254S484.555,580.707,479.754,578.184Z" transform="translate(-451.251 -559.232)"/>
        </g>
        <g id="29c-Group_26" data-name="29c-Group 26" transform="translate(154.728 144.299)">
          <g id="29c-Path_25" data-name="29c-Path 25" transform="translate(-402.757 -535.14)" fill="#a1d9b0">
            <path d="M 432.6271362304688 592.3883666992188 C 432.6264343261719 592.3883666992188 432.6259155273438 592.3883666992188 432.6252136230469 592.3883666992188 C 431.46337890625 592.3883056640625 430.2088928222656 592.2950439453125 428.8965759277344 592.111328125 C 422.7849731445312 591.2553100585938 418.6386413574219 588.8824462890625 416.5726318359375 585.0587158203125 C 414.8650207519531 581.8983154296875 414.9635925292969 578.4844970703125 415.0225219726562 576.44482421875 C 415.0425109863281 575.7520141601562 415.0632019042969 575.0355834960938 414.9721069335938 574.8638916015625 C 414.8561706542969 574.6605224609375 413.8346862792969 574.3233032226562 413.013916015625 574.0523681640625 C 411.0280151367188 573.3967895507812 408.0269165039062 572.4060668945312 405.7279663085938 570.2763671875 C 402.9618835449219 567.7139282226562 401.9168701171875 564.1263427734375 402.6218566894531 559.6133422851562 C 404.1416625976562 549.8440551757812 411.387451171875 549.2565307617188 415.2801818847656 548.94091796875 C 416.3261413574219 548.8560791015625 417.3140869140625 548.7760009765625 417.5922241210938 548.5341796875 C 417.7721252441406 548.3778686523438 417.9771423339844 547.4959716796875 418.1580505371094 546.7178955078125 C 418.6127014160156 544.7623291015625 419.2997436523438 541.8070068359375 421.2943725585938 539.310546875 C 423.6910400390625 536.3109130859375 427.3743286132812 534.7899169921875 432.2419738769531 534.7899169921875 C 433.2497253417969 534.7899169921875 434.32470703125 534.8554077148438 435.4371032714844 534.9845581054688 C 438.4600524902344 535.3355712890625 441.0165405273438 536.09423828125 443.0355529785156 537.2396240234375 C 444.7652282714844 538.2208251953125 446.1417236328125 539.509033203125 447.1268310546875 541.0685424804688 C 448.9078674316406 543.8880615234375 449.0675048828125 546.954345703125 449.1731567382812 548.9833374023438 C 449.2131958007812 549.7525634765625 449.2546081542969 550.5479125976562 449.3944396972656 550.7266845703125 C 449.5309143066406 550.9019165039062 450.4154663085938 551.1905517578125 451.1959228515625 551.4451904296875 C 452.2401428222656 551.7859497070312 453.6702880859375 552.2525634765625 455.1313781738281 552.946533203125 C 456.8753051757812 553.7747802734375 458.289306640625 554.7384643554688 459.4541931152344 555.892578125 C 462.6456604003906 559.054443359375 463.7411193847656 563.5416259765625 462.7101440429688 569.2293701171875 C 461.9666137695312 573.3270874023438 460.3726196289062 576.2537231445312 457.9723815917969 577.9281005859375 C 455.6882019042969 579.521484375 453.1251831054688 579.7057495117188 451.3960266113281 579.7057495117188 C 450.5900268554688 579.7057495117188 449.8421936035156 579.6593017578125 449.182373046875 579.6182861328125 C 448.6689453125 579.5863647460938 448.2255249023438 579.558837890625 447.8544006347656 579.558837890625 C 447.2917175292969 579.558837890625 447.0746154785156 579.628662109375 446.9915771484375 579.6871948242188 C 446.5651550292969 579.98828125 446.2162170410156 581.0142822265625 445.8121643066406 582.2022094726562 C 445.1746826171875 584.0765991210938 444.3015747070312 586.6436767578125 442.3810729980469 588.71484375 C 441.3279724121094 589.8505249023438 440.0500793457031 590.73291015625 438.5829162597656 591.3375244140625 C 436.8908996582031 592.0348510742188 434.8870239257812 592.3883666992188 432.6271362304688 592.3883666992188 Z" stroke="none"/>
            <path d="M 432.625244140625 592.0383911132812 C 445.3805236816406 592.03955078125 444.7720642089844 580.825927734375 446.7898559570312 579.4011840820312 C 447.3633117675781 578.9967041015625 449.1798706054688 579.3557739257812 451.3960571289062 579.3557739257812 C 455.4079284667969 579.3557739257812 460.73046875 578.179443359375 462.3657531738281 569.1669311523438 C 465.2787170410156 553.0965576171875 450.1557006835938 552.2740478515625 449.1187744140625 550.9423217773438 C 448.0726013183594 549.6050415039062 451.3626403808594 537.1860961914062 435.396728515625 535.3322143554688 C 418.1294250488281 533.3277587890625 419.16650390625 547.630126953125 417.8218688964844 548.7982788085938 C 416.2914123535156 550.1290283203125 404.9075622558594 547.1976318359375 402.9676818847656 559.6673583984375 C 400.9132690429688 572.8182373046875 414.5244140625 573.2673950195312 415.2813110351562 574.6998901367188 C 416.0372924804688 576.1249389648438 411.9681701660156 589.3867797851562 428.9450988769531 591.7647094726562 C 430.2813110351562 591.9517822265625 431.5057067871094 592.0382690429688 432.625244140625 592.0383911132812 M 432.627197265625 592.7384033203125 L 432.6251831054688 592.7384033203125 C 431.4471740722656 592.73828125 430.1763610839844 592.6439208984375 428.8480529785156 592.4579467773438 C 422.6201477050781 591.5856323242188 418.3865051269531 589.1521606445312 416.2647094726562 585.22509765625 C 414.512451171875 581.9820556640625 414.6127319335938 578.5094604492188 414.6726379394531 576.4346923828125 C 414.6875 575.9203491210938 414.7056884765625 575.2906494140625 414.6637878417969 575.0553588867188 C 414.4173889160156 574.88427734375 413.5829467773438 574.6088256835938 412.9042053222656 574.384765625 C 410.8894958496094 573.7196655273438 407.8449096679688 572.714599609375 405.4901123046875 570.5331420898438 C 402.6333312988281 567.8865966796875 401.5519714355469 564.1945190429688 402.2760620117188 559.559326171875 C 402.6364440917969 557.2428588867188 403.3462219238281 555.2706909179688 404.3855895996094 553.697998046875 C 405.2895202636719 552.3303833007812 406.465576171875 551.2299194335938 407.8811340332031 550.42724609375 C 410.4276733398438 548.9832153320312 413.2159729003906 548.7571411132812 415.2518920898438 548.592041015625 C 416.035400390625 548.5285034179688 417.1024169921875 548.4420166015625 417.3491821289062 548.2794799804688 C 417.4823913574219 548.0784912109375 417.6676025390625 547.2818603515625 417.817138671875 546.638671875 C 418.2789306640625 544.6522827148438 418.976806640625 541.6505126953125 421.0209045410156 539.0921020507812 C 423.4873046875 536.005126953125 427.2626342773438 534.43994140625 432.2419738769531 534.43994140625 C 433.26318359375 534.43994140625 434.3517456054688 534.5062255859375 435.4774475097656 534.6369018554688 C 441.2064819335938 535.3021240234375 445.2254333496094 537.4031372070312 447.4227294921875 540.881591796875 C 449.2526245117188 543.7785034179688 449.4216918945312 547.0252685546875 449.5226745605469 548.9651489257812 C 449.5532836914062 549.552734375 449.5909729003906 550.2767333984375 449.6740417480469 550.5049438476562 C 449.8935852050781 550.652099609375 450.6725158691406 550.90625 451.3044738769531 551.1124877929688 C 453.43603515625 551.8079833984375 457.003662109375 552.9720458984375 459.7005310058594 555.6439208984375 C 462.9788818359375 558.8919067382812 464.1073303222656 563.4837036132812 463.0545349121094 569.2918090820312 C 462.2939147949219 573.4837646484375 460.6513977050781 576.4860229492188 458.172607421875 578.2151489257812 C 455.8075561523438 579.8649291992188 453.1724243164062 580.0557861328125 451.3960266113281 580.0557861328125 C 450.5791931152344 580.0557861328125 449.8255615234375 580.0089111328125 449.1606750488281 579.9675903320312 C 448.653076171875 579.93603515625 448.2146606445312 579.9088134765625 447.8544006347656 579.9088134765625 C 447.3594970703125 579.9088134765625 447.2131042480469 579.96533203125 447.1875915527344 579.9773559570312 C 446.8557434082031 580.220947265625 446.49365234375 581.2853393554688 446.1434631347656 582.3148803710938 C 445.495849609375 584.2189331054688 444.6088562011719 586.8265991210938 442.637939453125 588.9523315429688 C 441.5503234863281 590.1253662109375 440.2311706542969 591.03662109375 438.7171325683594 591.6607055664062 C 436.9823913574219 592.3757934570312 434.9334411621094 592.7384033203125 432.627197265625 592.7384033203125 Z" stroke="none" fill="#937b32"/>
          </g>
          <path id="29c-Path_26" data-name="29c-Path 26" d="M440.366,573.039c3.328-2.359,4.762-8.406,1.592-12.229a9.318,9.318,0,0,0-13.216-1.388c-3.16,2.561-4.6,6.946-1.451,11.837C429.449,574.6,435.522,576.477,440.366,573.039Z" transform="translate(-404.484 -536.82)" fill="#fb232a"/>
        </g>
        <g id="29c-Group_28" data-name="29c-Group 28" transform="translate(99.974 129.714)">
          <g id="29c-Group_27" data-name="29c-Group 27">
            <g id="29c-Path_27" data-name="29c-Path 27" transform="translate(-343.51 -519.358)" fill="#a1d9b0">
              <path d="M 362.113525390625 555.5886840820312 C 362.1130981445312 555.5886840820312 362.11328125 555.5886840820312 362.1128540039062 555.5886840820312 C 361.5257263183594 555.588623046875 360.9703979492188 555.5586547851562 360.4622497558594 555.4995727539062 C 356.3999328613281 555.0371704101562 353.0045471191406 553.7889404296875 350.3712463378906 551.7897338867188 C 347.827880859375 549.8587036132812 345.8873901367188 547.144287109375 344.6036987304688 543.7218627929688 C 342.9939270019531 539.4295043945312 342.7259216308594 535.38037109375 343.8070373535156 531.6868896484375 C 344.7223815917969 528.5597534179688 346.6064758300781 525.775634765625 349.2555847167969 523.6354370117188 C 350.94189453125 522.2734985351562 353.1358642578125 521.1192626953125 355.6003112792969 520.29736328125 C 358.1292724609375 519.4540405273438 360.813720703125 519.0082397460938 363.3634643554688 519.0082397460938 C 367.1467895507812 519.0082397460938 370.4767456054688 519.98095703125 372.9933166503906 521.8211669921875 C 374.7016906738281 523.0714111328125 376.1971435546875 524.479248046875 377.4381713867188 526.0055541992188 C 378.7218322753906 527.5842895507812 379.739990234375 529.298583984375 380.4643859863281 531.100830078125 C 382.0183410644531 534.9669189453125 382.2317504882812 539.1820068359375 381.0986938476562 543.6290283203125 C 379.873046875 548.440185546875 376.0814208984375 551.2857666015625 373.116455078125 552.82568359375 C 369.7854919433594 554.5556640625 365.6719665527344 555.5886840820312 362.113525390625 555.5886840820312 Z" stroke="none"/>
              <path d="M 362.1128845214844 555.2386474609375 C 368.2858276367188 555.2388916015625 378.6370544433594 551.8742065429688 380.759521484375 543.5426025390625 C 383.0819702148438 534.427490234375 379.441650390625 526.9739990234375 372.7867431640625 522.1036987304688 C 366.1327514648438 517.2380981445312 354.9715881347656 519.468994140625 349.4755249023438 523.90771484375 C 344.7224731445312 527.7476196289062 341.5230712890625 534.5107421875 344.931396484375 543.5989379882812 C 347.4164428710938 550.2243041992188 352.3265991210938 554.2212524414062 360.502685546875 555.1519165039062 C 360.9960327148438 555.2092895507812 361.5365600585938 555.2386474609375 362.1128845214844 555.2386474609375 M 362.1134948730469 555.9386596679688 L 362.1134948730469 555.2386474609375 L 362.1132507324219 555.9386596679688 C 361.5122375488281 555.9386596679688 360.9432983398438 555.9078979492188 360.4218139648438 555.8472290039062 C 356.2969970703125 555.377685546875 352.8437194824219 554.1062622070312 350.1596069335938 552.0684814453125 C 347.5627746582031 550.096923828125 345.583251953125 547.3300170898438 344.2760009765625 543.8447875976562 C 342.6390380859375 539.4799194335938 342.3682556152344 535.3563232421875 343.4711303710938 531.5885620117188 C 344.4066162109375 528.3927001953125 346.3307800292969 525.5484008789062 349.0356140136719 523.3632202148438 C 350.7541809082031 521.9752197265625 352.9859008789062 520.80029296875 355.4895935058594 519.9653930664062 C 358.0538024902344 519.1102294921875 360.7765502929688 518.658203125 363.3634643554688 518.658203125 C 367.2215881347656 518.658203125 370.6229858398438 519.6542358398438 373.1999206542969 521.5386352539062 C 374.9325561523438 522.806640625 376.4497985839844 524.2352294921875 377.7097473144531 525.7847900390625 C 379.0155639648438 527.3907470703125 380.0516357421875 529.1354370117188 380.7891540527344 530.9702758789062 C 382.3713989257812 534.9067993164062 382.5896606445312 539.1948852539062 381.4378356933594 543.7154541015625 C 380.4424438476562 547.622802734375 377.6208801269531 550.88037109375 373.2781982421875 553.135986328125 C 369.8994750976562 554.8909301757812 365.7257385253906 555.9386596679688 362.1134948730469 555.9386596679688 Z" stroke="none" fill="#937b32"/>
            </g>
            <path id="29c-Path_28" data-name="29c-Path 28" d="M362.368,551.7c-3.053-.858-3.282-4.21-2.709-6.061s2.4-3.876,1.325-4.806-2.5,1.757-4.921,2.954c-5.335,2.648-8.258-3.567-4.309-5.859s5.1-2.116,5.258-3.206-.286-1.527-2-2.92c-1.851-1.5-4.053-4.374-1.733-6.636s4.474-1.616,6.293.467c1.247,1.417,1.712,5.718,3.1,5.366s.558-2.393,3.041-4.316c3.026-2.365,7.375.637,7.046,3.9-.274,2.713-4.468,2.8-4.278,4.471.176,1.532,2.261.875,6.284,1.673,4.325.863,3.611,7.012-.391,6.995s-7.35-2.94-8.329-1.941c-1.214,1.239,1.588,3.25,1.7,5.484C367.973,551.5,365.874,552.677,362.368,551.7Z" transform="translate(-343.997 -519.69)" fill="#ff7b00"/>
            <path id="29c-Path_29" data-name="29c-Path 29" d="M362.459,534.619a3.035,3.035,0,0,0-2.091,3.662,3.188,3.188,0,0,0,4,2.156,2.878,2.878,0,0,0,2-3.556A3.236,3.236,0,0,0,362.459,534.619Z" transform="translate(-344.78 -520.509)" fill="#856f35"/>
          </g>
        </g>
        <g id="29c-Group_30" data-name="29c-Group 30" transform="translate(101.584 172.299)">
          <g id="29c-Group_29" data-name="29c-Group 29">
            <path id="29c-Path_30" data-name="29c-Path 30" d="M373.219,566.2c-11.975-3.516-12.735,6.28-14.525,7.188-1.31.664-9.216-4.2-12.611,5.861-3.9,11.54,7.176,13.8,7.8,14.9s-3.16,9.907,8.421,13.014c12.531,3.363,13.327-7.308,14.447-8.025,1.276-.81,9.354,2.585,12.147-6.4,2.949-9.487-7.046-11.3-7.45-12.439s4.044-10.487-8.227-14.094" transform="translate(-345.253 -565.438)" fill="#856f35"/>
            <path id="29c-Path_31" data-name="29c-Path 31" d="M371.229,579.694c-3.372-1.446-8.922-.543-10.989,3.191s-2.942,8.682,2.147,11.594,11.331,1.23,13.216-2.588,1.815-9.533-4.374-12.2" transform="translate(-346.266 -566.469)" fill="#f32f90"/>
          </g>
        </g>
        <g id="29c-Group_32" data-name="29c-Group 32" transform="translate(134.616 193.196)">
          <g id="29c-Group_31" data-name="29c-Group 31">
            <g id="29c-Path_32" data-name="29c-Path 32" transform="translate(-380.995 -588.049)" fill="#a1d9b0">
              <path d="M 402.6622009277344 630.2129516601562 C 402.6616821289062 630.2129516601562 402.6619262695312 630.2129516601562 402.6614074707031 630.2129516601562 C 401.9332580566406 630.2129516601562 401.2469482421875 630.1741333007812 400.6215515136719 630.0975952148438 C 398.2426147460938 629.811767578125 396.0485534667969 629.2950439453125 394.1011352539062 628.5618286132812 C 392.1768798828125 627.8373413085938 390.4319458007812 626.8783569335938 388.9148559570312 625.711669921875 C 387.4235229492188 624.5647583007812 386.105224609375 623.1807861328125 384.9966125488281 621.5982666015625 C 383.9137878417969 620.0526123046875 382.9961242675781 618.2673950195312 382.26904296875 616.2922973632812 C 380.4292297363281 611.2897338867188 380.1470031738281 606.5806274414062 381.4302368164062 602.2957153320312 C 382.5165710449219 598.668212890625 384.7260437011719 595.4466552734375 387.81982421875 592.9793701171875 C 389.771484375 591.4224853515625 392.3051452636719 590.1043090820312 395.1469116210938 589.1675415039062 C 398.0614624023438 588.2067260742188 401.1575012207031 587.6989135742188 404.100341796875 587.6989135742188 C 408.5644836425781 587.6989135742188 412.4821472167969 588.85302734375 415.4298095703125 591.0365600585938 C 417.4081726074219 592.504150390625 419.1374206542969 594.15283203125 420.5696105957031 595.9369506835938 C 422.05078125 597.7820434570312 423.2221984863281 599.782470703125 424.05126953125 601.8826904296875 C 425.8298034667969 606.3881225585938 426.0472106933594 611.2909545898438 424.6973876953125 616.4548950195312 C 423.24609375 622.003173828125 418.8555297851562 625.2739868164062 415.4278869628906 627.0408325195312 C 411.5747375488281 629.0270385742188 406.8022155761719 630.2129516601562 402.6622009277344 630.2129516601562 Z" stroke="none"/>
              <path d="M 402.6614074707031 629.8629760742188 C 409.8694458007812 629.8632202148438 421.8371887207031 626.0062866210938 424.3587646484375 616.3663940429688 C 427.1322021484375 605.7560424804688 422.9429321289062 597.0457763671875 415.2214660644531 591.3178100585938 C 407.5000915527344 585.5982055664062 394.475830078125 588.1173706054688 388.0380554199219 593.2529907226562 C 382.469970703125 597.693603515625 378.69287109375 605.5546264648438 382.5975036621094 616.17138671875 C 385.4466857910156 623.9113159179688 391.1413879394531 628.6060791015625 400.6640625 629.7501831054688 C 401.2731323242188 629.82470703125 401.9440612792969 629.8629760742188 402.6614074707031 629.8629760742188 M 402.6621398925781 630.56298828125 L 402.6621398925781 629.8629760742188 L 402.6618347167969 630.56298828125 C 401.9190979003906 630.5629272460938 401.218505859375 630.5232543945312 400.5790405273438 630.4450073242188 C 398.1730041503906 630.1559448242188 395.9515075683594 629.6324462890625 393.977783203125 628.8893432617188 C 392.0212097167969 628.1527099609375 390.2459716796875 627.1768798828125 388.7014770507812 625.9891357421875 C 387.1819458007812 624.8204956054688 385.8390197753906 623.4107666015625 384.7099609375 621.799072265625 C 383.6098327636719 620.2286987304688 382.6781005859375 618.4166259765625 381.9405822753906 616.4132080078125 C 380.0740051269531 611.337890625 379.7895202636719 606.5543823242188 381.0949401855469 602.1953125 C 382.2018432617188 598.4991455078125 384.4518127441406 595.2177124023438 387.6015930175781 592.7056884765625 C 389.5853271484375 591.1232299804688 392.1565856933594 589.7847900390625 395.0373229980469 588.8351440429688 C 397.9867858886719 587.8628540039062 401.1207275390625 587.3489379882812 404.100341796875 587.3489379882812 C 408.6400451660156 587.3489379882812 412.6297607421875 588.52685546875 415.6381225585938 590.7553100585938 C 417.6407470703125 592.2409057617188 419.3916320800781 593.9104614257812 420.8425598144531 595.7178344726562 C 422.3457336425781 597.59033203125 423.5348205566406 599.6212768554688 424.3768310546875 601.754150390625 C 426.1832275390625 606.3302001953125 426.405029296875 611.3060302734375 425.0360107421875 616.5433959960938 C 423.8614807128906 621.0336303710938 420.5946655273438 624.77099609375 415.5887451171875 627.3516235351562 C 411.6880187988281 629.3624877929688 406.8556518554688 630.56298828125 402.6621398925781 630.56298828125 Z" stroke="none" fill="#937b32"/>
            </g>
            <path id="29c-Path_33" data-name="29c-Path 33" d="M403.009,626.33c-3.729-1.072-3.982-5.175-3.266-7.435.729-2.276,2.967-4.725,1.658-5.869s-3.077,2.131-6.044,3.576c-6.549,3.2-10.077-4.426-5.228-7.2s7.174-2.191,7.379-3.524-2.768-2.173-4.849-3.89c-2.254-1.85-3.529-5.079-.672-7.831s5.252-1.507,7.46,1.055c1.516,1.744,1.823,6.393,3.528,5.975,1.7-.435,2.736-4.345,5.788-6.68,3.722-2.87,8.19.761,7.762,4.75-.356,3.321-5.694,4.706-5.9,6.755-.173,1.761,2.761,1.089,7.677,2.1,5.285,1.089,4.363,8.609-.531,8.556s-8.588-4.42-10.178-2.438c-1.17,1.46,1.918,3.991,2.041,6.725C409.869,626.132,407.291,627.561,403.009,626.33Z" transform="translate(-381.516 -588.394)" fill="#ff480b"/>
            <path id="29c-Path_34" data-name="29c-Path 34" d="M404.419,605.015a3.708,3.708,0,0,0-2.585,4.462,3.9,3.9,0,0,0,4.88,2.672,3.525,3.525,0,0,0,2.469-4.34A3.961,3.961,0,0,0,404.419,605.015Z" transform="translate(-382.564 -589.328)" fill="#a1d9b0"/>
          </g>
        </g>
        <path id="29c-Path_35" data-name="29c-Path 35" d="M309.455,492.91c-2.476-2.161-7.45-2.919-10.236-.306s-3.671,7.4-1.362,10.465c3.159,4.193,9.317,4.168,11.973,1.435S313.993,496.881,309.455,492.91Z" transform="translate(-239.974 -387.49)" fill="#f4f1eb"/>
      </g>
    </g>
  </g>
</svg>
