<svg width="200" height="300" viewBox="0 0 200 300" fill="none" xmlns="http://www.w3.org/2000/svg">
<g clip-path="url(#clip0_843:27191)">
<path d="M0 10C0 4.47716 4.47715 0 10 0H190C195.523 0 200 4.47715 200 10V290C200 295.523 195.523 300 190 300H10C4.47716 300 0 295.523 0 290V10Z" fill="#CBB2AD"/>
<g clip-path="url(#clip1_843:27191)">
<path d="M215 -41H-22.8984V196.746H215V-41Z" fill="#CBB2AD"/>
<path d="M39.2707 -26.2947C5.27184 -25.9872 -29.3238 -5.0474 -31.7203 35.0709C-34.294 78.2551 -19.0011 92.8487 2.47434 100.872C23.9498 108.896 47.2995 103.91 45.5651 116.789C43.1592 134.7 -9.79733 167.745 -9.79733 169.796C-9.79733 173.085 34.4217 142.053 55.7573 126.574C71.5444 115.121 83.4338 107.237 97.7197 84.8809C112.006 62.5246 116.09 34.2415 103.949 6.03288C94.6238 -15.6524 71.6004 -26.5836 39.2427 -26.2947" fill="#508C30"/>
<path d="M29.7217 12.873C24.3599 12.6213 7.17394 7.9898 -5.48006 14.1217C-18.1341 20.2536 -24.7175 33.5518 -23.9528 50.0371C-23.1882 66.5224 -13.2198 91.4228 32.4073 92.1869C78.0344 92.9511 88.3012 57.7067 87.2382 42.3769C86.4735 31.2687 81.1676 17.9518 68.4857 13.3482C56.8667 9.12672 37.7132 13.255 29.6938 12.873" fill="#E73B1F"/>
<path d="M30.7571 32.7131C28.0995 32.6013 18.2803 31.1009 12.0046 33.9059C5.72887 36.7109 3.78928 42.1812 4.16228 49.7482C4.53528 57.3152 9.48684 68.6471 32.1186 68.964C54.7503 69.2808 59.8044 53.2149 59.2822 46.179C58.8999 41.1002 57.1281 34.6328 50.8897 32.5267C45.1362 30.5977 34.8041 32.8622 30.8131 32.6851" fill="#0C8F86"/>
<path d="M161.903 -36.3404C184.581 -36.1261 207.596 -22.1662 209.246 4.57931C210.962 33.3843 200.77 43.0947 186.446 48.4625C172.123 53.8302 156.551 50.4847 157.707 59.0768C159.32 71.0237 194.625 93.0259 194.625 94.4238C194.625 96.6137 165.139 75.9255 150.918 65.6001C140.39 57.9585 132.464 52.7119 122.943 37.8015C117.91 30.0826 114.892 21.2264 114.166 12.0418C113.439 2.85721 115.027 -6.3629 118.784 -14.7762C124.986 -29.2393 140.334 -36.5361 161.903 -36.3404Z" fill="#EFD000"/>
<path d="M129.098 56.5141C139.486 56.6073 150.042 63.0374 150.779 75.2546C151.562 88.441 146.899 92.8862 140.335 95.3464C133.77 97.8066 126.646 96.2783 127.177 100.211C127.914 105.681 144.083 115.755 144.083 116.398C144.083 117.404 130.581 107.927 124.063 103.193C119.242 99.6983 115.614 97.294 111.241 90.4632C108.94 86.9252 107.564 82.8673 107.238 78.6605C106.913 74.4538 107.647 70.2325 109.376 66.3829C112.229 59.7664 119.251 56.4209 129.135 56.5141" fill="#D2D3DE"/>
<path d="M169.858 88.0867C151.758 88.2544 133.341 99.3999 132.063 120.759C130.693 143.74 139.523 150.207 150.956 154.494C162.388 158.781 174.128 157.401 173.205 164.26C171.918 173.803 143.729 191.36 143.729 192.478C143.729 194.23 167.275 177.707 178.632 169.469C187.025 163.375 193.366 159.219 201.012 147.272C205.023 141.113 207.427 134.05 208.007 126.726C208.587 119.401 207.324 112.048 204.332 105.336C199.362 93.7899 187.109 87.9655 169.886 88.1239" fill="#00151D"/>
<path d="M166.323 106.156C163.33 106.007 153.753 103.435 146.741 106.846C139.729 110.257 136.017 117.684 136.484 126.863C136.95 136.042 142.47 149.928 167.89 150.356C193.31 150.785 199.035 131.159 198.448 122.595C198.019 116.398 195.063 108.98 188.013 106.417C181.542 104.069 170.883 106.371 166.398 106.156" fill="#9D8A40"/>
<path d="M167.527 113.267C166.044 113.201 160.57 112.335 157.083 113.928C153.595 115.522 152.495 118.541 152.709 122.735C152.924 126.928 155.675 133.265 168.263 133.479C180.852 133.694 183.696 124.701 183.407 120.787C183.193 117.991 182.204 114.348 178.745 113.173C175.537 112.102 169.774 113.36 167.555 113.267" fill="#E73B1F"/>
<path d="M92.7304 126.556C90.3526 126.444 82.7247 124.384 77.1204 127.105C71.5161 129.827 68.5788 135.735 68.9238 143.041C69.2688 150.347 73.6795 161.399 93.924 161.735C114.169 162.07 118.71 146.461 118.244 139.639C117.908 134.71 115.549 128.801 109.944 126.77C104.788 124.906 96.3019 126.723 92.7304 126.556Z" fill="#EB600A"/>
<path d="M93.2251 135.353C92.0501 135.306 87.6954 134.644 84.9165 135.884C82.1377 137.123 81.2611 139.555 81.429 142.892C81.5968 146.228 83.7882 151.279 93.8219 151.447C103.856 151.614 106.103 144.457 105.87 141.345C105.702 139.09 104.937 136.219 102.14 135.287C99.594 134.43 95.0062 135.436 93.2344 135.353" fill="#9D8A40"/>
<path d="M46.8523 139.788C33.1446 139.919 19.1944 148.362 18.2246 164.54C17.1802 181.948 23.3533 187.837 32.0069 191.071C40.6605 194.305 50.088 192.301 49.3887 197.492C48.4562 204.714 27.0647 217.993 27.0647 218.869C27.0647 220.193 44.894 207.687 53.501 201.434C59.8606 196.821 64.6909 193.643 70.4351 184.659C73.4823 179.987 75.3085 174.626 75.7467 169.067C76.1849 163.507 75.2211 157.926 72.9435 152.835C69.2136 144.094 59.8886 139.677 46.8336 139.788" fill="#6FBDBB"/>
<path d="M46.9082 157.914C45.9757 157.914 40.7071 154.279 36.8092 157.187C32.9114 160.095 35.3266 166.506 38.982 170.467C40.6884 172.33 45.9384 176.561 46.8616 176.487C47.7847 176.412 51.9344 174.064 54.6852 171.175C58.5644 167.102 61.0262 161.725 57.2962 157.495C54.9183 154.764 47.85 157.932 46.8895 157.942" fill="#009FE3"/>
<path d="M46.9082 157.914C45.9757 157.914 40.7071 154.279 36.8092 157.187C32.9114 160.095 35.3266 166.506 38.982 170.467C40.6884 172.33 45.9384 176.561 46.8616 176.487C47.7847 176.412 51.9344 174.064 54.6852 171.175C58.5644 167.102 61.0262 161.725 57.2962 157.495C54.9183 154.764 47.85 157.932 46.8895 157.942L46.9082 157.914Z" stroke="#A9924D" stroke-width="0.72"/>
</g>
</g>
<defs>
<clipPath id="clip0_843:27191">
<path d="M0 10C0 4.47716 4.47715 0 10 0H190C195.523 0 200 4.47715 200 10V290C200 295.523 195.523 300 190 300H10C4.47716 300 0 295.523 0 290V10Z" fill="white"/>
</clipPath>
<clipPath id="clip1_843:27191">
<rect width="247" height="260" fill="white" transform="translate(-32 -41)"/>
</clipPath>
</defs>
</svg>
