<svg xmlns="http://www.w3.org/2000/svg" xmlns:xlink="http://www.w3.org/1999/xlink" width="200" height="300" viewBox="0 0 200 300">
  <defs>
    <clipPath id="19b-clip-path">
      <rect id="19b-Rectangle_2" data-name="19b-Rectangle 2" width="263" height="263" transform="translate(-0.109)" fill="none"/>
    </clipPath>
    <clipPath id="19b-clip-Rityta_1">
      <rect width="200" height="300"/>
    </clipPath>
  </defs>
  <g id="19b-Rityta_1" data-name="19b-Rityta 1" clip-path="url(#19b-clip-Rityta_1)">
    <rect width="200" height="300" fill="#3eaf8c"/>
    <g id="19b-Group_7" data-name="19b-Group 7" transform="translate(-253.491 -379.102)">
      <g id="19b-Group_6" data-name="19b-Group 6" transform="translate(221.6 379.102)" clip-path="url(#19b-clip-path)">
        <g id="19b-Group_1" data-name="19b-Group 1" transform="translate(4.067 -67.654)">
          <path id="19b-Path_1" data-name="19b-Path 1" d="M335.822,272.18S319.794,300.8,303.273,318.8c-16.062,17.5-48.851,18.173-65.482,50.088s-12.8,59.955,17.583,81.749c33.3,23.883,76.191,13.917,93.521-30.153,17.566-44.667,19.993-69.5,24.919-85.705,4.934-16.234,20.861-47.937,20.861-47.937Z" transform="translate(-228.028 -272.18)" fill="#3eaf8c"/>
          <path id="19b-Path_2" data-name="19b-Path 2" d="M349.743,289.509s-14.9,29.526-35.593,47.854c-19.93,17.65-62.111,32.358-54.159,69.08,6.767,31.246,52.957,44.122,74.344,16.637,22.109-28.416,30.807-64.768,35.7-76.764,4.908-12.045,14.991-39.387,14.991-39.387Z" transform="translate(-239.404 -278.544)" fill="#6c640e" stroke="#937b32" stroke-width="0.7"/>
          <path id="19b-Path_3" data-name="19b-Path 3" d="M370.207,294.5s-16,29.171-32.951,48.736c-12.128,14-47.763,29.958-49.17,51.343-1.421,21.6,19.614,37.074,38.624,27.047,25.147-13.26,32.564-43.536,39.178-64.018,8.565-26.533,27.032-60.671,27.032-60.671Z" transform="translate(-250.06 -280.378)" fill="#fb1a26" stroke="#937b32" stroke-width="0.7"/>
          <path id="19b-Path_4" data-name="19b-Path 4" d="M385.444,296.934s-15.15,35.477-23.036,46.4c-16.913,23.434-38.021,24.3-47.966,43.586-9.822,19.051,8.918,31.851,22.742,22.257,14.2-9.857,19.933-23.9,27.364-43.644,7.818-20.772,29.529-65.391,29.529-65.391Z" transform="translate(-258.76 -281.271)" fill="#5d976d" stroke="#937b32" stroke-width="0.7"/>
        </g>
        <g id="19b-Group_2" data-name="19b-Group 2" transform="translate(18.732 2.326)">
          <path id="19b-Path_5" data-name="19b-Path 5" d="M349.508,382.778s-9.521,8.615-24.3,24.715c-14.366,15.653-50.507,32.619-65.382,61.165S248.979,535,274.591,549.227C303.1,565.07,345.826,557.975,359.8,519.7s16.611-66.189,21.936-83.943,20.414-39.867,20.414-39.867Z" transform="translate(-251.205 -382.778)" fill="#39726e"/>
          <path id="19b-Path_6" data-name="19b-Path 6" d="M365.558,405.5s-20.265,24.72-36.488,38.6-45.494,37.737-41.761,69.18,45.667,35.568,65.8,12.075c16.868-19.685,24.877-53.663,30.6-69.042s13.408-35.229,13.408-35.229Z" transform="translate(-264.345 -391.124)" fill="#57500b" stroke="#937b32" stroke-width="0.7"/>
          <path id="19b-Path_7" data-name="19b-Path 7" d="M385.373,398.638s-14.309,26.091-29.473,43.591c-10.847,12.52-46.234,30.994-45.739,53.768.422,19.4,20.248,29.95,44.292,17.717,22.257-11.323,21.142-40.309,27.059-58.63,7.66-23.732,24.178-54.266,24.178-54.266Z" transform="translate(-272.855 -388.603)" fill="#fb1a26" stroke="#937b32" stroke-width="0.7"/>
          <path id="19b-Path_8" data-name="19b-Path 8" d="M399.834,397.235s-12.566,23.7-22.192,39.844-30.37,25.01-41.315,40.645,3.987,30.423,20.341,19.909c12.924-8.309,19.363-24.269,24.476-39.038s26.412-58.488,26.412-58.488Z" transform="translate(-281.09 -388.087)" fill="#e6eac8" stroke="#937b32" stroke-width="0.7"/>
        </g>
        <g id="19b-Group_3" data-name="19b-Group 3" transform="translate(97.554 -68.401)">
          <path id="19b-Path_9" data-name="19b-Path 9" d="M446.535,282.15s2.128,35.082,9.393,60.9,41.477,49.765,41.134,88.781-17.466,63.21-56.35,61.935-68.247-33.547-64.634-82.1S387.3,339.9,389.7,323.091,391.913,271,391.913,271Z" transform="translate(-375.778 -270.999)" fill="#229730"/>
          <path id="19b-Path_10" data-name="19b-Path 10" d="M445.775,306.109s.654,35.258,11.391,63.564,44.177,66.039,19.078,96.965c-20.515,25.278-66.074,15.992-75.43-28.051-8-37.652,10.05-79.174,10.859-92.431s-2.446-39.394-2.446-39.394Z" transform="translate(-384.224 -283.893)" fill="#c9b903" stroke="#937b32" stroke-width="0.7"/>
          <path id="19b-Path_11" data-name="19b-Path 11" d="M443.866,299.963s1.662,35.015,8.257,62.163c4.835,19.9,31,56.365,22.663,78.04S436.3,460.777,424.1,439.5c-15.437-26.924-5.048-56.73-2.254-78.846,3.607-28.545,2.148-68.3,2.148-68.3Z" transform="translate(-390.487 -278.842)" fill="#270e2d" stroke="#937b32" stroke-width="0.7"/>
          <path id="19b-Path_12" data-name="19b-Path 12" d="M445.7,312.253s.73,39.6,2.514,52.7c3.9,28.626,18.386,38.23,18.547,60.541s-21.439,20.848-28.346,4.822-3.571-35.193-1.469-55.375c2.2-21.108,7.091-62.686,7.091-62.686Z" transform="translate(-397.259 -286.149)" fill="#e6eac8" stroke="#937b32" stroke-width="0.7"/>
        </g>
        <g id="19b-Group_4" data-name="19b-Group 4" transform="translate(11.858 -35.014)">
          <path id="19b-Path_13" data-name="19b-Path 13" d="M348.122,323.765s-16.978,27.6-31.418,38.919c-14.062,11.024-55.689,15.7-68.658,37.687-12.165,20.624-11.159,40.647,11.969,55.3,21.449,13.6,58.237,7.575,72.756-15,15.69-24.391,17.372-41.354,23.089-56.516,7.926-21.022,22.1-47.748,22.1-47.748Z" transform="translate(-240.341 -323.765)" fill="#fe4112"/>
          <path id="19b-Path_14" data-name="19b-Path 14" d="M358.237,345.736s-13.489,22.29-38.337,36.252c-16.8,10.395-54.127,17.152-48.712,44.856,4.037,20.658,27.61,30.97,49.437,21.131,26.345-11.875,30.563-34.057,38.6-55.483s25.156-42.043,25.156-42.043Z" transform="translate(-251.475 -331.834)" fill="#0868ac" stroke="#937b32" stroke-width="0.7"/>
          <path id="19b-Path_15" data-name="19b-Path 15" d="M363.939,360.63s-17.4,22.043-31.581,31.049-41.658,13.866-45.1,32.475c-3.9,16.166,16.068,25.99,33.458,20.518,24.278-7.64,29.22-30.7,36-43.33,7.394-16.129,19.923-34.372,19.923-34.372Z" transform="translate(-257.389 -337.304)" fill="#de037f" stroke="#937b32" stroke-width="0.7"/>
          <path id="19b-Path_16" data-name="19b-Path 16" d="M374.153,365.459s-12.48,19.485-31.1,33.18c-17.008,12.507-28.4,10.286-36.765,21.773-8.067,11.079,5.4,21.213,19.755,15.929,13.825-5.086,17.986-14.211,24.654-25.415,7.254-12.184,27.181-42.622,27.181-42.622Z" transform="translate(-263.668 -339.077)" fill="#fd0011" stroke="#937b32" stroke-width="0.7"/>
        </g>
        <g id="19b-Group_5" data-name="19b-Group 5" transform="translate(150.357 -64.86)">
          <path id="19b-Path_17" data-name="19b-Path 17" d="M548.62,277.14s1.568,65.162.461,90.278-4.413,66.423-45.43,67.989c-36.4,1.391-54.458-33.78-38.7-66.589,14.425-30.043,30.921-32.4,44.336-52.885A205.651,205.651,0,0,0,529.4,276.6Z" transform="translate(-459.228 -276.596)" fill="#da037f"/>
          <path id="19b-Path_18" data-name="19b-Path 18" d="M550.095,301.235s-2.634,60.429-3.452,79.115-2.78,49.223-33.085,48.164c-20.467-.714-34.435-20.464-26.688-44.255,5.849-17.961,17.868-24.5,26.233-33.844,19.53-21.806,24.153-48.721,24.153-48.721Z" transform="translate(-468.583 -285.645)" fill="#320162"/>
        </g>
      </g>
    </g>
  </g>
</svg>
