<svg width="200" height="300" viewBox="0 0 200 300" fill="none" xmlns="http://www.w3.org/2000/svg">
<rect width="200" height="300" fill="#C8B9BB"/>
<path d="M120.145 142L120.711 162.639L105.481 153.582L91 158.295L102.283 164.627L120.894 164.443L122.401 269.345L127.588 270L125.224 164.443H143.46L157 158.11L139.138 153.766L124.849 162.455L123.908 142H120.145Z" fill="#004E2A"/>
<path d="M97.209 158.465L105.748 155.68L115.955 162.361L104.072 162.92L97.209 158.465Z" fill="#006B37"/>
<path d="M129.688 162.551L139.336 155.869L149.732 158.647L143.42 162.732L129.688 162.551Z" fill="#006B37"/>
<path d="M100.924 158.956L104.631 161.063L110.844 160.882L105.257 157.537L100.924 158.956Z" fill="#009252"/>
<path d="M140.084 157.711L134.701 161.176L142.402 161.063L145.391 159.176L140.084 157.711Z" fill="#009252"/>
<path d="M117.51 142.83L120.961 143.238L119.247 154.275L113.66 152.811L117.51 142.83Z" fill="#E3D61B"/>
<path d="M120.198 143.08L126.343 143.284L124.38 155.001L119.262 154.578L120.198 143.08Z" fill="#E6AA00"/>
<path d="M130.888 153.672L123.769 155.084L123.414 143.488L128.435 142.4L130.888 153.672Z" fill="#E2D856"/>
<path d="M129.537 141.893L132.987 153.323L140.348 149.345L134.037 140.232L129.537 141.893Z" fill="#E5C500"/>
<path d="M130.089 141.494L133.781 152.811L128.685 154.276L126.314 143.095L130.089 141.494Z" fill="#F39200"/>
<path d="M134.867 139.32L144.289 147.051L150.329 139.32L138.778 134.496L134.867 139.32Z" fill="#666019"/>
<path d="M138.982 133L150.337 133.944L151.334 126.568L139.752 125.836L138.982 133Z" fill="#A9924D"/>
<path d="M138.748 131.037L151.175 133.317L149.31 140.293L137.352 134.993L138.748 131.037Z" fill="#E83F3A"/>
<path d="M136.491 137.818L145.4 146.787L140.054 150.237L132.814 140.408L136.491 137.818Z" fill="#F3DFDA"/>
<path d="M101.197 110.85L97.3613 117.267L107.946 122.672L110.996 116.942L101.197 110.85Z" fill="#DA007E"/>
<path d="M111.796 116.649L103.303 109.416L110.067 103.641L114.446 115.003L111.796 116.649Z" fill="#666019"/>
<path d="M112.793 115.841L103.356 108.594L100.275 112.905L110.022 118.869L112.793 115.841Z" fill="#F39200"/>
<path d="M118.061 113.426L113.169 103.158L105.854 105.997L113.161 115.774L118.061 113.426Z" fill="#F3DFDA"/>
<path d="M138.786 122.718L149.023 117.471L146.864 114.127L137.623 119.389L138.786 122.718Z" fill="#00724D"/>
<path d="M139.789 126.931L138.098 121.721L149.097 117.252L151.71 126.674L139.789 126.931Z" fill="#DAC400"/>
<path d="M110.754 138.528L101.499 146.493L97.0293 140.967L107.183 133.84L110.754 138.528Z" fill="#F4DE00"/>
<path d="M107.251 132.299L95.8736 132.895L95.1035 125.489L106.7 125.111L107.251 132.299Z" fill="#B289BE"/>
<path d="M107.356 131.371L95.1562 132.662L97.2701 141.148L108.949 135.259L107.356 131.371Z" fill="#97CFB8"/>
<path d="M109.795 137.832L98.8027 145.986L104.82 151.331L113.396 140.535L109.795 137.832Z" fill="#666019"/>
<path d="M106.903 126.599L108.338 121.314L97.1416 117.389L94.9824 126.924L106.903 126.599Z" fill="#A9924D"/>
<path d="M136.672 117.757L142.862 109.8L137.517 105.965L132.625 115.273L136.672 117.757Z" fill="#E5C500"/>
<path d="M131.198 114.036L133.124 103.58L124.426 102.342L122.818 113.13L131.198 114.036Z" fill="#ED6A55"/>
<path d="M121.232 112.345L119.889 100.387L110.127 103.097L115.412 114.497L121.232 112.345Z" fill="#D7C4CB"/>
<path d="M124.495 113.077L125.876 101.881L117.391 101.707L117.987 113.084L124.495 113.077Z" fill="#E9B800"/>
<path d="M133.433 115.818L138.997 105.86L133.305 102.795L129.055 113.651L133.433 115.818Z" fill="#E8308A"/>
<path d="M137.532 120.083L135.139 116.769L141.865 109.076L147.429 114.761L137.532 120.083Z" fill="#F9C5B1"/>
<path d="M117.948 143.011L114.929 153.347L105.25 149.617L112.935 140.361L117.948 143.011Z" fill="#BEC514"/>
<path d="M125.491 118.528L123.053 118.279L124.147 110.48L128.096 111.454L125.491 118.528Z" fill="#E3D61B"/>
<path d="M123.588 118.385L119.262 118.309L120.515 110.027L124.131 110.269L123.588 118.385Z" fill="#E6AA00"/>
<path d="M115.939 111.031L120.945 109.959L121.315 118.135L117.789 118.951L115.939 111.031Z" fill="#E2D856"/>
<path d="M117.021 119.328L114.461 111.303L109.312 114.187L113.865 120.543L117.021 119.328Z" fill="#E5C500"/>
<path d="M116.636 119.608L113.91 111.673L117.489 110.586L119.278 118.445L116.636 119.608Z" fill="#F39200"/>
<path d="M113.29 121.193L106.564 115.848L102.389 121.359L110.588 124.643L113.29 121.193Z" fill="#F4DE00"/>
<path d="M110.459 125.7L102.441 125.156L101.822 130.365L109.991 130.758L110.459 125.7Z" fill="#A9924D"/>
<path d="M110.332 126.923L101.861 125.609L103.099 120.664L111.276 124.114L110.332 126.923Z" fill="#666019"/>
<path d="M112.159 122.272L105.779 116.044L109.516 113.553L114.726 120.408L112.159 122.272Z" fill="#F3DFDA"/>
<path d="M137.343 140.905L139.978 136.338L132.458 132.639L130.367 136.715L137.343 140.905Z" fill="#DA007E"/>
<path d="M129.801 136.926L135.871 141.939L131.16 146.083L127.951 138.119L129.801 136.926Z" fill="#E5C500"/>
<path d="M129.115 137.509L135.842 142.521L137.971 139.441L131.033 135.342L129.115 137.509Z" fill="#F39200"/>
<path d="M125.422 139.274L128.978 146.454L134.111 144.378L128.849 137.561L125.422 139.274Z" fill="#F3DFDA"/>
<path d="M110.708 132.947L103.551 136.76L105.106 139.093L111.561 135.28L110.708 132.947Z" fill="#867438"/>
<path d="M109.953 129.98L111.199 133.642L103.499 136.911L101.551 130.298L109.953 129.98Z" fill="#DAC400"/>
<path d="M130.299 121.496L136.739 115.773L139.947 119.624L132.866 124.757L130.299 121.496Z" fill="#F4DE00"/>
<path d="M132.836 125.844L140.854 125.301L141.473 130.518L133.304 130.91L132.836 125.844Z" fill="#D292C0"/>
<path d="M132.776 126.5L141.36 125.458L139.774 119.494L131.605 123.775L132.776 126.5Z" fill="#97CFB8"/>
<path d="M130.987 121.97L137.932 116.965L133.629 113.258L128.42 120.105L130.987 121.97Z" fill="#F3DFDA"/>
<path d="M133.147 129.861L132.195 133.605L140.13 136.255L141.549 129.506L133.147 129.861Z" fill="#A9924D"/>
<path d="M112.248 136.414L107.975 142.099L111.787 144.741L115.132 138.128L112.248 136.414Z" fill="#E5C500"/>
<path d="M116.152 138.988L114.906 146.379L121.052 147.157L122.063 139.532L116.152 138.988Z" fill="#ED6A55"/>
<path d="M123.195 140.068L124.275 148.486L131.122 146.47L127.28 138.49L123.195 140.068Z" fill="#D7C4CB"/>
<path d="M120.884 139.591L120.031 147.495L126.018 147.525L125.474 139.508L120.884 139.591Z" fill="#E9B800"/>
<path d="M114.559 137.75L110.746 144.831L114.793 146.938L117.669 139.23L114.559 137.75Z" fill="#E8308A"/>
<path d="M111.622 134.791L113.343 137.101L108.685 142.597L104.699 138.649L111.622 134.791Z" fill="#F9C5B1"/>
<path d="M125.182 118.407L127.197 111.092L134.06 113.613L128.745 120.227L125.182 118.407Z" fill="#BEC514"/>
<path d="M110.951 129.489C111.237 135.151 116.114 138.956 121.913 138.813C127.711 138.67 132.958 133.528 132.029 127.277C131.236 121.917 127.054 118.407 120.75 119.033C114.446 119.66 110.686 124.378 110.935 129.489" fill="#DAC400"/>
<path d="M113.124 129.597C113.358 134.126 117.284 137.222 121.957 137.146C126.631 137.071 130.858 132.858 130.111 127.853C129.469 123.527 126.095 120.703 121.051 121.201C116.008 121.7 112.883 125.474 113.124 129.597Z" fill="#F0828A"/>
<path d="M114.709 129.332C114.898 133.031 118.084 135.523 121.881 135.424C125.679 135.326 129.099 131.952 128.495 127.875C127.974 124.364 125.241 122.077 121.119 122.484C116.997 122.892 114.543 125.98 114.709 129.324" fill="#EA5156"/>
<path d="M117.655 129.166C117.693 129.653 117.827 130.127 118.049 130.561C118.271 130.996 118.577 131.382 118.949 131.698C119.321 132.013 119.751 132.252 120.216 132.401C120.681 132.55 121.17 132.605 121.656 132.564C122.183 132.556 122.703 132.437 123.181 132.216C123.66 131.995 124.087 131.676 124.435 131.28C124.782 130.884 125.043 130.419 125.201 129.916C125.358 129.413 125.408 128.882 125.348 128.359C125.054 126.403 123.529 125.12 121.233 125.339C120.261 125.372 119.341 125.787 118.671 126.493C118.001 127.199 117.637 128.141 117.655 129.113" fill="#E40425"/>
<path d="M85.7114 55.4902L86.5192 86.1717L64.7236 72.7108L44 79.7093L60.1485 89.1311L86.791 88.8669L89.7202 205.447H96.6733L92.9741 88.8669H119.08L138.46 79.445L112.89 72.9826L92.438 85.8999L91.0942 55.4902H85.7114Z" fill="#004E2A"/>
<path d="M52.3418 79.7092L64.7231 75.6777L79.5202 85.3638L62.2997 86.1716L52.3418 79.7092Z" fill="#006B37"/>
<path d="M99.4355 85.6353L113.432 75.9492L128.501 79.9807L119.351 85.8996L99.4355 85.6353Z" fill="#006B37"/>
<path d="M57.7324 80.4263L63.1077 83.4838L72.1144 83.2196L64.0212 78.3652L57.7324 80.4263Z" fill="#009252"/>
<path d="M114.513 78.6211L106.707 83.6491L117.88 83.483L122.221 80.7425L114.513 78.6211Z" fill="#009252"/>
<path d="M81.7781 57.0449L86.7835 57.6338L84.2921 73.6464L76.1914 71.5175L81.7781 57.0449Z" fill="#E3D61B"/>
<path d="M85.6809 57.4062L94.5819 57.6931L91.7432 74.6948L84.3145 74.0757L85.6809 57.4062Z" fill="#E6AA00"/>
<path d="M101.181 72.7628L90.8535 74.8087L90.3477 57.9958L97.6254 56.418L101.181 72.7628Z" fill="#E2D856"/>
<path d="M99.2246 55.6857L104.23 72.257L114.898 66.4891L105.747 53.2773L99.2246 55.6857Z" fill="#E5C500"/>
<path d="M100.026 55.1113L105.371 71.5165L97.98 73.638L94.5449 57.4215L100.026 55.1113Z" fill="#F39200"/>
<path d="M106.947 51.9555L120.612 63.159L129.369 51.9555L112.617 44.957L106.947 51.9555Z" fill="#666019"/>
<path d="M112.92 42.7827L129.378 44.1568L130.827 33.459L114.037 32.3945L112.92 42.7827Z" fill="#A9924D"/>
<path d="M112.58 39.9375L130.593 43.2442L127.89 53.3682L110.549 45.6827L112.58 39.9375Z" fill="#E83F3A"/>
<path d="M109.304 49.7734L122.229 62.7738L114.468 67.7792L103.967 53.5331L109.304 49.7734Z" fill="#F3DFDA"/>
<path d="M112.633 27.8725L127.475 20.2626L124.35 15.4082L110.949 23.0484L112.633 27.8725Z" fill="#00724D"/>
<path d="M114.083 33.9878L111.645 26.4307L127.589 19.9531L131.372 33.6103L114.083 33.9878Z" fill="#DAC400"/>
<path d="M71.9866 50.8078L58.5559 62.3586L52.0859 54.3334L66.8076 43.998L71.9866 50.8078Z" fill="#F4DE00"/>
<path d="M66.9061 41.7719L50.4103 42.6326L49.293 31.8971L66.1059 31.3535L66.9061 41.7719Z" fill="#B289BE"/>
<path d="M67.0558 40.4277L49.3672 42.2925L52.4323 54.6058L69.3735 46.0673L67.0558 40.4277Z" fill="#97CFB8"/>
<path d="M70.5892 49.7891L54.6445 61.6117L63.3718 69.3726L75.806 53.7148L70.5892 49.7891Z" fill="#666019"/>
<path d="M110.813 24.0535L107.348 19.2445L117.094 8.09375L125.172 16.3454L110.813 24.0535Z" fill="#F9C5B1"/>
<path d="M82.4117 57.3017L78.033 72.2876L64.0059 66.8897L75.149 53.459L82.4117 57.3017Z" fill="#BEC514"/>
<path d="M93.3516 21.8022L89.8184 21.4399L91.3962 10.123L97.1339 11.5348L93.3516 21.8022Z" fill="#E3D61B"/>
<path d="M90.5957 21.5914L84.3145 21.4857L86.1339 9.4668L91.3733 9.82163L90.5957 21.5914Z" fill="#E6AA00"/>
<path d="M79.5059 10.9322L86.761 9.37695L87.3046 21.2298L82.186 22.4226L79.5059 10.9322Z" fill="#E2D856"/>
<path d="M81.0679 22.9581L77.3535 11.3242L69.8945 15.5067L76.4929 24.7247L81.0679 22.9581Z" fill="#E5C500"/>
<path d="M80.509 23.3666L76.5605 11.8611L81.7471 10.2832L84.3442 21.6755L80.509 23.3666Z" fill="#F39200"/>
<path d="M75.6623 25.6694L65.9007 17.916L59.8535 25.911L71.7365 30.6672L75.6623 25.6694Z" fill="#F4DE00"/>
<path d="M71.5557 32.199L59.9294 31.4062L59.0234 38.9709L70.8763 39.5296L71.5557 32.199Z" fill="#A9924D"/>
<path d="M71.3671 33.973L59.084 32.063L60.8808 24.8984L72.7412 29.9038L71.3671 33.973Z" fill="#666019"/>
<path d="M74.0178 27.2317L64.7695 18.2024L70.1901 14.5938L77.7472 24.5214L74.0178 27.2317Z" fill="#F3DFDA"/>
<path d="M110.542 54.2504L114.362 47.6295L103.453 42.2617L100.426 48.1806L110.542 54.2504Z" fill="#DA007E"/>
<path d="M99.6095 48.4824L108.405 55.7527L101.58 61.7621L96.9219 50.2113L99.6095 48.4824Z" fill="#E5C500"/>
<path d="M98.6055 49.3281L108.367 56.5984L111.455 52.129L101.384 46.1875L98.6055 49.3281Z" fill="#F39200"/>
<path d="M93.2539 51.8881L98.4178 62.299L105.854 59.2791L98.2291 49.4043L93.2539 51.8881Z" fill="#F3DFDA"/>
<path d="M71.91 42.709L61.5293 48.2428L63.7866 51.625L73.1556 46.0987L71.91 42.709Z" fill="#867438"/>
<path d="M70.8237 38.4121L72.628 43.7195L61.4547 48.4606L58.6387 38.8651L70.8237 38.4121Z" fill="#DAC400"/>
<path d="M100.328 26.098L109.667 17.8086L114.325 23.3877L104.05 30.8392L100.328 26.098Z" fill="#F4DE00"/>
<path d="M104.012 32.4177L115.631 31.625L116.536 39.1821L104.691 39.7483L104.012 32.4177Z" fill="#D292C0"/>
<path d="M103.914 33.3612L116.371 31.8513L114.068 23.207L102.223 29.4128L103.914 33.3612Z" fill="#97CFB8"/>
<path d="M101.324 26.7942L111.395 19.5391L105.159 14.1562L97.6016 24.0915L101.324 26.7942Z" fill="#F3DFDA"/>
<path d="M104.45 38.2302L103.068 43.6659L114.589 47.501L116.635 37.7168L104.45 38.2302Z" fill="#A9924D"/>
<path d="M74.153 47.7441L67.9473 55.9807L73.4811 59.8159L78.3355 50.2279L74.153 47.7441Z" fill="#E5C500"/>
<path d="M79.8158 51.4648L78.0039 62.1852L86.9275 63.3101L88.3921 52.2576L79.8158 51.4648Z" fill="#ED6A55"/>
<path d="M90.0293 53.0353L91.5845 65.243L101.527 62.3213L95.9482 50.7402L90.0293 53.0353Z" fill="#D7C4CB"/>
<path d="M86.6776 52.3401L85.4395 63.8079L94.1215 63.8532L93.3363 52.2344L86.6776 52.3401Z" fill="#E9B800"/>
<path d="M77.497 49.6758L71.9707 59.9432L77.8367 62.9932L82.0116 51.8199L77.497 49.6758Z" fill="#E8308A"/>
<path d="M73.2401 45.3809L75.7391 48.7329L68.9822 56.7052L63.1992 50.9751L73.2401 45.3809Z" fill="#F9C5B1"/>
<path d="M92.9062 21.6303L95.8279 11.0156L105.778 14.6696L98.0702 24.2576L92.9062 21.6303Z" fill="#BEC514"/>
<path d="M72.2665 37.703C72.6893 45.9094 79.7481 51.4281 88.1659 51.2167C96.5836 51.0053 104.179 43.5086 102.835 34.4944C101.68 26.7108 95.6173 21.6601 86.4748 22.5359C77.3322 23.4116 71.889 30.2666 72.2665 37.703Z" fill="#DAC400"/>
<path d="M75.3766 37.815C75.7164 44.436 81.4163 48.8751 88.2109 48.709C95.0055 48.5429 101.113 42.4957 100.034 35.2331C99.1049 28.9594 94.2128 24.8599 86.8444 25.5922C79.476 26.3246 75.0671 31.8659 75.3766 37.815Z" fill="#F0828A"/>
<path d="M77.7167 37.4676C77.996 42.8353 82.6163 46.444 88.12 46.3006C93.6236 46.1571 98.5912 41.2575 97.7155 35.3613C96.9605 30.2804 92.997 26.951 87.0102 27.5475C81.0234 28.1439 77.4751 32.6132 77.7167 37.4676Z" fill="#EA5156"/>
<path d="M58.117 10.668L52.5605 19.9766L67.9088 27.813L72.3253 19.4934L58.117 10.668Z" fill="#DA007E"/>
<path d="M73.4967 19.0771L61.1758 8.58315L70.9902 0.203125L77.3394 16.6914L73.4967 19.0771Z" fill="#666019"/>
<path d="M74.9304 17.9072L61.2506 7.39062L56.7812 13.6492L70.9216 22.2935L74.9304 17.9072Z" fill="#F39200"/>
<path d="M74.2365 0L64.875 3.63134L75.4746 17.8094L82.5787 14.397L75.7237 0H74.2365Z" fill="#F3DFDA"/>
<path d="M66.3998 33.5053L68.476 25.835L52.2369 20.1426L49.1113 33.9734L66.3998 33.5053Z" fill="#A9924D"/>
<path d="M109.567 20.6857L118.544 9.14242L110.79 3.58594L103.701 17.077L109.567 20.6857Z" fill="#E5C500"/>
<path d="M91.5625 0L89.4863 13.9818L101.626 15.2879L104.419 0.128343L103.544 0H91.5625Z" fill="#ED6A55"/>
<path d="M71.3438 0L78.7348 15.9598L87.1752 12.8267L85.7332 0H71.3438Z" fill="#D7C4CB"/>
<path d="M81.7402 0L82.4725 13.9063L91.9171 13.8912L93.6233 0H81.7402Z" fill="#E9B800"/>
<path d="M104.283 0L98.5156 14.7292L104.872 17.8698L112.935 3.4275L106.571 0H104.283Z" fill="#E8308A"/>
<path d="M82.0041 37.1974C82.1551 40.2173 84.7295 42.2104 87.8022 42.1273C88.566 42.1144 89.3187 41.9418 90.0118 41.6205C90.7049 41.2992 91.3231 40.8364 91.8266 40.2618C92.33 39.6872 92.7076 39.0136 92.9351 38.2843C93.1626 37.555 93.2348 36.7862 93.1473 36.0273C92.732 33.1962 90.52 31.339 87.1831 31.6712C83.8462 32.0033 81.8984 34.4947 82.0041 37.1974" fill="#E40425"/>
<rect x="112" y="231" width="29" height="43" fill="#C8B9BB"/>
</svg>
