<svg xmlns="http://www.w3.org/2000/svg" xmlns:xlink="http://www.w3.org/1999/xlink" width="200" height="300" viewBox="0 0 200 300">
  <defs>
    <clipPath id="29a-clip-path">
      <rect id="29a-Rectangle_3" data-name="29a-Rectangle 3" width="233.605" height="233.605" fill="none"/>
    </clipPath>
    <clipPath id="29a-clip-Kort_-_artikel_29a">
      <rect width="200" height="300"/>
    </clipPath>
  </defs>
  <g id="29a-Kort_-_artikel_29a" data-name="29a-Kort - artikel 29a" clip-path="url(#29a-clip-Kort_-_artikel_29a)">
    <rect width="200" height="300" fill="#2d2325"/>
    <g id="29a-Group_3" data-name="29a-Group 3" transform="translate(-259.277 -380.803)">
      <g id="29a-Group_1" data-name="29a-Group 1" transform="translate(236.708 380.803)" clip-path="url(#29a-clip-path)">
        <path id="29a-Path_17" data-name="29a-Path 17" d="M0,0H260.768V222.321H0Z" transform="translate(-18.623 -30.591)" fill="#c5bec9"/>
        <rect id="29a-Rectangle_2" data-name="29a-Rectangle 2" width="135.152" height="272.047" transform="translate(-24.137 260.834) rotate(-89.645)" fill="#2d2325"/>
        <path id="29a-Path_1" data-name="29a-Path 1" d="M349.244,687.723s1.514-21.018,1.091-44.908,1.417-66.586,1.417-66.586L360.661,578s1.691,42.072,1.9,65.117,1.48,47.57,1.48,47.57Z" transform="translate(-278.702 -453.727)" fill="#ff4500"/>
        <path id="29a-Path_2" data-name="29a-Path 2" d="M396.118,627.487s-1.022-16.563-.724-33.381-1-46.877-1-46.877l-6.272,1.244s-1.19,29.619-1.339,45.843-1.042,33.489-1.042,33.489Z" transform="translate(-292.322 -442.905)" fill="#428a68"/>
        <path id="29a-Path_3" data-name="29a-Path 3" d="M432.735,645.4a190.6,190.6,0,0,1-1.184-22.962c.2-11.511-.682-32.082-.682-32.082l-4.292.852s-.816,20.271-.917,31.374-.713,22.92-.713,22.92Z" transform="translate(-306.95 -458.997)" fill="#301b6a"/>
        <path id="29a-Path_4" data-name="29a-Path 4" d="M530.135,633.749s.579-11.784.412-24,.556-34.051.556-34.051l3.5.9s.663,21.515.747,33.3.581,24.327.581,24.327Z" transform="translate(-346.202 -453.528)" fill="#ff4500"/>
        <path id="29a-Path_5" data-name="29a-Path 5" d="M309.24,634.252s.641-13.547.46-26.875.6-37.149.6-37.149l3.806.985s.723,23.474.813,36.33.632,26.54.632,26.54Z" transform="translate(-263.774 -451.487)" fill="#563194"/>
        <path id="29a-Path_6" data-name="29a-Path 6" d="M337.786,667.594s-1.022-17.113-.643-34.126-1.268-47.42-1.268-47.42l-7.978,1.257s-1.514,29.963-1.7,46.375-1.325,33.877-1.325,33.877Z" transform="translate(-269.605 -457.391)" fill="#fa7978"/>
        <path id="29a-Path_7" data-name="29a-Path 7" d="M486.282,645.445s-.791-13.735-.61-27.063-.6-37.15-.6-37.15l-3.806.985s-.722,23.474-.813,36.33-.632,26.54-.632,26.54Z" transform="translate(-327.425 -455.594)" fill="#fc2321"/>
        <path id="29a-Path_8" data-name="29a-Path 8" d="M413.017,641.618s-.879-13.347-.752-26.675-.426-37.149-.426-37.149l-2.679.985s-.509,23.473-.573,36.33-.444,26.54-.444,26.54Z" transform="translate(-300.68 -454.311)" fill="#f0047f"/>
        <path id="29a-Path_9" data-name="29a-Path 9" d="M323.423,442.022c25.891-4.562,57.391,8.583,60.692,45.045,3.255,35.961-22.129,52.654-45.89,54.35-26.812,1.913-52.647-11.724-57.5-42.441C276.506,472.291,295.966,446.867,323.423,442.022Z" transform="translate(-252.918 -403.322)" fill="#339028"/>
        <path id="29a-Path_10" data-name="29a-Path 10" d="M449.985,640.919s-.832-11.422-.633-22.611-.664-31.186-.664-31.186l-4.172.828s-.792,19.7-.891,30.5-.693,22.28-.693,22.28Z" transform="translate(-313.661 -457.791)" fill="#896d26"/>
        <path id="29a-Path_11" data-name="29a-Path 11" d="M438.206,550.877c-12.127-2.137-26.881,4.02-28.427,21.1-1.524,16.843,11.48,24.261,21.494,25.456,12.5,1.49,24.658-5.491,26.931-19.878C460.18,565.054,451.065,553.147,438.206,550.877Z" transform="translate(-301.245 -444.115)" fill="#c5bec9"/>
        <path id="29a-Path_12" data-name="29a-Path 12" d="M440.4,599.669V589.107h16.146l.222-1.769-6.194-.885,6.249-4.728-1.107-1.105-7.575,5.834-7.078-.884L451.8,567.725l-1.328-1.106-4.108,5.014-3.318-4.645-.885,1.106,3.318,4.866-5.252,5.806-.055-15.98,4.644-6.193-.884-.885-3.76,3.981-3.833-4.293-1.046,1.254,2.777,4.532-1.216,9.787-7.079-3.76.443-5.972-1.107-.443-1.548,5.309-5.016-1.513-.627.836,4.325,2.263-2.776,4.571,1.8.653,2.776-3.591,7.263,4.524v9.511L421.6,576.942l-.885,1.106,6.415,3.539-4.956,3.9.979,1.306,5.3-3.654,7.741,4.423-.479,11.927Z" transform="translate(-305.37 -445.953)" fill="#346017"/>
        <path id="29a-Path_13" data-name="29a-Path 13" d="M517.271,670.372s-1.3-23.93-2.25-48.325c-.735-18.8-1.115-52.416-1.115-52.416l-7.013,1.392s-1.331,33.119-1.5,51.259-.48,48.453-.48,48.453Z" transform="translate(-336.79 -451.265)" fill="#f0047f"/>
        <path id="29a-Path_14" data-name="29a-Path 14" d="M495.324,481.932c-20.381-3.591-45.179,6.757-47.775,35.46-2.563,28.308,19.292,40.774,36.123,42.783,21.011,2.505,42.438-7.935,45.264-33.408A40.948,40.948,0,0,0,495.324,481.932Z" transform="translate(-315.307 -418.284)" fill="#346017"/>
        <path id="29a-Path_15" data-name="29a-Path 15" d="M500.006,563.6V545.851h27.138l.371-2.974-10.409-1.487,10.5-7.947-1.86-1.859-12.73,9.806-11.9-1.487,18.057-29.989-2.231-1.858-6.905,8.427-5.576-7.806-1.488,1.858,5.577,8.178-8.828,9.759-.093-26.859,7.806-10.409-1.486-1.487-6.32,6.692-6.442-7.215-1.756,2.107,4.666,7.617-2.043,16.449-11.9-6.32.743-10.037-1.859-.744-2.6,8.922-8.431-2.544-1.054,1.4,7.27,3.8-6.126,5.546,1.567,1.567,7.578-4.37,12.206,7.6v15.985l-23.049-10.781-1.486,1.859,10.781,5.948-8.33,6.548,1.647,2.2,8.914-6.141,13.011,7.435-.8,20.044Z" transform="translate(-322.613 -421.25)" fill="#3383bb"/>
        <path id="29a-Path_16" data-name="29a-Path 16" d="M332.109,545.785l1.3-23.7-34.117,1.153-.473-3.778,13.223-1.889-11.334-15.112,2.361-2.361,14.167,17.473,15.112-1.889L307.32,472.234l2.833-2.361,10.862,16.056,7.084-9.917,1.889,2.361L322.9,488.762l11.216,12.4.118-34.119-9.917-13.223,1.889-1.889,8.028,8.5,8.028-10.861,3.778.944-7.32,13.1,2.6,20.9,15.112-8.028-.945-12.75,2.361-.945,3.306,11.334,10.626-4.486,1.417,2.6-9.23,5.274,5.925,9.759-3.834,1.394-5.925-7.668-15.506,9.659v20.306l29.278-13.7,1.889,2.361-13.7,7.556L372.68,515.5l-2.091,2.788-11.323-7.8-16.529,9.444-.53,25.565Z" transform="translate(-259.885 -406.462)" fill="#947b2a"/>
      </g>
    </g>
  </g>
</svg>
