<svg xmlns="http://www.w3.org/2000/svg" xmlns:xlink="http://www.w3.org/1999/xlink" width="200" height="300" viewBox="0 0 200 300">
  <defs>
    <clipPath id="18-clip-Kort_-_artikel_18">
      <rect width="200" height="300"/>
    </clipPath>
  </defs>
  <g id="18-Kort_-_artikel_18" data-name="18-Kort - artikel 18" clip-path="url(#18-clip-Kort_-_artikel_18)">
    <rect width="200" height="300" fill="#120f19"/>
    <g id="18-Group_7" data-name="18-Group 7" transform="translate(29.978 83.581)">
      <path id="18-Path_1" data-name="18-Path 1" d="M331.13,519.81c-5.9-4.653-6.364-16-2.9-20.665,4.872-6.568,18.389-10.478,27.759-2.727,5.814,4.809,6.549,14.991.657,21.286C349.68,525.142,335.6,523.324,331.13,519.81Z" transform="translate(-338.295 -512)" fill="#641887"/>
      <path id="18-Path_2" data-name="18-Path 2" d="M334.405,518.47c-4.6-3.823-4.727-13.628-1.7-17.238,4.285-5.111,15.565-7.959,22.873-1.589,4.535,3.953,4.279,12.311-.366,17.545C349.724,523.372,337.891,521.358,334.405,518.47Z" transform="translate(-339.532 -513.033)" fill="#fb1a27" stroke="#120f19" stroke-width="0.6"/>
      <path id="18-Path_3" data-name="18-Path 3" d="M334.793,512.259c1.521,7.649,9.212,8.481,14.711,6.566s8.839-5.816,7.644-11.826c-1.069-5.377-6.23-7.672-12.286-6.788C339.837,500.945,332.969,503.086,334.793,512.259Z" transform="translate(-340.565 -514.123)" fill="#f11687" stroke="#120f19" stroke-width="0.6"/>
      <path id="18-Path_4" data-name="18-Path 4" d="M355.171,508.59c-1.486-5.195-7.9-5.742-12.023-4.133s-5.467,4.5-4.3,8.582c1.045,3.651,4.547,5.314,9.138,4.386C351.8,516.656,356.953,514.818,355.171,508.59Z" transform="translate(-341.629 -515.099)" fill="#018837" stroke="#120f19" stroke-width="0.6"/>
      <g id="18-Group_1" data-name="18-Group 1" transform="translate(-13.044 12.36)">
        <path id="18-Path_5" data-name="18-Path 5" d="M372.322,674.41,382.8,786.745h13.159l-11.94-114.527Z" transform="translate(-337.696 -572.797)" fill="#e2dead"/>
        <path id="18-Path_6" data-name="18-Path 6" d="M326.686,543.527s-5.547,47.486,3.225,70.879,19.437,28.541,32.6,30.734S396.133,630.52,397.6,604.2s-1.462-67.255-1.462-67.255l-24.124,35.089-13.158-35.82-13.89,34.358Z" transform="translate(-324.956 -536.217)" fill="#018837"/>
      </g>
      <g id="18-Group_2" data-name="18-Group 2" transform="translate(-2.811 58.256)">
        <path id="18-Path_7" data-name="18-Path 7" d="M375.37,599.792c11.718,4.145,20.206,23.288,18.3,32.956-3.146,15.955-22.959,27.855-38.052,20.524a29.143,29.143,0,0,1-15.595-34.154C344.508,602.728,366.5,596.665,375.37,599.792Z" transform="translate(-338.954 -599)" fill="#f11687" stroke="#120f19" stroke-width="0.6"/>
        <path id="18-Path_8" data-name="18-Path 8" d="M375.063,607.682c9.4,3.219,16.537,19.619,14.86,27.364-2.376,10.962-15.678,22.024-30.629,15.887-9.278-3.8-16.566-14.7-13.769-26.079C348.829,611.409,364.9,604.2,375.063,607.682Z" transform="translate(-340.559 -601.101)" fill="#fb1a27" stroke="#120f19" stroke-width="0.6"/>
        <path id="18-Path_9" data-name="18-Path 9" d="M383.719,620.667c-7.679-11.685-20-8.166-26.4-1.74s-8.871,14.308-2.836,23.488c5.4,8.215,14.918,9.448,22.856,4.388C383.92,642.6,392.927,634.681,383.719,620.667Z" transform="translate(-342.201 -602.763)" fill="#f11687" stroke="#120f19" stroke-width="0.6"/>
        <path id="18-Path_10" data-name="18-Path 10" d="M360.607,642.01c5.857,7.666,15.338,4.747,20.01-.353s5-11.561.4-17.585c-4.116-5.388-10.785-5.144-16.617-.882C359.56,626.723,353.584,632.82,360.607,642.01Z" transform="translate(-343.914 -604.65)" fill="#641887" stroke="#120f19" stroke-width="0.6"/>
      </g>
      <g id="18-Group_3" data-name="18-Group 3" transform="translate(79.696 10.236)">
        <path id="18-Path_11" data-name="18-Path 11" d="M499.957,660.773l7.31,123.787,12.579,1.107L508,659.311Z" transform="translate(-464.766 -567.201)" fill="#fb1a27"/>
        <path id="18-Path_12" data-name="18-Path 12" d="M453.311,552.728s-3.844,31.825.8,48.569c5.182,18.681,10.965,35.82,30.7,37.282s36.551-17.545,39.475-38.013-3.655-59.944-3.655-59.944l-17.545,29.241-11.7-36.551s-16.754,37.769-16.039,38.127S453.311,552.728,453.311,552.728Z" transform="translate(-451.818 -533.311)" fill="#f11687"/>
      </g>
      <g id="18-Group_4" data-name="18-Group 4" transform="translate(89.381 56.251)">
        <path id="18-Path_13" data-name="18-Path 13" d="M499.135,597.459c-11.662-3.958-26.443,2.259-31.925,12.676-5.932,11.27.548,33.993,18.276,38.927a25.847,25.847,0,0,0,31.431-16.292C522.277,618.056,507.954,600.462,499.135,597.459Z" transform="translate(-465.067 -596.257)" fill="#fb1a27" stroke="#120f19" stroke-width="0.6"/>
        <path id="18-Path_14" data-name="18-Path 14" d="M499.278,604.939c-9.382-2.937-21.841,1.344-25.907,9.842-4.452,9.3-.423,26.911,14.917,31.339,9.519,2.749,21.313-2.122,25.289-12.15C518.275,622.124,506.374,607.17,499.278,604.939Z" transform="translate(-466.842 -598.344)" fill="#641887" stroke="#120f19" stroke-width="0.6"/>
        <path id="18-Path_15" data-name="18-Path 15" d="M479.933,633.673c3.6,8.458,11.174,13.3,19.994,10.492,9.854-3.135,12.916-10.454,11.291-19s-9.055-18.255-21.6-14.264C474.577,615.689,476.947,626.653,479.933,633.673Z" transform="translate(-468.469 -599.947)" fill="#018837" stroke="#120f19" stroke-width="0.6"/>
        <path id="18-Path_16" data-name="18-Path 16" d="M507.32,625.221c-2.347-6.613-7.562-10.778-13.807-9.28-6.981,1.674-10.25,6.609-9.291,13.148s6.966,14.346,15.852,12.218C510.728,638.755,509.268,630.708,507.32,625.221Z" transform="translate(-470.175 -601.469)" fill="#fb1a27" stroke="#120f19" stroke-width="0.6"/>
      </g>
      <path id="18-Path_17" data-name="18-Path 17" d="M460.628,543.291c-.1,2.154.652,5.987,5.616,6.532,4.733.519,7.238-2.543,7.286-5.767.064-4.233-2.021-6.254-5.784-6.577A6.228,6.228,0,0,0,460.628,543.291Z" transform="translate(-374.49 -524.187)" fill="#641887"/>
      <path id="18-Path_18" data-name="18-Path 18" d="M383.2,536.1c-.141,2.947.893,8.192,7.685,8.937,6.478.711,9.9-3.48,9.97-7.891.088-5.793-2.765-8.557-7.914-9C386.513,527.6,383.377,532.348,383.2,536.1Z" transform="translate(-353.663 -521.674)" fill="#e2dead"/>
      <path id="18-Path_19" data-name="18-Path 19" d="M389.852,537.342A3.908,3.908,0,0,0,393.6,541.7c3.156.346,4.826-1.7,4.858-3.844.043-2.823-1.347-4.171-3.856-4.385A4.154,4.154,0,0,0,389.852,537.342Z" transform="translate(-355.454 -523.111)" fill="#018837" stroke="#120f19" stroke-width="0.6"/>
      <path id="18-Path_20" data-name="18-Path 20" d="M374.428,521.466a4.1,4.1,0,0,0,3.93,4.57c3.312.363,5.064-1.78,5.1-4.035.045-2.963-1.414-4.377-4.048-4.6A4.358,4.358,0,0,0,374.428,521.466Z" transform="translate(-351.305 -518.789)" fill="#f11284"/>
      <path id="18-Path_21" data-name="18-Path 21" d="M518,542.17a4.1,4.1,0,0,0,3.929,4.57c3.312.363,5.065-1.78,5.1-4.035.045-2.963-1.413-4.377-4.048-4.6A4.357,4.357,0,0,0,518,542.17Z" transform="translate(-389.922 -524.358)" fill="#e2dead"/>
      <path id="18-Path_22" data-name="18-Path 22" d="M519.83,542.779a2.911,2.911,0,0,0,2.79,3.244,2.972,2.972,0,0,0,3.619-2.865c.031-2.1-1-3.106-2.873-3.267A3.094,3.094,0,0,0,519.83,542.779Z" transform="translate(-390.415 -524.841)" fill="#f11284"/>
      <path id="18-Path_23" data-name="18-Path 23" d="M509.826,509.015c-.247,5.169.311,14.423,13.484,15.678s17.374-6.106,17.491-13.844c.154-10.163-4.85-15.013-13.887-15.788C515.641,494.094,510.137,502.429,509.826,509.015Z" transform="translate(-387.715 -512.766)" fill="#fb1a27" stroke="#120f19" stroke-width="0.6"/>
      <path id="18-Path_24" data-name="18-Path 24" d="M520.069,511.3c-.127,2.663.163,7.43,6.946,8.077s8.951-3.146,9.011-7.133c.079-5.236-2.5-7.734-7.153-8.133A7.706,7.706,0,0,0,520.069,511.3Z" transform="translate(-390.475 -515.211)" fill="#018837" stroke="#120f19" stroke-width="0.6"/>
      <path id="18-Path_25" data-name="18-Path 25" d="M464.34,516.052c-.175,3.681.222,10.272,9.6,11.166s12.373-4.347,12.456-9.859c.11-7.238-3.453-10.692-9.889-11.244C468.482,505.426,464.562,511.362,464.34,516.052Z" transform="translate(-375.483 -515.745)" fill="#018837" stroke="#120f19" stroke-width="0.6"/>
      <path id="18-Path_26" data-name="18-Path 26" d="M471.636,517.682c-.091,1.9.116,5.292,4.947,5.752s6.375-2.24,6.418-5.079c.056-3.73-1.78-5.509-5.094-5.793A5.487,5.487,0,0,0,471.636,517.682Z" transform="translate(-377.449 -517.487)" fill="#641887" stroke="#120f19" stroke-width="0.6"/>
      <path id="18-Path_27" data-name="18-Path 27" d="M475.793,519.1a2.241,2.241,0,0,0,2.276,2.647c2.223.212,2.933-1.031,2.953-2.338a2.312,2.312,0,0,0-2.344-2.665A2.524,2.524,0,0,0,475.793,519.1Z" transform="translate(-378.569 -518.617)" fill="#f11284" stroke="#120f19" stroke-width="0.6"/>
      <path id="18-Path_28" data-name="18-Path 28" d="M335.762,552.542a3.551,3.551,0,0,0,3.4,3.958c2.869.314,4.386-1.542,4.415-3.5.039-2.565-1.223-3.789-3.5-3.985A3.775,3.775,0,0,0,335.762,552.542Z" transform="translate(-340.905 -527.295)" fill="#e2dead"/>
      <path id="18-Path_29" data-name="18-Path 29" d="M338.029,553.355a2.1,2.1,0,0,0,2.012,2.34,2.143,2.143,0,0,0,2.61-2.066,2.043,2.043,0,0,0-2.072-2.355A2.231,2.231,0,0,0,338.029,553.355Z" transform="translate(-341.515 -527.903)" fill="#641887"/>
    </g>
  </g>
</svg>
