<svg xmlns="http://www.w3.org/2000/svg" xmlns:xlink="http://www.w3.org/1999/xlink" width="200" height="300" viewBox="0 0 200 300">
  <defs>
    <clipPath id="37a-clip-path">
      <rect id="37a-Rectangle_2" data-name="37a-Rectangle 2" width="372.667" height="372.667" transform="translate(34.191 9)" fill="none"/>
    </clipPath>
    <clipPath id="37a-clip-Kort_-_artikel_37a">
      <rect width="200" height="300"/>
    </clipPath>
  </defs>
  <g id="37a-Kort_-_artikel_37a" data-name="37a-Kort - artikel 37a" clip-path="url(#37a-clip-Kort_-_artikel_37a)">
    <rect width="200" height="300" fill="#dacbc5"/>
    <g id="37a-Group_4" data-name="37a-Group 4" transform="translate(-101.524 -81.667)">
      <rect id="37a-Rectangle_1" data-name="37a-Rectangle 1" width="372.667" height="372.667" transform="translate(34.191 9)" fill="#dacbc5"/>
      <g id="37a-Group_2" data-name="37a-Group 2">
        <g id="37a-Group_1" data-name="37a-Group 1" clip-path="url(#37a-clip-path)">
          <path id="37a-Path_1" data-name="37a-Path 1" d="M253.9,70.755c57.343.036,123.217,8.311,124.323,77.559.93,58.109-50.1,84.794-103.648,85.866-53.535,1.033-136.026-9.349-135.227-81.263.64-57.234,58.14-82.2,114.552-82.162" fill="#ffb200"/>
          <path id="37a-Path_2" data-name="37a-Path 2" d="M241.433,102.957c38.975.025,83.75,5.649,84.5,52.717.633,39.5-34.051,57.632-70.445,58.361-36.391.7-92.457-6.354-91.912-55.234.433-38.9,39.513-55.868,77.857-55.844" fill="#e33e2a"/>
          <path id="37a-Path_3" data-name="37a-Path 3" d="M227.847,135.636c23.162.015,49.764,3.357,50.211,31.324.375,23.464-20.235,34.243-41.861,34.674s-54.933-3.773-54.608-32.817c.257-23.115,23.479-33.194,46.258-33.181" fill="#9c7e39"/>
          <path id="37a-Path_4" data-name="37a-Path 4" d="M237.248,146.961c12.582.008,27.033,1.823,27.273,17.015.207,12.747-10.988,18.6-22.736,18.837s-29.842-2.05-29.666-17.828c.141-12.557,12.756-18.031,25.129-18.024" fill="#0084c8"/>
          <path id="37a-Path_5" data-name="37a-Path 5" d="M183.606,180.252c44.266.03,95.113,6.272,95.973,58.487.72,43.816-38.683,63.324-80,64.741-54.052,1.853-105.007-7.056-104.39-61.283.491-43.155,44.876-61.975,88.419-61.945" fill="#2c2f2d"/>
          <path id="37a-Path_6" data-name="37a-Path 6" d="M172.54,211.944c29.49.021,63.363,4.057,63.941,37.777.481,28.3-25.759,41.289-53.295,41.807-27.531.5-69.953-4.561-69.542-39.582.323-27.872,29.888-40.023,58.9-40" fill="#00772c"/>
          <path id="37a-Path_7" data-name="37a-Path 7" d="M162.247,225.214c18.64.084,37.288,3.265,40.289,27.439,3.106,25.023-16.413,29.76-33.818,30.067s-43.233-1.926-42.859-27.221c.292-20.129,18.053-30.371,36.388-30.285" fill="#96c0ae"/>
          <path id="37a-Path_8" data-name="37a-Path 8" d="M170.157,243.177c11.19.119,24.022,1.778,24.112,14.574.076,10.734-9.93,15.565-20.377,15.655s-26.516-1.995-26.227-15.278c.228-10.572,11.486-15.069,22.492-14.951" fill="#573679"/>
          <path id="37a-Path_9" data-name="37a-Path 9" d="M284.286,270.868c5.16,0,10.24,3.229,10.326,9.658.094,6.906-5.3,10.173-10.123,10.3s-11.486-2.749-11.381-9.738c.1-6.8,6.1-10.224,11.178-10.224" fill="#96c0ae"/>
          <path id="37a-Path_10" data-name="37a-Path 10" d="M293.142,300.782c3.957,0,7.848,2.474,7.914,7.4.072,5.291-4.062,7.793-7.758,7.894s-8.8-2.106-8.719-7.462c.079-5.21,4.674-7.832,8.563-7.832" fill="#e4431b"/>
          <path id="37a-Path_11" data-name="37a-Path 11" d="M277.587,317.622c2.934,0,5.824,1.836,5.875,5.494a5.657,5.657,0,0,1-5.762,5.861c-2.742.073-6.533-1.564-6.474-5.54.06-3.868,3.47-5.815,6.361-5.815" fill="#9c7e39"/>
          <path id="37a-Path_12" data-name="37a-Path 12" d="M260.569,326.9a4.033,4.033,0,0,1,4.3,4.021,4.139,4.139,0,0,1-4.213,4.288c-2.008.052-4.783-1.145-4.738-4.053a4.45,4.45,0,0,1,4.652-4.256" fill="#dacbc5"/>
          <path id="37a-Path_13" data-name="37a-Path 13" d="M284.259,274.224c3.225,0,6.393,2.015,6.447,6.029a6.207,6.207,0,0,1-6.318,6.432c-3.01.079-7.172-1.717-7.106-6.079.063-4.245,3.807-6.382,6.977-6.382" fill="#9c7e39"/>
          <path id="37a-Path_14" data-name="37a-Path 14" d="M293.341,303.774A4.241,4.241,0,0,1,297.859,308a4.35,4.35,0,0,1-4.43,4.5c-2.109.056-5.023-1.2-4.977-4.258a4.674,4.674,0,0,1,4.889-4.471" fill="#0084c8"/>
          <path id="37a-Path_15" data-name="37a-Path 15" d="M277.712,319.915a3.155,3.155,0,0,1,3.365,3.146,3.237,3.237,0,0,1-3.3,3.358c-1.57.042-3.742-.9-3.707-3.173a3.481,3.481,0,0,1,3.639-3.331" fill="#0084c8"/>
          <path id="37a-Path_16" data-name="37a-Path 16" d="M260.505,328.909a2.189,2.189,0,0,1,2.332,2.178,2.248,2.248,0,0,1-2.287,2.325,2.32,2.32,0,0,1-2.566-2.2,2.41,2.41,0,0,1,2.521-2.307" fill="#ffb200"/>
          <path id="37a-Path_17" data-name="37a-Path 17" d="M128.306,146.857c-26.939.77-57.242,5.447-57.746,37.446-.422,26.771,15.575,40.323,47.8,39.53,25.359.486,65.388-4.483,65.17-38.981-.173-27.525-28.2-38.767-55.224-38" fill="#0084c8"/>
          <path id="37a-Path_18" data-name="37a-Path 18" d="M135.067,166.565c-18.079.388-38.557,3.308-38.927,24.144-.306,17.45,15.473,25.406,32.242,25.681,16.969.267,43.548-3,43.39-25.19-.125-17.686-18.691-25.021-36.705-24.635" fill="#9c7e39"/>
          <path id="37a-Path_19" data-name="37a-Path 19" d="M141.476,179.288c-11.5.193-24.6,1.991-24.845,15.249-.209,11.111,9.9,16.16,20.586,16.314,10.775.147,27.548-1.951,27.444-15.937-.081-11.143-11.778-15.817-23.185-15.626" fill="#008c2c"/>
          <path id="37a-Path_20" data-name="37a-Path 20" d="M144.283,188.638c-6.655.2-14.249,1.4-14.3,9.576-.041,6.852,5.871,9.861,12.071,9.848,6.228-.018,15.863-1.471,15.7-10.031-.133-6.817-6.892-9.592-13.469-9.393" fill="#dd171a"/>
          <path id="37a-Path_21" data-name="37a-Path 21" d="M71.24,211.8c-4.638,0-9.2,2.9-9.276,8.674-.084,6.2,4.764,9.137,9.093,9.254s10.314-2.47,10.219-8.746c-.09-6.108-5.478-9.182-10.036-9.182" fill="#4a7926"/>
          <path id="37a-Path_22" data-name="37a-Path 22" d="M63.285,238.669c-3.552,0-7.047,2.222-7.107,6.645-.064,4.751,3.649,7,6.967,7.089s7.9-1.891,7.829-6.7c-.069-4.678-4.2-7.033-7.689-7.033" fill="#ffb200"/>
          <path id="37a-Path_23" data-name="37a-Path 23" d="M77.254,253.79c-2.633,0-5.231,1.65-5.274,4.936a5.077,5.077,0,0,0,5.171,5.263c2.466.065,5.869-1.4,5.816-4.974a5.464,5.464,0,0,0-5.713-5.225" fill="#9c7e39"/>
          <path id="37a-Path_24" data-name="37a-Path 24" d="M92.539,262.128a3.62,3.62,0,0,0-3.862,3.611,3.719,3.719,0,0,0,3.785,3.852c1.8.047,4.293-1.027,4.253-3.641a4,4,0,0,0-4.176-3.822" fill="#dacbc5"/>
          <path id="37a-Path_25" data-name="37a-Path 25" d="M71.263,214.817c-2.9,0-5.741,1.809-5.789,5.414a5.573,5.573,0,0,0,5.673,5.777c2.7.071,6.44-1.542,6.383-5.46-.056-3.812-3.42-5.731-6.267-5.731" fill="#6aaa94"/>
          <path id="37a-Path_26" data-name="37a-Path 26" d="M63.107,241.356a3.808,3.808,0,0,0-4.056,3.793,3.9,3.9,0,0,0,3.976,4.046c1.894.05,4.51-1.08,4.47-3.825a4.2,4.2,0,0,0-4.39-4.014" fill="#dd1723"/>
          <path id="37a-Path_27" data-name="37a-Path 27" d="M77.142,255.853a2.836,2.836,0,0,0-3.023,2.824,2.908,2.908,0,0,0,2.963,3.016c1.411.037,3.361-.8,3.331-2.85a3.129,3.129,0,0,0-3.271-2.99" fill="#0084c8"/>
          <path id="37a-Path_28" data-name="37a-Path 28" d="M92.6,263.929a1.965,1.965,0,0,0-2.094,1.955,2.021,2.021,0,0,0,2.055,2.089,2.08,2.08,0,0,0,2.3-1.974,2.164,2.164,0,0,0-2.263-2.07" fill="#ffb200"/>
          <path id="37a-Path_29" data-name="37a-Path 29" d="M211.583,212.081c-5.912,0-11.729,3.7-11.828,11.061-.11,7.908,6.074,11.648,11.594,11.8s13.152-3.148,13.031-11.152c-.115-7.787-6.983-11.707-12.8-11.707" fill="#dacbc5"/>
          <path id="37a-Path_30" data-name="37a-Path 30" d="M201.439,246.336c-4.528,0-8.985,2.833-9.061,8.475-.082,6.058,4.653,8.923,8.882,9.039s10.077-2.413,9.985-8.544c-.089-5.967-5.352-8.97-9.806-8.97" fill="#de3380"/>
          <path id="37a-Path_31" data-name="37a-Path 31" d="M219.255,265.618c-3.361,0-6.674,2.1-6.73,6.293a6.48,6.48,0,0,0,6.6,6.713c3.139.083,7.483-1.791,7.414-6.345-.068-4.431-3.974-6.661-7.281-6.661" fill="#f9a100"/>
          <path id="37a-Path_32" data-name="37a-Path 32" d="M238.739,276.251a4.619,4.619,0,0,0-4.924,4.6,4.738,4.738,0,0,0,4.826,4.91c2.3.061,5.477-1.31,5.424-4.641a5.093,5.093,0,0,0-5.326-4.873" fill="#dacbc5"/>
          <path id="37a-Path_33" data-name="37a-Path 33" d="M211.948,216.612c-3.648,0-7.242,2.283-7.3,6.83-.066,4.884,3.752,7.193,7.16,7.285s8.124-1.943,8.047-6.886c-.07-4.809-4.31-7.229-7.9-7.229" fill="#9c7e39"/>
          <path id="37a-Path_34" data-name="37a-Path 34" d="M201.663,250.088a4.8,4.8,0,0,0-5.119,4.784,4.928,4.928,0,0,0,5.017,5.1c2.387.063,5.688-1.363,5.635-4.826a5.291,5.291,0,0,0-5.533-5.063" fill="#dd1723"/>
          <path id="37a-Path_35" data-name="37a-Path 35" d="M219.362,268.372a3.578,3.578,0,0,0-3.813,3.564,3.672,3.672,0,0,0,3.739,3.8c1.779.048,4.238-1.014,4.2-3.594a3.943,3.943,0,0,0-4.127-3.772" fill="#4a7926"/>
          <path id="37a-Path_36" data-name="37a-Path 36" d="M238.856,278.56a2.478,2.478,0,0,0-2.641,2.468,2.545,2.545,0,0,0,2.588,2.634,2.628,2.628,0,0,0,2.908-2.491,2.73,2.73,0,0,0-2.855-2.611" fill="#e4431b"/>
        </g>
      </g>
    </g>
  </g>
</svg>
