<svg xmlns="http://www.w3.org/2000/svg" xmlns:xlink="http://www.w3.org/1999/xlink" width="200" height="300" viewBox="0 0 200 300">
  <defs>
    <clipPath id="17-clip-Artboard_1">
      <rect width="200" height="300"/>
    </clipPath>
  </defs>
  <g id="17-Artboard_1" data-name="17-Artboard – 1" clip-path="url(#17-clip-Artboard_1)">
    <rect width="200" height="300" fill="#583997"/>
    <g id="17-Group_4" data-name="17-Group 4" transform="translate(-186.029 -404.79)">
      <g id="17-Group_3" data-name="17-Group 3" transform="translate(153.701 426.315)">
        <g id="17-Group_1" data-name="17-Group 1">
          <path id="17-Path_1" data-name="17-Path 1" d="M404.593,461.354a13.83,13.83,0,0,1,9.033,5.652,14.039,14.039,0,0,1,2.419,10.438l-23.087,140.5a13.925,13.925,0,0,1-10.435,11.284,13.79,13.79,0,0,1-5.5.208L165.329,594.5a13.758,13.758,0,0,1-5.136-1.958,14.013,14.013,0,0,1-6.316-14.034l22.4-140.43a14.058,14.058,0,0,1,1.939-5.2,13.917,13.917,0,0,1,8.457-6.162,13.765,13.765,0,0,1,5.5-.22Z" transform="translate(-153.701 -426.315)" fill="#fd1a16"/>
        </g>
        <g id="17-Group_2" data-name="17-Group 2" transform="translate(6.763 4.281)">
          <path id="17-Path_2" data-name="17-Path 2" d="M386.208,464.225a12.279,12.279,0,0,1,7.991,4.957,12.2,12.2,0,0,1,2.155,9.131L376.172,601.122a12.1,12.1,0,0,1-4.941,7.911,12.279,12.279,0,0,1-9.125,2.112L174.949,580.263a12.327,12.327,0,0,1-9.94-9.169,12.112,12.112,0,0,1-.207-4.831l19.569-122.752a12.206,12.206,0,0,1,14.036-10.1Z" transform="translate(-164.651 -433.246)" fill="#de037f"/>
        </g>
        <path id="17-Path_3" data-name="17-Path 3" d="M387.809,490.6a7.728,7.728,0,0,0-6.376-8.879l-155.82-25.561a7.729,7.729,0,0,0-8.881,6.376L198.874,571.408a7.727,7.727,0,0,0,6.375,8.878L361.07,605.848a7.729,7.729,0,0,0,8.88-6.376Z" transform="translate(-170.935 -437.688)" fill="#376128"/>
        <path id="17-Path_4" data-name="17-Path 4" d="M247.753,473.342c-3.9-.065-7.436-.066-11.837,2.68-4.481,2.8-6.184,8.127-7.03,10.928-1.006,3.319-3.917,12.135-7.78,34.459a353.341,353.341,0,0,0-4.578,38.522c-.253,2.682-.792,10.223,2.1,14.515,3.746,5.556,7.867,6.729,12.6,8.005,2.6.7,30.713,7.505,60.37,11.993,28.715,4.344,52.531,6.842,55.581,7.137s11.262,1.787,17.715-3.436c5.344-4.326,6.26-10.251,7.069-13.286.863-3.226,4.912-19.4,7.734-35.347a349.951,349.951,0,0,0,4.4-38.157c-.015-2.655.274-7.525-3.146-12.016-3.464-4.549-10.374-6.023-13.765-6.9s-30.587-7.1-54.715-11.062C285.885,477.017,251.8,473.41,247.753,473.342Z" transform="translate(-177.644 -444.291)" fill="#c1c5af"/>
        <path id="17-Path_5" data-name="17-Path 5" d="M360.355,501.155a5.219,5.219,0,0,0-5.88-4.462L248.865,511.14a5.215,5.215,0,0,0-4.461,5.876L254.5,590.808a5.217,5.217,0,0,0,5.877,4.461l105.609-14.447a5.221,5.221,0,0,0,4.467-5.879Z" transform="translate(-188.365 -453.207)" fill="#399a70"/>
        <path id="17-Path_6" data-name="17-Path 6" d="M360.918,543.636a3.477,3.477,0,0,0-1.967-4.506l-66.128-25.935a3.479,3.479,0,0,0-4.507,1.966l-18.12,46.2a3.475,3.475,0,0,0,1.967,4.505l66.127,25.937a3.476,3.476,0,0,0,4.506-1.968Z" transform="translate(-198.154 -459.444)" fill="#ffc700"/>
        <path id="17-Path_7" data-name="17-Path 7" d="M346.221,543.861a2.531,2.531,0,0,0-2.441-2.618l-51.693-1.8a2.529,2.529,0,0,0-2.617,2.442L288.211,578a2.532,2.532,0,0,0,2.444,2.618l51.69,1.8a2.534,2.534,0,0,0,2.619-2.441Z" transform="translate(-205.134 -469.574)" fill="#42268e"/>
        <path id="17-Path_8" data-name="17-Path 8" d="M327.766,541.9a1.645,1.645,0,0,0-2.257-.56l-28.754,17.324a1.643,1.643,0,0,0-.557,2.256l12.1,20.089a1.642,1.642,0,0,0,2.256.558l28.753-17.319a1.642,1.642,0,0,0,.559-2.256Z" transform="translate(-208.098 -470.208)" fill="#b57ab3"/>
      </g>
    </g>
  </g>
</svg>
