<svg xmlns="http://www.w3.org/2000/svg" xmlns:xlink="http://www.w3.org/1999/xlink" width="200" height="300" viewBox="0 0 200 300">
  <defs>
    <clipPath id="12a-clip-path">
      <rect id="12a-Rectangle_2" data-name="12a-Rectangle 2" width="285" height="285" transform="translate(0 0)" fill="none"/>
    </clipPath>
    <clipPath id="12a-clip-Kort_-_artikel_12a">
      <rect width="200" height="300"/>
    </clipPath>
  </defs>
  <g id="12a-Kort_-_artikel_12a" data-name="12a-Kort - artikel 12a" clip-path="url(#12a-clip-Kort_-_artikel_12a)">
    <rect width="200" height="300" fill="#ae9e9f"/>
    <g id="12a-Group_3" data-name="12a-Group 3" transform="translate(-68.489 -10.376)">
      <rect id="12a-Rectangle_1" data-name="12a-Rectangle 1" width="285" height="285" transform="translate(30.489 7.376)" fill="#ae9e9f"/>
      <path id="12a-Path_1" data-name="12a-Path 1" d="M75.547,233.662,72.363,245.6l234.857-2.786-6.767-18.311-24.282.8-13-40.452,42.857-38.365-3.583-3.184-42.492,31.538L243.928,124.99,263.169,16.762l-12.34,1.99L240.661,78.465,211.287,50.951l-1.592,3.185,29.551,30.718L230,126.583l24.282,98.72L115.143,231.81,95.813,122.354,128.9,24.417l-3.981-.8L94.079,112.53l-10.172-57.6-5.175,3.185L97.59,202.269l-33.984-8.015-1.194,3.185,36.09,11.8,3.036,23.21Z" transform="translate(-16.161 -18.844)" fill="#d0bbc3"/>
      <g id="12a-Group_2" data-name="12a-Group 2" transform="translate(30.489 7.376)">
        <g id="12a-Group_1" data-name="12a-Group 1" transform="translate(0 0)" clip-path="url(#12a-clip-path)">
          <path id="12a-Path_2" data-name="12a-Path 2" d="M144.031,81.584s-11.183,17.4-12.012,52.6,6.626,99.407,6.626,99.407l2.532-.046.138-2.163.828-.047-.184,2.348,2.209.046.184-2.44h.736l.322,2.67,1.933.045.368-3.174,44.417-2.256.547,5.792,1.509.151.352-6.234,1.809-.049.1,6.132,2.765-.151.352-6.234,1.307-.05.1,6.485h2.212s16.654-59.056,17.582-101.488-6.493-54.953-6.493-54.953l-7.652-.7L198.275,97.92l-41.041-.463-6.956-17.622Z" transform="translate(-54.361 -23.837)" fill="#de221c"/>
          <path id="12a-Path_3" data-name="12a-Path 3" d="M132.487,132.574c-.351,7.373,2.235,20.493,19.226,22.355,16.2,1.777,24.772-8.7,24.94-19.741.22-14.489-6.916-21.406-19.8-22.511-16.075-1.379-23.92,10.507-24.367,19.9" transform="translate(-54.479 -32.138)" fill="#681470"/>
          <path id="12a-Path_4" data-name="12a-Path 4" d="M189.564,134.833c-.347,7.284,2.209,20.246,18.994,22.087,16.009,1.755,24.474-8.6,24.641-19.5.216-14.316-6.834-21.149-19.561-22.241-15.882-1.363-23.632,10.38-24.074,19.657" transform="translate(-67.907 -32.726)" fill="#681470"/>
          <path id="12a-Path_5" data-name="12a-Path 5" d="M141.932,134.645c-.269,5.657,1.715,15.723,14.751,17.153,12.432,1.363,19.007-6.679,19.136-15.146.168-11.118-5.306-16.424-15.191-17.272-12.334-1.058-18.353,8.062-18.7,15.266" transform="translate(-56.703 -33.721)" fill="#ab1d78"/>
          <path id="12a-Path_6" data-name="12a-Path 6" d="M164.967,143.493c-.1,2.186.133,6.1,5.7,6.628s7.345-2.581,7.394-5.852c.067-4.3-2.051-6.347-5.87-6.674a6.321,6.321,0,0,0-7.224,5.9" transform="translate(-62.124 -38.019)" fill="#9c7e39"/>
          <path id="12a-Path_7" data-name="12a-Path 7" d="M174.34,147.55a2.141,2.141,0,0,0,2.176,2.528c2.123.2,2.8-.984,2.82-2.232A2.208,2.208,0,0,0,177.1,145.3a2.412,2.412,0,0,0-2.756,2.251" transform="translate(-64.331 -39.836)" fill="#120723"/>
          <path id="12a-Path_8" data-name="12a-Path 8" d="M197.57,138.029c-.263,5.521,1.674,15.347,14.4,16.742,12.135,1.33,18.552-6.519,18.678-14.784.164-10.852-5.179-16.031-14.827-16.859-12.038-1.033-17.914,7.868-18.249,14.9" transform="translate(-69.793 -34.603)" fill="#ab1d78"/>
          <path id="12a-Path_9" data-name="12a-Path 9" d="M218.073,146.849c-.112,2.342.141,6.532,6.106,7.1s7.867-2.765,7.921-6.269c.07-4.6-2.2-6.8-6.288-7.15a6.771,6.771,0,0,0-7.74,6.319" transform="translate(-74.617 -38.709)" fill="#9c7e39"/>
          <path id="12a-Path_10" data-name="12a-Path 10" d="M226.386,150.739a2.14,2.14,0,0,0,2.176,2.528c2.123.2,2.8-.984,2.82-2.232a2.208,2.208,0,0,0-2.239-2.547,2.412,2.412,0,0,0-2.756,2.251" transform="translate(-76.576 -40.586)" fill="#120723"/>
          <path id="12a-Path_11" data-name="12a-Path 11" d="M181.725,161.373l10.563-.311L186.7,173.489Z" transform="translate(-66.07 -43.547)" fill="#f0d7cd"/>
          <path id="12a-Path_12" data-name="12a-Path 12" d="M177.593,178.658c-4.047-.162-9.319-6.834-25.163-4.971s-21.436,16.465-6.213,43.493,24.114,29.989,29.4,30.3,20-12.9,27.767-27.5,17.086-36.658,3.106-43.493-21.125,2.485-28.892,2.175" transform="translate(-55.609 -46.44)" fill="#00822c"/>
          <path id="12a-Path_13" data-name="12a-Path 13" d="M180.773,189.354c-2.9-.114-6.666-4.821-18-3.506s-15.331,11.615-4.444,30.679,17.567,23.549,21.344,23.768,13.985-11.5,19.54-21.8,12.221-25.858,2.222-30.678-15.109,1.753-20.663,1.533" transform="translate(-59.059 -49.324)" fill="#0083cb"/>
          <path id="12a-Path_14" data-name="12a-Path 14" d="M256.389,167.725s-6.065,9.434-6.514,28.526,3.593,53.908,3.593,53.908l1.373-.025.074-1.172.449-.025-.1,1.273,1.2.025.1-1.323h.4l.174,1.448,1.049.024.2-1.721,24.088-1.223.3,3.141.818.082.19-3.38.982-.028.054,3.326,1.5-.081.191-3.382.709-.027.053,3.517h1.2S297.5,218.582,298,195.572s-3.521-29.8-3.521-29.8l-4.149-.378-4.526,11.191-22.257-.252-3.771-9.556Z" transform="translate(-82.095 -44.566)" fill="#f0d7cd"/>
          <path id="12a-Path_15" data-name="12a-Path 15" d="M250.129,195.377c-.19,4,1.212,11.112,10.427,12.123,8.786.964,13.433-4.721,13.524-10.7.119-7.858-3.75-11.609-10.737-12.208-8.718-.748-12.972,5.7-13.215,10.79" transform="translate(-82.16 -49.068)" fill="#e23b18"/>
          <path id="12a-Path_16" data-name="12a-Path 16" d="M281.082,196.6c-.189,3.95,1.2,10.978,10.3,11.977,8.681.951,13.272-4.664,13.362-10.577.118-7.763-3.705-11.469-10.608-12.06-8.612-.74-12.815,5.628-13.054,10.66" transform="translate(-89.442 -49.387)" fill="#e23b18"/>
          <path id="12a-Path_17" data-name="12a-Path 17" d="M252.749,194.843c-.128,2.669.809,7.418,6.958,8.092,5.866.643,8.967-3.151,9.028-7.146.079-5.246-2.5-7.749-7.167-8.149-5.819-.5-8.659,3.8-8.82,7.2" transform="translate(-82.777 -49.791)" fill="#ab1d78"/>
          <path id="12a-Path_18" data-name="12a-Path 18" d="M255.564,194.726c-.057,1.185.073,3.307,3.091,3.594s3.983-1.4,4.01-3.174c.035-2.33-1.113-3.442-3.184-3.619a3.428,3.428,0,0,0-3.918,3.2" transform="translate(-83.44 -50.711)" fill="#db1778"/>
          <path id="12a-Path_19" data-name="12a-Path 19" d="M257.149,194.554a1.162,1.162,0,0,0,1.18,1.371c1.152.11,1.519-.534,1.529-1.211a1.2,1.2,0,0,0-1.215-1.381,1.308,1.308,0,0,0-1.494,1.221" transform="translate(-83.814 -51.138)" fill="#120723"/>
          <path id="12a-Path_20" data-name="12a-Path 20" d="M283.1,196.949c-.135,2.793.845,7.762,7.281,8.468,6.137.673,9.383-3.3,9.447-7.477.083-5.488-2.621-8.108-7.5-8.527-6.087-.522-9.059,3.98-9.228,7.536" transform="translate(-89.919 -50.208)" fill="#ab1d78"/>
          <path id="12a-Path_21" data-name="12a-Path 21" d="M285.37,195.573c-.06,1.269.077,3.542,3.311,3.85s4.266-1.5,4.295-3.4c.038-2.5-1.191-3.687-3.409-3.877a3.672,3.672,0,0,0-4.2,3.427" transform="translate(-90.452 -50.856)" fill="#db1778"/>
          <path id="12a-Path_22" data-name="12a-Path 22" d="M286.879,195.684a1.161,1.161,0,0,0,1.18,1.37c1.152.11,1.519-.534,1.529-1.211a1.2,1.2,0,0,0-1.214-1.381,1.309,1.309,0,0,0-1.495,1.221" transform="translate(-90.809 -51.404)" fill="#120723"/>
          <path id="12a-Path_23" data-name="12a-Path 23" d="M277.181,210.762l5.727-.169-3.032,6.739Z" transform="translate(-88.528 -55.2)" fill="#120723"/>
          <path id="12a-Path_24" data-name="12a-Path 24" d="M274.046,223.079c-2.194-.088-5.052-3.706-13.645-2.695s-11.625,8.928-3.369,23.586,13.078,16.263,15.941,16.432,10.845-7,15.058-14.915,9.265-19.88,1.684-23.587-11.455,1.347-15.668,1.179" transform="translate(-82.645 -57.462)" fill="#e23b18"/>
          <path id="12a-Path_25" data-name="12a-Path 25" d="M276.423,229.068c-1.453-.057-3.347-2.42-9.038-1.76s-7.7,5.832-2.232,15.4,8.822,11.826,10.718,11.935,7.023-5.773,9.812-10.944,6.137-12.986,1.115-15.406-7.588.881-10.376.77" transform="translate(-84.941 -59.105)" fill="#0083cb"/>
        </g>
      </g>
    </g>
  </g>
</svg>
