<svg width="200" height="300" viewBox="0 0 200 300" fill="none" xmlns="http://www.w3.org/2000/svg">
<g clip-path="url(#clip0_1901_34644)">
<rect width="200" height="300" fill="#71BDB6"/>
<path d="M89.0736 204.982C88.2508 182.537 93.9881 164.131 127.545 160.506C161.102 156.882 184.933 172.997 183.584 199.734C182.235 226.471 169.5 242.238 132.934 242.772C104.484 243.187 89.9408 228.636 89.0736 205.019" fill="#E4E4D7"/>
<path d="M93.2543 204.241C92.5649 185.28 98.8582 168.142 128.664 164.999C158.47 161.856 179.663 176.963 178.425 199.557C177.187 222.15 164.341 238.584 134.995 239.066C109.732 239.481 93.9881 224.196 93.2543 204.227" fill="#E40524"/>
<path d="M93.2543 204.241C92.5649 185.28 98.8582 168.142 128.664 164.999C158.47 161.856 179.663 176.963 178.425 199.557C177.187 222.15 164.341 238.584 134.995 239.066C109.732 239.481 93.9881 224.196 93.2543 204.227V204.241Z" stroke="#A9924D" stroke-width="0.62"/>
<path d="M104.566 205.02C104.002 189.595 107.412 173.613 130.213 171.108C153.014 168.602 169.678 183.035 168.759 201.418C167.84 219.801 158.047 233.151 135.61 233.492C116.277 233.781 105.159 221.261 104.566 205.02" fill="#B68BBE"/>
<path d="M104.566 205.02C104.002 189.595 107.412 173.613 130.213 171.108C153.014 168.602 169.678 183.035 168.759 201.418C167.84 219.801 158.047 233.151 135.61 233.492C116.277 233.781 105.159 221.261 104.566 205.02V205.02Z" stroke="#A9924D" stroke-width="0.62" stroke-miterlimit="10"/>
<path d="M114.314 204.004C113.906 192.655 116.723 182.448 133.49 180.61C150.257 178.771 162.199 187.83 161.532 201.365C160.865 214.9 153.608 226.093 137.07 226.338C122.86 226.56 114.751 215.96 114.306 204.019" fill="#EC6329"/>
<path d="M114.314 204.004C113.906 192.655 116.723 182.448 133.49 180.61C150.257 178.771 162.199 187.83 161.532 201.365C160.865 214.9 153.608 226.093 137.07 226.338C122.86 226.56 114.751 215.96 114.306 204.019L114.314 204.004Z" stroke="#A9924D" stroke-width="0.62"/>
<path d="M121.236 205.027C120.925 196.539 122.8 187.755 135.32 186.377C147.84 184.998 157.024 192.937 156.528 203.04C156.031 213.144 150.657 220.497 138.293 220.682C127.663 220.845 121.548 213.959 121.244 205.027" fill="#002D40"/>
<path d="M121.236 205.027C120.925 196.539 122.8 187.755 135.32 186.377C147.84 184.998 157.024 192.937 156.528 203.04C156.031 213.144 150.657 220.497 138.293 220.682C127.663 220.845 121.548 213.959 121.244 205.027H121.236Z" stroke="#A9924D" stroke-width="0.62" stroke-miterlimit="10"/>
<path d="M128.634 204.833C128.449 199.882 129.538 194.752 136.854 193.952C144.171 193.151 149.515 197.777 149.234 203.677C148.952 209.577 145.801 213.854 138.589 213.966C132.392 214.055 128.819 210.044 128.634 204.833Z" fill="#006B37"/>
<path d="M128.634 204.833C128.449 199.882 129.538 194.752 136.854 193.952C144.171 193.151 149.515 197.777 149.234 203.677C148.952 209.577 145.801 213.854 138.589 213.966C132.392 214.055 128.819 210.044 128.634 204.833Z" stroke="#A9924D" stroke-width="0.62" stroke-miterlimit="10"/>
<path d="M133.17 205.152C133.074 202.639 133.645 200.03 137.448 199.622C141.25 199.215 144.022 201.564 143.867 204.559C143.711 207.554 142.088 209.748 138.337 209.792C135.113 209.844 133.259 207.798 133.148 205.152" fill="#2EA836"/>
<path d="M133.17 205.152C133.074 202.639 133.645 200.03 137.448 199.622C141.25 199.215 144.022 201.564 143.867 204.559C143.711 207.554 142.088 209.748 138.337 209.792C135.113 209.844 133.259 207.798 133.148 205.152H133.17Z" stroke="#A9924D" stroke-width="0.62" stroke-miterlimit="10"/>
<path d="M70.285 182.479C70.8335 198.75 66.6528 212.085 42.4136 214.657C18.1744 217.229 1.00685 205.458 2.04461 186.089C3.08238 166.72 12.8522 155.104 38.6999 155C59.2476 154.926 69.7142 165.378 70.285 182.486" fill="#EC6329"/>
<path d="M65.9857 183.798C66.4379 197.215 61.9384 209.327 40.8421 211.477C19.7459 213.627 4.79469 202.901 5.72126 186.919C6.64784 170.937 15.7431 159.337 36.528 159.062C54.3776 158.825 65.4965 169.677 65.9857 183.798Z" fill="#E4E4D7"/>
<path d="M65.9857 183.798C66.4379 197.215 61.9384 209.327 40.8421 211.477C19.7459 213.627 4.79469 202.901 5.72126 186.919C6.64784 170.937 15.7431 159.337 36.528 159.062C54.3776 158.825 65.4965 169.677 65.9857 183.798Z" stroke="#A9924D" stroke-width="0.62"/>
<path d="M57.9797 183.189C58.3503 194.108 55.9042 205.427 39.767 207.124C23.6297 208.822 11.8734 198.6 12.5553 185.628C13.2373 172.656 20.1829 163.197 36.0903 163.012C49.7591 162.849 57.5869 171.729 57.9797 183.219" fill="#006B37"/>
<path d="M57.9797 183.189C58.3503 194.108 55.9042 205.427 39.767 207.124C23.6297 208.822 11.8734 198.6 12.5553 185.628C13.2373 172.656 20.1829 163.197 36.0903 163.012C49.7591 162.849 57.5869 171.729 57.9797 183.219V183.189Z" stroke="#A9924D" stroke-width="0.62" stroke-miterlimit="10"/>
<path d="M51.0784 183.865C51.3526 191.893 49.3364 199.106 37.4688 200.373C25.6013 201.641 17.1731 195.184 17.6772 185.637C18.1812 176.09 23.333 168.158 35.0301 168.017C45.0816 167.891 50.7967 175.43 51.0784 183.865" fill="#2EA836"/>
<path d="M51.0784 183.865C51.3526 191.893 49.3364 199.106 37.4688 200.373C25.6013 201.641 17.1731 195.184 17.6772 185.637C18.1812 176.09 23.333 168.158 35.0301 168.017C45.0816 167.891 50.7967 175.43 51.0784 183.865V183.865Z" stroke="#A9924D" stroke-width="0.62"/>
<path d="M46.2233 183.125C46.4161 189.129 45.0744 195.341 36.2015 196.282C27.3286 197.224 20.8648 191.597 21.2429 184.422C21.6209 177.247 25.431 172.087 34.1779 171.984C41.7017 171.895 46.038 176.78 46.2233 183.103" fill="#002D40"/>
<path d="M46.2233 183.125C46.4161 189.129 45.0744 195.341 36.2015 196.282C27.3286 197.224 20.8648 191.597 21.2429 184.422C21.6209 177.247 25.431 172.087 34.1779 171.984C41.7017 171.895 46.038 176.78 46.2233 183.103V183.125Z" stroke="#A9924D" stroke-width="0.62" stroke-miterlimit="10"/>
<path d="M40.961 183.272C41.0722 186.771 40.2939 190.403 35.1125 190.951C29.9311 191.5 26.1655 188.216 26.3804 184.043C26.5954 179.869 28.834 176.853 33.9339 176.786C38.3221 176.734 40.835 179.588 40.961 183.272" fill="#DB94C0"/>
<path d="M40.961 183.272C41.0722 186.771 40.2939 190.403 35.1125 190.951C29.9311 191.5 26.1655 188.216 26.3804 184.043C26.5954 179.869 28.834 176.853 33.9339 176.786C38.3221 176.734 40.835 179.588 40.961 183.272V183.272Z" stroke="#A9924D" stroke-width="0.62" stroke-miterlimit="10"/>
<path d="M38.0698 183.657C38.1439 185.94 37.6176 188.305 34.1633 188.668C30.7091 189.031 28.2333 186.889 28.3519 184.169C28.4705 181.448 29.99 179.477 33.3924 179.432C36.313 179.395 37.9882 181.256 38.0698 183.657Z" fill="#A1C5BE"/>
<path d="M38.0698 183.657C38.1439 185.94 37.6176 188.305 34.1633 188.668C30.7091 189.031 28.2333 186.889 28.3519 184.169C28.4705 181.448 29.99 179.477 33.3924 179.432C36.313 179.395 37.9882 181.256 38.0698 183.657Z" stroke="#A9924D" stroke-width="0.62" stroke-miterlimit="10"/>
<path d="M-58.6785 80.9814C-60.9023 45.6603 -52.652 16.4176 0.0663679 9.24223C52.7848 2.06683 90.9893 26.5136 89.9886 68.6838C88.9879 110.854 64.1186 136.428 12.0081 138.614C-32.8011 140.497 -56.3213 118.148 -58.6785 80.9814" fill="#E4E4D7"/>
<path d="M-52.696 79.4483C-54.5862 49.6051 -45.3798 22.3712 1.41595 16.1372C48.2117 9.90325 82.28 32.8452 81.2793 68.4924C80.2786 104.14 60.7909 130.573 14.5214 132.56C-25.2546 134.272 -50.7094 110.855 -52.696 79.4483" fill="#E40524"/>
<path d="M-52.696 79.4483C-54.5862 49.6051 -45.3798 22.3712 1.41595 16.1372C48.2117 9.90325 82.28 32.8452 81.2793 68.4924C80.2786 104.14 60.7909 130.573 14.5214 132.56C-25.2546 134.272 -50.7094 110.855 -52.696 79.4483V79.4483Z" stroke="#A9924D" stroke-width="0.62"/>
<path d="M-34.2625 80.4475C-35.8044 56.1712 -31.1048 30.8498 4.66841 25.9501C40.4416 21.0503 67.379 43.0806 66.7267 72.0787C66.0744 101.077 51.2269 122.521 15.8318 123.967C-14.6118 125.242 -32.6466 105.984 -34.2625 80.4178" fill="#B68BBE"/>
<path d="M-34.2625 80.4475C-35.8044 56.1712 -31.1048 30.8498 4.66841 25.9501C40.4416 21.0503 67.379 43.0806 66.7267 72.0787C66.0744 101.077 51.2269 122.521 15.8318 123.967C-14.6118 125.242 -32.6466 105.984 -34.2625 80.4178V80.4475Z" stroke="#A9924D" stroke-width="0.62" stroke-miterlimit="10"/>
<path d="M-18.9461 78.44C-20.0729 60.5756 -16.0701 44.3791 10.2669 40.7765C36.6038 37.174 55.8173 50.954 55.3207 72.243C54.824 93.532 43.8756 111.53 17.8426 112.627C-4.53608 113.561 -17.7379 97.2012 -18.9461 78.4103" fill="#EC6329"/>
<path d="M-18.9461 78.44C-20.0729 60.5756 -16.0701 44.3791 10.2669 40.7765C36.6038 37.174 55.8173 50.954 55.3207 72.243C54.824 93.532 43.8756 111.53 17.8426 112.627C-4.53608 113.561 -17.7379 97.2012 -18.9461 78.4103V78.44Z" stroke="#A9924D" stroke-width="0.62"/>
<path d="M-8.00503 79.7661C-8.85007 66.4234 -6.26307 52.4804 13.4248 49.7896C33.1127 47.0988 47.886 59.211 47.5227 75.1555C47.1595 91.1 39.0057 102.893 19.5328 103.709C2.80253 104.406 -7.15257 93.8204 -8.01243 79.7661" fill="#002D40"/>
<path d="M-8.00503 79.7661C-8.85007 66.4234 -6.26307 52.4804 13.4248 49.7896C33.1127 47.0988 47.886 59.211 47.5227 75.1555C47.1595 91.1 39.0057 102.893 19.5328 103.709C2.80253 104.406 -7.15257 93.8204 -8.01243 79.7661H-8.00503Z" stroke="#A9924D" stroke-width="0.62" stroke-miterlimit="10"/>
<path d="M3.63947 79.1432C3.14282 71.3525 4.6476 63.2283 16.1445 61.6569C27.6415 60.0854 36.2475 67.157 36.0474 76.482C35.8472 85.8071 31.0587 92.6637 19.7396 93.1307C9.97724 93.5384 4.17318 87.3637 3.66913 79.1654" fill="#006B37"/>
<path d="M3.63947 79.1432C3.14282 71.3525 4.6476 63.2283 16.1445 61.6569C27.6415 60.0854 36.2475 67.157 36.0474 76.482C35.8472 85.8071 31.0587 92.6637 19.7396 93.1307C9.97724 93.5384 4.17318 87.3637 3.66913 79.1654L3.63947 79.1432Z" stroke="#A9924D" stroke-width="0.62" stroke-miterlimit="10"/>
<path d="M9.9841 78.0978C9.65794 73.0202 10.666 67.7202 18.3307 66.6898C25.9953 65.6595 31.7326 70.2553 31.577 76.3262C31.4213 82.3971 28.2487 86.8817 20.673 87.2005C14.1648 87.4747 10.2954 83.4942 9.9841 78.1052" fill="#2EA836"/>
<path d="M9.9841 78.0978C9.65794 73.0202 10.666 67.7202 18.3307 66.6898C25.9953 65.6595 31.7326 70.2553 31.577 76.3262C31.4213 82.3971 28.2487 86.8817 20.673 87.2005C14.1648 87.4747 10.2954 83.4942 9.9841 78.1052V78.0978Z" stroke="#A9924D" stroke-width="0.62" stroke-miterlimit="10"/>
<path d="M85.6439 96.3987C86.9708 82.1146 95.7918 74.0349 113.071 74.5463C127.896 74.9837 135.308 82.589 135.597 95.2571C135.879 106.984 132.803 114.122 127.303 118.977C121.484 124.122 110.787 125.078 110.758 124.114C110.758 123.373 117.674 122.632 117.222 120.408C116.903 118.792 114.123 119.215 111.825 119.103C93.6199 118.199 84.3245 110.69 85.6439 96.3987Z" fill="#E4E4D7"/>
<path d="M131.912 96.2345C131.838 106.145 129.095 115.403 113.477 116.352C97.8586 117.301 87.1623 108.94 88.326 97.1833C89.4898 85.4269 96.554 77.1693 111.891 77.577C125.078 77.9476 131.994 85.8124 131.905 96.2345" fill="#E40524"/>
<path d="M131.912 96.2345C131.838 106.145 129.095 115.403 113.477 116.352C97.8586 117.301 87.1623 108.94 88.326 97.1833C89.4898 85.4269 96.554 77.1693 111.891 77.577C125.078 77.9476 131.994 85.8124 131.905 96.2345H131.912Z" stroke="#A9924D" stroke-width="0.62"/>
<path d="M126.978 96.0194C126.911 104.077 124.754 111.764 112.775 112.542C100.797 113.32 92.5094 105.982 93.4063 96.4123C94.3032 86.8426 99.5513 80.3936 111.263 80.7272C121.352 81.0237 127.045 87.532 126.978 96.0194" fill="#B68BBE"/>
<path d="M126.978 96.0194C126.911 104.077 124.754 111.764 112.775 112.542C100.797 113.32 92.5094 105.982 93.4063 96.4123C94.3032 86.8426 99.5513 80.3936 111.263 80.7272C121.352 81.0237 127.045 87.532 126.978 96.0194V96.0194Z" stroke="#A9924D" stroke-width="0.62" stroke-miterlimit="10"/>
<path d="M121.87 96.3249C121.818 102.255 120.113 107.511 111.329 108.081C102.545 108.652 96.5037 103.634 97.1856 96.6214C97.8676 89.6091 101.885 83.9014 110.528 84.1609C117.941 84.3758 121.929 90.0909 121.884 96.3249" fill="#EC6329"/>
<path d="M121.87 96.3249C121.818 102.255 120.113 107.511 111.329 108.081C102.545 108.652 96.5037 103.634 97.1856 96.6214C97.8676 89.6091 101.885 83.9014 110.528 84.1609C117.941 84.3758 121.929 90.0909 121.884 96.3249H121.87Z" stroke="#A9924D" stroke-width="0.62"/>
<path d="M118.283 95.6343C118.283 100.082 117.067 104.604 110.5 105.033C103.932 105.463 99.3289 101.149 99.8255 95.8492C100.322 90.5492 103.258 86.88 109.744 87.0653C115.288 87.2284 118.32 90.9569 118.283 95.6269" fill="#002D40"/>
<path d="M118.283 95.6343C118.283 100.082 117.067 104.604 110.5 105.033C103.932 105.463 99.3289 101.149 99.8255 95.8492C100.322 90.5492 103.258 86.88 109.744 87.0653C115.288 87.2284 118.32 90.9569 118.283 95.6269V95.6343Z" stroke="#A9924D" stroke-width="0.62" stroke-miterlimit="10"/>
<path d="M114.42 95.5609C114.42 98.1479 113.716 100.802 109.876 101.046C106.036 101.291 103.368 98.7557 103.649 95.6869C103.931 92.6181 105.673 90.4981 109.438 90.5722C112.67 90.6611 114.442 92.8404 114.42 95.5609Z" fill="#006B37"/>
<path d="M114.42 95.5609C114.42 98.1479 113.716 100.802 109.876 101.046C106.036 101.291 103.368 98.7557 103.649 95.6869C103.931 92.6181 105.673 90.4981 109.438 90.5722C112.67 90.6611 114.442 92.8404 114.42 95.5609Z" stroke="#A9924D" stroke-width="0.62" stroke-miterlimit="10"/>
<path d="M111.795 95.822C111.795 97.1414 111.424 98.4831 109.43 98.6091C107.436 98.7351 106.05 97.4453 106.221 95.8887C106.224 95.5164 106.306 95.149 106.461 94.8106C106.617 94.4722 106.842 94.1704 107.121 93.9248C107.401 93.6792 107.73 93.4955 108.085 93.3856C108.441 93.2756 108.816 93.242 109.186 93.2869C109.526 93.2681 109.866 93.3205 110.185 93.4405C110.504 93.5606 110.794 93.7458 111.038 93.9843C111.281 94.2228 111.472 94.5094 111.599 94.8258C111.725 95.1421 111.785 95.4814 111.773 95.822" fill="#2EA836"/>
<path d="M111.795 95.822C111.795 97.1414 111.424 98.4831 109.43 98.6091C107.436 98.7351 106.05 97.4453 106.221 95.8887C106.224 95.5164 106.306 95.149 106.461 94.8106C106.617 94.4722 106.842 94.1704 107.121 93.9248C107.401 93.6792 107.73 93.4955 108.085 93.3856C108.441 93.2756 108.816 93.242 109.186 93.2869C109.526 93.2681 109.866 93.3205 110.185 93.4405C110.504 93.5606 110.794 93.7458 111.038 93.9843C111.281 94.2228 111.472 94.5094 111.599 94.8258C111.725 95.1421 111.785 95.4814 111.773 95.822H111.795Z" stroke="#A9924D" stroke-width="0.62" stroke-miterlimit="10"/>
<path d="M134.551 110.381C134.7 85.2818 142.068 65.0084 179.724 62.6067C217.38 60.205 243.168 79.3814 240.337 109.158C237.505 138.934 220.73 157.792 183.801 155.798C176.9 155.42 171.133 153.952 170.51 156.443C169.487 160.535 177.923 163.344 177.411 164.597C176.714 166.324 158.079 159.097 149.295 149.03C137.279 135.228 134.47 124.747 134.551 110.381" fill="#EC6329"/>
<path d="M140.718 109.395C140.881 88.1872 147.308 69.7299 180.746 67.6988C214.184 65.6678 236.237 83.9695 233.716 109.128C231.196 134.286 216.942 151.632 184.119 150.712C155.884 149.927 140.547 131.714 140.718 109.395Z" fill="#E4E4D7"/>
<path d="M140.718 109.395C140.881 88.1872 147.308 69.7299 180.746 67.6988C214.184 65.6678 236.237 83.9695 233.716 109.128C231.196 134.286 216.942 151.632 184.119 150.712C155.884 149.927 140.547 131.714 140.718 109.395Z" stroke="#A9924D" stroke-width="0.62"/>
<path d="M151.852 111.234C151.985 93.977 156.411 77.9732 181.999 76.3276C211.746 74.4152 225.629 89.9149 223.717 110.389C221.805 130.862 211.479 144.264 186.35 143.523C164.757 142.893 151.711 129.439 151.852 111.234Z" fill="#006B37"/>
<path d="M151.852 111.234C151.985 93.977 156.411 77.9732 181.999 76.3276C211.746 74.4152 225.629 89.9149 223.717 110.389C221.805 130.862 211.479 144.264 186.35 143.523C164.757 142.893 151.711 129.439 151.852 111.234Z" stroke="#A9924D" stroke-width="0.62" stroke-miterlimit="10"/>
<path d="M162.793 110.581C162.89 97.8834 166.537 86.631 185.35 85.3783C204.163 84.1256 217.046 94.8961 215.63 109.958C214.214 125.021 205.549 137.178 187.092 136.636C171.214 136.169 162.689 123.931 162.793 110.581Z" fill="#2EA836"/>
<path d="M162.793 110.581C162.89 97.8834 166.537 86.631 185.35 85.3783C204.163 84.1256 217.046 94.8961 215.63 109.958C214.214 125.021 205.549 137.178 187.092 136.636C171.214 136.169 162.689 123.931 162.793 110.581Z" stroke="#A9924D" stroke-width="0.62"/>
<path d="M170.466 112.063C170.54 102.575 173.068 92.8568 187.129 91.9377C201.191 91.0185 211.035 100.336 209.997 111.603C208.96 122.87 202.585 130.802 188.745 130.387C176.885 130.046 170.384 122.055 170.466 112.063Z" fill="#002D40"/>
<path d="M170.466 112.063C170.54 102.575 173.068 92.8568 187.129 91.9377C201.191 91.0185 211.035 100.336 209.997 111.603C208.96 122.87 202.585 130.802 188.745 130.387C176.885 130.046 170.384 122.055 170.466 112.063Z" stroke="#A9924D" stroke-width="0.62" stroke-miterlimit="10"/>
<path d="M178.73 112.211C178.775 106.682 180.213 101.004 188.456 100.47C196.699 99.9361 202.399 105.377 201.798 111.944C201.198 118.512 197.47 123.138 189.405 122.9C182.481 122.7 178.701 118.038 178.745 112.211" fill="#DB94C0"/>
<path d="M178.73 112.211C178.775 106.682 180.213 101.004 188.456 100.47C196.699 99.9361 202.399 105.377 201.798 111.944C201.198 118.512 197.47 123.138 189.405 122.9C182.481 122.7 178.701 118.038 178.745 112.211H178.73Z" stroke="#A9924D" stroke-width="0.62" stroke-miterlimit="10"/>
<path d="M182.569 111.796C182.569 108.186 183.577 104.487 189.048 104.139C194.518 103.79 198.351 107.341 197.943 111.618C197.535 115.895 195.059 118.92 189.685 118.764C185.067 118.631 182.547 115.591 182.577 111.796" fill="#A1C5BE"/>
<path d="M182.569 111.796C182.569 108.186 183.577 104.487 189.048 104.139C194.518 103.79 198.351 107.341 197.943 111.618C197.535 115.895 195.059 118.92 189.685 118.764C185.067 118.631 182.547 115.591 182.577 111.796H182.569Z" stroke="#A9924D" stroke-width="0.62" stroke-miterlimit="10"/>
<path d="M123.069 48.8981C123.158 37.4679 126.494 28.2392 143.639 27.1347C160.784 26.0302 172.548 34.7845 171.236 48.3422C169.924 61.8998 162.297 70.4021 145.463 69.9128C130.986 69.4903 122.98 60.9213 123.069 48.8981" fill="#EC6329"/>
<path d="M125.213 48.609C125.287 38.9726 128.882 30.3888 144.101 29.4623C159.319 28.5357 169.756 36.697 168.614 48.1568C167.472 59.6167 160.594 67.6816 145.635 67.2591C132.781 66.9033 125.124 58.7791 125.198 48.609" fill="#E4E4D7"/>
<path d="M125.213 48.609C125.287 38.9726 128.882 30.3888 144.101 29.4623C159.319 28.5357 169.756 36.697 168.614 48.1568C167.472 59.6167 160.594 67.6816 145.635 67.2591C132.781 66.9033 125.124 58.7791 125.198 48.609H125.213Z" stroke="#A9924D" stroke-width="0.62"/>
<path d="M130.948 49.2613C131.008 41.4039 133.372 34.058 145.032 33.3019C156.692 32.5458 164.542 39.5582 163.675 48.8684C162.808 58.1786 157.515 64.8277 146.085 64.4571C136.248 64.168 130.882 57.556 130.948 49.2835" fill="#006B37"/>
<path d="M135.929 48.9874C135.929 43.2056 137.634 38.0835 146.195 37.5275C154.757 36.9716 160.628 41.8491 159.983 48.7057C159.338 55.5624 155.402 61.1218 146.989 60.8475C139.761 60.64 135.87 55.0657 135.929 48.9874" fill="#2EA836"/>
<path d="M135.929 48.9874C135.929 43.2056 137.634 38.0835 146.195 37.5275C154.757 36.9716 160.628 41.8491 159.983 48.7057C159.338 55.5624 155.402 61.1218 146.989 60.8475C139.761 60.64 135.87 55.0657 135.929 48.9874V48.9874Z" stroke="#A9924D" stroke-width="0.62"/>
<path d="M139.423 49.6627C139.423 45.3412 140.609 40.9159 147.013 40.5008C153.418 40.0857 157.895 44.3257 157.391 49.4552C156.887 54.5847 154.033 58.1946 147.732 58.0093C142.321 57.8462 139.371 54.2141 139.408 49.6627" fill="#002D40"/>
<path d="M139.423 49.6627C139.423 45.3412 140.609 40.9159 147.013 40.5008C153.418 40.0857 157.895 44.3257 157.391 49.4552C156.887 54.5847 154.033 58.1946 147.732 58.0093C142.321 57.8462 139.371 54.2141 139.408 49.6627H139.423Z" stroke="#A9924D" stroke-width="0.62" stroke-miterlimit="10"/>
<path d="M143.186 49.7284C143.186 47.2081 143.876 44.6286 147.634 44.3839C151.392 44.1393 153.979 46.6077 153.705 49.5728C153.43 52.5378 151.733 54.6652 148.064 54.5614C144.906 54.4725 143.186 52.3377 143.208 49.6914" fill="#DB94C0"/>
<path d="M143.186 49.7284C143.186 47.2081 143.876 44.6286 147.634 44.3839C151.392 44.1393 153.979 46.6077 153.705 49.5728C153.43 52.5378 151.733 54.6652 148.064 54.5614C144.906 54.4725 143.186 52.3377 143.208 49.6914L143.186 49.7284Z" stroke="#A9924D" stroke-width="0.62" stroke-miterlimit="10"/>
<path d="M145.321 49.5883C145.321 48.1651 145.722 46.7048 147.879 46.5713C150.036 46.4379 151.585 47.8315 151.385 49.5364C151.185 51.2413 150.243 52.4125 148.123 52.3532C147.754 52.3752 147.384 52.3196 147.038 52.1899C146.691 52.0603 146.376 51.8594 146.112 51.6002C145.848 51.3411 145.641 51.0294 145.505 50.6855C145.369 50.3415 145.306 49.9727 145.321 49.6031" fill="#A1C5BE"/>
<path d="M145.321 49.5883C145.321 48.1651 145.722 46.7048 147.879 46.5713C150.036 46.4379 151.585 47.8315 151.385 49.5364C151.185 51.2413 150.243 52.4125 148.123 52.3532C147.754 52.3752 147.384 52.3196 147.038 52.1899C146.691 52.0603 146.376 51.8594 146.112 51.6002C145.848 51.3411 145.641 51.0294 145.505 50.6855C145.369 50.3415 145.306 49.9727 145.321 49.6031V49.5883Z" stroke="#A9924D" stroke-width="0.54" stroke-miterlimit="10"/>
<path d="M130.948 49.2613C131.008 41.4039 133.372 34.058 145.032 33.3019C156.692 32.5458 164.542 39.5582 163.675 48.8684C162.808 58.1786 157.515 64.8277 146.085 64.4571C136.248 64.168 130.882 57.556 130.948 49.2835V49.2613Z" stroke="#A9924D" stroke-width="0.62" stroke-miterlimit="10"/>
<path d="M175.84 48.6323C176.158 41.2197 179.227 34.9709 190.413 34.6447C201.598 34.3186 208.618 40.7157 207.477 49.5144C206.335 58.3132 200.568 63.1091 189.62 62.4123C180.206 61.8119 175.536 56.4823 175.84 48.6323" fill="#E4E4D7"/>
<path d="M177.715 48.5203C177.974 42.3679 180.584 36.586 190.316 36.334C200.049 36.082 206.387 41.9379 205.408 49.2171C204.43 56.4963 199.745 61.6925 190.22 61.0773C182.066 60.5658 177.441 55.0212 177.715 48.5352" fill="#E40524"/>
<path d="M177.715 48.5203C177.974 42.3679 180.584 36.586 190.316 36.334C200.049 36.082 206.387 41.9379 205.408 49.2171C204.43 56.4963 199.745 61.6925 190.22 61.0773C182.066 60.5658 177.441 55.0212 177.715 48.5352V48.5203Z" stroke="#A9924D" stroke-width="0.62"/>
<path d="M181.353 49.1066C181.568 44.0735 183.08 39.0106 190.522 38.7883C197.964 38.5659 202.998 43.6583 202.234 49.5884C201.471 55.5185 197.957 59.588 190.678 59.121C184.407 58.7207 181.13 54.3844 181.353 49.1066Z" fill="#B68BBE"/>
<path d="M181.353 49.1066C181.568 44.0735 183.08 39.0106 190.522 38.7883C197.964 38.5659 202.998 43.6583 202.234 49.5884C201.471 55.5185 197.957 59.588 190.678 59.121C184.407 58.7207 181.13 54.3844 181.353 49.1066Z" stroke="#A9924D" stroke-width="0.62" stroke-miterlimit="10"/>
<path d="M184.186 48.9236C184.349 45.1135 185.565 41.7704 191.221 41.5999C196.877 41.4294 200.635 44.817 200.057 49.2645C199.478 53.7121 196.751 57.3294 191.213 56.9736C186.455 56.6697 184.023 52.9041 184.186 48.9013" fill="#EC6329"/>
<path d="M184.186 48.9236C184.349 45.1135 185.565 41.7704 191.221 41.5999C196.877 41.4294 200.635 44.817 200.057 49.2645C199.478 53.7121 196.751 57.3294 191.213 56.9736C186.455 56.6697 184.023 52.9041 184.186 48.9013V48.9236Z" stroke="#A9924D" stroke-width="0.62"/>
<path d="M186.751 49.5376C186.869 46.7801 187.699 43.9856 191.799 43.8596C195.898 43.7335 198.655 46.5429 198.233 49.7896C197.81 53.0363 195.913 55.3046 191.88 55.0452C188.433 54.8228 186.632 52.4359 186.751 49.5376Z" fill="#002D40"/>
<path d="M186.751 49.5376C186.869 46.7801 187.699 43.9856 191.799 43.8596C195.898 43.7335 198.655 46.5429 198.233 49.7896C197.81 53.0363 195.913 55.3046 191.88 55.0452C188.433 54.8228 186.632 52.4359 186.751 49.5376Z" stroke="#A9924D" stroke-width="0.62" stroke-miterlimit="10"/>
<path d="M189.152 49.6616C189.219 48.053 189.701 46.4223 192.117 46.3481C194.534 46.274 196.12 47.9122 195.876 49.8172C195.631 51.7223 194.504 53.0269 192.169 52.8712C191.758 52.8726 191.352 52.7886 190.975 52.6246C190.598 52.4605 190.26 52.2199 189.981 51.9182C189.702 51.6164 189.489 51.2599 189.356 50.8715C189.222 50.483 189.17 50.071 189.204 49.6616" fill="#006B37"/>
<path d="M189.152 49.6616C189.219 48.053 189.701 46.4223 192.117 46.3481C194.534 46.274 196.12 47.9122 195.876 49.8172C195.631 51.7223 194.504 53.0269 192.169 52.8712C191.758 52.8726 191.352 52.7886 190.975 52.6246C190.598 52.4605 190.26 52.2199 189.981 51.9182C189.702 51.6164 189.489 51.2599 189.356 50.8715C189.222 50.483 189.17 50.071 189.204 49.6616H189.152Z" stroke="#A9924D" stroke-width="0.62" stroke-miterlimit="10"/>
<path d="M190.576 49.6028C190.576 48.743 190.872 47.8683 192.184 47.8312C193.496 47.7942 194.408 48.6688 194.245 49.6918C194.235 49.9394 194.172 50.182 194.061 50.4032C193.949 50.6245 193.791 50.8193 193.598 50.9745C193.405 51.1298 193.181 51.2418 192.941 51.3031C192.701 51.3644 192.45 51.3736 192.206 51.33C191.982 51.3359 191.759 51.2945 191.551 51.2086C191.344 51.1227 191.157 50.9941 191.003 50.8312C190.848 50.6684 190.73 50.4749 190.655 50.2632C190.58 50.0516 190.55 49.8266 190.568 49.6028" fill="#2EA836"/>
<path d="M190.576 49.6028C190.576 48.743 190.872 47.8683 192.184 47.8312C193.496 47.7942 194.408 48.6688 194.245 49.6918C194.235 49.9394 194.172 50.182 194.061 50.4032C193.949 50.6245 193.791 50.8193 193.598 50.9745C193.405 51.1298 193.181 51.2418 192.941 51.3031C192.701 51.3644 192.45 51.3736 192.206 51.33C191.982 51.3359 191.759 51.2945 191.551 51.2086C191.344 51.1227 191.157 50.9941 191.003 50.8312C190.848 50.6684 190.73 50.4749 190.655 50.2632C190.58 50.0516 190.55 49.8266 190.568 49.6028H190.576Z" stroke="#A9924D" stroke-width="0.62" stroke-miterlimit="10"/>
</g>
<defs>
<clipPath id="clip0_1901_34644">
<rect width="200" height="300" fill="white"/>
</clipPath>
</defs>
</svg>
