<svg width="200" height="300" viewBox="0 0 200 300" fill="none" xmlns="http://www.w3.org/2000/svg">
<g clip-path="url(#clip0_843:27142)">
<path d="M0 10C0 4.47716 4.47715 0 10 0H190C195.523 0 200 4.47715 200 10V290C200 295.523 195.523 300 190 300H10C4.47716 300 0 295.523 0 290V10Z" fill="#D7E1D3"/>
<g clip-path="url(#clip1_843:27142)">
<path d="M210.199 -0.494629H-1.08984V211.009H210.199V-0.494629Z" fill="#007BAA"/>
<path d="M183.763 72.3935L178.968 148.706L210.199 153.556V54.7019L183.763 72.3935Z" fill="#D292C0"/>
<path d="M-1.08984 -0.503662V34.8464L57.9686 76.5387L122.816 35.2112L189.262 77.3428L210.199 55.9371V-0.503662H-1.08984Z" fill="#DB428B"/>
<path d="M-1.08984 211H210.199V153.995L-1.08984 152.893V211Z" fill="#2D5152"/>
<path d="M95.5939 49.2468C95.5939 49.2468 96.3558 24.8815 93.4571 12.7693C90.5585 0.65704 83.2704 -17.5237 81.0342 -30.1748C78.0196 -47.5846 83.5188 -64.0741 87.7592 -74.4122C91.4446 -83.3492 99.6769 -80.5719 97.7389 -73.0111C95.8009 -65.4503 91.014 -48.2893 92.1734 -34.7013C93.1838 -22.8627 100.82 -10.3857 105.242 10.0666C108.936 27.1862 108.737 51.3029 108.737 51.3029L95.5939 49.2468Z" fill="#00A13B"/>
<path d="M85.9698 48.9732C85.9698 48.9732 80.6942 25.2047 74.9134 14.162C69.1326 3.11922 57.1487 -12.4998 52.312 -24.3882C47.6992 -36.1918 46.1935 -48.9838 47.9392 -61.5373C49.2974 -71.1127 57.9603 -70.4577 57.952 -62.6731C57.9437 -54.8884 58.391 -42.8674 61.9936 -31.5511C65.5962 -20.2347 76.371 -10.1039 85.7048 8.62402C93.5063 24.3757 99.2623 47.7545 99.2623 47.7545L85.9698 48.9732Z" fill="#00A13B"/>
<path d="M72.8265 58.9216C72.8265 58.9216 63.3437 36.4713 55.6746 26.6887C48.0056 16.9061 33.4045 3.64978 26.4974 -7.12769C19.8267 -17.9113 16.034 -30.229 15.4824 -42.9006C15.0932 -52.5672 23.7644 -53.4874 25.1309 -45.8022C26.4974 -38.1171 29.1393 -26.4028 34.7214 -15.9569C40.3034 -5.51107 52.7511 2.54717 65.2983 19.3186C75.7997 33.3293 85.6801 55.3236 85.6801 55.3236L72.8265 58.9216Z" fill="#00A13B"/>
<path d="M65.9109 70.7105C65.9109 70.7105 52.2706 50.5069 42.854 42.3989C33.4375 34.2909 16.5506 24.1269 7.69722 14.8417C-0.92476 5.55787 -7.02159 -5.78613 -10.0096 -18.1042C-12.254 -27.5054 -3.94718 -30.0837 -1.08163 -22.8131C1.78392 -15.5424 6.57916 -4.55771 14.0826 4.64459C21.586 13.8469 35.3092 19.2854 50.8709 33.3044C63.8818 45.0186 77.8286 64.6917 77.8286 64.6917L65.9109 70.7105Z" fill="#00A13B"/>
<path d="M48.1547 82.2674C48.1547 82.2674 33.1313 63.0835 23.1682 55.6554C13.205 48.2272 -4.39411 39.0332 -13.8438 30.6433C-33.1987 13.4243 -54.2182 -37.2962 -57.5724 -47.9576C-60.4793 -57.1848 -51.775 -60.3931 -48.4623 -53.3629C-45.1495 -46.3327 -23.6827 6.32771 -8.22036 20.0234C0.707564 27.8827 14.0166 33.1304 30.5308 46.0137C44.3285 56.7911 59.6169 75.4279 59.6169 75.4279L48.1547 82.2674Z" fill="#00A13B"/>
<path d="M40.1217 91.7847C40.1217 91.7847 20.4521 77.376 8.85744 72.9241C-2.73726 68.4722 -22.059 64.6338 -33.5295 58.8305C-44.7717 53.0014 -54.3305 44.3805 -61.2905 33.7936C-66.5744 25.7022 -59.6341 20.471 -54.491 26.3323C-49.348 32.1936 -41.0909 40.9565 -30.8958 47.0914C-20.7008 53.2262 -6.05003 53.7071 13.3628 61.6824C29.5623 68.3147 49.3064 82.0933 49.3064 82.0933L40.1217 91.7847Z" fill="#BF318A"/>
<path d="M32.047 103.184C32.047 103.184 9.46214 94.0645 -2.87793 92.6303C-15.218 91.1961 -34.8876 92.1992 -47.4264 89.4634C-59.7594 86.5901 -71.1489 80.5955 -80.5045 72.0536C-87.6187 65.5208 -82.1609 58.7393 -75.7506 63.1663C-69.3404 67.5934 -59.1868 74.0018 -47.824 77.4258C-36.4612 80.8497 -22.0506 77.6828 -1.31265 80.5844C16.0214 83.0218 38.5731 91.5277 38.5731 91.5277L32.047 103.184Z" fill="#BF318A"/>
<path d="M32.8168 119.665C32.8168 119.665 8.95651 114.782 -3.44154 115.57C-15.8396 116.357 -35.0371 120.95 -47.8244 120.544C-60.4706 119.95 -72.7527 116.117 -83.4947 109.41C-91.6689 104.262 -87.5363 96.6096 -80.4221 99.8014C-73.3079 102.993 -62.2018 107.47 -50.3835 108.788C-38.5652 110.106 -24.9828 104.378 -4.07097 103.499C13.4205 102.761 37.1234 107.047 37.1234 107.047L32.8168 119.665Z" fill="#BF318A"/>
<path d="M37.4135 136.246C37.4135 136.246 13.0564 136.08 1.04756 139.264C-10.9612 142.447 -28.8833 150.638 -41.5464 152.694C-54.0676 154.56 -66.8578 153.176 -78.6909 148.673C-87.7099 145.208 -85.1342 136.892 -77.5314 138.65C-69.9286 140.408 -58.1517 142.646 -46.3251 141.659C-34.4985 140.673 -22.2578 132.416 -1.90909 127.499C15.102 123.354 39.1941 123.006 39.1941 123.006L37.4135 136.246Z" fill="#BF318A"/>
<path d="M38.0924 153.233C38.0924 153.233 13.8263 154.783 2.03284 158.812C-9.76063 162.841 -27.0202 172.259 -39.5093 175.211C-51.8715 177.953 -64.7301 177.47 -76.8525 173.809C-86.0869 170.991 -84.0992 162.518 -76.397 163.737C-68.6949 164.955 -56.7854 166.348 -45.0582 164.566C-33.331 162.783 -21.7032 153.647 -1.74373 147.313C14.9361 142.016 38.9371 139.935 38.9371 139.935L38.0924 153.233Z" fill="#BF318A"/>
<path d="M154.817 65.5871C154.817 65.5871 175.323 52.4635 183.688 43.2529C192.053 34.0423 202.654 17.4118 212.128 8.78987C221.622 0.403482 233.109 -5.4002 245.488 -8.06443C254.938 -10.0624 257.29 -1.68914 249.96 0.972063C242.631 3.63327 231.525 8.17639 222.141 15.447C212.758 22.7177 206.969 36.3056 192.566 51.5184C180.525 64.2275 160.515 77.6662 160.515 77.6662L154.817 65.5871Z" fill="#E74124"/>
<path d="M149.649 57.4875C149.649 57.4875 166.304 39.6964 172.118 28.7116C177.932 17.7269 184.086 -1.00931 191.167 -11.7205C198.296 -22.1899 207.992 -30.651 219.325 -36.2931C227.988 -40.5709 232.336 -33.035 225.885 -28.6411C219.433 -24.2472 209.776 -17.076 202.48 -7.74109C195.183 1.59386 192.922 16.2264 182.711 34.5398C174.18 49.8355 158.105 67.8007 158.105 67.8007L149.649 57.4875Z" fill="#E74124"/>
<path d="M133.98 52.2396C133.98 52.2396 147.157 31.7293 150.892 19.9072C154.627 8.08515 157.311 -11.4884 162.354 -23.3022C167.564 -35.5222 176.674 -45.8851 185.627 -52.5589C193.378 -58.3621 199.018 -51.7298 193.461 -46.2167C187.904 -40.7036 179.722 -31.9988 174.231 -21.47C168.74 -10.9412 169.146 3.83219 162.404 23.671C156.764 40.2517 144.184 60.8284 144.184 60.8284L133.98 52.2396Z" fill="#E74124"/>
<path d="M120.356 53.1682C120.356 53.1682 129.326 30.5023 130.701 18.1414C132.075 5.78045 130.932 -13.9009 133.599 -26.4691C136.392 -38.8298 142.309 -50.2655 150.784 -59.6802C157.269 -66.8431 164.035 -61.4295 159.696 -54.9713C155.356 -48.5131 148.971 -38.3326 145.616 -26.9416C142.262 -15.5506 145.509 -1.13371 142.726 19.6337C140.399 37.002 132.042 59.6181 132.042 59.6181L120.356 53.1682Z" fill="#E74124"/>
<path d="M100.786 45.0188C100.786 45.0188 108.132 21.8058 108.637 9.37026C109.143 -3.06529 106.617 -22.614 108.389 -35.3314C110.303 -47.8589 115.403 -59.6835 123.197 -69.6701C129.168 -77.2723 136.34 -72.3561 132.415 -65.6078C128.489 -58.8594 122.882 -48.2478 120.34 -36.6495C117.797 -25.0513 122.054 -10.8997 120.737 10.0169C119.636 27.5013 112.894 50.6397 112.894 50.6397L100.786 45.0188Z" fill="#E74124"/>
<path d="M170.545 104.726C170.545 104.726 194.894 104.485 206.853 101.095C218.812 97.7039 236.585 89.2229 249.215 86.9513C261.705 84.8771 274.517 86.0475 286.426 90.3504C295.536 93.6665 293.051 102.023 285.432 100.39C277.812 98.7568 265.986 96.7257 254.184 97.9029C242.382 99.0801 230.266 107.545 210.008 112.826C193.063 117.219 168.979 118.007 168.979 118.007L170.545 104.726Z" fill="#009B99"/>
<path d="M174.744 120.677C174.744 120.677 198.762 124.822 211.11 123.669C223.458 122.517 242.498 117.361 255.327 117.41C267.985 117.622 280.375 121.085 291.312 127.466C299.635 132.366 295.735 140.142 288.529 137.166C281.324 134.19 270.061 130.045 258.234 129.083C246.408 128.121 232.974 134.248 212.095 135.715C194.645 136.984 170.818 133.402 170.818 133.402L174.744 120.677Z" fill="#009B99"/>
<path d="M170.032 136.652C170.032 136.652 192.26 146.601 204.542 148.54C216.824 150.48 236.444 150.431 248.925 153.399C262.913 156.715 279.27 168.877 287.196 176.744C294.062 183.551 288.629 189.727 282.376 185.035C276.123 180.342 260.089 169.283 248.875 165.403C237.662 161.523 223.127 164.168 202.497 160.479C185.27 157.386 163.066 148.043 163.066 148.043L170.032 136.652Z" fill="#009B99"/>
<path d="M162.288 93.8407C162.288 93.8407 186.132 88.8665 197.205 83.2539C208.278 77.6414 224.187 66.0514 236.039 61.1767C250.308 55.3154 271.03 55.0501 282.061 56.7828C291.61 58.2751 289.863 66.8141 282.061 66.7312C274.26 66.6483 257.017 66.4245 243.029 71.0008C231.749 74.69 221.429 85.0944 202.563 94.2138C186.827 101.799 163.315 107.23 163.315 107.23L162.288 93.8407Z" fill="#009B99"/>
<path d="M158.354 73.007C158.354 73.007 181.792 66.3747 192.443 59.9828C203.093 53.591 218.216 41.1057 229.621 35.2278C243.046 28.3136 269.738 26.241 280.861 27.1861C290.484 28.0152 288.431 36.9025 280.637 37.3253C272.844 37.7481 250.474 39.1326 237.281 44.5047C226.299 48.9732 216.734 60.0823 198.514 70.4701C183.316 79.1501 160.284 86.2218 160.284 86.2218L158.354 73.007Z" fill="#009B99"/>
<path d="M12.7911 110.114C14.5966 61.4418 49.712 20.8439 107.338 19.9817C167.663 19.0863 199.068 67.6844 198.273 114.624C197.379 167.799 165.866 204.749 102.832 204.749C60.5033 204.749 10.4639 173.188 12.7911 110.114Z" fill="#EAB900"/>
<path d="M33.4879 110.595C34.8876 72.783 62.16 41.2464 106.924 40.5749C153.791 39.8785 178.19 77.6328 177.569 114.094C176.873 155.405 152.392 184.106 103.429 184.106C70.5496 184.106 31.6742 159.591 33.4879 110.595" fill="#EE7326"/>
<path d="M50.8383 111.035C51.9232 82.3418 72.6281 58.366 106.584 57.8935C142.155 57.3629 160.673 86.0144 160.209 113.696C159.679 145.05 141.095 166.845 103.934 166.845C78.972 166.845 49.4635 148.234 50.8383 111.035" fill="#EA4F3A"/>
<path d="M145.137 84.4973C140.482 90.226 143.837 104.079 154.247 104.079H209.247C216.014 104.079 226.888 99.4532 226.888 89.0156C226.888 74.9966 212.361 73.952 209.247 69.7985C207.715 67.7591 206.912 61.5082 200.684 56.534C193.404 50.7307 182.952 48.0944 171.366 56.791C160.988 64.5839 164.475 74.7728 160.988 77.5666C158.396 79.6392 151.878 76.1572 145.17 84.4725" fill="#D7E1D3"/>
<path d="M52.0064 56.2438C49.4556 59.3775 51.2942 66.9715 56.9756 66.9715H87.097C90.799 66.9715 96.762 64.4346 96.762 58.7226C96.762 51.0374 88.8031 50.4322 87.097 48.1938C86.2688 47.0746 85.8133 43.6424 82.4094 40.9398C78.4175 37.7811 72.6947 36.322 66.3507 41.0807C60.6693 45.3502 62.5825 50.9048 60.6693 52.4634C59.2531 53.5992 55.7002 51.6924 52.0064 56.2438Z" fill="#D5E0D3"/>
<path d="M11.3414 157.983C0.88956 170.021 8.42612 199.12 31.7563 199.12C55.0865 199.12 136.746 199.12 155.406 199.12C176.707 199.12 206.439 195.679 205.197 162.816C203.822 126.248 162.404 135.848 155.406 127.118C151.969 122.832 150.155 109.659 136.158 99.2956C119.777 87.1751 96.2808 81.5791 70.2425 99.8179C46.9537 116.208 54.747 137.622 46.9537 143.483C41.1563 147.844 26.5387 140.532 11.3414 157.983Z" fill="#D7E1D3"/>
</g>
</g>
<defs>
<clipPath id="clip0_843:27142">
<path d="M0 10C0 4.47716 4.47715 0 10 0H190C195.523 0 200 4.47715 200 10V290C200 295.523 195.523 300 190 300H10C4.47716 300 0 295.523 0 290V10Z" fill="white"/>
</clipPath>
<clipPath id="clip1_843:27142">
<rect width="384" height="291" fill="white" transform="translate(-88 -80)"/>
</clipPath>
</defs>
</svg>
