<svg xmlns="http://www.w3.org/2000/svg" xmlns:xlink="http://www.w3.org/1999/xlink" width="200" height="300" viewBox="0 0 200 300">
  <defs>
    <clipPath id="29b-clip-Kort_-_artikel_29b">
      <rect width="200" height="300"/>
    </clipPath>
  </defs>
  <g id="29b-Kort_-_artikel_29b" data-name="29b-Kort - artikel 29b" clip-path="url(#29b-clip-Kort_-_artikel_29b)">
    <rect width="200" height="300" fill="#1a6bae"/>
    <g id="29b-Group_1" data-name="29b-Group 1" transform="translate(-245.877 -356)">
      <path id="29b-Path_1" data-name="29b-Path 1" d="M290.736,481.812c-.815-5.256-3.964-16.05-4.923-19.093-.958-3.027-2.88-5.157-5.584-7.892-3.234-3.273-6.145-5.68-6.027-6.94.115-1.235,5.045-3.432,4.693-9.594-.448-7.85-7.479-11.15-12.9-10.327a10.372,10.372,0,0,0-8.781,11.966c1.033,5.557,5.185,6.536,5.247,7.909s-3.384,3.351-6.523,6.325a19.536,19.536,0,0,0-5.618,8.676c-.794,3.089-3.573,13.6-4.388,18.854-.748,4.836,6.046,5.571,6.887,1.332s2.052-11.2,2.622-13.452c.37-1.462,1.742-1.419,1.665.385s-3.72,48.394-4.33,49.536-1.592,1.651-1.682,2.973c-.24,3.544,5.745,2.873,9.438,2.873s5.593-.72,6-3.181c.2-1.183.949-18.116.983-21.276.012-1.109.185-1.792.79-1.75.587.042.776.641.788,1.75.034,3.16.787,20.093.985,21.276.41,2.461,2.307,3.181,6,3.181s9.679.67,9.438-2.873c-.091-1.323-1.073-1.831-1.682-2.973s-4.248-47.73-4.328-49.536,1.293-1.848,1.664-.385c.571,2.252,1.829,9.33,2.672,13.57S291.486,486.649,290.736,481.812Z" transform="translate(0 0)" fill="#edd501"/>
      <path id="29b-Path_2" data-name="29b-Path 2" d="M360.651,481.812c-.813-5.256-3.962-16.05-4.923-19.093-.957-3.027-2.88-5.157-5.584-7.892-3.232-3.273-6.145-5.68-6.027-6.94.115-1.235,5.045-3.432,4.693-9.594-.448-7.85-7.479-11.15-12.9-10.327a10.372,10.372,0,0,0-8.78,11.966c1.031,5.557,5.186,6.536,5.248,7.909s-3.385,3.351-6.525,6.325a19.553,19.553,0,0,0-5.619,8.676c-.791,3.089-3.57,13.6-4.386,18.854-.749,4.836,6.044,5.571,6.887,1.332s2.052-11.2,2.624-13.452c.37-1.462,1.741-1.419,1.662.385S323.3,518.355,322.7,519.5s-1.593,1.651-1.682,2.973c-.242,3.544,5.745,2.873,9.438,2.873s5.592-.72,6-3.181c.2-1.183.95-18.116.985-21.276.012-1.109.185-1.792.789-1.75.588.042.775.641.79,1.75.033,3.16.785,20.093.982,21.276.411,2.461,2.31,3.181,6,3.181s9.681.67,9.438-2.873c-.09-1.323-1.073-1.831-1.682-2.973s-4.247-47.73-4.327-49.536,1.292-1.848,1.663-.385c.569,2.252,1.83,9.33,2.671,13.57S361.4,486.649,360.651,481.812Z" transform="translate(-31.144 0)" fill="#501a7c"/>
      <path id="29b-Path_3" data-name="29b-Path 3" d="M430.566,481.812c-.814-5.256-3.964-16.05-4.923-19.093-.958-3.027-2.881-5.157-5.584-7.892-3.234-3.273-6.146-5.68-6.027-6.94.115-1.235,5.045-3.432,4.693-9.594-.448-7.85-7.479-11.15-12.9-10.327a10.372,10.372,0,0,0-8.781,11.966c1.033,5.557,5.187,6.536,5.247,7.909s-3.383,3.351-6.523,6.325a19.558,19.558,0,0,0-5.619,8.676c-.791,3.089-3.571,13.6-4.387,18.854-.748,4.836,6.045,5.571,6.889,1.332s2.052-11.2,2.621-13.452c.372-1.462,1.742-1.419,1.664.385s-3.719,48.394-4.328,49.536-1.594,1.651-1.683,2.973c-.241,3.544,5.745,2.873,9.439,2.873s5.592-.72,6-3.181c.2-1.183.95-18.116.985-21.276.012-1.109.184-1.792.789-1.75.588.042.775.641.789,1.75.032,3.16.786,20.093.983,21.276.411,2.461,2.309,3.181,6,3.181s9.68.67,9.438-2.873c-.09-1.323-1.074-1.831-1.682-2.973s-4.247-47.73-4.328-49.536,1.293-1.848,1.665-.385c.569,2.252,1.829,9.33,2.671,13.57S431.315,486.649,430.566,481.812Z" transform="translate(-62.288 0)" fill="#fc1e23"/>
      <path id="29b-Path_4" data-name="29b-Path 4" d="M500.483,481.812c-.815-5.256-3.964-16.05-4.925-19.093-.957-3.027-2.88-5.157-5.585-7.892-3.233-3.273-6.143-5.68-6.026-6.94.114-1.235,5.046-3.432,4.693-9.594-.447-7.85-7.48-11.15-12.9-10.327a10.372,10.372,0,0,0-8.781,11.966c1.033,5.557,5.185,6.536,5.247,7.909s-3.384,3.351-6.523,6.325a19.566,19.566,0,0,0-5.618,8.676c-.793,3.089-3.572,13.6-4.386,18.854-.75,4.836,6.045,5.571,6.886,1.332s2.053-11.2,2.624-13.452c.369-1.462,1.742-1.419,1.664.385s-3.719,48.394-4.329,49.536-1.592,1.651-1.681,2.973c-.241,3.544,5.745,2.873,9.437,2.873s5.592-.72,6-3.181c.2-1.183.951-18.116.983-21.276.012-1.109.186-1.792.791-1.75.588.042.774.641.789,1.75.033,3.16.785,20.093.983,21.276.411,2.461,2.309,3.181,6,3.181s9.678.67,9.438-2.873c-.091-1.323-1.074-1.831-1.682-2.973s-4.25-47.73-4.328-49.536,1.293-1.848,1.663-.385c.571,2.252,1.831,9.33,2.672,13.57S501.231,486.649,500.483,481.812Z" transform="translate(-93.433 0)" fill="#338625"/>
      <path id="29b-Path_5" data-name="29b-Path 5" d="M570.4,481.812c-.815-5.256-3.964-16.05-4.924-19.093-.958-3.027-2.879-5.157-5.585-7.892-3.232-3.273-6.143-5.68-6.025-6.94.114-1.235,5.044-3.432,4.693-9.594-.448-7.85-7.481-11.15-12.9-10.327a10.375,10.375,0,0,0-8.781,11.966c1.033,5.557,5.187,6.536,5.248,7.909s-3.383,3.351-6.523,6.325a19.544,19.544,0,0,0-5.619,8.676c-.792,3.089-3.572,13.6-4.387,18.854-.749,4.836,6.045,5.571,6.887,1.332s2.052-11.2,2.624-13.452c.369-1.462,1.742-1.419,1.664.385s-3.719,48.394-4.329,49.536-1.593,1.651-1.682,2.973c-.241,3.544,5.744,2.873,9.438,2.873s5.593-.72,6-3.181c.2-1.183.951-18.116.984-21.276.012-1.109.184-1.792.79-1.75.589.042.775.641.789,1.75.034,3.16.786,20.093.984,21.276.411,2.461,2.308,3.181,6,3.181s9.68.67,9.439-2.873c-.09-1.323-1.073-1.831-1.683-2.973s-4.248-47.73-4.328-49.536,1.293-1.848,1.664-.385c.571,2.252,1.831,9.33,2.672,13.57S571.146,486.649,570.4,481.812Z" transform="translate(-124.577 0)" fill="#f0047f"/>
    </g>
  </g>
</svg>
