<svg xmlns="http://www.w3.org/2000/svg" xmlns:xlink="http://www.w3.org/1999/xlink" width="200" height="300" viewBox="0 0 200 300">
  <defs>
    <clipPath id="28b-clip-path">
      <rect id="28b-Rectangle_2" data-name="28b-Rectangle 2" width="312" height="312" transform="translate(0 0)" fill="none"/>
    </clipPath>
    <clipPath id="28b-clip-Kortform">
      <rect width="200" height="300"/>
    </clipPath>
  </defs>
  <g id="28b-Kortform" clip-path="url(#28b-clip-Kortform)">
    <rect width="200" height="300" fill="#a1b489"/>
    <g id="28b-Group_2" data-name="28b-Group 2" transform="translate(200 312) rotate(180)">
      <g id="28b-Group_8" data-name="28b-Group 8" clip-path="url(#28b-clip-path)">
        <g id="28b-Group_7" data-name="28b-Group 7" transform="translate(-96.303 -121.679)">
          <rect id="28b-Rectangle_1" data-name="28b-Rectangle 1" width="531.738" height="564.756" fill="#a1b489"/>
          <g id="28b-Group_3" data-name="28b-Group 3" transform="translate(76.998 177.645)">
            <g id="28b-Group_1" data-name="28b-Group 1" transform="translate(0 0)">
              <path id="28b-Path_1" data-name="28b-Path 1" d="M157.243,69.136c99.188-2.334,187.619,50.04,193.9,174.774,6.82,135.573-102.32,194.7-193.042,192.18-98.056-2.725-178.419-68.919-181.805-182.33C-26.878,147.53,35.7,71.995,157.243,69.136Z" transform="translate(23.822 -69.061)" fill="#5fad20"/>
              <path id="28b-Path_2" data-name="28b-Path 2" d="M324.124,256.291c-2.3-67.64-46.567-142.694-149.138-143.97-85.324-1.059-151.34,51.993-155.835,132.506C12.846,357.758,91.8,411.018,175.074,410.5,267.367,409.922,327.2,347.043,324.124,256.291Z" transform="translate(15.741 -77.261)" fill="#591f8b"/>
              <path id="28b-Path_3" data-name="28b-Path 3" d="M284.525,270.886c0-61.069-40.886-98.2-99.329-100.064-69.162-2.207-108.157,44.146-108.157,95.649C77.039,341,133.5,370.9,186.327,370.3,241.132,369.7,284.525,330.978,284.525,270.886Z" transform="translate(4.697 -88.341)" fill="#440158" stroke="#937b32" stroke-miterlimit="10" stroke-width="1.001"/>
            </g>
            <g id="28b-Group_2-2" data-name="28b-Group 2" transform="translate(100.661 103.413)">
              <path id="28b-Path_4" data-name="28b-Path 4" d="M168.555,197.584c42.149-5.648,98.967,14.362,100.542,74.481,1.554,60.129-40.759,86.3-77.82,88.99-43.352,3.145-82.054-22.263-89.9-71.931C94.553,245.978,123.879,203.57,168.555,197.584Z" transform="translate(-100.392 -196.67)" fill="#fe5f10"/>
              <path id="28b-Path_5" data-name="28b-Path 5" d="M181.875,229c25.587-3.537,69.3,10.061,70.394,52.154s-30.531,60.97-52.12,61.685c-30.42,1-59.821-14.964-65.315-49.738C130.057,262.888,150.6,233.316,181.875,229Z" transform="translate(-106.792 -202.698)" fill="#cd74b7" stroke="#937b32" stroke-miterlimit="10" stroke-width="1.001"/>
              <path id="28b-Path_6" data-name="28b-Path 6" d="M189.617,252.795c16.769-2.317,45.409,6.592,46.131,34.181s-20.014,39.953-34.159,40.419c-19.937.654-39.2-9.8-42.8-32.592C155.658,275,169.122,255.625,189.617,252.795Z" transform="translate(-111.379 -207.245)" fill="#fc1a1e"/>
            </g>
          </g>
          <g id="28b-Group_4" data-name="28b-Group 4" transform="translate(48.182 229.286)">
            <path id="28b-Path_7" data-name="28b-Path 7" d="M-8.394,133.858c30.5-5.376,68.415,9.052,72.3,52.012,3.836,42.37-29.671,62.089-54.862,65.092-31.451,3.751-62.03-13.81-67.749-50C-63.673,169.519-40.744,139.56-8.394,133.858Z" transform="translate(59.38 -132.784)" fill="#cd74b7"/>
            <path id="28b-Path_8" data-name="28b-Path 8" d="M.769,153.37c21.18-2.99,48.708,8.227,50.049,40.1,1.279,30.414-18.156,42.868-39.086,45.61-22.861,3-45.715-10.216-49.875-36.559C-41.764,179.633-25.549,157.084.769,153.37Z" transform="translate(55.449 -136.599)" fill="#338625" stroke="#2f3333" stroke-miterlimit="10" stroke-width="1.001"/>
            <path id="28b-Path_9" data-name="28b-Path 9" d="M2.3,168.054c17.161-3.609,38.28,5.229,39.361,28.055,1,21.086-12.949,30.5-27.9,32.739-14.192,2.13-33.089-6.694-36.07-25.565C-24.905,186.885-14.468,171.58,2.3,168.054Z" transform="translate(52.426 -139.324)" fill="#2f3333"/>
            <path id="28b-Path_10" data-name="28b-Path 10" d="M7.46,178.779C18.967,176.37,33.393,182.543,33.8,198.3S24.2,220.719,14.3,221.381c-11.366.759-22.924-5.087-24.981-18.1C-12.473,191.97-6.822,181.771,7.46,178.779Z" transform="translate(50.207 -141.41)" fill="#440158" stroke="#937b32" stroke-miterlimit="10" stroke-width="1.001"/>
          </g>
          <g id="28b-Group_5" data-name="28b-Group 5" transform="translate(368.147 213.187)">
            <path id="28b-Path_11" data-name="28b-Path 11" d="M357.7,113.366c13.316-2.348,29.519,4.415,31.217,23.167,1.674,18.5-12.606,26.642-23.6,27.954-13.728,1.637-27.078-6.029-29.574-21.829C333.574,128.934,343.582,115.857,357.7,113.366Z" transform="translate(-335.448 -112.918)" fill="#81c9b4"/>
            <path id="28b-Path_12" data-name="28b-Path 12" d="M362.049,123.035c8.784-1.24,20.2,3.413,20.757,16.629.529,12.613-7.529,17.778-16.209,18.915-9.481,1.242-18.959-4.236-20.684-15.162C344.411,133.926,351.135,124.576,362.049,123.035Z" transform="translate(-337.392 -114.8)" fill="#01a0c6"/>
            <path id="28b-Path_13" data-name="28b-Path 13" d="M362.371,128.293c7.492-1.575,16.6,2.584,17.077,12.549.435,9.205-5.545,13.011-12.072,13.991-6.2.929-14.445-2.923-15.747-11.16A13.465,13.465,0,0,1,362.371,128.293Z" transform="translate(-338.483 -115.772)" fill="#e8e815" stroke="#937b32" stroke-miterlimit="10" stroke-width="1.001"/>
            <path id="28b-Path_14" data-name="28b-Path 14" d="M365.428,135.252c4.019-.841,9.055,1.315,9.2,6.818s-3.356,7.829-6.813,8.061c-3.969.266-8.006-1.777-8.723-6.322C358.468,139.859,360.441,136.3,365.428,135.252Z" transform="translate(-339.91 -117.12)" fill="#ff4500" stroke="#937b32" stroke-miterlimit="10" stroke-width="1.001"/>
          </g>
          <g id="28b-Group_6" data-name="28b-Group 6" transform="translate(84.037 338.02)">
            <path id="28b-Path_15" data-name="28b-Path 15" d="M30.482,267.684c27.739-4.21,66.236,9.611,67.285,49.847s-29.186,58.275-49.82,58.957c-29.074.955-57.175-14.3-62.427-47.537A53.584,53.584,0,0,1,30.482,267.684Z" transform="translate(15.137 -266.959)" fill="#336e1e"/>
            <path id="28b-Path_16" data-name="28b-Path 16" d="M36.053,282.735c21.529-4.045,51.146,7.426,51.957,38.5s-22.537,45-38.47,45.526c-22.453.736-44.152-11.042-48.206-36.708C-2.194,307.748,13.153,287.039,36.053,282.735Z" transform="translate(12.109 -269.802)" fill="#e8e815"/>
            <path id="28b-Path_17" data-name="28b-Path 17" d="M43.054,300.341c13.761-3.168,32.077,4.86,32.587,25.2S61.5,355,51.511,355.344c-14.083.482-27.692-7.227-30.236-24.03C19.065,316.712,28.8,303.62,43.054,300.341Z" transform="translate(8.292 -273.162)" fill="#ff4500" stroke="#937b32" stroke-miterlimit="10" stroke-width="1.001"/>
          </g>
        </g>
      </g>
    </g>
  </g>
</svg>
