<svg xmlns="http://www.w3.org/2000/svg" xmlns:xlink="http://www.w3.org/1999/xlink" width="200" height="300" viewBox="0 0 200 300">
  <defs>
    <clipPath id="20-clip-Kort_-_artikel_20">
      <rect width="200" height="300"/>
    </clipPath>
  </defs>
  <g id="20-Kort_-_artikel_20" data-name="20-Kort - artikel 20" clip-path="url(#20-clip-Kort_-_artikel_20)">
    <rect width="200" height="300" fill="#7ab698"/>
    <g id="20-Group_7" data-name="20-Group 7" transform="translate(-0.891 -11)">
      <g id="20-Group_4" data-name="20-Group 4" transform="translate(-296 -464)">
        <path id="20-Path_27" data-name="20-Path 27" d="M533.291,449.886l5.191,276.129-119.061,2.421,8.553-282.443Z" fill="#ff480b"/>
        <path id="20-Path_28" data-name="20-Path 28" d="M490.676,722.861,489.4,690.7l-12.848-.025.688,30.862Z" fill="#2a8227"/>
        <path id="20-Path_29" data-name="20-Path 29" d="M472.414,688.855l-.061,33.723-16.252-.045,1.252-34.967Z" fill="#249380"/>
        <g id="20-Group_3" data-name="20-Group 3">
          <path id="20-Path_30" data-name="20-Path 30" d="M516.313,496.092l.314,23.343-17.166-.84.941-23.255Z" fill="#897a29"/>
          <path id="20-Path_31" data-name="20-Path 31" d="M495.469,495.681l-.625,15.922-16.137-.262,1.9-16.608Z" fill="#897a29"/>
          <path id="20-Path_32" data-name="20-Path 32" d="M476.613,494.371l-1.49,35.475-15.238-1,3.465-35.635Z" fill="#897a29"/>
          <path id="20-Path_33" data-name="20-Path 33" d="M472.428,497.915l-2.014,27.945-5.811-.511,2.568-27.737Z" fill="#3ead7a"/>
          <path id="20-Path_34" data-name="20-Path 34" d="M459.762,493.456l-1.588,22.678-10.812-.435,2.1-22.858Z" fill="#897a29"/>
          <path id="20-Path_35" data-name="20-Path 35" d="M494.92,515.464l-1.4,27.581-15.1-.011,1.666-27.954Z" fill="#897a29"/>
          <path id="20-Path_36" data-name="20-Path 36" d="M517.041,522.99,516,541.668,499.941,541l.84-18.347Z" fill="#897a29"/>
          <path id="20-Path_37" data-name="20-Path 37" d="M473.99,533.119l-.248,11.627-15.312-1.68.855-10.418Z" fill="#31a0c8"/>
          <path id="20-Path_38" data-name="20-Path 38" d="M456.141,520.242l-1.486,22.373-8.75-.915,1.77-22.519Z" fill="#55b778"/>
          <path id="20-Path_39" data-name="20-Path 39" d="M517.227,547.837l-.354,24.023-21.35-1.111,1.939-23.516Z" fill="#897a29"/>
          <path id="20-Path_40" data-name="20-Path 40" d="M514.2,551.494l-.242,16.379-14.557-.758,1.324-16.032Z" fill="#fe4a10"/>
          <path id="20-Path_41" data-name="20-Path 41" d="M511.064,553.617l-.123,11.161-8.918-.538.785-10.924Z" fill="#e43195"/>
          <path id="20-Path_42" data-name="20-Path 42" d="M490.938,548.638l.1,10.912-33.209-1.032,1.252-10.366Z" fill="#897a29"/>
          <path id="20-Path_43" data-name="20-Path 43" d="M491.75,563.158l-.293,8.676-14.086-.39.742-8.683Z" fill="#308056"/>
          <path id="20-Path_44" data-name="20-Path 44" d="M472.764,562.574l-.26,9.711-26.973-1.551,1.068-10.051Z" fill="#897a29"/>
          <path id="20-Path_45" data-name="20-Path 45" d="M516.779,578.051l-.231,24.227-12.807-1.46,1.943-23.635Z" fill="#a1b489"/>
          <path id="20-Path_46" data-name="20-Path 46" d="M498.549,576.058l-.818,24.885-15.049-.726,1.377-25.552Z" fill="#897a29"/>
          <path id="20-Path_47" data-name="20-Path 47" d="M474.219,576.419l-.754,34.951-30.185-1.734,2.523-35.22Z" fill="#897a29"/>
          <path id="20-Path_48" data-name="20-Path 48" d="M468.4,581.444,467.943,606l-19.871-1.249,1.625-24.744Z" fill="#308dbb"/>
          <path id="20-Path_49" data-name="20-Path 49" d="M464.142,585.1l-.225,16.618-11.742-.883.912-16.742Z" fill="#3ead7a"/>
          <path id="20-Path_50" data-name="20-Path 50" d="M517.4,606.761l-19.967-1.781-.75,18.971,19.943-.031Z" fill="#897a29"/>
          <path id="20-Path_51" data-name="20-Path 51" d="M474.355,617.027l-1.475,24.918-12.67-.443,3.3-26.411Z" fill="#f7c1df"/>
          <path id="20-Path_52" data-name="20-Path 52" d="M457.355,615.332l-2.137,26.277-11.9-.46,2.291-26.271Z" fill="#897a29"/>
          <path id="20-Path_53" data-name="20-Path 53" d="M491.283,616.662,490.1,634.415l-12.619-.084,1.863-18.411Z" fill="#018837"/>
          <path id="20-Path_54" data-name="20-Path 54" d="M517.889,629.554l-.836,33.19-23.639-.573,1.213-33.541Z" fill="#897a29"/>
          <path id="20-Path_55" data-name="20-Path 55" d="M514.363,633.6l-.537,24.551-16.289-.45.795-24.811Z" fill="#279a2f"/>
          <path id="20-Path_56" data-name="20-Path 56" d="M490.137,639.421l-.6,22.1-13.178-.44,1.127-21.747Z" fill="#897a29"/>
          <path id="20-Path_57" data-name="20-Path 57" d="M470.955,645.949l-1.168,16.035-28.312-1.312,1-15.3Z" fill="#897a29"/>
          <path id="20-Path_58" data-name="20-Path 58" d="M492.383,604.643l-.4,8.436-11.346-.208.934-8.445Z" fill="#897a29"/>
          <path id="20-Path_59" data-name="20-Path 59" d="M494.488,581.943l-.154,14.969L487,596.58l.27-15.127Z" fill="#fe6612"/>
        </g>
      </g>
      <rect id="20-Rectangle_3" data-name="20-Rectangle 3" width="372.667" height="372.668" transform="translate(-85.442 -36.188)" fill="none"/>
    </g>
    <g id="20-Group_2" data-name="20-Group 2" transform="translate(-306.398 -469.338)">
      <path id="20-Path_1" data-name="20-Path 1" d="M322.322,520.07l.7,202.637,87.375-.168L399.512,515.494Z" fill="#897a29"/>
      <path id="20-Path_2" data-name="20-Path 2" d="M358.041,719.612l.41-23.612,9.424-.23v22.65Z" fill="#fe4d0f"/>
      <path id="20-Path_3" data-name="20-Path 3" d="M371.586,698.449l.6,24.734,11.92-.3-1.488-25.631Z" fill="#fb292a"/>
      <g id="20-Group_1" data-name="20-Group 1">
        <path id="20-Path_4" data-name="20-Path 4" d="M339.078,561.168l.143,16.073,11.8-.842-1-15.992Z" fill="#fe8d1f"/>
        <path id="20-Path_5" data-name="20-Path 5" d="M353.42,560.566l.676,10.951,11.1-.428-1.561-11.4Z" fill="#3fb7d4"/>
        <path id="20-Path_6" data-name="20-Path 6" d="M366.379,559.375l1.57,24.4,10.475-.92-2.932-24.477Z" fill="#024b38"/>
        <path id="20-Path_7" data-name="20-Path 7" d="M377.965,558.488l1.441,15.586,7.436-.465-1.8-15.7Z" fill="#f11b8b"/>
        <path id="20-Path_8" data-name="20-Path 8" d="M354.1,574.175l1.387,18.965,10.395-.239-1.574-19.217Z" fill="#ff0001"/>
        <path id="20-Path_9" data-name="20-Path 9" d="M338.988,579.7l1.006,12.841,11.043-.707-.859-12.616Z" fill="#fcb188"/>
        <path id="20-Path_10" data-name="20-Path 10" d="M368.779,586.007l.35,8,11.115-.705-1.35-7.844Z" fill="#f7c1df"/>
        <path id="20-Path_11" data-name="20-Path 11" d="M380.869,576.869l1.365,15.379,6.01-.764-1.564-15.475Z" fill="#159033"/>
        <path id="20-Path_12" data-name="20-Path 12" d="M339.242,596.8l.613,16.53,14.678-1.091-1.7-16.157Z" fill="#159033"/>
        <path id="20-Path_13" data-name="20-Path 13" d="M357.352,596.95l.1,7.513,22.844-1.219-1.021-7.117Z"/>
        <path id="20-Path_14" data-name="20-Path 14" d="M357.016,606.956l.334,5.968,9.689-.483-.645-5.967Z" fill="#8a258e"/>
        <path id="20-Path_15" data-name="20-Path 15" d="M370.076,606.263l.326,6.682,18.543-1.481-.889-6.9Z" fill="#5db595"/>
        <path id="20-Path_16" data-name="20-Path 16" d="M340.014,617.592l.529,16.673,8.795-1.2-1.7-16.24Z" fill="#d3d9e2"/>
        <path id="20-Path_17" data-name="20-Path 17" d="M352.531,615.941l.945,17.117,10.348-.731-1.34-17.566Z" fill="#f11a89"/>
        <path id="20-Path_18" data-name="20-Path 18" d="M369.285,615.816l1.055,24.049,20.75-1.657L388.814,614Z" fill="#ff3900"/>
        <path id="20-Path_19" data-name="20-Path 19" d="M340.029,637.365l13.715-1.532.807,13.047-13.729.284Z" fill="#3fb7d4"/>
        <path id="20-Path_20" data-name="20-Path 20" d="M370.014,642.839l1.2,18.063,8.717-.5-1.562-17.814Z" fill="#f2ae03"/>
        <path id="20-Path_21" data-name="20-Path 21" d="M381.488,642.344l1.875,18.056,8.188-.5-1.98-18.05Z" fill="#f96577"/>
        <path id="20-Path_22" data-name="20-Path 22" d="M358.156,643.779l1.09,12.2,8.686-.251-1.566-12.646Z" fill="#6b1687"/>
        <path id="20-Path_23" data-name="20-Path 23" d="M340.039,653.062l1.1,21.475,16.244.6-1.35-23.068Z"/>
        <path id="20-Path_24" data-name="20-Path 24" d="M359.295,659.427l.752,15.207,9.065-.506L368,659.175Z" fill="#f11b8b"/>
        <path id="20-Path_25" data-name="20-Path 25" d="M372.6,663.626l1.053,11.021,19.467-1.338-.922-10.518Z" fill="#048dbd"/>
        <path id="20-Path_26" data-name="20-Path 26" d="M357.215,635.523l.408,5.8,7.807-.317-.771-5.8Z" fill="#71c9d4"/>
      </g>
    </g>
  </g>
</svg>
