<svg xmlns="http://www.w3.org/2000/svg" xmlns:xlink="http://www.w3.org/1999/xlink" width="200" height="300" viewBox="0 0 200 300">
  <defs>
    <clipPath id="30b-clip-path">
      <path id="30b-Path_10" data-name="30b-Path 10" d="M233.111,334.239c-38.889-.093-70.461,20.942-75.9,57.012-4.822,31.974,17.743,78.961,61.212,82.406,50.249,3.985,81.682-25.411,83.947-61.994C304.971,369.69,274.571,334.337,233.111,334.239Z" transform="translate(-156.569 -334.239)" fill="#0c171e" stroke="#937b32" stroke-width="0.7"/>
    </clipPath>
    <clipPath id="30b-clip-Kort_-_artikeln_30b">
      <rect width="200" height="300"/>
    </clipPath>
  </defs>
  <g id="30b-Kort_-_artikeln_30b" data-name="30b-Kort - artikeln 30b" clip-path="url(#30b-clip-Kort_-_artikeln_30b)">
    <rect width="200" height="300" fill="#0a51a1"/>
    <g id="30b-Group_5" data-name="30b-Group 5" transform="translate(-156.569 -244.61)">
      <g id="30b-Group_2" data-name="30b-Group 2" transform="translate(156.569 318.883)">
        <path id="30b-Path_1" data-name="30b-Path 1" d="M233.111,334.239c-38.889-.093-70.461,20.942-75.9,57.012-4.822,31.974,17.743,78.961,61.212,82.406,50.249,3.985,81.682-25.411,83.947-61.994C304.971,369.69,274.571,334.337,233.111,334.239Z" transform="translate(-156.569 -334.239)" fill="#0c171e"/>
        <g id="30b-Group_1" data-name="30b-Group 1" clip-path="url(#30b-clip-path)">
          <path id="30b-Path_2" data-name="30b-Path 2" d="M295.884,409.068c-5.526,46.035-52.89,78.206-105.789,71.856s-91.3-48.816-85.774-94.852,52.889-78.2,105.786-71.854S301.409,363.034,295.884,409.068Z" transform="translate(-142.527 -328.699)" fill="#937b32"/>
          <path id="30b-Path_3" data-name="30b-Path 3" d="M251.8,385.458s-34.4-12.224-33.127-50.311c1.077-32.177,29-38.283,29-38.283l85.812,35.617Z" transform="translate(-173.083 -324.294)" fill="#ff4800"/>
          <path id="30b-Path_4" data-name="30b-Path 4" d="M263.787,409.9s26.04-27.578,57.279-19.79,29.811,37.659,29.811,37.659l-55.949,74.174Z" transform="translate(-185.097 -348.736)" fill="#3ead7a"/>
          <path id="30b-Path_5" data-name="30b-Path 5" d="M234.051,417.576s33.285,19.186,32.782,51.376-36.842,53.956-36.842,53.956l-78-54.054s44.229,6.234,61.358-17.611C233.084,423.762,234.051,417.576,234.051,417.576Z" transform="translate(-155.35 -356.412)" fill="#0c171e"/>
          <path id="30b-Path_6" data-name="30b-Path 6" d="M263.8,398.959s-1.116-28.664,20.8-42.351,42.955-7.7,42.955-7.7l21.678,62.432s-16.706-17.589-40.009-20.386C278.026,387.21,263.8,398.959,263.8,398.959Z" transform="translate(-185.098 -337.795)" fill="#f0047f"/>
          <path id="30b-Path_7" data-name="30b-Path 7" d="M263.818,417.521s29.324-2.831,47.144,15.881,23.221,51.954,23.221,51.954l-65.11,18.51s15.693-20.468,12.023-50.8C277.821,425.989,263.818,417.521,263.818,417.521Z" transform="translate(-185.105 -356.357)" fill="#25992f"/>
          <path id="30b-Path_8" data-name="30b-Path 8" d="M224.6,417.608s3.375,27.542-16.894,49.583-41.181,18.278-41.181,18.278L116.453,437.15s30.258,6.724,59.38,3.011C209.938,435.812,224.6,417.608,224.6,417.608Z" transform="translate(-145.895 -356.421)" fill="#0a51a1"/>
          <path id="30b-Path_9" data-name="30b-Path 9" d="M238.85,377.643s-35.391,5.976-56.358-15.4-9.153-47.171-9.153-47.171l50.833-47.518s-21.12,46.325-10.111,76.9C224.022,372.125,238.85,377.643,238.85,377.643Z" transform="translate(-160.149 -316.495)" fill="#e4c903"/>
        </g>
        <path id="30b-Path_11" data-name="30b-Path 11" d="M233.111,334.239c-38.889-.093-70.461,20.942-75.9,57.012-4.822,31.974,17.743,78.961,61.212,82.406,50.249,3.985,81.682-25.411,83.947-61.994C304.971,369.69,274.571,334.337,233.111,334.239Z" transform="translate(-156.569 -334.239)" fill="none" stroke="#937b32" stroke-width="0.7"/>
      </g>
      <path id="30b-Path_12" data-name="30b-Path 12" d="M368.074,458.742c-13.062-.032-24.012,7.679-25.843,18.385s6.307,27.288,20.909,28.445c16.878,1.339,27.437-8.535,28.2-20.823C392.21,470.65,382,458.775,368.074,458.742Z" transform="translate(-49.331 -48.483)" fill="#ff4800" stroke="#937b32" stroke-width="0.7"/>
      <path id="30b-Path_13" data-name="30b-Path 13" d="M367.247,428.71c-6.123-.015-11.256,3.6-12.113,8.617s2.957,12.791,9.8,13.333c7.911.627,12.86-4,13.217-9.761C378.561,434.291,373.775,428.725,367.247,428.71Z" transform="translate(-52.801 -40.492)" fill="#f0047f" stroke="#937b32" stroke-width="0.7"/>
      <path id="30b-Path_14" data-name="30b-Path 14" d="M376.62,366.25c-13.026-.031-23.946,7.658-25.771,18.333s6.29,27.213,20.85,28.366c16.832,1.335,27.36-8.511,28.118-20.765C400.689,378.125,390.507,366.282,376.62,366.25Z" transform="translate(-51.625 -23.873)" fill="#0c171e" stroke="#937b32" stroke-width="0.7"/>
      <path id="30b-Path_15" data-name="30b-Path 15" d="M347.366,276.624c-20.5-1.353-37.177,11.4-39.856,27.067s9.231,39.939,30.6,41.632c24.7,1.96,40.157-12.491,41.27-30.476C380.66,294.211,367.7,277.967,347.366,276.624Z" transform="translate(-40.062)" fill="#34a484" stroke="#937b32" stroke-width="0.7"/>
      <path id="30b-Path_16" data-name="30b-Path 16" d="M403.857,425.951a15.19,15.19,0,0,0-17.107,12.733c-1.054,7.772,3.969,17.569,13.865,18.005,10.624.469,16.872-5.9,17.146-14.49C418.041,433.418,414.715,427.2,403.857,425.951Z" transform="translate(-61.208 -39.727)" fill="#e4c903" stroke="#937b32" stroke-width="0.709"/>
      <path id="30b-Path_17" data-name="30b-Path 17" d="M208.907,293.917c-9.574-.023-17.6,5.628-18.94,13.474s4.622,20,15.323,20.847c12.37.981,20.11-6.255,20.667-15.261C226.6,302.644,219.113,293.941,208.907,293.917Z" transform="translate(-8.837 -4.627)" fill="#937b32" stroke="#937b32" stroke-width="0.7"/>
      <path id="30b-Path_18" data-name="30b-Path 18" d="M251.06,308.161c-5.286-.012-9.716,3.107-10.457,7.439s2.553,11.041,8.46,11.509c6.829.542,11.1-3.453,11.41-8.425C260.825,312.98,256.694,308.175,251.06,308.161Z" transform="translate(-22.332 -8.417)" fill="#25992f" stroke="#937b32" stroke-width="0.7"/>
    </g>
  </g>
</svg>
