<svg xmlns="http://www.w3.org/2000/svg" xmlns:xlink="http://www.w3.org/1999/xlink" width="200" height="300" viewBox="0 0 200 300">
  <defs>
    <clipPath id="24a-clip-path">
      <rect id="24a-Rectangle_2" data-name="24a-Rectangle 2" width="275.067" height="275.067" fill="none"/>
    </clipPath>
    <clipPath id="24a-clip-Artboard_1">
      <rect width="200" height="300"/>
    </clipPath>
  </defs>
  <g id="24a-Artboard_1" data-name="24a-Artboard – 1" clip-path="url(#24a-clip-Artboard_1)">
    <rect width="200" height="300" fill="#ccc2b3"/>
    <g id="24a-Group_6" data-name="24a-Group 6" transform="translate(275.067 275.067) rotate(180)">
      <path id="24a-Path_1" data-name="24a-Path 1" d="M92.64,71.732c13.669-2.439,32.891,3.906,33.926,23.8s-13.691,29.2-23.888,29.806c-14.371.845-28.468-6.339-31.493-22.713A26.518,26.518,0,0,1,92.64,71.732" transform="translate(5.532 5.57)" fill="#ccc2b3"/>
      <path id="24a-Path_2" data-name="24a-Path 2" d="M93.591,77.307c10.6-2.278,25.4,3.015,26.2,18.376s-10.571,22.549-18.446,23.016c-11.1.651-21.983-4.9-24.319-17.541-2.029-10.988,5.3-21.428,16.569-23.851" transform="translate(5.996 6.005)" fill="#0c419a"/>
      <path id="24a-Path_3" data-name="24a-Path 3" d="M94.761,83.8c6.77-1.746,15.934,1.991,16.446,12.048S104.593,110.6,99.653,110.9c-6.962.419-13.791-3.218-15.267-11.5A13.688,13.688,0,0,1,94.761,83.8" transform="translate(6.582 6.52)" fill="#d61a8a"/>
      <path id="24a-Path_4" data-name="24a-Path 4" d="M94.761,83.8c6.77-1.746,15.934,1.991,16.446,12.048S104.593,110.6,99.653,110.9c-6.962.419-13.791-3.218-15.267-11.5A13.688,13.688,0,0,1,94.761,83.8Z" transform="translate(6.582 6.52)" fill="none" stroke="#937b32" stroke-miterlimit="10" stroke-width="0.656"/>
      <path id="24a-Path_5" data-name="24a-Path 5" d="M125.528,76.852c8.31-1.484,20,2.374,20.63,14.469s-8.326,17.758-14.527,18.123c-8.74.514-17.312-3.855-19.152-13.813a16.126,16.126,0,0,1,13.048-18.78" transform="translate(8.774 5.986)" fill="#ccc2b3"/>
      <path id="24a-Path_6" data-name="24a-Path 6" d="M126.1,80.24c6.448-1.385,15.445,1.835,15.931,11.172s-6.428,13.715-11.216,14c-6.748.4-13.369-2.978-14.789-10.667A12.612,12.612,0,0,1,126.1,80.24" transform="translate(9.057 6.25)" fill="#fe360f"/>
      <path id="24a-Path_7" data-name="24a-Path 7" d="M126.817,84.187c4.118-1.059,9.689,1.212,10,7.327s-4.022,8.971-7.024,9.153c-4.234.254-8.385-1.958-9.282-6.994a8.322,8.322,0,0,1,6.307-9.486" transform="translate(9.413 6.563)" fill="#0390bf"/>
      <path id="24a-Path_8" data-name="24a-Path 8" d="M126.817,84.187c4.118-1.059,9.689,1.212,10,7.327s-4.022,8.971-7.024,9.153c-4.234.254-8.385-1.958-9.282-6.994a8.322,8.322,0,0,1,6.307-9.486Z" transform="translate(9.413 6.563)" fill="none" stroke="#937b32" stroke-miterlimit="10" stroke-width="0.656"/>
      <path id="24a-Path_9" data-name="24a-Path 9" d="M110.294,93.174c9.21-1.644,22.162,2.631,22.861,16.034s-9.225,19.679-16.1,20.085c-9.684.571-19.181-4.271-21.219-15.3a17.867,17.867,0,0,1,14.456-20.813" transform="translate(7.471 7.26)" fill="#ccc2b3"/>
      <path id="24a-Path_10" data-name="24a-Path 10" d="M110.934,96.928c7.141-1.534,17.114,2.033,17.653,12.383s-7.125,15.2-12.429,15.51c-7.478.441-14.813-3.3-16.389-11.82a13.98,13.98,0,0,1,11.165-16.073" transform="translate(7.784 7.553)" fill="#017e33"/>
      <path id="24a-Path_11" data-name="24a-Path 11" d="M111.723,101.3c4.562-1.174,10.738,1.342,11.083,8.118s-4.458,9.943-7.787,10.145c-4.69.281-9.293-2.17-10.287-7.749a9.226,9.226,0,0,1,6.991-10.513" transform="translate(8.178 7.9)" fill="#fa1b31"/>
      <path id="24a-Path_12" data-name="24a-Path 12" d="M111.723,101.3c4.562-1.174,10.738,1.342,11.083,8.118s-4.458,9.943-7.787,10.145c-4.69.281-9.293-2.17-10.287-7.749a9.226,9.226,0,0,1,6.991-10.513Z" transform="translate(8.178 7.9)" fill="none" stroke="#937b32" stroke-miterlimit="10" stroke-width="0.656"/>
      <g id="24a-mitten_bubbla" data-name="24a-mitten bubbla">
        <g id="24a-Group_1" data-name="24a-Group 1" clip-path="url(#24a-clip-path)">
          <path id="24a-Path_13" data-name="24a-Path 13" d="M117.086,116.8c48.589-8.668,116.922,13.884,120.6,84.591,3.665,70.722-48.669,103.811-84.921,105.955-51.09,3-101.2-22.536-111.953-80.745a94.264,94.264,0,0,1,76.27-109.8" transform="translate(3.069 8.995)" fill="#ccc2b3"/>
          <path id="24a-Path_14" data-name="24a-Path 14" d="M120.466,136.6c37.679-8.094,90.282,10.724,93.129,65.327,2.827,54.612-37.584,80.165-65.573,81.819-39.459,2.319-78.155-17.407-86.454-62.353-7.22-39.062,18.823-76.176,58.9-84.792" transform="translate(4.72 10.541)" fill="#0c419a"/>
          <path id="24a-Path_15" data-name="24a-Path 15" d="M124.63,159.682c24.062-6.2,56.639,7.081,58.46,42.828s-23.516,52.451-41.072,53.514c-24.749,1.487-49.03-11.444-54.27-40.884-4.554-25.573,11.969-49.037,36.882-55.458" transform="translate(6.802 12.372)" fill="#d61a8a"/>
          <path id="24a-Path_16" data-name="24a-Path 16" d="M124.63,159.682c24.062-6.2,56.639,7.081,58.46,42.828s-23.516,52.451-41.072,53.514c-24.749,1.487-49.03-11.444-54.27-40.884-4.554-25.573,11.969-49.037,36.882-55.458Z" transform="translate(6.802 12.372)" fill="none" stroke="#937b32" stroke-miterlimit="10" stroke-width="0.656"/>
        </g>
      </g>
      <g id="24a-höger">
        <g id="24a-Group_2" data-name="24a-Group 2" clip-path="url(#24a-clip-path)">
          <path id="24a-Path_17" data-name="24a-Path 17" d="M234,134.991c29.549-5.273,71.1,8.441,73.341,51.437,2.228,43-29.6,63.125-51.641,64.43-31.066,1.825-61.537-13.7-68.082-49.1A57.326,57.326,0,0,1,234,134.991" transform="translate(14.596 10.472)" fill="#ccc2b3"/>
          <path id="24a-Path_18" data-name="24a-Path 18" d="M236.051,147.038c22.915-4.925,54.9,6.521,56.63,39.72s-22.852,48.751-39.872,49.757c-23.992,1.408-47.523-10.585-52.575-37.918-4.386-23.752,11.45-46.322,35.817-51.558" transform="translate(15.6 11.412)" fill="#fe360f"/>
          <path id="24a-Path_19" data-name="24a-Path 19" d="M238.587,161.07c14.63-3.767,34.435,4.305,35.547,26.046s-14.3,31.892-24.975,32.538c-15.049.9-29.814-6.959-33-24.862-2.77-15.55,7.278-29.82,22.429-33.722" transform="translate(16.867 12.525)" fill="#0390bf"/>
          <path id="24a-Path_20" data-name="24a-Path 20" d="M238.587,161.07c14.63-3.767,34.435,4.305,35.547,26.046s-14.3,31.892-24.975,32.538c-15.049.9-29.814-6.959-33-24.862-2.77-15.55,7.278-29.82,22.429-33.722Z" transform="translate(16.867 12.525)" fill="none" stroke="#937b32" stroke-miterlimit="10" stroke-width="0.656"/>
          <path id="24a-Path_21" data-name="24a-Path 21" d="M179.845,193.018c32.742-5.847,78.789,9.351,81.271,57s-32.8,69.959-57.227,71.4c-34.425,2.029-68.2-15.18-75.439-54.408a63.52,63.52,0,0,1,51.4-73.988" transform="translate(9.962 15)" fill="#ccc2b3"/>
          <path id="24a-Path_22" data-name="24a-Path 22" d="M182.12,206.365c25.391-5.454,60.844,7.225,62.756,44.017,1.908,36.807-25.324,54.026-44.188,55.139-26.584,1.562-52.661-11.731-58.258-42.022-4.862-26.318,12.69-51.329,39.689-57.135" transform="translate(11.074 16.042)" fill="#017e33"/>
          <path id="24a-Path_23" data-name="24a-Path 23" d="M184.927,221.918c16.214-4.176,38.168,4.773,39.392,28.86s-15.845,35.345-27.679,36.061c-16.669,1-33.031-7.717-36.568-27.547-3.064-17.24,8.069-33.05,24.856-37.375" transform="translate(12.477 17.276)" fill="#fa1b31"/>
          <path id="24a-Path_24" data-name="24a-Path 24" d="M184.927,221.918c16.214-4.176,38.168,4.773,39.392,28.86s-15.845,35.345-27.679,36.061c-16.669,1-33.031-7.717-36.568-27.547-3.064-17.24,8.069-33.05,24.856-37.375Z" transform="translate(12.477 17.276)" fill="none" stroke="#937b32" stroke-miterlimit="10" stroke-width="0.656"/>
        </g>
      </g>
      <g id="24a-vänster_blå" data-name="24a-vänster blå">
        <g id="24a-Group_3" data-name="24a-Group 3" clip-path="url(#24a-clip-path)">
          <path id="24a-Path_25" data-name="24a-Path 25" d="M.249,141.442c32.294-5.761,77.712,9.228,80.161,56.224s-32.348,69-56.445,70.424c-33.956,1.995-67.261-14.979-74.408-53.669A62.653,62.653,0,0,1,.249,141.442" transform="translate(-4.026 10.968)" fill="#ccc2b3"/>
          <path id="24a-Path_26" data-name="24a-Path 26" d="M2.495,154.61c25.042-5.38,60.006,7.126,61.9,43.418s-24.98,53.281-43.585,54.381c-26.224,1.543-51.944-11.57-57.46-41.444C-41.45,185-24.141,160.336,2.495,154.61" transform="translate(-2.928 11.996)" fill="#0c419a"/>
          <path id="24a-Path_27" data-name="24a-Path 27" d="M5.263,169.947c15.992-4.119,37.645,4.705,38.856,28.464s-15.632,34.862-27.3,35.57c-16.448.988-32.586-7.607-36.07-27.174-3.026-17,7.956-32.594,24.515-36.86" transform="translate(-1.545 13.213)" fill="#d61a8a"/>
          <path id="24a-Path_28" data-name="24a-Path 28" d="M5.263,169.947c15.992-4.119,37.645,4.705,38.856,28.464s-15.632,34.862-27.3,35.57c-16.448.988-32.586-7.607-36.07-27.174-3.026-17,7.956-32.594,24.515-36.86Z" transform="translate(-1.545 13.213)" fill="none" stroke="#937b32" stroke-miterlimit="10" stroke-width="0.656"/>
          <path id="24a-Path_29" data-name="24a-Path 29" d="M5.263,169.947c15.992-4.119,37.645,4.705,38.856,28.464s-15.632,34.862-27.3,35.57c-16.448.988-32.586-7.607-36.07-27.174-3.026-17,7.956-32.594,24.515-36.86Z" transform="translate(-1.545 13.213)" fill="none" stroke="#937b32" stroke-miterlimit="10" stroke-width="0.656"/>
        </g>
      </g>
      <path id="24a-Path_30" data-name="24a-Path 30" d="M77.955,153.537c19.641-3.5,47.256,5.611,48.746,34.187s-19.671,41.955-34.324,42.824c-20.649,1.212-40.9-9.109-45.251-32.637a38.1,38.1,0,0,1,30.829-44.374" transform="translate(3.636 11.95)" fill="#ccc2b3"/>
      <path id="24a-Path_31" data-name="24a-Path 31" d="M79.32,161.544c15.231-3.273,36.49,4.334,37.641,26.4s-15.191,32.4-26.5,33.07c-15.945.937-31.587-7.034-34.944-25.2-2.915-15.785,7.61-30.788,23.805-34.267" transform="translate(4.303 12.575)" fill="#fe360f"/>
      <path id="24a-Path_32" data-name="24a-Path 32" d="M81.006,170.87c9.723-2.5,22.886,2.86,23.625,17.309s-9.5,21.2-16.6,21.626c-10,.6-19.815-4.625-21.934-16.523-1.842-10.336,4.837-19.82,14.909-22.412" transform="translate(5.145 13.315)" fill="#0390bf"/>
      <path id="24a-Path_33" data-name="24a-Path 33" d="M81.006,170.87c9.723-2.5,22.886,2.86,23.625,17.309s-9.5,21.2-16.6,21.626c-10,.6-19.815-4.625-21.934-16.523-1.842-10.336,4.837-19.82,14.909-22.412Z" transform="translate(5.145 13.315)" fill="none" stroke="#937b32" stroke-miterlimit="10" stroke-width="0.656"/>
      <g id="24a-vänster_grön" data-name="24a-vänster grön">
        <g id="24a-Group_4" data-name="24a-Group 4" clip-path="url(#24a-clip-path)">
          <path id="24a-Path_34" data-name="24a-Path 34" d="M41.961,192.1c21.763-3.886,52.366,6.215,54.016,37.883s-21.8,46.5-38.035,47.455c-22.88,1.349-45.326-10.09-50.141-36.163A42.219,42.219,0,0,1,41.961,192.1" transform="translate(0.555 14.96)" fill="#ccc2b3"/>
          <path id="24a-Path_35" data-name="24a-Path 35" d="M43.474,200.975c16.876-3.626,40.44,4.8,41.712,29.256s-16.833,35.909-29.37,36.648c-17.669,1.038-35-7.8-38.721-27.93-3.231-17.492,8.434-34.115,26.379-37.974" transform="translate(1.295 15.652)" fill="#017e33"/>
        </g>
      </g>
      <path id="24a-Path_36" data-name="24a-Path 36" d="M45.34,211.312c10.778-2.775,25.368,3.172,26.183,19.183s-10.533,23.492-18.4,23.967c-11.081.666-21.955-5.127-24.3-18.31-2.038-11.458,5.361-21.966,16.519-24.841" transform="translate(2.227 16.472)" fill="#fa1b31"/>
      <path id="24a-Path_37" data-name="24a-Path 37" d="M45.34,211.312c10.778-2.775,25.368,3.172,26.183,19.183s-10.533,23.492-18.4,23.967c-11.081.666-21.955-5.127-24.3-18.31-2.038-11.458,5.361-21.966,16.519-24.841Z" transform="translate(2.227 16.472)" fill="none" stroke="#937b32" stroke-miterlimit="10" stroke-width="0.656"/>
      <path id="24a-Path_38" data-name="24a-Path 38" d="M163.713,75.839c23.2-4.137,55.815,6.629,57.572,40.382s-23.232,49.555-40.537,50.58c-24.39,1.432-48.31-10.759-53.443-38.547a45,45,0,0,1,36.407-52.415" transform="translate(9.896 5.864)" fill="#ccc2b3"/>
      <path id="24a-Path_39" data-name="24a-Path 39" d="M165.324,85.3c17.99-3.864,43.1,5.119,44.458,31.186s-17.941,38.267-31.3,39.059c-18.834,1.105-37.307-8.311-41.269-29.768-3.445-18.645,8.987-36.363,28.114-40.477" transform="translate(10.684 6.603)" fill="#0c419a"/>
      <path id="24a-Path_40" data-name="24a-Path 40" d="M167.314,96.313c11.486-2.959,27.037,3.379,27.906,20.445S184,141.8,175.613,142.3c-11.813.709-23.4-5.465-25.906-19.517-2.173-12.208,5.716-23.408,17.607-26.473" transform="translate(11.678 7.476)" fill="#d61a8a"/>
      <path id="24a-Path_41" data-name="24a-Path 41" d="M167.314,96.313c11.486-2.959,27.037,3.379,27.906,20.445S184,141.8,175.613,142.3c-11.813.709-23.4-5.465-25.906-19.517-2.173-12.208,5.716-23.408,17.607-26.473Z" transform="translate(11.678 7.476)" fill="none" stroke="#937b32" stroke-miterlimit="10" stroke-width="0.656"/>
      <path id="24a-Path_42" data-name="24a-Path 42" d="M219.523,84.525c14.1-2.518,33.937,4.03,35.009,24.555s-14.125,30.133-24.65,30.758c-14.833.87-29.377-6.542-32.5-23.44a27.37,27.37,0,0,1,22.143-31.873" transform="translate(15.399 6.569)" fill="#ccc2b3"/>
      <path id="24a-Path_43" data-name="24a-Path 43" d="M220.5,90.277c10.938-2.35,26.207,3.114,27.033,18.961s-10.91,23.271-19.032,23.752c-11.455.672-22.686-5.052-25.1-18.1-2.094-11.338,5.464-22.112,17.1-24.612" transform="translate(15.878 7.018)" fill="#fe360f"/>
      <path id="24a-Path_44" data-name="24a-Path 44" d="M221.713,96.975c6.983-1.8,16.438,2.055,16.97,12.434s-6.827,15.224-11.926,15.532c-7.181.43-14.228-3.322-15.748-11.868a14.121,14.121,0,0,1,10.7-16.1" transform="translate(16.483 7.55)" fill="#0390bf"/>
      <path id="24a-Path_45" data-name="24a-Path 45" d="M221.713,96.975c6.983-1.8,16.438,2.055,16.97,12.434s-6.827,15.224-11.926,15.532c-7.181.43-14.228-3.322-15.748-11.868a14.121,14.121,0,0,1,10.7-16.1Z" transform="translate(16.483 7.55)" fill="none" stroke="#937b32" stroke-miterlimit="10" stroke-width="0.656"/>
      <path id="24a-Path_46" data-name="24a-Path 46" d="M193.673,112.227c15.63-2.793,37.609,4.464,38.795,27.208s-15.656,33.394-27.318,34.082c-16.434.969-32.553-7.247-36.012-25.973a30.32,30.32,0,0,1,24.535-35.317" transform="translate(13.186 8.731)" fill="#ccc2b3"/>
      <path id="24a-Path_47" data-name="24a-Path 47" d="M194.759,118.6c12.121-2.6,29.046,3.451,29.958,21.014s-12.088,25.788-21.095,26.32c-12.688.748-25.138-5.6-27.809-20.058-2.319-12.564,6.056-24.5,18.946-27.276" transform="translate(13.718 9.228)" fill="#017e33"/>
      <path id="24a-Path_48" data-name="24a-Path 48" d="M196.1,126.021c7.74-1.994,18.219,2.278,18.8,13.776s-7.564,16.874-13.212,17.214c-7.958.479-15.768-3.683-17.455-13.15A15.653,15.653,0,0,1,196.1,126.021" transform="translate(14.387 9.817)" fill="#fa1b31"/>
      <path id="24a-Path_49" data-name="24a-Path 49" d="M196.1,126.021c7.74-1.994,18.219,2.278,18.8,13.776s-7.564,16.874-13.212,17.214c-7.958.479-15.768-3.683-17.455-13.15A15.653,15.653,0,0,1,196.1,126.021Z" transform="translate(14.387 9.817)" fill="none" stroke="#937b32" stroke-miterlimit="10" stroke-width="0.656"/>
    </g>
  </g>
</svg>
