<svg xmlns="http://www.w3.org/2000/svg" xmlns:xlink="http://www.w3.org/1999/xlink" width="200" height="300" viewBox="0 0 200 300">
  <defs>
    <clipPath id="40b-clip-path">
      <rect id="40b-Rectangle_2" data-name="40b-Rectangle 2" width="224" height="224" transform="translate(-0.199 0)" fill="none"/>
    </clipPath>
    <clipPath id="40b-clip-Kort_-_artikel_40a">
      <rect width="200" height="300"/>
    </clipPath>
  </defs>
  <g id="40b-Kort_-_artikel_40a" data-name="40b-Kort - artikel 40a" clip-path="url(#40b-clip-Kort_-_artikel_40a)">
    <rect width="200" height="300" fill="#adadc1"/>
    <g id="40b-Group_4" data-name="40b-Group 4" transform="translate(-34.979 2.358)">
      <rect id="40b-Rectangle_1" data-name="40b-Rectangle 1" width="224" height="224" transform="translate(24.979 8.642)" fill="#adadc1"/>
      <path id="40b-Path_1" data-name="40b-Path 1" d="M152.622,214.171l35.857-2.313-2.138-25.44-34.044-.795Z" transform="translate(-52.78 -73.531)" fill="#5669a1"/>
      <path id="40b-Path_2" data-name="40b-Path 2" d="M150.563,167.78l34.8.963-.325-28.548L148.161,143.2Z" transform="translate(-51.061 -54.657)" fill="#de3e1c"/>
      <g id="40b-Group_2" data-name="40b-Group 2" transform="translate(25.178 8.642)">
        <g id="40b-Group_1" data-name="40b-Group 1" transform="translate(0 0)" clip-path="url(#40b-clip-path)">
          <path id="40b-Path_3" data-name="40b-Path 3" d="M148.577,120.151l36.874-2.834.814-33.841c-.26.518-36.209,5.535-36.209,5.535Z" transform="translate(-76.412 -39.733)" fill="#cab9d1"/>
          <path id="40b-Path_4" data-name="40b-Path 4" d="M254.839,84.933,208.564,85l-1.044,33.171,58.472-3.389Z" transform="translate(-100.901 -40.339)" fill="#3b423e"/>
          <path id="40b-Path_5" data-name="40b-Path 5" d="M269.283,182.283l-59.166,9.009-1.893-51.9,56.461-3.341Z" transform="translate(-101.194 -61.576)" fill="#86c7bf"/>
          <path id="40b-Path_6" data-name="40b-Path 6" d="M311.1,185.845l32.175-11.557,1.36-42.3-37.081,2.345Z" transform="translate(-142.462 -59.888)" fill="#e4babc"/>
          <path id="40b-Path_7" data-name="40b-Path 7" d="M331.037,84.862l-43.549-.233L298.3,114.672l37.725-2.2Z" transform="translate(-134.125 -40.212)" fill="#2a1a30"/>
          <path id="40b-Path_8" data-name="40b-Path 8" d="M142.242,93.236l-13.112.236,3.02,30.167L145,122.923Z" transform="translate(-68.332 -43.788)" fill="#97882e"/>
          <path id="40b-Path_9" data-name="40b-Path 9" d="M146.515,143.424l-13.747-.843,1.9,24.066,13.749,2.719Z" transform="translate(-69.844 -64.29)" fill="#e96e7b"/>
          <path id="40b-Path_10" data-name="40b-Path 10" d="M149.907,185.222,135.8,182.586s5.148,33.005,5.205,32.486,9.191-2.823,9.191-2.823Z" transform="translate(-71.103 -80.911)" fill="#e9c200"/>
          <path id="40b-Path_11" data-name="40b-Path 11" d="M108.475,215.951l18.753-.78-4.4-32.349-20.184,3.423Z" transform="translate(-57.327 -81.009)" fill="#7f656d"/>
          <path id="40b-Path_12" data-name="40b-Path 12" d="M93.39,95.123l20.891-1.485,4.9,52.207L98.8,149.192Z" transform="translate(-53.483 -43.956)" fill="#f4a699"/>
          <path id="40b-Path_13" data-name="40b-Path 13" d="M76.732,96.512l-17.7,6.287-6.2,46.369,29.118,1.218Z" transform="translate(-36.63 -45.15)" fill="#3b423e"/>
          <path id="40b-Path_14" data-name="40b-Path 14" d="M55.536,212.52l31.912,4.437-5.725-29.9-29.431-2.283Z" transform="translate(-36.408 -81.819)" fill="#e23730"/>
          <path id="40b-Path_15" data-name="40b-Path 15" d="M207.459,140.358l2.034,51.329,8.459-1.133-2.319-52.131Z" transform="translate(-100.875 -62.562)" fill="#293132"/>
          <path id="40b-Path_16" data-name="40b-Path 16" d="M247.459,187.259l-6.987-48.651-9.212-1.187.547,52.758Z" transform="translate(-110.764 -62.146)" fill="#009358"/>
          <path id="40b-Path_17" data-name="40b-Path 17" d="M221.348,137.994l1.536,39.289,6.722-1.175L227.192,137.5Z" transform="translate(-106.646 -62.18)" fill="#6ca218"/>
          <path id="40b-Path_18" data-name="40b-Path 18" d="M308.753,182.951l-8.361-1.243-3.17-45.49,6.039-.22Z" transform="translate(-138.17 -61.554)" fill="#e6544f"/>
          <path id="40b-Path_19" data-name="40b-Path 19" d="M272.307,323.558l-35.761,3.648-1.554-25.488,33.522-6.418Z" transform="translate(-112.314 -127.74)" fill="#b9c86a"/>
          <path id="40b-Path_20" data-name="40b-Path 20" d="M265.583,278.376l-34.242,6.709-3.8-28.26,36.088-4.7Z" transform="translate(-109.221 -109.801)" fill="#54b095"/>
          <path id="40b-Path_21" data-name="40b-Path 21" d="M259.667,233.592l-32.358,3.765s3.7-34.158,4.032-33.689,26.857-.133,26.857-.133Z" transform="translate(-109.123 -89.615)" fill="#c3d4b8"/>
          <path id="40b-Path_22" data-name="40b-Path 22" d="M138.51,212.285l53.147-8.522-1.814,33.16-58.05,6.7Z" transform="translate(-69.438 -89.709)" fill="#2a1a30"/>
          <path id="40b-Path_23" data-name="40b-Path 23" d="M133.913,314.57l59.756-.886-21.363-50.93-40.514,5.375Z" transform="translate(-69.438 -114.219)" fill="#d9caca"/>
          <path id="40b-Path_24" data-name="40b-Path 24" d="M98.627,318.215l-46.388,4.257L46.391,276.6l49.919-4.652Z" transform="translate(-33.956 -118.039)" fill="#577c3f"/>
          <path id="40b-Path_25" data-name="40b-Path 25" d="M53.446,226.358l50.233-8.48L97.33,249.35l-50.681,5.262Z" transform="translate(-34.063 -95.574)" fill="#da0073"/>
          <path id="40b-Path_26" data-name="40b-Path 26" d="M279.749,202.525l12.989-1.937,2.152,30.236L281.3,232.313Z" transform="translate(-130.91 -88.39)" fill="#0078c2"/>
          <path id="40b-Path_27" data-name="40b-Path 27" d="M282.4,252.653l13.459-3.109,1.592,24.092-12.383,3.519Z" transform="translate(-132.013 -108.73)" fill="#ed8a99"/>
          <path id="40b-Path_28" data-name="40b-Path 28" d="M287.122,293.706l13.921-4.187s-.329,33.462-.46,32.958-9.486-1.269-9.486-1.269Z" transform="translate(-133.973 -125.338)" fill="#e65141"/>
          <path id="40b-Path_29" data-name="40b-Path 29" d="M325.834,320.389l-18.641,2.331-.313-32.687,20.435.042Z" transform="translate(-142.182 -125.552)" fill="#d72e1c"/>
          <path id="40b-Path_30" data-name="40b-Path 30" d="M323.18,206.6l-21.21-6.008,2.753,52.989,20.552-.665Z" transform="translate(-140.142 -88.39)" fill="#ef7000"/>
          <path id="40b-Path_31" data-name="40b-Path 31" d="M338.146,207.826l17.942-4.64,3.4,46.182L340.3,253.992Z" transform="translate(-155.172 -89.47)" fill="#e9c200"/>
          <path id="40b-Path_32" data-name="40b-Path 32" d="M361.262,309.942l-21.726,7.284,1.347-30.492,19.585-4.743Z" transform="translate(-155.75 -122.211)" fill="#ae84b4"/>
          <path id="40b-Path_33" data-name="40b-Path 33" d="M224.54,260.451l5.4,52.539-8.521.278-6.273-52.459Z" transform="translate(-104.071 -113.261)" fill="#0094a2"/>
          <path id="40b-Path_34" data-name="40b-Path 34" d="M200.1,312.971l-.067-50.98,8.889-.94,7.065,52.215Z" transform="translate(-97.792 -113.511)" fill="#af969d"/>
          <path id="40b-Path_35" data-name="40b-Path 35" d="M340.081,289.093l.419,32.223-6.781-.6.952-31.366Z" transform="translate(-153.333 -125.162)" fill="#c1bdcf"/>
          <path id="40b-Path_36" data-name="40b-Path 36" d="M124.058,320.7l15.459-2.416L135.8,270.31l-7.221.959Z" transform="translate(-66.225 -117.358)" fill="#d9e4d2"/>
        </g>
      </g>
    </g>
  </g>
</svg>
