<svg width="200" height="300" viewBox="0 0 200 300" fill="none" xmlns="http://www.w3.org/2000/svg">
<rect width="200" height="300" fill="#F6B5C5"/>
<path d="M100.458 63.5341C98.2782 66.9041 71.2882 73.4441 53.3282 69.4441C28.4782 63.9541 14.3282 38.9041 16.1582 33.9441C18.7282 26.9441 50.0282 23.1641 67.7282 28.5541C83.5282 33.3541 104.388 57.4341 100.458 63.5541" fill="#1D8E71"/>
<path d="M85.5983 56.6338C85.3983 59.0038 64.0383 59.7338 53.4883 57.0438C43.6283 54.5238 31.6983 43.1138 32.7683 40.1738C34.2883 36.0238 51.0783 35.6838 61.5783 38.5638C72.3083 41.5638 85.8483 53.6938 85.5783 56.6338" fill="#52AE32"/>
<path d="M85.5983 56.6338C85.3983 59.0038 64.0383 59.7338 53.4883 57.0438C43.6283 54.5238 31.6983 43.1138 32.7683 40.1738C34.2883 36.0238 51.0783 35.6838 61.5783 38.5638C72.3083 41.5638 85.8483 53.6938 85.5783 56.6338H85.5983Z" stroke="#A9924D" stroke-width="0.66" stroke-miterlimit="10"/>
<path d="M109.078 53.6938C110.128 61.2438 106.858 77.3938 114.888 79.1238C122.918 80.8538 144.418 65.6538 165.078 75.9038C185.738 86.1538 185.918 119.844 180.688 154.904C175.458 189.964 156.058 217.224 140.188 220.334C124.318 223.444 123.618 216.984 111.188 218.154C94.9276 219.674 90.1276 228.384 73.9176 225.634C52.0476 221.934 35.2076 187.544 27.6876 165.924C20.1676 144.304 9.82765 103.304 31.0776 85.8938C49.7376 70.5938 80.2976 81.4638 90.4276 80.0038C100.898 78.5138 99.3376 72.6238 99.9476 67.0738C100.778 59.4838 101.118 55.0738 102.298 52.6638C103.408 50.3938 108.608 49.8438 109.148 53.6638" fill="#E94E24"/>
<path d="M45.2387 100.834C36.3787 109.834 36.1187 132.914 45.0287 157.834C53.9387 182.754 66.7187 202.574 79.7887 206.324C91.6687 209.734 102.299 201.074 112.389 200.704C121.579 200.364 130.849 204.604 141.949 198.704C155.259 191.624 162.329 165.894 165.259 142.154C168.189 118.414 164.589 94.1545 152.619 88.5945C140.649 83.0345 121.619 94.5945 102.079 95.3945C83.6387 96.1745 59.2487 86.6645 45.2387 100.804" fill="#CF007F"/>
<path d="M60.758 112.864C51.878 120.124 53.218 135.464 60.018 155.554C66.538 174.784 71.938 185.334 79.938 189.344C90.808 194.794 98.078 188.244 107.438 187.444C117.998 186.544 127.128 190.854 136.188 185.024C146.388 178.464 151.188 156.354 153.028 139.374C154.778 123.374 152.028 110.304 139.888 104.574C131.888 100.794 117.938 107.774 101.988 108.574C87.428 109.334 71.178 104.304 60.758 112.824" fill="#491152"/>
<path d="M104.838 117.603C89.0579 118.603 77.0579 125.603 76.6779 141.773C76.2979 157.943 86.8779 171.353 104.598 170.163C122.318 168.973 133.138 157.163 132.948 143.323C132.758 129.483 123.418 116.443 104.838 117.603Z" fill="#009640"/>
<path d="M106.078 126.635C95.9285 127.275 88.1385 132.315 87.8985 142.635C87.6585 152.955 94.7884 161.835 106.168 161.075C117.548 160.315 124.518 152.705 124.408 143.815C124.298 134.925 118.028 125.815 106.078 126.585" fill="#A9924D"/>
<path d="M105.399 134.575C100.029 134.915 95.8989 137.575 95.7689 143.085C95.6389 148.595 99.4089 153.255 105.449 152.845C111.489 152.435 115.169 148.425 115.109 143.705C115.049 138.985 111.729 134.185 105.399 134.575" fill="#00724D"/>
</svg>
