<svg xmlns="http://www.w3.org/2000/svg" xmlns:xlink="http://www.w3.org/1999/xlink" width="200" height="300" viewBox="0 0 200 300">
  <defs>
    <clipPath id="2c-clip-path">
      <path id="2c-Intersection_1" data-name="2c-Intersection 1" d="M7.471,158.658S.172,80.254,0,39.851C-.092,18.04,6.934,5.669,18.663,0H55.825c12.306,6.247,18.546,19.868,19.7,38.931.984,16.256-2.453,125.144-2.453,125.144Z" fill="none"/>
    </clipPath>
    <clipPath id="2c-clip-path-2">
      <rect id="2c-Rectangle_3" data-name="2c-Rectangle 3" width="199.795" height="199.999" fill="none"/>
    </clipPath>
    <clipPath id="2c-clip-path-3">
      <rect id="2c-Rectangle_4" data-name="2c-Rectangle 4" width="199.832" height="199.832" fill="none"/>
    </clipPath>
    <clipPath id="2c-clip-path-4">
      <path id="2c-Intersection_2" data-name="2c-Intersection 2" d="M0,139.676c1.382-30.557,3.285-72.46,4.4-95.99C5.905,11.714,19.453,0,42.343,0,66.681,0,77.588,14.652,79.209,41.39c.609,10.03,3.757,60.838,6.078,98.286Z" fill="none"/>
    </clipPath>
    <clipPath id="2c-clip-Rityta_1">
      <rect width="200" height="300"/>
    </clipPath>
  </defs>
  <g id="2c-Rityta_1" data-name="2c-Rityta 1" clip-path="url(#2c-clip-Rityta_1)">
    <rect width="200" height="300" fill="#a3a379"/>
    <g id="2c-Group_9" data-name="2c-Group 9" transform="translate(0)">
      <rect id="2c-Rectangle_1" data-name="2c-Rectangle 1" width="199.832" height="199.832" transform="translate(0)" fill="#a3a379"/>
      <g id="2c-flicka_vänster_hår" data-name="2c-flicka vänster hår" transform="translate(12.944)">
        <g id="2c-Group_1" data-name="2c-Group 1" clip-path="url(#2c-clip-path)">
          <path id="2c-Path_1" data-name="2c-Path 1" d="M54.473-4.9C31.583-4.9,16.389,6.783,16.526,38.79,16.7,79.194,24,157.6,24,157.6l65.6,5.416S93.036,54.127,92.052,37.87C90.432,11.132,78.811-4.9,54.473-4.9" transform="translate(-16.525 1.061)" fill="#191023"/>
          <path id="2c-Path_2" data-name="2c-Path 2" d="M52.877-19.944s.374,10.436.374,19.079A24.257,24.257,0,0,1,47.931,15c-5.911,7.215-14.99,4.187-16.206,18.771s8.8,112.312,8.8,112.312L7.013,144.779,7.823-2.688Z" transform="translate(-14.464 4.322)" fill="#00532a"/>
          <path id="2c-Path_3" data-name="2c-Path 3" d="M67.3-21.608s-.277,8.8-.034,18.154C67.5,5.725,65.712,8.97,70.709,16.8S82.566,29.428,85.266,37.666s-7.459,109.879-7.459,109.879,40.276,2.746,40.276,1.126-17.423-165.7-17.423-165.7S68.515-21.2,67.3-21.608" transform="translate(-27.494 4.683)" fill="#fc462c"/>
          <path id="2c-Path_4" data-name="2c-Path 4" d="M52.1-25.067s-1.572,11.7-3.241,18.838C46.63,3.292,41.47,7.6,35.894,12.407,25.563,21.32,21.107,26.587,20.7,49.477c-.491,27.734,6.052,100.808,6.052,100.808L2.446,154.742S-3.226-1.637-2.821-.422,52.1-25.067,52.1-25.067" transform="translate(-12.329 5.432)" fill="#2da787"/>
          <path id="2c-Path_5" data-name="2c-Path 5" d="M41.108-35.929s-.848,10.716-1.429,20.86A36.088,36.088,0,0,1,32.6,3.976c-12.559,15.6-15.544,16.947-15.926,39.837-.482,28.832,1.342,135.178,1.342,135.178l-23.9-5.064S-5.064-6.517-4.709-5.286,41.108-35.929,41.108-35.929" transform="translate(-11.669 7.786)" fill="#cd7dbc"/>
          <path id="2c-Path_6" data-name="2c-Path 6" d="M68.819-25.326s0,10.939,1.013,21.472c.667,6.947,3.642,14.14,7.025,17.694,8.1,8.507,16.878,8.64,17.283,26.06s-7.292,103.51-7.292,103.51l31.6,1.013-7.7-149.9Z" transform="translate(-27.858 5.488)" fill="#de037f"/>
          <path id="2c-Path_7" data-name="2c-Path 7" d="M81.077-25.355s-.669,24.33,4.8,33.446c6.045,10.074,13.344,11.141,13.749,28.561S107.078,179.8,107.078,179.8l19.694-8.844L117.857-5.683Z" transform="translate(-30.509 5.495)" fill="#fe130d"/>
        </g>
      </g>
      <g id="2c-flicka_vänster" data-name="2c-flicka vänster" transform="translate(0.205 0.369)">
        <g id="2c-Group_2" data-name="2c-Group 2" clip-path="url(#2c-clip-path-2)">
          <path id="2c-Path_9" data-name="2c-Path 9" d="M70.062,80.639a21.241,21.241,0,0,1-.725-7.347c5.547-4.389,14.031-11.957,14.031-23.24,0-11.344-4.643-14.885-25.884-14.48-19.5.37-26.377,1.719-25.77,15.29C32.317,64.307,42,69.924,46.721,73.347c.908,3.168.344,6.4-.4,9.723-1.692,7.52-17.031,14.315-17.031,14.315l7.292,36.732,44.565-.4,8.1-35.787s-17.082-10.29-19.18-17.285" transform="translate(-6.551 -8.071)" fill="#9c8524"/>
          <path id="2c-Path_10" data-name="2c-Path 10" d="M40.5,100.554l29.1-.338s8.943,6.592,13.393,9.428a20.216,20.216,0,0,1,9.13,15.395c1.027,10.339,2.273,34.521,6.993,96.511H10.011c1.344-21.331,5.715-89.56,7.156-97.749,1.711-9.723,5.34-11.713,10.834-15.347,5.749-3.8,12.5-7.9,12.5-7.9" transform="translate(-2.374 -22.086)" fill="#a3a379"/>
          <path id="2c-Path_11" data-name="2c-Path 11" d="M49.539,47.191c1.422-.2,3.853.56,3.913,2.9a3.155,3.155,0,0,1-2.9,3.429,3.318,3.318,0,0,1-3.631-2.765,3.1,3.1,0,0,1,2.616-3.564" transform="translate(-10.365 -10.589)" fill="#3181b6"/>
          <path id="2c-Path_12" data-name="2c-Path 12" d="M78.244,46.415c1.422-.2,3.853.56,3.913,2.9a3.155,3.155,0,0,1-2.9,3.429,3.318,3.318,0,0,1-3.631-2.765,3.1,3.1,0,0,1,2.616-3.564" transform="translate(-16.586 -10.421)" fill="#3181b6"/>
          <path id="2c-Path_13" data-name="2c-Path 13" d="M78.762,47.961a2.039,2.039,0,0,1,2.416,1.79,1.948,1.948,0,0,1-1.789,2.117,2.05,2.05,0,0,1-2.243-1.707,1.916,1.916,0,0,1,1.616-2.2" transform="translate(-16.918 -10.758)" fill="#191023"/>
          <path id="2c-Path_14" data-name="2c-Path 14" d="M50.057,48.737a2.039,2.039,0,0,1,2.416,1.79,1.948,1.948,0,0,1-1.789,2.117,2.049,2.049,0,0,1-2.243-1.707,1.916,1.916,0,0,1,1.616-2.2" transform="translate(-10.697 -10.926)" fill="#191023"/>
        </g>
      </g>
      <path id="2c-Path_15" data-name="2c-Path 15" d="M82.086,56.751c2.472-.341,6.694.973,6.8,5.038a5.481,5.481,0,0,1-5.036,5.958c-2.939.1-5.781-1.443-6.309-4.8a5.393,5.393,0,0,1,4.545-6.194" transform="translate(-16.789 -12.287)" fill="#fc462c"/>
      <path id="2c-Path_16" data-name="2c-Path 16" d="M43.078,57.227c2.472-.342,6.693.973,6.8,5.038a5.482,5.482,0,0,1-5.036,5.958c-2.939.1-5.781-1.443-6.309-4.8a5.392,5.392,0,0,1,4.545-6.193" transform="translate(-8.336 -12.39)" fill="#fcaea0"/>
      <g id="2c-pojke_höger" data-name="2c-pojke höger" transform="translate(0)">
        <g id="2c-Group_3" data-name="2c-Group 3" clip-path="url(#2c-clip-path-3)">
          <path id="2c-Path_17" data-name="2c-Path 17" d="M159.529,32.795s-2.681-16.93,3.241-25.658A21.844,21.844,0,0,1,170.577,0h36.114c4.226,2.012,7.791,5,9.555,9.3,4.932,12.02,1.892,24.308,1.892,24.308Z" transform="translate(-34.44 0)" fill="#fe480c"/>
          <path id="2c-Path_18" data-name="2c-Path 18" d="M203.908,71.675a33.31,33.31,0,0,1-.674-10.061c3.215-3.515,7.309-7.2,9.667-12.819a7.8,7.8,0,0,0,3.916.056c2.836-.81,2.836-6.887,2.431-10.938-.274-2.733-2.389-2.515-3.739-2.084-.258-11.834-6.9-14.1-27.806-13.31-18.606.707-26.234-2.335-25.98,13.227-1.344-.364-3.2-.383-3.458,2.167-.4,4.051-.4,10.128,2.431,10.938a7.417,7.417,0,0,0,3.394.057c1.755,4.475,5.766,8.789,8.355,11.489a25.711,25.711,0,0,1,0,14.787c-2.321,7.35-12.154,9.723-12.154,9.723l6.888,40.108,44.564-.4,9.318-38.487s-15.126-5.942-17.152-14.449" transform="translate(-34.256 -4.849)" fill="#9c8524"/>
          <path id="2c-Path_19" data-name="2c-Path 19" d="M181.738,36.7c1.422-.2,3.853.561,3.913,2.9a3.154,3.154,0,0,1-2.9,3.428,3.318,3.318,0,0,1-3.632-2.765,3.1,3.1,0,0,1,2.616-3.564" transform="translate(-38.809 -7.946)" fill="#00532a"/>
          <path id="2c-Path_20" data-name="2c-Path 20" d="M182.466,38.243a2.039,2.039,0,0,1,2.416,1.79,1.948,1.948,0,0,1-1.788,2.117,2.05,2.05,0,0,1-2.243-1.706,1.915,1.915,0,0,1,1.616-2.2" transform="translate(-39.186 -8.284)" fill="#191023"/>
          <path id="2c-Path_21" data-name="2c-Path 21" d="M208.745,36.422c1.422-.2,3.854.561,3.913,2.9a3.155,3.155,0,0,1-2.9,3.43,3.319,3.319,0,0,1-3.632-2.765,3.1,3.1,0,0,1,2.616-3.565" transform="translate(-44.661 -7.886)" fill="#00532a"/>
          <path id="2c-Path_22" data-name="2c-Path 22" d="M209.474,37.97a2.038,2.038,0,0,1,2.415,1.79,1.948,1.948,0,0,1-1.788,2.117,2.051,2.051,0,0,1-2.243-1.707,1.915,1.915,0,0,1,1.617-2.2" transform="translate(-45.039 -8.224)" fill="#191023"/>
          <path id="2c-Path_23" data-name="2c-Path 23" d="M214.719,47.914c2.472-.342,6.694.973,6.8,5.038a5.48,5.48,0,0,1-5.035,5.958c-2.939.1-5.781-1.443-6.31-4.8a5.393,5.393,0,0,1,4.545-6.194" transform="translate(-45.532 -10.372)" fill="#2da787"/>
          <path id="2c-Path_24" data-name="2c-Path 24" d="M174.413,47.626c2.472-.342,6.694.973,6.8,5.039a5.482,5.482,0,0,1-5.036,5.958c-2.939.1-5.781-1.444-6.309-4.8a5.392,5.392,0,0,1,4.545-6.194" transform="translate(-36.797 -10.31)" fill="#e4c903"/>
        </g>
      </g>
      <g id="2c-flicka_höger_hår" data-name="2c-flicka höger hår" transform="translate(112.592 60.156)">
        <g id="2c-Group_4" data-name="2c-Group 4" clip-path="url(#2c-clip-path-4)">
          <path id="2c-Path_25" data-name="2c-Path 25" d="M186.085,76.8c-22.889,0-36.437,11.714-37.947,43.686-1.111,23.529-3.014,65.432-4.4,95.989h85.286c-2.322-37.448-5.47-88.256-6.078-98.286C221.331,91.451,210.423,76.8,186.085,76.8" transform="translate(-143.742 -76.799)" fill="#191023"/>
          <path id="2c-Path_26" data-name="2c-Path 26" d="M185.705,61.752s.185,11.179.185,19.822A26.668,26.668,0,0,1,180.759,96.7c-5.492,7.538-15.682,6.473-16.9,21.057s9.494,110.026,9.494,110.026l-33.513-1.308.81-147.466Z" transform="translate(-142.896 -73.538)" fill="#084182"/>
          <path id="2c-Path_27" data-name="2c-Path 27" d="M200.127,60.088s-.277,8.8-.034,18.154c.239,9.178-1.552,12.424,3.443,20.257s11.857,12.625,14.557,20.863-7.459,109.879-7.459,109.879,40.277,2.745,40.277,1.126-17.424-165.7-17.424-165.7-32.146-4.177-33.361-4.582" transform="translate(-155.927 -73.177)" fill="#fcaea0"/>
          <path id="2c-Path_28" data-name="2c-Path 28" d="M184.927,56.628s-1.571,11.7-3.241,18.838c-2.228,9.521-7.387,13.826-12.964,18.637-10.331,8.912-14.788,14.179-15.193,37.069-.49,27.735,6.053,100.809,6.053,100.809l-24.307,4.455S129.6,80.057,130.008,81.274s54.919-24.646,54.919-24.646" transform="translate(-140.761 -72.428)" fill="#3181b6"/>
          <path id="2c-Path_29" data-name="2c-Path 29" d="M173.936,44.215s-.847,10.715-1.428,20.86a36.1,36.1,0,0,1-7.079,19.045c-12.559,15.6-15.544,16.947-15.926,39.838-.482,28.831,1.341,135.177,1.341,135.177l-23.9-5.064s.822-180.445,1.177-179.213,45.817-30.643,45.817-30.643" transform="translate(-140.101 -69.738)" fill="#159033"/>
          <path id="2c-Path_30" data-name="2c-Path 30" d="M201.647,56.37s0,10.939,1.013,21.472a24.6,24.6,0,0,0,7.09,15.193c8.1,8.507,16.813,11.141,17.218,28.561S219.675,225.1,219.675,225.1l31.6,1.013-7.7-149.9Z" transform="translate(-156.29 -72.372)" fill="#ff7300"/>
          <path id="2c-Path_31" data-name="2c-Path 31" d="M210.213,54.3s.5,24.4,7.7,35.044c6.583,9.731,13.345,11.141,13.75,28.561s7.451,143.144,7.451,143.144l19.694-8.845L249.892,75.571Z" transform="translate(-158.147 -71.923)" fill="#fc3429"/>
        </g>
      </g>
      <g id="2c-flicka_höger" data-name="2c-flicka höger" transform="translate(0.205 0.369)">
        <g id="2c-Group_5" data-name="2c-Group 5" clip-path="url(#2c-clip-path-2)">
          <path id="2c-Path_33" data-name="2c-Path 33" d="M202.692,163.008a21.213,21.213,0,0,1-.724-7.346c5.546-4.39,14.319-11.958,14.319-23.24,0-11.344-4.21-12.408-25.453-12-19.5.371-26.809-.757-26.2,12.814.6,13.444,10.7,19.061,15.418,22.484.908,3.168.344,6.4-.4,9.723-1.692,7.52-17.116,17.226-17.116,17.226l6.249,43.451,44.564-.4,7.96-41s-16.513-14.708-18.612-21.7" transform="translate(-35.426 -26.449)" fill="#9c8524"/>
          <path id="2c-Path_34" data-name="2c-Path 34" d="M181.838,128.358c1.422-.2,3.854.561,3.913,2.9a3.154,3.154,0,0,1-2.9,3.43,3.319,3.319,0,0,1-3.631-2.765,3.1,3.1,0,0,1,2.615-3.565" transform="translate(-39.035 -28.178)" fill="#199d7a"/>
          <path id="2c-Path_35" data-name="2c-Path 35" d="M210.543,127.582c1.422-.2,3.854.561,3.913,2.9a3.154,3.154,0,0,1-2.9,3.43,3.319,3.319,0,0,1-3.631-2.765,3.1,3.1,0,0,1,2.615-3.565" transform="translate(-45.256 -28.01)" fill="#199d7a"/>
          <path id="2c-Path_36" data-name="2c-Path 36" d="M211.062,129.129a2.038,2.038,0,0,1,2.415,1.789,1.948,1.948,0,0,1-1.788,2.118,2.049,2.049,0,0,1-2.243-1.707,1.914,1.914,0,0,1,1.616-2.2" transform="translate(-45.588 -28.348)" fill="#191023"/>
          <path id="2c-Path_37" data-name="2c-Path 37" d="M182.357,129.9a2.038,2.038,0,0,1,2.415,1.789,1.948,1.948,0,0,1-1.788,2.118,2.05,2.05,0,0,1-2.243-1.707,1.914,1.914,0,0,1,1.616-2.2" transform="translate(-39.368 -28.516)" fill="#191023"/>
          <path id="2c-Path_38" data-name="2c-Path 38" d="M175.7,181.426l26.84-.605s8.19,7.032,12.68,9.867a20.19,20.19,0,0,1,9.215,15.395c.573,5.709,1.086,15.175,2.224,32.934H149.848c1.335-15.529,2.542-28.4,3.13-31.719,1.729-9.723,4.82-13.788,10.365-17.42,6.606-4.331,5.857-4.209,12.353-8.452" transform="translate(-32.678 -39.554)" fill="#e8cb03"/>
          <path id="2c-Path_39" data-name="2c-Path 39" d="M175.905,138.922c2.472-.342,6.694.973,6.8,5.037a5.481,5.481,0,0,1-5.036,5.959c-2.939.1-5.781-1.443-6.309-4.8a5.393,5.393,0,0,1,4.545-6.193" transform="translate(-37.325 -30.463)" fill="#ff7300"/>
          <path id="2c-Path_40" data-name="2c-Path 40" d="M214.914,138.447c2.472-.341,6.694.973,6.8,5.038a5.482,5.482,0,0,1-5.036,5.959c-2.939.1-5.781-1.443-6.309-4.8a5.393,5.393,0,0,1,4.545-6.193" transform="translate(-45.779 -30.36)" fill="#fa7978"/>
        </g>
      </g>
      <g id="2c-pojke_vänster" data-name="2c-pojke vänster" transform="translate(0.205 0.369)">
        <g id="2c-Group_7" data-name="2c-Group 7" clip-path="url(#2c-clip-path-2)">
          <path id="2c-Path_41" data-name="2c-Path 41" d="M92.862,131.416s16.943-2.6,25.643,3.361c7.54,5.167,10.473,13.014,10.687,24.9.166,9.185-2.545,24.3-13.1,28.567-12.044,4.875-24.317,1.778-24.317,1.778Z" transform="translate(-20.093 -28.725)" fill="#191023"/>
          <g id="2c-Group_6" data-name="2c-Group 6" transform="translate(-0.205 88.952)">
            <path id="2c-Path_42" data-name="2c-Path 42" d="M98.227,159.645c-.62-18.608,2.458-26.222-13.105-26.042.37-1.343.4-3.2-2.152-3.468-4.049-.424-10.126-.453-10.95,2.38a7.381,7.381,0,0,0-.071,3.394c-4.484,1.733-8.818,5.724-11.529,8.3a25.864,25.864,0,0,1-13.032.411l-.033,31.554A9.4,9.4,0,0,1,49,175.62a33.248,33.248,0,0,1,10.065-.628c3.5,3.23,7.169,7.343,12.772,9.727a7.814,7.814,0,0,0-.075,3.916c.8,2.839,6.874,2.868,10.926,2.481,2.735-.259,2.526-2.376,2.1-3.726C96.62,187.186,98.922,180.556,98.227,159.645Z" transform="translate(-10.262 -117.477)" fill="#9c8524"/>
            <path id="2c-Path_43" data-name="2c-Path 43" d="M37.125,141.158s-4.72-7.126-7.577-12.6c-4.115-7.879-7.639-11.428-15.735-12.884-2.366-.426-7.347-1-13.813-1.646v84.742c6.757-.59,12-1.1,14.645-1.459,6.475-.873,10.354-5.015,14.03-11.075,2.174-3.585,8.417-13.459,8.417-13.459v-.051l.033-31.554Z" transform="translate(0 -114.033)" fill="#15822e"/>
          </g>
          <path id="2c-Path_44" data-name="2c-Path 44" d="M96.2,151.856c.19,1.424-.579,3.851-2.919,3.9a3.154,3.154,0,0,1-3.415-2.914,3.319,3.319,0,0,1,2.781-3.619,3.1,3.1,0,0,1,3.553,2.633" transform="translate(-19.679 -32.699)" fill="#15822e"/>
          <path id="2c-Path_45" data-name="2c-Path 45" d="M95.326,152.579a2.038,2.038,0,0,1-1.8,2.407,1.947,1.947,0,0,1-2.11-1.8,2.048,2.048,0,0,1,1.717-2.233,1.913,1.913,0,0,1,2.193,1.625" transform="translate(-20.015 -33.077)" fill="#191023"/>
          <path id="2c-Path_46" data-name="2c-Path 46" d="M96.059,182.144c.19,1.423-.578,3.851-2.919,3.9a3.156,3.156,0,0,1-3.416-2.913,3.322,3.322,0,0,1,2.782-3.62,3.1,3.1,0,0,1,3.552,2.633" transform="translate(-19.648 -39.262)" fill="#15822e"/>
          <path id="2c-Path_47" data-name="2c-Path 47" d="M95.185,182.866a2.039,2.039,0,0,1-1.8,2.406,1.945,1.945,0,0,1-2.108-1.8,2.047,2.047,0,0,1,1.717-2.233,1.916,1.916,0,0,1,2.193,1.625" transform="translate(-19.984 -39.64)" fill="#191023"/>
          <path id="2c-Path_48" data-name="2c-Path 48" d="M84.268,146.256c.331,2.474-1,6.689-5.069,6.775a5.48,5.48,0,0,1-5.933-5.062c-.085-2.94,1.469-5.775,4.831-6.287a5.392,5.392,0,0,1,6.172,4.574" transform="translate(-16.081 -31.059)" fill="#1b9080"/>
          <path id="2c-Path_49" data-name="2c-Path 49" d="M83.792,186.559c.331,2.474-1,6.689-5.069,6.776a5.48,5.48,0,0,1-5.934-5.064c-.085-2.939,1.47-5.774,4.831-6.286a5.392,5.392,0,0,1,6.172,4.574" transform="translate(-15.978 -39.793)" fill="#ff7300"/>
        </g>
      </g>
    </g>
  </g>
</svg>
